<svg width="492" height="419" viewBox="0 0 492 419" fill="none" xmlns="http://www.w3.org/2000/svg">
<path d="M0 371.883L61.4972 371.624L122.994 371.526L246 371.342L369.006 371.526L430.503 371.613L492 371.883L430.503 372.143L369.006 372.24L246 372.424L122.994 372.24L61.4972 372.143L0 371.883Z" fill="#263238"/>
<path d="M154.162 109.162C178.122 109.162 197.546 90.3462 197.546 67.1353C197.546 43.9243 178.122 25.1082 154.162 25.1082C130.201 25.1082 110.778 43.9243 110.778 67.1353C110.778 90.3462 130.201 109.162 154.162 109.162Z" fill="#00E340"/>
<path d="M154.162 99.21C172.448 99.21 187.272 84.8497 187.272 67.1353C187.272 49.4209 172.448 35.0605 154.162 35.0605C135.875 35.0605 121.051 49.4209 121.051 67.1353C121.051 84.8497 135.875 99.21 154.162 99.21Z" fill="white"/>
<path d="M177.198 72.4659C180.229 60.1511 172.38 47.7878 159.668 44.8518C146.955 41.9157 134.193 49.5186 131.162 61.8334C128.131 74.1482 135.98 86.5115 148.692 89.4476C161.404 92.3836 174.167 84.7807 177.198 72.4659Z" fill="#00E340"/>
<path d="M166.924 69.9747C168.54 63.1498 164.139 56.348 157.094 54.7824C150.049 53.2168 143.027 57.4803 141.411 64.3051C139.795 71.13 144.196 77.9318 151.241 79.4974C158.286 81.063 165.308 76.7995 166.924 69.9747Z" fill="white"/>
<path d="M160.08 67.1353C160.08 68.2693 159.733 69.3778 159.083 70.3206C158.432 71.2635 157.508 71.9983 156.426 72.4323C155.345 72.8662 154.155 72.9798 153.007 72.7586C151.859 72.5373 150.804 71.9913 149.976 71.1894C149.149 70.3876 148.585 69.366 148.357 68.2538C148.128 67.1417 148.246 65.9888 148.693 64.9412C149.141 63.8936 149.9 62.9981 150.873 62.3681C151.847 61.7381 152.991 61.4019 154.162 61.4019C154.939 61.4004 155.709 61.5478 156.428 61.8354C157.147 62.123 157.8 62.5453 158.35 63.078C158.9 63.6106 159.336 64.2433 159.633 64.9395C159.929 65.6358 160.082 66.382 160.08 67.1353Z" fill="#00E340"/>
<path d="M213.416 8.43657L157.352 62.7468L158.695 64.0472L214.759 9.73695L213.416 8.43657Z" fill="#455A64"/>
<path d="M161.487 65.2312L154.161 67.1351L156.127 60.0278L161.487 65.2312Z" fill="#263238"/>
<path d="M223.465 5.54953L212.956 15.7291L204.704 18.1631L207.228 10.1795L217.736 0L215.223 7.98353L223.465 5.54953Z" fill="#263238"/>
<path d="M85.3277 257.636C85.3277 256.901 85.2495 256.165 85.2495 255.473H86.087C86.087 256.176 86.087 256.89 86.1652 257.636H85.3277Z" fill="#263238"/>
<path d="M171.851 320.52H171.705V319.709H171.862C173.269 319.709 174.721 319.709 176.161 319.601V320.412C174.743 320.455 173.28 320.52 171.851 320.52ZM166.088 320.336C164.603 320.25 163.096 320.12 161.622 319.968L161.711 319.157C163.174 319.319 164.67 319.438 166.178 319.536L166.088 320.336ZM181.8 320.001L181.711 319.189C183.174 319.038 184.659 318.843 186.122 318.627L186.245 319.427C184.771 319.622 183.275 319.806 181.8 319.968V320.001ZM156.116 319.2C154.653 318.951 153.179 318.67 151.649 318.346L151.839 317.556C153.291 317.87 154.754 318.151 156.205 318.4L156.116 319.2ZM191.851 318.432L191.672 317.643C193.113 317.34 194.576 316.993 196.005 316.636L196.217 317.415C194.698 317.751 193.224 318.097 191.773 318.356L191.851 318.432ZM146.289 317.004C144.86 316.604 143.419 316.171 142.001 315.706L142.269 314.938C143.676 315.403 145.105 315.836 146.524 316.225L146.289 317.004ZM201.6 315.922L201.343 315.154C202.728 314.711 204.146 314.235 205.553 313.726L205.843 314.484C204.347 314.927 202.917 315.403 201.522 315.847L201.6 315.922ZM136.741 313.845C135.357 313.305 133.972 312.764 132.621 312.125L132.967 311.379C134.307 311.985 135.692 312.558 137.054 313.099L136.741 313.845ZM211.047 312.45L210.712 311.704C212.074 311.141 213.426 310.524 214.732 309.875L215.112 310.6C213.705 311.173 212.342 311.801 210.969 312.374L211.047 312.45ZM127.584 309.702C126.255 309.01 124.938 308.296 123.676 307.539L124.1 306.846C125.362 307.571 126.669 308.285 127.986 309.01L127.584 309.702ZM220.014 307.971L219.579 307.279C220.841 306.543 222.103 305.754 223.331 304.942L223.8 305.613C222.482 306.36 221.209 307.149 219.936 307.896L220.014 307.971ZM118.93 304.65C117.679 303.839 116.451 302.995 115.256 302.141L115.758 301.492C116.875 302.335 118.159 303.179 119.399 303.98L118.93 304.65ZM228.367 302.389L227.854 301.762C228.97 300.875 230.154 299.945 231.26 298.993L231.818 299.609C230.567 300.486 229.406 301.427 228.233 302.314L228.367 302.389ZM110.912 298.765C109.795 297.824 108.678 296.862 107.562 295.888L108.131 295.293C109.248 296.256 110.365 297.219 111.481 298.138L110.912 298.765ZM235.916 295.899L235.324 295.325C236.352 294.33 237.39 293.292 238.406 292.221L239.021 292.762C237.859 293.768 236.821 294.828 235.782 295.823L235.916 295.899ZM103.396 291.983C102.369 290.901 101.353 289.819 100.381 288.737L101.018 288.207C101.978 289.289 102.983 290.371 103.999 291.453L103.396 291.983ZM242.583 288.597L241.946 288.077C242.884 286.996 243.823 285.86 244.727 284.713L245.386 285.211C244.47 286.357 243.532 287.504 242.583 288.597ZM96.8635 284.508C95.9702 283.339 95.0991 282.139 94.2839 280.938L94.9875 280.494C95.7915 281.673 96.6514 282.863 97.5447 284.021L96.8635 284.508ZM248.736 280.851L248.044 280.375C248.904 279.207 249.752 278.028 250.579 276.827L251.282 277.271C250.467 278.482 249.596 279.672 248.736 280.851ZM91.4028 276.264C90.6658 274.966 89.9958 273.647 89.3928 272.359L90.1521 272.024C90.7551 273.3 91.414 274.599 92.1287 275.875L91.4028 276.264ZM254.331 272.716L253.616 272.284C254.409 271.072 255.179 269.839 255.95 268.595L256.665 269.017C255.894 270.261 255.124 271.494 254.331 272.716ZM87.3492 267.307C86.869 265.89 86.467 264.473 86.1543 263.099L86.9695 262.926C87.2822 264.278 87.673 265.663 88.0862 267.059L87.3492 267.307ZM259.501 264.376L258.764 263.975C259.501 262.721 260.227 261.466 260.998 260.2L261.735 260.59C260.964 261.823 260.227 263.078 259.501 264.332V264.376ZM264.348 255.819L263.611 255.429C264.31 254.16 265.003 252.884 265.688 251.6L266.436 251.979C265.744 253.223 265.051 254.532 264.348 255.776V255.819ZM268.993 247.165L268.256 246.797C268.926 245.509 269.596 244.222 270.277 242.935L271.026 243.292L268.993 247.165ZM273.527 238.445L272.779 238.088L274.778 234.205L275.526 234.573L273.527 238.445ZM277.994 229.726L277.246 229.359L279.267 225.486L280.015 225.854L277.994 229.726ZM282.55 221.072L281.813 220.704L283.868 216.853L284.616 217.232L282.55 221.072ZM287.229 212.418L286.492 212.028C287.196 210.763 287.91 209.497 288.625 208.231L289.362 208.621C288.67 209.822 287.966 211.087 287.318 212.342L287.229 212.418ZM292.087 203.915L291.35 203.515C292.087 202.26 292.835 201.016 293.583 199.772L294.309 200.183C293.594 201.362 292.902 202.606 292.12 203.85L292.087 203.915ZM297.19 195.564L296.475 195.131C297.257 193.909 298.039 192.686 298.843 191.475L299.558 191.907C298.787 193.054 297.994 194.276 297.224 195.499L297.19 195.564ZM302.606 187.396L301.903 186.942C302.74 185.741 303.589 184.551 304.449 183.361L305.13 183.837C304.304 184.952 303.466 186.141 302.64 187.331L302.606 187.396ZM308.402 179.445L307.721 178.969C308.614 177.812 309.519 176.654 310.445 175.518L311.104 176.016C310.222 177.087 309.318 178.234 308.435 179.38L308.402 179.445ZM314.6 171.808L313.952 171.289C314.912 170.207 315.884 169.071 316.867 167.989L317.492 168.519C316.543 169.536 315.582 170.64 314.633 171.743L314.6 171.808ZM321.3 164.528L320.686 163.965C321.713 162.883 322.74 161.877 323.801 160.849L324.393 161.423C323.321 162.375 322.294 163.413 321.278 164.463L321.3 164.528ZM328.402 157.658L327.821 157.063C328.938 156.079 330.055 155.105 331.172 154.153L331.719 154.759C330.557 155.646 329.452 156.62 328.38 157.593L328.402 157.658ZM335.951 151.276L335.426 150.648C336.543 149.729 337.771 148.831 338.944 147.965L339.458 148.604C338.274 149.404 337.09 150.302 335.929 151.211L335.951 151.276ZM343.947 145.423L343.467 144.763C344.684 143.941 345.934 143.119 347.185 142.329L347.643 143.011C346.381 143.725 345.142 144.547 343.924 145.358L343.947 145.423ZM352.367 140.144L351.931 139.452C353.215 138.705 354.522 137.97 355.817 137.288L356.219 137.991C354.913 138.619 353.617 139.344 352.344 140.079L352.367 140.144Z" fill="#263238"/>
<path d="M361.345 135.276L360.965 134.552L362.975 133.589L363.344 134.314L361.345 135.276Z" fill="#263238"/>
<path d="M350.904 127.79L344.784 144.06L357.638 134.346L406.75 117.092L350.904 127.79Z" fill="#00E340"/>
<path opacity="0.1" d="M350.904 127.79L344.784 144.06L357.638 134.346L406.75 117.092L350.904 127.79Z" fill="#17153E"/>
<path d="M359.279 138.143L344.784 144.06L357.638 134.346L359.279 138.143Z" fill="#263238"/>
<path d="M357.637 134.346L406.75 117.092L366.459 155.17L357.637 134.346Z" fill="#00E340"/>
<path d="M350.904 127.79L330.501 115.015L406.75 117.092L350.904 127.79Z" fill="#00E340"/>
<path d="M446.271 13.2085H307.363V97.9767H446.271V13.2085Z" fill="#181818"/>
<path d="M318.81 32.6155C338.084 32.4965 357.358 32.529 376.622 32.4857C395.885 32.4424 415.17 32.4857 434.434 32.6155C415.17 32.7345 395.896 32.7021 376.622 32.7453C357.347 32.7886 338.084 32.767 318.81 32.6155Z" fill="#A6A6A6"/>
<path d="M318.81 43.6823C338.084 43.585 357.358 43.585 376.655 43.585C395.952 43.585 415.204 43.585 434.467 43.7148C415.204 43.8338 395.93 43.8013 376.655 43.8554C357.381 43.9095 338.084 43.8013 318.81 43.6823Z" fill="#A6A6A6"/>
<path d="M318.81 54.7488C338.084 54.6298 357.358 54.6623 376.622 54.619C395.885 54.5757 415.17 54.619 434.434 54.7488C415.17 54.8678 395.896 54.8354 376.622 54.8895C357.347 54.9435 338.084 54.8678 318.81 54.7488Z" fill="#A6A6A6"/>
<path d="M318.81 65.8155C338.084 65.6965 357.358 65.7289 376.622 65.6857C395.885 65.6424 415.17 65.6857 434.434 65.8155C415.17 65.9345 395.896 65.902 376.622 65.9561C357.347 66.0102 338.084 65.9345 318.81 65.8155Z" fill="#A6A6A6"/>
<path d="M318.81 76.8821C338.084 76.7631 357.358 76.7956 376.622 76.7523C395.885 76.709 415.17 76.7523 434.434 76.8821C415.17 77.0011 395.896 76.9687 376.622 77.0228C357.347 77.0768 338.084 77.0011 318.81 76.8821Z" fill="#A6A6A6"/>
<path d="M342.093 25.4219C342.261 35.7637 342.216 46.1055 342.283 56.4473C342.35 66.7891 342.283 77.1201 342.093 87.4619C341.926 77.1201 341.959 66.7783 341.892 56.4473C341.825 46.1163 341.926 35.7637 342.093 25.4219Z" fill="#A6A6A6"/>
<path d="M362.138 25.4219C362.317 35.7637 362.272 46.1055 362.339 56.4473C362.406 66.7891 362.339 77.1201 362.138 87.4619C361.97 77.1201 362.015 66.7783 361.948 56.4473C361.881 46.1163 361.915 35.7637 362.138 25.4219Z" fill="#A6A6A6"/>
<path d="M382.082 25.4219C382.25 35.7637 382.205 46.1055 382.283 56.4473C382.361 66.7891 382.283 77.1201 382.082 87.4619C381.915 77.1201 381.948 66.7783 381.881 56.4473C381.814 46.1163 381.915 35.7637 382.082 25.4219Z" fill="#A6A6A6"/>
<path d="M402.071 25.4219C402.25 35.7637 402.205 46.1055 402.272 56.4473C402.339 66.7891 402.272 77.1201 402.071 87.4619C401.904 77.1201 401.949 66.7783 401.882 56.4473C401.815 46.1163 401.904 35.7637 402.071 25.4219Z" fill="#A6A6A6"/>
<path d="M422.072 25.4219C422.239 35.7637 422.195 46.1055 422.273 56.4473C422.351 66.7891 422.273 77.1201 422.072 87.4619C421.904 77.1201 421.949 66.7783 421.871 56.4473C421.793 46.1163 421.904 35.7637 422.072 25.4219Z" fill="#A6A6A6"/>
<path opacity="0.5" d="M321.724 68.8551C325.253 68.8551 327.308 57.6154 332.355 57.6154C337.403 57.6154 337.883 65.8153 342.093 65.8153C346.303 65.8153 346.169 51.406 351.831 51.406C357.492 51.406 356.163 57.2585 362.082 57.2585C368.001 57.2585 365.767 43.6821 371.954 43.6821C378.14 43.6821 375.639 62.3861 382.082 62.3861C386.158 62.3861 387.733 56.4471 392.602 56.4471C395.829 56.4471 397.727 59.4112 401.937 59.4112C406.147 59.4112 407.074 47.9876 412.334 47.9876C417.594 47.9876 418.197 54.7487 422.072 54.7487C425.947 54.7487 427.331 43.6821 434.434 43.6821V87.4617H321.724V68.8551Z" fill="#00E340"/>
<path d="M321.724 69.3961V68.3144C322.841 68.3144 324.259 65.6856 325.342 63.7709C327.185 60.5256 329.094 57.0747 332.355 57.0747C335.616 57.0747 337.045 59.5628 338.408 61.7696C339.524 63.4896 340.641 65.2746 342.093 65.2746C343.411 65.2746 344.55 61.8129 345.376 59.2923C346.75 55.1491 348.157 50.8653 351.831 50.8653C355.103 50.8653 356.387 52.5528 357.515 54.0349C358.643 55.5169 359.569 56.7177 362.082 56.7177C364.315 56.7177 365.253 53.5481 366.113 50.4758C367.13 46.8735 368.179 43.1414 371.954 43.1414C375.728 43.1414 376.655 47.8363 377.671 52.8125C378.498 56.8367 379.514 61.8453 382.082 61.8453C383.612 61.8453 384.874 60.6013 386.203 59.3031C387.811 57.7021 389.654 55.9064 392.602 55.9064C394.196 56.0019 395.736 56.5018 397.069 57.3559C398.511 58.2712 400.181 58.7943 401.904 58.8704C403.367 58.8704 404.696 56.1552 405.768 53.97C407.342 50.7246 408.973 47.4793 412.3 47.4793C415.628 47.4793 417.247 49.6429 418.688 51.5468C419.738 52.9315 420.732 54.2404 422.038 54.2404C423.155 54.2404 424.417 52.1418 425.522 50.2811C427.421 47.1115 429.788 43.1738 434.4 43.1738V44.2556C430.849 44.2556 428.817 47.674 426.985 50.7463C425.433 53.3317 424.216 55.3763 422.038 55.3763C419.861 55.3763 418.565 53.7861 417.281 52.1309C415.997 50.4758 414.657 48.6584 412.3 48.6584C410.067 48.6584 408.604 51.7307 407.264 54.446C405.79 57.4749 404.506 60.082 401.904 60.082C399.842 60.0186 397.835 59.4168 396.097 58.3404C395.049 57.6447 393.834 57.2236 392.568 57.1179C390.446 57.1179 388.928 58.6 387.465 60.0496C386.002 61.4992 384.405 63.0569 382.049 63.0569C378.107 63.0569 377.113 58.2105 376.074 53.0937C375.282 49.1993 374.288 44.353 371.92 44.353C369.553 44.353 368.481 47.7822 367.632 50.8436C366.605 54.5 365.633 57.9617 362.049 57.9617C358.464 57.9617 357.258 56.2201 356.085 54.7164C354.913 53.2127 354.109 52.1309 351.797 52.1309C349.486 52.1309 348 56.3391 346.895 59.7034C345.633 63.5221 344.661 66.5294 342.059 66.5294C339.457 66.5294 338.263 64.5065 336.923 62.3646C335.683 60.3849 334.41 58.3295 332.322 58.3295C330.233 58.3295 328.279 61.6614 326.738 64.3334C325.175 67.0811 323.879 69.3961 321.724 69.3961Z" fill="#00E340"/>
<path d="M321.724 26.0925C321.847 36.3262 321.958 46.549 321.97 56.7826L322.093 87.4618L321.724 87.213L378.084 87.2779H406.259L434.433 87.4186L406.259 87.5592L378.084 87.6133L321.724 87.6782H321.355V87.4186L321.478 56.7393C321.489 46.549 321.59 36.3262 321.724 26.0925Z" fill="#A6A6A6"/>
<path d="M152.877 418.021C155.323 418.789 225.274 417.902 227.909 416.236C228.925 415.62 229.383 405.732 229.595 393.778V393.411C229.595 390.944 229.673 388.402 229.673 385.838C229.673 385.481 229.673 385.124 229.673 384.756L226.323 349.599L179.533 350.053L184.145 384.875V386.26L184.424 393.465V394.2C184.424 394.2 157.802 406.1 155.1 408.263C152.397 410.427 150.421 417.264 152.877 418.021Z" fill="#DD6A57"/>
<path d="M152.877 418.021C155.323 418.789 225.274 417.902 227.909 416.236C228.925 415.62 229.383 405.732 229.595 393.778V393.411C229.595 390.944 229.674 388.402 229.674 385.838C229.674 385.481 229.674 385.124 229.674 384.756L184.101 384.875V386.26L184.38 393.465V394.2C184.38 394.2 157.757 406.1 155.055 408.263C152.353 410.427 150.421 417.264 152.877 418.021Z" fill="#EBEBEB"/>
<path d="M152.867 418.01C154.128 418.411 173.135 418.367 191.706 418.01C195.447 417.945 199.154 417.859 202.694 417.762C215.938 417.415 226.893 416.885 227.909 416.247C228.926 415.609 229.372 406.024 229.573 394.287C229.573 394.125 229.573 393.962 229.573 393.789C229.573 393.616 229.573 393.53 229.573 393.411H229.518L184.447 393.486V394.233C184.447 394.233 157.836 406.132 155.133 408.296C152.431 410.459 150.421 417.253 152.867 418.01Z" fill="#00E340"/>
<path d="M153.637 415.382C165.418 414.949 213.001 414.3 224.682 414.743C224.783 414.743 224.783 414.808 224.682 414.819C213.012 415.49 165.429 415.771 153.637 415.566C153.38 415.566 153.38 415.392 153.637 415.382Z" fill="black"/>
<path d="M179.444 393.67C184.067 392.772 189.751 393.4 193.347 396.548C193.481 396.678 193.347 396.862 193.146 396.818C188.695 395.485 184.109 394.621 179.466 394.244C179.397 394.233 179.334 394.2 179.287 394.149C179.24 394.099 179.213 394.034 179.211 393.966C179.208 393.898 179.23 393.831 179.273 393.777C179.315 393.723 179.376 393.686 179.444 393.67Z" fill="black"/>
<path d="M176.116 395.671C180.75 394.774 186.434 395.39 190.019 398.549C190.153 398.668 190.019 398.863 189.829 398.819C185.377 397.493 180.791 396.63 176.15 396.245C176.071 396.249 175.994 396.223 175.935 396.172C175.877 396.122 175.841 396.05 175.837 395.974C175.832 395.898 175.859 395.824 175.912 395.767C175.964 395.71 176.038 395.676 176.116 395.671Z" fill="black"/>
<path d="M172.8 397.673C177.423 396.775 183.107 397.391 186.692 400.55C186.837 400.669 186.692 400.853 186.502 400.81C182.049 399.487 177.463 398.624 172.822 398.235C172.745 398.238 172.67 398.211 172.614 398.16C172.557 398.11 172.524 398.039 172.521 397.965C172.518 397.89 172.546 397.818 172.598 397.763C172.65 397.708 172.723 397.676 172.8 397.673Z" fill="black"/>
<path d="M191.706 417.999C195.447 417.934 199.154 417.848 202.694 417.751C215.938 417.404 226.893 416.874 227.909 416.236C228.925 415.598 229.372 406.013 229.573 394.276C229.573 394.114 229.573 393.951 229.573 393.778C229.573 393.605 229.573 393.519 229.573 393.4H229.517C223.364 397.597 201.6 411.628 191.706 417.999Z" fill="black"/>
<path d="M181.398 393.638H231.762C231.762 393.638 221.622 279.661 222.024 277.671C222.527 275.129 225.497 263.608 229.45 248.517C230.701 243.801 232.03 238.781 233.426 233.502C237.178 219.32 241.321 203.829 244.928 190.339C250.344 170.142 254.565 154.446 254.565 154.446H211.873C211.873 154.446 206.915 169.72 200.628 189.625C190.41 221.938 176.764 266.431 175.413 277.249C173.235 294.644 181.398 393.638 181.398 393.638Z" fill="#0E0E0E"/>
<path d="M183.62 385.308C191.315 385.157 189.104 385.092 196.798 385.027C200.572 385.027 225.307 384.778 228.825 385.34C228.846 385.34 228.865 385.348 228.88 385.363C228.895 385.377 228.903 385.396 228.903 385.416C228.903 385.436 228.895 385.456 228.88 385.47C228.865 385.484 228.846 385.492 228.825 385.492C225.307 386.054 200.572 385.849 196.798 385.816C189.104 385.741 191.315 385.687 183.62 385.524C183.591 385.524 183.562 385.513 183.542 385.493C183.521 385.472 183.509 385.445 183.509 385.416C183.509 385.387 183.521 385.36 183.542 385.34C183.562 385.319 183.591 385.308 183.62 385.308Z" fill="black"/>
<path d="M212.499 270.758C214.152 263.705 216.619 256.793 218.764 249.869C223.126 235.806 227.519 221.743 231.941 207.68C234.174 200.648 236.408 193.624 238.641 186.607C239.765 183.059 240.882 179.514 241.991 175.973C243.108 172.511 244.392 169.082 245.397 165.588C245.81 164.16 246.034 164.939 245.509 166.745C244.392 170.391 243.398 174.026 242.304 177.66C240.137 184.872 237.956 192.059 235.76 199.22C231.42 213.485 227.016 227.758 222.549 242.037C220.316 249.191 218.082 256.349 215.849 263.51C214.724 266.915 213.814 270.383 213.124 273.896C212.535 277.57 212.385 281.298 212.678 285.005C213.169 292.47 214.062 299.923 214.766 307.377L216.91 329.769C218.332 344.619 219.739 359.475 221.131 374.339C221.31 376.221 221.477 378.103 221.622 379.986C221.678 380.613 220.684 380.57 220.617 379.986C218.965 365.295 217.692 350.561 216.262 335.849C214.833 321.137 213.437 306.576 212.019 291.929C211.661 288.262 211.259 284.573 211.259 280.884C211.283 277.475 211.699 274.078 212.499 270.758Z" fill="black"/>
<path d="M216.72 154.446C219.69 176.654 225.341 218.271 229.45 248.56C239.087 211.953 254.565 154.446 254.565 154.446H216.72Z" fill="black"/>
<path d="M206.234 418.67C208.691 419.449 278.63 418.811 281.277 417.156C282.293 416.539 282.796 406.662 283.041 394.709C283.041 394.579 283.041 394.46 283.041 394.33C283.097 391.864 283.142 389.332 283.153 386.758C283.153 386.411 283.153 386.054 283.153 385.676C283.321 368.432 282.036 350.529 282.036 350.529L236.318 350.821L237.591 385.643V387.017L237.848 394.233V394.968C237.848 394.968 211.192 406.868 208.479 408.934C205.765 411 203.788 417.88 206.234 418.67Z" fill="#DD6A57"/>
<path d="M206.234 418.67C208.691 419.449 278.63 418.811 281.277 417.156C282.293 416.539 282.796 406.662 283.041 394.709C283.041 394.579 283.041 394.46 283.041 394.33C283.097 391.864 283.142 389.332 283.153 386.758C283.153 386.411 283.153 386.054 283.153 385.676H237.591V387.05L237.848 394.265V395.001C237.848 395.001 211.192 406.9 208.479 408.966C205.765 411.033 203.788 417.88 206.234 418.67Z" fill="#EBEBEB"/>
<path d="M206.234 418.67C208.691 419.449 278.63 418.811 281.277 417.156C282.293 416.539 282.796 406.662 283.041 394.709C283.041 394.579 283.041 394.46 283.041 394.33L237.904 394.254V394.99C237.904 394.99 211.248 406.89 208.534 408.956C205.821 411.022 203.788 417.88 206.234 418.67Z" fill="#00E340"/>
<path d="M207.005 416.041C218.797 415.652 266.38 415.165 278.061 415.652C278.15 415.652 278.15 415.717 278.061 415.728C266.38 416.355 218.797 416.463 207.005 416.225C206.759 416.214 206.759 416.041 207.005 416.041Z" fill="black"/>
<path d="M232.901 394.417C237.524 393.54 243.208 394.179 246.782 397.348C246.927 397.467 246.782 397.662 246.592 397.619C242.147 396.269 237.564 395.388 232.924 394.99C232.854 394.98 232.791 394.947 232.744 394.896C232.697 394.845 232.67 394.78 232.668 394.712C232.665 394.644 232.687 394.578 232.73 394.524C232.772 394.47 232.833 394.432 232.901 394.417Z" fill="black"/>
<path d="M229.562 396.407C234.197 395.52 239.881 396.158 243.454 399.339C243.599 399.458 243.454 399.642 243.264 399.598C238.818 398.253 234.235 397.372 229.596 396.97C229.519 396.974 229.443 396.949 229.385 396.899C229.328 396.849 229.293 396.779 229.289 396.705C229.284 396.63 229.31 396.557 229.362 396.501C229.413 396.445 229.485 396.412 229.562 396.407Z" fill="black"/>
<path d="M226.234 398.408C230.869 397.532 236.553 398.17 240.126 401.34C240.26 401.459 240.126 401.654 239.925 401.61C235.48 400.259 230.897 399.378 226.257 398.982C226.187 398.972 226.124 398.938 226.077 398.888C226.03 398.837 226.003 398.772 226.001 398.704C225.998 398.636 226.02 398.569 226.063 398.516C226.105 398.462 226.166 398.424 226.234 398.408Z" fill="black"/>
<path d="M213.258 154.446C213.258 154.446 214.241 174.231 218.92 189.906C219.288 191.204 219.701 192.481 220.137 193.703C224.415 195.378 228.526 197.428 232.421 199.826C232.421 199.826 232.912 215.75 233.403 233.502C233.95 253.353 234.52 275.486 234.397 280.181C233.973 297.749 236.631 394.352 236.631 394.352L286.994 394.546C286.994 394.546 277.893 286.671 277.949 280.235C278.049 269.893 275.514 224.166 273.56 190.826C272.354 170.272 271.327 154.446 271.327 154.446H213.258Z" fill="#0E0E0E"/>
<path d="M238.417 385.676C246.111 385.546 243.9 385.481 251.595 385.438C255.358 385.438 280.104 385.308 283.622 385.892C283.689 385.892 283.689 386.033 283.622 386.044C280.093 386.595 255.358 386.282 251.595 386.228C243.9 386.13 246.1 386.076 238.417 385.892C238.388 385.892 238.359 385.881 238.338 385.86C238.317 385.84 238.306 385.813 238.306 385.784C238.306 385.755 238.317 385.728 238.338 385.707C238.359 385.687 238.388 385.676 238.417 385.676Z" fill="black"/>
<path d="M267.217 161.499C268.144 188.716 269.127 215.934 270.389 243.141C271.651 270.347 273.348 297.738 275.704 324.966C277.022 340.187 278.262 361.585 279.959 376.762C279.953 376.779 279.941 376.793 279.926 376.803C279.911 376.813 279.894 376.818 279.875 376.818C279.857 376.818 279.839 376.813 279.824 376.803C279.809 376.793 279.798 376.779 279.792 376.762C276.129 349.718 274.085 316.377 272.276 289.214C270.467 262.05 269.25 234.833 268.301 207.626C267.753 192.232 267.34 176.838 266.871 161.445C266.838 161.282 267.217 161.304 267.217 161.499Z" fill="black"/>
<path d="M218.082 192.524C223.094 194.548 227.914 196.992 232.488 199.826C232.519 199.85 232.54 199.883 232.548 199.921C232.556 199.958 232.55 199.997 232.531 200.03C232.513 200.064 232.482 200.09 232.446 200.104C232.409 200.118 232.369 200.119 232.331 200.107C227.474 197.825 222.516 195.629 217.814 193.087C217.75 193.045 217.704 192.983 217.683 192.911C217.662 192.839 217.668 192.762 217.701 192.695C217.733 192.627 217.789 192.573 217.859 192.541C217.929 192.51 218.008 192.504 218.082 192.524Z" fill="black"/>
<path d="M217.758 175.735C218.093 177.466 218.529 179.186 218.875 180.906C219.221 182.626 219.511 184.151 219.992 185.774C220.358 187.321 221.171 188.736 222.337 189.852C222.996 190.436 223.71 190.934 224.414 191.507C224.782 191.799 225.196 192.07 225.586 192.373C225.531 192.135 225.497 191.908 225.452 191.67C225.33 191.01 225.218 190.361 225.106 189.701C224.849 188.24 224.604 186.769 224.38 185.309C223.922 182.431 223.509 179.521 222.884 176.655C222.891 176.635 222.904 176.619 222.921 176.607C222.938 176.595 222.958 176.589 222.979 176.589C223 176.589 223.02 176.595 223.037 176.607C223.054 176.619 223.067 176.635 223.074 176.655C223.811 179.478 224.626 182.269 225.307 185.114C225.62 186.51 226.748 193.4 226.804 193.898C226.859 194.396 226.893 194.904 226.915 195.413C226.977 195.927 226.977 196.446 226.915 196.96C226.915 197.079 226.725 197.057 226.67 196.96C226.455 196.483 226.305 195.981 226.223 195.467C226.089 194.969 225.977 194.471 225.888 193.974C225.888 193.79 225.821 193.606 225.799 193.422C225.095 193.011 224.447 192.459 223.788 192.005C223.13 191.551 222.37 191.021 221.7 190.48C220.463 189.469 219.571 188.119 219.143 186.607C218.713 184.986 218.433 183.332 218.305 181.663C218.082 179.694 217.915 177.726 217.635 175.778C217.557 175.659 217.736 175.616 217.758 175.735Z" fill="black"/>
<path d="M233.068 100.14C231.17 107.713 210.567 148.453 210.734 150.984C210.734 151.59 223.197 159.638 223.498 160.623C224.738 164.506 204.291 180.917 199.813 181.89C186.658 184.768 175.167 184.173 175.401 173.712C175.77 157.302 205.553 116.659 220.807 102.315C230.835 92.8491 234.944 92.7193 233.068 100.14Z" fill="#DD6A57"/>
<path d="M194.799 183.848L218.998 154.445C218.998 154.445 211.773 151.914 211.616 150.281C211.46 148.647 228.959 113.771 232.745 103.515C236.53 93.26 233.593 91.1398 222.248 99.9346C210.902 108.729 168.802 165.718 175.044 178.407C179.344 187.158 194.799 183.848 194.799 183.848Z" fill="#00E340"/>
<path d="M211.606 150.475C210.532 150.735 209.489 151.097 208.49 151.557C207.477 151.99 206.472 152.433 205.475 152.888C203.498 153.775 201.533 154.694 199.623 155.711C197.714 156.728 195.86 157.81 194.04 158.957L192.744 159.735L192.231 159.909C191.505 160.157 190.779 160.428 190.087 160.742C188.734 161.354 187.425 162.051 186.167 162.829C186.078 162.883 186.167 163.013 186.256 162.97C187.566 162.254 188.928 161.632 190.332 161.109L190.891 160.915C190.154 161.391 189.439 161.888 188.746 162.418C186.89 163.806 185.126 165.305 183.464 166.908C183.386 166.983 183.464 167.092 183.587 167.016C186.58 164.203 190.366 162.169 193.973 160.19C197.58 158.21 201.365 155.928 205.14 153.905C206.257 153.321 207.295 152.769 208.401 152.239C209.527 151.765 210.626 151.235 211.695 150.649C211.716 150.636 211.731 150.616 211.737 150.592C211.744 150.569 211.741 150.545 211.73 150.523C211.719 150.502 211.7 150.485 211.677 150.476C211.654 150.468 211.629 150.467 211.606 150.475Z" fill="black"/>
<path d="M276.676 183.848C276.497 184.021 202.705 179.132 202.08 178.342C201.22 177.26 223.588 100.973 231.874 91.9296C233.638 89.9932 244.023 87.9378 249.573 93.0113C261.344 103.829 269.596 138.554 271.327 148.983C274.197 166.194 277.335 183.21 276.676 183.848Z" fill="#00E340"/>
<path d="M223.666 108.156C223.666 108.037 223.498 107.951 223.454 108.07C222.236 111.012 221.109 113.987 220.003 116.962C220.059 116.54 220.104 116.107 220.137 115.686C220.226 114.55 220.215 113.414 220.316 112.289C220.316 112.181 220.148 112.181 220.148 112.289C220.081 113.457 219.858 114.604 219.679 115.761C219.501 116.919 219.378 117.838 219.199 118.877L219.099 119.429C217.312 124.394 215.637 129.403 213.995 134.411C211.092 143.336 208.412 152.347 205.899 161.38C204.47 166.475 203.219 171.603 202.046 176.752C202.053 176.769 202.064 176.783 202.079 176.793C202.094 176.803 202.112 176.808 202.13 176.808C202.148 176.808 202.166 176.803 202.181 176.793C202.196 176.783 202.208 176.769 202.214 176.752C204.95 167.816 207.596 158.849 210.321 149.913C212.823 141.681 215.458 133.492 218.138 125.303C218.151 125.31 218.166 125.314 218.18 125.315C218.195 125.316 218.21 125.314 218.224 125.309C218.238 125.304 218.25 125.296 218.261 125.285C218.271 125.275 218.279 125.262 218.283 125.248L218.853 123.085C220.483 118.163 222.136 113.176 223.666 108.156Z" fill="black"/>
<path d="M229.975 95.0992C229.54 98.3445 228.747 105.83 234.029 105.722C236.169 105.501 238.197 104.686 239.869 103.375C241.611 102.192 243.21 100.824 244.638 99.2965C246.303 97.6407 247.824 95.8531 249.183 93.9525C249.183 93.8768 249.373 93.9525 249.306 94.0498C247.921 95.9538 246.737 97.9442 245.163 99.7075C243.664 101.436 241.933 102.96 240.014 104.24C238.228 105.582 236.063 106.366 233.806 106.49C232.827 106.471 231.886 106.124 231.141 105.509C230.396 104.894 229.893 104.048 229.718 103.115C229.191 100.458 229.278 97.7198 229.975 95.0992Z" fill="black"/>
<path d="M254.42 108.849C272.377 121.83 293.237 128.829 301.858 125.562C308.558 123.009 330.256 103.764 333.807 88.2082C334.589 84.7789 307.374 81.7175 306.302 84.0217C303.164 90.6422 290.892 102.141 289.641 101.968C288.011 101.752 269.44 97.9009 254.777 94.5582C237.066 90.5232 244.604 101.774 254.42 108.849Z" fill="#DD6A57"/>
<path d="M338.687 82.648C337.269 88.2192 329.753 98.5285 326.95 100.335C324.147 102.142 305.655 90.3502 305.387 87.0184C305.119 83.6865 311.417 65.2638 316.219 61.7047C321.021 58.1457 340.206 76.8713 338.687 82.648Z" fill="#DD6A57"/>
<path d="M305.934 83.6972C305.268 79.1033 303.913 74.6281 301.914 70.4129C299.345 65.4692 294.956 58.4052 297.648 56.9664C303.175 54.0132 314.119 71.6245 314.119 71.6245C314.119 71.6245 317.659 80.1489 312.444 83.5241C311.481 84.1318 310.363 84.4696 309.214 84.5002C308.065 84.5307 306.93 84.2528 305.934 83.6972Z" fill="#DD6A57"/>
<path d="M310.01 68.6281C312.243 70.716 313.941 68.8012 313.941 68.8012C313.941 68.8012 310.59 73.7341 312.757 76.3736C314.923 79.0132 318.34 75.4866 318.608 75.2919C318.43 75.5515 315.482 80.1599 317.927 82.5939C320.373 85.0279 323.388 81.101 323.578 80.8414C323.488 81.1443 322.461 85.1036 324.694 86.5316C328.636 89.0088 331.607 78.9591 335.002 77.304C335.002 77.304 338.553 82.5614 338.687 82.7129C338.821 82.8643 341.713 73.204 339.156 68.8877C338.793 68.2545 338.217 67.7603 337.525 67.4868C336.833 67.2134 336.065 67.1772 335.348 67.3841C335.348 67.3841 336.677 64.42 334.812 62.4403C333.84 61.4343 331.317 62.0293 331.317 62.0293C331.58 61.3425 331.644 60.5987 331.5 59.8793C331.356 59.1599 331.011 58.4928 330.501 57.951C329.094 56.6312 326.783 57.4317 326.783 57.4317C326.783 57.4317 336.074 45.5321 333.293 43.3686C328.491 39.5715 312.221 65.0042 309.496 65.2205C308.201 65.2746 309.016 67.7086 310.01 68.6281Z" fill="#DD6A57"/>
<path d="M331.406 61.8778C331.406 61.8778 331.406 61.7588 331.339 61.7913C325.494 64.6277 320.891 69.3978 318.363 75.2378C318.285 75.4433 318.419 75.7137 318.53 75.4866C320.44 71.5922 326.95 64.9176 331.406 61.8778Z" fill="black"/>
<path d="M323.555 81.2742C326.09 75.584 330.255 71.2569 335.169 67.4058C335.236 67.4058 335.169 67.276 335.091 67.2976C332.143 68.5525 329.273 71.3218 327.274 73.6585C325.322 75.8099 323.989 78.4218 323.41 81.2309C323.332 81.2958 323.499 81.4473 323.555 81.2742Z" fill="black"/>
<path d="M313.84 68.812C313.729 69.0067 314.421 68.8877 314.32 69.0825C313.26 71.246 311.562 75.1621 313.204 76.3953C314.499 77.3689 316.755 76.3953 317.47 75.6597L319.256 73.8639L318.218 76.1573C317.742 77.1849 317.444 78.2813 317.336 79.4026C317.256 79.9108 317.288 80.4295 317.428 80.9251C317.569 81.4207 317.815 81.8823 318.151 82.2802C318.469 82.6474 318.908 82.8973 319.394 82.9879C319.88 83.0785 320.384 83.0043 320.82 82.7778C321.784 82.2644 322.595 81.5193 323.176 80.6142L324.873 78.1586L324.103 81.0037C323.883 81.7973 323.774 82.6159 323.779 83.4377C323.756 84.1991 323.962 84.9507 324.371 85.6012C324.571 85.8901 324.851 86.119 325.179 86.2624C325.506 86.4057 325.868 86.4577 326.225 86.4126C327.011 86.2005 327.717 85.7721 328.257 85.1793C329.452 83.9195 330.542 82.5703 331.518 81.1443C332.043 80.4411 332.568 79.738 333.115 79.0565C333.633 78.3403 334.303 77.7392 335.08 77.2932C334.371 77.812 333.772 78.4585 333.316 79.1971C332.824 79.9111 332.367 80.6467 331.897 81.3606C331.002 82.8925 329.963 84.341 328.793 85.6878C328.169 86.4204 327.339 86.9616 326.403 87.2455C325.88 87.349 325.336 87.3017 324.84 87.1095C324.344 86.9172 323.917 86.5885 323.611 86.1637C323.062 85.3553 322.778 84.4052 322.796 83.4377C322.787 82.5266 322.896 81.618 323.12 80.7332L324.047 81.1227C323.374 82.207 322.424 83.1049 321.289 83.7297C320.644 84.0574 319.902 84.1569 319.189 84.011C318.493 83.837 317.869 83.4593 317.403 82.9292C316.97 82.4289 316.652 81.8449 316.471 81.2162C316.29 80.5875 316.25 79.9287 316.353 79.2836C316.496 78.0689 316.843 76.885 317.38 75.7787L318.128 76.2763C317.19 77.1525 314.778 78.5372 312.601 77.2499C309.965 75.1621 313.181 69.764 313.84 68.812Z" fill="black"/>
<path d="M302.416 87.2671L329.273 103.375C329.273 103.375 309.653 127.801 296.799 128.083C283.946 128.364 254.364 114.842 244.962 104.803C236.832 96.1485 245.944 91.5617 254.364 93.9849C262.784 96.4081 289.15 101.428 289.887 101.06C290.624 100.692 302.416 87.2671 302.416 87.2671Z" fill="#00E340"/>
<path d="M324.337 108.189C323.423 107.48 322.464 106.826 321.467 106.231L318.363 104.165C316.375 102.856 314.309 101.655 312.254 100.443C308.078 97.9768 303.913 95.4346 299.546 93.2927C299.468 93.2927 299.368 93.3685 299.446 93.4225C303.321 96.2135 307.453 98.6692 311.54 101.146C313.572 102.39 315.605 103.645 317.682 104.803L320.831 106.501C321.928 107.168 323.07 107.764 324.248 108.286C324.315 108.329 324.404 108.243 324.337 108.189Z" fill="black"/>
<path d="M263.13 117.038C260.047 115.316 256.621 114.251 253.08 113.911C253.063 113.918 253.048 113.929 253.037 113.943C253.027 113.958 253.021 113.975 253.021 113.993C253.021 114.01 253.027 114.027 253.037 114.042C253.048 114.056 253.063 114.068 253.08 114.074C254.397 114.441 255.659 114.961 256.977 115.372L257.77 115.61H257.078L254.844 115.502C254.766 115.502 254.755 115.61 254.844 115.621C255.571 115.83 256.321 115.957 257.078 115.999C257.644 116.021 258.212 115.999 258.775 115.934H258.92C259.501 116.086 262.538 117.146 263.13 117.189C263.152 117.211 263.175 117.146 263.13 117.038Z" fill="black"/>
<path d="M234.051 102.261C237.803 102.866 244.548 96.4839 246.759 91.8972C246.904 91.5834 246.212 88.403 245.553 84.5086C245.151 82.1503 244.783 79.5 244.615 77.066C244.615 76.5684 242.884 77.596 242.884 77.596L239.69 78.5696L229.093 81.815C230.2 84.805 230.928 87.9145 231.259 91.075C231.288 91.4098 231.288 91.7463 231.259 92.0811C231.259 92.0811 231.259 92.1784 231.259 92.2433C231.014 94.1256 230.422 101.666 234.051 102.261Z" fill="#DD6A57"/>
<path d="M231.215 92.0486C231.215 92.0486 231.215 92.1459 231.215 92.2108C231.757 92.2536 232.302 92.2536 232.845 92.2108C243.443 91.3021 243.878 78.1477 243.878 78.1477L239.702 78.5912L229.104 81.8366C230.212 84.8266 230.939 87.9361 231.27 91.0966C231.277 91.4148 231.259 91.7331 231.215 92.0486Z" fill="black"/>
<path d="M227.306 53.8186C227.306 53.8186 222.17 55.7442 221.109 60.7204C220.048 65.6965 221.109 70.9756 221.544 71.2352C221.98 71.4949 227.306 53.8186 227.306 53.8186Z" fill="black"/>
<path d="M247.876 61.2719C249.361 66.7566 245.777 82.3125 241.656 85.6552C235.682 90.5016 226.212 90.6314 222.035 83.7405C217.993 77.0551 223.041 56.8691 227.619 53.8618C234.353 49.4373 245.676 53.1586 247.876 61.2719Z" fill="#DD6A57"/>
<path d="M233.314 70.8457C233.314 70.8457 233.392 70.9106 233.381 70.9539C233.124 72.0357 233.013 73.2364 233.917 73.7881C232.734 73.442 232.901 71.7977 233.314 70.8457Z" fill="black"/>
<path d="M234.52 69.937C236.296 70.1534 235.715 73.5826 234.073 73.3771C232.432 73.1716 233.035 69.764 234.52 69.937Z" fill="black"/>
<path d="M227.016 69.6775C227.016 69.6775 226.927 69.6775 226.916 69.7532C226.77 70.835 226.424 72.0141 225.375 72.2088V72.2738C226.558 72.3062 227.016 70.7052 227.016 69.6775Z" fill="black"/>
<path d="M226.189 68.4658C224.447 68.0656 223.733 71.4624 225.341 71.841C226.949 72.2196 227.641 68.7579 226.189 68.4658Z" fill="black"/>
<path d="M236.173 68.5956C235.733 68.3898 235.305 68.1623 234.889 67.9141C234.398 67.6436 233.973 67.4814 233.716 66.9729C233.654 66.8222 233.647 66.6554 233.695 66.5C233.744 66.3447 233.846 66.21 233.984 66.1183C234.283 65.973 234.615 65.9065 234.949 65.9255C235.282 65.9445 235.604 66.0483 235.883 66.2265C236.502 66.5124 236.991 67.0092 237.256 67.622C237.309 67.7655 237.317 67.9208 237.28 68.0688C237.243 68.2168 237.161 68.3509 237.046 68.4545C236.931 68.5581 236.786 68.6267 236.631 68.6518C236.476 68.6769 236.317 68.6573 236.173 68.5956Z" fill="black"/>
<path d="M225.106 66.4753C225.596 66.4593 226.084 66.416 226.569 66.3455C227.092 66.3698 227.609 66.2294 228.043 65.9452C228.159 65.8267 228.231 65.6748 228.249 65.5127C228.268 65.3505 228.23 65.1871 228.144 65.0473C227.931 64.7972 227.653 64.607 227.339 64.4966C227.025 64.3862 226.685 64.3597 226.357 64.4199C225.672 64.4386 225.018 64.7049 224.526 65.1663C224.419 65.2769 224.349 65.4149 224.322 65.5636C224.296 65.7123 224.314 65.8653 224.376 66.004C224.437 66.1426 224.539 66.261 224.669 66.3446C224.798 66.4283 224.95 66.4737 225.106 66.4753Z" fill="black"/>
<path d="M232.599 80.4844C232.287 80.69 231.974 80.9929 231.572 80.9604C231.171 80.8852 230.791 80.7305 230.455 80.5061C230.455 80.5061 230.377 80.5061 230.4 80.5061C230.519 80.7396 230.701 80.9375 230.927 81.0785C231.153 81.2195 231.415 81.2983 231.684 81.3066C231.919 81.2938 232.143 81.2096 232.326 81.0658C232.508 80.9221 232.639 80.7262 232.7 80.5061C232.767 80.4844 232.689 80.452 232.599 80.4844Z" fill="black"/>
<path d="M232.03 77.1199C231.68 77.4944 231.255 77.7952 230.781 78.0037C230.306 78.2121 229.792 78.3237 229.271 78.3315C228.815 78.3417 228.36 78.287 227.92 78.1693C227.835 78.1606 227.752 78.1387 227.675 78.1044L227.44 78.0286C227.382 78.0112 227.332 77.9746 227.3 77.9251C227.267 77.8756 227.253 77.8164 227.261 77.7582C227.257 77.7222 227.257 77.6859 227.261 77.65V77.5526C227.373 76.7305 227.663 75.5081 227.663 75.5081C227.34 75.6054 225.653 76.0382 225.743 75.6163C226.468 71.9557 227.572 68.3751 229.037 64.9283C229.051 64.9101 229.071 64.8967 229.093 64.8899C229.115 64.8832 229.139 64.8834 229.162 64.8906C229.184 64.8977 229.203 64.9115 229.217 64.9299C229.231 64.9484 229.238 64.9705 229.238 64.9932C228.59 68.3792 227.328 71.6353 226.625 75.0213C227.229 74.8628 227.853 74.7827 228.479 74.7833C228.59 74.7833 227.864 77.1524 227.842 77.5202C228.521 77.6966 229.23 77.7387 229.927 77.6439C230.623 77.5491 231.293 77.3194 231.896 76.9685C232.03 76.9685 232.108 77.055 232.03 77.1199Z" fill="black"/>
<path d="M228.49 77.8448C228.852 78.5016 229.383 79.0568 230.031 79.4567C230.39 79.6673 230.808 79.762 231.226 79.7271C232.142 79.6406 232.287 78.8617 232.242 78.1802C232.216 77.8118 232.141 77.4483 232.019 77.0984C230.956 77.7078 229.719 77.9696 228.49 77.8448Z" fill="black"/>
<path d="M230.031 79.4568C230.39 79.6674 230.808 79.7621 231.226 79.7272C232.142 79.6407 232.287 78.8618 232.242 78.1803C231.78 78.1232 231.31 78.2179 230.91 78.4493C230.509 78.6806 230.2 79.0353 230.031 79.4568Z" fill="#FF98B9"/>
<path d="M245.297 73.8746C241.947 73.8746 242.371 59.7357 242.371 59.7357C240.426 60.6114 238.355 61.1951 236.229 61.4666C234.068 61.595 231.899 61.4861 229.763 61.142C229.305 61.0122 235.045 58.8487 235.045 58.8487C235.045 58.8487 220.651 61.4558 219.892 58.8487C219.635 57.9508 226.201 48.3879 236.14 49.1127C243.488 49.6103 247.575 56.9447 247.575 56.9447C247.575 56.9447 251.104 60.7742 250.925 63.0135C250.724 65.9235 248.803 73.8746 245.297 73.8746Z" fill="black"/>
<path d="M243.9 73.8747C243.9 73.8747 247.865 69.0283 250.165 70.4238C252.466 71.8193 249.261 79.0023 246.413 79.8461C246.055 79.9791 245.673 80.0404 245.29 80.0264C244.907 80.0124 244.531 79.9234 244.185 79.7646C243.838 79.6059 243.528 79.3808 243.274 79.1029C243.02 78.825 242.827 78.5 242.706 78.1477L243.9 73.8747Z" fill="#DD6A57"/>
<path d="M249.194 72.49C249.194 72.49 249.194 72.49 249.194 72.5657C248.272 72.9452 247.442 73.5082 246.759 74.2182C246.076 74.9283 245.555 75.7695 245.229 76.6873C245.353 76.5038 245.516 76.3486 245.708 76.2326C245.9 76.1167 246.116 76.0427 246.34 76.0159C246.564 75.9891 246.792 76.0101 247.007 76.0775C247.223 76.1449 247.42 76.257 247.586 76.406C247.586 76.406 247.586 76.5142 247.53 76.5034C247.193 76.38 246.825 76.3595 246.476 76.4445C246.126 76.5296 245.812 76.7163 245.576 76.9794C245.191 77.4285 244.854 77.9142 244.571 78.429C244.47 78.602 244.157 78.483 244.236 78.2991C244.37 75.8435 246.502 72.5765 249.194 72.49Z" fill="black"/>
<path d="M231.148 91.9513L234.989 100.93L246.435 89.3875L249.786 93.0114C249.786 93.0114 238.619 111.272 238.619 110.461L234.688 102.726L229.216 108.2L229.506 94.6016L231.148 91.9513Z" fill="#EBEBEB"/>
<path d="M228.903 101.471C229.037 99.2316 229.093 96.9707 229.327 94.7314C229.327 94.6557 229.461 94.6124 229.484 94.7314C229.975 96.8949 229.484 105.463 229.484 107.518C229.707 107.28 234.565 102.693 234.609 102.769C235.458 103.991 238.339 109.627 238.54 110.136C240.293 107.237 247.038 96.6894 249.127 93.9092C249.131 93.8994 249.137 93.8905 249.146 93.8832C249.154 93.876 249.163 93.8705 249.174 93.8671C249.184 93.8637 249.196 93.8626 249.207 93.8637C249.218 93.8648 249.228 93.8682 249.238 93.8736C249.247 93.879 249.256 93.8863 249.262 93.8951C249.269 93.9038 249.273 93.9138 249.275 93.9243C249.277 93.9348 249.277 93.9457 249.275 93.9561C249.272 93.9666 249.267 93.9764 249.261 93.985C247.72 97.0464 238.808 111.293 238.663 111.207C237.149 108.551 235.777 105.821 234.554 103.029C233.738 104.024 228.847 109.195 228.825 108.859C228.716 106.397 228.743 103.931 228.903 101.471Z" fill="black"/>
<path d="M265.475 168.628H213.816V171.548H265.475V168.628Z" fill="#455A64"/>
<path d="M245.218 168.628H213.816V171.548H245.218V168.628Z" fill="black"/>
<path d="M239.791 171.592L174.408 171.602L165.05 128.364H230.444L239.791 171.592Z" fill="#455A64"/>
<path d="M206.401 149.978C206.471 150.466 206.43 150.964 206.282 151.436C206.134 151.908 205.882 152.343 205.543 152.711C205.204 153.079 204.787 153.372 204.32 153.568C203.853 153.765 203.348 153.861 202.839 153.851C201.748 153.824 200.703 153.419 199.895 152.708C199.087 151.997 198.57 151.028 198.439 149.978C198.371 149.49 198.413 148.993 198.562 148.522C198.711 148.051 198.964 147.617 199.302 147.249C199.64 146.881 200.057 146.588 200.523 146.391C200.988 146.194 201.493 146.096 202.001 146.105C203.093 146.129 204.14 146.534 204.948 147.245C205.756 147.957 206.272 148.927 206.401 149.978Z" fill="black"/>
<path d="M187.529 174.167C191.561 176.33 196.463 181.339 199.813 181.901C200.635 182.073 201.493 181.983 202.258 181.643C203.023 181.304 203.654 180.734 204.057 180.019C204.057 180.019 205.564 183.372 208.702 183.394C210.321 183.394 211.762 180.928 211.762 180.928C212.144 181.669 212.73 182.293 213.455 182.732C214.18 183.171 215.016 183.408 215.871 183.416C218.105 183.308 219.222 180.83 219.222 180.83C219.222 180.83 221.712 182.788 223.945 181.912C228.412 180.246 229.462 161.748 222.583 158.535C219.378 157.031 219.389 161.564 219.389 161.564C219.389 161.564 217.759 155.073 213.805 154.759C209.852 154.446 210.266 160.417 210.266 160.417C210.266 160.417 208.624 154.121 204.514 154.208C200.237 154.305 201.656 160.125 201.656 160.125C201.656 160.125 199.009 155.863 195.871 156.631C190.712 157.897 196.575 167.557 195.357 171.57H188.523L187.529 174.167Z" fill="#DD6A57"/>
<path d="M193.336 177.779C189.338 176.103 187.418 178.861 183.286 178.342C178.64 177.758 180.148 172.479 188.311 171.538H195.38L193.336 177.779Z" fill="#DD6A57"/>
<path d="M211.784 180.971C211.784 181.047 211.896 181.057 211.918 180.971C214.005 174.077 213.478 166.687 210.433 160.136C210.321 159.909 209.986 159.811 210.086 160.136C211.94 164.679 212.633 175.086 211.784 180.971Z" fill="black"/>
<path d="M201.242 159.703C204.157 166.129 204.648 172.825 204.135 179.759C204.135 179.779 204.143 179.799 204.158 179.813C204.172 179.827 204.192 179.835 204.213 179.835C204.234 179.835 204.253 179.827 204.268 179.813C204.283 179.799 204.291 179.779 204.291 179.759C205.497 176.427 205.352 171.97 204.927 168.509C204.598 165.29 203.409 162.211 201.477 159.573C201.399 159.498 201.175 159.562 201.242 159.703Z" fill="black"/>
</svg>
