<svg width="250" height="250" viewBox="0 0 250 250" fill="none" xmlns="http://www.w3.org/2000/svg">
<path d="M5.61829 214.425L34.3276 214.287L63.0431 214.234L120.462 214.136L177.88 214.234L206.596 214.287L235.305 214.425L206.596 214.564L177.88 214.616L120.462 214.714L63.0431 214.616L34.3276 214.564L5.61829 214.425Z" fill="#263238"/>
<path d="M50.3494 16.2981C50.1457 16.1594 40.1437 14.3734 33.5868 22.0781C27.5548 29.1586 27.6474 39.7823 28.7032 39.7939C29.9935 39.7939 32.0372 34.2393 37.7111 30.1181C39.7239 28.6558 43.5765 28.7367 43.5765 28.7367L50.3494 16.2981Z" fill="#00E340"/>
<path d="M69.4704 29.124C69.6741 29.257 74.6936 37.5513 69.0135 45.8398C63.7903 53.4636 53.0104 56.8218 52.6646 55.8623C52.2448 54.7063 57.2087 51.1227 59.5549 44.7647C60.3884 42.5105 59.0671 39.1234 59.0671 39.1234L69.4704 29.124Z" fill="#00E340"/>
<path d="M52.2573 44.4352L40.4711 36.5282C40.4711 36.5282 40.9959 24.841 48.9048 15.7895C52.8739 11.4057 57.6164 7.69122 62.9261 4.80749C69.6558 1.06783 75.7743 -0.677736 77.1264 0.241285C78.4785 1.16031 78.6946 7.1773 77.0832 14.3156C75.8752 19.9424 73.6516 25.3353 70.5078 30.2627C63.9078 40.2101 52.2573 44.4352 52.2573 44.4352Z" fill="#EBEBEB"/>
<path d="M51.36 43.8245L41.3774 37.1289L39.2056 39.9668L49.1881 46.6624L51.36 43.8245Z" fill="#00E340"/>
<path d="M66.8956 25.1589C66.0707 26.2372 64.9228 27.0623 63.5969 27.5297C62.2711 27.9971 60.827 28.086 59.4473 27.7849C58.0675 27.4839 56.8142 26.8065 55.8457 25.8385C54.8772 24.8705 54.2372 23.6554 54.0065 22.3468C53.7759 21.0382 53.9649 19.6949 54.5498 18.4869C55.1348 17.2789 56.0892 16.2605 57.2925 15.5604C58.4958 14.8604 59.8938 14.5101 61.3097 14.554C62.7257 14.5978 64.0959 15.0339 65.2471 15.8069C66.0117 16.3193 66.6608 16.9678 67.1575 17.7153C67.6542 18.4627 67.9886 19.2945 68.1417 20.1631C68.2948 21.0316 68.2636 21.9199 68.0497 22.7771C67.8359 23.6343 67.4437 24.4437 66.8956 25.1589Z" fill="#00E340"/>
<path d="M61.0801 25.9045C63.8216 25.9045 66.044 23.8239 66.044 21.2574C66.044 18.6908 63.8216 16.6102 61.0801 16.6102C58.3386 16.6102 56.1161 18.6908 56.1161 21.2574C56.1161 23.8239 58.3386 25.9045 61.0801 25.9045Z" fill="#A6A6A6"/>
<path d="M77.1017 14.3444L62.9014 4.8363C69.6311 1.09663 75.7496 -0.648928 77.1017 0.270094C78.4539 1.18912 78.7132 7.17721 77.1017 14.3444Z" fill="#00E340"/>
<path d="M65.8958 5.0502C65.8553 5.10271 65.8042 5.14722 65.7454 5.18117C65.6865 5.21513 65.6211 5.23786 65.5528 5.24807C65.4845 5.25827 65.4148 5.25575 65.3475 5.24064C65.2803 5.22553 65.2169 5.19813 65.1611 5.16002C65.0481 5.08337 64.9722 4.96785 64.9502 4.83886C64.9282 4.70987 64.9619 4.57797 65.0438 4.4722C65.1256 4.36643 65.249 4.29543 65.3868 4.27484C65.5246 4.25424 65.6655 4.28573 65.7785 4.36238C65.8352 4.39972 65.8834 4.44734 65.9202 4.50243C65.9569 4.55751 65.9815 4.61894 65.9924 4.68308C66.0034 4.74721 66.0004 4.81275 65.9838 4.87581C65.9672 4.93887 65.9373 4.99817 65.8958 5.0502Z" fill="#EBEBEB"/>
<path d="M68.5996 6.87674C68.5592 6.92924 68.5081 6.97375 68.4492 7.00771C68.3904 7.04166 68.3249 7.0644 68.2567 7.0746C68.1884 7.08481 68.1186 7.08228 68.0514 7.06717C67.9842 7.05206 67.9208 7.02467 67.8649 6.98656C67.809 6.94861 67.7616 6.90071 67.7254 6.8456C67.6892 6.7905 67.665 6.72926 67.6541 6.66539C67.6432 6.60152 67.6459 6.53627 67.6619 6.47336C67.678 6.41045 67.7071 6.35111 67.7476 6.29874C67.7882 6.24636 67.8393 6.20198 67.8982 6.16811C67.957 6.13425 68.0224 6.11157 68.0907 6.10138C68.1589 6.09118 68.2286 6.09366 68.2958 6.10868C68.363 6.1237 68.4264 6.15096 68.4823 6.18892C68.5391 6.22626 68.5873 6.27388 68.624 6.32897C68.6608 6.38405 68.6853 6.44548 68.6963 6.50961C68.7072 6.57375 68.7043 6.63928 68.6877 6.70234C68.6711 6.7654 68.6412 6.82471 68.5996 6.87674Z" fill="#EBEBEB"/>
<path d="M71.3413 8.70901C71.3008 8.76152 71.2497 8.80603 71.1909 8.83999C71.132 8.87394 71.0666 8.89667 70.9983 8.90688C70.93 8.91708 70.8603 8.91456 70.793 8.89945C70.7258 8.88434 70.6624 8.85694 70.6066 8.81883C70.5506 8.78088 70.5032 8.73299 70.467 8.67788C70.4309 8.62278 70.4066 8.56154 70.3957 8.49767C70.3848 8.4338 70.3875 8.36855 70.4035 8.30563C70.4196 8.24272 70.4487 8.18339 70.4892 8.13101C70.5298 8.07864 70.581 8.03425 70.6398 8.00039C70.6987 7.96653 70.7641 7.94385 70.8323 7.93365C70.9005 7.92345 70.9702 7.92593 71.0374 7.94096C71.1046 7.95598 71.168 7.98324 71.224 8.02119C71.28 8.05904 71.3276 8.10689 71.3639 8.16199C71.4001 8.21709 71.4244 8.27837 71.4353 8.34228C71.4462 8.4062 71.4435 8.4715 71.4274 8.53443C71.4112 8.59737 71.382 8.6567 71.3413 8.70901Z" fill="#EBEBEB"/>
<path d="M74.0641 10.5297C74.0237 10.5822 73.9726 10.6267 73.9137 10.6607C73.8549 10.6946 73.7894 10.7174 73.7211 10.7276C73.6529 10.7378 73.5831 10.7352 73.5159 10.7201C73.4487 10.705 73.3853 10.6776 73.3294 10.6395C73.2735 10.6016 73.226 10.5537 73.1899 10.4986C73.1537 10.4435 73.1295 10.3822 73.1186 10.3183C73.1077 10.2545 73.1103 10.1892 73.1264 10.1263C73.1424 10.0634 73.1716 10.0041 73.2121 9.95169C73.2526 9.89932 73.3038 9.85493 73.3627 9.82107C73.4215 9.7872 73.4869 9.76453 73.5552 9.75433C73.6234 9.74413 73.6931 9.74661 73.7603 9.76163C73.8275 9.77665 73.8909 9.80392 73.9468 9.84187C74.0029 9.87972 74.0504 9.92757 74.0867 9.98267C74.123 10.0378 74.1473 10.099 74.1582 10.163C74.1691 10.2269 74.1664 10.2922 74.1502 10.3551C74.1341 10.418 74.1048 10.4774 74.0641 10.5297Z" fill="#EBEBEB"/>
<path d="M76.7864 12.3562C76.7047 12.4619 76.5818 12.5333 76.4444 12.5549C76.3069 12.5765 76.1659 12.5467 76.0517 12.4718C75.9384 12.3942 75.8621 12.2782 75.839 12.1486C75.8159 12.0189 75.8479 11.886 75.9283 11.7782C76.011 11.6718 76.1355 11.6004 76.2744 11.5798C76.4133 11.5593 76.5553 11.5911 76.6692 11.6684C76.7252 11.7062 76.7728 11.7541 76.809 11.8092C76.8453 11.8643 76.8696 11.9255 76.8805 11.9895C76.8914 12.0534 76.8887 12.1187 76.8726 12.1816C76.8564 12.2446 76.8272 12.3039 76.7864 12.3562Z" fill="#EBEBEB"/>
<path d="M69.9399 114.015C69.9399 113.622 69.8967 113.229 69.8967 112.859H70.3598C70.3598 113.229 70.3598 113.61 70.403 114.015H69.9399Z" fill="#263238"/>
<path d="M114.455 145.187H113.72V144.753C114.541 144.753 115.362 144.753 116.19 144.753V145.187C115.628 145.175 115.041 145.187 114.455 145.187ZM110.602 145.042C109.775 144.978 108.935 144.892 108.132 144.788L108.194 144.36C109.009 144.464 109.836 144.545 110.664 144.609L110.602 145.042ZM119.338 144.95L119.289 144.522C120.104 144.441 120.931 144.343 121.759 144.227L121.826 144.655C120.993 144.77 120.159 144.874 119.338 144.95ZM105.027 144.302C104.224 144.152 103.403 143.973 102.594 143.782L102.705 143.36C103.508 143.551 104.323 143.73 105.119 143.88L105.027 144.302ZM124.876 144.117L124.778 143.69C125.574 143.528 126.383 143.343 127.186 143.112L127.303 143.533C126.5 143.759 125.685 143.961 124.883 144.117H124.876ZM99.5628 142.961C98.7725 142.724 97.9822 142.458 97.2043 142.181L97.371 141.776C98.1366 142.054 98.9207 142.314 99.7048 142.551L99.5628 142.961ZM130.26 142.701L130.112 142.291C130.89 142.048 131.674 141.782 132.44 141.499L132.612 141.904C131.872 142.187 131.081 142.453 130.297 142.701H130.26ZM94.3642 141.071C93.611 140.753 92.8578 140.407 92.1169 140.048L92.333 139.661C93.0615 140.019 93.8147 140.36 94.5556 140.678L94.3642 141.071ZM135.52 140.782L135.329 140.389C136.07 140.065 136.811 139.719 137.527 139.349L137.749 139.73C137.021 140.077 136.274 140.43 135.52 140.759V140.782ZM89.388 138.62C88.6779 138.216 87.9679 137.794 87.2826 137.366L87.5357 137.002C88.2149 137.43 88.9187 137.852 89.6287 138.251L89.388 138.62ZM140.429 138.233L140.176 137.869C140.849 137.453 141.534 137.008 142.201 136.545L142.479 136.892C141.799 137.337 141.114 137.788 140.429 138.21V138.233ZM84.7389 135.661C84.0845 135.187 83.43 134.69 82.7941 134.187L83.0966 133.858C83.714 134.361 84.3685 134.846 85.0229 135.314L84.7389 135.661ZM144.905 135.083L144.602 134.754C145.22 134.262 145.837 133.736 146.455 133.199L146.776 133.511C146.146 134.014 145.522 134.546 144.905 135.043V135.083ZM80.4788 132.239C79.8614 131.696 79.2934 131.13 78.7377 130.563L79.0773 130.268C79.6268 130.846 80.2133 131.39 80.806 131.927L80.4788 132.239ZM148.937 131.424L148.597 131.13C149.14 130.552 149.69 129.974 150.233 129.396L150.585 129.679C150.036 130.239 149.48 130.829 148.937 131.384V131.424ZM76.7003 128.344C76.1817 127.725 75.6754 127.095 75.2062 126.465L75.5828 126.217C76.0458 126.841 76.5459 127.465 77.0646 128.072L76.7003 128.344ZM152.567 127.355L152.203 127.089C152.69 126.511 153.184 125.864 153.672 125.222L154.049 125.471C153.53 126.118 153.03 126.754 152.567 127.355ZM73.5392 123.957C73.1132 123.269 72.718 122.569 72.3661 121.887L72.7798 121.697C73.1255 122.373 73.5145 123.061 73.9405 123.743L73.5392 123.957ZM155.802 123.066L155.413 122.824C155.864 122.182 156.315 121.529 156.753 120.87L157.148 121.095C156.679 121.76 156.228 122.419 155.778 123.066H155.802ZM71.1622 119.177C70.8835 118.437 70.6466 117.685 70.4521 116.922L70.9029 116.818C71.093 117.567 71.3238 118.306 71.5944 119.032L71.1622 119.177ZM158.753 118.599L158.358 118.379C158.772 117.714 159.186 117.044 159.593 116.362L159.994 116.576C159.562 117.258 159.149 117.951 158.741 118.599H158.753ZM161.501 114.021L161.093 113.813C161.482 113.136 161.871 112.449 162.26 111.761L162.668 111.963L161.501 114.021ZM164.1 109.397L163.686 109.2L164.816 107.125L165.23 107.316C164.839 108.002 164.454 108.688 164.075 109.374L164.1 109.397ZM166.625 104.715L166.212 104.518L167.323 102.438L167.737 102.628L166.625 104.715ZM169.132 100.027L168.718 99.8308L169.836 97.75L170.25 97.9465L169.132 100.027ZM171.663 95.3513L171.256 95.1548C171.632 94.467 172.015 93.7792 172.404 93.0856L172.818 93.2879C172.404 93.9526 172.021 94.6404 171.639 95.3282L171.663 95.3513ZM174.281 90.7273L173.874 90.5192C174.269 89.843 174.664 89.1609 175.071 88.4847L175.473 88.6985C175.047 89.3459 174.645 90.0222 174.256 90.6984L174.281 90.7273ZM177.004 86.1727L176.603 85.9588C177.022 85.2883 177.442 84.6178 177.868 83.9531L178.263 84.1786C177.819 84.8221 177.391 85.4829 176.979 86.1611L177.004 86.1727ZM179.893 81.7105L179.498 81.4793C179.943 80.8262 180.393 80.173 180.85 79.5257L181.233 79.7684C180.758 80.3811 180.307 81.0342 179.869 81.6816L179.893 81.7105ZM182.98 77.3639L182.604 77.1154C183.079 76.4796 183.561 75.8438 184.055 75.2196L184.425 75.4739C183.923 76.0788 183.433 76.6992 182.956 77.335L182.98 77.3639ZM186.302 73.1619L185.907 72.8671C186.419 72.2544 186.944 71.6533 187.475 71.0522L187.833 71.3296C187.308 71.9249 186.79 72.5261 186.277 73.133L186.302 73.1619ZM189.883 69.1563L189.537 68.8673C190.089 68.2893 190.651 67.7113 191.223 67.1333L191.556 67.4281C190.963 67.983 190.408 68.5494 189.858 69.1274L189.883 69.1563ZM193.729 65.3762L193.408 65.0699C194.026 64.5265 194.606 63.989 195.217 63.463L195.532 63.7809C194.896 64.278 194.291 64.8098 193.705 65.3531L193.729 65.3762ZM197.854 61.8677L197.557 61.5383C198.175 61.0354 198.842 60.5441 199.49 60.0644L199.774 60.4054C199.107 60.8504 198.459 61.3417 197.829 61.8388L197.854 61.8677ZM202.25 58.6598L201.978 58.3072C202.651 57.8564 203.342 57.4056 204.028 56.9778L204.287 57.3362C203.577 57.735 202.892 58.1801 202.225 58.6309L202.25 58.6598ZM206.899 55.7698L206.652 55.3999C207.362 55.0011 208.09 54.6023 208.806 54.2439L209.035 54.6254C208.294 54.9491 207.578 55.3479 206.899 55.7467V55.7698Z" fill="#263238"/>
<path d="M211.838 53.1516L211.628 52.7643C211.992 52.5909 212.363 52.4175 212.739 52.2499L212.943 52.6371L211.838 53.1516Z" fill="#263238"/>
<path d="M210.153 45.3659L205.788 56.5965L214.956 49.8916L250 37.9906L210.153 45.3659Z" fill="#00E340"/>
<path opacity="0.2" d="M210.153 45.3659L205.788 56.5965L214.956 49.8916L250 37.9906L210.153 45.3659Z" fill="#222221"/>
<path d="M216.129 52.5099L205.788 56.5964L214.956 49.8916L216.129 52.5099Z" fill="#263238"/>
<path d="M214.956 49.8916L250 37.9906L221.253 64.255L214.956 49.8916Z" fill="#00E340"/>
<path d="M210.153 45.3658L195.588 36.5629L250 37.9905L210.153 45.3658Z" fill="#00E340"/>
<path d="M130.915 103.576C130.915 103.576 127.143 135.089 124.556 155.544C124.087 159.238 123.661 162.573 123.321 165.289C122.833 168.965 122.469 171.526 122.302 172.358C122.154 173.069 122.204 175.901 122.234 179.872C122.234 182.109 122.234 184.71 122.234 187.502C122.099 198.282 122.13 212.57 122.16 221.529C122.16 226.633 121.975 230.008 121.975 230.008H95.896C95.896 230.008 95.8219 226.725 95.7602 221.529C95.5935 207.437 95.4947 179.294 97.069 164.411C99.2547 143.747 106.262 103.576 106.262 103.576H130.915Z" fill="#EB9481"/>
<path d="M77.5095 249.568C78.9233 250.007 119.277 249.897 120.814 248.99C121.395 248.649 121.722 243.14 121.913 236.482C121.954 235.041 121.987 233.563 122.012 232.048C122.043 230.262 122.068 228.453 122.08 226.696C122.129 218.806 122.012 211.859 122.012 211.859H95.7661V226.696V232.048L95.902 236.482C95.902 236.482 80.4668 242.996 78.9048 244.169C77.3428 245.342 76.1018 249.157 77.5095 249.568Z" fill="#EB9481"/>
<path d="M77.5095 249.568C78.9233 250.007 119.277 249.897 120.814 248.99C121.395 248.649 121.722 243.14 121.913 236.482C121.954 235.04 121.987 233.563 122.012 232.048C122.043 230.262 122.068 228.453 122.08 226.696H95.7661V232.048L95.902 236.482C95.902 236.482 80.4668 242.996 78.9048 244.169C77.3428 245.342 76.1018 249.157 77.5095 249.568Z" fill="white"/>
<path d="M77.3857 249.625C78.3056 249.909 118.517 250.533 120.931 249.047C121.635 248.608 121.981 240.539 122.166 232.014H95.7658L95.9017 236.47C95.9017 236.47 80.3863 243.019 78.8057 244.198C77.2252 245.377 75.9718 249.157 77.3857 249.625Z" fill="#00E340"/>
<path d="M77.9664 248.105C84.7578 247.926 112.214 247.822 118.956 248.134C119.011 248.134 119.011 248.175 118.956 248.175C112.214 248.487 84.764 248.383 77.9664 248.209C77.8182 248.204 77.8182 248.105 77.9664 248.105Z" fill="#263238"/>
<path d="M94.9142 235.048C97.5875 234.569 100.86 234.95 102.94 236.724C103.015 236.794 102.91 236.898 102.823 236.875C100.264 236.111 97.625 235.603 94.9512 235.36C94.907 235.365 94.8626 235.353 94.8279 235.327C94.7932 235.301 94.7709 235.263 94.766 235.222C94.7611 235.18 94.7739 235.139 94.8017 235.106C94.8295 235.074 94.8699 235.053 94.9142 235.048Z" fill="#263238"/>
<path d="M92.9818 236.141C95.6614 235.667 98.9336 236.042 101.008 237.823C101.088 237.892 101.008 237.996 100.897 237.973C98.3291 237.198 95.6795 236.685 92.9942 236.441C92.9616 236.43 92.9331 236.411 92.9126 236.385C92.8921 236.358 92.8804 236.327 92.8791 236.295C92.8778 236.262 92.8868 236.23 92.9052 236.203C92.9235 236.175 92.9502 236.154 92.9818 236.141Z" fill="#263238"/>
<path d="M91.0555 237.239C93.7289 236.759 97.0073 237.141 99.0818 238.915C99.162 238.984 99.0509 239.088 98.9645 239.065C96.4052 238.301 93.7664 237.793 91.0926 237.551C91.0483 237.556 91.004 237.543 90.9693 237.517C90.9345 237.491 90.9123 237.454 90.9073 237.412C90.9024 237.371 90.9153 237.329 90.9431 237.297C90.9709 237.264 91.0113 237.243 91.0555 237.239Z" fill="#263238"/>
<path d="M89.1231 238.331C91.8026 237.857 95.0749 238.233 97.1493 240.013C97.2296 240.083 97.1493 240.187 97.0382 240.163C94.4776 239.396 91.8364 238.889 89.1601 238.649C89.119 238.647 89.0798 238.632 89.0498 238.605C89.0198 238.579 89.0008 238.543 88.9963 238.505C88.9919 238.467 89.0022 238.428 89.0254 238.396C89.0486 238.364 89.0833 238.341 89.1231 238.331Z" fill="#263238"/>
<path d="M91.1605 232.829C93.0559 234.204 95.5256 234.759 97.7359 235.522C97.7866 235.534 97.8396 235.534 97.8906 235.524C97.9415 235.513 97.9892 235.491 98.0298 235.461C98.0705 235.43 98.103 235.391 98.1248 235.346C98.1466 235.302 98.1572 235.253 98.1557 235.204C98.1666 235.204 98.1773 235.201 98.1869 235.197C98.1965 235.192 98.2046 235.185 98.2107 235.176C98.2168 235.168 98.2205 235.158 98.2217 235.148C98.2229 235.137 98.2214 235.127 98.2175 235.118C97.3973 232.901 95.9711 230.924 94.0808 229.384C92.9572 228.511 90.9938 227.904 89.9504 229.262C88.907 230.621 90.0554 232.031 91.1605 232.829ZM90.4752 230.817C89.9936 228.066 93.1486 229.505 93.9512 230.182C94.4591 230.626 94.9336 231.103 95.3712 231.609C96.2537 232.667 97.078 233.767 97.8408 234.904C96.7789 234.47 95.6861 234.123 94.6118 233.748C93.3461 233.251 90.7407 232.332 90.4752 230.817Z" fill="#263238"/>
<path d="M107.145 231.274C106.49 229.713 104.428 229.841 103.113 230.424C100.864 231.47 98.9473 233.05 97.5565 235.008C97.5501 235.016 97.546 235.026 97.5445 235.036C97.543 235.046 97.5441 235.056 97.5477 235.066C97.5513 235.076 97.5574 235.084 97.5654 235.091C97.5734 235.098 97.583 235.103 97.5936 235.106C97.5503 235.297 97.6738 235.534 97.9146 235.511C100.261 235.291 102.798 235.332 105.002 234.442C106.305 233.927 107.762 232.748 107.145 231.274ZM101.415 234.499C100.267 234.632 99.1186 234.713 97.9702 234.887C99.0205 233.965 100.121 233.095 101.267 232.28C101.828 231.89 102.415 231.537 103.027 231.222C103.978 230.754 107.423 230.107 106.225 232.656C105.564 234.06 102.792 234.337 101.415 234.499Z" fill="#263238"/>
<path d="M130.915 103.576C130.915 103.576 127.143 135.089 124.556 155.544C124.087 159.238 123.661 162.573 123.321 165.289C122.833 168.965 122.469 171.526 122.302 172.358C122.154 173.069 122.203 175.901 122.234 179.872C122.234 182.109 122.234 184.71 122.234 187.502C122.099 198.282 122.129 212.57 122.16 221.529H95.7662C95.5995 207.437 95.5007 179.294 97.0751 164.411C99.2545 143.747 106.262 103.576 106.262 103.576H130.915Z" fill="#1E1E1E"/>
<path d="M122.21 179.884C122.179 175.901 122.129 173.069 122.278 172.37C123.265 167.497 130.921 103.588 130.921 103.588H109.843L122.21 179.884Z" fill="#263238"/>
<path d="M213.376 172.156C213.376 172.156 212.493 172.491 210.906 173.058C209.523 173.561 207.597 174.214 205.257 175.029L204.343 175.329L204.176 175.387L203.602 175.578C187.55 180.907 155.988 190.109 141.553 185.438C127.118 180.768 106.663 103.322 106.262 103.576H141.25C141.25 103.576 147.758 119.292 142.207 129.182C141.695 130.095 154.636 162.359 162.464 161.475C168.577 160.781 185.623 154.793 196.379 151.695L198.132 151.192L200.089 150.614H200.12L203.454 149.654L205.701 149.007L213.376 172.156Z" fill="#EB9481"/>
<path d="M240.165 182.491C240.196 181.098 228.187 145.03 226.798 143.926C226.28 143.504 220.562 144.84 213.715 146.631C212.234 147.013 210.684 147.36 209.159 147.845C207.245 148.458 188.945 154.041 188.945 154.041L196.471 177.843L210.956 173.219L216.895 171.329L221.377 169.907C221.377 169.907 232.577 181.785 234.232 182.843C235.886 183.901 240.134 183.878 240.165 182.491Z" fill="#EB9481"/>
<path d="M240.165 182.491C240.196 181.098 228.187 145.03 226.798 143.926C226.279 143.504 220.562 144.84 213.715 146.631C212.233 147.013 210.684 147.36 209.159 147.845C207.245 148.458 205.287 148.972 203.454 149.579C205.738 156.625 208.98 166.884 210.955 173.196L216.895 171.306L221.377 169.884C221.377 169.884 232.577 181.762 234.231 182.82C235.886 183.878 240.134 183.878 240.165 182.491Z" fill="white"/>
<path d="M240.239 182.583C240.27 181.184 228.193 144.915 226.798 143.805C226.18 143.291 217.808 145.377 209.06 147.747L216.839 171.358L221.346 169.925C221.346 169.925 232.608 181.878 234.275 182.942C235.942 184.005 240.239 183.982 240.239 182.583Z" fill="#00E340"/>
<path d="M238.535 182.52C236.349 176.485 228.15 151.955 226.483 145.84C226.483 145.788 226.483 145.776 226.526 145.84C228.829 151.776 236.812 176.364 238.64 182.496C238.677 182.618 238.578 182.647 238.535 182.52Z" fill="#263238"/>
<path d="M220.21 171.202C218.938 168.954 218.358 165.908 219.593 163.55C219.636 163.457 219.778 163.521 219.778 163.608C219.745 166.131 220.005 168.651 220.556 171.122C220.567 171.164 220.56 171.21 220.536 171.248C220.512 171.286 220.472 171.313 220.426 171.324C220.38 171.335 220.332 171.328 220.291 171.305C220.251 171.282 220.222 171.245 220.21 171.202Z" fill="#263238"/>
<path d="M221.896 172.607C220.624 170.353 220.044 167.312 221.279 164.954C221.328 164.862 221.464 164.925 221.464 165.012C221.434 167.536 221.695 170.055 222.242 172.526C222.253 172.569 222.246 172.614 222.222 172.652C222.197 172.69 222.158 172.718 222.112 172.728C222.066 172.739 222.018 172.732 221.977 172.709C221.937 172.687 221.908 172.65 221.896 172.607Z" fill="#263238"/>
<path d="M223.569 174.017C222.297 171.763 221.717 168.723 222.952 166.365C223.001 166.272 223.137 166.336 223.137 166.422C223.11 168.946 223.371 171.465 223.915 173.936C223.926 173.979 223.919 174.025 223.895 174.063C223.87 174.101 223.831 174.128 223.785 174.139C223.739 174.149 223.691 174.143 223.65 174.12C223.61 174.097 223.58 174.06 223.569 174.017Z" fill="#263238"/>
<path d="M225.267 175.41C223.995 173.156 223.415 170.116 224.65 167.757C224.699 167.665 224.835 167.729 224.835 167.815C224.808 170.339 225.068 172.858 225.613 175.329C225.624 175.372 225.617 175.418 225.593 175.456C225.568 175.494 225.529 175.521 225.483 175.532C225.437 175.542 225.389 175.536 225.348 175.513C225.308 175.49 225.278 175.453 225.267 175.41Z" fill="#263238"/>
<path d="M219.784 168.341C219.736 168.3 219.677 168.27 219.614 168.255C219.55 168.24 219.483 168.239 219.42 168.254C219.413 168.247 219.404 168.241 219.395 168.237C219.385 168.233 219.375 168.231 219.364 168.231C219.354 168.231 219.343 168.233 219.334 168.237C219.324 168.241 219.316 168.247 219.309 168.254L219.117 168.387H219.08L219.006 168.439C218.911 168.505 218.819 168.574 218.728 168.647C217.952 169.241 217.244 169.91 216.617 170.642C216.326 170.977 216.049 171.329 215.796 171.688C215.359 172.299 214.985 172.947 214.678 173.624C214.116 174.884 214.061 176.815 215.771 177.352C217.481 177.89 218.561 176.445 219.055 175.219C219.584 173.674 219.835 172.056 219.796 170.433C219.796 169.809 219.827 169.191 219.864 168.584C219.878 168.541 219.878 168.494 219.864 168.451C219.85 168.408 219.822 168.369 219.784 168.341ZM219.031 170.653C219.031 171.046 218.975 171.433 218.944 171.809C218.839 173.098 218.673 175.705 217.203 176.387C214.536 177.63 215.073 174.381 215.53 173.468C215.834 172.88 216.181 172.313 216.567 171.769C216.672 171.613 216.783 171.462 216.894 171.312C217.567 170.416 218.321 169.578 219.055 168.734L219.16 168.607C219.16 168.607 219.16 168.647 219.16 168.665C219.157 168.703 219.157 168.742 219.16 168.78C219.092 169.41 219.049 170.035 219.012 170.659L219.031 170.653Z" fill="#263238"/>
<path d="M219.797 168.364C219.5 167.694 219.216 166.995 218.92 166.301C218.393 164.88 217.619 163.55 216.63 162.365C215.876 161.532 214.623 160.735 213.468 161.058C213.213 161.126 212.976 161.243 212.771 161.4C211.369 162.44 212.104 164.249 213.092 165.255C213.8 165.967 214.598 166.596 215.469 167.127C216.485 167.768 217.585 168.285 218.741 168.665C218.858 168.705 218.969 168.74 219.087 168.769L219.192 168.798H219.235L219.395 168.844C219.407 168.848 219.418 168.849 219.43 168.848C219.441 168.846 219.453 168.842 219.462 168.836C219.472 168.83 219.48 168.821 219.485 168.812C219.491 168.802 219.494 168.792 219.494 168.781C219.547 168.779 219.598 168.766 219.644 168.742C219.689 168.718 219.729 168.685 219.758 168.644C219.788 168.604 219.806 168.557 219.813 168.509C219.82 168.46 219.814 168.411 219.797 168.364ZM219.007 168.434C217.804 167.792 216.637 167.091 215.512 166.336L215.105 166.041C214.69 165.739 214.294 165.415 213.919 165.07C213.234 164.428 211.795 162.006 213.703 161.787C213.947 161.758 214.194 161.758 214.438 161.787C216.061 161.96 217.167 164.359 217.735 165.538C218.192 166.486 218.593 167.445 219.081 168.376C219.101 168.421 219.123 168.466 219.149 168.509L219.007 168.434Z" fill="#263238"/>
<path d="M205.257 175.029L204.343 175.329L204.176 175.387L203.602 175.578C187.55 180.907 155.988 190.109 141.553 185.438C127.118 180.768 106.663 103.322 106.262 103.576H141.25C141.25 103.576 147.758 119.292 142.207 129.182C141.695 130.095 154.636 162.359 162.464 161.475C168.577 160.781 185.623 154.793 196.379 151.695L198.132 151.192L205.257 175.029Z" fill="#1E1E1E"/>
<path d="M105.583 73.5318C105.585 73.6115 105.619 73.6876 105.677 73.7461C105.734 73.8045 105.813 73.8413 105.898 73.8497L107.262 73.7572C108.065 70.4221 109.04 67.7229 108.824 68.7517C108.51 70.3721 108.437 72.0256 108.608 73.6647L111.3 73.4393C111.621 67.7055 112.43 63.3821 112.535 64.671C112.874 69.873 113.393 71.503 113.986 73.2254C120.487 72.6474 129.001 71.8614 135.144 71.1389C135.447 67.9483 135.632 64.5208 135.762 64.7404C136.83 66.3819 137.385 68.8847 137.663 70.8325C139.614 70.5898 141.17 70.3586 142.115 70.1678C142.115 70.1678 142.232 67.509 142.183 66.6478C142.074 64.4379 141.553 62.2628 140.645 60.2204C139.645 58.2207 138.43 56.3209 137.021 54.5502L136.984 54.5098C136.109 53.3207 135.383 52.0405 134.823 50.695C134.434 49.7078 134.131 48.6931 133.916 47.6605C133.131 43.8803 130.557 40.8574 126.846 40.3199C119.264 34.8231 112.85 38.4009 111.448 43.5624C111.312 44.0653 111.195 44.6375 111.09 45.2618C110.689 47.5738 110.473 50.51 110.164 52.7758C110.065 53.672 109.909 54.5619 109.695 55.4404C108.466 59.6829 104.86 62.4631 105.583 73.5318Z" fill="#263238"/>
<path d="M128.489 41.1175C129.728 41.5205 130.834 42.2175 131.7 43.1404C132.566 44.0633 133.161 45.1805 133.428 46.383C133.745 47.9783 134.269 49.5312 134.99 51.0071C135.868 52.4216 136.962 53.7087 138.238 54.8276C140.164 56.6715 141.59 58.5731 142.207 61.2724C142.825 63.9716 143.127 67.3125 142.535 70.0291C142.864 66.9837 142.569 63.9074 141.664 60.966C140.757 58.0124 138.799 56.342 136.756 54.2612C135.11 52.6222 133.948 50.6103 133.385 48.4234C133.027 47.0709 132.86 45.6316 132.15 44.3774C131.292 42.915 129.847 42.1058 128.445 41.4007C128.186 41.3255 128.316 41.077 128.489 41.1175Z" fill="#263238"/>
<path d="M106.262 60.2665C107.632 57.8851 109.114 55.8101 109.732 52.9952C110.3 50.4289 110.46 47.7932 111.04 45.2154C111.04 45.1749 111.115 45.1807 111.102 45.2154C110.287 49.7353 110.596 54.157 108.281 58.1741C107.046 60.359 105.743 62.3935 105.058 64.9078C104.37 67.5425 104.186 70.2704 104.514 72.9652C104.514 73.0634 104.403 73.0692 104.379 72.9652C103.398 68.6565 104.065 64.1623 106.262 60.2665Z" fill="#263238"/>
<path d="M116.925 72.3353C111.461 77.3003 91.2469 86.531 84.0356 84.1612C79.331 82.6179 65.8407 70.2891 63.1858 66.6362C60.0988 62.3705 69.7612 54.1051 72.484 55.7524C75.8859 57.8159 86.4311 68.584 89.6355 70.2949C91.4877 71.2833 104.404 67.324 116.838 64.9079C121.66 63.9658 120.191 69.399 116.925 72.3353Z" fill="#EB9481"/>
<path d="M72.6626 60.2029C72.6626 60.2029 64.5375 54.8333 64.0189 54.7003C63.5003 54.5674 63.2966 55.2205 63.099 55.7234C63.0526 56.0452 63.0402 56.3704 63.0619 56.6945C63.0619 58.2262 63.0619 60.9312 60.9936 60.6017C58.3141 60.1682 58.4005 54.0877 58.5734 53.1397C58.7102 52.7307 58.9398 52.3541 59.2464 52.0358C60.2775 50.8393 62.3334 49.3423 64.2782 49.6255C66.9701 50.0128 69.4644 51.5502 71.7303 52.7409L72.6626 60.2029Z" fill="#EB9481"/>
<path d="M72.663 60.2029C72.663 60.2029 64.538 54.8333 64.0194 54.7003C63.5007 54.5674 63.297 55.2205 63.0994 55.7234C63.053 56.0452 63.0406 56.3704 63.0624 56.6945C61.6979 55.0414 60.1976 53.2264 59.2468 52.0358C60.2779 50.8393 62.3338 49.3423 64.2787 49.6255C66.9706 50.0128 69.4649 51.5502 71.7308 52.7409L72.663 60.2029Z" fill="#263238"/>
<path d="M68.8352 72.5549C68.4956 72.1099 64.9826 68.7517 62.3339 66.1969C62.7044 63.4861 62.7661 58.0009 62.7846 56.5501C63.1057 54.9375 62.7846 51.3481 62.6365 51.3481C62.3154 51.3481 61.1794 51.3481 59.7964 51.2209C57.9442 51.0648 55.7339 50.7296 54.3879 50.0013C54.0557 49.8658 53.7695 49.6476 53.5605 49.3704C53.3515 49.0932 53.2277 48.7676 53.2025 48.4292C53.2025 47.2732 55.9932 47.1518 59.2778 46.7761C63.7478 46.2617 69.2736 45.8571 71.0517 47.4003C73.6757 49.7123 74.8426 54.6195 75.3735 56.0703C75.9045 57.5211 79.1644 61.4226 79.1644 61.4226C76.7503 69.2661 69.2859 73.1445 68.8352 72.5549Z" fill="#EB9481"/>
<path d="M45.8429 46.7415C45.8429 46.7415 51.733 48.6257 57.9194 50.3251C64.1058 52.0244 76.5897 58.1974 76.6576 58.6945C76.7255 59.1916 62.9142 55.3826 57.0674 53.0359C51.2205 50.6892 45.4663 47.9668 45.4663 47.9668L45.8429 46.7415Z" fill="#1E1E1E"/>
<path d="M45.7379 46.6373L49.856 47.7644L48.9917 49.7817L45.2008 48.0245L45.7379 46.6373Z" fill="#EBEBEB"/>
<path d="M45.7559 46.6373C45.4302 46.2365 45.0072 45.9142 44.5219 45.697C44.0365 45.4799 43.5029 45.3742 42.9652 45.3888C42.5149 45.419 42.0627 45.3611 41.6375 45.2188C41.2123 45.0765 40.8235 44.8529 40.4956 44.5623C40.4956 44.5623 41.6625 48.2615 45.1879 48.0303L45.7559 46.6373Z" fill="#1E1E1E"/>
<path d="M40.3848 44.4525C40.6318 44.4525 41.3109 45.2213 42.237 45.2964C43.1632 45.3715 42.7804 47.7991 41.916 46.9957C40.9281 46.0883 39.9403 44.4294 40.3848 44.4525Z" fill="#00E340"/>
<path d="M62.3336 66.2257C61.426 65.3645 60.611 64.6131 60.043 64.1102C58.2751 62.656 57.1702 60.6225 56.956 58.4285C56.672 56.4922 52.1155 52.4346 55.5421 52.134C58.9687 51.8335 61.673 57.7349 62.4694 57.3014C62.6176 57.2204 62.7287 56.9546 62.8028 56.5789C62.7658 58.0296 62.704 63.5149 62.3336 66.2257Z" fill="#EB9481"/>
<path d="M62.9016 55.5269C62.9016 55.4517 62.846 55.4633 62.8337 55.5269C62.8337 55.7928 62.6423 56.9892 62.3521 56.9892C61.8335 56.9892 60.0368 54.5963 59.0922 53.7177C59.0366 53.6715 58.9625 53.7177 59.0181 53.7755C59.2836 53.9952 60.08 55.0413 60.2838 55.2899C60.6727 55.7754 61.747 57.3245 62.3953 57.3245C62.8275 57.3591 62.9324 55.8332 62.9016 55.5269Z" fill="#263238"/>
<path d="M98.4704 68.035L101.205 76.0403C102.218 79.0575 103.157 81.8203 103.218 82.1382C108.153 79.5913 112.848 76.656 117.252 73.3642C123.191 68.85 122.568 65.0641 119.104 64.4803C118.578 64.3999 118.042 64.3843 117.511 64.4341C112.794 64.8445 98.4704 68.035 98.4704 68.035Z" fill="#00E340"/>
<path d="M108.281 68.9078H107.799C107.68 68.9109 107.561 68.8915 107.449 68.8508C107.338 68.81 107.236 68.7488 107.15 68.6706C107.065 68.5925 106.996 68.4991 106.95 68.3958C106.903 68.2926 106.879 68.1817 106.879 68.0697C106.872 67.9215 106.803 67.7818 106.688 67.6795C106.573 67.5773 106.421 67.5204 106.262 67.5206H105.756V67.2316H106.262C106.38 67.2308 106.497 67.2519 106.607 67.2937C106.716 67.3355 106.815 67.3971 106.899 67.475C106.983 67.5529 107.049 67.6456 107.095 67.7476C107.14 67.8497 107.163 67.9591 107.163 68.0697C107.158 68.1469 107.17 68.2243 107.199 68.2968C107.228 68.3692 107.274 68.435 107.332 68.4897C107.391 68.5445 107.461 68.5869 107.538 68.6141C107.616 68.6414 107.698 68.6528 107.781 68.6477H108.262L108.281 68.9078ZM103.002 73.9595C103.116 73.862 103.265 73.808 103.419 73.808C103.573 73.808 103.722 73.862 103.836 73.9595C104.006 74.1125 104.233 74.1979 104.468 74.1979C104.704 74.1979 104.931 74.1125 105.101 73.9595L105.459 73.6185L105.243 73.4162L104.879 73.7514C104.766 73.8473 104.618 73.9004 104.465 73.9004C104.313 73.9004 104.165 73.8473 104.052 73.7514C103.885 73.6043 103.664 73.5224 103.434 73.5224C103.205 73.5224 102.984 73.6043 102.817 73.7514L102.471 74.0751L102.693 74.2774L103.002 73.9595Z" fill="white"/>
<path d="M101.205 76.0402C102.218 79.0574 103.156 81.8202 103.218 82.1381C108.153 79.5912 112.848 76.6559 117.252 73.3641C123.191 68.8499 122.568 65.064 119.104 64.4802L101.205 76.0402Z" fill="#263238"/>
<path d="M151.672 149.874H97.0006L97.3155 148.036L104.163 107.934L104.255 107.408L107.472 88.5539C107.472 88.5539 104.644 84.5484 105.502 80.9301C105.934 79.0978 110.442 71.7804 112.837 68.7921C113.6 67.7929 114.449 66.8534 115.375 65.983C118.005 63.671 121.549 63.3762 124.074 63.723C124.519 63.7876 124.957 63.8902 125.383 64.0294C129.013 65.1854 133.477 69.1736 135.879 75.1963C136.712 77.2887 137.539 79.7279 138.348 82.4271C138.385 82.5601 138.422 82.693 138.466 82.8259C140.855 90.8544 143.139 101.073 145.109 111.102C146.226 116.772 147.245 122.384 148.128 127.5L148.239 128.176C150.357 140.568 151.672 149.874 151.672 149.874Z" fill="#00E340"/>
<path d="M124.482 105.778H123.994C123.756 105.778 123.529 105.69 123.361 105.533C123.193 105.376 123.099 105.163 123.099 104.94C123.099 104.787 123.033 104.64 122.918 104.532C122.802 104.423 122.645 104.362 122.481 104.362H121.969V104.079H122.481C122.719 104.081 122.947 104.17 123.115 104.328C123.282 104.486 123.376 104.7 123.376 104.923C123.384 105.066 123.448 105.202 123.556 105.303C123.665 105.405 123.81 105.465 123.963 105.472H124.451L124.482 105.778ZM132.15 131.182H131.668C131.515 131.175 131.37 131.114 131.262 131.013C131.153 130.911 131.089 130.776 131.082 130.632C131.082 130.41 130.987 130.197 130.819 130.04C130.651 129.883 130.424 129.794 130.186 129.794H129.674V130.083H130.186C130.339 130.09 130.484 130.15 130.593 130.252C130.701 130.353 130.765 130.489 130.773 130.632C130.773 130.855 130.867 131.068 131.035 131.225C131.203 131.382 131.431 131.471 131.668 131.471H132.15V131.182ZM141.701 106.905H141.219C141.061 106.898 140.912 106.834 140.803 106.726C140.693 106.619 140.633 106.476 140.633 106.327C140.631 106.105 140.536 105.892 140.367 105.735C140.198 105.578 139.969 105.489 139.731 105.489H139.219V105.778H139.731C139.89 105.778 140.042 105.835 140.157 105.937C140.272 106.04 140.341 106.179 140.349 106.327C140.349 106.55 140.443 106.763 140.611 106.92C140.779 107.077 141.007 107.166 141.244 107.166H141.726L141.701 106.905ZM117.289 93.8369H116.801C116.648 93.8299 116.503 93.7698 116.395 93.6683C116.286 93.5668 116.222 93.4312 116.214 93.2878C116.214 93.0655 116.12 92.8523 115.952 92.6952C115.784 92.538 115.557 92.4497 115.319 92.4497H114.807V92.7387H115.319C115.478 92.7385 115.63 92.7954 115.745 92.8976C115.86 92.9999 115.929 93.1396 115.937 93.2878C115.937 93.5101 116.031 93.7232 116.199 93.8804C116.367 94.0376 116.594 94.1259 116.832 94.1259H117.32L117.289 93.8369ZM108.281 83.0283H107.799C107.641 83.0285 107.488 82.9715 107.373 82.8693C107.258 82.7671 107.19 82.6274 107.182 82.4792C107.182 82.3686 107.158 82.2592 107.113 82.1571C107.068 82.055 107.001 81.9624 106.917 81.8845C106.834 81.8066 106.734 81.745 106.625 81.7032C106.516 81.6614 106.398 81.6403 106.28 81.6411H105.774V81.9301H106.28C106.444 81.9301 106.601 81.991 106.717 82.0994C106.833 82.2078 106.898 82.3548 106.898 82.5081C106.898 82.7303 106.992 82.9435 107.16 83.1007C107.328 83.2579 107.556 83.3462 107.793 83.3462H108.275L108.281 83.0283ZM132.316 93.5421H131.829C131.67 93.5423 131.518 93.4854 131.403 93.3832C131.288 93.2809 131.219 93.1412 131.211 92.993C131.211 92.7707 131.117 92.5576 130.949 92.4004C130.781 92.2432 130.553 92.1549 130.316 92.1549H129.804V92.4439H130.341C130.499 92.4513 130.648 92.5155 130.757 92.6231C130.867 92.7307 130.927 92.8735 130.927 93.0219C130.927 93.2442 131.022 93.4574 131.189 93.6145C131.357 93.7717 131.585 93.86 131.822 93.86H132.31L132.316 93.5421ZM123.426 78.8378H122.932C122.779 78.8308 122.634 78.7707 122.525 78.6692C122.417 78.5677 122.353 78.432 122.345 78.2887C122.345 78.0664 122.251 77.8532 122.083 77.696C121.915 77.5389 121.687 77.4506 121.45 77.4506H120.938V77.7396H121.45C121.608 77.747 121.758 77.8111 121.867 77.9187C121.976 78.0263 122.037 78.1691 122.037 78.3176C122.037 78.5398 122.131 78.753 122.299 78.9102C122.467 79.0674 122.694 79.1557 122.932 79.1557H123.42L123.426 78.8378ZM113.597 116.217H113.115C112.957 116.21 112.808 116.146 112.698 116.038C112.589 115.93 112.528 115.788 112.529 115.639C112.527 115.416 112.431 115.203 112.262 115.046C112.093 114.889 111.865 114.801 111.627 114.801H111.115V115.09H111.627C111.791 115.09 111.948 115.151 112.064 115.259C112.179 115.368 112.245 115.515 112.245 115.668C112.245 115.891 112.339 116.105 112.506 116.263C112.674 116.421 112.902 116.51 113.14 116.512H113.621L113.597 116.217ZM126.068 140.308H125.58C125.417 140.308 125.26 140.247 125.144 140.139C125.028 140.03 124.963 139.883 124.963 139.73C124.963 139.508 124.869 139.295 124.701 139.138C124.533 138.98 124.305 138.892 124.068 138.892H123.555V139.181H124.068C124.221 139.188 124.366 139.248 124.474 139.35C124.583 139.451 124.647 139.587 124.654 139.73C124.654 139.952 124.749 140.166 124.917 140.323C125.084 140.48 125.312 140.568 125.55 140.568H126.037L126.068 140.308ZM142.263 148.51H141.775C141.617 148.503 141.467 148.438 141.358 148.331C141.249 148.223 141.188 148.08 141.188 147.932C141.188 147.71 141.094 147.497 140.926 147.339C140.758 147.182 140.531 147.094 140.293 147.094H139.781V147.383H140.293C140.446 147.39 140.591 147.45 140.7 147.552C140.808 147.653 140.872 147.789 140.88 147.932C140.88 148.155 140.974 148.369 141.142 148.527C141.309 148.685 141.537 148.774 141.775 148.776H142.263V148.51ZM108.231 142.805H107.744C107.585 142.805 107.433 142.748 107.318 142.646C107.203 142.544 107.134 142.404 107.126 142.256C107.126 142.034 107.032 141.821 106.864 141.663C106.696 141.506 106.468 141.418 106.231 141.418H105.719V141.707H106.262C106.415 141.714 106.56 141.774 106.668 141.876C106.777 141.977 106.841 142.113 106.848 142.256C106.848 142.478 106.943 142.691 107.111 142.849C107.279 143.006 107.506 143.094 107.744 143.094H108.231V142.805ZM121.919 127.118H121.432C121.278 127.111 121.134 127.051 121.025 126.95C120.917 126.848 120.852 126.712 120.845 126.569C120.845 126.347 120.751 126.134 120.583 125.976C120.415 125.819 120.187 125.731 119.95 125.731H119.437V126.02H119.95C120.108 126.02 120.261 126.077 120.376 126.179C120.491 126.281 120.559 126.421 120.567 126.569C120.567 126.791 120.661 127.005 120.829 127.162C120.997 127.319 121.225 127.407 121.462 127.407H121.95L121.919 127.118ZM106.99 129.43H106.503C106.35 129.423 106.205 129.363 106.096 129.262C105.988 129.16 105.924 129.024 105.916 128.881C105.916 128.658 105.822 128.444 105.654 128.286C105.487 128.128 105.259 128.039 105.021 128.037H104.508V128.326H105.027C105.185 128.334 105.335 128.398 105.444 128.505C105.553 128.613 105.614 128.756 105.614 128.904C105.614 129.126 105.708 129.34 105.876 129.497C106.044 129.654 106.271 129.742 106.509 129.742H106.997L106.99 129.43ZM128.791 116.547H128.303C128.15 116.54 128.005 116.479 127.897 116.378C127.788 116.276 127.724 116.141 127.717 115.997C127.717 115.775 127.622 115.562 127.455 115.405C127.287 115.248 127.059 115.159 126.821 115.159H126.309V115.448H126.821C126.98 115.456 127.129 115.52 127.238 115.628C127.347 115.735 127.408 115.878 127.408 116.026C127.408 116.249 127.502 116.462 127.67 116.619C127.838 116.776 128.066 116.864 128.303 116.864H128.791V116.547ZM147.881 133.887H147.393C147.235 133.879 147.086 133.815 146.977 133.707C146.867 133.6 146.807 133.457 146.807 133.309C146.805 133.087 146.71 132.874 146.543 132.718C146.375 132.561 146.149 132.472 145.912 132.47H145.399V132.759H145.912C146.065 132.766 146.21 132.827 146.318 132.928C146.426 133.03 146.491 133.165 146.498 133.309C146.498 133.531 146.592 133.745 146.76 133.903C146.928 134.061 147.155 134.151 147.393 134.152H147.881V133.887ZM113.745 100.322C113.858 100.226 114.006 100.173 114.158 100.173C114.311 100.173 114.459 100.226 114.572 100.322C114.739 100.469 114.96 100.551 115.19 100.551C115.419 100.551 115.64 100.469 115.807 100.322L116.171 99.981L115.955 99.7787L115.591 100.12C115.477 100.217 115.328 100.271 115.174 100.271C115.02 100.271 114.871 100.217 114.757 100.12C114.587 99.9668 114.36 99.8814 114.125 99.8814C113.889 99.8814 113.662 99.9668 113.492 100.12L113.152 100.438L113.368 100.64L113.745 100.322ZM108.188 91.652C108.302 91.5562 108.449 91.5031 108.602 91.5031C108.755 91.5031 108.902 91.5562 109.016 91.652C109.098 91.7305 109.197 91.7928 109.305 91.8353C109.414 91.8779 109.531 91.8998 109.648 91.8998C109.766 91.8998 109.883 91.8779 109.991 91.8353C110.1 91.7928 110.198 91.7305 110.281 91.652L110.645 91.3168L110.429 91.1087L110.065 91.4497C109.952 91.5456 109.804 91.5987 109.651 91.5987C109.499 91.5987 109.351 91.5456 109.238 91.4497C109.067 91.2964 108.839 91.2108 108.602 91.2108C108.365 91.2108 108.137 91.2964 107.966 91.4497L107.626 91.7734L107.842 91.9757L108.188 91.652ZM136.163 115.443C136.276 115.347 136.424 115.294 136.576 115.294C136.729 115.294 136.877 115.347 136.99 115.443C137.159 115.587 137.379 115.667 137.608 115.667C137.836 115.667 138.056 115.587 138.225 115.443L138.589 115.102L138.373 114.899L138.009 115.24C137.895 115.336 137.748 115.389 137.595 115.389C137.442 115.389 137.295 115.336 137.182 115.24C137.098 115.162 136.999 115.099 136.89 115.057C136.781 115.014 136.664 114.992 136.546 114.992C136.427 114.992 136.31 115.014 136.201 115.057C136.092 115.099 135.993 115.162 135.91 115.24L135.57 115.558L135.786 115.766L136.163 115.443ZM122.166 87.3113C122.28 87.2154 122.427 87.1623 122.58 87.1623C122.733 87.1623 122.88 87.2154 122.994 87.3113C123.164 87.4642 123.391 87.5496 123.626 87.5496C123.862 87.5496 124.089 87.4642 124.259 87.3113L124.624 86.9702L124.407 86.7679L124.043 87.1032C123.929 87.2007 123.781 87.2547 123.626 87.2547C123.472 87.2547 123.323 87.2007 123.21 87.1032C123.038 86.9528 122.812 86.8692 122.577 86.8692C122.342 86.8692 122.116 86.9528 121.944 87.1032L121.604 87.4269L121.82 87.6292L122.166 87.3113ZM118.943 69.2372C119.057 69.1397 119.206 69.0856 119.36 69.0856C119.514 69.0856 119.663 69.1397 119.777 69.2372C119.946 69.3928 120.173 69.4801 120.41 69.4801C120.647 69.4801 120.874 69.3928 121.043 69.2372L121.407 68.8962L121.185 68.6938L120.826 69.0291C120.713 69.1266 120.564 69.1806 120.41 69.1806C120.255 69.1806 120.107 69.1266 119.993 69.0291C119.826 68.882 119.605 68.8001 119.376 68.8001C119.146 68.8001 118.925 68.882 118.758 69.0291L118.412 69.3528L118.635 69.5551L118.943 69.2372ZM112.64 79.0921C112.753 78.9962 112.901 78.9432 113.053 78.9432C113.206 78.9432 113.354 78.9962 113.467 79.0921C113.55 79.1706 113.648 79.2329 113.757 79.2754C113.866 79.3179 113.982 79.3398 114.1 79.3398C114.218 79.3398 114.334 79.3179 114.443 79.2754C114.551 79.2329 114.65 79.1706 114.733 79.0921L115.097 78.7568L114.881 78.5488L114.517 78.8898C114.403 78.9873 114.254 79.0413 114.1 79.0413C113.946 79.0413 113.797 78.9873 113.683 78.8898C113.516 78.7427 113.295 78.6608 113.066 78.6608C112.836 78.6608 112.615 78.7427 112.448 78.8898L112.109 79.2135L112.325 79.4158L112.64 79.0921ZM122.642 96.9003C122.649 96.7569 122.713 96.6213 122.822 96.5198C122.93 96.4183 123.075 96.3582 123.228 96.3512C123.466 96.3512 123.693 96.2629 123.861 96.1057C124.029 95.9485 124.123 95.7354 124.123 95.5131V95.0334H123.815V95.5131C123.815 95.6615 123.754 95.8043 123.645 95.9119C123.536 96.0195 123.387 96.0837 123.228 96.0911C122.991 96.0911 122.763 96.1794 122.595 96.3366C122.427 96.4937 122.333 96.7069 122.333 96.9292V97.3858H122.642V96.9003ZM119.351 119.685C119.359 119.537 119.427 119.397 119.542 119.295C119.657 119.193 119.81 119.136 119.968 119.136C120.206 119.136 120.433 119.048 120.601 118.891C120.769 118.733 120.864 118.52 120.864 118.298V117.818H120.555V118.298C120.555 118.446 120.494 118.589 120.385 118.697C120.276 118.804 120.127 118.868 119.968 118.876C119.851 118.872 119.733 118.89 119.623 118.928C119.513 118.967 119.412 119.026 119.326 119.101C119.24 119.176 119.171 119.266 119.122 119.366C119.073 119.467 119.046 119.575 119.042 119.685V120.142H119.351V119.685ZM136.515 136.69C136.523 136.542 136.591 136.402 136.706 136.3C136.821 136.198 136.974 136.141 137.132 136.141C137.37 136.141 137.597 136.052 137.765 135.895C137.933 135.738 138.027 135.525 138.027 135.303V134.823H137.719V135.291C137.719 135.44 137.658 135.582 137.549 135.69C137.44 135.798 137.29 135.862 137.132 135.869C136.894 135.869 136.666 135.957 136.497 136.114C136.328 136.271 136.232 136.484 136.231 136.707V137.164H136.539L136.515 136.69ZM148.387 147.764C148.395 147.621 148.459 147.485 148.568 147.384C148.676 147.282 148.821 147.222 148.974 147.215C149.211 147.215 149.439 147.127 149.607 146.97C149.775 146.813 149.869 146.599 149.869 146.377V145.897H149.561V146.377C149.553 146.525 149.484 146.665 149.369 146.767C149.254 146.87 149.102 146.926 148.943 146.926C148.706 146.926 148.478 147.015 148.31 147.172C148.142 147.329 148.048 147.542 148.048 147.764V148.221H148.357L148.387 147.764ZM144.066 115.703C144.06 115.628 144.072 115.553 144.099 115.483C144.126 115.412 144.169 115.348 144.224 115.294C144.279 115.239 144.346 115.196 144.419 115.167C144.493 115.138 144.572 115.124 144.652 115.125C144.89 115.123 145.118 115.034 145.286 114.875C145.453 114.717 145.547 114.504 145.547 114.281V113.801H145.239V114.281C145.239 114.429 145.178 114.572 145.069 114.68C144.96 114.787 144.81 114.851 144.652 114.859C144.415 114.859 144.187 114.947 144.019 115.104C143.851 115.261 143.757 115.475 143.757 115.697V116.148H144.066V115.703ZM105.898 120.517C105.906 120.369 105.974 120.229 106.089 120.127C106.204 120.025 106.356 119.968 106.515 119.968C106.752 119.968 106.98 119.88 107.148 119.723C107.316 119.566 107.41 119.352 107.41 119.13V118.65H107.102V119.107C107.107 119.182 107.095 119.257 107.068 119.327C107.041 119.397 106.998 119.462 106.943 119.516C106.888 119.57 106.822 119.613 106.748 119.642C106.674 119.672 106.595 119.686 106.515 119.685C106.278 119.685 106.05 119.773 105.882 119.931C105.714 120.088 105.62 120.301 105.62 120.523V120.98H105.928L105.898 120.517ZM106.639 100.033C106.646 99.8897 106.71 99.7541 106.819 99.6526C106.927 99.5511 107.072 99.491 107.225 99.484C107.461 99.4824 107.688 99.3935 107.854 99.2364C108.021 99.0794 108.114 98.8671 108.114 98.6459V98.1661H107.805V98.6459C107.805 98.7992 107.74 98.9462 107.625 99.0546C107.509 99.163 107.352 99.2239 107.188 99.2239C106.951 99.2239 106.723 99.3122 106.555 99.4693C106.387 99.6265 106.293 99.8397 106.293 100.062V100.519H106.601L106.639 100.033ZM114.622 86.739C114.621 86.5906 114.682 86.4478 114.791 86.3402C114.901 86.2326 115.05 86.1685 115.208 86.161C115.446 86.161 115.673 86.0727 115.841 85.9156C116.009 85.7584 116.103 85.5452 116.103 85.3229V84.8432H115.795V85.3229C115.787 85.4663 115.723 85.6019 115.615 85.7034C115.506 85.8049 115.361 85.865 115.208 85.872C114.971 85.872 114.743 85.9603 114.575 86.1175C114.407 86.2747 114.313 86.4879 114.313 86.7101V87.1668H114.622V86.739ZM111.602 73.3468C111.61 73.1985 111.679 73.0588 111.794 72.9566C111.909 72.8544 112.061 72.7975 112.22 72.7977C112.458 72.7961 112.686 72.7065 112.853 72.5485C113.021 72.3904 113.115 72.1766 113.115 71.9538V71.474H112.806V71.9538C112.807 72.1022 112.746 72.245 112.637 72.3526C112.527 72.4602 112.378 72.5244 112.22 72.5318C111.982 72.5318 111.755 72.6201 111.587 72.7772C111.419 72.9344 111.325 73.1476 111.325 73.3699V73.8207H111.633L111.602 73.3468ZM112.479 107.327C112.479 107.179 112.54 107.036 112.649 106.929C112.758 106.821 112.907 106.757 113.066 106.749C113.303 106.749 113.531 106.661 113.699 106.504C113.867 106.347 113.961 106.134 113.961 105.911V105.432H113.671V105.911C113.663 106.055 113.599 106.19 113.491 106.292C113.382 106.393 113.237 106.453 113.084 106.46C112.847 106.46 112.619 106.549 112.451 106.706C112.283 106.863 112.189 107.076 112.189 107.299V107.755H112.498L112.479 107.327ZM131.724 110.096C131.723 109.948 131.784 109.805 131.893 109.697C132.003 109.59 132.152 109.525 132.31 109.518C132.548 109.518 132.775 109.43 132.943 109.273C133.111 109.115 133.205 108.902 133.205 108.68V108.2H132.897V108.703C132.889 108.846 132.825 108.982 132.717 109.084C132.608 109.185 132.463 109.245 132.31 109.252C132.073 109.252 131.845 109.34 131.677 109.498C131.509 109.655 131.415 109.868 131.415 110.09V110.547H131.724V110.096ZM113.936 133.216C113.944 133.073 114.008 132.937 114.116 132.836C114.225 132.734 114.37 132.674 114.523 132.667C114.76 132.667 114.988 132.579 115.156 132.422C115.324 132.264 115.418 132.051 115.418 131.829V131.349H115.109V131.823C115.101 131.971 115.033 132.111 114.918 132.213C114.803 132.315 114.65 132.372 114.492 132.372C114.254 132.372 114.027 132.461 113.859 132.618C113.691 132.775 113.597 132.988 113.597 133.21V133.667H113.905L113.936 133.216ZM100.31 139.337C100.31 139.189 100.371 139.046 100.48 138.938C100.589 138.831 100.738 138.767 100.897 138.759C101.134 138.759 101.362 138.671 101.53 138.514C101.698 138.356 101.792 138.143 101.792 137.921V137.441H101.483V137.921C101.476 138.064 101.411 138.2 101.303 138.302C101.195 138.403 101.05 138.463 100.897 138.47C100.659 138.47 100.432 138.558 100.264 138.716C100.096 138.873 100.001 139.086 100.001 139.308V139.765H100.31V139.337ZM118.11 146.273C118.117 146.13 118.182 145.994 118.29 145.893C118.398 145.791 118.543 145.731 118.696 145.724C118.934 145.724 119.162 145.636 119.329 145.479C119.497 145.321 119.592 145.108 119.592 144.886V144.406H119.283V144.886C119.275 145.034 119.207 145.174 119.092 145.276C118.977 145.378 118.824 145.435 118.666 145.435C118.428 145.435 118.2 145.523 118.033 145.681C117.865 145.838 117.77 146.051 117.77 146.273V146.73H118.079L118.11 146.273ZM138.169 123.222C138.169 123.074 138.23 122.931 138.339 122.824C138.448 122.716 138.598 122.652 138.756 122.644C138.874 122.644 138.991 122.623 139.1 122.58C139.209 122.538 139.308 122.475 139.391 122.397C139.474 122.319 139.54 122.225 139.585 122.123C139.629 122.021 139.652 121.911 139.651 121.801V121.321H139.342V121.801C139.343 121.949 139.282 122.092 139.173 122.199C139.063 122.307 138.914 122.371 138.756 122.379C138.518 122.379 138.291 122.467 138.123 122.624C137.955 122.781 137.861 122.994 137.861 123.217V123.668H138.169V123.222ZM129.983 100.611C130.096 100.514 130.245 100.46 130.399 100.46C130.554 100.46 130.702 100.514 130.816 100.611C130.899 100.69 130.997 100.752 131.106 100.794C131.215 100.837 131.331 100.859 131.449 100.859C131.567 100.859 131.683 100.837 131.792 100.794C131.901 100.752 131.999 100.69 132.082 100.611L132.428 100.287L132.205 100.085L131.866 100.409C131.752 100.506 131.603 100.56 131.449 100.56C131.295 100.56 131.146 100.506 131.032 100.409C130.949 100.33 130.851 100.268 130.742 100.225C130.634 100.183 130.517 100.161 130.399 100.161C130.282 100.161 130.165 100.183 130.056 100.225C129.948 100.268 129.849 100.33 129.767 100.409L129.402 100.744L129.618 100.952L129.983 100.611ZM119.005 110.946C119.119 110.848 119.268 110.794 119.422 110.794C119.576 110.794 119.725 110.848 119.839 110.946C120.007 111.09 120.227 111.171 120.456 111.171C120.685 111.171 120.905 111.09 121.073 110.946L121.413 110.622L121.197 110.42L120.851 110.743C120.738 110.839 120.59 110.892 120.438 110.892C120.285 110.892 120.137 110.839 120.024 110.743C119.941 110.665 119.843 110.603 119.734 110.56C119.625 110.518 119.509 110.496 119.391 110.496C119.273 110.496 119.157 110.518 119.048 110.56C118.939 110.603 118.841 110.665 118.758 110.743L118.394 111.079L118.61 111.287L119.005 110.946ZM111.399 124.968C111.513 124.871 111.661 124.816 111.815 124.816C111.97 124.816 112.118 124.871 112.232 124.968C112.315 125.046 112.413 125.109 112.522 125.151C112.631 125.194 112.747 125.216 112.865 125.216C112.983 125.216 113.099 125.194 113.208 125.151C113.317 125.109 113.415 125.046 113.498 124.968L113.844 124.644L113.621 124.442L113.282 124.766C113.168 124.863 113.019 124.917 112.865 124.917C112.711 124.917 112.562 124.863 112.448 124.766C112.366 124.687 112.267 124.625 112.158 124.582C112.05 124.54 111.933 124.518 111.815 124.518C111.698 124.518 111.581 124.54 111.472 124.582C111.364 124.625 111.265 124.687 111.183 124.766L110.818 125.101L111.041 125.309L111.399 124.968ZM114.689 139.539C114.803 139.444 114.95 139.391 115.103 139.391C115.256 139.391 115.403 139.444 115.517 139.539C115.685 139.684 115.906 139.764 116.134 139.764C116.363 139.764 116.583 139.684 116.752 139.539L117.097 139.216L116.881 139.013L116.536 139.331C116.482 139.383 116.418 139.425 116.347 139.453C116.276 139.481 116.199 139.496 116.122 139.496C116.045 139.496 115.968 139.481 115.897 139.453C115.826 139.425 115.762 139.383 115.708 139.331C115.538 139.175 115.31 139.088 115.072 139.088C114.834 139.088 114.606 139.175 114.436 139.331L114.078 139.672L114.294 139.88L114.689 139.539ZM125.401 148.076C125.515 147.979 125.664 147.925 125.818 147.925C125.972 147.925 126.121 147.979 126.235 148.076C126.406 148.228 126.632 148.313 126.868 148.313C127.103 148.313 127.33 148.228 127.501 148.076L127.846 147.753L127.624 147.551L127.285 147.868C127.171 147.966 127.022 148.02 126.868 148.02C126.714 148.02 126.565 147.966 126.451 147.868C126.282 147.713 126.055 147.625 125.818 147.625C125.581 147.625 125.354 147.713 125.185 147.868L124.821 148.209L125.043 148.412L125.401 148.076ZM129.427 123.535C129.541 123.437 129.689 123.383 129.844 123.383C129.998 123.383 130.147 123.437 130.26 123.535C130.431 123.686 130.658 123.771 130.893 123.771C131.129 123.771 131.355 123.686 131.526 123.535L131.866 123.211L131.65 123.009L131.31 123.327C131.196 123.424 131.048 123.478 130.893 123.478C130.739 123.478 130.59 123.424 130.477 123.327C130.308 123.171 130.081 123.084 129.844 123.084C129.607 123.084 129.38 123.171 129.211 123.327L128.847 123.668L129.069 123.87L129.427 123.535ZM132.15 142.69C132.263 142.592 132.412 142.538 132.566 142.538C132.721 142.538 132.869 142.592 132.983 142.69C133.151 142.847 133.379 142.935 133.616 142.935C133.853 142.935 134.081 142.847 134.249 142.69L134.595 142.366L134.372 142.164L134.033 142.487C133.919 142.585 133.77 142.639 133.616 142.639C133.462 142.639 133.313 142.585 133.199 142.487C133.031 142.343 132.81 142.262 132.582 142.262C132.353 142.262 132.133 142.343 131.964 142.487L131.575 142.805L131.798 143.013L132.15 142.69ZM143.578 141.493C143.691 141.397 143.839 141.344 143.992 141.344C144.144 141.344 144.292 141.397 144.405 141.493C144.575 141.646 144.802 141.731 145.038 141.731C145.274 141.731 145.501 141.646 145.671 141.493L146.017 141.169L145.801 140.967L145.455 141.291C145.341 141.387 145.194 141.44 145.041 141.44C144.888 141.44 144.741 141.387 144.627 141.291C144.544 141.212 144.445 141.15 144.336 141.107C144.227 141.064 144.11 141.043 143.992 141.043C143.873 141.043 143.756 141.064 143.647 141.107C143.538 141.15 143.439 141.212 143.356 141.291L142.997 141.626L143.214 141.834L143.578 141.493ZM144.492 123.535C144.546 123.482 144.61 123.441 144.682 123.412C144.754 123.384 144.831 123.369 144.908 123.369C144.986 123.369 145.063 123.384 145.135 123.412C145.206 123.441 145.271 123.482 145.325 123.535C145.492 123.682 145.713 123.764 145.943 123.764C146.172 123.764 146.393 123.682 146.56 123.535L146.899 123.211L146.683 123.009L146.344 123.327C146.23 123.424 146.081 123.478 145.927 123.478C145.773 123.478 145.624 123.424 145.51 123.327C145.34 123.174 145.113 123.088 144.877 123.088C144.642 123.088 144.415 123.174 144.245 123.327L143.88 123.668L144.096 123.87L144.492 123.535ZM139.552 129.315C139.666 129.219 139.813 129.166 139.966 129.166C140.119 129.166 140.266 129.219 140.38 129.315C140.547 129.462 140.768 129.544 140.997 129.544C141.227 129.544 141.447 129.462 141.615 129.315L141.96 128.991L141.744 128.789L141.398 129.107C141.285 129.202 141.138 129.255 140.985 129.255C140.832 129.255 140.685 129.202 140.571 129.107C140.401 128.95 140.173 128.863 139.935 128.863C139.697 128.863 139.469 128.95 139.299 129.107L138.941 129.448L139.157 129.65L139.552 129.315ZM122.512 133.719C122.626 133.621 122.774 133.567 122.929 133.567C123.083 133.567 123.232 133.621 123.345 133.719C123.514 133.875 123.741 133.962 123.978 133.962C124.215 133.962 124.443 133.875 124.611 133.719L124.957 133.395L124.735 133.193L124.395 133.511C124.281 133.608 124.133 133.662 123.978 133.662C123.824 133.662 123.675 133.608 123.562 133.511C123.39 133.361 123.164 133.277 122.929 133.277C122.694 133.277 122.467 133.361 122.296 133.511L121.932 133.852L122.154 134.054L122.512 133.719ZM106.836 135.725C106.95 135.629 107.097 135.576 107.25 135.576C107.403 135.576 107.55 135.629 107.663 135.725C107.832 135.869 108.052 135.949 108.281 135.949C108.509 135.949 108.73 135.869 108.898 135.725L109.244 135.401L109.028 135.199L108.682 135.522C108.569 135.618 108.421 135.671 108.268 135.671C108.116 135.671 107.968 135.618 107.855 135.522C107.684 135.369 107.456 135.283 107.219 135.283C106.982 135.283 106.754 135.369 106.583 135.522L106.262 135.869L106.478 136.077L106.836 135.725ZM109.503 148.851C109.617 148.755 109.764 148.702 109.917 148.702C110.07 148.702 110.217 148.755 110.331 148.851C110.499 149.007 110.727 149.094 110.963 149.094C111.2 149.094 111.428 149.007 111.596 148.851L111.942 148.527L111.72 148.325L111.38 148.643C111.326 148.695 111.261 148.737 111.19 148.765C111.118 148.794 111.041 148.808 110.963 148.808C110.886 148.808 110.809 148.794 110.737 148.765C110.666 148.737 110.601 148.695 110.547 148.643C110.38 148.496 110.159 148.414 109.929 148.414C109.7 148.414 109.479 148.496 109.312 148.643L108.948 148.984L109.17 149.186L109.503 148.851ZM99.6248 147.117C99.7382 147.021 99.8856 146.968 100.038 146.968C100.191 146.968 100.339 147.021 100.452 147.117C100.619 147.264 100.84 147.346 101.07 147.346C101.299 147.346 101.52 147.264 101.687 147.117L102.033 146.793L101.817 146.591L101.471 146.915C101.357 147.012 101.208 147.066 101.054 147.066C100.9 147.066 100.751 147.012 100.637 146.915C100.555 146.836 100.456 146.774 100.347 146.731C100.239 146.689 100.122 146.667 100.004 146.667C99.8867 146.667 99.7702 146.689 99.6615 146.731C99.5529 146.774 99.4544 146.836 99.3716 146.915L99.0135 147.25L99.2296 147.458L99.6248 147.117ZM105.589 111.246C105.702 111.15 105.85 111.097 106.003 111.097C106.155 111.097 106.303 111.15 106.416 111.246C106.585 111.391 106.805 111.471 107.034 111.471C107.262 111.471 107.483 111.391 107.651 111.246L107.997 110.923L107.781 110.72L107.435 111.044C107.321 111.141 107.172 111.196 107.018 111.196C106.864 111.196 106.715 111.141 106.601 111.044C106.519 110.966 106.42 110.903 106.312 110.861C106.203 110.818 106.086 110.796 105.969 110.796C105.851 110.796 105.734 110.818 105.626 110.861C105.517 110.903 105.418 110.966 105.336 111.044L104.978 111.379L105.194 111.587L105.589 111.246Z" fill="white"/>
<path d="M151.672 149.874H142.652L125.401 64.0525C129.032 65.2085 133.496 69.1967 135.897 75.2195C136.731 77.3118 137.558 79.751 138.367 82.4503C138.404 82.5832 138.441 82.7161 138.484 82.8491C140.874 90.8775 143.158 101.097 145.128 111.125C146.245 116.795 147.264 122.407 148.147 127.523L148.258 128.199C150.357 140.568 151.672 149.874 151.672 149.874Z" fill="#263238"/>
<path d="M156.58 132.708C157.698 135.066 157.087 139.031 159.124 138.805C160.933 138.603 161.075 135.817 161.075 135.817C161.075 135.817 162.001 139.008 163.884 138.268C165.767 137.528 165.255 134.447 165.255 134.447C165.255 134.447 165.903 137.135 167.724 136.268C169.546 135.401 169.626 132.713 169.626 132.713C169.626 132.713 170.373 133.361 171.367 132.21C172.793 130.563 171.707 126.101 170.546 123.893C169.385 121.685 163.403 114.414 162.446 113.327L147.258 120.165C147.258 120.165 147.387 124.98 147.77 127.413C148.153 129.846 151.789 137.534 153.888 136.817C155.988 136.1 153.32 130.713 152.975 129.257C152.629 127.8 152.931 127.482 153.629 128.026C154.105 128.355 156.086 131.661 156.58 132.708Z" fill="#EB9481"/>
<path d="M161.014 135.684C160.909 131.783 160.149 130.095 157.877 126.899C157.834 126.835 157.92 126.76 157.976 126.823C160.501 129.76 161.785 131.754 161.211 135.69C161.211 135.869 161.014 135.869 161.014 135.684Z" fill="#263238"/>
<path d="M165.218 134.609C164.736 130.563 163.928 128.731 161.81 125.222C161.779 125.17 161.866 125.118 161.903 125.165C164.286 128.448 165.521 130.459 165.434 134.557C165.428 134.742 165.243 134.794 165.218 134.609Z" fill="#263238"/>
<path d="M169.583 132.673C168.818 128.794 168.021 126.742 165.502 123.581C165.493 123.566 165.489 123.548 165.492 123.531C165.495 123.514 165.504 123.498 165.518 123.487C165.532 123.475 165.549 123.468 165.568 123.468C165.586 123.467 165.605 123.472 165.62 123.483C168.521 126.477 169.54 129.031 169.707 132.638C169.719 132.887 169.633 132.916 169.583 132.673Z" fill="#263238"/>
<path d="M130.958 68.0696C142.689 79.4736 160.766 109.813 162.884 113.957C164.323 116.772 148.616 124.211 147.943 122.165C147.085 119.541 133.687 89.8487 130.038 77.6587C128.019 70.9134 128.538 65.7114 130.958 68.0696Z" fill="#EB9481"/>
<path d="M125.636 69.4626C126.42 73.6242 131.711 87.502 131.711 87.502L141.454 85.3114L141.627 85.2767L147.832 83.8895C147.832 83.8895 135.934 70.8903 130.359 66.8847C124.784 62.8792 124.784 64.775 125.636 69.4626Z" fill="#00E340"/>
<path d="M141.392 83.2709H140.905C140.667 83.2709 140.439 83.1826 140.272 83.0254C140.104 82.8683 140.009 82.6551 140.009 82.4328C140.009 82.2795 139.944 82.1325 139.828 82.0241C139.713 81.9157 139.556 81.8548 139.392 81.8548H138.879V81.5658H139.392C139.629 81.5658 139.857 81.6541 140.025 81.8113C140.193 81.9685 140.287 82.1816 140.287 82.4039C140.295 82.5473 140.359 82.6829 140.467 82.7844C140.576 82.8859 140.721 82.946 140.874 82.953H141.361L141.392 83.2709ZM133.212 75.9303C133.326 75.8328 133.474 75.7788 133.628 75.7788C133.783 75.7788 133.931 75.8328 134.045 75.9303C134.215 76.0833 134.442 76.1687 134.678 76.1687C134.914 76.1687 135.141 76.0833 135.311 75.9303L135.675 75.5893L135.453 75.387L135.095 75.728C134.981 75.8255 134.832 75.8796 134.678 75.8796C134.524 75.8796 134.375 75.8255 134.261 75.728C134.179 75.6495 134.08 75.5872 133.971 75.5447C133.863 75.5022 133.746 75.4803 133.628 75.4803C133.511 75.4803 133.394 75.5022 133.285 75.5447C133.177 75.5872 133.078 75.6495 132.996 75.728L132.65 76.0459L132.872 76.254L133.212 75.9303ZM130.489 82.4444C130.496 82.301 130.561 82.1654 130.669 82.0639C130.777 81.9624 130.922 81.9023 131.075 81.8953C131.313 81.8953 131.541 81.807 131.709 81.6498C131.876 81.4926 131.971 81.2795 131.971 81.0572V80.5774H131.662V81.0572C131.662 81.2056 131.601 81.3484 131.492 81.456C131.383 81.5636 131.234 81.6278 131.075 81.6352C130.838 81.6352 130.61 81.7235 130.442 81.8807C130.275 82.0378 130.18 82.251 130.18 82.4733V82.9299H130.489V82.4444ZM126.957 72.1444C126.956 72.0696 126.972 71.9953 127.003 71.9264C127.034 71.8574 127.08 71.7952 127.138 71.7436C127.196 71.6921 127.265 71.6523 127.34 71.6267C127.415 71.6012 127.495 71.5905 127.575 71.5953C127.812 71.5953 128.04 71.507 128.208 71.3498C128.376 71.1927 128.47 70.9795 128.47 70.7572V70.2775H128.161V70.7572C128.162 70.9056 128.101 71.0484 127.992 71.156C127.882 71.2636 127.733 71.3278 127.575 71.3352C127.337 71.3352 127.11 71.4235 126.942 71.5807C126.774 71.7379 126.68 71.951 126.68 72.1733V72.6241H126.988L126.957 72.1444Z" fill="white"/>
<path d="M130.903 67.2893C131.026 67.0235 123.154 73.6473 116.665 72.4913C113.424 71.9133 112.813 65.1449 113.195 65.0756C118.653 64.041 123.833 61.255 130.903 67.2893Z" fill="#EB9481"/>
<path d="M124.722 64.8559C124.481 65.4339 120.833 68.9019 117.931 68.3933C116.986 68.2199 117.758 63.3473 117.758 63.3473L117.727 62.9716L117.295 57.7696L124.21 54.8161L125.198 54.4346C125.198 54.4346 125.198 55.868 125.198 57.6483V57.9026C125.198 58.0066 125.198 58.0991 125.198 58.1974C125.198 58.4632 125.198 58.7349 125.198 59.0066C125.198 59.2782 125.198 59.4112 125.198 59.6308V60.2724C125.153 61.8087 124.994 63.3402 124.722 64.8559Z" fill="#EB9481"/>
<path d="M125.216 57.6483C124.455 58.9921 123.39 60.1645 122.096 61.0839C120.801 62.0032 119.308 62.6474 117.721 62.9716L117.289 57.7696L124.204 54.8161L125.191 54.4346C125.191 54.4346 125.21 55.868 125.216 57.6483Z" fill="#263238"/>
<path d="M111.201 48.718C108.936 57.6366 114.381 59.9139 116.437 60.3647C118.289 60.7809 124.71 61.9658 127.945 53.3189C131.181 44.672 127.476 40.863 123.259 39.707C119.042 38.551 113.455 39.7995 111.201 48.718Z" fill="#EB9481"/>
<path d="M113.288 47.7529C113.514 47.7645 113.741 47.7645 113.967 47.7529C114.205 47.7745 114.444 47.7216 114.646 47.6026C114.703 47.5537 114.741 47.4888 114.754 47.4178C114.767 47.3468 114.756 47.2736 114.72 47.2096C114.628 47.0934 114.505 47.0025 114.363 46.9466C114.22 46.8906 114.064 46.8716 113.911 46.8917C113.596 46.888 113.291 46.993 113.053 47.1864C113.011 47.234 112.983 47.2914 112.972 47.3526C112.961 47.4139 112.968 47.4767 112.992 47.5345C113.016 47.5924 113.056 47.6432 113.108 47.6816C113.16 47.72 113.222 47.7446 113.288 47.7529Z" fill="#263238"/>
<path d="M119.944 48.9783C119.733 48.9128 119.527 48.8356 119.326 48.7471C119.085 48.698 118.868 48.5761 118.709 48.4003C118.672 48.3364 118.66 48.263 118.673 48.1918C118.687 48.1206 118.725 48.0556 118.783 48.0072C118.909 47.9256 119.057 47.8772 119.21 47.867C119.363 47.8568 119.516 47.8853 119.653 47.9494C119.955 48.0371 120.209 48.2294 120.363 48.487C120.395 48.5462 120.408 48.6126 120.4 48.6783C120.393 48.7441 120.365 48.8065 120.321 48.8581C120.277 48.9097 120.218 48.9485 120.151 48.9698C120.084 48.9911 120.012 48.994 119.944 48.9783Z" fill="#263238"/>
<path d="M118.252 51.0591C118.252 51.0591 118.295 51.0995 118.289 51.1227C118.147 51.7353 118.092 52.4521 118.641 52.7642C118.641 52.7642 118.641 52.8046 118.641 52.7931C117.925 52.5734 117.993 51.614 118.252 51.0591Z" fill="#263238"/>
<path d="M118.968 50.5214C120.036 50.637 119.715 52.6253 118.727 52.5271C117.739 52.4288 118.073 50.4289 118.968 50.5214Z" fill="#263238"/>
<path d="M119.37 50.6892C119.536 50.8279 119.684 51.0533 119.907 51.1053C120.129 51.1573 120.394 50.9839 120.592 50.8048C120.543 51.1862 120.32 51.5562 119.876 51.5504C119.431 51.5446 119.258 51.1689 119.197 50.7701C119.228 50.7296 119.302 50.6314 119.37 50.6892Z" fill="#263238"/>
<path d="M114.165 50.2036C114.165 50.2036 114.109 50.2036 114.109 50.2499C114.035 50.8741 113.838 51.5735 113.214 51.6949V51.7295C113.955 51.7353 114.202 50.799 114.165 50.2036Z" fill="#263238"/>
<path d="M113.671 49.4811C112.615 49.2614 112.232 51.2151 113.208 51.4463C114.183 51.6775 114.554 49.6602 113.671 49.4811Z" fill="#263238"/>
<path d="M113.208 49.5332C113.023 49.6141 112.819 49.7759 112.59 49.7528C112.362 49.7297 112.226 49.4869 112.115 49.2557C112.115 49.2557 112.084 49.2557 112.078 49.2557C111.998 49.6372 112.078 50.0534 112.43 50.1921C112.782 50.3308 113.097 50.036 113.263 49.6777C113.319 49.6199 113.282 49.5043 113.208 49.5332Z" fill="#263238"/>
<path d="M114.807 53.111C114.807 53.111 114.51 54.0069 114.436 54.4404C114.436 54.4809 114.535 54.5213 114.696 54.5502C115.082 54.6785 115.499 54.7043 115.9 54.6247C116.301 54.5452 116.67 54.3633 116.968 54.0994C117.005 54.0647 116.968 54.0127 116.906 54.03C116.25 54.3206 115.511 54.4038 114.801 54.267C114.801 54.1398 115.362 52.7411 115.288 52.7237C114.923 52.7006 114.555 52.722 114.196 52.7873C114.751 50.8973 115.628 49.1055 116.147 47.2154C116.153 47.2008 116.153 47.1844 116.147 47.1698C116.14 47.1552 116.128 47.1435 116.113 47.1374C116.097 47.1312 116.08 47.1311 116.064 47.1371C116.048 47.1431 116.036 47.1546 116.029 47.1691C115.035 49.0658 114.245 51.0504 113.671 53.0937C113.597 53.3364 114.609 53.1572 114.807 53.111Z" fill="#263238"/>
<path d="M114.788 54.2265C114.964 54.6326 115.246 54.9905 115.609 55.2669C115.816 55.4088 116.063 55.4894 116.319 55.4981C116.875 55.4981 117.023 55.0646 117.042 54.6542C117.051 54.4371 117.032 54.2198 116.986 54.0068C116.297 54.2983 115.527 54.3753 114.788 54.2265Z" fill="#263238"/>
<path d="M115.61 55.2669C115.816 55.4089 116.064 55.4894 116.32 55.4981C116.875 55.4981 117.023 55.0646 117.042 54.6542C116.764 54.5909 116.472 54.6169 116.212 54.728C115.952 54.8392 115.74 55.029 115.61 55.2669Z" fill="#FF9BBC"/>
<path d="M127.871 53.3479C126.778 53.1167 124.401 49.8278 125.192 44.8166C125.192 44.8166 124.815 49.3597 125.056 50.0764C125.296 50.7931 123.728 48.221 124.309 44.175C122.793 44.875 121.177 45.3674 119.511 45.6373C117.388 45.857 116.147 45.6373 116.023 45.487C115.9 45.3368 119.048 44.909 120.011 44.1576C120.011 44.1576 114.189 45.6778 111.664 45.4697C111.374 45.4697 112.01 39.84 116.276 38.0771C120.542 36.3142 126.204 39.8111 127.581 41.5451C127.581 41.5451 129.464 42.1231 131.094 45.094C132.724 48.0649 129.032 53.6022 127.871 53.3479Z" fill="#263238"/>
<path d="M126.248 53.6657C126.248 53.6657 128.81 51.1283 130.069 52.0242C131.329 52.9201 129.094 56.7985 127.39 57.1395C127.175 57.1967 126.951 57.2128 126.729 57.1866C126.508 57.1605 126.295 57.0928 126.102 56.9875C125.909 56.8822 125.742 56.7416 125.608 56.574C125.475 56.4064 125.38 56.2154 125.328 56.0124L126.248 53.6657Z" fill="#EB9481"/>
<path d="M129.396 53.1225C129.396 53.1225 129.396 53.1572 129.396 53.1629C128.198 53.4346 127.445 54.3189 126.871 55.29C126.953 55.1931 127.056 55.1141 127.174 55.0583C127.292 55.0025 127.422 54.9714 127.554 54.967C127.686 54.9626 127.817 54.985 127.939 55.0328C128.061 55.0806 128.171 55.1526 128.26 55.2437C128.266 55.2492 128.27 55.2564 128.271 55.2641C128.272 55.2718 128.27 55.2796 128.266 55.2863C128.261 55.2929 128.255 55.2981 128.247 55.3009C128.239 55.3036 128.231 55.3039 128.223 55.3015C128.035 55.2121 127.821 55.1806 127.612 55.2118C127.404 55.2429 127.211 55.3351 127.062 55.4749C126.81 55.705 126.586 55.961 126.395 56.2379C126.327 56.3246 126.154 56.2379 126.21 56.1454C126.414 54.7756 127.828 53.0416 129.396 53.1225Z" fill="#263238"/>
<path opacity="0.5" d="M42.7243 46.308C39.4335 53.822 30.3762 84.1324 36.2971 104.634C41.4833 122.512 53.5288 131.864 58.9929 134.892C67.0191 139.343 75.5826 142.169 75.2368 143.863C74.8911 145.556 66.4573 141.892 66.0745 142.545C65.6917 143.198 84.4176 160.07 117.714 163.515C169.175 168.838 199.397 151.516 203.842 150.77C208.288 150.024 187.055 174.04 171.466 179.67C167.878 180.959 180.937 177.653 189.802 172.682C193.13 170.815 183.962 195.981 153.332 202.206C147.442 203.403 160.167 203.333 164.705 202.831C169.243 202.328 151.597 214.229 105.718 210.807C70.0197 208.119 36.7601 182.04 23.097 153.284C21.5596 150.048 18.3923 152.163 17.3798 149.874C15.2189 144.99 16.2191 135.546 15.1633 133.69C14.1075 131.835 10.6439 133.69 9.60665 128.742C8.56941 123.795 9.12507 108.952 17.6761 85.1496C18.6887 82.329 17.2933 83.2827 15.4658 85.8028C13.6383 88.3229 11.4774 90.5655 9.43995 90.473C7.40251 90.3805 8.48297 83.3809 17.1019 70.4973C31.8764 48.3599 45.7125 39.5165 42.7243 46.308Z" fill="#00E340"/>
<path opacity="0.5" d="M77.9223 146.816C78.0087 144.458 87.739 145.62 86.8561 148.782C85.9732 151.943 77.805 150.019 77.9223 146.816Z" fill="#00E340"/>
<path opacity="0.5" d="M168.761 202.045C169.378 204.253 177.862 202.715 177.189 199.733C176.516 196.75 168.045 199.386 168.761 202.045Z" fill="#00E340"/>
<path opacity="0.5" d="M7.43926 93.1318C5.81549 92.9411 4.70416 96.2125 6.65515 96.8194C8.60615 97.4263 9.56314 93.3919 7.43926 93.1318Z" fill="#00E340"/>
<path opacity="0.5" d="M206.318 149.285C207.553 150.77 216.048 145.892 212.523 143.58C210.066 141.961 205.096 147.799 206.318 149.285Z" fill="#00E340"/>
<path d="M132.093 193.08L128.722 193.664L127.969 196.993L127.216 193.664L123.838 193.08L127.197 192.311L127.969 189.167L128.734 192.311L132.093 193.08Z" fill="#FEFEFE"/>
<path d="M51.2198 144.892L47.8488 145.476L47.0955 148.805L46.3423 145.476L42.9651 144.892L46.3238 144.123L47.0955 140.979L47.8611 144.123L51.2198 144.892Z" fill="#FEFEFE"/>
<path d="M34.1049 57.1918L30.7338 57.7755L29.9806 61.1048L29.2274 57.7755L25.8563 57.1918L29.2088 56.423L29.9806 53.2787L30.7462 56.423L34.1049 57.1918Z" fill="#FEFEFE"/>
<path d="M195.698 159.076L193.809 159.405L193.389 161.267L192.969 159.405L191.086 159.076L192.963 158.648L193.389 156.891L193.821 158.648L195.698 159.076Z" fill="#FEFEFE"/>
<path d="M91.8817 168.833L89.9986 169.162L89.5788 171.017L89.159 169.162L87.2759 168.833L89.1466 168.405L89.5788 166.648L90.011 168.405L91.8817 168.833Z" fill="#FEFEFE"/>
<path d="M172.064 191.352L170.181 191.681L169.761 193.542L169.335 191.681L167.452 191.352L169.329 190.924L169.761 189.167L170.187 190.924L172.064 191.352Z" fill="#FEFEFE"/>
<path d="M111.633 204.807L109.75 205.131L109.324 206.992L108.904 205.131L107.021 204.807L108.898 204.374L109.324 202.617L109.756 204.374L111.633 204.807Z" fill="#FEFEFE"/>
<path d="M38.8466 159.076L36.9574 159.405L36.5375 161.267L36.1177 159.405L34.2346 159.076L36.1115 158.648L36.5375 156.891L36.9697 158.648L38.8466 159.076Z" fill="#FEFEFE"/>
<path d="M36.5377 106.934L34.6546 107.258L34.2348 109.119L33.8149 107.258L31.9257 106.934L33.8026 106.501L34.2348 104.744L34.6608 106.501L36.5377 106.934Z" fill="#FEFEFE"/>
<path d="M138.094 173.376C137.959 173.389 137.835 173.449 137.744 173.543C137.653 173.638 137.603 173.76 137.603 173.887C137.603 174.014 137.653 174.137 137.744 174.231C137.835 174.326 137.959 174.385 138.094 174.399C138.229 174.385 138.354 174.326 138.445 174.231C138.535 174.137 138.586 174.014 138.586 173.887C138.586 173.76 138.535 173.638 138.445 173.543C138.354 173.449 138.229 173.389 138.094 173.376Z" fill="#FEFEFE"/>
<path d="M22.2943 77.075C22.1594 77.0884 22.0346 77.1481 21.9439 77.2425C21.8532 77.337 21.803 77.4595 21.803 77.5865C21.803 77.7135 21.8532 77.836 21.9439 77.9304C22.0346 78.0249 22.1594 78.0846 22.2943 78.098C22.4292 78.0846 22.554 78.0249 22.6447 77.9304C22.7354 77.836 22.7856 77.7135 22.7856 77.5865C22.7856 77.4595 22.7354 77.337 22.6447 77.2425C22.554 77.1481 22.4292 77.0884 22.2943 77.075Z" fill="#FEFEFE"/>
<path d="M172.447 174.751C172.312 174.765 172.187 174.824 172.096 174.919C172.006 175.013 171.955 175.136 171.955 175.263C171.955 175.39 172.006 175.512 172.096 175.607C172.187 175.701 172.312 175.761 172.447 175.774C172.582 175.761 172.706 175.701 172.797 175.607C172.888 175.512 172.938 175.39 172.938 175.263C172.938 175.136 172.888 175.013 172.797 174.919C172.706 174.824 172.582 174.765 172.447 174.751Z" fill="#FEFEFE"/>
<path d="M25.8563 148.782C25.7214 148.795 25.5966 148.855 25.5059 148.949C25.4152 149.044 25.365 149.166 25.365 149.293C25.365 149.42 25.4152 149.543 25.5059 149.637C25.5966 149.732 25.7214 149.791 25.8563 149.805C25.9912 149.791 26.116 149.732 26.2067 149.637C26.2975 149.543 26.3476 149.42 26.3476 149.293C26.3476 149.166 26.2975 149.044 26.2067 148.949C26.116 148.855 25.9912 148.795 25.8563 148.782Z" fill="#FEFEFE"/>
<path d="M12.7735 117.471C12.6796 117.483 12.5932 117.525 12.5306 117.592C12.468 117.658 12.4335 117.744 12.4335 117.833C12.4335 117.921 12.468 118.007 12.5306 118.073C12.5932 118.14 12.6796 118.183 12.7735 118.194C12.8675 118.183 12.9538 118.14 13.0164 118.073C13.079 118.007 13.1136 117.921 13.1136 117.833C13.1136 117.744 13.079 117.658 13.0164 117.592C12.9538 117.525 12.8675 117.483 12.7735 117.471Z" fill="#FEFEFE"/>
<path d="M99.0497 182.687C98.9557 182.698 98.8693 182.741 98.8067 182.808C98.7441 182.874 98.7096 182.96 98.7096 183.049C98.7096 183.137 98.7441 183.223 98.8067 183.289C98.8693 183.356 98.9557 183.399 99.0497 183.41C99.1436 183.399 99.23 183.356 99.2926 183.289C99.3552 183.223 99.3897 183.137 99.3897 183.049C99.3897 182.96 99.3552 182.874 99.2926 182.808C99.23 182.741 99.1436 182.698 99.0497 182.687Z" fill="#FEFEFE"/>
<path d="M60.9253 181.387C60.8314 181.398 60.745 181.441 60.6824 181.507C60.6198 181.574 60.5853 181.659 60.5853 181.748C60.5853 181.837 60.6198 181.922 60.6824 181.989C60.745 182.055 60.8314 182.098 60.9253 182.109C61.0193 182.098 61.1056 182.055 61.1682 181.989C61.2308 181.922 61.2654 181.837 61.2654 181.748C61.2654 181.659 61.2308 181.574 61.1682 181.507C61.1056 181.441 61.0193 181.398 60.9253 181.387Z" fill="#FEFEFE"/>
<path d="M126.469 178.41C126.205 178.429 125.959 178.541 125.779 178.722C125.6 178.904 125.5 179.142 125.5 179.39C125.5 179.637 125.6 179.876 125.779 180.058C125.959 180.239 126.205 180.351 126.469 180.37C126.733 180.351 126.979 180.239 127.158 180.058C127.338 179.876 127.438 179.637 127.438 179.39C127.438 179.142 127.338 178.904 127.158 178.722C126.979 178.541 126.733 178.429 126.469 178.41Z" fill="#FEFEFE"/>
<path d="M65.8769 178.063C65.6133 178.082 65.367 178.194 65.1873 178.375C65.0076 178.557 64.9078 178.795 64.9078 179.043C64.9078 179.291 65.0076 179.529 65.1873 179.711C65.367 179.892 65.6133 180.004 65.8769 180.023C66.1406 180.004 66.3869 179.892 66.5666 179.711C66.7462 179.529 66.8461 179.291 66.8461 179.043C66.8461 178.795 66.7462 178.557 66.5666 178.375C66.3869 178.194 66.1406 178.082 65.8769 178.063Z" fill="#FEFEFE"/>
<path d="M67.8589 105.669C67.7349 106.277 67.4209 106.838 66.9566 107.279C66.4924 107.721 65.8987 108.023 65.2507 108.149C64.6026 108.275 63.9293 108.218 63.3159 107.985C62.7025 107.753 62.1765 107.355 61.8044 106.843C61.4324 106.33 61.231 105.726 61.2256 105.107C61.2203 104.487 61.4113 103.88 61.7745 103.362C62.1378 102.844 62.6569 102.439 63.2662 102.197C63.8756 101.955 64.5478 101.888 65.1979 102.004C65.6297 102.081 66.041 102.237 66.4084 102.463C66.7759 102.689 67.0922 102.98 67.3393 103.32C67.5864 103.661 67.7595 104.043 67.8486 104.446C67.9378 104.849 67.9413 105.264 67.8589 105.669Z" fill="#1E1E1E"/>
<path d="M70.9973 90.1708L68.4863 89.7236L65.3435 105.191L67.8546 105.638L70.9973 90.1708Z" fill="#1E1E1E"/>
<path d="M79.4042 103.085C79.2813 103.694 78.9681 104.255 78.5044 104.698C78.0407 105.14 77.4471 105.444 76.799 105.57C76.1508 105.697 75.4771 105.64 74.8632 105.408C74.2492 105.176 73.7226 104.779 73.35 104.267C72.9773 103.754 72.7754 103.15 72.7698 102.53C72.7641 101.91 72.9551 101.303 73.3183 100.785C73.6816 100.266 74.2009 99.8606 74.8106 99.6188C75.4202 99.377 76.0928 99.3099 76.7432 99.4261C77.6139 99.5817 78.3831 100.054 78.882 100.74C79.3809 101.426 79.5687 102.269 79.4042 103.085Z" fill="#1E1E1E"/>
<path d="M82.5451 87.5888L80.0341 87.1416L76.8913 102.609L79.4023 103.056L82.5451 87.5888Z" fill="#1E1E1E"/>
<path d="M82.5469 87.6176L68.0749 91.785L68.4947 89.7215L82.9667 85.5483L82.5469 87.6176Z" fill="#1E1E1E"/>
<path d="M81.7565 91.5133L67.2845 95.6807L67.7043 93.6173L82.1763 89.4441L81.7565 91.5133Z" fill="#1E1E1E"/>
<path d="M212.073 22.7891C211.946 23.3967 211.631 23.9556 211.165 24.3954C210.7 24.8352 210.106 25.1361 209.458 25.2601C208.811 25.3841 208.138 25.3257 207.526 25.0923C206.913 24.8588 206.389 24.4607 206.018 23.9483C205.647 23.4359 205.446 22.8321 205.442 22.2132C205.437 21.5942 205.628 20.9878 205.991 20.4705C206.354 19.9532 206.873 19.5482 207.482 19.3066C208.091 19.065 208.762 18.9976 209.412 19.113C209.845 19.1892 210.258 19.345 210.627 19.5714C210.996 19.7978 211.313 20.0903 211.56 20.4321C211.808 20.7738 211.98 21.1581 212.068 21.5626C212.156 21.9672 212.158 22.384 212.073 22.7891Z" fill="#C7C7C7"/>
<path d="M215.223 7.29457L212.712 6.84741L209.569 22.3148L212.08 22.762L215.223 7.29457Z" fill="#C7C7C7"/>
<path d="M224.556 4.83559L222.045 4.38843L221.137 8.85717L223.648 9.30433L224.556 4.83559Z" fill="#C7C7C7"/>
<path d="M224.439 5.4202L212.295 8.90554L212.715 6.84208L224.859 3.35095L224.439 5.4202Z" fill="#C7C7C7"/>
<path d="M223.649 9.31582L211.504 12.807L211.924 10.7377L224.068 7.24658L223.649 9.31582Z" fill="#C7C7C7"/>
<path d="M216.568 116.327C211.734 126.321 203.96 126.101 201.824 128.511C200.629 130.073 199.53 131.698 198.533 133.378L186.951 129.91C187.178 128 187.288 126.08 187.278 124.159C187.037 121.038 180.555 116.997 182.808 106.241C184.278 99.1661 193.428 90.0568 205.652 93.6982C217.877 97.3396 219.741 109.761 216.568 116.327Z" fill="#00E340"/>
<path d="M191.799 113.185L189.339 131.461L189.952 131.534L192.411 113.257L191.799 113.185Z" fill="white"/>
<path d="M204.416 116.862L195.082 133.078L195.625 133.352L204.96 117.136L204.416 116.862Z" fill="white"/>
<path d="M197.021 120.922C196.812 120.928 196.603 120.901 196.404 120.841C195.496 120.57 194.811 119.622 194.471 118.171C194.471 118.107 194.471 118.038 194.428 117.974C194.259 118.083 194.069 118.157 193.868 118.193C193.667 118.229 193.46 118.225 193.261 118.182C191.526 117.662 191.971 114.107 191.989 113.957L192.298 113.992C192.298 114.027 191.859 117.46 193.354 117.905C193.532 117.936 193.717 117.93 193.893 117.887C194.069 117.844 194.233 117.766 194.372 117.656C194.119 116.026 194.335 114.061 195.138 113.373C195.263 113.262 195.418 113.185 195.587 113.15C195.756 113.115 195.931 113.125 196.095 113.177C196.854 113.402 197.101 114.107 196.762 115.102C196.362 116.164 195.652 117.099 194.712 117.801C194.712 117.905 194.749 118.003 194.774 118.107C194.959 118.888 195.422 120.246 196.496 120.564C197.219 120.783 198.12 120.465 199.046 119.679C199.12 119.616 199.2 119.546 199.274 119.471C198.847 118.442 198.821 117.304 199.2 116.258C199.614 115.05 200.349 114.448 201.133 114.68C201.284 114.727 201.418 114.811 201.521 114.924C201.624 115.037 201.693 115.175 201.719 115.321C201.948 116.31 200.985 118.211 199.639 119.535C199.856 119.911 200.218 120.196 200.651 120.333C201.713 120.65 203.46 118.558 204.047 117.726L204.3 117.882C204.214 118.015 202.059 121.061 200.559 120.61C200.081 120.459 199.677 120.151 199.423 119.743L199.25 119.893C198.659 120.47 197.87 120.834 197.021 120.922ZM200.849 114.922C200.231 114.922 199.775 115.657 199.54 116.344C199.215 117.284 199.215 118.295 199.54 119.234C200.775 117.986 201.664 116.229 201.46 115.356C201.446 115.259 201.402 115.167 201.335 115.093C201.267 115.018 201.177 114.963 201.077 114.934C200.996 114.917 200.913 114.913 200.83 114.922H200.849ZM195.829 113.42C195.748 113.419 195.668 113.434 195.592 113.463C195.517 113.491 195.449 113.534 195.391 113.587C194.774 114.131 194.471 115.841 194.7 117.466C195.521 116.811 196.145 115.966 196.509 115.015C196.675 114.529 196.83 113.686 196.039 113.449C195.957 113.427 195.872 113.418 195.786 113.42H195.829Z" fill="white"/>
<path d="M200.033 133.333L185.741 129.061L184.849 131.676L199.141 135.949L200.033 133.333Z" fill="#A6A6A6"/>
<path d="M198.991 136.368L184.699 132.095L183.807 134.711L198.099 138.983L198.991 136.368Z" fill="#A6A6A6"/>
<path d="M197.954 139.408L183.662 135.135L182.77 137.751L197.062 142.023L197.954 139.408Z" fill="#A6A6A6"/>
<path d="M208.194 84.8145L206.717 89.1543L207.306 89.3297L208.782 84.99L208.194 84.8145Z" fill="#DBDBDB"/>
<path d="M194.614 84.2225L194.01 84.3456L195.046 88.7959L195.649 88.6728L194.614 84.2225Z" fill="#DBDBDB"/>
<path d="M181.912 90.1433L181.455 90.5323L184.73 93.9011L185.186 93.5121L181.912 90.1433Z" fill="#DBDBDB"/>
<path d="M174.096 101.272L173.908 101.823L178.543 103.208L178.731 102.658L174.096 101.272Z" fill="#DBDBDB"/>
<path d="M177.99 113.572L173.236 114.542L173.368 115.107L178.122 114.137L177.99 113.572Z" fill="#DBDBDB"/>
<path d="M215.524 124.853L215.067 125.242L218.341 128.611L218.798 128.222L215.524 124.853Z" fill="#DBDBDB"/>
<path d="M221.731 115.58L221.543 116.131L226.178 117.516L226.366 116.966L221.731 115.58Z" fill="#DBDBDB"/>
<path d="M226.887 103.641L222.133 104.611L222.264 105.176L227.018 104.206L226.887 103.641Z" fill="#DBDBDB"/>
<path d="M220.233 91.8953L216.638 94.9636L217.054 95.3908L220.649 92.3225L220.233 91.8953Z" fill="#DBDBDB"/>
</svg>
