<svg width="250" height="176" viewBox="0 0 250 176" fill="none" xmlns="http://www.w3.org/2000/svg">
<path d="M0 175.715L31.2528 175.578L62.5 175.527L125 175.43L187.5 175.527L218.753 175.578L250 175.715L218.753 175.857L187.5 175.903L125 176L62.5 175.903L31.2528 175.857L0 175.715Z" fill="#263238"/>
<path d="M98.2096 169.699H27.0587V175.709H98.2096V169.699Z" fill="#1E1E1E"/>
<path d="M233.681 169.699H98.2037V175.709H233.681V169.699Z" fill="#181818"/>
<path d="M162.547 169.699H27.0586L8.58948 81.0649H144.078L162.547 169.699Z" fill="#263238"/>
<path d="M69.8497 164.098H31.3757L15.2411 86.6597H53.7151L69.8497 164.098Z" fill="white"/>
<path d="M30.5715 115.722C30.3026 115.918 29.9992 116.059 29.6779 116.138C28.7686 116.352 27.8136 116.203 27.0083 115.722C26.1522 115.246 25.4674 114.503 25.0537 113.602C24.2271 111.745 24.9475 109.876 26.6733 109.426C28.399 108.976 30.4654 110.11 31.2975 111.962C31.9677 113.477 31.627 114.981 30.5715 115.722Z" fill="#C7C7C7"/>
<path d="M29.1249 112.412C29.1574 112.536 29.1608 112.666 29.1348 112.792C29.1089 112.918 29.0543 113.036 28.9755 113.136C28.8967 113.236 28.7959 113.316 28.6811 113.37C28.5664 113.423 28.441 113.448 28.3151 113.443C28.0228 113.432 27.742 113.324 27.516 113.134C27.29 112.945 27.1312 112.685 27.0641 112.395C27.0286 112.269 27.0229 112.136 27.0474 112.008C27.0719 111.88 27.1259 111.759 27.2049 111.656C27.284 111.554 27.3858 111.471 27.5021 111.416C27.6184 111.361 27.7458 111.335 27.8739 111.341C28.1687 111.354 28.4508 111.467 28.6768 111.66C28.9029 111.854 29.0603 112.118 29.1249 112.412Z" fill="white"/>
<path d="M30.4824 115.312L30.5717 115.745C30.3029 115.941 29.9994 116.082 29.6781 116.161C28.7689 116.374 27.8139 116.226 27.0086 115.745L26.9192 115.312C26.8579 115.095 26.8481 114.866 26.8906 114.644C26.933 114.422 27.0266 114.214 27.1636 114.036C27.3005 113.859 27.4769 113.717 27.6782 113.623C27.8794 113.529 28.0998 113.485 28.321 113.494C28.8258 113.517 29.3096 113.707 29.6995 114.034C30.0893 114.362 30.3641 114.811 30.4824 115.312Z" fill="white"/>
<path d="M48.9732 110.702H33.5423L33.2574 109.346H48.6884L48.9732 110.702Z" fill="#C7C7C7"/>
<path d="M55.145 113.192H34.0622L33.8947 112.412H54.983L55.145 113.192Z" fill="#C7C7C7"/>
<path d="M55.4966 114.879H34.4082L34.2462 114.098H55.329L55.4966 114.879Z" fill="#C7C7C7"/>
<path d="M32.8503 126.547C32.5828 126.742 32.2815 126.883 31.9623 126.963C31.0512 127.177 30.0944 127.028 29.2872 126.547C28.4314 126.072 27.7481 125.329 27.338 124.427C26.5059 122.57 27.2264 120.701 28.9521 120.251C30.6778 119.801 32.7442 120.935 33.5763 122.787C34.2186 124.268 33.8779 125.789 32.8503 126.547Z" fill="#00E340"/>
<path d="M31.3759 123.22C31.4115 123.345 31.4174 123.477 31.3929 123.605C31.3685 123.733 31.3144 123.854 31.2352 123.956C31.156 124.059 31.054 124.14 30.9376 124.195C30.8212 124.249 30.6939 124.274 30.5661 124.268C30.274 124.256 29.9937 124.147 29.7679 123.958C29.542 123.769 29.383 123.51 29.315 123.22C29.2796 123.094 29.2739 122.962 29.2984 122.833C29.3229 122.705 29.3768 122.584 29.4559 122.481C29.5349 122.379 29.6368 122.296 29.7531 122.241C29.8694 122.186 29.9968 122.16 30.1249 122.166C30.4174 122.179 30.6978 122.288 30.9235 122.479C31.1493 122.669 31.3081 122.929 31.3759 123.22Z" fill="white"/>
<path d="M32.7329 126.12L32.8502 126.547C32.5827 126.742 32.2813 126.883 31.9622 126.963C31.0511 127.177 30.0942 127.028 29.287 126.547L29.1977 126.114C29.1363 125.897 29.1265 125.668 29.169 125.446C29.2115 125.224 29.3051 125.016 29.442 124.839C29.579 124.661 29.7553 124.519 29.9566 124.425C30.1579 124.331 30.3782 124.287 30.5995 124.296C31.1001 124.325 31.5781 124.519 31.9625 124.847C32.3469 125.176 32.6171 125.622 32.7329 126.12Z" fill="white"/>
<path d="M51.2242 121.516H35.7932L35.5084 120.154H50.9449L51.2242 121.516Z" fill="#C7C7C7"/>
<path d="M57.3953 124H36.3125L36.1505 123.22H57.2333L57.3953 124Z" fill="#C7C7C7"/>
<path d="M57.7475 125.687H36.6647L36.4972 124.906H57.5856L57.7475 125.687Z" fill="#C7C7C7"/>
<path d="M35.084 137.372C34.8166 137.567 34.5152 137.708 34.196 137.788C33.2814 138.005 32.32 137.856 31.5097 137.372C30.654 136.897 29.9706 136.154 29.5606 135.252C28.7285 133.401 29.4545 131.526 31.1746 131.076C32.8948 130.626 34.9723 131.76 35.8045 133.612C36.4691 135.093 36.1284 136.597 35.084 137.372Z" fill="#1E1E1E"/>
<path d="M33.6263 134.027C33.6653 134.154 33.6736 134.288 33.6507 134.418C33.6278 134.549 33.5742 134.672 33.4947 134.776C33.4151 134.881 33.3118 134.965 33.1937 135.02C33.0756 135.075 32.9462 135.1 32.8165 135.093C32.5244 135.081 32.2442 134.972 32.0183 134.783C31.7925 134.594 31.6335 134.335 31.5655 134.045C31.5299 133.918 31.5242 133.786 31.549 133.657C31.5737 133.528 31.6282 133.407 31.7079 133.304C31.7876 133.201 31.8902 133.119 32.0073 133.064C32.1243 133.01 32.2524 132.985 32.3809 132.991C32.6705 133.003 32.9483 133.11 33.1729 133.297C33.3974 133.484 33.5565 133.741 33.6263 134.027Z" fill="white"/>
<path d="M34.9832 136.927L35.0838 137.372C34.8163 137.567 34.515 137.708 34.1958 137.788C33.2812 138.005 32.3197 137.856 31.5095 137.372L31.4201 136.939C31.3537 136.718 31.3409 136.483 31.3828 136.256C31.4246 136.029 31.52 135.815 31.6605 135.633C31.8011 135.452 31.9828 135.308 32.1899 135.214C32.3971 135.12 32.6235 135.078 32.8498 135.093C33.3522 135.122 33.8318 135.316 34.2166 135.647C34.6013 135.978 34.8703 136.427 34.9832 136.927Z" fill="white"/>
<path d="M53.4806 132.324H38.0441L37.7649 130.962H53.1958L53.4806 132.324Z" fill="#C7C7C7"/>
<path d="M59.6462 134.808H38.5635L38.4015 134.028H59.4843L59.6462 134.808Z" fill="#C7C7C7"/>
<path d="M59.9978 136.495H38.915L38.7531 135.714H59.8358L59.9978 136.495Z" fill="#C7C7C7"/>
<path d="M37.3178 148.197C37.05 148.392 36.7489 148.535 36.4298 148.618C35.5179 148.827 34.5623 148.677 33.7547 148.197C32.9014 147.719 32.2189 146.977 31.8056 146.077C30.979 144.209 31.733 142.323 33.4084 141.873C35.0839 141.423 37.2005 142.556 38.0327 144.408C38.7196 145.918 38.3845 147.405 37.3178 148.197Z" fill="#263238"/>
<path d="M35.8825 144.835C35.9217 144.962 35.9308 145.096 35.9089 145.227C35.8869 145.357 35.8348 145.481 35.7566 145.587C35.6785 145.693 35.5767 145.778 35.4596 145.836C35.3426 145.893 35.2138 145.921 35.0839 145.918C34.7914 145.905 34.511 145.795 34.2852 145.605C34.0594 145.415 33.9006 145.155 33.8329 144.864C33.7985 144.738 33.7938 144.605 33.8191 144.477C33.8444 144.349 33.899 144.229 33.9784 144.126C34.0579 144.023 34.1599 143.941 34.2763 143.886C34.3927 143.831 34.5201 143.805 34.6483 143.81C34.9342 143.825 35.208 143.932 35.4299 144.117C35.6519 144.301 35.8104 144.553 35.8825 144.835Z" fill="white"/>
<path d="M37.2341 147.735L37.3179 148.197C37.0501 148.392 36.749 148.535 36.4299 148.618C35.518 148.827 34.5623 148.677 33.7547 148.197L33.6654 147.764C33.5994 147.544 33.5865 147.31 33.6278 147.084C33.6691 146.858 33.7634 146.645 33.9027 146.463C34.042 146.282 34.2221 146.138 34.4278 146.043C34.6334 145.948 34.8585 145.905 35.0839 145.918C35.5873 145.941 36.0694 146.131 36.4574 146.459C36.8454 146.787 37.1181 147.235 37.2341 147.735Z" fill="white"/>
<path d="M55.731 143.132H40.2945L40.0153 141.77H55.4462L55.731 143.132Z" fill="#C7C7C7"/>
<path d="M61.8966 145.616H40.8138L40.6519 144.835H61.7346L61.8966 145.616Z" fill="#C7C7C7"/>
<path d="M62.2488 147.302H41.166L41.004 146.522H62.0868L62.2488 147.302Z" fill="#C7C7C7"/>
<path d="M39.5797 158.976C39.3099 159.172 39.0069 159.315 38.6861 159.398C37.776 159.607 36.822 159.456 36.0165 158.976C35.1604 158.5 34.4756 157.757 34.0618 156.857C33.2353 155.005 33.9557 153.131 35.6814 152.681C37.4072 152.23 39.4735 153.364 40.3057 155.222C40.9759 156.743 40.6352 158.213 39.5797 158.976Z" fill="#C7C7C7"/>
<path d="M38.1331 155.643C38.1687 155.769 38.1743 155.902 38.1496 156.031C38.1248 156.16 38.0703 156.281 37.9906 156.384C37.9109 156.487 37.8083 156.569 37.6913 156.624C37.5743 156.678 37.4462 156.703 37.3177 156.697C37.0259 156.684 36.7463 156.574 36.5214 156.384C36.2966 156.193 36.1389 155.933 36.0722 155.643C36.0368 155.518 36.0311 155.385 36.0556 155.257C36.0801 155.129 36.134 155.008 36.2131 154.905C36.2921 154.802 36.394 154.72 36.5103 154.665C36.6266 154.61 36.754 154.584 36.8821 154.589C37.1746 154.602 37.455 154.712 37.6807 154.902C37.9065 155.093 38.0653 155.353 38.1331 155.643Z" fill="white"/>
<path d="M39.4901 158.543L39.5795 158.976C39.3097 159.172 39.0067 159.315 38.6859 159.398C37.7758 159.607 36.8218 159.456 36.0163 158.976L35.9214 158.543C35.8647 158.328 35.8581 158.102 35.9023 157.883C35.9465 157.665 36.0402 157.46 36.1759 157.285C36.3115 157.11 36.4854 156.97 36.6837 156.876C36.882 156.782 37.099 156.736 37.3176 156.743C37.8218 156.763 38.306 156.949 38.6977 157.274C39.0894 157.599 39.3674 158.044 39.4901 158.543Z" fill="white"/>
<path d="M57.982 153.94H42.5511L42.2662 152.578H57.7027L57.982 153.94Z" fill="#C7C7C7"/>
<path d="M64.1532 156.424H43.0704L42.9028 155.643H63.9856L64.1532 156.424Z" fill="#C7C7C7"/>
<path d="M64.5047 158.11H43.4164L43.2544 157.33H64.3372L64.5047 158.11Z" fill="#C7C7C7"/>
<path d="M24.7801 97.308C24.6114 97.4298 24.422 97.5186 24.2216 97.5701C23.6508 97.7046 23.0512 97.6108 22.5461 97.308C22.0147 97.0127 21.59 96.5515 21.3342 95.9919C20.8148 94.8524 21.2672 93.6731 22.3395 93.3882C22.9242 93.2864 23.5255 93.387 24.0477 93.674C24.5699 93.961 24.983 94.4179 25.2213 94.9721C25.4295 95.352 25.4995 95.7948 25.4187 96.2222C25.338 96.6496 25.1118 97.0342 24.7801 97.308Z" fill="#C7C7C7"/>
<path d="M23.8751 95.2114C23.8973 95.2894 23.901 95.3717 23.8859 95.4515C23.8708 95.5313 23.8373 95.6063 23.7882 95.6702C23.7391 95.7342 23.6758 95.7854 23.6035 95.8195C23.5313 95.8537 23.4521 95.8698 23.3725 95.8666C23.1907 95.859 23.0163 95.7908 22.8761 95.6724C22.7359 95.5541 22.6376 95.3922 22.5962 95.2114C22.574 95.1333 22.5703 95.051 22.5854 94.9713C22.6005 94.8915 22.634 94.8165 22.6831 94.7525C22.7322 94.6885 22.7955 94.6374 22.8678 94.6032C22.94 94.5691 23.0192 94.553 23.0988 94.5562C23.2804 94.5647 23.4543 94.6332 23.5943 94.7514C23.7343 94.8696 23.8329 95.031 23.8751 95.2114Z" fill="white"/>
<path d="M24.7187 97.0402L24.7802 97.308C24.6114 97.4297 24.4221 97.5186 24.2217 97.5701C23.6509 97.7046 23.0513 97.6108 22.5462 97.308L22.4904 97.0402C22.4523 96.9043 22.4464 96.7611 22.4731 96.6224C22.4997 96.4837 22.5582 96.3534 22.6438 96.2423C22.7293 96.1311 22.8395 96.0422 22.9653 95.9828C23.091 95.9234 23.2287 95.8953 23.3672 95.9007C23.6837 95.9135 23.9873 96.0319 24.2315 96.2378C24.4757 96.4436 24.6468 96.7255 24.7187 97.0402Z" fill="white"/>
<path d="M51.1962 95.9521C51.1897 95.9307 51.1884 95.908 51.1926 95.886C51.1967 95.864 51.2061 95.8433 51.2199 95.8259C51.2337 95.8084 51.2515 95.7947 51.2717 95.7859C51.2919 95.7771 51.3139 95.7735 51.3358 95.7755C51.3858 95.7773 51.4339 95.7955 51.4731 95.8273C51.5123 95.8591 51.5405 95.9028 51.5536 95.9521C51.5587 95.9742 51.5588 95.9972 51.5539 96.0193C51.5489 96.0415 51.5391 96.0621 51.525 96.0797C51.511 96.0974 51.4932 96.1115 51.4729 96.1209C51.4527 96.1304 51.4306 96.135 51.4084 96.1344C51.3581 96.1329 51.3097 96.114 51.2712 96.0809C51.2326 96.0478 51.2062 96.0024 51.1962 95.9521Z" fill="#C7C7C7"/>
<path d="M51.0457 95.2114C51.0394 95.1897 51.0384 95.1668 51.0425 95.1446C51.0467 95.1224 51.056 95.1015 51.0696 95.0837C51.0833 95.0659 51.1009 95.0516 51.121 95.0421C51.1411 95.0326 51.1631 95.0281 51.1853 95.029C51.2363 95.0303 51.2855 95.049 51.3249 95.082C51.3644 95.115 51.3919 95.1606 51.4031 95.2114C51.4093 95.2331 51.4104 95.256 51.4062 95.2782C51.402 95.3004 51.3927 95.3212 51.3791 95.3391C51.3655 95.3569 51.3479 95.3711 51.3278 95.3806C51.3076 95.3901 51.2856 95.3946 51.2635 95.3937C51.2124 95.3924 51.1633 95.3738 51.1238 95.3407C51.0844 95.3077 51.0568 95.2622 51.0457 95.2114Z" fill="#C7C7C7"/>
<path d="M50.8943 94.5164C50.8881 94.4947 50.887 94.4718 50.8912 94.4496C50.8953 94.4274 50.9046 94.4065 50.9183 94.3887C50.9319 94.3709 50.9495 94.3566 50.9696 94.3471C50.9897 94.3376 51.0118 94.3331 51.0339 94.334C51.0849 94.3353 51.1341 94.3539 51.1736 94.387C51.213 94.42 51.2405 94.4655 51.2517 94.5164C51.2579 94.5381 51.259 94.561 51.2548 94.5832C51.2507 94.6054 51.2414 94.6262 51.2277 94.644C51.2141 94.6619 51.1965 94.6761 51.1764 94.6856C51.1563 94.6951 51.1342 94.6996 51.1121 94.6987C51.0616 94.6956 51.0133 94.6763 50.9742 94.6435C50.9351 94.6108 50.9071 94.5663 50.8943 94.5164Z" fill="#C7C7C7"/>
<path d="M48.5995 95.6957H46.5611L46.2762 94.334H48.3147L48.5995 95.6957Z" fill="#C7C7C7"/>
<path d="M46.5607 95.6957L46.65 96.1344L47.0019 95.6957H46.5607Z" fill="#C7C7C7"/>
<path d="M48.0015 94.6987H46.7394L46.7114 94.5676H47.9736L48.0015 94.6987Z" fill="white"/>
<path d="M48.0577 94.9664H46.7955L46.7676 94.8411H48.0353L48.0577 94.9664Z" fill="white"/>
<path d="M48.1131 95.2342H46.851L46.8286 95.1088H48.0908L48.1131 95.2342Z" fill="white"/>
<path d="M140.632 90.8472H16.1123L15.2411 86.6597H139.761L140.632 90.8472Z" fill="#181818"/>
<path d="M18.9383 88.7505C18.9739 88.8746 18.98 89.0056 18.9561 89.1325C18.9322 89.2595 18.8791 89.3789 18.801 89.4807C18.723 89.5826 18.6223 89.6641 18.5073 89.7184C18.3923 89.7727 18.2663 89.7983 18.1397 89.7931C17.8505 89.7809 17.5732 89.6723 17.3503 89.484C17.1274 89.2957 16.9711 89.0381 16.9054 88.7505C16.871 88.6268 16.8657 88.4965 16.8901 88.3703C16.9144 88.2441 16.9677 88.1255 17.0457 88.0244C17.1236 87.9232 17.2238 87.8423 17.3383 87.7883C17.4527 87.7343 17.5781 87.7087 17.7041 87.7136C17.9925 87.7255 18.2692 87.8333 18.492 88.0205C18.7148 88.2077 18.8716 88.464 18.9383 88.7505Z" fill="#C7C7C7"/>
<path d="M23.0986 88.7506C23.1331 88.8751 23.1382 89.0061 23.1135 89.133C23.0888 89.2599 23.0351 89.379 22.9566 89.4807C22.8782 89.5824 22.7774 89.6637 22.6623 89.718C22.5472 89.7723 22.4211 89.7981 22.2944 89.7932C22.0058 89.7791 21.7294 89.6699 21.5069 89.4819C21.2843 89.2939 21.1275 89.0372 21.0602 88.7506C21.0255 88.6264 21.0203 88.4955 21.045 88.3689C21.0696 88.2422 21.1234 88.1233 21.202 88.022C21.2805 87.9208 21.3816 87.84 21.4967 87.7864C21.6119 87.7327 21.7379 87.7078 21.8644 87.7137C22.1528 87.7256 22.4295 87.8333 22.6523 88.0205C22.8752 88.2077 23.0319 88.4641 23.0986 88.7506Z" fill="white"/>
<path d="M27.2653 88.7505C27.3009 88.8746 27.307 89.0056 27.2831 89.1325C27.2593 89.2595 27.2061 89.3789 27.1281 89.4807C27.05 89.5826 26.9494 89.6641 26.8344 89.7184C26.7194 89.7727 26.5933 89.7983 26.4667 89.7931C26.1775 89.7809 25.9003 89.6723 25.6774 89.484C25.4544 89.2957 25.2982 89.0381 25.2325 88.7505C25.198 88.6268 25.1927 88.4965 25.2171 88.3703C25.2415 88.2441 25.2948 88.1255 25.3727 88.0244C25.4506 87.9232 25.5509 87.8423 25.6653 87.7883C25.7797 87.7343 25.9051 87.7087 26.0311 87.7136C26.3195 87.7255 26.5962 87.8333 26.819 88.0205C27.0419 88.2077 27.1986 88.464 27.2653 88.7505Z" fill="#00E340"/>
<path d="M140.632 90.8472H54.5862L69.8496 164.098H155.895L140.632 90.8472Z" fill="#EBEBEB"/>
<path d="M148.462 160.566H77.0093L76.1157 156.298H147.574L148.462 160.566Z" fill="white"/>
<path d="M147.032 158.486C147.068 158.612 147.073 158.744 147.049 158.872C147.024 159.001 146.97 159.121 146.891 159.224C146.812 159.327 146.711 159.409 146.594 159.464C146.478 159.519 146.351 159.545 146.222 159.54C145.93 159.526 145.65 159.416 145.425 159.226C145.199 159.036 145.04 158.776 144.971 158.486C144.937 158.36 144.932 158.228 144.957 158.1C144.983 157.972 145.037 157.852 145.117 157.75C145.196 157.647 145.299 157.566 145.415 157.512C145.532 157.457 145.659 157.432 145.787 157.438C146.078 157.451 146.357 157.56 146.582 157.749C146.806 157.938 146.965 158.197 147.032 158.486Z" fill="#00E340"/>
<path d="M145.686 157.882L146.452 158.486L145.943 159.096L145.781 158.953L146.167 158.486L145.586 158.025L145.686 157.882Z" fill="white"/>
<path d="M78.0033 159.705H77.7297L77.1991 157.159H77.4727L78.0033 159.705Z" fill="#263238"/>
<path d="M151.249 160.6C151.224 160.6 151.201 160.591 151.182 160.576C151.162 160.56 151.149 160.539 151.143 160.515L150.93 159.489C150.927 159.478 150.926 159.467 150.927 159.456C150.929 159.445 150.933 159.434 150.94 159.425C150.947 159.416 150.955 159.409 150.965 159.404C150.975 159.399 150.986 159.397 150.997 159.398C151.022 159.4 151.046 159.409 151.065 159.426C151.084 159.442 151.098 159.464 151.104 159.489L151.316 160.515C151.318 160.525 151.319 160.536 151.316 160.546C151.314 160.556 151.31 160.566 151.303 160.574C151.297 160.583 151.288 160.589 151.279 160.594C151.269 160.598 151.259 160.6 151.249 160.6Z" fill="#A6A6A6"/>
<path d="M151.807 160.6H150.69C150.666 160.6 150.642 160.591 150.623 160.575C150.604 160.56 150.59 160.539 150.584 160.514C150.582 160.504 150.582 160.493 150.584 160.482C150.586 160.472 150.59 160.462 150.597 160.453C150.603 160.444 150.611 160.437 150.621 160.432C150.63 160.427 150.641 160.424 150.651 160.423H151.768C151.793 160.424 151.818 160.434 151.837 160.45C151.856 160.467 151.869 160.489 151.874 160.514C151.877 160.525 151.877 160.536 151.875 160.546C151.873 160.556 151.868 160.566 151.862 160.574C151.855 160.583 151.847 160.589 151.838 160.594C151.828 160.598 151.818 160.6 151.807 160.6Z" fill="#A6A6A6"/>
<path d="M151.249 157.022L151.556 158.509C151.58 158.595 151.583 158.686 151.566 158.774C151.549 158.863 151.512 158.945 151.457 159.016C151.403 159.086 151.333 159.143 151.253 159.18C151.173 159.218 151.086 159.236 150.998 159.233C150.856 159.227 150.717 159.188 150.593 159.117C150.469 159.047 150.362 158.948 150.283 158.828C150.215 158.733 150.168 158.624 150.143 158.509L149.83 157.022C149.807 156.936 149.803 156.845 149.82 156.757C149.837 156.669 149.875 156.586 149.929 156.515C149.984 156.445 150.054 156.388 150.134 156.351C150.213 156.313 150.301 156.295 150.389 156.298C150.594 156.298 150.792 156.373 150.947 156.509C151.098 156.63 151.206 156.798 151.255 156.988C151.255 156.988 151.249 157.011 151.249 157.022Z" fill="#A6A6A6"/>
<path d="M151.048 159.591C150.766 159.586 150.494 159.484 150.277 159.301C150.038 159.112 149.87 158.844 149.802 158.543L149.674 157.916C149.67 157.906 149.669 157.894 149.671 157.883C149.672 157.872 149.677 157.862 149.683 157.853C149.69 157.844 149.699 157.836 149.709 157.832C149.719 157.827 149.73 157.825 149.741 157.825C149.765 157.826 149.789 157.836 149.807 157.853C149.825 157.869 149.837 157.892 149.841 157.916L149.975 158.543C150.034 158.794 150.173 159.017 150.372 159.176C150.563 159.337 150.805 159.422 151.053 159.415C151.157 159.41 151.259 159.381 151.35 159.33C151.442 159.278 151.52 159.207 151.581 159.12C151.641 159.033 151.681 158.934 151.698 158.829C151.715 158.724 151.708 158.617 151.679 158.515L151.556 157.916C151.552 157.906 151.551 157.894 151.553 157.883C151.554 157.872 151.559 157.862 151.565 157.853C151.572 157.844 151.581 157.836 151.591 157.832C151.601 157.827 151.612 157.825 151.623 157.825C151.647 157.826 151.671 157.836 151.689 157.853C151.707 157.869 151.719 157.892 151.723 157.916L151.852 158.515C151.888 158.637 151.896 158.767 151.875 158.893C151.854 159.02 151.805 159.14 151.732 159.244C151.658 159.348 151.562 159.433 151.452 159.493C151.341 159.554 151.218 159.587 151.092 159.591H151.048Z" fill="#A6A6A6"/>
<path d="M75.0436 158.452C75.1098 158.706 75.1175 158.973 75.0661 159.231C75.0147 159.489 74.9055 159.732 74.7471 159.94C74.5887 160.148 74.3854 160.315 74.153 160.43C73.9205 160.544 73.6653 160.603 73.4072 160.6C72.8152 160.574 72.2474 160.353 71.7892 159.97C71.331 159.586 71.007 159.062 70.8661 158.475C70.7998 158.22 70.7921 157.954 70.8435 157.696C70.8949 157.438 71.0041 157.195 71.1625 156.987C71.3209 156.779 71.5242 156.611 71.7567 156.497C71.9891 156.382 72.2443 156.324 72.5024 156.327C73.095 156.351 73.6636 156.571 74.1222 156.955C74.5808 157.338 74.9043 157.864 75.0436 158.452Z" fill="white"/>
<path d="M72.1615 158.013C72.1723 158.049 72.1745 158.087 72.1679 158.124C72.1613 158.161 72.1462 158.195 72.1237 158.225C72.1013 158.254 72.0722 158.278 72.0389 158.294C72.0057 158.31 71.9692 158.317 71.9325 158.315C71.8486 158.313 71.7678 158.283 71.7023 158.229C71.6368 158.176 71.5902 158.102 71.5695 158.019C71.5599 157.983 71.5587 157.945 71.5661 157.908C71.5734 157.871 71.5892 157.837 71.612 157.808C71.6348 157.778 71.6641 157.755 71.6975 157.739C71.7308 157.723 71.7673 157.716 71.8041 157.717C71.8872 157.72 71.9673 157.75 72.0318 157.804C72.0964 157.857 72.142 157.931 72.1615 158.013Z" fill="#A6A6A6"/>
<path d="M74.178 158.008C74.1888 158.044 74.191 158.081 74.1844 158.118C74.1779 158.155 74.1627 158.19 74.1403 158.219C74.1178 158.249 74.0888 158.273 74.0555 158.288C74.0222 158.304 73.9857 158.311 73.9491 158.31C73.8654 158.306 73.7853 158.274 73.7208 158.22C73.6563 158.165 73.611 158.091 73.5916 158.008C73.5809 157.972 73.5787 157.934 73.5853 157.897C73.5918 157.86 73.607 157.826 73.6294 157.796C73.6518 157.767 73.6809 157.743 73.7142 157.727C73.7475 157.711 73.784 157.704 73.8206 157.706C73.9043 157.71 73.9844 157.741 74.0489 157.796C74.1134 157.85 74.1587 157.925 74.178 158.008Z" fill="#A6A6A6"/>
<path d="M73.2897 157.916C73.3124 158.013 73.2985 158.115 73.2506 158.201C73.2189 158.255 73.1737 158.299 73.1198 158.329C73.0658 158.359 73.0049 158.374 72.9435 158.372C72.7989 158.37 72.6608 158.311 72.5581 158.207C72.4799 158.13 72.4255 158.031 72.4017 157.922L73.2897 157.916Z" fill="#A6A6A6"/>
<path d="M73.2505 158.201C73.2188 158.255 73.1736 158.299 73.1196 158.329C73.0657 158.359 73.0048 158.374 72.9433 158.372C72.7988 158.37 72.6606 158.311 72.558 158.207C72.5994 158.164 72.649 158.13 72.7038 158.108C72.7585 158.085 72.8173 158.074 72.8763 158.076C73.0109 158.076 73.1419 158.12 73.2505 158.201Z" fill="#DBDBDB"/>
<path d="M25.2155 104.635L24.953 104.88L24.2158 104.099L23.9478 103.814C23.9874 103.799 24.0235 103.776 24.0539 103.746C24.1138 103.69 24.1548 103.616 24.1711 103.535L24.456 103.837L25.2155 104.635Z" fill="#A6A6A6"/>
<path d="M24.2211 102.812C24.0764 102.63 23.8691 102.512 23.6418 102.481C23.4144 102.451 23.1841 102.51 22.9981 102.646C22.9245 102.732 22.8686 102.832 22.8335 102.94C22.7984 103.049 22.7849 103.163 22.7938 103.276C22.8026 103.39 22.8336 103.501 22.885 103.602C22.9364 103.703 23.0071 103.793 23.093 103.866C23.2282 104.024 23.4108 104.133 23.6127 104.175C23.8146 104.218 24.0245 104.191 24.21 104.099C24.2466 104.079 24.2804 104.054 24.3105 104.025C24.3682 103.972 24.4155 103.908 24.4501 103.837C24.5188 103.663 24.5337 103.471 24.4928 103.288C24.4519 103.105 24.3571 102.938 24.2211 102.812ZM24.0536 103.746C24.0232 103.776 23.9871 103.799 23.9475 103.814C23.8393 103.856 23.721 103.863 23.6089 103.833C23.4969 103.804 23.3966 103.739 23.322 103.649C23.2706 103.606 23.2282 103.553 23.1973 103.493C23.1663 103.434 23.1474 103.368 23.1417 103.301C23.136 103.233 23.1435 103.165 23.1639 103.101C23.1843 103.036 23.2172 102.977 23.2605 102.926C23.3737 102.847 23.5113 102.813 23.6472 102.831C23.7832 102.849 23.9079 102.917 23.9977 103.022C24.0638 103.088 24.1138 103.169 24.1439 103.258C24.174 103.347 24.1832 103.442 24.1709 103.535C24.1568 103.62 24.1156 103.698 24.0536 103.757V103.746Z" fill="#A6A6A6"/>
<path d="M28.5611 104.054C28.5653 104.049 28.5705 104.045 28.5762 104.042C28.582 104.04 28.5883 104.038 28.5946 104.038C28.6009 104.038 28.6072 104.04 28.613 104.042C28.6188 104.045 28.6239 104.049 28.6281 104.054C28.7896 104.177 28.9847 104.247 29.1866 104.253C29.2996 104.259 29.4109 104.223 29.4994 104.151C29.5335 104.125 29.5597 104.09 29.5745 104.049C29.5894 104.009 29.5924 103.965 29.5831 103.923C29.5729 103.877 29.5524 103.834 29.5234 103.797C29.4943 103.761 29.4575 103.732 29.4156 103.712C29.2974 103.646 29.1689 103.602 29.0358 103.581C28.9 103.564 28.7689 103.52 28.6505 103.45C28.5984 103.423 28.5525 103.386 28.5159 103.339C28.4793 103.293 28.4528 103.24 28.4382 103.182C28.4266 103.129 28.4299 103.073 28.4476 103.022C28.4654 102.971 28.497 102.925 28.5388 102.891C28.6347 102.812 28.756 102.771 28.8794 102.778C29.0607 102.792 29.2356 102.852 29.3877 102.954C29.3954 102.965 29.3995 102.978 29.3995 102.991C29.3995 103.004 29.3954 103.017 29.3877 103.028C29.384 103.033 29.3793 103.037 29.374 103.039C29.3687 103.042 29.3629 103.043 29.3569 103.043C29.351 103.043 29.3452 103.042 29.3399 103.039C29.3346 103.037 29.3299 103.033 29.3262 103.028C29.1919 102.934 29.0361 102.877 28.8739 102.863C28.7699 102.86 28.6678 102.892 28.5834 102.954C28.5522 102.979 28.5284 103.013 28.5146 103.051C28.5009 103.089 28.4976 103.131 28.5053 103.171C28.5175 103.211 28.5377 103.249 28.5646 103.281C28.5914 103.313 28.6245 103.34 28.6616 103.359C28.7698 103.418 28.8868 103.458 29.0079 103.478C29.155 103.499 29.297 103.547 29.4268 103.621C29.4828 103.65 29.5322 103.691 29.5717 103.741C29.6112 103.791 29.6398 103.849 29.6557 103.911C29.6666 103.969 29.662 104.029 29.6423 104.084C29.6226 104.139 29.5887 104.188 29.544 104.225C29.4405 104.307 29.312 104.349 29.181 104.344C28.9615 104.331 28.7503 104.254 28.5723 104.122C28.5633 104.114 28.5573 104.102 28.5553 104.09C28.5533 104.077 28.5553 104.065 28.5611 104.054Z" fill="#A6A6A6"/>
<path d="M29.9291 103.797C29.9106 103.733 29.9071 103.666 29.9191 103.601C29.931 103.535 29.9579 103.473 29.9977 103.421C30.0375 103.368 30.0889 103.325 30.1479 103.297C30.2068 103.268 30.2716 103.254 30.3368 103.256C30.4784 103.264 30.614 103.317 30.7242 103.408C30.8345 103.499 30.9139 103.624 30.9512 103.763C30.952 103.77 30.9514 103.776 30.9495 103.782C30.9476 103.788 30.9445 103.794 30.9402 103.799C30.936 103.804 30.9308 103.808 30.925 103.81C30.9192 103.813 30.9129 103.814 30.9065 103.814H30.0576C30.0884 103.927 30.1526 104.028 30.2416 104.103C30.3306 104.177 30.4399 104.222 30.5546 104.23C30.6192 104.234 30.6834 104.217 30.7377 104.181C30.792 104.145 30.8336 104.093 30.8562 104.031C30.8654 104.022 30.8774 104.018 30.8897 104.018C30.9021 104.018 30.914 104.022 30.9233 104.031C30.9366 104.037 30.9473 104.048 30.9534 104.062C30.9596 104.075 30.9608 104.091 30.9568 104.105C30.9254 104.181 30.8724 104.245 30.8047 104.29C30.737 104.335 30.6576 104.358 30.577 104.356C30.4233 104.35 30.276 104.292 30.1585 104.191C30.0411 104.089 29.9603 103.951 29.9291 103.797ZM30.0241 103.712H30.8283C30.7896 103.615 30.7253 103.53 30.6425 103.468C30.5597 103.405 30.4617 103.368 30.3592 103.359C30.3138 103.357 30.2685 103.365 30.2263 103.382C30.1842 103.4 30.1461 103.426 30.1145 103.459C30.0828 103.492 30.0585 103.532 30.0429 103.576C30.0273 103.619 30.0209 103.666 30.0241 103.712Z" fill="#A6A6A6"/>
<path d="M32.1239 103.307L32.325 104.287C32.3266 104.294 32.3269 104.3 32.3258 104.307C32.3246 104.313 32.3221 104.32 32.3184 104.325C32.3147 104.33 32.3098 104.335 32.3042 104.338C32.2986 104.342 32.2924 104.344 32.2859 104.344C32.2712 104.342 32.2574 104.336 32.2464 104.326C32.2354 104.315 32.2278 104.302 32.2245 104.287L32.191 104.128C32.1564 104.194 32.1048 104.249 32.0418 104.287C31.9788 104.325 31.9068 104.345 31.8335 104.344C31.6839 104.332 31.5426 104.269 31.4315 104.166C31.3204 104.063 31.2458 103.925 31.2192 103.775C31.1987 103.712 31.193 103.646 31.2027 103.582C31.2124 103.517 31.2372 103.455 31.2749 103.402C31.3126 103.349 31.3622 103.306 31.4196 103.277C31.4769 103.248 31.5404 103.233 31.6045 103.233C31.689 103.236 31.772 103.257 31.8487 103.293C31.9254 103.329 31.9943 103.38 32.0513 103.444L32.0178 103.285C32.0178 103.25 32.0178 103.233 32.0569 103.233C32.0665 103.232 32.0761 103.233 32.0851 103.237C32.0941 103.24 32.1022 103.246 32.1087 103.253C32.1153 103.26 32.12 103.269 32.1227 103.278C32.1253 103.288 32.1257 103.298 32.1239 103.307ZM32.1239 103.797C32.0975 103.681 32.0358 103.576 31.9476 103.497C31.8594 103.418 31.7492 103.37 31.6325 103.359C31.5812 103.36 31.5308 103.373 31.4854 103.397C31.44 103.422 31.4008 103.457 31.371 103.499C31.3411 103.542 31.3215 103.591 31.3135 103.643C31.3056 103.695 31.3096 103.747 31.3253 103.797C31.3517 103.914 31.4134 104.019 31.5016 104.098C31.5898 104.176 31.7001 104.225 31.8168 104.236C31.8676 104.234 31.9173 104.22 31.962 104.195C32.0067 104.171 32.0452 104.136 32.0744 104.093C32.1036 104.051 32.1228 104.002 32.1304 103.95C32.138 103.899 32.1339 103.847 32.1184 103.797H32.1239Z" fill="#A6A6A6"/>
<path d="M32.5763 103.307C32.5743 103.301 32.5739 103.294 32.5753 103.287C32.5767 103.28 32.5798 103.274 32.5843 103.269C32.5888 103.264 32.5946 103.26 32.601 103.257C32.6074 103.255 32.6143 103.255 32.621 103.256C32.635 103.258 32.6483 103.263 32.6592 103.272C32.6701 103.282 32.6782 103.294 32.6824 103.307L32.7327 103.547C32.7604 103.468 32.8112 103.4 32.8782 103.352C32.9451 103.304 33.025 103.279 33.1069 103.279C33.1211 103.28 33.1348 103.285 33.1458 103.294C33.1569 103.303 33.1648 103.316 33.1683 103.33C33.1683 103.364 33.1683 103.387 33.1292 103.387C33.0719 103.387 33.0156 103.404 32.9672 103.435C32.9187 103.466 32.88 103.511 32.8556 103.564C32.8181 103.643 32.7936 103.727 32.783 103.814L32.8835 104.293C32.8835 104.327 32.8835 104.35 32.8444 104.35C32.8289 104.348 32.8143 104.342 32.8024 104.332C32.7904 104.322 32.7817 104.308 32.7774 104.293L32.5763 103.307Z" fill="#A6A6A6"/>
<path d="M33.5037 103.797C33.4855 103.731 33.4833 103.661 33.4971 103.594C33.511 103.527 33.5405 103.464 33.5833 103.411C33.6261 103.358 33.6807 103.316 33.7427 103.289C33.8047 103.262 33.8721 103.251 33.9393 103.256C34.0694 103.257 34.1961 103.299 34.3023 103.376C34.31 103.386 34.3142 103.399 34.3142 103.413C34.3142 103.426 34.31 103.439 34.3023 103.45C34.2922 103.459 34.2793 103.463 34.266 103.463C34.2527 103.463 34.2398 103.459 34.2297 103.45C34.143 103.387 34.0398 103.354 33.9337 103.353C33.8794 103.349 33.8251 103.359 33.7751 103.381C33.7252 103.403 33.6812 103.437 33.6467 103.48C33.6123 103.523 33.5884 103.573 33.5771 103.628C33.5658 103.682 33.5675 103.738 33.5819 103.792C33.6113 103.919 33.683 104.032 33.7847 104.112C33.8864 104.192 34.012 104.234 34.1403 104.23C34.2349 104.232 34.3267 104.198 34.3972 104.133C34.4074 104.125 34.4202 104.12 34.4336 104.12C34.4469 104.12 34.4597 104.125 34.4699 104.133C34.4699 104.133 34.4699 104.19 34.4699 104.208C34.3847 104.287 34.2726 104.33 34.1571 104.327C34.0068 104.322 33.862 104.268 33.7442 104.173C33.6265 104.077 33.5421 103.946 33.5037 103.797Z" fill="#A6A6A6"/>
<path d="M35.5807 103.683C35.5572 103.592 35.5043 103.51 35.4305 103.453C35.3567 103.395 35.2661 103.364 35.173 103.364C35.1325 103.359 35.0912 103.364 35.053 103.379C35.0148 103.394 34.9808 103.418 34.9542 103.45C34.9276 103.481 34.9091 103.519 34.9005 103.56C34.8919 103.601 34.8935 103.643 34.905 103.683L35.0278 104.287C35.0188 104.291 35.0089 104.291 34.9999 104.287H34.9552L34.8324 103.683L34.6592 102.857C34.6574 102.851 34.6571 102.845 34.6583 102.838C34.6594 102.832 34.662 102.826 34.6658 102.821C34.6697 102.816 34.6746 102.812 34.6803 102.81C34.6859 102.807 34.6921 102.806 34.6983 102.806C34.7135 102.805 34.7285 102.81 34.7407 102.82C34.7528 102.829 34.7615 102.842 34.7653 102.857L34.8882 103.427C34.9204 103.376 34.9652 103.334 35.0181 103.306C35.071 103.278 35.1302 103.265 35.1898 103.267C35.3166 103.263 35.441 103.303 35.5425 103.381C35.6441 103.459 35.7166 103.569 35.7483 103.695L35.8711 104.299C35.8728 104.305 35.8731 104.312 35.8719 104.318C35.8708 104.325 35.8683 104.331 35.8645 104.336C35.8608 104.342 35.856 104.346 35.8504 104.35C35.8448 104.353 35.8385 104.355 35.832 104.356C35.8163 104.355 35.8013 104.349 35.7892 104.339C35.7771 104.328 35.7686 104.314 35.765 104.299L35.5807 103.683Z" fill="#A6A6A6"/>
<path d="M36.7593 103.797C36.7411 103.731 36.7389 103.661 36.7527 103.594C36.7666 103.527 36.7962 103.464 36.8389 103.411C36.8817 103.358 36.9364 103.316 36.9983 103.289C37.0603 103.262 37.1277 103.251 37.1949 103.256C37.3251 103.257 37.4517 103.299 37.5579 103.376C37.5656 103.386 37.5698 103.399 37.5698 103.413C37.5698 103.426 37.5656 103.439 37.5579 103.45C37.5478 103.459 37.5349 103.463 37.5216 103.463C37.5083 103.463 37.4954 103.459 37.4853 103.45C37.3987 103.387 37.2954 103.354 37.1893 103.353C37.135 103.349 37.0807 103.359 37.0307 103.381C36.9808 103.403 36.9368 103.437 36.9023 103.48C36.8679 103.523 36.844 103.573 36.8327 103.628C36.8215 103.682 36.8231 103.738 36.8375 103.792C36.867 103.919 36.9386 104.032 37.0403 104.112C37.142 104.192 37.2676 104.234 37.396 104.23C37.4905 104.232 37.5823 104.198 37.6529 104.133C37.663 104.125 37.6759 104.12 37.6892 104.12C37.7025 104.12 37.7154 104.125 37.7255 104.133C37.7255 104.133 37.7255 104.19 37.7255 104.208C37.6403 104.287 37.5282 104.33 37.4127 104.327C37.2624 104.322 37.1176 104.268 36.9998 104.173C36.8821 104.077 36.7977 103.946 36.7593 103.797Z" fill="#A6A6A6"/>
<path d="M38.8091 103.683C38.7855 103.592 38.7326 103.51 38.6588 103.453C38.585 103.395 38.4944 103.364 38.4014 103.364C38.3608 103.359 38.3196 103.364 38.2813 103.379C38.2431 103.394 38.2092 103.418 38.1825 103.45C38.1559 103.481 38.1375 103.519 38.1289 103.56C38.1203 103.601 38.1218 103.643 38.1333 103.683L38.2562 104.287C38.2472 104.291 38.2372 104.291 38.2282 104.287H38.1836L38.0551 103.683L37.8764 102.84C37.8746 102.834 37.8743 102.828 37.8754 102.821C37.8766 102.815 37.8792 102.809 37.883 102.804C37.8868 102.799 37.8918 102.795 37.8974 102.793C37.9031 102.79 37.9093 102.789 37.9155 102.789C37.9307 102.788 37.9456 102.793 37.9578 102.803C37.97 102.812 37.9787 102.825 37.9825 102.84L38.0998 103.41C38.1337 103.359 38.1796 103.318 38.2333 103.29C38.287 103.262 38.3467 103.248 38.407 103.25C38.5338 103.246 38.6582 103.286 38.7597 103.364C38.8612 103.442 38.9338 103.552 38.9654 103.678L39.0883 104.282C39.09 104.288 39.0902 104.296 39.0887 104.303C39.0873 104.309 39.0843 104.316 39.0799 104.321C39.0756 104.327 39.0701 104.331 39.0638 104.334C39.0575 104.337 39.0506 104.339 39.0436 104.339C39.0289 104.337 39.0151 104.33 39.0041 104.32C38.9932 104.31 38.9855 104.296 38.9822 104.282L38.8091 103.683Z" fill="#A6A6A6"/>
<path d="M40.2609 103.307L40.462 104.287C40.4637 104.294 40.4639 104.3 40.4628 104.307C40.4616 104.313 40.4591 104.32 40.4554 104.325C40.4517 104.33 40.4468 104.335 40.4412 104.338C40.4356 104.342 40.4294 104.344 40.4229 104.344C40.4082 104.342 40.3944 104.336 40.3834 104.326C40.3724 104.315 40.3648 104.302 40.3615 104.287L40.328 104.128C40.2934 104.194 40.2418 104.249 40.1788 104.287C40.1158 104.325 40.0438 104.345 39.9705 104.344C39.8205 104.331 39.6789 104.268 39.567 104.165C39.4552 104.063 39.3792 103.925 39.3506 103.775C39.3313 103.712 39.3266 103.646 39.3372 103.581C39.3477 103.516 39.373 103.455 39.4111 103.402C39.4493 103.35 39.4991 103.307 39.5565 103.277C39.6139 103.248 39.6773 103.233 39.7416 103.233C39.826 103.236 39.909 103.257 39.9857 103.293C40.0624 103.329 40.1313 103.38 40.1883 103.444L40.1548 103.285C40.1548 103.25 40.1548 103.233 40.1939 103.233C40.2122 103.235 40.2293 103.243 40.2417 103.257C40.2541 103.271 40.261 103.289 40.2609 103.307ZM40.2609 103.797C40.2345 103.681 40.1728 103.576 40.0846 103.497C39.9964 103.418 39.8862 103.37 39.7695 103.359C39.7182 103.36 39.6678 103.373 39.6224 103.397C39.577 103.422 39.5378 103.457 39.508 103.499C39.4781 103.542 39.4585 103.591 39.4505 103.643C39.4426 103.695 39.4466 103.747 39.4623 103.797C39.4888 103.914 39.5504 104.019 39.6386 104.098C39.7268 104.176 39.8371 104.225 39.9538 104.236C40.0046 104.234 40.0543 104.22 40.099 104.195C40.1437 104.171 40.1822 104.136 40.2114 104.093C40.2406 104.051 40.2598 104.002 40.2674 103.95C40.2751 103.899 40.2709 103.847 40.2554 103.797H40.2609Z" fill="#A6A6A6"/>
<path d="M41.082 103.307C41.0838 103.313 41.0841 103.32 41.083 103.326C41.0818 103.332 41.0792 103.338 41.0754 103.343C41.0716 103.348 41.0666 103.352 41.061 103.355C41.0553 103.358 41.0491 103.359 41.0429 103.359H40.9089L41.0708 104.151C41.0758 104.173 41.0878 104.193 41.105 104.207C41.1221 104.221 41.1435 104.23 41.1658 104.23C41.181 104.233 41.1953 104.239 41.2071 104.249C41.219 104.259 41.2278 104.272 41.2328 104.287C41.2345 104.294 41.2347 104.301 41.2332 104.308C41.2318 104.315 41.2288 104.322 41.2244 104.327C41.2201 104.333 41.2146 104.337 41.2083 104.34C41.202 104.343 41.1951 104.345 41.1881 104.344C41.1346 104.344 41.0829 104.324 41.0421 104.289C41.0012 104.253 40.9739 104.204 40.9647 104.151L40.7972 103.359H40.6687C40.6185 103.359 40.6129 103.359 40.6073 103.307C40.6017 103.256 40.6073 103.256 40.6464 103.256H40.7804L40.6967 102.852C40.695 102.845 40.6948 102.838 40.6959 102.832C40.697 102.825 40.6996 102.819 40.7033 102.814C40.707 102.808 40.7118 102.804 40.7174 102.801C40.723 102.797 40.7293 102.795 40.7358 102.795C40.7358 102.795 40.8028 102.823 40.8028 102.852L40.8921 103.256H41.0262C41.0394 103.258 41.0518 103.264 41.0618 103.273C41.0718 103.282 41.0788 103.294 41.082 103.307Z" fill="#A6A6A6"/>
<path d="M57.9424 106.885H19.4684V107.028H57.9424V106.885Z" fill="#A6A6A6"/>
<path d="M56.552 100.197H18.078V100.339H56.552V100.197Z" fill="#A6A6A6"/>
<path d="M35.1281 173.584H21.7859V175.709H35.1281V173.584Z" fill="#00E340"/>
<path opacity="0.1" d="M35.1281 173.584H21.7859V174.986H35.1281V173.584Z" fill="black"/>
<path d="M5.94751 167.876C6.87882 169.319 8.26955 170.39 9.88516 170.909C11.5008 171.428 13.2424 171.363 14.8162 170.724C15.4792 170.458 16.112 170.12 16.7039 169.716L15.0285 167.152C14.714 167.374 14.3792 167.565 14.0288 167.722C10.851 169.192 8.84046 166.639 8.44393 166.052C6.6121 163.432 5.95868 157.444 7.81284 155.142C7.93571 154.971 8.47186 154.698 10.6053 155.142C11.0018 155.233 11.4486 155.336 11.9568 155.478C12.3526 155.617 12.7632 155.707 13.1799 155.746L13.2301 154.208L13.3809 152.669C13.2413 152.669 13.0235 152.584 12.7443 152.504C11.7498 152.208 10.7339 151.993 9.70611 151.86C8.1256 151.695 6.47248 151.86 5.45604 153.159C2.44022 156.976 3.65772 164.588 5.94751 167.876Z" fill="#00E340"/>
<path opacity="0.1" d="M15.006 167.18C14.6915 167.403 14.3568 167.593 14.0063 167.75L14.8162 170.747C15.4791 170.481 16.1119 170.143 16.7038 169.739L15.006 167.18Z" fill="black"/>
<path opacity="0.1" d="M9.70032 151.917L10.5995 155.199C10.996 155.29 11.4428 155.393 11.951 155.535C12.3468 155.674 12.7574 155.764 13.1741 155.803L13.2244 154.265L13.3751 152.726C13.2355 152.726 13.0177 152.641 12.7385 152.561C11.744 152.265 10.7281 152.05 9.70032 151.917Z" fill="black"/>
<path d="M46.2034 147.901C46.2034 147.901 44.6061 161.774 41.8416 167.619C39.0771 173.465 35.218 174.103 32.8165 174.103H24.0985C21.6971 174.103 17.8379 173.453 15.0734 167.619C12.3089 161.785 10.7117 147.901 10.7117 147.901H46.2034Z" fill="#00E340"/>
<path d="M118.672 114.07H196.106V81.0536H118.672V114.07Z" fill="#1E1E1E"/>
<path d="M196.106 90.7904V81.0536H206.041L196.106 90.7904Z" fill="#1E1E1E"/>
<path d="M190.197 86.7623H124.575V87.389H190.197V86.7623Z" fill="white"/>
<path d="M171.253 90.1466H124.575V90.7733H171.253V90.1466Z" fill="white"/>
<path d="M182.697 96.9265H124.575V97.5531H182.697V96.9265Z" fill="white"/>
<path d="M190.197 100.311H124.575V100.937H190.197V100.311Z" fill="white"/>
<path d="M190.197 103.701H124.575V104.327H190.197V103.701Z" fill="white"/>
<path d="M164.92 107.091H124.575V107.717H164.92V107.091Z" fill="white"/>
<path d="M185.517 20.1944H108.083V48.0545H185.517V20.1944Z" fill="#00E340"/>
<path d="M108.094 29.9369V20.1944H98.1531L108.094 29.9369Z" fill="#00E340"/>
<path d="M164.473 25.3391H114.103V25.9658H164.473V25.3391Z" fill="white"/>
<path d="M179.725 28.729H114.103V29.3557H179.725V28.729Z" fill="white"/>
<path d="M179.725 32.1189H114.103V32.7456H179.725V32.1189Z" fill="white"/>
<path d="M172.499 35.5032H114.103V36.1299H172.499V35.5032Z" fill="white"/>
<path d="M179.725 38.8931H114.103V39.5198H179.725V38.8931Z" fill="white"/>
<path d="M155.895 42.2831H114.103V42.9098H155.895V42.2831Z" fill="white"/>
<path d="M185.517 52.5612H108.083V73.2198H185.517V52.5612Z" fill="#00E340"/>
<path d="M108.094 62.2979V52.5612H98.1531L108.094 62.2979Z" fill="#00E340"/>
<path d="M179.563 57.7058H114.103V58.3325H179.563V57.7058Z" fill="white"/>
<path d="M163.445 61.0958H114.103V61.7225H163.445V61.0958Z" fill="white"/>
<path d="M170.979 64.4799H114.103V65.1066H170.979V64.4799Z" fill="white"/>
<path d="M152.114 67.8699H114.103V68.4966H152.114V67.8699Z" fill="white"/>
<path d="M185.517 120.491H108.083V139.548H185.517V120.491Z" fill="#00E340"/>
<path d="M108.083 130.227V120.491H98.1421L108.083 130.227Z" fill="#00E340"/>
<path d="M174.654 125.635H114.103V126.262H174.654V125.635Z" fill="white"/>
<path d="M158.972 129.02H114.103V129.646H158.972V129.02Z" fill="white"/>
<path d="M170.443 132.41H114.103V133.036H170.443V132.41Z" fill="white"/>
<path d="M227.018 100.094C236.895 100.094 244.901 91.9265 244.901 81.8512C244.901 71.7759 236.895 63.6083 227.018 63.6083C217.142 63.6083 209.136 71.7759 209.136 81.8512C209.136 91.9265 217.142 100.094 227.018 100.094Z" fill="#A6A6A6"/>
<mask id="mask0_216_2" style="mask-type:luminance" maskUnits="userSpaceOnUse" x="209" y="57" width="36" height="44">
<path d="M244.907 81.8511C244.911 84.5119 244.343 87.1413 243.242 89.5534C242.141 91.9654 240.534 94.1012 238.534 95.8097C237.212 96.9437 235.738 97.8781 234.156 98.5843C233.971 98.6698 233.782 98.7495 233.597 98.8236L233.29 98.9432C232.278 99.3356 231.231 99.6238 230.163 99.8035C229.131 100.001 228.084 100.099 227.035 100.094C226.412 100.094 225.789 100.06 225.17 99.9915C224.904 99.9714 224.639 99.9372 224.377 99.889C224.064 99.8434 223.751 99.7921 223.438 99.7181C223.342 99.706 223.246 99.685 223.154 99.6554C222.684 99.5585 222.215 99.4332 221.757 99.2908C221.299 99.1483 220.774 98.9546 220.294 98.7552L220.177 98.6982C220.084 98.6686 219.995 98.6305 219.909 98.5843C219.317 98.3278 218.743 98.0328 218.189 97.7012C215.652 96.2319 213.507 94.1517 211.941 91.6422C210.374 89.1327 209.433 86.2701 209.2 83.3042C208.967 80.3384 209.449 77.3594 210.604 74.6274C211.759 71.8953 213.552 69.4932 215.826 67.6305C216.011 66.9298 216.2 66.2575 216.385 65.6422C213.296 63.5057 214.665 59.4605 215.212 58.6059C215.759 57.7513 217.692 59.8252 217.692 59.8252C217.692 59.8252 218.312 57.3069 219.021 57.1474C219.73 56.9879 220.233 58.6458 220.233 58.6458C220.233 58.6458 225.522 57.6773 230.09 58.5034C234.658 59.3295 236.233 64.3831 236.233 64.3831C236.233 64.3831 238.607 65.2775 239.137 67.1463C239.222 67.5654 239.222 67.9977 239.137 68.4168C240.958 70.1265 242.412 72.2035 243.405 74.516C244.398 76.8286 244.909 79.3264 244.907 81.8511Z" fill="white"/>
</mask>
<g mask="url(#mask0_216_2)">
<path d="M221.903 93.941L223.483 101.256L235.055 92.5338L239.205 96.4308C239.205 96.4308 229.912 107.489 222.372 107.489C218.418 107.489 217.642 98.2311 217.642 98.2311L221.903 93.941Z" fill="#00E340"/>
<path d="M223.712 102.259C226.622 103.182 232.011 98.9319 234.268 95.3368C234.418 95.0918 234.217 92.3628 234.128 89.0413C234.078 87.0244 234.072 84.7739 234.212 82.7229C234.245 82.3013 221.367 84.9562 221.367 84.9562C221.914 87.5764 222.143 90.2553 222.048 92.9325C222.027 93.2159 221.978 93.4965 221.903 93.7701C221.903 93.8042 221.903 93.8555 221.903 93.9068C221.534 95.4736 220.903 101.365 223.712 102.259Z" fill="#DD6A57"/>
<path d="M233.475 82.7115C232.598 86.2894 229.833 94.4253 223.193 94.1062C222.759 94.0874 222.328 94.0322 221.903 93.941C221.903 93.8897 221.903 93.8384 221.903 93.8042C221.981 93.5314 222.03 93.2505 222.048 92.9667V92.9325C222.127 91.6029 222.097 90.2689 221.959 88.9444C221.827 87.6265 221.629 86.3163 221.367 85.0189L221.45 84.9619C222.461 84.7398 230.894 83.0077 233.475 82.7115Z" fill="#263238"/>
<path d="M235.306 66.3887C236.859 70.901 235.044 84.1986 231.983 87.2809C227.544 91.7476 219.998 92.4826 216.212 86.9732C212.537 81.6348 215.201 64.3433 218.647 61.5117C223.729 57.347 233.005 59.7284 235.306 66.3887Z" fill="#DD6A57"/>
<path d="M234.156 77.5497C231.101 77.0768 231.33 71.3282 231.33 71.3282C231.33 71.3282 226.209 69.6531 226.03 65.5112C226.03 65.5112 220.579 68.0009 216.876 65.9613C213.174 63.9216 214.642 59.5289 215.201 58.6288C215.759 57.7286 217.681 59.848 217.681 59.848C217.681 59.848 218.301 57.3298 219.01 57.1702C219.719 57.0107 220.222 58.6686 220.222 58.6686C220.222 58.6686 225.516 57.7058 230.073 58.5262C234.631 59.3466 236.217 64.4059 236.217 64.4059C236.217 64.4059 238.585 65.3061 239.126 67.1748C239.668 69.0435 236.099 77.8289 234.156 77.5497Z" fill="#263238"/>
<path d="M222.735 75.6069C222.735 75.5727 222.796 75.6582 222.791 75.6924C222.645 76.5869 222.623 77.6352 223.382 78.0397C223.382 78.0397 223.382 78.0967 223.382 78.091C222.439 77.8175 222.478 76.4102 222.735 75.6069Z" fill="#263238"/>
<path d="M223.662 74.7751C225.092 74.8605 224.824 77.7662 223.5 77.6921C222.176 77.618 222.467 74.701 223.662 74.7751Z" fill="#263238"/>
<path d="M217.63 75.2708C217.63 75.2366 217.557 75.3049 217.557 75.3448C217.502 76.245 217.289 77.2705 216.44 77.4927V77.544C217.451 77.487 217.708 76.1254 217.63 75.2708Z" fill="#263238"/>
<path d="M216.932 74.2395C215.519 73.9945 215.14 76.8888 216.446 77.1167C217.753 77.3445 218.111 74.4503 216.932 74.2395Z" fill="#263238"/>
<path d="M224.913 73.5615C224.549 73.4129 224.193 73.2455 223.846 73.0601C223.445 72.9357 223.095 72.6792 222.852 72.3308C222.796 72.2067 222.782 72.0671 222.812 71.9341C222.843 71.801 222.916 71.682 223.02 71.5959C223.25 71.4587 223.512 71.3865 223.779 71.3865C224.046 71.3865 224.308 71.4587 224.539 71.5959C225.05 71.8004 225.469 72.1898 225.717 72.6898C225.762 72.8065 225.774 72.9341 225.751 73.0575C225.728 73.1809 225.671 73.295 225.587 73.3865C225.502 73.478 225.394 73.543 225.275 73.574C225.155 73.605 225.03 73.6006 224.913 73.5615Z" fill="#263238"/>
<path d="M215.966 72.6727C216.357 72.6309 216.745 72.5662 217.128 72.479C217.545 72.4722 217.948 72.3238 218.273 72.0574C218.36 71.954 218.411 71.8236 218.417 71.6873C218.423 71.5509 218.384 71.4164 218.306 71.3054C218.123 71.1071 217.892 70.9625 217.635 70.8863C217.379 70.8102 217.107 70.8054 216.849 70.8724C216.302 70.9286 215.795 71.1882 215.424 71.6016C215.347 71.7013 215.299 71.8217 215.287 71.9484C215.275 72.0751 215.299 72.2027 215.356 72.3158C215.413 72.4289 215.501 72.5228 215.609 72.5861C215.718 72.6494 215.842 72.6795 215.966 72.6727Z" fill="#263238"/>
<path d="M222.796 84.0446C222.567 84.2326 222.327 84.5004 222.003 84.5004C221.676 84.4592 221.361 84.3506 221.076 84.1814C221.076 84.1814 221.02 84.1814 221.037 84.2213C221.146 84.411 221.303 84.567 221.492 84.6724C221.681 84.7778 221.894 84.8287 222.109 84.8195C222.294 84.7896 222.466 84.7043 222.604 84.5744C222.741 84.4446 222.837 84.276 222.88 84.0902C222.897 84.0389 222.83 84.0161 222.796 84.0446Z" fill="#263238"/>
<path d="M222.126 81.31C221.864 81.6412 221.538 81.9135 221.168 82.1097C220.798 82.3058 220.392 82.4215 219.976 82.4494C219.612 82.4799 219.245 82.4588 218.887 82.3867L218.68 82.3412L218.49 82.2899C218.444 82.2743 218.405 82.2445 218.377 82.2046C218.349 82.1647 218.334 82.1168 218.334 82.0677C218.331 82.0374 218.331 82.0068 218.334 81.9765V81.9025C218.384 81.2017 218.563 80.1534 218.563 80.1534C218.3 80.2559 216.971 80.7231 217.027 80.3414C217.518 77.356 218.06 74.0401 219.16 71.1801C219.167 71.1602 219.181 71.1436 219.199 71.1336C219.218 71.1235 219.239 71.1207 219.259 71.1257C219.279 71.1306 219.297 71.143 219.308 71.1604C219.32 71.1778 219.325 71.199 219.322 71.2199C218.965 74.1028 218.11 76.9173 217.708 79.8002C218.18 79.6332 218.673 79.5353 219.171 79.5096C219.266 79.5495 218.797 81.5322 218.797 81.8455V81.8797C219.914 82.1532 220.825 81.8797 222.014 81.2302C222.12 81.1732 222.176 81.2416 222.126 81.31Z" fill="#263238"/>
<path d="M219.334 82.193C219.678 82.7152 220.15 83.1372 220.702 83.418C221.005 83.5633 221.345 83.6072 221.674 83.5433C222.394 83.3952 222.45 82.7343 222.355 82.1589C222.301 81.8534 222.213 81.5552 222.092 81.2701C221.293 81.8701 220.326 82.1935 219.334 82.193Z" fill="#263238"/>
<path d="M220.702 83.418C221.005 83.5633 221.345 83.6072 221.674 83.5433C222.394 83.3952 222.45 82.7343 222.355 82.1589C221.981 82.1505 221.616 82.2699 221.316 82.4981C221.016 82.7262 220.8 83.05 220.702 83.418Z" fill="#FF99BA"/>
<path d="M232.989 77.2648C232.989 77.2648 235.82 72.9291 237.742 73.9489C239.663 74.9687 237.602 81.213 235.39 82.1132C235.114 82.2474 234.814 82.3233 234.508 82.3364C234.203 82.3495 233.898 82.2995 233.611 82.1893C233.325 82.0792 233.063 81.9112 232.842 81.6955C232.621 81.4798 232.445 81.2207 232.324 80.9339L232.989 77.2648Z" fill="#DD6A57"/>
<path d="M237.11 75.7721C237.144 75.7721 237.15 75.8177 237.11 75.8348C235.558 76.5127 234.77 78.0112 234.229 79.5608C234.681 78.9569 235.307 78.6208 236.094 79.1677C236.133 79.1962 236.094 79.2646 236.055 79.2532C235.778 79.1698 235.482 79.1765 235.209 79.2725C234.935 79.3685 234.698 79.5489 234.53 79.7887C234.247 80.187 234.009 80.6171 233.821 81.0706C233.748 81.2131 233.497 81.1447 233.547 80.9795C233.545 80.9663 233.545 80.9528 233.547 80.9396C233.486 78.9056 234.971 76.0285 237.11 75.7721Z" fill="#263238"/>
<path d="M222.048 93.018L223.601 100.584L234.273 90.8587L236.932 93.9125C236.932 93.9125 226.522 109.295 226.454 108.606L223.293 102.094L218.909 106.697L220.669 95.2571L222.048 93.018Z" fill="white"/>
<path d="M220.596 95.3653C220.596 95.297 220.724 95.2628 220.724 95.3653C220.623 97.7012 219.166 104.401 219.194 106.133C219.378 105.934 223.254 102.077 223.299 102.145C223.974 103.176 226.281 107.917 226.437 108.35C227.912 106.133 234.759 97.0233 236.429 94.7101C236.437 94.695 236.45 94.6838 236.467 94.679C236.483 94.6742 236.5 94.6762 236.515 94.6845C236.53 94.6928 236.541 94.7068 236.546 94.7233C236.55 94.7399 236.548 94.7577 236.54 94.7728C235.3 97.348 226.649 109.312 226.538 109.278C225.337 107.027 224.254 104.713 223.293 102.345C222.64 103.182 218.73 107.529 218.713 107.25C218.574 105.358 219.97 97.7069 220.596 95.3653Z" fill="#263238"/>
</g>
<path d="M90.2859 131.205C97.3917 123.956 97.3917 112.203 90.286 104.955C83.1802 97.7056 71.6595 97.7056 64.5537 104.955C57.448 112.203 57.448 123.956 64.5537 131.205C71.6595 138.454 83.1802 138.454 90.2859 131.205Z" fill="#A6A6A6"/>
<mask id="mask1_216_2" style="mask-type:luminance" maskUnits="userSpaceOnUse" x="59" y="94" width="37" height="43">
<path d="M95.6238 118.075C95.6288 121.327 94.7964 124.524 93.2098 127.345C91.6232 130.166 89.3381 132.512 86.5832 134.149C83.8283 135.786 80.7003 136.656 77.5123 136.672C74.3243 136.688 71.188 135.849 68.4175 134.24C65.647 132.631 63.3394 130.308 61.7257 127.503C60.112 124.698 59.2487 121.51 59.2224 118.258C59.1961 115.005 60.0076 111.803 61.5757 108.971C63.1438 106.14 65.4135 103.778 68.1575 102.122C69.0008 99.3534 71.1957 96.7156 76.0768 95.4678C85.6381 93.0294 87.7603 100.066 87.9614 100.829C87.9614 100.829 87.9614 100.829 87.9614 100.858C87.9635 100.867 87.9635 100.877 87.9614 100.886C88.2948 101.787 88.58 102.705 88.8159 103.638C90.9385 105.37 92.6523 107.567 93.8307 110.066C95.0091 112.565 95.6219 115.302 95.6238 118.075Z" fill="white"/>
</mask>
<g mask="url(#mask1_216_2)">
<path d="M82.6329 130.381L81.0189 137.788L70.0168 130.085L67.2858 134.198C67.2858 134.198 74.4846 144.135 82.1526 144.135C86.1793 144.135 86.9668 134.717 86.9668 134.717L82.6329 130.381Z" fill="#00E340"/>
<path d="M80.7902 138.842C77.8303 139.782 72.346 135.458 70.0506 131.8C69.8942 131.549 70.1009 128.775 70.1958 125.39C70.2405 123.339 70.2517 121.055 70.1064 118.969C70.0785 118.536 71.5585 119.226 71.5585 119.226L74.2504 119.687L83.1526 121.243C83.1526 121.243 82.192 125.704 82.4601 129.339C82.4807 129.628 82.5293 129.914 82.6053 130.193C82.6053 130.233 82.6053 130.279 82.6053 130.33C83.0018 131.942 83.672 137.942 80.7902 138.842Z" fill="#EB9481"/>
<path d="M82.6053 130.239C82.6053 130.279 82.6053 130.324 82.6053 130.381C82.1729 130.472 81.734 130.528 81.2929 130.546C72.6364 130.962 70.799 119.83 70.799 119.83L74.2225 119.739L83.1247 121.288C83.1247 121.288 82.1641 125.755 82.4322 129.39C82.4614 129.678 82.5194 129.963 82.6053 130.239Z" fill="#263238"/>
<path d="M68.995 102.35C67.4145 106.937 69.2575 120.468 72.3739 123.607C76.892 128.165 84.5656 128.9 88.4247 123.294C92.161 117.858 89.4467 100.265 85.9395 97.3878C80.7735 93.1489 71.3351 95.5703 68.995 102.35Z" fill="#EB9481"/>
<path d="M81.7619 111.734C81.7619 111.7 81.7005 111.785 81.7061 111.819C81.8513 112.731 81.8736 113.796 81.1029 114.206C81.1029 114.206 81.1029 114.269 81.1029 114.258C82.0858 113.979 82.0467 112.56 81.7619 111.734Z" fill="#263238"/>
<path d="M80.8401 110.885C79.3881 110.97 79.6617 113.927 81.0077 113.848C82.3536 113.768 82.0576 110.811 80.8401 110.885Z" fill="#263238"/>
<path d="M86.9726 111.375C86.9726 111.335 87.0508 111.409 87.0508 111.449C87.1067 112.366 87.3245 113.409 88.1678 113.637V113.688C87.1569 113.642 86.8833 112.252 86.9726 111.375Z" fill="#263238"/>
<path d="M87.6874 110.338C89.1227 110.087 89.5081 113.033 88.1789 113.266C86.8497 113.5 86.4644 110.549 87.6874 110.338Z" fill="#263238"/>
<path d="M79.5672 109.643C79.9526 109.5 80.2877 109.307 80.6563 109.13C81.0622 109.003 81.4156 108.743 81.6615 108.389C81.7184 108.264 81.7328 108.122 81.7025 107.987C81.6722 107.852 81.5988 107.731 81.494 107.643C81.2594 107.503 80.9924 107.429 80.7205 107.429C80.4486 107.429 80.1816 107.503 79.947 107.643C79.4266 107.848 79.0003 108.245 78.7518 108.754C78.7054 108.873 78.693 109.002 78.7162 109.128C78.7394 109.253 78.7971 109.37 78.8827 109.463C78.9682 109.556 79.0781 109.623 79.1993 109.654C79.3205 109.686 79.4481 109.682 79.5672 109.643Z" fill="#263238"/>
<path d="M88.6982 108.743C88.3025 108.699 87.9092 108.634 87.5198 108.549C87.0947 108.539 86.6846 108.387 86.3526 108.116C86.264 108.01 86.2121 107.877 86.2051 107.738C86.198 107.599 86.2361 107.462 86.3135 107.347C86.5017 107.146 86.7392 107 87.0014 106.923C87.2635 106.847 87.5408 106.844 87.8047 106.914C88.3588 106.964 88.8736 107.227 89.2456 107.649C89.3256 107.75 89.3752 107.872 89.3884 108.002C89.4016 108.131 89.3779 108.261 89.32 108.377C89.262 108.493 89.1725 108.589 89.0622 108.654C88.9518 108.719 88.8254 108.75 88.6982 108.743Z" fill="#263238"/>
<path d="M81.7229 120.308C81.9575 120.502 82.1976 120.776 82.5271 120.776C82.8606 120.736 83.1821 120.625 83.471 120.451C83.4736 120.448 83.4767 120.445 83.4802 120.444C83.4837 120.442 83.4875 120.441 83.4914 120.441C83.4952 120.44 83.4991 120.441 83.5028 120.442C83.5065 120.443 83.5099 120.445 83.5129 120.448C83.5158 120.451 83.5182 120.454 83.5199 120.457C83.5217 120.461 83.5227 120.465 83.5229 120.469C83.5232 120.473 83.5227 120.477 83.5214 120.48C83.5202 120.484 83.5182 120.488 83.5157 120.491C83.4027 120.687 83.2386 120.849 83.0415 120.956C82.8443 121.064 82.6219 121.114 82.3987 121.1C82.2112 121.07 82.0368 120.983 81.8977 120.851C81.7585 120.719 81.6608 120.548 81.6168 120.36C81.6224 120.308 81.6894 120.28 81.7229 120.308Z" fill="#263238"/>
<path d="M82.2698 117.87C83.1857 118.628 86.2462 118.628 86.2573 118.525L86.006 116.332C86.2741 116.44 87.6145 116.901 87.5586 116.537C87.1007 113.506 86.5868 110.133 85.4978 107.21C85.4909 107.19 85.4769 107.174 85.4587 107.164C85.4405 107.154 85.4193 107.151 85.3992 107.156C85.3791 107.161 85.3615 107.173 85.3498 107.19C85.3381 107.208 85.3331 107.229 85.3358 107.25C85.6653 110.184 86.4975 113.038 86.8773 115.978C86.3986 115.806 85.8985 115.702 85.3917 115.671C85.2967 115.711 85.7491 117.727 85.7491 118.046C84.6333 118.097 83.5175 117.945 82.4541 117.596C82.1022 117.482 82.024 117.67 82.2698 117.87Z" fill="#263238"/>
<path d="M70.6088 113.278C71.7258 112.987 72.8092 109.198 72.8428 105.518C72.8428 103.154 73.7922 100.168 76.378 99.2793C78.0981 98.7096 81.0916 100.134 82.8005 99.7066C84.5095 99.2793 84.8278 98.2823 85.8387 98.3108C86.8495 98.3393 87.9777 100.875 87.9777 100.875C87.9777 100.875 86.1738 92.8641 76.0764 95.4393C65.4652 98.1569 67.5762 107.449 68.5983 110.429C69.3913 112.731 70.6088 113.278 70.6088 113.278Z" fill="#263238"/>
<path d="M71.3851 113.443C71.3851 113.443 68.4978 109.033 66.5431 110.07C64.5884 111.107 66.6883 117.477 68.939 118.371C69.219 118.509 69.5237 118.588 69.8344 118.602C70.1451 118.617 70.4555 118.567 70.7468 118.456C71.038 118.344 71.3042 118.174 71.5291 117.955C71.754 117.736 71.933 117.472 72.0553 117.18L71.3851 113.443Z" fill="#EB9481"/>
<path d="M67.1631 111.893C67.1571 111.896 67.152 111.9 67.1484 111.906C67.1449 111.911 67.1429 111.918 67.1429 111.925C67.1429 111.931 67.1449 111.938 67.1484 111.943C67.152 111.949 67.1571 111.953 67.1631 111.956C68.7436 112.651 69.5478 114.178 70.1007 115.75C69.6371 115.141 68.9837 114.793 68.2018 115.352C68.1572 115.352 68.2018 115.448 68.2409 115.437C68.5229 115.354 68.8231 115.361 69.1009 115.458C69.3787 115.555 69.6205 115.736 69.7935 115.978C70.0756 116.388 70.317 116.825 70.514 117.283C70.581 117.431 70.8435 117.363 70.7932 117.192C70.7899 117.179 70.7899 117.165 70.7932 117.152C70.8267 115.084 69.3356 112.155 67.1631 111.893Z" fill="#263238"/>
</g>
<path d="M74.6082 43.3883C85.0613 43.3883 93.5352 34.7437 93.5352 24.08C93.5352 13.4163 85.0613 4.77167 74.6082 4.77167C64.1551 4.77167 55.6812 13.4163 55.6812 24.08C55.6812 34.7437 64.1551 43.3883 74.6082 43.3883Z" fill="#A6A6A6"/>
<path d="M94.4228 38.8077H92.8087C92.6412 36.7054 91.3343 33.492 91.6918 35.1101C91.8998 36.3304 91.9692 37.5711 91.8984 38.8077H64.555C64.2367 35.6456 65.6217 30.444 65.6217 30.444C64.0412 33.0591 63.4325 36.768 63.2035 38.8077H60.6233C60.3552 36.9162 61.0142 33.6801 61.0142 33.6801C60.3049 34.9506 59.8972 37.3378 59.6906 38.8077H56.753C56.6413 35.6456 57.6968 31.4866 60.1709 27.7149C62.1535 24.6896 59.6962 22.9291 59.7465 17.0381C59.7967 9.19851 65.0688 6.2131 65.9456 5.36989C77.8693 -5.89948 88.6927 4.56087 89.8544 12.0073C90.9713 19.2885 88.9217 20.2514 92.2391 26.866C94.7467 31.8056 94.4228 38.8077 94.4228 38.8077Z" fill="#263238"/>
<path d="M62.2821 42.8698C62.2821 42.8698 62.338 42.904 62.3603 42.9268C66.3255 45.6843 74.1555 50.5328 78.3441 48.9945C81.5666 47.8095 83.4543 44.4366 83.6721 43.3484C81.9966 41.8101 79.5672 40.4086 78.4949 39.6793C72.3125 35.4861 66.7444 37.9986 62.2821 42.8698Z" fill="#1E1E1E"/>
<path d="M68.2523 40.4826C68.5315 41.417 73.3736 47.2682 77.6069 46.7782C78.9864 46.613 78.4502 38.8931 78.4502 38.8931L78.5396 38.3233L79.7682 30.216L70.1791 24.8206L68.794 24.1141C68.794 24.1141 68.6041 26.3532 68.3919 29.1449L68.3584 29.5437C68.3584 29.7032 68.3249 29.8514 68.3193 29.9995C68.2802 30.4154 68.2467 30.8427 68.2188 31.2643C68.2188 31.5891 68.1741 31.9024 68.1629 32.2443C68.1518 32.5861 68.1294 32.9165 68.1127 33.2584C67.9983 35.6669 68.045 38.0806 68.2523 40.4826Z" fill="#AD6359"/>
<path d="M68.3917 29.1222C69.3295 31.3113 70.7228 33.2661 72.4751 34.851C74.2274 36.4359 76.2966 37.613 78.5394 38.3006L79.768 30.1933L70.1789 24.7979L68.7938 24.0914C68.7938 24.0914 68.5928 26.3476 68.3917 29.1222Z" fill="#263238"/>
<path d="M89.5923 16.7133C91.8262 30.9567 83.7114 33.8908 80.7012 34.3751C77.9758 34.8138 68.6268 35.9589 64.9855 22.046C61.3441 8.13306 67.1245 2.59523 73.3125 1.25065C79.5005 -0.0939263 87.3807 2.49837 89.5923 16.7133Z" fill="#AD6359"/>
<path d="M66.1245 23.0487C69.615 22.6214 69.7435 11.5571 69.7435 10.1955C69.7826 11.0558 70.0283 15.5852 70.3857 15.739C70.7589 15.6964 71.1229 15.5925 71.4636 15.4313C71.4244 14.8889 71.4244 14.3443 71.4636 13.8019C71.4636 13.5512 71.6032 14.3374 71.8154 15.306C72.0109 15.2319 72.2176 15.1465 72.4465 15.0667C72.3134 13.9128 72.3321 12.7459 72.5024 11.597C72.5694 11.164 72.8375 13.0783 73.3736 14.7192C76.2899 13.5774 79.3201 12.7655 82.4099 12.2978C83.2756 12.1895 84.0351 12.1383 84.7053 12.1155C84.5992 10.7766 84.3311 9.36935 84.4539 9.66561C84.7803 10.4498 85.031 11.2646 85.2023 12.0984C85.5653 12.0984 85.9004 12.0984 86.202 12.0984C86.1406 10.2069 85.018 7.27272 85.3475 7.70572C86.3405 9.04971 87.0756 10.5729 87.5144 12.1952C88.7934 12.3377 89.1899 12.5599 89.1899 12.2237C89.1899 11.6198 88.0729 6.40672 83.7112 2.87436C78.992 -0.954266 70.1735 -1.27331 65.7782 5.62049C65.7782 5.62049 61.947 8.66288 61.6622 13.0669C61.3774 17.471 64.1251 23.288 66.1245 23.0487Z" fill="#263238"/>
<path d="M83.7724 24.9973C83.4748 25.6152 83.0268 26.1448 82.4711 26.5356C82.1597 26.7372 81.7952 26.8366 81.4267 26.8204C80.6225 26.7691 80.4606 26.0627 80.4829 25.4189C80.4977 25.0797 80.5502 24.7433 80.6393 24.4161C81.5957 24.9473 82.6939 25.151 83.7724 24.9973Z" fill="white"/>
<path d="M86.6824 14.97C86.3529 14.97 86.0458 14.8902 85.7163 14.8503C85.3711 14.8557 85.0337 14.7456 84.7557 14.5369C84.6794 14.4537 84.6325 14.3469 84.6224 14.2334C84.6123 14.1199 84.6395 14.0062 84.6998 13.9102C84.8458 13.7406 85.0335 13.6136 85.2436 13.5425C85.4537 13.4714 85.6785 13.4587 85.895 13.5057C86.3511 13.5351 86.7798 13.7385 87.0957 14.0755C87.1521 14.1577 87.1862 14.2537 87.1945 14.3537C87.2029 14.4537 87.1852 14.5541 87.1433 14.6449C87.1013 14.7357 87.0366 14.8136 86.9557 14.8706C86.8748 14.9277 86.7805 14.962 86.6824 14.97Z" fill="#263238"/>
<path d="M77.6347 16.1436C77.9587 16.0752 78.2491 15.9556 78.5618 15.8587C78.905 15.8007 79.2205 15.6308 79.461 15.3745C79.5199 15.2791 79.5463 15.1665 79.5362 15.0543C79.5261 14.942 79.4801 14.8363 79.4051 14.7534C79.2326 14.6121 79.0263 14.5201 78.8074 14.4871C78.5885 14.454 78.365 14.4811 78.1597 14.5654C77.7162 14.6728 77.3279 14.945 77.0707 15.3289C77.0271 15.4205 77.0085 15.5224 77.0166 15.6239C77.0248 15.7254 77.0595 15.8228 77.1171 15.906C77.1747 15.9892 77.2531 16.0551 77.3441 16.0969C77.4352 16.1387 77.5355 16.1548 77.6347 16.1436Z" fill="#263238"/>
<path d="M79.8186 19.5961C79.8186 19.562 79.746 19.6531 79.7516 19.693C79.8912 20.6615 79.8856 21.7953 79.059 22.2169C79.0311 22.2169 79.059 22.2796 79.059 22.2739C80.109 22.0004 80.0978 20.4906 79.8186 19.5961Z" fill="#263238"/>
<path d="M78.8523 18.6732C77.3053 18.7302 77.5287 21.8865 78.964 21.8353C80.3993 21.784 80.1536 18.6276 78.8523 18.6732Z" fill="#263238"/>
<path d="M78.2548 18.867C77.9979 19.0607 77.7577 19.3968 77.4338 19.4367C77.1099 19.4766 76.7525 19.1917 76.4844 18.8955C76.4844 18.8613 76.4285 18.8954 76.4341 18.9353C76.4676 19.5393 76.7357 20.1432 77.3779 20.1888C78.0202 20.2343 78.3441 19.6589 78.4502 19.0493C78.467 18.9638 78.3609 18.81 78.2548 18.867Z" fill="#263238"/>
<path d="M85.1412 18.7074C85.1412 18.6732 85.2194 18.753 85.2194 18.7929C85.2194 19.7728 85.4484 20.8895 86.3363 21.1573C86.3363 21.1573 86.3363 21.2142 86.3363 21.2085C85.2641 21.1459 85.0127 19.6418 85.1412 18.7074Z" fill="#263238"/>
<path d="M85.9059 17.6306C87.4417 17.4084 87.7656 20.559 86.3415 20.7641C84.9174 20.9693 84.6437 17.8186 85.9059 17.6306Z" fill="#263238"/>
<path d="M86.5933 17.773C86.8558 17.9098 87.1518 18.1889 87.4198 18.1775C87.6879 18.1661 87.9783 17.7958 88.157 17.4483C88.157 17.4141 88.2073 17.4483 88.2129 17.4768C88.2855 18.075 88.157 18.7245 87.6041 18.9011C87.0512 19.0777 86.6659 18.582 86.4872 18.0009C86.4257 17.8927 86.4928 17.7274 86.5933 17.773Z" fill="#263238"/>
<path d="M80.1707 27.0597C80.4052 27.2876 80.6398 27.5953 80.9916 27.6295C81.3494 27.61 81.6994 27.515 82.0192 27.3503C82.0259 27.3479 82.0331 27.3476 82.0399 27.3496C82.0467 27.3517 82.0527 27.3558 82.057 27.3615C82.0613 27.3672 82.0638 27.3741 82.064 27.3813C82.0643 27.3885 82.0623 27.3956 82.0583 27.4016C81.9282 27.5993 81.7475 27.7569 81.5359 27.8573C81.3242 27.9577 81.0896 27.9972 80.8576 27.9713C80.66 27.9256 80.4802 27.8211 80.341 27.671C80.2018 27.5208 80.1094 27.3319 80.0757 27.1281C80.059 27.054 80.1316 27.0312 80.1707 27.0597Z" fill="#263238"/>
<path d="M83.8787 23.1912C83.8787 23.1912 84.1971 24.6326 84.2529 25.3163C84.2529 25.3847 84.1021 25.4303 83.8731 25.4588C83.8731 25.4588 83.8731 25.4588 83.8452 25.4588C83.2746 25.6161 82.6725 25.6101 82.105 25.4412C81.5375 25.2724 81.0266 24.9473 80.6283 24.5016C80.5781 24.4389 80.6283 24.3592 80.7233 24.399C81.6324 24.9266 82.6849 25.1386 83.7223 25.003C83.7559 24.8093 83.0968 22.5531 83.203 22.536C83.7315 22.54 84.2572 22.6147 84.7667 22.7582C84.2082 19.7329 83.1415 16.833 82.611 13.8134C82.6092 13.792 82.6144 13.7707 82.6258 13.7527C82.6371 13.7346 82.654 13.721 82.6738 13.7138C82.6936 13.7067 82.7152 13.7064 82.7351 13.7131C82.7551 13.7197 82.7723 13.733 82.7841 13.7507C84.091 16.719 84.8281 20.183 85.5039 23.2881C85.5933 23.6812 84.158 23.2824 83.8787 23.1912Z" fill="#263238"/>
<path d="M78.2102 24.4844C77.4231 24.479 76.6533 24.2483 75.9884 23.8187C75.3234 23.389 74.79 22.7776 74.4488 22.054C74.1076 21.3304 73.9724 20.5236 74.0584 19.7255C74.1444 18.9273 74.4483 18.1698 74.9355 17.5391C75.4227 16.9084 76.0736 16.4299 76.8142 16.1579C77.5548 15.8859 78.3553 15.8314 79.1247 16.0006C79.8942 16.1698 80.6016 16.5559 81.1666 17.115C81.7316 17.6741 82.1314 18.3837 82.3207 19.1631C82.5873 20.2676 82.4137 21.4349 81.8379 22.4089C81.262 23.383 80.331 24.0843 79.249 24.3591C78.9089 24.4428 78.5601 24.4849 78.2102 24.4844ZM78.2605 16.4796C77.9575 16.4766 77.6553 16.5129 77.3613 16.5879C76.4604 16.8147 75.6781 17.3833 75.1737 18.1779C74.6694 18.9726 74.481 19.9334 74.6468 20.8649C74.8127 21.7963 75.3203 22.6282 76.0664 23.1911C76.8125 23.754 77.7409 24.0056 78.6624 23.8947C79.584 23.7837 80.4294 23.3185 81.0266 22.5939C81.6237 21.8693 81.9276 20.9397 81.8763 19.9945C81.8251 19.0493 81.4226 18.1596 80.7508 17.5065C80.079 16.8535 79.1884 16.4862 78.2605 16.4796Z" fill="#00E340"/>
<path d="M87.7938 23.345C86.1853 23.345 84.7389 21.6358 84.4987 19.4195C84.3631 18.3596 84.5585 17.2831 85.0572 16.343C85.2465 15.924 85.5387 15.562 85.9056 15.2921C86.2724 15.0222 86.7013 14.8536 87.1508 14.8026C87.6003 14.7515 88.0551 14.8199 88.471 15.0009C88.887 15.182 89.2501 15.4696 89.5251 15.8359C90.2123 16.6448 90.6341 17.6529 90.7314 18.7188C90.9827 21.0661 89.7987 23.1399 88.0842 23.3336C87.9879 23.3466 87.8907 23.3505 87.7938 23.345ZM87.4196 15.3687C87.349 15.3629 87.278 15.3629 87.2074 15.3687C86.85 15.423 86.5109 15.5648 86.2191 15.7822C85.9272 15.9995 85.6915 16.2857 85.5319 16.6164C85.094 17.4519 84.9223 18.4058 85.0404 19.3455C85.2638 21.3851 86.5874 22.912 87.9948 22.7639C89.4022 22.6157 90.3684 20.8154 90.1506 18.7757C90.0626 17.8311 89.69 16.9374 89.0839 16.2176C88.8792 15.9662 88.6256 15.761 88.3391 15.6148C88.0526 15.4687 87.7395 15.3849 87.4196 15.3687Z" fill="#00E340"/>
<path d="M82.2313 19.6702L81.8292 19.277C82.3877 18.6617 83.7895 17.7672 84.9288 18.7643L84.5602 19.1973C83.5438 18.2971 82.2872 19.6189 82.2313 19.6702Z" fill="#00E340"/>
<path d="M63.7342 22.855L63.2092 22.6499C63.3042 22.4049 64.1642 20.2058 65.3873 19.8582C66.6104 19.5107 74.0997 19.4024 74.4236 19.3967V19.9665C72.2567 20.0006 66.4205 20.1545 65.5325 20.4052C64.6445 20.6558 63.9632 22.2853 63.7342 22.855Z" fill="#00E340"/>
<path d="M67.37 22.781C67.37 22.781 63.9856 18.5193 62.07 19.7842C60.1544 21.049 62.9189 27.3787 65.3204 28.0966C65.6225 28.21 65.9439 28.2599 66.2654 28.2435C66.5869 28.227 66.9018 28.1445 67.1913 28.0008C67.4808 27.8572 67.7388 27.6553 67.9499 27.4075C68.1611 27.1596 68.3209 26.8708 68.42 26.5583L67.37 22.781Z" fill="#AD6359"/>
<path d="M62.9077 21.5789C62.9017 21.5815 62.8966 21.5859 62.8931 21.5915C62.8895 21.597 62.8876 21.6035 62.8876 21.6102C62.8876 21.6169 62.8895 21.6234 62.8931 21.6289C62.8966 21.6345 62.9017 21.6389 62.9077 21.6415C64.5831 22.2113 65.5717 23.6926 66.2586 25.2594C65.728 24.6896 65.0411 24.382 64.2704 25.0315C64.2585 25.0383 64.2498 25.0496 64.2462 25.0629C64.2425 25.0763 64.2442 25.0906 64.2508 25.1027C64.2575 25.1148 64.2686 25.1237 64.2817 25.1274C64.2948 25.1311 64.3088 25.1294 64.3207 25.1226C64.606 25.0007 64.9219 24.9742 65.2229 25.0469C65.5239 25.1196 65.7946 25.2877 65.9961 25.5271C66.3278 25.917 66.6163 26.3431 66.8562 26.7976C66.9455 26.9401 67.2024 26.8432 67.1354 26.678V26.6381C67.0014 24.5016 65.1696 21.6301 62.9077 21.5789Z" fill="#263238"/>
<mask id="mask2_216_2" style="mask-type:luminance" maskUnits="userSpaceOnUse" x="55" y="0" width="40" height="44">
<path d="M94.423 38.8076H92.809C92.6471 36.7053 91.3402 33.492 91.6921 35.1158C91.9017 36.334 91.9729 37.5728 91.9043 38.8076H86.8779C85.3746 40.1156 83.6783 41.1731 81.8516 41.9412C80.7813 42.397 79.6703 42.7462 78.5342 42.9838C77.239 43.2728 75.917 43.418 74.5913 43.4168C73.0496 43.417 71.5136 43.2257 70.0173 42.8471C68.1469 42.3732 66.3606 41.6042 64.7228 40.5681C63.8734 40.0497 63.0699 39.4569 62.3214 38.7962H60.6459C60.5754 38.2295 60.5586 37.6571 60.5956 37.087C60.4281 36.8876 60.2661 36.6996 60.1042 36.5173C59.9255 37.3491 59.797 38.1809 59.7076 38.7962H56.7533C56.7193 36.7531 57.0408 34.7199 57.7027 32.7912C55.8861 29.116 55.2682 24.9447 55.9394 20.886C56.6105 16.8273 58.5354 13.0936 61.4334 10.2297C63.0697 7.27846 65.393 5.87691 65.9403 5.35845H65.9683C69.5146 0.111188 75.7082 -0.720625 80.433 1.06834L80.5559 1.10823C85.6381 2.8972 89.2124 7.91657 89.8546 12.0187C89.8937 12.3092 89.9328 12.5884 89.9719 12.8619C91.5644 15.1174 92.6591 17.698 93.1807 20.4263C93.7023 23.1545 93.6384 25.9657 92.9933 28.6663C94.6744 33.3154 94.423 38.8076 94.423 38.8076Z" fill="white"/>
</mask>
<g mask="url(#mask2_216_2)">
<path d="M83.6721 43.3655C83.4543 44.4366 81.5666 47.8209 78.3441 49.0002C74.1555 50.5442 66.32 45.6958 62.3547 42.9439L62.2821 42.887C63.0408 42.0502 63.8604 41.2732 64.7339 40.5624C66.3716 41.5986 68.158 42.3675 70.0283 42.8414C71.5246 43.22 73.0606 43.4113 74.6023 43.4111C75.928 43.4123 77.25 43.2671 78.5452 42.9781C79.6813 42.7405 80.7923 42.3913 81.8626 41.9355C82.493 42.3752 83.0972 42.8527 83.6721 43.3655Z" fill="#1E1E1E"/>
<path d="M78.5456 42.9553C78.5065 44.8468 78.2775 46.6984 77.6073 46.7725C74.8707 47.0916 71.8829 44.7613 70.0287 42.8185C71.525 43.1972 73.061 43.3885 74.6027 43.3883C75.9284 43.3894 77.2504 43.2443 78.5456 42.9553Z" fill="#DD6A57"/>
</g>
</svg>
