<svg width="49" height="49" viewBox="0 0 49 49" fill="none" xmlns="http://www.w3.org/2000/svg">
<path d="M24.2592 0H24.1497C10.8948 0 0.149567 10.7484 0.149567 24.0072V24.1168C0.149567 37.3756 10.8948 48.124 24.1497 48.124H24.2592C37.5141 48.124 48.2594 37.3756 48.2594 24.1168V24.0072C48.2594 10.7484 37.5141 0 24.2592 0Z" fill="#383D38"/>
<path d="M36.2433 13.0142C34.0285 11.9976 31.6553 11.249 29.1726 10.8207C29.1271 10.8123 29.0815 10.8325 29.0596 10.8747C28.7545 11.4176 28.4157 12.1274 28.1798 12.6838C25.5099 12.2842 22.8535 12.2842 20.2376 12.6838C20 12.1139 19.6494 11.4176 19.3426 10.8747C19.319 10.8342 19.2735 10.814 19.2297 10.8207C16.7486 11.249 14.3737 11.9976 12.1589 13.0142C12.1404 13.0227 12.1235 13.0362 12.1117 13.0547C7.60801 19.7853 6.37418 26.3506 6.97928 32.8351C6.98265 32.8671 6.99951 32.8974 7.02479 32.916C9.99637 35.0994 12.8753 36.4246 15.7002 37.303C15.7457 37.3165 15.7929 37.2996 15.8216 37.2626C16.489 36.3504 17.0857 35.3877 17.5964 34.3744C17.6268 34.3154 17.5964 34.2446 17.5357 34.221C16.5901 33.8618 15.6917 33.4252 14.8254 32.9295C14.7563 32.889 14.7513 32.7912 14.8136 32.744C14.9957 32.6074 15.1777 32.4658 15.3513 32.3225C15.3833 32.2955 15.4271 32.2905 15.4642 32.3073C21.1495 34.9038 27.305 34.9038 32.9229 32.3073C32.9599 32.2888 33.0037 32.2955 33.0358 32.3208C33.2094 32.4641 33.3914 32.6074 33.5751 32.744C33.6375 32.7912 33.6342 32.889 33.565 32.9295C32.7004 33.4353 31.8003 33.8635 30.853 34.221C30.7907 34.2446 30.7637 34.3154 30.794 34.3761C31.3165 35.386 31.9115 36.3487 32.5672 37.2626C32.5942 37.3013 32.643 37.3182 32.6885 37.3047C35.527 36.4263 38.4058 35.1011 41.3774 32.9177C41.4027 32.8991 41.4196 32.8688 41.4229 32.8384C42.1477 25.3424 40.2094 18.831 36.2871 13.0581C36.277 13.0395 36.2619 13.0244 36.2416 13.0159L36.2433 13.0142ZM18.4425 28.8864C16.73 28.8864 15.321 27.315 15.321 25.3846C15.321 23.4541 16.7047 21.8827 18.4425 21.8827C20.1803 21.8827 21.5928 23.4692 21.5641 25.3846C21.5641 27.315 20.1803 28.8864 18.4425 28.8864ZM29.9866 28.8864C28.2742 28.8864 26.8651 27.315 26.8651 25.3846C26.8651 23.4541 28.2489 21.8827 29.9866 21.8827C31.7244 21.8827 33.1369 23.4692 33.1082 25.3846C33.1082 27.315 31.7396 28.8864 29.9866 28.8864Z" fill="white"/>
</svg>
