<svg width="49" height="49" viewBox="0 0 49 49" fill="none" xmlns="http://www.w3.org/2000/svg">
<path d="M48.1082 24.0628C48.1082 36.2157 39.1024 46.2626 27.4032 47.893C26.3093 48.0448 25.1901 48.124 24.0541 48.124C22.7427 48.124 21.455 48.0195 20.201 47.8172C8.74786 45.9727 0 36.0386 0 24.0628C0 10.7737 10.7705 0 24.0558 0C37.341 0 48.1115 10.7737 48.1115 24.0628H48.1082Z" fill="#383D38"/>
<path d="M27.4032 19.3222V24.564H33.8857L32.8592 31.625H27.4032V47.8934C26.3093 48.0452 25.1901 48.1244 24.0541 48.1244C22.7427 48.1244 21.455 48.0199 20.201 47.8176V31.625H14.2224V24.564H20.201V18.1504C20.201 14.1714 23.4254 10.9443 27.4049 10.9443V10.9477C27.4167 10.9477 27.4268 10.9443 27.4386 10.9443H33.8874V17.0511H29.6736C28.4213 17.0511 27.4049 18.0678 27.4049 19.3205L27.4032 19.3222Z" fill="white"/>
</svg>
