<svg width="493" height="420" viewBox="0 0 493 420" fill="none" xmlns="http://www.w3.org/2000/svg">
<path d="M0 350.211L61.5638 349.945L123.128 349.86L246.255 349.68L369.383 349.85L430.947 349.945L492.511 350.211L430.947 350.466L369.383 350.561L246.255 350.741L123.128 350.561L61.5638 350.466L0 350.211Z" fill="#263238"/>
<path d="M289 237.655C290.401 241.721 288.872 248.27 292.067 248.132C294.912 248.036 295.528 243.43 295.528 243.43C295.528 243.43 296.515 248.843 299.54 247.877C302.565 246.911 302.225 241.721 302.225 241.721C302.225 241.721 302.841 246.264 305.792 245.085C308.743 243.907 309.263 239.438 309.263 239.438C309.263 239.438 310.324 240.617 312.044 238.844C314.496 236.307 313.455 228.75 311.969 224.929C310.483 221.107 302.247 208.232 300.952 206.279L276.369 215.577C276.369 215.577 275.87 223.58 276.114 227.667C276.358 231.754 280.89 245 284.255 244.098C287.62 243.196 284.255 233.898 283.926 231.435C283.597 228.973 284.117 228.484 285.125 229.482C285.784 230.161 288.384 235.893 289 237.655Z" fill="#F7A9A0"/>
<path d="M295.453 243.228C295.857 236.753 294.923 233.845 291.855 228.23C291.791 228.123 291.94 228.007 292.014 228.123C295.517 233.335 297.226 236.817 295.761 243.27C295.697 243.578 295.432 243.536 295.453 243.228Z" fill="#263238"/>
<path d="M302.14 242.028C301.981 235.256 300.983 232.093 298.213 225.979C298.213 225.894 298.309 225.82 298.362 225.905C301.546 231.669 303.213 235.182 302.48 241.965C302.448 242.273 302.151 242.336 302.14 242.028Z" fill="#263238"/>
<path d="M309.199 239.396C308.573 232.858 307.628 229.344 304.178 223.761C304.169 223.749 304.163 223.734 304.159 223.719C304.156 223.704 304.155 223.689 304.158 223.673C304.16 223.658 304.166 223.643 304.174 223.63C304.182 223.617 304.192 223.606 304.205 223.597C304.218 223.587 304.232 223.581 304.247 223.577C304.262 223.574 304.277 223.573 304.293 223.576C304.308 223.578 304.323 223.584 304.336 223.592C304.349 223.6 304.36 223.611 304.369 223.623C308.456 228.93 309.677 233.346 309.401 239.364C309.38 239.778 309.242 239.778 309.199 239.396Z" fill="#263238"/>
<path d="M259.821 129.515C276.39 150.022 298.818 200.282 301.504 207.436C303.329 212.297 277.855 222.519 277.09 219.027C276.135 214.569 259.481 159.055 255.564 138.357C253.431 126.872 256.392 125.28 259.821 129.515Z" fill="#F7A9A0"/>
<path d="M255.363 143.569C258.09 162.516 274.373 215.078 274.373 215.078L293.681 207.733L303.425 204.018C303.425 204.018 275.827 151.53 264.226 134.143C263.323 132.806 262.495 131.649 261.731 130.683C254.407 121.363 253.261 128.974 255.363 143.569Z" fill="#00E340"/>
<path d="M293.798 198.605C293.443 197.262 293.443 195.85 293.798 194.508C294.152 195.85 294.152 197.262 293.798 198.605Z" fill="black"/>
<path d="M258.727 132.328C258.54 131.658 258.451 130.964 258.462 130.269C258.451 129.577 258.54 128.887 258.727 128.22C258.909 128.888 258.999 129.577 258.993 130.269C258.999 130.964 258.909 131.657 258.727 132.328Z" fill="black"/>
<path d="M280.328 188.118C281.671 187.764 283.082 187.764 284.425 188.118C283.082 188.472 281.671 188.472 280.328 188.118Z" fill="black"/>
<path d="M270.308 161.9C271.654 161.546 273.069 161.546 274.415 161.9C273.75 162.092 273.059 162.181 272.367 162.165C271.671 162.177 270.978 162.087 270.308 161.9Z" fill="black"/>
<path d="M285.879 176.94C285.278 176.598 284.728 176.172 284.244 175.677C283.746 175.197 283.32 174.646 282.981 174.043C284.179 174.745 285.177 175.743 285.879 176.94Z" fill="black"/>
<path d="M265.552 144.747C264.951 144.404 264.401 143.979 263.918 143.484C263.419 143.004 262.994 142.453 262.655 141.849C263.258 142.188 263.809 142.614 264.289 143.112C264.784 143.596 265.21 144.146 265.552 144.747Z" fill="black"/>
<path d="M271.645 197.724C270.441 197.026 269.439 196.027 268.737 194.826C269.344 195.165 269.898 195.59 270.382 196.089C270.874 196.575 271.299 197.125 271.645 197.724Z" fill="black"/>
<path d="M272.367 176.091C272.021 176.694 271.596 177.247 271.104 177.737C270.617 178.233 270.063 178.658 269.459 179C270.157 177.792 271.159 176.789 272.367 176.091Z" fill="black"/>
<path d="M285.125 204.75C284.427 205.954 283.429 206.956 282.228 207.659C282.567 207.052 282.993 206.498 283.491 206.014C283.974 205.519 284.524 205.093 285.125 204.75Z" fill="black"/>
<path d="M264.098 152.018C263.396 153.216 262.398 154.213 261.201 154.916C261.903 153.718 262.9 152.72 264.098 152.018Z" fill="black"/>
<path d="M273.301 209.41C284.765 204.007 297.619 200.08 299.837 199.231C299.848 199.227 299.86 199.226 299.872 199.227C299.883 199.228 299.895 199.232 299.905 199.237C299.915 199.242 299.924 199.25 299.932 199.259C299.939 199.268 299.945 199.278 299.949 199.289C299.952 199.3 299.953 199.312 299.952 199.324C299.951 199.335 299.948 199.347 299.942 199.357C299.937 199.367 299.93 199.377 299.921 199.384C299.912 199.392 299.901 199.397 299.89 199.401C297.693 200.122 283.491 206.205 273.354 209.591C273.237 209.633 273.195 209.463 273.301 209.41Z" fill="#263238"/>
<path d="M291.802 208.444L274.373 215.078C274.373 215.078 258.09 162.516 255.363 143.569C253.983 134.016 254.004 127.435 256.244 126.681L291.802 208.444Z" fill="#263238"/>
<path d="M241.543 353.597C241.543 353.597 241.543 392.754 241.543 392.785C241.543 400.269 241.606 406.839 241.967 410.225C241.962 410.246 241.962 410.268 241.967 410.289C241.97 411.091 242.155 411.882 242.508 412.603C244.727 414.131 304.571 416.18 306.683 415.543C308.796 414.906 307.161 408.845 304.9 406.913C302.639 404.981 280.073 393.953 280.073 393.953L279.691 354.807L241.543 353.597Z" fill="#DD6A57"/>
<path d="M241.553 384.74V392.786C241.553 400.269 241.617 406.839 241.978 410.225C241.973 410.246 241.973 410.268 241.978 410.289C242.066 411.079 242.248 411.855 242.519 412.603C244.737 414.131 304.582 416.18 306.694 415.543C308.806 414.906 307.172 408.845 304.911 406.913C302.65 404.982 280.084 393.953 280.084 393.953L280.19 385.791L241.553 384.74Z" fill="#00E340"/>
<path d="M306.758 415.585C304.635 416.222 244.812 414.174 242.583 412.645C241.723 412.083 241.521 403.347 241.521 392.786V392.457L280.137 393.338V393.996C280.137 393.996 302.692 405.024 304.964 406.956C307.235 408.888 308.881 414.97 306.758 415.585Z" fill="#00E340"/>
<path d="M306.153 413.25C296.069 412.656 255.363 411.212 245.364 411.393C245.279 411.393 245.279 411.446 245.364 411.456C255.341 412.263 296.058 413.367 306.153 413.409C306.354 413.409 306.365 413.261 306.153 413.25Z" fill="#263238"/>
<path d="M283.406 394.229C279.468 393.348 274.596 393.794 271.465 396.511C271.337 396.617 271.465 396.787 271.624 396.755C275.446 395.667 279.375 394.994 283.342 394.749C283.411 394.758 283.481 394.738 283.535 394.696C283.59 394.653 283.626 394.59 283.634 394.521C283.643 394.452 283.623 394.383 283.581 394.328C283.538 394.273 283.475 394.238 283.406 394.229Z" fill="#263238"/>
<path d="M286.187 396.044C282.238 395.174 277.366 395.619 274.235 398.337C274.118 398.443 274.235 398.613 274.394 398.581C278.23 397.481 282.173 396.802 286.155 396.554C286.223 396.558 286.289 396.535 286.34 396.49C286.391 396.445 286.422 396.382 286.426 396.315C286.43 396.247 286.407 396.181 286.362 396.13C286.318 396.079 286.254 396.048 286.187 396.044Z" fill="#263238"/>
<path d="M288.989 397.87C285.051 397 280.169 397.445 277.037 400.163C276.921 400.269 277.037 400.439 277.207 400.407C281.039 399.306 284.979 398.627 288.957 398.379C289.025 398.384 289.091 398.361 289.142 398.316C289.193 398.271 289.224 398.208 289.228 398.141C289.232 398.073 289.209 398.007 289.165 397.956C289.12 397.905 289.057 397.874 288.989 397.87Z" fill="#263238"/>
<path d="M238.114 208.391L239.611 325.437L240.492 394.431L282.376 393.603L274.182 206.056L273.768 184.583H238.401L238.114 208.391Z" fill="#181818"/>
<path d="M280.625 386.608C274.086 386.555 275.955 386.481 269.416 386.491C266.232 386.491 245.183 386.576 242.201 387.107C242.184 387.107 242.168 387.113 242.156 387.125C242.144 387.137 242.137 387.154 242.137 387.17C242.137 387.187 242.144 387.204 242.156 387.216C242.168 387.227 242.184 387.234 242.201 387.234C245.194 387.701 266.221 387.234 269.416 387.234C275.955 387.086 274.076 387.054 280.614 386.841C280.63 386.842 280.645 386.84 280.659 386.835C280.674 386.829 280.687 386.821 280.698 386.811C280.71 386.801 280.719 386.788 280.725 386.774C280.732 386.76 280.736 386.745 280.736 386.73C280.737 386.715 280.735 386.699 280.73 386.685C280.724 386.67 280.716 386.657 280.706 386.646C280.696 386.635 280.683 386.625 280.669 386.619C280.655 386.612 280.64 386.609 280.625 386.608Z" fill="#263238"/>
<path d="M261.965 215.62C261.965 215.535 262.103 215.535 262.103 215.62C262.103 226.563 262.442 237.517 262.708 248.461C262.973 259.404 263.292 270.358 263.589 281.312C264.183 303.189 265.064 325.065 265.871 346.942C266.324 359.212 266.89 371.479 267.569 383.742C267.569 383.816 267.452 383.816 267.442 383.742C265.86 361.887 264.332 340.032 263.472 318.134C262.612 296.236 261.975 274.371 261.869 252.473C261.816 240.192 261.986 227.911 261.965 215.62Z" fill="#263238"/>
<path d="M238.114 208.391L239.611 325.437L267.686 184.583H238.401L238.114 208.391Z" fill="#263238"/>
<path d="M233.21 354.765C233.21 354.765 228.211 392.096 228.211 392.117C228.211 399.611 227.988 406.17 227.584 409.567C227.589 409.584 227.589 409.603 227.584 409.62C227.573 410.421 227.381 411.208 227.022 411.923V411.977C224.782 413.473 164.917 414.832 162.815 414.174C160.713 413.516 162.412 407.476 164.694 405.565C166.976 403.655 189.67 392.892 189.67 392.892L195.953 353.777L233.21 354.765Z" fill="#DD6A57"/>
<path d="M228.848 384.135C228.455 388.816 228.19 392.127 228.19 392.149C228.19 399.642 227.967 406.202 227.563 409.599C227.567 409.616 227.567 409.634 227.563 409.652C227.467 410.439 227.278 411.212 227.001 411.955V412.008C224.761 413.505 164.896 414.864 162.794 414.206C160.692 413.547 162.391 407.508 164.673 405.597C166.955 403.687 189.648 392.924 189.648 392.924L190.391 384.665L228.848 384.135Z" fill="#00E340"/>
<path d="M162.741 414.174C164.864 414.832 224.697 413.473 226.948 411.977C227.807 411.414 228.115 402.689 228.19 392.117V391.788L189.564 392.234V392.892C189.564 392.892 166.88 403.655 164.588 405.565C162.295 407.476 160.629 413.526 162.741 414.174Z" fill="#00E340"/>
<path d="M163.367 411.838C173.451 411.361 214.168 410.395 224.167 410.681C224.252 410.681 224.252 410.745 224.167 410.745C214.178 411.435 173.451 412.083 163.356 412.008C163.155 411.998 163.155 411.849 163.367 411.838Z" fill="#263238"/>
<path d="M185.265 392.446C189.224 391.618 194.096 392.117 197.195 394.876C197.312 394.983 197.195 395.152 197.026 395.11C193.203 393.985 189.271 393.273 185.297 392.987C185.225 392.991 185.154 392.967 185.1 392.919C185.047 392.871 185.014 392.804 185.01 392.732C185.006 392.661 185.03 392.59 185.078 392.536C185.126 392.483 185.193 392.45 185.265 392.446Z" fill="#263238"/>
<path d="M182.441 394.24C186.4 393.401 191.262 393.9 194.361 396.66C194.489 396.777 194.361 396.936 194.202 396.904C190.38 395.779 186.447 395.067 182.473 394.781C182.438 394.783 182.402 394.778 182.368 394.767C182.335 394.755 182.304 394.737 182.277 394.713C182.25 394.689 182.229 394.661 182.213 394.629C182.198 394.597 182.189 394.562 182.187 394.526C182.184 394.491 182.189 394.455 182.201 394.422C182.213 394.388 182.231 394.357 182.255 394.33C182.278 394.304 182.307 394.282 182.339 394.267C182.371 394.251 182.406 394.242 182.441 394.24Z" fill="#263238"/>
<path d="M179.618 396.033C183.566 395.195 188.438 395.694 191.538 398.454C191.655 398.56 191.538 398.73 191.379 398.698C187.553 397.572 183.617 396.86 179.639 396.575C179.567 396.578 179.497 396.552 179.445 396.503C179.392 396.454 179.361 396.387 179.358 396.315C179.355 396.243 179.381 396.173 179.43 396.12C179.478 396.068 179.546 396.036 179.618 396.033Z" fill="#263238"/>
<path d="M270.17 184.583C270.021 185.315 267.548 196.79 264.979 206.65C263.111 213.847 261.2 220.184 260.097 220.831C258.993 221.479 252.773 224.26 250.735 225.077L241.447 313.973L228.986 393.942L187.197 391.756L220.706 184.583H270.17Z" fill="#181818"/>
<path d="M228.763 386.332C222.235 385.907 224.114 385.939 217.586 385.589C214.401 385.419 193.395 384.304 190.381 384.665C190.364 384.665 190.348 384.672 190.336 384.684C190.324 384.696 190.317 384.712 190.317 384.729C190.317 384.746 190.324 384.762 190.336 384.774C190.348 384.786 190.364 384.793 190.381 384.793C193.342 385.43 214.359 386.173 217.554 386.279C224.092 386.512 222.224 386.374 228.752 386.523C228.765 386.524 228.777 386.522 228.789 386.518C228.801 386.513 228.812 386.507 228.821 386.499C228.831 386.49 228.838 386.48 228.844 386.469C228.849 386.457 228.852 386.445 228.853 386.433C228.854 386.42 228.852 386.408 228.848 386.396C228.844 386.384 228.837 386.373 228.829 386.364C228.82 386.354 228.81 386.347 228.799 386.341C228.788 386.336 228.775 386.333 228.763 386.332Z" fill="#263238"/>
<path d="M204.859 363.543C205.878 357.832 206.908 352.122 207.948 346.411C210.071 334.983 212.194 323.562 214.316 312.148C218.605 289.291 222.85 266.428 227.054 243.557C229.41 230.629 229.346 231.881 231.395 218.868C231.395 218.783 231.554 218.793 231.544 218.868C229.569 230.395 230.482 227.869 228.646 239.417C226.81 250.966 224.846 262.27 222.797 273.67C218.69 296.576 214.38 319.44 210.06 342.303C208.843 348.714 207.605 355.118 206.345 361.515C205.071 368.054 203.617 374.539 202.269 381.057C202.269 381.205 202.014 381.184 202.035 381.057C202.906 375.219 203.798 369.37 204.859 363.543Z" fill="#263238"/>
<path d="M216.132 219.717C217.193 219.441 218.392 219.345 219.507 219.176C220.409 219.027 221.311 218.868 222.203 218.677C223.912 218.368 225.532 217.686 226.948 216.681C228.366 215.374 229.425 213.726 230.026 211.894C230.472 210.833 230.928 209.771 231.395 208.784C231.618 208.285 231.841 207.786 232.074 207.287C232.392 206.706 232.675 206.107 232.924 205.494C232.924 205.398 233.093 205.494 233.051 205.494C232.881 205.907 232.807 206.364 232.679 206.788C232.552 207.213 232.382 207.85 232.223 208.296C231.947 209.198 231.671 210.09 231.385 210.981C230.937 212.619 230.296 214.198 229.474 215.683C227.829 218.316 224.878 219.367 221.927 219.738C221.088 219.844 220.229 219.908 219.38 219.961C218.32 220.05 217.255 220.05 216.195 219.961C216.004 219.993 215.951 219.759 216.132 219.717Z" fill="#263238"/>
<path d="M263.323 219.229C258.986 220.801 254.795 222.751 250.798 225.056C250.782 225.064 250.767 225.075 250.754 225.088C250.742 225.102 250.732 225.117 250.725 225.135C250.719 225.152 250.716 225.17 250.717 225.189C250.717 225.207 250.722 225.225 250.729 225.242C250.737 225.258 250.748 225.274 250.761 225.286C250.775 225.299 250.791 225.308 250.808 225.315C250.825 225.321 250.844 225.324 250.862 225.323C250.88 225.323 250.898 225.318 250.915 225.311C255.161 223.506 259.407 221.765 263.546 219.728C263.603 219.692 263.644 219.638 263.663 219.574C263.683 219.51 263.678 219.442 263.651 219.381C263.624 219.321 263.576 219.272 263.516 219.244C263.456 219.216 263.387 219.21 263.323 219.229Z" fill="#263238"/>
<path d="M264.586 190.336C264.586 190.187 264.321 190.156 264.321 190.336C264.32 195.04 264.083 199.741 263.61 204.421C263.419 206.597 261.668 218.602 257.899 217.732C257.273 217.583 256.955 216.968 256.838 216.012C256.857 214.769 257.024 213.533 257.337 212.329C257.761 209.814 258.09 207.298 258.313 204.751C258.754 200.024 258.701 195.264 258.154 190.548C258.146 190.522 258.13 190.499 258.108 190.483C258.086 190.466 258.059 190.457 258.032 190.457C258.005 190.457 257.978 190.466 257.956 190.483C257.934 190.499 257.918 190.522 257.91 190.548C258.028 197.107 257.645 203.664 256.764 210.164C256.297 213.285 254.726 217.987 257.984 218.475C261.243 218.963 263.472 211.045 263.875 208.922C264.918 202.784 265.157 196.536 264.586 190.336Z" fill="#263238"/>
<path d="M258.006 218.029C257.669 218.841 257.385 219.675 257.156 220.524C256.914 221.179 256.795 221.874 256.806 222.572C256.806 222.7 256.997 222.71 257.061 222.572C257.444 221.986 257.738 221.345 257.931 220.672C258.218 219.908 258.515 219.144 258.78 218.369C258.815 218.268 258.81 218.158 258.767 218.061C258.724 217.964 258.646 217.886 258.549 217.843C258.451 217.801 258.342 217.796 258.241 217.831C258.14 217.865 258.056 217.936 258.006 218.029Z" fill="#263238"/>
<path d="M214.89 204.464C215.038 204.623 277.918 202.638 278.47 201.98C279.234 201.035 265.733 138.591 255.118 125.365C252.444 122.064 243.443 121.119 239.908 124.834C229.665 135.449 227.818 143.07 225.366 150.15C223.551 155.383 221.492 164.278 219.687 173.374C216.673 188.362 214.348 203.891 214.89 204.464Z" fill="#00E340"/>
<path d="M259.088 189.593C258.901 188.927 258.812 188.237 258.823 187.545C258.806 186.852 258.896 186.161 259.088 185.496C259.442 186.839 259.442 188.25 259.088 189.593Z" fill="black"/>
<path d="M251.775 160.807C251.593 160.139 251.504 159.45 251.509 158.758C251.504 158.063 251.593 157.37 251.775 156.699C251.962 157.369 252.051 158.062 252.04 158.758C252.051 159.45 251.962 160.14 251.775 160.807Z" fill="black"/>
<path d="M232.043 149.417C231.855 148.751 231.766 148.061 231.777 147.369C231.766 146.673 231.855 145.98 232.043 145.31C232.23 145.98 232.319 146.673 232.308 147.369C232.314 148.061 232.225 148.75 232.043 149.417Z" fill="black"/>
<path d="M232.308 183.999C231.954 182.656 231.954 181.245 232.308 179.902C232.495 180.568 232.585 181.258 232.573 181.951C232.579 182.642 232.49 183.332 232.308 183.999Z" fill="black"/>
<path d="M243.867 178.437C245.21 178.083 246.621 178.083 247.964 178.437C246.621 178.791 245.21 178.791 243.867 178.437Z" fill="black"/>
<path d="M229.272 161.422C230.619 161.068 232.034 161.068 233.38 161.422C232.034 161.776 230.619 161.776 229.272 161.422Z" fill="black"/>
<path d="M249.726 142.125C250.393 141.938 251.083 141.849 251.775 141.86C252.467 141.843 253.158 141.932 253.823 142.125C252.481 142.479 251.069 142.479 249.726 142.125Z" fill="black"/>
<path d="M227.712 196.821C229.058 196.467 230.473 196.467 231.82 196.821C230.473 197.175 229.058 197.175 227.712 196.821Z" fill="black"/>
<path d="M255.936 200.133C256.607 199.951 257.3 199.862 257.995 199.868C258.687 199.862 259.376 199.951 260.044 200.133C259.377 200.32 258.687 200.41 257.995 200.398C257.299 200.41 256.606 200.32 255.936 200.133Z" fill="black"/>
<path d="M247.37 196.821C246.763 196.482 246.209 196.056 245.725 195.558C245.23 195.075 244.804 194.525 244.461 193.924C245.068 194.262 245.623 194.688 246.107 195.187C246.599 195.673 247.024 196.222 247.37 196.821Z" fill="black"/>
<path d="M225.992 173.969C224.789 173.27 223.787 172.272 223.084 171.071C223.69 171.41 224.245 171.836 224.729 172.334C225.224 172.817 225.649 173.368 225.992 173.969Z" fill="black"/>
<path d="M260.171 171.495C258.97 170.793 257.971 169.791 257.273 168.587C257.874 168.93 258.424 169.355 258.908 169.85C259.407 170.334 259.832 170.888 260.171 171.495Z" fill="black"/>
<path d="M243.867 150.903C242.663 150.205 241.661 149.207 240.959 148.006C241.566 148.344 242.12 148.77 242.604 149.269C243.096 149.755 243.521 150.304 243.867 150.903Z" fill="black"/>
<path d="M271.645 197.724C270.441 197.026 269.439 196.027 268.737 194.826C269.344 195.165 269.898 195.59 270.382 196.089C270.874 196.575 271.299 197.125 271.645 197.724Z" fill="black"/>
<path d="M272.367 176.091C272.021 176.694 271.596 177.247 271.104 177.737C270.617 178.233 270.063 178.658 269.459 179C270.157 177.792 271.159 176.789 272.367 176.091Z" fill="black"/>
<path d="M242.01 167.77C241.307 168.967 240.31 169.965 239.112 170.667C239.451 170.064 239.876 169.513 240.375 169.033C240.858 168.538 241.409 168.113 242.01 167.77Z" fill="black"/>
<path d="M220.706 187.704C220.004 188.901 219.006 189.899 217.809 190.601C218.511 189.404 219.509 188.406 220.706 187.704Z" fill="black"/>
<path d="M264.098 152.018C263.396 153.216 262.398 154.213 261.201 154.916C261.903 153.718 262.9 152.72 264.098 152.018Z" fill="black"/>
<path d="M240.555 135.099C240.213 135.703 239.788 136.257 239.292 136.744C238.806 137.236 238.257 137.661 237.658 138.007C237.997 137.4 238.423 136.846 238.921 136.362C239.404 135.867 239.954 135.441 240.555 135.099Z" fill="black"/>
<path d="M252.04 133.283C249.44 133.793 243.251 129.706 240.502 125.853C240.31 123.548 240.235 121.235 240.279 118.922C240.216 116.693 240.088 114.23 239.802 111.98C239.802 111.513 241.426 112.171 241.426 112.171L244.419 112.511L254.322 113.657C253.869 116.564 253.773 119.516 254.036 122.446C254.076 122.757 254.148 123.062 254.248 123.359C254.248 123.359 254.248 123.454 254.248 123.508C254.747 125.27 256.116 132.477 252.04 133.283Z" fill="#F7A9A0"/>
<path d="M254.248 123.401C254.248 123.401 254.248 123.497 254.248 123.55C253.775 123.674 253.292 123.759 252.804 123.805C243.251 124.771 240.608 112.861 240.608 112.861L244.377 112.553L254.28 113.7C253.827 116.607 253.731 119.558 253.993 122.488C254.048 122.8 254.133 123.106 254.248 123.401Z" fill="#263238"/>
<path d="M237.191 93.0016C235.662 98.0434 238.358 112.585 241.946 115.823C247.158 120.514 255.66 120.939 259.63 114.687C263.493 108.626 259.63 89.7429 255.638 86.8027C249.726 82.472 239.441 85.5608 237.191 93.0016Z" fill="#F7A9A0"/>
<path d="M250.045 100.846C250.045 100.846 249.981 100.909 250.045 100.952C250.299 101.918 250.416 103.075 249.62 103.584C249.62 103.584 249.62 103.648 249.62 103.637C250.618 103.244 250.437 101.716 250.045 100.846Z" fill="#263238"/>
<path d="M248.951 100.028C247.359 100.262 247.943 103.425 249.418 103.213C250.894 103 250.289 99.8372 248.951 100.028Z" fill="#263238"/>
<path d="M255.808 99.5719C255.808 99.5719 255.893 99.5719 255.893 99.6462C256.042 100.633 256.382 101.769 257.326 101.896V101.95C256.222 102.003 255.808 100.538 255.808 99.5719Z" fill="#263238"/>
<path d="M256.488 98.3937C258.048 97.9797 258.749 101.111 257.316 101.493C255.883 101.875 255.193 98.7334 256.488 98.3937Z" fill="#263238"/>
<path d="M247.434 98.8182C247.848 98.6271 248.198 98.383 248.58 98.1601C248.962 97.9372 249.397 97.7355 249.641 97.2579C249.693 97.1173 249.696 96.9635 249.65 96.8211C249.603 96.6787 249.511 96.5559 249.387 96.4724C249.115 96.3428 248.814 96.2873 248.514 96.3116C248.213 96.3358 247.925 96.4389 247.678 96.6104C247.128 96.8841 246.7 97.3536 246.478 97.9266C246.436 98.057 246.432 98.1968 246.467 98.3295C246.501 98.4621 246.572 98.5823 246.673 98.6758C246.773 98.7694 246.898 98.8324 247.032 98.8576C247.167 98.8828 247.306 98.8692 247.434 98.8182Z" fill="#263238"/>
<path d="M257.358 96.9501C256.912 96.9501 256.488 96.897 256.042 96.8652C255.58 96.8821 255.125 96.7479 254.747 96.483C254.639 96.3768 254.57 96.2383 254.549 96.0888C254.528 95.9392 254.556 95.7869 254.63 95.6551C254.817 95.4202 255.063 95.2394 255.343 95.1312C255.622 95.0229 255.926 94.9913 256.222 95.0395C256.838 95.0381 257.431 95.2737 257.878 95.6976C257.987 95.7978 258.063 95.929 258.095 96.0736C258.126 96.2182 258.113 96.3691 258.056 96.5058C258 96.6425 257.902 96.7585 257.777 96.838C257.652 96.9174 257.506 96.9566 257.358 96.9501Z" fill="#263238"/>
<path d="M250.83 110.101C251.106 110.292 251.393 110.568 251.754 110.526C252.116 110.452 252.46 110.304 252.762 110.091C252.762 110.091 252.826 110.091 252.815 110.091C252.71 110.308 252.548 110.493 252.346 110.626C252.144 110.758 251.91 110.834 251.669 110.844C251.461 110.828 251.263 110.751 251.098 110.623C250.934 110.494 250.811 110.32 250.745 110.123C250.745 110.123 250.788 110.08 250.83 110.101Z" fill="#263238"/>
<path d="M251.308 106.981C251.63 107.32 252.019 107.59 252.45 107.772C252.881 107.955 253.345 108.047 253.813 108.042C254.223 108.049 254.631 107.992 255.023 107.872C255.1 107.862 255.175 107.841 255.246 107.809L255.458 107.734C255.508 107.715 255.551 107.68 255.578 107.633C255.605 107.587 255.615 107.533 255.607 107.48C255.612 107.448 255.612 107.416 255.607 107.384V107.299C255.49 106.546 255.203 105.41 255.203 105.41C255.501 105.495 257.029 105.866 256.933 105.484C256.204 102.099 255.138 98.7955 253.749 95.6233C253.741 95.5994 253.723 95.5798 253.7 95.5688C253.677 95.5579 253.651 95.5565 253.627 95.5649C253.603 95.5733 253.584 95.591 253.573 95.6138C253.562 95.6367 253.56 95.663 253.569 95.687C254.216 98.8182 255.405 101.812 256.106 104.943C255.562 104.803 255 104.743 254.439 104.762C254.344 104.762 255.034 106.938 255.055 107.289C254.45 107.465 253.816 107.517 253.19 107.442C252.564 107.368 251.96 107.167 251.414 106.853C251.308 106.832 251.244 106.917 251.308 106.981Z" fill="#263238"/>
<path d="M254.503 107.586C254.193 108.2 253.728 108.723 253.155 109.103C252.839 109.306 252.467 109.403 252.093 109.379C251.276 109.316 251.117 108.605 251.149 107.957C251.167 107.618 251.228 107.283 251.329 106.959C252.294 107.498 253.405 107.717 254.503 107.586Z" fill="#263238"/>
<path d="M239.08 104.009C242.434 103.467 242.137 97.279 242.137 97.279C242.137 97.279 247.752 95.4427 247.911 90.974C247.911 90.974 253.93 93.617 257.984 91.388C262.039 89.159 260.383 84.4462 259.746 83.4802C259.109 82.5143 257.018 84.807 257.018 84.807C257.018 84.807 256.328 82.1004 255.543 81.9411C254.758 81.7819 254.227 83.5545 254.227 83.5545C250.642 82.9863 246.992 82.9612 243.4 83.4802C238.39 84.4037 236.692 89.8489 236.692 89.8489C236.692 89.8489 234.091 90.8361 233.507 92.8528C232.924 94.8696 236.946 104.348 239.08 104.009Z" fill="#263238"/>
<path d="M240.789 97.5445C245.332 97.449 247.837 94.0205 247.816 89.658H247.901C248.389 93.6596 245.364 98.659 240.778 97.7568C240.75 97.7554 240.724 97.7428 240.705 97.7219C240.686 97.701 240.676 97.6735 240.677 97.6453C240.679 97.6172 240.691 97.5907 240.712 97.5718C240.733 97.5529 240.761 97.5431 240.789 97.5445Z" fill="#263238"/>
<path d="M236.798 89.7642C236.798 89.7642 236.883 89.8172 236.798 89.8491C235.641 90.6133 234.282 91.2714 233.614 92.5451C232.764 94.0842 233.274 95.8462 233.911 97.3429C234.898 99.6674 236.639 102.65 239.016 103.712C239.154 103.775 239.016 103.977 238.91 103.924C236.087 102.799 233.943 98.9563 233.147 96.1647C232.255 93.0228 233.964 90.8999 236.798 89.7642Z" fill="#263238"/>
<path d="M252.985 91.4624C254.114 91.9067 255.344 92.0328 256.539 91.8269C257.735 91.6211 258.852 91.0911 259.768 90.2948C261.89 88.2887 260.946 85.6669 259.576 83.5758C259.513 83.4697 259.651 83.3317 259.746 83.4272C261.434 85.1892 262.018 88.1825 260.362 90.178C258.706 92.1736 255.214 92.7255 252.847 91.7596C252.624 91.6747 252.794 91.3775 252.985 91.4624Z" fill="#263238"/>
<path d="M240.322 104.858C240.322 104.858 236.936 100.23 234.824 101.451C232.711 102.671 235.344 109.433 237.87 110.303C238.186 110.438 238.526 110.508 238.87 110.508C239.214 110.509 239.555 110.439 239.871 110.304C240.188 110.169 240.473 109.972 240.711 109.724C240.949 109.475 241.135 109.181 241.256 108.859L240.322 104.858Z" fill="#F7A9A0"/>
<path d="M235.641 103.361C235.641 103.361 235.588 103.425 235.641 103.435C236.456 103.819 237.181 104.368 237.771 105.048C238.362 105.728 238.804 106.524 239.069 107.384C238.963 107.209 238.82 107.059 238.65 106.945C238.48 106.831 238.287 106.755 238.085 106.724C237.882 106.693 237.676 106.706 237.479 106.763C237.282 106.82 237.1 106.92 236.946 107.055C236.893 107.055 236.946 107.15 236.946 107.14C237.254 107.034 237.586 107.027 237.898 107.118C238.21 107.209 238.485 107.395 238.687 107.649C239.018 108.08 239.306 108.542 239.547 109.029C239.632 109.178 239.908 109.093 239.844 108.912C239.887 106.63 238.04 103.542 235.641 103.361Z" fill="#263238"/>
<path d="M254.482 124.272L251.934 133.082L240.332 123.423L237.689 127.159C237.689 127.159 249.705 143.155 249.684 142.38L252.444 134.727L257.995 139.302L256.307 126.564L254.482 124.272Z" fill="#EBEBEB"/>
<path d="M257.517 132.965C257.167 130.842 256.87 128.719 256.456 126.692C256.456 126.617 256.318 126.596 256.318 126.692C256.095 128.762 257.475 136.744 257.655 138.675C257.422 138.474 252.539 134.674 252.497 134.748C251.86 135.979 249.832 141.552 249.705 142.051C247.805 139.514 239.823 129.547 237.636 127.191C237.573 127.127 237.467 127.191 237.52 127.276C239.239 129.993 249.588 143.197 249.705 143.112C250.807 140.469 251.767 137.769 252.582 135.024C253.431 135.884 258.419 140.225 258.398 139.907C258.228 137.579 257.934 135.262 257.517 132.965Z" fill="#263238"/>
<path d="M229.782 133.22C224.655 127.912 213 108.201 213.255 96.5998C213.446 87.5457 218.063 62.5593 220.887 56.18C222.161 53.2823 241.405 65.7967 241.553 69.1827C241.702 72.5687 234.123 93.7127 233.231 98.9881C232.807 101.482 234.41 114.305 238.188 125.981C241.596 136.5 236.044 139.663 229.782 133.22Z" fill="#F7A9A0"/>
<path d="M219.475 61.4554C220.038 58.685 223.721 46.2448 225.568 43.018C227.415 39.7913 233.253 30.8645 235.864 31.9896C238.475 33.1148 236.925 35.8745 236.925 35.8745C236.925 35.8745 240.003 32.4991 242.53 33.879C245.056 35.2589 242.53 39.4622 242.53 39.4622C242.53 39.4622 245.948 36.2779 248.368 37.7851C250.788 39.2924 247.572 43.0923 247.572 43.0923C247.572 43.0923 250.565 39.9929 252.019 42.1158C253.77 44.6739 247.625 49.7688 245.894 53.4839C245.502 54.3331 239.154 71.1676 239.154 71.1676L219.475 61.4554Z" fill="#F7A9A0"/>
<path d="M247.932 42.7633C243.421 46.5208 242.094 48.9515 240.311 54.4392C240.311 54.5453 240.11 54.5241 240.141 54.4392C241.394 48.8878 242.615 45.6079 247.763 42.5616C248.007 42.3493 248.145 42.5828 247.932 42.7633Z" fill="#263238"/>
<path d="M242.976 39.1649C238.634 43.4744 237.169 46.0962 234.887 51.7218C234.887 51.7961 234.717 51.7218 234.739 51.6688C236.522 45.9688 237.817 42.7208 242.721 38.9314C242.944 38.7616 243.177 38.9208 242.976 39.1649Z" fill="#263238"/>
<path d="M236.862 36.1081C232.955 40.598 231.236 43.4002 229.718 49.1427C229.718 49.2806 229.474 49.2382 229.506 49.1427C230.075 43.978 232.662 39.2473 236.702 35.9807C236.989 35.7684 237.106 35.8321 236.862 36.1081Z" fill="#263238"/>
<path d="M240.205 75.3178C240.205 75.3178 245.778 70.2122 247.444 67.3569C249.111 64.5017 251.372 51.5414 248.601 50.8939C245.024 50.0554 242.232 57.2626 241.341 60.9883C241.341 60.9883 233.072 59.0458 229.952 63.7905C226.831 68.5352 240.205 75.3178 240.205 75.3178Z" fill="#F7A9A0"/>
<path d="M247.54 50.9788C243.729 52.571 242.859 57.5173 241.723 61.0626C241.708 61.1157 241.68 61.1645 241.643 61.2046C241.605 61.2447 241.557 61.275 241.505 61.2927C241.453 61.3105 241.397 61.3153 241.343 61.3066C241.288 61.2979 241.236 61.2761 241.192 61.243C237.679 60.6592 232.541 60.8609 229.909 63.5676C229.892 63.5778 229.872 63.5824 229.852 63.5808C229.832 63.5792 229.814 63.5714 229.798 63.5585C229.783 63.5456 229.772 63.5283 229.767 63.509C229.763 63.4897 229.764 63.4694 229.771 63.4508C232.202 60.1816 237.201 59.5659 241.044 60.4575C242.105 56.8062 243.251 51.8811 247.529 50.9045C247.55 50.9364 247.561 50.9682 247.54 50.9788Z" fill="#263238"/>
<path d="M216.163 65.1068L240.715 77.8442C240.715 77.8442 234.346 95.5809 233.815 98.882C233.284 102.183 239.26 125.567 240.088 130.524C240.916 135.481 228.412 152.814 227.425 144.1C226.438 135.385 213.223 109.252 212.565 100.368C211.907 91.4837 216.163 65.1068 216.163 65.1068Z" fill="#00E340"/>
<path d="M231.395 109.008C231.209 108.342 231.119 107.652 231.13 106.96C231.113 106.264 231.203 105.569 231.395 104.9C231.577 105.571 231.666 106.264 231.66 106.96C231.66 107.651 231.571 108.34 231.395 109.008Z" fill="black"/>
<path d="M224.538 80.5613C224.184 79.2185 224.184 77.8069 224.538 76.4641C224.892 77.8069 224.892 79.2185 224.538 80.5613Z" fill="black"/>
<path d="M233.752 118.593C235.094 118.239 236.506 118.239 237.849 118.593C236.506 118.947 235.094 118.947 233.752 118.593Z" fill="black"/>
<path d="M227.659 92.0037C228.33 91.8218 229.023 91.7325 229.718 91.7384C230.41 91.7271 231.1 91.8165 231.767 92.0037C231.1 92.191 230.41 92.2804 229.718 92.2691C229.022 92.2803 228.329 92.191 227.659 92.0037Z" fill="black"/>
<path d="M232 130.269C230.796 129.571 229.794 128.572 229.092 127.371C229.698 127.711 230.252 128.136 230.737 128.634C231.232 129.118 231.657 129.668 232 130.269Z" fill="black"/>
<path d="M223.148 103.69C221.944 102.992 220.942 101.994 220.239 100.792C220.846 101.131 221.401 101.557 221.885 102.056C222.377 102.541 222.802 103.091 223.148 103.69Z" fill="black"/>
<path d="M240.555 135.099C240.213 135.703 239.788 136.257 239.292 136.744C238.806 137.236 238.257 137.661 237.658 138.007C237.997 137.4 238.423 136.846 238.921 136.362C239.404 135.867 239.954 135.441 240.555 135.099Z" fill="black"/>
<path d="M224.591 115.971C224.252 116.575 223.827 117.126 223.328 117.606C222.845 118.101 222.295 118.526 221.694 118.869C222.396 117.671 223.393 116.673 224.591 115.971Z" fill="black"/>
<path d="M238.9 80.0944C238.197 81.2921 237.2 82.2898 236.002 82.9921C236.704 81.7943 237.702 80.7966 238.9 80.0944Z" fill="black"/>
<path d="M237.934 81.3893C231.108 77.7031 224.093 74.3797 216.917 71.433C216.832 71.433 216.779 71.5285 216.864 71.5604C218.615 72.2821 229.835 78.1413 237.881 81.5379C237.976 81.6229 238.019 81.4424 237.934 81.3893Z" fill="#263238"/>
<path d="M286.866 418.579C288.936 419.269 348.122 419.099 350.373 417.666C351.232 417.135 351.71 408.505 351.986 398.071C352.05 395.821 352.092 393.507 352.135 391.13C352.135 388.327 352.219 385.493 352.23 382.744C352.304 370.389 352.135 359.499 352.135 359.499H313.604V382.744V391.13L313.795 398.071C313.795 398.071 291.176 408.283 288.872 410.119C286.569 411.955 284.807 417.91 286.866 418.579Z" fill="#F7A9A0"/>
<path d="M286.866 418.579C288.936 419.269 348.122 419.099 350.373 417.666C351.232 417.135 351.71 408.506 351.986 398.072C352.05 395.821 352.092 393.507 352.135 391.13C352.135 388.328 352.219 385.494 352.23 382.744H313.625V391.13L313.816 398.072C313.816 398.072 291.197 408.283 288.894 410.119C286.59 411.955 284.807 417.91 286.866 418.579Z" fill="white"/>
<path d="M286.686 418.674C288.034 419.12 313.222 419.205 331.596 418.823C335.841 418.738 339.726 418.621 342.868 418.483C347.178 418.281 350.075 418.048 350.553 417.751C351.614 417.082 352.092 404.419 352.326 391.066H313.604L313.806 398.05C313.806 398.05 291.048 408.304 288.734 410.151C286.42 411.998 284.616 417.974 286.686 418.674Z" fill="#00E340"/>
<path d="M287.535 416.286C297.513 416.021 337.773 415.851 347.655 416.286C347.73 416.286 347.73 416.35 347.655 416.35C337.773 416.838 297.513 416.679 287.535 416.403C287.323 416.445 287.323 416.296 287.535 416.286Z" fill="#181818"/>
<path d="M312.394 395.811C316.311 395.068 321.119 395.662 324.123 398.443C324.24 398.56 324.123 398.719 323.964 398.677C320.207 397.476 316.331 396.682 312.405 396.31C312.347 396.299 312.295 396.269 312.257 396.224C312.219 396.18 312.197 396.123 312.196 396.065C312.195 396.006 312.214 395.949 312.25 395.902C312.286 395.856 312.337 395.824 312.394 395.811Z" fill="#181818"/>
<path d="M309.56 397.551C313.487 396.808 318.285 397.392 321.3 400.184C321.416 400.29 321.3 400.46 321.13 400.417C317.376 399.216 313.505 398.422 309.581 398.05C309.523 398.041 309.47 398.012 309.431 397.968C309.392 397.924 309.369 397.868 309.367 397.809C309.364 397.751 309.382 397.693 309.417 397.646C309.452 397.599 309.503 397.565 309.56 397.551Z" fill="#181818"/>
<path d="M306.758 399.271C310.674 398.528 315.483 399.112 318.434 401.903C318.55 402.009 318.434 402.169 318.274 402.137C314.53 400.941 310.67 400.144 306.758 399.759C306.693 399.759 306.631 399.734 306.585 399.688C306.539 399.642 306.514 399.58 306.514 399.515C306.514 399.45 306.539 399.388 306.585 399.342C306.631 399.297 306.693 399.271 306.758 399.271Z" fill="#181818"/>
<path d="M303.902 400.98C307.83 400.237 312.628 400.831 315.642 403.612C315.759 403.729 315.642 403.888 315.472 403.846C311.719 402.644 307.847 401.85 303.924 401.479C303.866 401.469 303.813 401.44 303.773 401.396C303.734 401.353 303.712 401.297 303.709 401.238C303.707 401.179 303.725 401.121 303.76 401.074C303.795 401.027 303.845 400.994 303.902 400.98Z" fill="#181818"/>
<path d="M306.885 392.361C309.677 394.484 313.254 395.386 316.534 396.607C316.607 396.627 316.685 396.629 316.76 396.614C316.835 396.598 316.905 396.566 316.965 396.518C317.025 396.471 317.073 396.41 317.105 396.34C317.137 396.271 317.152 396.195 317.149 396.119C317.165 396.118 317.181 396.113 317.195 396.105C317.21 396.097 317.222 396.086 317.231 396.073C317.24 396.06 317.246 396.044 317.249 396.028C317.251 396.012 317.25 395.996 317.245 395.981C316.041 392.508 313.948 389.412 311.173 387.001C309.528 385.632 306.652 384.676 305.113 386.81C303.573 388.943 305.261 391.109 306.885 392.361ZM305.877 389.177C305.176 384.867 309.804 387.118 310.982 388.179C311.739 388.877 312.448 389.626 313.105 390.419C314.415 392.077 315.637 393.802 316.767 395.588C315.207 394.898 313.583 394.357 312.023 393.73C310.101 393.019 306.269 391.565 305.877 389.209V389.177Z" fill="#181818"/>
<path d="M330.332 389.92C329.377 387.478 326.352 387.68 324.42 388.593C321.132 390.247 318.335 392.736 316.311 395.811C316.302 395.824 316.296 395.839 316.294 395.855C316.292 395.872 316.293 395.888 316.298 395.903C316.303 395.919 316.312 395.933 316.323 395.944C316.335 395.956 316.349 395.964 316.364 395.97C316.3 396.267 316.481 396.639 316.831 396.607C320.27 396.256 323.996 396.32 327.222 394.93C329.101 394.08 331.235 392.234 330.332 389.92ZM321.936 394.972C320.249 395.184 318.561 395.312 316.873 395.588C318.415 394.143 320.031 392.779 321.713 391.501C322.535 390.892 323.397 390.338 324.293 389.845C325.694 389.113 330.736 388.094 328.984 392.085C327.987 394.282 323.943 394.749 321.936 394.972Z" fill="#181818"/>
<path d="M364.989 195.314C364.989 195.314 354.576 298.274 354.321 299.612C354.321 299.782 354.215 301.735 354.119 304.993C353.557 322.72 352.166 378 352.166 378H309.709C309.709 378 312.479 312.53 314.071 297.255C316.098 277.767 328.931 195.357 328.931 195.357L364.989 195.314Z" fill="#181818"/>
<path d="M349.216 303.242C350.532 280.916 352.502 258.654 355.128 236.456C356.614 223.942 358.418 211.47 360.202 198.998C360.202 198.891 360.382 198.891 360.371 198.998C357.081 221.203 354.756 243.578 352.75 265.869C350.744 288.159 349.343 310.566 348.43 332.952C347.91 345.689 347.517 358.331 347.114 371.026C347.102 371.081 347.072 371.13 347.029 371.165C346.985 371.2 346.931 371.22 346.875 371.22C346.819 371.22 346.765 371.2 346.721 371.165C346.678 371.13 346.648 371.081 346.636 371.026C347.284 348.449 347.931 325.83 349.216 303.242Z" fill="#181818"/>
<path d="M312.373 371.153C313.434 371.015 314.687 371.058 315.822 371.015C316.958 370.973 318.37 370.962 319.644 370.909C322.106 370.824 324.583 370.761 327.074 370.718C332.027 370.633 336.981 370.669 341.934 370.824L346.031 370.962C347.485 371.026 348.94 371.153 350.394 371.143C350.405 371.138 350.417 371.136 350.429 371.138C350.441 371.139 350.453 371.143 350.463 371.15C350.473 371.157 350.481 371.166 350.487 371.177C350.493 371.188 350.496 371.2 350.496 371.212C350.496 371.224 350.493 371.236 350.487 371.246C350.481 371.257 350.473 371.266 350.463 371.273C350.453 371.28 350.441 371.284 350.429 371.286C350.417 371.287 350.405 371.285 350.394 371.281C347.889 371.281 345.362 371.493 342.868 371.588C340.374 371.684 337.943 371.716 335.491 371.748C330.534 371.822 325.556 371.748 320.631 371.588L316.534 371.482L314.358 371.387C313.71 371.387 313.063 371.387 312.415 371.323C312.245 371.312 312.256 371.174 312.373 371.153Z" fill="#181818"/>
<path d="M364.989 195.314C364.989 195.314 354.576 298.274 354.321 299.612C354.321 299.782 354.215 301.735 354.119 304.993L334.09 195.314H364.989Z" fill="#181818"/>
<path d="M444.905 385.196C446.731 383.986 483.17 337.357 483.435 334.703C483.541 333.642 477.067 327.995 469.032 321.329C467.301 319.875 465.561 318.315 463.661 316.913C461.283 315.141 458.873 313.4 456.528 311.755C446.38 304.558 437.57 298.911 437.57 298.911L414.431 328.345L432.475 341.698L439.905 347.175L445.489 351.315C445.489 351.315 439.523 375.41 439.545 378.35C439.566 381.29 443.09 386.374 444.905 385.196Z" fill="#F7A9A0"/>
<path d="M444.905 385.196C446.731 383.986 483.17 337.357 483.435 334.703C483.541 333.642 477.067 327.995 469.032 321.329C467.301 319.875 465.561 318.315 463.661 316.914C461.283 315.141 458.873 313.4 456.528 311.755C449.352 320.788 438.961 333.684 432.465 341.698L439.895 347.175L445.478 351.315C445.478 351.315 439.513 375.41 439.534 378.35C439.555 381.29 443.09 386.375 444.905 385.196Z" fill="white"/>
<path d="M444.862 385.366C446.688 384.156 483.34 337.261 483.605 334.586C483.732 333.355 474.052 325.15 463.724 316.701L439.789 347.133L445.404 351.294C445.404 351.294 439.438 375.526 439.438 378.488C439.438 381.449 443.026 386.576 444.862 385.366Z" fill="#00E340"/>
<path d="M443.504 383.222C449.458 375.208 474.211 343.46 480.707 335.998C480.761 335.934 480.803 335.998 480.707 335.998C474.986 344.065 449.979 375.611 443.557 383.286C443.504 383.487 443.387 383.392 443.504 383.222Z" fill="#181818"/>
<path d="M442.793 351.039C444.629 347.494 448.1 344.086 452.112 343.439C452.271 343.439 452.303 343.641 452.197 343.715C448.931 345.923 445.913 348.478 443.196 351.336C443.153 351.377 443.096 351.401 443.037 351.405C442.977 351.408 442.919 351.391 442.871 351.355C442.823 351.32 442.789 351.269 442.774 351.211C442.76 351.153 442.767 351.092 442.793 351.039Z" fill="#181818"/>
<path d="M442.389 354.329C444.236 350.784 447.696 347.366 451.719 346.729C451.868 346.729 451.91 346.931 451.794 347.005C448.529 349.212 445.511 351.764 442.793 354.616C442.749 354.653 442.695 354.675 442.638 354.678C442.581 354.68 442.525 354.664 442.479 354.631C442.432 354.598 442.398 354.55 442.382 354.496C442.366 354.441 442.368 354.382 442.389 354.329Z" fill="#181818"/>
<path d="M441.996 357.599C443.833 354.053 447.304 350.646 451.316 349.999C451.475 349.999 451.507 350.2 451.401 350.275C448.133 352.486 445.112 355.041 442.389 357.896C442.35 357.948 442.291 357.982 442.227 357.991C442.162 358 442.096 357.983 442.044 357.944C441.992 357.904 441.958 357.846 441.949 357.781C441.94 357.716 441.957 357.651 441.996 357.599Z" fill="#181818"/>
<path d="M441.561 360.889C443.398 357.354 446.869 353.937 450.881 353.3C451.04 353.3 451.072 353.491 450.966 353.576C447.701 355.782 444.683 358.334 441.965 361.186C441.921 361.227 441.865 361.251 441.805 361.255C441.746 361.258 441.687 361.241 441.639 361.205C441.591 361.17 441.557 361.119 441.543 361.061C441.529 361.004 441.535 360.943 441.561 360.889Z" fill="#181818"/>
<path d="M436.657 353.215C440.075 352.366 443.026 350.03 445.934 348.247C445.998 348.202 446.05 348.142 446.086 348.073C446.121 348.004 446.14 347.927 446.14 347.849C446.14 347.771 446.121 347.695 446.086 347.625C446.05 347.556 445.998 347.496 445.934 347.451C445.943 347.438 445.949 347.422 445.951 347.406C445.954 347.39 445.952 347.374 445.947 347.359C445.942 347.343 445.933 347.329 445.922 347.318C445.91 347.306 445.897 347.297 445.881 347.292C442.409 346.092 438.683 345.825 435.076 346.517C432.953 346.963 430.459 348.64 431.18 351.166C431.902 353.692 434.672 353.724 436.657 353.215ZM433.558 352.058C429.737 349.935 434.365 347.706 435.925 347.441C436.937 347.286 437.958 347.201 438.982 347.186C441.091 347.182 443.199 347.285 445.298 347.494C443.801 348.3 442.379 349.224 440.914 350.084C439.162 351.103 435.66 353.225 433.558 352.058Z" fill="#181818"/>
<path d="M449.236 333.281C446.72 332.527 444.99 335.022 444.533 337.113C443.788 340.711 444.004 344.441 445.16 347.929C445.16 348.014 445.255 348.014 445.319 347.982C445.363 348.045 445.421 348.097 445.49 348.133C445.558 348.169 445.634 348.188 445.712 348.188C445.789 348.188 445.865 348.169 445.933 348.133C446.002 348.097 446.06 348.045 446.104 347.982C447.962 345.063 450.35 342.176 451.21 338.779C451.741 336.816 451.613 334.003 449.236 333.281ZM448.015 343.004C447.134 344.469 446.189 345.87 445.372 347.356C445.186 345.238 445.109 343.113 445.138 340.987C445.172 339.966 445.275 338.948 445.446 337.941C445.733 336.391 448.047 331.795 450.095 335.637C451.231 337.803 449.055 341.274 448.015 343.004Z" fill="#181818"/>
<path d="M328.348 194.741C328.348 194.741 331.659 210.196 342.04 217.753C342.04 217.753 368.746 287.862 374.361 295.239C383.659 307.467 428.644 338.939 428.644 338.939L455.18 305.11C455.18 305.11 411.66 277.099 408.179 272.694C405.854 269.775 387.321 224.759 387.544 223.156C390.092 204.124 381.016 192.3 381.016 192.3L328.348 194.741Z" fill="#181818"/>
<path d="M377.875 195.261C379.897 198.928 381.4 202.857 382.343 206.937C382.803 209.011 383.084 211.12 383.182 213.242C383.309 215.503 383.182 217.774 383.182 220.046C383.215 222.363 383.572 224.664 384.243 226.882C384.88 229.004 385.655 231.127 386.366 233.25C387.895 237.595 389.504 241.908 391.196 246.189C394.571 254.681 398.24 263.08 402.203 271.388C403.033 273.331 404.177 275.124 405.589 276.695C407.217 278.191 408.996 279.514 410.896 280.644C414.802 283.304 418.712 285.965 422.625 288.626L446.2 304.664V304.717C446.465 304.898 446.2 305.333 445.956 305.153C438.059 299.792 433.07 296.374 425.173 291.014L413.21 282.894C411.321 281.61 409.4 280.368 407.553 279.041C405.916 277.911 404.52 276.468 403.445 274.795C402.369 272.969 401.405 271.08 400.558 269.138C399.56 267.015 398.583 264.892 397.628 262.769C395.739 258.764 393.934 254.638 392.215 250.393C390.495 246.147 388.836 241.851 387.237 237.507C386.444 235.327 385.669 233.141 384.912 230.947C384.129 228.871 383.491 226.743 383.001 224.578C382.12 220.12 382.906 215.545 382.481 211.045C382.096 206.689 381.021 202.422 379.297 198.403C378.834 197.361 378.316 196.344 377.747 195.357C377.673 195.261 377.875 195.197 377.875 195.261Z" fill="#181818"/>
<path d="M363.258 196.471C364.134 199.449 365.961 202.059 368.46 203.901C371.227 205.868 374.504 206.992 377.896 207.139C378.469 207.139 378.522 208.041 377.896 208.052C370.965 208.052 363.97 203.657 362.951 196.482C362.951 196.344 363.216 196.312 363.258 196.471Z" fill="#181818"/>
<path d="M335.417 213.04C337.927 214.054 340.325 215.328 342.571 216.84C344.949 218.316 347.146 220.025 349.438 221.627C349.534 221.691 349.438 221.829 349.364 221.776C346.955 220.386 344.45 219.186 342.061 217.753C339.68 216.452 337.42 214.939 335.311 213.231C335.215 213.168 335.289 213.008 335.417 213.04Z" fill="#181818"/>
<path d="M334.419 198.605C334.791 200.186 335.247 201.789 335.671 203.328C336.096 204.867 336.372 206.321 336.828 207.776C337.223 209.19 338.011 210.463 339.1 211.448C339.705 211.968 340.374 212.414 341.021 212.892L342.083 213.635C342.03 213.433 341.987 213.21 341.934 212.998C341.796 212.393 341.669 211.798 341.541 211.193C341.255 209.856 340.979 208.519 340.703 207.171C340.183 204.538 339.641 201.863 339.015 199.263C339.01 199.25 339.009 199.236 339.01 199.223C339.012 199.209 339.017 199.196 339.025 199.185C339.033 199.173 339.043 199.164 339.055 199.158C339.067 199.152 339.081 199.148 339.095 199.148C339.108 199.148 339.122 199.152 339.134 199.158C339.146 199.164 339.157 199.173 339.164 199.185C339.172 199.196 339.177 199.209 339.179 199.223C339.181 199.236 339.179 199.25 339.174 199.263C339.949 201.831 340.798 204.379 341.499 206.979C341.839 208.253 343.133 214.569 343.208 215.015C343.282 215.46 343.335 215.949 343.367 216.416C343.452 216.885 343.473 217.363 343.431 217.838C343.421 217.858 343.406 217.876 343.388 217.888C343.369 217.9 343.347 217.906 343.325 217.906C343.302 217.906 343.28 217.9 343.261 217.888C343.243 217.876 343.228 217.858 343.218 217.838C343.008 217.406 342.851 216.95 342.751 216.479C342.613 216.034 342.497 215.577 342.39 215.11L342.295 214.611C341.647 214.261 341.042 213.783 340.437 213.38C339.832 212.977 339.121 212.541 338.506 212.064C337.359 211.183 336.504 209.977 336.054 208.603C335.598 207.121 335.279 205.601 335.098 204.06C334.812 202.267 334.578 200.452 334.249 198.668C334.239 198.552 334.355 198.499 334.419 198.605Z" fill="#181818"/>
<path d="M424.398 332.814C424.971 331.848 425.767 330.924 426.436 330.022C427.104 329.12 427.975 327.984 428.728 326.955C430.179 324.966 431.654 322.995 433.155 321.042C436.169 317.104 439.279 313.22 442.474 309.43L445.128 306.31C446.072 305.248 447.081 304.187 447.983 302.998C448.047 302.913 448.142 302.998 448.079 303.083C446.518 305.036 445.128 307.159 443.652 309.175C442.177 311.192 440.702 313.113 439.205 315.066C436.18 318.994 433.059 322.868 429.843 326.647C428.951 327.708 428.092 328.77 427.211 329.831C426.744 330.383 426.255 330.893 425.788 331.476C425.321 332.06 424.992 332.538 424.525 332.962C424.505 332.979 424.48 332.988 424.454 332.986C424.428 332.984 424.404 332.972 424.387 332.952C424.37 332.932 424.362 332.906 424.364 332.881C424.366 332.855 424.378 332.831 424.398 332.814Z" fill="#181818"/>
<path d="M305.537 144.407C305.539 144.528 305.586 144.644 305.668 144.732C305.751 144.82 305.863 144.875 305.983 144.885L307.936 144.747C309.082 139.663 310.473 135.544 310.176 137.115C309.72 139.586 309.613 142.108 309.857 144.609L313.71 144.269C314.167 135.523 315.324 128.921 315.44 130.885C315.918 138.835 316.672 141.308 317.51 143.94C326.798 143.102 338.962 141.817 347.74 140.756C348.175 135.895 348.441 130.662 348.632 130.991C350.15 133.496 350.956 137.359 351.349 140.289C354.141 139.917 356.359 139.567 357.718 139.227C357.718 139.227 357.888 135.162 357.824 133.846C357.637 130.487 356.88 127.185 355.584 124.081C354.148 121.031 352.409 118.132 350.394 115.43V115.366C349.143 113.55 348.106 111.594 347.305 109.539C346.746 108.034 346.31 106.486 345.999 104.911C344.885 99.1367 341.202 94.53 335.905 93.7021C325.068 85.3167 315.907 90.7725 313.912 98.659C313.71 99.4233 313.54 100.304 313.392 101.249C312.808 104.752 312.468 109.252 312.065 112.744C311.925 114.112 311.701 115.469 311.396 116.81C309.655 123.274 304.507 127.509 305.537 144.407Z" fill="#181818"/>
<path d="M338.283 94.944C340.047 95.5628 341.621 96.6283 342.85 98.0365C344.08 99.4448 344.923 101.148 345.299 102.979C345.75 105.411 346.498 107.778 347.528 110.027C348.783 112.188 350.345 114.154 352.166 115.865C355.006 118.499 356.985 121.928 357.845 125.705C358.868 130.083 359.026 134.619 358.312 139.058C358.776 134.42 358.351 129.737 357.06 125.259C355.765 120.748 352.973 118.179 350.054 115.027C347.7 112.528 346.039 109.458 345.235 106.121C344.726 103.998 344.481 101.875 343.452 99.9859C342.176 97.976 340.327 96.3938 338.145 95.4429C337.826 95.2625 338.017 94.8379 338.283 94.944Z" fill="#181818"/>
<path d="M306.524 124.166C308.488 120.525 310.6 117.362 311.481 113.073C312.288 109.157 312.543 105.102 313.349 101.196C313.349 101.132 313.455 101.143 313.445 101.196C312.277 108.106 312.712 114.846 309.401 120.981C307.607 124.304 305.781 127.414 304.805 131.245C303.814 135.267 303.551 139.433 304.03 143.548C304.03 143.696 303.86 143.717 303.839 143.548C302.432 136.972 303.383 130.111 306.524 124.166Z" fill="#181818"/>
<path d="M333.358 143.314C322.425 145.246 285.529 133.581 278.619 126.002C268.333 114.74 260.521 94.6255 258.303 87.0574C257.337 83.7563 279.075 73.8212 280.593 77.1541C283.905 84.2977 293.33 106.45 295.167 108.53C297.003 110.611 315.334 123.316 325.949 128.942C340.268 136.51 338.888 142.338 333.358 143.314Z" fill="#F7A9A0"/>
<path d="M282.207 81.7714C282.037 80.1368 276.984 67.8983 274.182 63.9816C271.312 59.7606 267.769 56.0386 263.695 52.9638C257.241 48.1448 252.316 45.4063 251.042 46.3722C248.686 48.1554 250.087 51.0532 256.551 56.0101C263.016 60.9671 262.145 65.7754 261.275 69.1296C259.122 77.3531 259.075 85.9862 261.137 94.2328C261.137 94.2328 282.886 88.087 282.207 81.7714Z" fill="#F7A9A0"/>
<path d="M261.625 67.9195C260.84 71.4117 256.498 58.3665 252.582 57.3051C248.665 56.2436 248.983 60.3302 250.459 63.9179C255.67 76.3368 253.378 84.2127 259.502 91.3456C265.627 98.4785 261.625 67.9195 261.625 67.9195Z" fill="#F7A9A0"/>
<path d="M259.948 96.3982C260.415 96.0054 284.712 81.9307 284.712 81.9307C284.712 81.9307 293.734 104.932 295.581 107.681C297.428 110.43 323.985 127.382 333.166 132.742C342.985 138.484 340.055 146.944 322.764 143.526C305.473 140.109 285.73 133.453 279.171 127.743C272.791 122.213 259.948 96.3982 259.948 96.3982Z" fill="#00E340"/>
<path d="M263.589 99.0836C273.577 94.4132 283.374 87.9808 285.157 86.9831C285.242 86.93 285.157 86.8026 285.072 86.8557C283.374 87.9171 271.39 94.0629 263.493 98.9456C263.478 98.9595 263.469 98.9783 263.467 98.9984C263.465 99.0186 263.47 99.0388 263.482 99.0555C263.493 99.0722 263.51 99.0842 263.53 99.0893C263.55 99.0944 263.57 99.0924 263.589 99.0836Z" fill="#181818"/>
<path d="M322.329 176.229L324.134 206.205C324.134 206.205 371.697 197.076 383.299 193.807C383.299 193.807 362.42 141.393 346.912 130.269C339.153 124.707 331.829 126.766 328.093 132.551C327.137 134.016 316.757 155.903 316.746 163.418C316.757 170.062 322.329 176.229 322.329 176.229Z" fill="#00E340"/>
<path d="M338.983 130.821C338.75 131.765 334.132 137.89 329.78 137.635C328.358 137.55 328.486 129.802 328.486 129.802L328.369 129.218L326.67 121.183L336.17 115.26L337.54 114.528C337.54 114.528 337.858 116.757 338.23 119.538C338.23 119.665 338.23 119.792 338.283 119.93L338.346 120.387C338.41 120.801 338.463 121.225 338.516 121.65C338.569 122.074 338.601 122.287 338.622 122.626C338.644 122.966 338.697 123.295 338.739 123.635C338.98 126.022 339.061 128.423 338.983 130.821Z" fill="#F7A9A0"/>
<path d="M338.23 119.485C337.391 121.725 336.074 123.757 334.371 125.438C332.669 127.118 330.62 128.408 328.369 129.218L326.67 121.183L336.17 115.26L337.54 114.528C337.54 114.528 337.858 116.704 338.23 119.485Z" fill="#181818"/>
<path d="M314.931 110.42C315.472 124.834 324.165 126.14 327.275 126.023C330.088 125.906 339.684 125.184 340.639 110.791C341.594 96.3981 334.727 92.0992 328.252 92.0037C321.777 91.9082 314.4 96.016 314.931 110.42Z" fill="#F7A9A0"/>
<path d="M316.916 106.365C317.242 106.3 317.564 106.218 317.882 106.121C318.232 106.083 318.561 105.93 318.816 105.686C318.887 105.597 318.926 105.486 318.926 105.373C318.926 105.259 318.887 105.148 318.816 105.059C318.646 104.909 318.44 104.807 318.218 104.762C317.997 104.717 317.767 104.732 317.553 104.805C317.095 104.89 316.686 105.143 316.406 105.516C316.35 105.602 316.32 105.703 316.318 105.806C316.317 105.909 316.344 106.011 316.397 106.099C316.45 106.187 316.527 106.259 316.618 106.306C316.71 106.353 316.813 106.373 316.916 106.365Z" fill="#181818"/>
<path d="M326.384 106.036C326.052 106 325.722 105.943 325.397 105.866C325.044 105.856 324.704 105.729 324.431 105.505C324.364 105.414 324.329 105.305 324.329 105.192C324.329 105.08 324.364 104.97 324.431 104.879C324.588 104.716 324.787 104.599 325.005 104.539C325.224 104.479 325.454 104.479 325.673 104.539C326.137 104.583 326.566 104.803 326.872 105.155C326.941 105.239 326.984 105.342 326.993 105.45C327.003 105.558 326.981 105.667 326.928 105.762C326.875 105.857 326.795 105.934 326.698 105.983C326.601 106.032 326.492 106.05 326.384 106.036Z" fill="#181818"/>
<path d="M324.59 109.772C324.59 109.772 324.675 109.772 324.675 109.857C324.675 110.845 324.802 111.98 325.736 112.288V112.341C324.601 112.203 324.42 110.707 324.59 109.772Z" fill="#181818"/>
<path d="M325.46 108.743C327.031 108.594 327.201 111.768 325.736 111.927C324.272 112.086 324.134 108.86 325.46 108.743Z" fill="#181818"/>
<path d="M326.087 108.87C326.373 109.04 326.66 109.337 326.999 109.358C327.339 109.38 327.658 109.029 327.891 108.7C327.891 108.7 327.891 108.7 327.955 108.7C327.955 109.305 327.785 109.942 327.148 110.059C326.511 110.176 326.087 109.656 325.917 109.061C325.864 108.976 325.97 108.806 326.087 108.87Z" fill="#181818"/>
<path d="M318.943 109.879C318.943 109.879 318.869 109.879 318.879 109.974C318.964 110.951 318.879 112.097 318.041 112.468C318.041 112.468 318.041 112.532 318.041 112.522C319.124 112.309 319.187 110.791 318.943 109.879Z" fill="#181818"/>
<path d="M318.009 108.913C316.428 108.913 316.491 112.097 317.956 112.097C319.421 112.097 319.336 108.934 318.009 108.913Z" fill="#181818"/>
<path d="M317.372 109.135C317.128 109.305 316.884 109.624 316.587 109.645C316.29 109.666 315.982 109.337 315.748 109.008C315.748 109.613 315.95 110.239 316.534 110.345C317.117 110.452 317.446 109.91 317.595 109.284C317.542 109.22 317.457 109.061 317.372 109.135Z" fill="#181818"/>
<path d="M325.089 117.574C324.877 117.829 324.675 118.168 324.325 118.232C323.965 118.26 323.604 118.213 323.263 118.094C323.422 118.273 323.627 118.404 323.855 118.475C324.083 118.546 324.326 118.554 324.558 118.497C324.749 118.424 324.915 118.297 325.036 118.131C325.157 117.965 325.227 117.768 325.237 117.563C325.195 117.553 325.121 117.542 325.089 117.574Z" fill="#181818"/>
<path d="M320.843 114.198C320.769 114.904 320.73 115.612 320.726 116.321C320.726 116.385 320.896 116.406 321.13 116.417C321.734 116.509 322.353 116.43 322.915 116.19C323.477 115.95 323.962 115.558 324.314 115.058C324.321 115.044 324.323 115.027 324.32 115.012C324.317 114.996 324.309 114.981 324.297 114.971C324.285 114.96 324.27 114.953 324.254 114.952C324.238 114.95 324.222 114.954 324.208 114.963C323.35 115.605 322.307 115.951 321.236 115.95C321.183 115.759 321.565 113.434 321.459 113.424C320.926 113.497 320.405 113.64 319.909 113.848C320.111 110.77 320.811 107.745 320.971 104.677C320.971 104.652 320.96 104.628 320.943 104.61C320.925 104.592 320.9 104.582 320.875 104.582C320.85 104.582 320.825 104.592 320.807 104.61C320.79 104.628 320.779 104.652 320.779 104.677C319.931 107.89 319.405 111.179 319.209 114.496C319.166 114.899 320.557 114.326 320.843 114.198Z" fill="#181818"/>
<path d="M321.13 115.993C321.511 116.562 322.034 117.023 322.648 117.33C322.978 117.488 323.348 117.54 323.709 117.479C324.516 117.319 324.579 116.598 324.484 115.971C324.424 115.635 324.325 115.307 324.187 114.995C323.298 115.641 322.228 115.99 321.13 115.993Z" fill="#181818"/>
<path d="M322.679 117.33C323.009 117.488 323.38 117.54 323.741 117.478C324.548 117.319 324.611 116.597 324.516 115.971C324.102 115.961 323.697 116.089 323.364 116.335C323.031 116.581 322.79 116.931 322.679 117.33Z" fill="#FF9BBC"/>
<path d="M340.055 110.356C336.563 110.547 336.34 105.049 336.34 105.049C336.34 105.049 332.36 104.879 331.776 98.4998C331.068 99.8192 330.062 100.956 328.839 101.82C327.616 102.684 326.208 103.251 324.728 103.478C323.592 103.701 327.265 100.58 327.265 100.58C327.265 100.58 322.902 104.922 314.358 103.765C313.753 103.68 313.922 93.8613 320.429 90.5072C326.936 87.153 333.687 89.4457 337.985 93.4368C337.985 93.4368 342.953 95.4641 343.717 100.039C344.482 104.614 341.403 110.282 340.055 110.356Z" fill="#181818"/>
<path d="M338.389 111.991C338.389 111.991 340.958 107.129 343.123 107.989C345.288 108.849 343.749 115.621 341.478 116.799C341.198 116.972 340.885 117.087 340.559 117.136C340.234 117.185 339.901 117.167 339.583 117.084C339.264 117 338.966 116.853 338.706 116.651C338.446 116.449 338.23 116.196 338.07 115.907L338.389 111.991Z" fill="#F7A9A0"/>
<path d="M342.635 109.921C342.635 109.921 342.688 109.921 342.635 109.985C341.912 110.462 341.299 111.088 340.837 111.819C340.374 112.551 340.071 113.373 339.949 114.23C340.025 114.051 340.14 113.891 340.284 113.76C340.428 113.63 340.598 113.532 340.784 113.473C340.97 113.415 341.166 113.397 341.359 113.421C341.552 113.446 341.737 113.512 341.902 113.615V113.71C341.598 113.653 341.283 113.692 341.002 113.821C340.721 113.951 340.486 114.164 340.331 114.432C340.077 114.883 339.871 115.36 339.716 115.854C339.652 116.014 339.376 115.961 339.408 115.791C339.089 113.604 340.374 110.42 342.635 109.921Z" fill="#181818"/>
<path d="M350.691 135.873C369.001 155.16 384.042 195.314 375.232 199.04C367.186 202.479 341.679 199.295 331.192 196.8C328.114 196.057 334.377 172.196 337.614 172.981C341.594 173.926 351.774 175.391 352.188 175.359C353.069 175.295 343.696 148.6 340.682 138.357C336.478 124.081 343.823 128.634 350.691 135.873Z" fill="#F7A9A0"/>
<path d="M305.877 167.494C305.497 168.152 305.324 168.908 305.381 169.666C305.438 170.423 305.722 171.146 306.195 171.74C305.015 172.297 304.069 173.251 303.52 174.436C302.639 176.559 305.643 178.872 305.643 178.872C304.537 179.709 303.709 180.86 303.266 182.174C302.639 184.296 305.304 187.046 305.304 187.046C304.707 188.383 304.613 189.89 305.038 191.291C306.312 194.953 312.107 196.27 315.78 197.151C319.453 198.032 330.64 197.066 332.837 197.097L338.601 173.618C338.601 173.618 323.263 165.021 318.795 164.607C315.048 164.256 307.48 165.021 305.877 167.494Z" fill="#F7A9A0"/>
<path d="M306.45 171.453C310.536 170.869 314.57 171.517 318.635 171.941C318.649 171.947 318.661 171.956 318.669 171.969C318.678 171.981 318.682 171.995 318.682 172.01C318.682 172.025 318.678 172.04 318.669 172.052C318.661 172.064 318.649 172.074 318.635 172.079C314.591 171.612 310.515 171.952 306.471 171.644C306.446 171.647 306.42 171.639 306.4 171.624C306.381 171.608 306.368 171.584 306.365 171.559C306.362 171.534 306.37 171.508 306.385 171.488C306.401 171.469 306.425 171.456 306.45 171.453Z" fill="#181818"/>
<path d="M305.76 178.639C306.7 178.595 307.642 178.673 308.562 178.872C309.549 179.032 310.536 179.201 311.513 179.382C313.477 179.753 315.43 180.167 317.362 180.645C317.457 180.645 317.446 180.794 317.362 180.783C315.408 180.408 313.445 180.079 311.471 179.796L308.52 179.393C307.578 179.335 306.646 179.175 305.739 178.915C305.712 178.902 305.689 178.881 305.675 178.855C305.66 178.829 305.653 178.799 305.655 178.77C305.657 178.74 305.669 178.711 305.687 178.688C305.706 178.665 305.731 178.648 305.76 178.639Z" fill="#181818"/>
<path d="M305.346 187.12C306.199 187.089 307.05 187.207 307.862 187.47L310.536 188.012C312.32 188.362 314.103 188.723 315.897 189.009C315.992 189.009 315.971 189.168 315.897 189.158C314.071 188.861 312.235 188.606 310.42 188.298L307.734 187.842C306.903 187.772 306.091 187.556 305.335 187.205C305.335 187.205 305.314 187.12 305.346 187.12Z" fill="#181818"/>
<path d="M351.243 174.595C352.506 173.533 342.507 148.388 339.779 136.945C337.051 125.503 342.337 126.14 350.712 135.353C359.692 145.225 374.616 167.059 378.013 189.551C379.074 196.577 380.507 201.587 364.214 201.301C354.764 201.201 345.335 200.378 336.011 198.838L339.556 173.151C339.556 173.151 350.882 174.903 351.243 174.595Z" fill="#00E340"/>
<path d="M341.785 198.636C343.908 188.468 344.503 177.471 344.757 175.561C344.757 175.476 344.619 175.465 344.609 175.561C344.46 177.439 342.369 189.933 341.626 198.626C341.626 198.721 341.785 198.732 341.785 198.636Z" fill="#181818"/>
<path d="M363.598 176.59C362.592 176.306 361.567 176.097 360.531 175.964L357.675 175.444L356.433 175.221H356.55L358.206 174.987C358.758 174.903 359.267 174.786 359.872 174.733C359.957 174.733 359.957 174.584 359.872 174.595C359.32 174.669 358.811 174.669 358.217 174.701L356.486 174.818L354.979 174.977C354.056 174.828 353.132 174.68 352.209 174.552C351.805 172.727 351.147 170.922 350.606 169.139C350.065 167.356 349.417 165.424 348.78 163.577C348.143 161.73 347.496 159.968 346.795 158.185C346.445 157.293 344.577 151.816 343.961 150.373C343.961 150.277 343.813 150.373 343.834 150.426C344.195 151.869 346.105 157.505 346.381 158.418C346.583 159.087 346.795 159.756 347.008 160.414L346.923 160.318L345.808 158.832C345.065 157.824 344.322 156.805 343.685 155.733C343.685 155.637 343.494 155.733 343.547 155.818C344.163 156.943 344.747 158.068 345.394 159.161C345.723 159.713 346.063 160.223 346.456 160.775C346.779 161.312 347.164 161.811 347.602 162.261C347.772 162.802 347.931 163.322 348.112 163.895C348.685 165.721 349.269 167.547 349.831 169.372C350.394 171.198 350.808 172.769 351.402 174.414C349.502 174.159 347.613 173.937 345.713 173.703L342.804 173.363C341.743 173.247 340.681 173.247 339.62 173.066C339.525 173.066 339.493 173.194 339.62 173.204C340.681 173.321 341.679 173.639 342.698 173.82L345.564 174.319C347.581 174.658 349.608 175.019 351.636 175.38C353.663 175.741 355.648 175.911 357.654 176.144L360.679 176.484C361.652 176.634 362.635 176.716 363.619 176.728L363.598 176.59Z" fill="#181818"/>
<path d="M368.077 201.322C359.321 201.014 343.558 199.815 336.234 198.838C336.223 198.834 336.211 198.832 336.199 198.833C336.186 198.835 336.175 198.839 336.165 198.846C336.155 198.853 336.147 198.862 336.141 198.872C336.135 198.883 336.132 198.895 336.132 198.907C336.132 198.919 336.135 198.931 336.141 198.942C336.147 198.953 336.155 198.962 336.165 198.969C336.175 198.976 336.186 198.98 336.199 198.981C336.211 198.982 336.223 198.981 336.234 198.976C346.691 201.223 357.392 202.125 368.077 201.662C368.122 201.662 368.166 201.644 368.198 201.612C368.229 201.58 368.247 201.537 368.247 201.492C368.247 201.447 368.229 201.404 368.198 201.372C368.166 201.34 368.122 201.322 368.077 201.322Z" fill="#181818"/>
<path d="M373.045 170.784C372.567 169.723 372.058 168.661 371.57 167.6C370.996 166.368 370.943 166.538 371.463 167.918C371.984 169.298 372.429 170.497 372.928 171.782C373.905 174.34 378.968 189.826 378.405 195.303C378.405 195.378 378.522 195.388 378.533 195.303C379.838 187.99 374.818 174.786 373.045 170.784Z" fill="#181818"/>
<path d="M157.731 100.57C169.768 112.245 172.22 142.295 157.381 162.505C144.813 179.615 115.634 182.874 103.088 172.674C89.7877 161.836 91.7407 144.28 101.464 135.735C111.494 126.925 123.531 129.292 129.613 121.438C132.521 117.68 133.604 109.762 137.659 103.977C142.234 97.5444 151.574 94.5724 157.731 100.57Z" fill="#263238"/>
<path d="M146.671 98.3511C148.008 97.8522 149.271 90.4009 144.378 86.8556C139.485 83.3104 133.211 87.3651 135.886 93.4685C137.51 97.3215 143.858 99.4019 146.671 98.3511Z" fill="#263238"/>
<path d="M134.804 109.337C133.925 112.06 132.821 114.705 131.502 117.245C130.183 119.841 128.318 122.122 126.036 123.932C124.826 124.772 123.485 125.404 122.066 125.8C120.686 126.246 119.306 126.617 117.937 126.999C115.196 127.718 112.493 128.575 109.838 129.568C107.207 130.534 104.71 131.833 102.408 133.432C100.109 135.047 98.1681 137.119 96.707 139.519C95.2458 141.919 94.2959 144.595 93.9167 147.379C93.5013 150.19 93.4193 153.041 93.6725 155.871C93.2179 153.039 93.1288 150.16 93.4072 147.305C93.71 144.417 94.5985 141.622 96.0183 139.089C97.4681 136.552 99.4486 134.358 101.824 132.657C104.189 130.979 106.757 129.61 109.467 128.581C112.163 127.598 114.909 126.759 117.693 126.065C119.073 125.694 120.442 125.333 121.79 124.919C123.125 124.552 124.398 123.991 125.569 123.253C127.827 121.583 129.696 119.442 131.046 116.979C132.482 114.526 133.738 111.972 134.804 109.337Z" fill="#263238"/>
<path d="M160.034 103.181C163.53 108.239 166.226 113.807 168.027 119.686C169.876 125.595 170.596 131.8 170.15 137.975C169.892 141.065 169.261 144.112 168.271 147.05C168.048 147.793 167.751 148.505 167.464 149.226C167.178 149.948 166.902 150.67 166.541 151.349C166.18 152.029 165.872 152.75 165.479 153.472L164.28 155.457C160.925 160.624 156.599 165.09 151.543 168.608C152.678 167.547 153.878 166.645 154.971 165.583C156.064 164.522 157.189 163.46 158.155 162.314C160.209 160.08 162.026 157.64 163.579 155.032C166.737 149.824 168.635 143.951 169.12 137.879C169.59 131.828 168.953 125.743 167.241 119.92C166.422 116.988 165.404 114.116 164.195 111.322C163.004 108.512 161.614 105.792 160.034 103.181Z" fill="#263238"/>
<path d="M137.531 86.4204C136.088 87.6297 135.093 89.2898 134.708 91.1332C134.515 91.9931 134.55 92.8885 134.811 93.7303C135.072 94.5721 135.549 95.3309 136.194 95.931C137.571 97.1554 139.255 97.9811 141.066 98.3192C141.985 98.5126 142.919 98.6262 143.858 98.6589C144.806 98.732 145.76 98.6276 146.67 98.351C145.81 98.8231 144.858 99.1054 143.879 99.179C142.895 99.2957 141.901 99.2957 140.917 99.179C138.892 98.958 136.985 98.1122 135.462 96.7589C134.685 96.0449 134.128 95.1253 133.853 94.1069C133.579 93.0885 133.599 92.0131 133.912 91.0058C134.168 90.0341 134.622 89.1255 135.245 88.3366C135.867 87.5477 136.646 86.8955 137.531 86.4204Z" fill="#263238"/>
<path d="M144.505 137.593C140.737 162.356 118.892 212.775 115.591 219.25C113.352 223.644 89.8726 212.318 91.8469 209.569C94.3625 206.035 119.604 161.741 131.64 145.713C138.285 136.871 145.28 132.477 144.505 137.593Z" fill="#F7A9A0"/>
<path d="M92.3457 208.869C89.6072 212.478 85.319 222.784 84.3318 226.224C83.3447 229.663 81.243 239.778 83.8542 240.84C86.4653 241.901 87.2614 238.95 87.2614 238.95C87.2614 238.95 87.0491 243.355 89.7134 244.151C92.3776 244.947 93.5664 240.373 93.5664 240.373C93.5664 240.373 93.6726 244.916 96.3899 245.51C99.1072 246.104 99.5742 241.264 99.5742 241.264C99.5742 241.264 99.4787 245.425 101.92 244.979C104.871 244.438 104.17 236.753 105.54 233.038C105.858 232.189 113.065 216.384 113.065 216.384L92.3457 208.869Z" fill="#F7A9A0"/>
<path d="M98.9904 241.402C98.4915 235.755 99.2558 233.197 101.814 228.23C101.814 228.134 101.729 228.039 101.665 228.134C98.725 232.762 97.3027 235.84 98.7144 241.445C98.7887 241.721 99.0116 241.678 98.9904 241.402Z" fill="#263238"/>
<path d="M93.1206 240.5C93.1206 234.577 93.9167 231.796 96.2094 226.393C96.2094 226.319 96.1245 226.255 96.082 226.329C93.3859 231.435 92.0379 234.534 92.8234 240.447C92.8552 240.712 93.1206 240.765 93.1206 240.5Z" fill="#263238"/>
<path d="M86.9006 238.356C87.3039 232.624 88.0575 229.535 90.9553 224.557C90.9636 224.535 90.9643 224.51 90.9572 224.488C90.9501 224.465 90.9356 224.446 90.9161 224.432C90.8965 224.419 90.873 224.412 90.8494 224.414C90.8257 224.415 90.8032 224.424 90.7854 224.44C87.6621 228.348 86.2018 233.327 86.7201 238.303C86.7519 238.717 86.8687 238.717 86.9006 238.356Z" fill="#263238"/>
<path d="M117.099 214.41C117.099 214.41 116.78 221.511 115.942 224.599C115.103 227.688 107.79 238.059 105.455 236.604C102.451 234.726 105.455 227.901 107.429 224.759C107.429 224.759 100.466 220.417 101.602 215.046C102.737 209.676 117.099 214.41 117.099 214.41Z" fill="#F7A9A0"/>
<path d="M104.797 235.819C103.289 232.125 106.091 228.155 107.737 224.96C107.763 224.914 107.778 224.862 107.78 224.809C107.782 224.756 107.771 224.703 107.748 224.655C107.725 224.607 107.691 224.565 107.648 224.533C107.605 224.501 107.556 224.48 107.503 224.472C104.712 222.455 101.347 218.804 101.411 215.163C101.411 215.141 101.402 215.119 101.386 215.103C101.37 215.087 101.348 215.078 101.326 215.078C101.303 215.078 101.281 215.087 101.266 215.103C101.25 215.119 101.241 215.141 101.241 215.163C100.646 219.048 103.661 222.912 106.866 224.928C105.126 228.176 102.493 232.274 104.743 235.84C104.775 235.851 104.807 235.84 104.797 235.819Z" fill="#263238"/>
<path d="M115.899 165.286C115.899 165.286 119.466 167.122 123.605 169.309C129.019 172.143 135.419 175.561 136.098 176.144C136.098 176.144 143.03 153.801 144.59 143.813C146.15 133.825 144.707 131.872 137.425 137.89C133.912 140.809 128.775 147.294 124.412 153.228C119.71 159.575 115.899 165.286 115.899 165.286Z" fill="#00E340"/>
<path d="M115.899 165.286C115.899 165.286 119.466 167.122 123.605 169.309C129.019 172.143 135.419 175.561 136.098 176.144C136.098 176.144 143.03 153.801 144.59 143.813C146.15 133.825 144.707 131.872 137.425 137.89C133.912 140.809 128.775 147.294 124.412 153.228C119.71 159.575 115.899 165.286 115.899 165.286Z" fill="#00E340"/>
<path d="M144.569 143.813C143.03 153.801 136.077 176.144 136.077 176.144C135.398 175.561 128.997 172.143 123.584 169.309L120.591 167.738C117.863 166.305 115.878 165.286 115.878 165.286C115.878 165.286 119.689 159.575 124.37 153.228C128.732 147.294 133.869 140.809 137.383 137.89L138.147 137.274C144.781 132.02 146.055 134.185 144.569 143.813Z" fill="#00E340"/>
<path d="M144.569 143.813C143.03 153.801 136.077 176.144 136.077 176.144C135.398 175.561 128.997 172.143 123.584 169.309L120.591 167.738C117.863 166.305 115.878 165.286 115.878 165.286C115.878 165.286 119.689 159.575 124.37 153.228C128.732 147.294 133.869 140.809 137.383 137.89L138.147 137.274C144.781 132.02 146.055 134.185 144.569 143.813Z" fill="#00E340"/>
<path d="M144.569 143.813C143.03 153.801 136.077 176.144 136.077 176.144C135.398 175.561 128.997 172.143 123.584 169.309L120.591 167.738C124.89 160.17 132.946 146.254 138.147 137.274C144.781 132.02 146.055 134.185 144.569 143.813Z" fill="#263238"/>
<path d="M137.001 171.156C131.072 167.749 124.968 164.66 118.712 161.9C118.638 161.9 118.595 161.985 118.712 162.017C120.23 162.696 129.985 168.109 136.99 171.283C137.022 171.315 137.075 171.198 137.001 171.156Z" fill="#263238"/>
<path d="M145.131 132.572C145.291 133.527 149.43 139.949 153.772 140.002C155.183 140.002 155.618 132.317 155.618 132.317L155.788 131.755L158.06 123.889L149.069 117.308L147.764 116.427C147.764 116.427 147.286 118.625 146.702 121.353C146.702 121.48 146.649 121.607 146.628 121.745C146.607 121.883 146.554 122.043 146.522 122.191C146.437 122.594 146.341 123.019 146.257 123.433C146.172 123.847 146.129 124.059 146.076 124.388C146.023 124.717 145.959 125.046 145.896 125.386C145.476 127.761 145.22 130.162 145.131 132.572Z" fill="#F7A9A0"/>
<path d="M146.713 121.331C147.381 123.62 148.538 125.735 150.105 127.532C151.672 129.328 153.612 130.762 155.788 131.734L158.06 123.868L149.069 117.287L147.764 116.406C147.764 116.406 147.286 118.603 146.713 121.331Z" fill="#263238"/>
<path d="M168.43 110.154C171.763 124.112 163.845 127.817 160.756 128.401C157.996 128.931 148.634 130.916 143.879 117.372C139.124 103.828 144.558 97.8628 150.725 96.0478C156.892 94.2327 165.097 96.1858 168.43 110.154Z" fill="#F7A9A0"/>
<path d="M167.018 107.299C166.679 107.299 166.36 107.299 166.021 107.299C165.672 107.329 165.322 107.248 165.023 107.066C164.939 106.989 164.885 106.886 164.867 106.774C164.85 106.663 164.871 106.548 164.927 106.45C165.06 106.268 165.24 106.125 165.447 106.037C165.655 105.949 165.882 105.919 166.106 105.951C166.569 105.938 167.02 106.101 167.369 106.407C167.43 106.483 167.469 106.574 167.484 106.67C167.499 106.766 167.488 106.864 167.452 106.955C167.416 107.045 167.358 107.125 167.281 107.185C167.205 107.246 167.115 107.285 167.018 107.299Z" fill="#263238"/>
<path d="M157.954 109.316C158.268 109.213 158.576 109.092 158.877 108.955C159.221 108.873 159.527 108.679 159.747 108.403C159.799 108.303 159.816 108.188 159.797 108.077C159.778 107.966 159.723 107.865 159.641 107.787C159.455 107.662 159.24 107.589 159.016 107.574C158.792 107.559 158.569 107.603 158.368 107.702C157.923 107.843 157.546 108.141 157.306 108.541C157.259 108.637 157.24 108.744 157.253 108.851C157.266 108.957 157.309 109.057 157.378 109.139C157.446 109.221 157.537 109.282 157.639 109.313C157.742 109.344 157.851 109.345 157.954 109.316Z" fill="#263238"/>
<path d="M160.618 112.458C160.618 112.458 160.554 112.458 160.618 112.553C160.83 113.508 160.915 114.676 160.098 115.122C160.098 115.122 160.098 115.186 160.098 115.175C161.096 114.825 160.968 113.328 160.618 112.458Z" fill="#263238"/>
<path d="M159.567 111.619C158.007 111.789 158.506 114.91 159.928 114.803C161.35 114.697 160.883 111.471 159.567 111.619Z" fill="#263238"/>
<path d="M158.983 111.874C158.739 112.086 158.516 112.437 158.187 112.521C157.858 112.606 157.487 112.33 157.189 112.054H157.136C157.221 112.659 157.54 113.233 158.198 113.233C158.856 113.233 159.132 112.628 159.196 112.012C159.217 111.938 159.079 111.789 158.983 111.874Z" fill="#263238"/>
<path d="M165.734 111.142C165.734 111.142 165.819 111.142 165.819 111.216C165.925 112.182 166.212 113.339 167.135 113.477V113.53C166.042 113.53 165.681 112.076 165.734 111.142Z" fill="#263238"/>
<path d="M166.456 110.006C167.995 109.666 168.579 112.765 167.135 113.084C165.692 113.402 165.161 110.282 166.456 110.006Z" fill="#263238"/>
<path d="M167.135 110.091C167.411 110.207 167.708 110.462 168.006 110.43C168.303 110.398 168.547 110.006 168.696 109.645C168.696 109.645 168.696 109.645 168.759 109.645C168.876 110.229 168.759 110.887 168.25 111.11C167.74 111.332 167.273 110.865 167.018 110.303C166.976 110.282 167.029 110.038 167.135 110.091Z" fill="#263238"/>
<path d="M161.722 119.92C161.977 120.121 162.242 120.419 162.603 120.408C162.977 120.366 163.339 120.247 163.664 120.058C163.664 120.058 163.728 120.058 163.664 120.058C163.546 120.264 163.374 120.435 163.167 120.551C162.959 120.667 162.724 120.724 162.486 120.716C162.284 120.681 162.096 120.588 161.945 120.449C161.794 120.309 161.687 120.129 161.637 119.93C161.637 119.93 161.679 119.888 161.722 119.92Z" fill="#263238"/>
<path d="M165.193 115.78C165.193 115.78 165.628 117.192 165.734 117.903C165.734 117.967 165.585 118.02 165.352 118.073C164.787 118.275 164.177 118.317 163.589 118.196C163.001 118.074 162.458 117.793 162.019 117.383C162.008 117.37 162.002 117.354 162.001 117.338C162.001 117.321 162.006 117.305 162.016 117.291C162.025 117.278 162.039 117.268 162.055 117.263C162.071 117.259 162.089 117.26 162.104 117.266C163.068 117.715 164.15 117.845 165.193 117.638C165.193 117.436 164.365 115.249 164.471 115.217C165.008 115.181 165.547 115.217 166.074 115.324C165.256 112.362 163.951 109.549 163.208 106.599C163.208 106.492 163.335 106.429 163.378 106.524C164.845 109.49 166.014 112.594 166.87 115.791C166.965 116.141 165.479 115.854 165.193 115.78Z" fill="#263238"/>
<path d="M165.214 117.531C164.96 118.166 164.547 118.726 164.015 119.155C163.709 119.388 163.337 119.515 162.953 119.516C162.136 119.516 161.892 118.837 161.892 118.2C161.871 117.844 161.9 117.487 161.977 117.139C162.985 117.617 164.121 117.755 165.214 117.531Z" fill="#263238"/>
<path d="M164.015 119.155C163.709 119.388 163.337 119.515 162.953 119.516C162.136 119.516 161.892 118.837 161.892 118.2C162.301 118.098 162.734 118.136 163.119 118.309C163.504 118.483 163.82 118.781 164.015 119.155Z" fill="#FF9BBC"/>
<path d="M144.112 116.905C145.651 116.597 149.101 111.746 148.156 104.231C148.156 104.231 148.539 111.035 148.156 112.097C147.774 113.158 150.078 109.369 149.409 103.297C151.508 104.392 153.753 105.182 156.075 105.643C159.036 106.036 160.788 105.76 160.958 105.526C161.127 105.293 156.712 104.56 155.417 103.404C155.417 103.404 163.516 105.855 167.093 105.633C167.507 105.633 166.806 97.2047 160.894 94.4343C154.982 91.6639 146.936 96.6952 144.972 99.2426C144.972 99.2426 142.319 100.017 139.941 104.433C137.563 108.849 142.457 117.245 144.112 116.905Z" fill="#263238"/>
<path d="M146.479 117.585C146.479 117.585 142.722 113.604 140.875 115.016C139.028 116.428 142.319 122.446 144.813 123.019C145.127 123.108 145.457 123.133 145.781 123.092C146.105 123.052 146.418 122.946 146.7 122.781C146.983 122.617 147.229 122.397 147.424 122.135C147.62 121.873 147.761 121.575 147.838 121.257L146.479 117.585Z" fill="#F7A9A0"/>
<path d="M66.0113 354.924C66.4253 354.722 124.614 326.042 134.241 307.997C151.447 275.729 157.434 234.481 159.599 224.79C164.055 213.625 167.083 201.942 168.611 190.017H121.716C121.716 190.017 109.414 213.55 115.761 230.172C116.334 231.7 105.327 283.934 99.9457 290.122C93.9592 296.99 48.0516 320.034 47.2768 320.427L66.0113 354.924Z" fill="#181818"/>
<path d="M146.724 195.983C144.41 207.829 141.777 219.621 139.124 231.393C136.47 243.164 133.678 254.744 130.738 266.346C129.252 272.205 127.724 278.047 126.153 283.871C124.72 289.178 123.319 294.612 119.71 298.89C116.101 303.168 111.494 306.108 107.079 309.165C102.408 312.349 97.6105 315.438 92.7278 318.336C82.8776 324.195 72.7196 329.513 62.5191 334.724L58.7722 336.624C58.4962 336.762 58.7722 337.176 59.0269 337.038C69.3654 331.901 79.6827 326.657 89.6815 320.883C94.6844 318.003 99.5954 314.982 104.414 311.818C106.781 310.258 109.117 308.634 111.431 306.999C113.608 305.486 115.702 303.856 117.704 302.117C119.669 300.39 121.353 298.367 122.692 296.12C123.98 293.786 124.992 291.31 125.707 288.743C127.416 283.106 128.838 277.364 130.314 271.664C133.371 259.882 136.201 248.05 138.805 236.169C141.448 224.292 143.9 212.372 146.034 200.388C146.299 198.934 146.554 197.48 146.83 196.025C146.893 195.919 146.734 195.877 146.724 195.983Z" fill="#263238"/>
<path d="M168.611 190.018C167.083 201.942 164.055 213.625 159.599 224.79C159.376 225.767 159.121 227.062 158.824 228.644C158.75 229.026 158.675 229.418 158.591 229.822C158.506 230.225 158.389 230.883 158.272 231.488C158.155 232.093 158.07 232.55 157.964 233.123L157.741 234.259C157.603 235.012 157.444 235.808 157.285 236.626C157.221 236.955 157.158 237.294 157.083 237.623C156.967 238.25 156.829 238.897 156.701 239.555C156.16 242.209 155.555 245.107 154.875 248.195C154.578 249.501 154.27 250.86 153.941 252.239C153.612 253.619 153.283 255.031 152.88 256.485C152.731 257.101 152.572 257.717 152.413 258.332C151.606 261.516 150.704 264.902 149.717 268.31C149.505 269.063 149.282 269.817 149.059 270.581C148.054 273.942 146.964 277.353 145.789 280.814C145.492 281.673 145.184 282.533 144.887 283.403C144.272 285.123 143.631 286.85 142.966 288.583L125.601 190.018C136.926 189.996 168.621 189.996 168.611 190.018Z" fill="#263238"/>
<path d="M31.1322 328.78C29.0093 329.842 26.9925 330.988 25.0183 332.071L21.4306 334.056C14.0005 338.195 8.39603 341.571 8.32172 342.441C8.07759 345.095 34.9109 397.838 36.4606 399.377C38.0104 400.916 42.4578 396.575 43.0735 393.688C43.4237 391.936 43.0734 382.086 42.7975 374.635C42.5852 369.847 42.4047 366.048 42.4047 366.048L48.6673 363.054L77.2308 349.457L59.1862 314.228C59.1862 314.228 44.6656 321.509 31.1322 328.78Z" fill="white"/>
<path d="M70.7028 355.359C69.981 354.382 51.0342 316.956 51.0342 316.956C51.0342 316.956 8.87363 338.822 7.79096 342.165C6.70828 345.509 35.9193 400.608 37.1505 401.171C38.3818 401.733 43.222 397.987 44.6443 392.287C45.7058 388.147 44.3578 367.619 44.3578 367.619L70.7028 355.359Z" fill="#00E340"/>
<path d="M46.9159 369.115C46.8203 365.146 45.2494 360.624 41.9058 358.257C41.7785 358.172 41.6511 358.352 41.7148 358.469C43.6651 361.869 45.2485 365.466 46.4382 369.2C46.4553 369.258 46.493 369.307 46.544 369.338C46.5951 369.37 46.6559 369.381 46.7149 369.371C46.774 369.36 46.8271 369.329 46.8642 369.281C46.9012 369.234 46.9196 369.175 46.9159 369.115Z" fill="#455A64"/>
<path d="M49.803 367.64C49.7075 363.67 48.1259 359.148 44.7824 356.781C44.655 356.696 44.5276 356.877 44.5913 356.994C46.5503 360.389 48.1341 363.987 49.3147 367.725C49.3374 367.777 49.3771 367.821 49.4275 367.848C49.4779 367.875 49.536 367.885 49.5924 367.875C49.6488 367.865 49.7003 367.837 49.7385 367.794C49.7768 367.751 49.7995 367.697 49.803 367.64Z" fill="#455A64"/>
<path d="M52.6795 366.165C52.584 362.195 51.0025 357.673 47.6695 355.306C47.5421 355.221 47.4148 355.401 47.4785 355.518C49.4297 358.916 51.0097 362.514 52.1913 366.249C52.2139 366.302 52.2536 366.345 52.304 366.373C52.3544 366.4 52.4125 366.41 52.4689 366.4C52.5254 366.39 52.5769 366.361 52.6151 366.319C52.6533 366.276 52.676 366.222 52.6795 366.165Z" fill="#455A64"/>
<path d="M55.5666 364.689C55.4605 360.719 53.8896 356.197 50.546 353.83C50.4186 353.735 50.2913 353.926 50.355 354.043C52.3053 357.442 53.8886 361.04 55.0784 364.774C55.101 364.827 55.1407 364.87 55.1911 364.897C55.2415 364.925 55.2996 364.934 55.356 364.924C55.4125 364.914 55.464 364.886 55.5022 364.843C55.5404 364.801 55.5631 364.746 55.5666 364.689Z" fill="#455A64"/>
<path d="M58.4432 363.214C58.3476 359.244 56.7661 354.722 53.4332 352.355C53.2952 352.259 53.1678 352.451 53.2421 352.567C55.1933 355.965 56.7733 359.563 57.9549 363.298C57.9776 363.351 58.0173 363.395 58.0676 363.422C58.118 363.449 58.1761 363.459 58.2326 363.449C58.289 363.439 58.3405 363.41 58.3787 363.368C58.4169 363.325 58.4396 363.271 58.4432 363.214Z" fill="#455A64"/>
<path d="M140.663 231.976C140.663 231.976 144.675 270.019 146.543 289.167C147.021 293.933 147.339 297.542 147.456 299.081C147.456 299.697 147.52 309.632 147.541 322.635C147.541 334.034 147.541 347.77 147.541 359.605V368.096C147.541 379.008 147.541 386.778 147.541 386.778H186.209C186.209 386.778 186.209 386.417 186.209 385.716C186.209 385.355 186.209 384.91 186.209 384.379C186.209 383.848 186.209 383.211 186.209 382.489C186.209 382.076 186.209 381.619 186.209 381.152C186.209 377.893 186.326 373.382 186.4 368.128C186.4 365.432 186.475 362.555 186.517 359.541C186.814 336.126 187.058 304.675 186.39 295.408C186.305 294.347 186.231 293.233 186.156 292.097C184.415 265.868 183.45 227.688 170.585 189.954H121.652C121.652 189.954 122.077 212.117 132.161 228.166C135.063 229.277 137.902 230.549 140.663 231.976Z" fill="#181818"/>
<path d="M177.07 307.392C176.879 295.164 176.38 282.979 175.425 270.751C174.47 258.523 173.005 246.677 171.052 234.725C169.181 222.7 166.575 210.8 163.25 199.093C162.826 197.628 162.391 196.163 161.945 194.709C161.939 194.689 161.93 194.67 161.917 194.653C161.904 194.637 161.888 194.623 161.87 194.613C161.851 194.602 161.831 194.596 161.81 194.593C161.79 194.59 161.769 194.592 161.748 194.598C161.728 194.603 161.709 194.613 161.693 194.626C161.676 194.638 161.662 194.654 161.652 194.673C161.642 194.691 161.635 194.711 161.632 194.732C161.63 194.753 161.631 194.774 161.637 194.794C164.768 206.47 167.464 218.326 169.513 230.289C171.561 242.251 172.909 254.426 173.928 266.569C174.947 278.712 175.521 290.982 175.828 303.178C176.136 315.374 176.157 327.591 176.041 339.787C175.924 351.983 175.446 364.201 175.414 376.365C175.414 377.893 175.414 379.422 175.414 380.95C175.414 381.056 175.574 381.046 175.574 380.95C175.797 374.836 176.157 368.722 176.359 362.598C176.561 356.473 176.741 350.338 176.89 344.203C177.123 331.933 177.261 319.662 177.07 307.392Z" fill="#263238"/>
<path d="M147.212 234.991C144.802 233.675 142.329 232.486 139.782 231.403C137.234 230.321 134.655 229.344 132.139 228.219C132.044 228.219 131.959 228.314 132.054 228.367C134.538 229.641 136.969 231.01 139.485 232.221C141.949 233.408 144.492 234.426 147.095 235.267C147.276 235.32 147.36 235.065 147.212 234.991Z" fill="#263238"/>
<path d="M147.636 391.236C147.636 393.592 147.721 395.927 147.785 398.178C147.785 399.579 147.87 400.948 147.912 402.264C148.199 410.756 148.666 417.294 149.398 417.761C151.649 419.184 210.824 419.364 212.894 418.685C214.964 418.005 213.149 412.051 210.856 410.193C209.466 409.079 200.56 404.886 193.788 401.755C189.436 399.749 185.965 398.188 185.965 398.188L186.156 391.246L187.08 359.615H147.467C147.467 359.615 147.382 375.887 147.636 391.236Z" fill="white"/>
<path d="M189.341 368.128C188.141 368.33 146.193 368.128 146.193 368.128C146.193 368.128 146.426 415.617 148.91 418.101C151.394 420.585 213.754 419.725 214.805 418.897C215.856 418.069 214.73 412.03 210.315 408.166C207.13 405.364 188.237 397.18 188.237 397.18L189.341 368.128Z" fill="#00E340"/>
<path d="M190.742 395.577C187.165 393.847 182.399 393.178 178.79 395.089C178.652 395.163 178.79 395.354 178.885 395.354C182.791 395.167 186.705 395.398 190.561 396.044C190.623 396.068 190.692 396.066 190.753 396.04C190.814 396.013 190.861 395.963 190.885 395.901C190.909 395.839 190.907 395.77 190.88 395.709C190.854 395.649 190.804 395.601 190.742 395.577Z" fill="#455A64"/>
<path d="M190.742 392.34C187.165 390.61 182.399 389.941 178.79 391.851C178.652 391.926 178.79 392.117 178.885 392.117C182.791 391.929 186.705 392.161 190.561 392.807C190.623 392.831 190.692 392.829 190.753 392.802C190.814 392.775 190.861 392.725 190.885 392.663C190.909 392.602 190.907 392.533 190.88 392.472C190.854 392.411 190.804 392.364 190.742 392.34Z" fill="#455A64"/>
<path d="M190.742 389.102C187.165 387.372 182.399 386.703 178.79 388.614C178.652 388.688 178.79 388.879 178.885 388.879C182.791 388.692 186.705 388.923 190.561 389.569C190.623 389.593 190.692 389.591 190.753 389.565C190.814 389.538 190.861 389.488 190.885 389.426C190.909 389.364 190.907 389.295 190.88 389.234C190.854 389.174 190.804 389.126 190.742 389.102Z" fill="#455A64"/>
<path d="M190.742 385.865C187.165 384.135 182.399 383.466 178.79 385.377C178.652 385.451 178.79 385.642 178.885 385.642C182.791 385.455 186.705 385.686 190.561 386.332C190.623 386.356 190.692 386.354 190.753 386.327C190.814 386.3 190.861 386.25 190.885 386.189C190.909 386.127 190.907 386.058 190.88 385.997C190.854 385.936 190.804 385.889 190.742 385.865Z" fill="#455A64"/>
<path d="M190.742 382.627C187.165 380.897 182.399 380.229 178.79 382.139C178.652 382.213 178.79 382.405 178.885 382.405C182.791 382.217 186.705 382.448 190.561 383.094C190.623 383.118 190.692 383.117 190.753 383.09C190.814 383.063 190.861 383.013 190.885 382.951C190.909 382.889 190.907 382.82 190.88 382.76C190.854 382.699 190.804 382.651 190.742 382.627Z" fill="#455A64"/>
<path d="M171.869 176.951L176.189 206.672C176.189 206.672 124.996 207.383 112.97 206.544C112.97 206.544 125.537 150.978 138.444 136.945C144.919 129.918 152.508 130.449 157.349 135.353C158.569 136.595 173.175 155.903 174.714 163.28C176.083 169.786 171.869 176.951 171.869 176.951Z" fill="#00E340"/>
<path d="M148.666 145.076C155.926 146.137 198.469 143.622 205.984 134.79C215.113 124.102 226.152 103.117 228.943 96.3873C230.769 91.9186 209.646 80.4657 208.457 84.7114C206.6 91.3561 190.169 116.459 188.895 118.678C187.621 120.896 168.727 127.392 157.72 132.89C147.849 137.816 143.55 144.301 148.666 145.076Z" fill="#F7A9A0"/>
<path d="M208.213 85.6668C208.213 85.6668 210.612 76.8356 212.459 71.1357C213.52 67.9513 215.739 62.6441 217.564 60.6804C220.292 57.6978 233.592 46.9878 236.257 50.1615C238.677 53.0274 226.077 60.776 226.077 60.776C226.077 60.776 238.103 51.828 240.364 55.819C242.625 59.81 227.234 66.6776 227.234 66.6776C227.234 66.6776 239.802 57.7614 241.489 62.2514C242.763 65.6374 229.166 72.6429 229.166 72.6429C229.166 72.6429 240.014 65.0536 241.479 68.4821C243.103 72.2714 230.949 79.5211 230.949 79.5211C233.21 88.8724 230.461 94.2433 228.052 97.831C227.457 98.6908 208.213 85.6668 208.213 85.6668Z" fill="#F7A9A0"/>
<path d="M221.704 63.5782C223.084 62.5167 224.464 61.3491 225.95 60.3938C227.436 59.4385 228.922 58.4938 230.472 57.6553C232.485 56.5227 234.622 55.6252 236.84 54.9805C233.13 56.5905 229.576 58.5413 226.226 60.8078C224.761 61.7737 223.254 62.6759 221.789 63.6525C221.704 63.6843 221.672 63.6312 221.704 63.5782Z" fill="#263238"/>
<path d="M225.133 68.9703C226.948 67.6329 228.699 66.253 230.578 65.0005C232.457 63.748 234.325 62.7396 236.267 61.6251C236.426 61.5402 236.416 61.6251 236.267 61.7419C234.367 62.9307 232.701 64.1726 230.822 65.3826C228.943 66.5927 227.001 67.739 225.164 69.0128C225.133 69.034 225.111 68.9915 225.133 68.9703Z" fill="#263238"/>
<path d="M227.245 74.0971C229.985 71.9898 232.933 70.1687 236.044 68.6625C236.193 68.5882 236.172 68.7262 236.044 68.8217C233.083 70.5731 230.737 71.9211 227.34 74.1926C227.266 74.1926 227.149 74.1926 227.245 74.0971Z" fill="#263238"/>
<path d="M178.248 121.024L188.587 143.388C188.587 143.388 162.985 150.245 150.715 148.6C141.852 147.411 142.149 140.363 154.366 133.092C164.015 127.35 178.248 121.024 178.248 121.024Z" fill="#00E340"/>
<path d="M183.885 143.6C181.198 136.679 178.14 129.908 174.725 123.316C174.725 123.231 174.565 123.316 174.608 123.38C175.436 124.983 179.989 136.213 183.747 143.664C183.789 143.749 183.917 143.685 183.885 143.6Z" fill="#263238"/>
<path d="M166.796 147.889C162.783 148.473 158.951 150.012 155.12 151.243C155.102 151.252 155.087 151.268 155.08 151.286C155.072 151.305 155.072 151.326 155.078 151.345C155.084 151.365 155.097 151.381 155.115 151.391C155.132 151.402 155.153 151.406 155.173 151.402C156.648 150.978 158.155 150.595 159.663 150.203C158.973 150.617 158.304 151.062 157.614 151.466C157.519 151.466 157.614 151.657 157.699 151.604C158.76 150.999 159.822 150.542 160.883 149.874C162.9 149.367 164.881 148.733 166.817 147.974C166.817 147.974 166.859 147.878 166.796 147.889Z" fill="#263238"/>
</svg>
