<svg width="192" height="118" viewBox="0 0 192 118" fill="none" xmlns="http://www.w3.org/2000/svg">
<path fill-rule="evenodd" clip-rule="evenodd" d="M136.65 110.375C153.546 111.181 170.841 110.773 186.869 116.935C187.824 117.298 188.896 116.827 189.267 115.872C189.631 114.916 189.159 113.845 188.204 113.474C171.801 107.169 154.115 107.494 136.826 106.671C135.804 106.617 134.933 107.412 134.887 108.435C134.833 109.457 135.628 110.321 136.65 110.375Z" fill="#00E340"/>
<path fill-rule="evenodd" clip-rule="evenodd" d="M135.71 85.7944C141.093 81.0702 146.93 77.5735 153.925 75.9372C154.924 75.7042 155.541 74.7065 155.312 73.7104C155.076 72.7141 154.075 72.095 153.083 72.3282C145.477 74.1066 139.122 77.8736 133.269 83.0073C132.497 83.6817 132.417 84.8537 133.096 85.6231C133.768 86.3916 134.945 86.469 135.71 85.7944Z" fill="#00E340"/>
<path fill-rule="evenodd" clip-rule="evenodd" d="M122.298 32.5145C124.91 24.2893 129.821 17.9225 137.224 13.4156C138.096 12.8838 138.376 11.7424 137.84 10.8689C137.312 9.99549 136.169 9.71787 135.296 10.2497C127.103 15.24 121.657 22.2853 118.765 31.3923C118.453 32.3668 119 33.4104 119.971 33.7196C120.95 34.0297 121.994 33.4892 122.298 32.5145Z" fill="#00E340"/>
<path fill-rule="evenodd" clip-rule="evenodd" d="M39.2964 19.3111C37.8187 20.9693 36.4861 22.762 35.3434 24.6772C34.8339 25.5298 33.9309 27.3461 33.7603 28.9179C33.5725 30.5923 34.1098 32.0214 35.5596 32.8016C37.4855 33.8362 39.0444 33.7699 40.2592 33.2001C41.4289 32.653 42.3596 31.5455 42.966 30.0456C44.1237 27.1786 44.0648 22.7539 43.5536 20.2176C45.1251 18.6707 46.8414 17.2748 48.6724 16.041C62.3111 6.8522 81.9057 10.821 96.7121 25.3901C101.894 30.491 104.197 41.0012 105.258 52.3074C106.912 69.9114 105.271 89.4912 104.972 95.2319C104.902 96.6496 105.015 97.4946 105.086 97.6646C105.414 98.4999 106.024 98.7294 106.452 98.821C107.072 98.9469 107.572 98.84 107.977 98.6419C108.524 98.3701 108.981 97.8795 109.207 97.1114C109.328 96.6872 109.372 96.0935 109.372 95.4595C109.367 95.0196 109.29 94.5373 109.386 94.2244C110.012 92.2206 110.755 90.2671 111.483 88.2992C113.916 81.6833 117.006 75.5027 120.421 69.3372C131.272 49.7462 141.809 29.0243 159.189 14.3132C159.968 13.6531 160.07 12.4823 159.407 11.7014C158.75 10.9207 157.581 10.8234 156.794 11.4841C139.066 26.4858 128.246 47.5621 117.179 67.541C114.274 72.7857 111.599 78.0433 109.348 83.5556C109.795 73.7213 110.035 60.0995 108.518 48.0061C107.17 37.2508 104.347 27.7072 99.3104 22.7484C83.0908 6.78822 61.5367 2.90078 46.6018 12.9674C45.0043 14.045 43.4784 15.2356 42.0537 16.5323C34.6953 2.47333 18.3732 -3.47689 3.67557 2.81788C2.73172 3.22053 2.29817 4.31078 2.69869 5.25086C3.10662 6.19113 4.19378 6.6276 5.13762 6.22494C18.382 0.552923 33.116 6.24095 39.2964 19.3111ZM40.2614 23.9826C39.6411 24.8164 39.0645 25.6823 38.5243 26.5787C38.2386 27.0599 37.7421 27.9862 37.5204 28.899C37.4708 29.1129 37.4555 29.4492 37.4519 29.6048C37.9573 29.8689 38.3546 29.9999 38.6846 29.8438C39.0969 29.6518 39.3157 29.1824 39.5283 28.6572C40.0636 27.3394 40.2682 25.5808 40.2614 23.9826Z" fill="#00E340"/>
</svg>
