<svg width="101" height="122" viewBox="0 0 101 122" fill="none" xmlns="http://www.w3.org/2000/svg">
<path fill-rule="evenodd" clip-rule="evenodd" d="M94.9394 37.7655C94.9024 33.2453 94.9056 28.7734 94.737 24.2566C94.7042 23.2847 93.8942 22.5307 92.9288 22.5663C91.9569 22.599 91.1999 23.4154 91.2355 24.3809C91.3997 28.8727 91.3978 33.3068 91.4332 37.7957C91.4438 38.7655 92.2362 39.5427 93.1968 39.5356C94.1666 39.525 94.95 38.7353 94.9394 37.7655Z" fill="#00E340"/>
<path fill-rule="evenodd" clip-rule="evenodd" d="M62.7028 56.6975C53.2384 45.9993 43.2394 35.786 33.553 25.2966C32.8927 24.5853 31.7851 24.5432 31.0766 25.1971C30.3653 25.8575 30.3168 26.9621 30.9744 27.6798C40.6471 38.1479 50.6326 48.3396 60.074 59.0202C60.7195 59.7479 61.8249 59.8124 62.5499 59.1733C63.2777 58.5278 63.3419 57.4225 62.7028 56.6975Z" fill="#00E340"/>
<path fill-rule="evenodd" clip-rule="evenodd" d="M38.957 102.392C27.271 99.3506 15.4818 96.6315 3.8302 93.4597C2.89769 93.211 1.93607 93.7613 1.68095 94.691C1.42301 95.6271 1.97976 96.5916 2.90945 96.8467C14.5767 100.018 26.3788 102.742 38.0804 105.783C39.0157 106.025 39.9739 105.466 40.2162 104.53C40.4613 103.589 39.8987 102.637 38.957 102.392Z" fill="#00E340"/>
</svg>
