<svg width="49" height="49" viewBox="0 0 49 49" fill="none" xmlns="http://www.w3.org/2000/svg">
<path d="M24.1601 0H24.0506C10.7957 0 0.0504303 10.7484 0.0504303 24.0072V24.1168C0.0504303 37.3756 10.7957 48.124 24.0506 48.124H24.1601C37.415 48.124 48.1603 37.3756 48.1603 24.1168V24.0072C48.1603 10.7484 37.415 0 24.1601 0Z" fill="#383D38"/>
<path d="M31.5495 9.79102H16.6629C12.5503 9.79102 9.2045 13.1378 9.2045 17.2516V30.8747C9.2045 34.9886 12.5503 38.3353 16.6629 38.3353H31.5495C35.6621 38.3353 39.0079 34.9886 39.0079 30.8747V17.2516C39.0079 13.1378 35.6621 9.79102 31.5495 9.79102ZM11.8356 17.2516C11.8356 14.5894 14.0015 12.4229 16.6629 12.4229H31.5495C34.2109 12.4229 36.3768 14.5894 36.3768 17.2516V30.8747C36.3768 33.5369 34.2109 35.7034 31.5495 35.7034H16.6629C14.0015 35.7034 11.8356 33.5369 11.8356 30.8747V17.2516Z" fill="white"/>
<path d="M24.1062 31.0014C27.9307 31.0014 31.0438 27.889 31.0438 24.0617C31.0438 20.2345 27.9324 17.1221 24.1062 17.1221C20.2801 17.1221 17.1686 20.2345 17.1686 24.0617C17.1686 27.889 20.2801 31.0014 24.1062 31.0014ZM24.1062 19.7556C26.4811 19.7556 28.4127 21.6878 28.4127 24.0634C28.4127 26.439 26.4811 28.3712 24.1062 28.3712C21.7313 28.3712 19.7997 26.439 19.7997 24.0634C19.7997 21.6878 21.7313 19.7556 24.1062 19.7556Z" fill="white"/>
<path d="M31.686 18.2435C32.7159 18.2435 33.5553 17.4055 33.5553 16.3737C33.5553 15.3419 32.7176 14.5039 31.686 14.5039C30.6545 14.5039 29.8168 15.3419 29.8168 16.3737C29.8168 17.4055 30.6545 18.2435 31.686 18.2435Z" fill="white"/>
</svg>
