<svg width="49" height="49" viewBox="0 0 49 49" fill="none" xmlns="http://www.w3.org/2000/svg">
<path d="M24.308 0H24.1984C10.9435 0 0.198273 10.7484 0.198273 24.0072V24.1168C0.198273 37.3756 10.9435 48.124 24.1984 48.124H24.308C37.5629 48.124 48.3081 37.3756 48.3081 24.1168V24.0072C48.3081 10.7484 37.5629 0 24.308 0Z" fill="#383D38"/>
<path d="M11.6716 15.9964C11.0379 15.408 10.7227 14.6796 10.7227 13.813C10.7227 12.9464 11.0396 12.186 11.6716 11.5959C12.3054 11.0075 13.1212 10.7124 14.1207 10.7124C15.1202 10.7124 15.904 11.0075 16.5361 11.5959C17.1698 12.1843 17.485 12.9245 17.485 13.813C17.485 14.7015 17.1681 15.408 16.5361 15.9964C15.9023 16.5848 15.0983 16.8798 14.1207 16.8798C13.1431 16.8798 12.3054 16.5848 11.6716 15.9964ZM16.9524 19.3718V37.4122H11.2536V19.3718H16.9524Z" fill="#FEFFFC"/>
<path d="M35.9229 21.1536C37.1651 22.5024 37.7854 24.3537 37.7854 26.7107V37.0932H32.3732V27.4424C32.3732 26.2538 32.0648 25.3299 31.4495 24.6723C30.8343 24.0148 30.005 23.6843 28.9668 23.6843C27.9285 23.6843 27.0992 24.0131 26.484 24.6723C25.8687 25.3299 25.5603 26.2538 25.5603 27.4424V37.0932H20.1161V19.3209H25.5603V21.6779C26.1115 20.8923 26.8548 20.2718 27.7886 19.8149C28.7224 19.358 29.7724 19.1304 30.9405 19.1304C33.0204 19.1304 34.6823 19.8048 35.9229 21.1519V21.1536Z" fill="#FEFFFC"/>
</svg>
