<svg width="721" height="813" viewBox="0 0 721 813" fill="none" xmlns="http://www.w3.org/2000/svg">
<path fill-rule="evenodd" clip-rule="evenodd" d="M352.47 59.6945C410.805 68.5161 464.372 91.4577 517.915 119.195C576.343 149.464 650.051 165.342 680.438 229.597C710.853 293.91 671.212 371.652 671.829 444.651C672.453 518.539 717.522 598.711 684.094 662.103C650.584 725.648 569.762 725.462 509.222 753.006C457.152 776.697 408.557 813.826 352.47 812.986C296.678 812.15 250.412 770.354 198.088 748.345C134.364 721.542 44.1986 735.908 10.2571 669.047C-23.6906 602.174 36.9118 521.431 43.919 444.651C50.0491 377.482 29.478 309.42 48.9028 245.597C70.3602 175.095 101.658 100.393 159.47 64.9901C217.094 29.7013 287.575 49.8809 352.47 59.6945Z" fill="#00FF47"/>
<path d="M652.538 637.366L579.194 636.946L505.85 636.812L359.179 636.526L212.507 636.812L139.163 636.946L65.8193 637.366L139.163 637.77L212.507 637.921L359.179 638.207L505.85 637.921L579.194 637.77L652.538 637.366Z" fill="black"/>
<path d="M378.931 475.479L374.785 501.544L346.757 660.541H342.227L362.62 501.544L365.629 475.479H378.931Z" fill="#C7C7C7"/>
<path d="M365.629 475.479H378.931L374.785 501.544H362.62L365.629 475.479Z" fill="#EBEBEB"/>
<path d="M467.002 660.541H462.472L434.428 501.544L430.298 475.479H443.584L446.609 501.544L467.002 660.541Z" fill="#C7C7C7"/>
<path d="M443.583 475.479L446.609 501.544H434.427L430.298 475.479H443.583Z" fill="#EBEBEB"/>
<path d="M551.102 660.541H546.588L518.544 501.544L514.398 475.479H527.7L530.709 501.544L551.102 660.541Z" fill="#C7C7C7"/>
<path d="M530.709 501.544H518.544L514.398 475.479H527.7L530.709 501.544Z" fill="#EBEBEB"/>
<path d="M543.931 487.73H338.45V464.992H415.379L441.23 273.46H536.104L543.931 487.73Z" fill="#C7C7C7"/>
<path d="M531.958 464.992H338.45V487.73H532.742L531.958 464.992Z" fill="#DBDBDB"/>
<path d="M543.931 487.73H532.742L525.443 273.46H536.104L543.931 487.73Z" fill="#DBDBDB"/>
<path d="M349.014 690.825C353 691.228 461.799 664.02 465.224 660.323C465.657 659.902 463.512 649.517 460.422 635.366V635.081C458.453 626.106 426.808 553.507 426.808 553.507L356.297 574.161L388.311 641.517C388.311 641.517 375.041 651.6 363.66 661.129C356.633 666.994 350.567 672.271 349.254 673.969C345.797 678.456 345.012 690.455 349.014 690.825Z" fill="#AD6359"/>
<path d="M349.014 690.825C353 691.228 461.799 664.02 465.241 660.323C465.657 659.902 463.512 649.533 460.439 635.366V635.098C459.718 631.736 454.836 619.552 449.026 605.57C437.421 608.931 395.819 620.695 380.708 625.552L388.295 641.517C388.295 641.517 375.026 651.601 363.645 661.129C356.618 666.994 350.551 672.271 349.239 673.969C345.797 678.473 345.013 690.472 349.014 690.825Z" fill="#EBEBEB"/>
<path d="M348.646 691.362C352.76 691.749 461.639 664.222 465.16 660.423C466.505 658.978 464.088 640.946 458.133 621.771L387.991 639.669C387.991 639.669 352.151 669.448 348.71 674.053C345.268 678.657 344.548 690.993 348.646 691.362Z" fill="#00E340"/>
<path d="M349.158 686.405C367.31 681.363 440.942 662.608 459.238 659.029C459.398 659.029 459.414 659.113 459.238 659.163C441.358 664.608 367.582 682.691 349.206 686.724C348.854 686.808 348.774 686.506 349.158 686.405Z" fill="black"/>
<path d="M354.744 668.171C356.761 667.602 358.869 667.48 360.933 667.812C362.997 668.145 364.972 668.925 366.734 670.103C369.913 672.191 372.206 675.482 373.136 679.296C373.136 679.414 372.944 679.464 372.912 679.296C371.418 675.66 368.842 672.63 365.569 670.661C362.296 668.691 358.504 667.889 354.76 668.372C354.746 668.361 354.734 668.347 354.725 668.33C354.716 668.313 354.71 668.295 354.709 668.275C354.707 668.256 354.71 668.237 354.716 668.219C354.722 668.201 354.732 668.185 354.744 668.171Z" fill="black"/>
<path d="M382.677 643.03C389.96 641.08 399.052 641.652 405.086 646.777C405.311 646.979 405.086 647.315 404.798 647.248C397.602 645.353 390.235 644.266 382.821 644.004C382.698 644.024 382.572 643.992 382.471 643.915C382.371 643.838 382.304 643.722 382.285 643.593C382.265 643.463 382.296 643.331 382.37 643.226C382.443 643.12 382.554 643.05 382.677 643.03Z" fill="black"/>
<path d="M377.571 646.76C384.838 644.811 393.93 645.382 399.98 650.508C400.205 650.71 399.98 651.046 399.692 650.979C392.496 649.084 385.129 647.997 377.715 647.735C377.592 647.755 377.466 647.723 377.365 647.646C377.265 647.569 377.198 647.453 377.179 647.323C377.159 647.194 377.19 647.062 377.264 646.957C377.337 646.851 377.448 646.781 377.571 646.76Z" fill="black"/>
<path d="M372.448 650.508C379.732 648.542 388.824 649.113 394.858 654.239C395.082 654.441 394.858 654.777 394.57 654.726C387.377 652.815 380.008 651.728 372.593 651.483C372.483 651.477 372.378 651.431 372.297 651.353C372.215 651.276 372.161 651.171 372.144 651.057C372.128 650.943 372.149 650.826 372.204 650.726C372.259 650.626 372.346 650.549 372.448 650.508Z" fill="black"/>
<path d="M367.342 654.239C374.625 652.289 383.717 652.844 389.752 657.97C389.992 658.171 389.752 658.507 389.48 658.457C382.287 656.547 374.918 655.46 367.502 655.214C367.391 655.211 367.284 655.167 367.2 655.091C367.116 655.015 367.06 654.91 367.041 654.795C367.022 654.68 367.042 654.562 367.097 654.46C367.152 654.359 367.238 654.281 367.342 654.239Z" fill="black"/>
<path d="M450.418 642.005C458.63 639.971 461.623 653.349 453.46 655.449C445.296 657.55 442.207 644.055 450.418 642.005Z" fill="black"/>
<path d="M370.08 624.56C373.041 620.409 378.419 622.376 381.476 625.149C386.619 629.997 390.456 636.181 392.601 643.08C392.611 643.11 392.615 643.142 392.611 643.174C392.607 643.205 392.596 643.235 392.579 643.262C392.561 643.288 392.539 643.309 392.512 643.325C392.485 643.34 392.456 643.348 392.425 643.349C392.425 643.937 391.881 644.559 391.257 644.307C385.19 641.836 378.451 640.005 373.249 635.652C370.224 633.114 367.294 628.493 370.08 624.56ZM382.789 638.593C385.75 639.887 388.744 641.013 391.657 642.408C389.464 638.929 387.447 635.35 384.934 632.089C383.742 630.502 382.454 628.997 381.076 627.585C378.899 625.468 370.272 620.863 371.472 629.384C372.112 634.089 379.268 637.064 382.789 638.593Z" fill="black"/>
<path d="M411.409 641.332C405.279 643.971 398.284 643.719 391.801 644.29C391.656 644.29 391.514 644.254 391.386 644.185C391.257 644.115 391.146 644.015 391.062 643.892C390.977 643.769 390.922 643.627 390.9 643.477C390.879 643.327 390.891 643.174 390.937 643.03C390.824 643.03 390.744 642.845 390.84 642.71C394.756 636.726 400.107 631.932 406.351 628.812C410.017 627.132 415.699 626.762 417.428 631.636C419.061 636.224 414.979 639.803 411.409 641.332ZM414.819 635.854C418.244 628.022 408.72 629.871 406.079 631.283C404.374 632.215 402.732 633.271 401.165 634.442C397.868 636.828 394.97 639.652 391.929 642.358C395.13 641.87 398.332 641.685 401.533 641.332C405.263 640.895 412.93 640.173 414.819 635.854Z" fill="black"/>
<path d="M381.94 632.728L456.821 611.688C456.821 611.688 391.016 468.404 396.33 460.438C398.988 456.505 469.162 453.178 490.932 432.591C519.2 405.854 498.631 367.05 498.631 367.05H420.197C420.197 367.05 421.621 384.242 418.596 386.93C416.627 388.712 323.435 399.888 314.103 433.314C302.674 474.302 381.94 632.728 381.94 632.728Z" fill="#0E0E0E"/>
<path d="M380.628 621.199C382.621 620.241 384.675 619.427 386.775 618.763C388.952 617.973 391.113 617.183 393.305 616.427C397.611 614.948 401.933 613.536 406.271 612.225C415.043 609.57 423.879 606.965 432.635 604.562C437.229 603.301 447.041 600.579 447.697 600.663C448.001 600.663 448.065 601.234 447.793 601.335C439.277 604.579 430.618 607.385 421.974 610.209C413.33 613.032 404.67 615.805 395.915 618.174C393.482 618.83 391.113 619.418 388.599 620.04C386.061 620.832 383.472 621.432 380.852 621.838C380.596 621.855 380.356 621.351 380.628 621.199Z" fill="black"/>
<path d="M382.725 454.119C384.326 452.657 386.615 452.438 388.583 452.001L422.374 444.96C432.907 442.758 443.503 440.759 453.988 438.238C462.664 436.187 471.483 433.532 478.895 428.322C486.1 423.18 491.326 415.513 493.637 406.694C495.776 397.796 496.19 388.538 494.854 379.469C494.597 377.267 494.149 375.066 493.685 372.898C493.685 372.73 493.909 372.663 493.941 372.898C497.287 389.703 498.103 409.282 486.434 423.113C480.751 429.835 472.796 433.952 464.632 436.708C455.428 439.817 445.76 441.448 436.284 443.431L402.493 450.439C397.067 451.565 391.561 452.472 386.198 453.8C385.112 453.978 384.099 454.486 383.285 455.262C382.907 455.867 382.676 456.56 382.612 457.281C382.548 458.001 382.652 458.728 382.917 459.396C383.541 462.186 384.342 464.942 385.19 467.664C391.993 489.629 439.742 593.706 441.038 596.092C441.166 596.344 440.798 596.546 440.654 596.31C429.721 577.186 394.138 496.839 386.679 476.101C384.716 470.82 383.075 465.415 381.764 459.917C381.396 457.951 381.108 455.648 382.725 454.119Z" fill="black"/>
<path d="M358.266 582.311L407.888 498.62C399.884 478.453 394.746 463.009 396.395 460.572C397.691 458.656 414.915 456.875 434.811 453.195L485.634 367.066H420.085C420.085 367.066 421.51 384.258 418.484 386.947C416.516 388.745 323.323 399.904 313.991 433.33C306.868 459.261 335.937 532.181 358.266 582.311Z" fill="black"/>
<path d="M236.982 699.311C240.824 700.538 352.6 696.622 356.666 693.715C357.162 693.396 357.034 682.775 356.666 668.238V668.019C356.442 658.827 356.906 580.076 356.906 580.076L286.924 581.656L284.747 659.247C284.747 659.247 269.844 666.322 256.878 673.313C248.875 677.582 241.944 681.481 240.359 682.892C236.181 686.506 233.14 698.118 236.982 699.311Z" fill="#AD6359"/>
<path d="M236.982 699.312C240.824 700.538 352.6 696.623 356.666 693.699C357.162 693.396 357.034 682.775 356.666 668.255V668.02C356.666 667.381 356.666 666.726 356.666 666.07C356.666 665.415 356.666 665.129 356.666 664.659C356.666 664.188 356.666 663.264 356.666 662.558C356.666 656.424 356.666 646.492 356.666 635.669L285.371 637.35L284.763 659.197C284.763 659.197 269.86 666.289 256.894 673.263C248.891 677.548 241.944 681.431 240.375 682.842C236.197 686.506 233.14 698.118 236.982 699.312Z" fill="#EBEBEB"/>
<path d="M236.533 699.782C240.487 701.009 352.408 696.791 356.585 693.799C358.186 692.673 359.242 674.49 357.018 654.525L284.874 657.331C284.874 657.331 244.104 679.027 239.863 682.825C235.621 686.623 232.58 698.555 236.533 699.782Z" fill="#00E340"/>
<path d="M237.974 695.009C256.718 693.833 332.415 690.892 351.047 691.211C351.191 691.211 351.191 691.312 351.047 691.329C332.495 693.009 256.766 695.228 237.99 695.345C237.526 695.345 237.526 695.043 237.974 695.009Z" fill="black"/>
<path d="M246.906 678.321C248.988 678.187 251.075 678.507 253.034 679.262C254.993 680.017 256.781 681.19 258.287 682.708C261.018 685.415 262.652 689.122 262.849 693.06C262.849 693.177 262.641 693.194 262.609 693.06C261.84 689.183 259.893 685.673 257.062 683.058C254.23 680.443 250.666 678.863 246.906 678.557C246.886 678.545 246.869 678.528 246.857 678.507C246.846 678.487 246.84 678.463 246.84 678.439C246.84 678.415 246.846 678.391 246.857 678.371C246.869 678.35 246.886 678.333 246.906 678.321Z" fill="black"/>
<path d="M279.048 659.516C286.539 659.13 295.343 661.583 300.241 667.919C300.417 668.171 300.097 668.44 299.857 668.339C293.175 664.966 286.166 662.357 278.952 660.558C278.82 660.545 278.699 660.477 278.615 660.37C278.531 660.263 278.491 660.125 278.504 659.987C278.517 659.848 278.581 659.721 278.683 659.633C278.785 659.545 278.916 659.503 279.048 659.516Z" fill="black"/>
<path d="M273.333 662.104C280.824 661.717 289.628 664.171 294.51 670.507C294.702 670.759 294.382 671.028 294.142 670.927C287.459 667.556 280.45 664.948 273.237 663.146C273.172 663.139 273.109 663.119 273.051 663.087C272.993 663.054 272.942 663.011 272.9 662.957C272.859 662.904 272.827 662.843 272.808 662.778C272.789 662.712 272.783 662.643 272.789 662.574C272.795 662.506 272.814 662.439 272.845 662.379C272.876 662.318 272.918 662.264 272.968 662.221C273.019 662.177 273.077 662.144 273.14 662.124C273.202 662.104 273.268 662.097 273.333 662.104Z" fill="black"/>
<path d="M267.603 664.659C275.11 664.272 283.914 666.726 288.796 673.061C288.988 673.313 288.652 673.599 288.428 673.481C281.741 670.109 274.727 667.506 267.507 665.717C267.373 665.704 267.25 665.635 267.164 665.527C267.079 665.418 267.038 665.278 267.051 665.137C267.063 664.997 267.129 664.868 267.232 664.778C267.336 664.688 267.469 664.645 267.603 664.659Z" fill="black"/>
<path d="M261.888 667.297C269.395 666.894 278.199 669.347 283.081 675.7C283.273 675.935 282.937 676.221 282.713 676.103C276.024 672.738 269.01 670.135 261.792 668.339C261.661 668.325 261.539 668.258 261.455 668.151C261.371 668.043 261.331 667.906 261.344 667.767C261.357 667.629 261.421 667.502 261.523 667.414C261.625 667.326 261.757 667.283 261.888 667.297Z" fill="black"/>
<path d="M345.621 672.675C354.056 672.389 354.505 686.119 346.053 686.422C337.601 686.724 337.185 673.061 345.621 672.675Z" fill="black"/>
<path d="M270.212 638.795C273.894 635.333 278.792 638.391 281.257 641.736C285.375 647.562 287.959 654.425 288.748 661.633C288.754 661.666 288.752 661.699 288.743 661.73C288.734 661.761 288.717 661.79 288.695 661.813C288.673 661.836 288.646 661.853 288.616 661.863C288.586 661.873 288.555 661.875 288.524 661.869C288.5 662.019 288.443 662.16 288.357 662.283C288.271 662.405 288.158 662.503 288.028 662.571C287.898 662.638 287.755 662.672 287.61 662.67C287.466 662.667 287.323 662.629 287.196 662.558C281.721 658.877 275.43 655.651 271.189 650.323C268.723 647.197 266.723 642.055 270.212 638.795ZM279.992 655.197C282.65 657.079 285.371 658.81 287.996 660.793C286.634 656.871 285.085 653.023 283.354 649.264C282.495 647.461 281.522 645.721 280.441 644.055C278.712 641.517 271.125 635.198 270.66 643.803C270.388 648.542 276.839 652.894 279.992 655.197Z" fill="black"/>
<path d="M307.524 663.868C301.026 665.163 294.207 663.465 287.756 662.658C287.622 662.626 287.496 662.561 287.389 662.47C287.282 662.379 287.196 662.264 287.137 662.133C287.079 662.002 287.049 661.858 287.051 661.714C287.053 661.569 287.086 661.427 287.147 661.297C287.121 661.279 287.099 661.254 287.084 661.225C287.069 661.195 287.062 661.162 287.062 661.129C287.062 661.096 287.069 661.063 287.084 661.034C287.099 661.005 287.121 660.98 287.147 660.961C292.129 655.92 298.283 652.339 304.995 650.575C308.917 649.634 314.599 650.575 315.304 655.617C315.96 660.457 311.318 663.095 307.524 663.868ZM311.91 659.197C316.712 652.256 307.108 652.071 304.195 652.894C302.35 653.458 300.543 654.148 298.785 654.962C295.182 656.718 291.667 658.664 288.252 660.793C291.453 660.978 294.655 661.465 297.776 661.768C301.554 662.154 309.237 662.978 311.91 659.197Z" fill="black"/>
<path d="M280.52 648.189L359.435 645.752C359.435 645.752 354.425 504.586 360.379 496.049C368.383 484.722 483.633 481.378 507.419 444.506C528.724 411.383 508.668 366.075 508.668 366.075H421.222C423.466 375.831 426.448 385.385 430.137 394.644C430.137 394.644 325.468 418.323 296.928 453.144C277.687 476.706 280.52 648.189 280.52 648.189Z" fill="#0E0E0E"/>
<path d="M414.595 388.914C417.147 389.422 419.649 390.176 422.07 391.165C424.599 392.09 427.112 393.165 429.545 394.325C434.37 396.641 439.067 399.238 443.615 402.106C443.743 402.19 443.615 402.392 443.471 402.324C438.669 399.888 433.723 397.72 428.777 395.602L421.622 392.628C419.167 391.726 416.757 390.694 414.403 389.535C414.098 389.435 414.243 388.846 414.595 388.914Z" fill="black"/>
<path d="M419.189 366.108C420.309 370.259 421.302 374.511 422.566 378.561C423.142 380.444 423.703 382.376 424.439 384.191C425.063 385.737 426.04 387.552 427.64 387.788C429.641 388.124 430.153 386.325 429.945 384.611C429.737 382.897 429.193 380.796 428.777 378.931C428.297 376.763 427.816 374.612 427.368 372.427C427.16 371.352 426.936 370.259 426.728 369.184C426.728 368.898 426.424 366.814 426.264 366.226C426.264 366.226 426.264 366.327 426.152 366.31C426.152 366.31 426.024 366.31 426.024 366.209C426.024 366.108 426.024 366.008 426.12 365.89C426.145 365.869 426.176 365.858 426.208 365.858C426.24 365.858 426.271 365.869 426.296 365.89C426.68 366.092 426.728 366.629 426.856 367.033C427.208 368.075 427.56 369.133 427.896 370.192C428.505 372.175 429.097 374.158 429.625 376.158C430.153 378.158 430.698 380.175 431.226 382.174C431.766 383.651 431.947 385.245 431.754 386.813C431.597 387.559 431.215 388.232 430.664 388.732C430.113 389.232 429.423 389.531 428.697 389.586C428.697 389.72 428.857 389.855 428.921 389.989C429.097 390.392 429.241 390.829 429.401 391.249C429.561 391.67 429.721 392.107 429.849 392.543C429.906 392.753 429.948 392.966 429.977 393.182C429.977 393.434 429.977 393.669 429.977 393.905C429.988 393.983 429.973 394.063 429.935 394.132C429.897 394.201 429.838 394.254 429.768 394.283C429.698 394.312 429.62 394.315 429.548 394.293C429.475 394.27 429.412 394.222 429.369 394.157C429.257 393.955 429.097 393.787 428.969 393.585C428.842 393.369 428.74 393.138 428.665 392.896C428.521 392.476 428.393 392.073 428.281 391.636C428.169 391.199 428.025 390.796 427.944 390.376C427.864 389.955 427.944 389.855 427.848 389.603C427.014 389.559 426.21 389.268 425.527 388.762C424.373 387.787 423.507 386.487 423.03 385.015C422.374 383.334 421.862 381.485 421.43 379.721C420.078 375.339 419.098 370.84 418.5 366.276C418.505 366.193 418.535 366.113 418.586 366.049C418.637 365.985 418.707 365.941 418.785 365.922C418.862 365.903 418.943 365.911 419.016 365.944C419.089 365.978 419.15 366.036 419.189 366.108Z" fill="black"/>
<path d="M471.435 374.729C471.852 376.797 472.14 378.88 472.668 380.931C473.196 382.981 473.74 384.93 474.429 386.88C475.05 388.77 475.923 390.558 477.022 392.19C478.155 393.733 479.498 395.092 481.008 396.224C483.889 398.488 487.107 400.237 490.532 401.4C492.248 401.99 493.996 402.472 495.766 402.845C496.694 403.03 497.639 403.164 498.567 403.265C499.342 403.267 500.108 403.427 500.824 403.736C500.89 403.78 500.945 403.841 500.983 403.913C501.02 403.985 501.04 404.065 501.04 404.147C501.04 404.23 501.02 404.31 500.983 404.382C500.945 404.454 500.89 404.515 500.824 404.559C499.489 405.03 498.059 405.123 496.678 404.828C495.181 404.715 493.693 404.485 492.228 404.139C489.269 403.443 486.419 402.311 483.761 400.778C481.077 399.291 478.656 397.33 476.606 394.98C474.675 392.509 473.312 389.605 472.62 386.493C471.577 382.707 471.039 378.788 471.019 374.847C471.004 374.789 471.012 374.727 471.041 374.675C471.069 374.623 471.116 374.585 471.171 374.57C471.227 374.554 471.285 374.562 471.335 374.592C471.384 374.622 471.421 374.672 471.435 374.729Z" fill="black"/>
<path d="M345.381 550.7C345.776 537.659 346.437 524.624 347.366 511.594C347.59 508.384 347.798 505.174 348.086 501.964C348.239 499.468 348.685 497.001 349.415 494.62C351.095 489.679 354.889 487.091 359.531 485.713C365.021 484.033 370.736 483.024 376.29 481.882C381.845 480.739 387.735 479.68 393.466 478.655C405.087 476.588 416.74 474.638 428.297 472.235C439.829 469.904 451.211 466.816 462.376 462.992C472.604 459.396 483.073 455.026 491.188 447.245C508.508 430.44 508.396 403.366 505.594 380.746C505.194 377.553 504.73 374.36 504.266 371.184C504.266 371.015 504.49 370.948 504.506 371.184C506.283 383.922 508.284 396.728 507.435 409.635C506.925 420.313 503.829 430.678 498.439 439.75C492.677 449.01 483.937 455.144 474.429 459.53C463.94 464.164 453.082 467.819 441.983 470.454C419.061 476.235 395.563 479.125 372.513 484.016C369.663 484.621 366.819 485.259 363.981 485.932C361.347 486.427 358.775 487.233 356.314 488.335C351.127 490.973 349.911 496.418 349.335 501.998C348.182 514.972 347.526 528.013 346.998 541.02C345.941 567.254 345.733 593.588 346.517 619.838C346.613 623.082 346.725 626.308 346.853 629.552C346.853 629.837 346.437 629.821 346.421 629.552C344.965 603.285 344.548 577.001 345.381 550.7Z" fill="black"/>
<path d="M283.946 638.122C286.103 637.701 288.285 637.437 290.477 637.333C292.766 637.131 295.071 636.913 297.36 636.744C301.874 636.425 306.404 636.156 310.918 636.005C320.026 635.686 329.15 635.417 338.258 635.35C343.06 635.35 353.208 635.198 353.784 635.45C354.057 635.568 353.993 636.089 353.784 636.123C344.757 637.081 335.713 637.568 326.669 638.072C317.625 638.576 308.597 639.064 299.537 639.114C297.04 639.114 294.527 639.114 292.03 639.114C289.359 639.235 286.685 639.151 284.026 638.862C283.738 638.744 283.626 638.19 283.946 638.122Z" fill="black"/>
<path d="M423.207 288.685C415.315 324.111 413.234 349.757 403.662 356.378C395.931 361.705 385.078 365.453 373.921 368.058C361.99 370.702 349.905 372.515 337.745 373.486C334 373.822 330.878 374.024 328.67 374.192C323.195 374.561 314.263 336.615 318.121 331.993C319.017 330.934 322.619 330.111 327.725 329.439C344.757 327.187 378.291 326.666 380.292 324.666C382.293 322.666 396.299 298.449 408.576 275.829C420.165 254.167 428.169 266.166 423.207 288.685Z" fill="#AD6359"/>
<path d="M339.586 370.36C334.298 372.836 328.86 374.941 323.307 376.662C318.889 377.822 306.068 380.813 304.355 375.822C303.186 372.461 310.533 369.722 315.688 367.705C318.409 366.629 321.802 363.823 321.082 361.991C319.817 358.781 312.822 361.689 308.196 364.277C299.249 369.318 287.259 378.427 282.073 373.57C280.104 371.721 282.569 368.528 286.123 365.587C280.408 369.049 274.374 371.822 272.117 369.873C271.534 369.372 271.156 368.655 271.06 367.871C270.965 367.086 271.16 366.293 271.605 365.655C270.89 365.973 270.102 366.06 269.34 365.904C268.579 365.749 267.879 365.357 267.331 364.781C265.586 362.73 266.578 359.823 268.675 356.882C268.337 356.831 268.016 356.697 267.737 356.489C267.459 356.282 267.232 356.007 267.075 355.689C263.457 349.404 283.274 332.514 289.965 331.119C309.669 327.002 330.382 329.59 330.382 329.59C337.809 336.329 339.602 370.343 339.586 370.36Z" fill="#AD6359"/>
<path d="M311.542 350.126C306.854 350.675 302.339 352.305 298.32 354.899C293.646 358.008 289.869 362.344 285.515 365.907C285.403 366.007 285.515 366.192 285.659 366.091C287.708 364.243 289.949 362.613 292.062 360.848C294.175 359.084 296.175 357.336 298.352 355.806C302.289 352.924 306.8 351.021 311.542 350.244C311.542 350.244 311.59 350.126 311.542 350.126Z" fill="black"/>
<path d="M308.212 341.287C302.951 342.383 297.808 344.032 292.862 346.211C287.547 348.799 283.257 353.202 279.144 357.42C276.625 359.952 274.176 362.54 271.796 365.184C271.7 365.302 271.796 365.487 271.941 365.386C276.209 361.016 280.563 356.787 285.002 352.698C289.131 348.875 293.94 345.951 299.152 344.093C302.13 343.018 305.171 342.211 308.228 341.388C308.276 341.371 308.26 341.27 308.212 341.287Z" fill="black"/>
<path d="M302.994 333.472C297.968 334.346 293.582 335.153 289.068 337.741C283.988 340.998 279.319 344.917 275.174 349.404C272.885 351.773 270.692 354.21 268.531 356.697C268.451 356.798 268.611 356.966 268.707 356.865C273.643 351.437 278.91 346.351 284.474 341.64C287.088 339.35 290.026 337.501 293.182 336.161C296.377 335.012 299.66 334.151 302.994 333.59C302.994 333.59 303.01 333.472 302.994 333.472Z" fill="black"/>
<path d="M346.565 374.948L330.75 328.094C330.75 328.094 376.434 326.078 379.379 324.078C382.325 322.078 397.419 292.971 408.8 273.409C417.796 258.049 428.937 259.158 423.847 290.097C418.468 322.7 413.986 348.379 406.239 355.857C393.129 368.512 346.565 374.948 346.565 374.948Z" fill="#00E340"/>
<g opacity="0.1">
<path d="M416.804 264.519L421.606 264.418C420.87 263.981 420.036 263.759 419.192 263.777C418.347 263.795 417.522 264.051 416.804 264.519Z" fill="black"/>
<path d="M407.471 275.795L425.159 275.459C425.138 273.687 424.962 271.92 424.631 270.182L410.769 270.434C410.081 271.397 409.44 272.395 408.848 273.426L407.471 275.795Z" fill="black"/>
<path d="M401.117 287.022L424.423 286.534C424.679 284.635 424.855 282.871 424.983 281.224L404.174 281.627L401.117 287.022Z" fill="black"/>
<path d="M394.874 298.298L422.63 297.76C422.918 296.08 423.222 294.248 423.527 292.45L397.915 292.937L394.874 298.298Z" fill="black"/>
<path d="M388.615 309.457L420.725 308.835C421.03 307.155 421.334 305.323 421.654 303.525L391.609 304.113C390.568 305.978 389.592 307.76 388.615 309.457Z" fill="black"/>
<path d="M382.005 320.683L418.661 319.977C418.997 318.297 419.333 316.482 419.669 314.667L385.254 315.322C384.021 317.44 382.917 319.255 382.005 320.683Z" fill="black"/>
<path d="M330.75 328.094L332.351 332.733L416.308 331.052C416.708 329.371 417.108 327.573 417.508 325.741L349.607 327.035C339.49 327.708 330.75 328.094 330.75 328.094Z" fill="black"/>
<path d="M334.272 338.514L336.033 343.757L413.25 342.278C413.778 340.598 414.307 338.917 414.851 336.968L334.272 338.514Z" fill="black"/>
<path d="M337.985 349.538L339.762 354.798L408.24 353.487C409.348 351.802 410.297 350.006 411.073 348.126L337.985 349.538Z" fill="black"/>
<path d="M341.715 360.563L343.476 365.823L389.384 364.932C393.584 363.491 397.646 361.64 401.517 359.403L341.715 360.563Z" fill="black"/>
<path d="M345.429 371.587L346.565 374.948C346.565 374.948 355.721 373.671 367.07 371.167L345.429 371.587Z" fill="black"/>
</g>
<path d="M347.43 350.513C346.165 346.832 344.948 343.152 343.764 339.438C342.579 335.724 341.619 331.69 340.291 327.909C340.291 327.741 340.483 327.691 340.531 327.909C341.811 331.69 343.476 335.337 344.836 339.085C346.197 342.833 347.462 346.362 348.726 350.042C351.255 357.437 353.832 364.865 355.865 372.427C355.865 372.646 355.593 372.797 355.497 372.578C352.488 365.335 349.959 357.89 347.43 350.513Z" fill="black"/>
<path d="M382.949 367.049C392.553 364.142 401.549 360.327 406.255 355.874C414.034 348.378 418.516 322.716 423.863 290.097C428.008 265.342 421.606 259.645 414.339 266.367L382.949 367.049Z" fill="black"/>
<path d="M411.777 386.897C414.483 389.014 518.336 385.956 518.752 385.216C519.872 383.065 487.987 284.669 442.575 255.562C434.571 250.52 422.838 254.688 417.844 259.141C415.347 261.359 408.448 277.795 407.92 291.072C407.392 304.348 410.081 385.552 411.777 386.897Z" fill="#00E340"/>
<g opacity="0.1">
<path d="M414.659 264.569L453.284 263.83C451.251 261.964 449.17 260.234 447.073 258.654L417.732 259.208C416.462 260.827 415.426 262.633 414.659 264.569Z" fill="black"/>
<path d="M410.609 275.745L463.752 274.72C462.226 272.927 460.668 271.196 459.078 269.527L412.322 270.418C411.714 272.098 411.137 273.897 410.609 275.745Z" fill="black"/>
<path d="M408.256 286.887L472.284 285.66C471.003 283.879 469.691 282.131 468.378 280.434L409.152 281.577C408.8 283.341 408.48 285.123 408.256 286.887Z" fill="black"/>
<path d="M407.856 297.979L479.679 296.617C478.574 294.853 477.438 293.105 476.285 291.391L407.856 292.685C407.84 294.097 407.84 295.878 407.856 297.979Z" fill="black"/>
<path d="M407.92 303.794C407.92 305.474 407.92 307.155 408 309.087L486.258 307.592C485.265 305.827 484.257 304.079 483.216 302.348L407.92 303.794Z" fill="black"/>
<path d="M408.128 314.885C408.128 316.599 408.176 318.364 408.272 320.179L492.228 318.498C491.316 316.818 490.403 315.003 489.443 313.255L408.128 314.885Z" fill="black"/>
<path d="M408.448 325.977C408.448 327.657 408.544 329.489 408.592 331.271L497.687 329.59C496.87 327.909 496.086 326.111 495.158 324.347L408.448 325.977Z" fill="black"/>
<path d="M408.8 337.068L408.992 342.362L502.761 340.564C501.993 338.883 501.16 337.085 500.408 335.321L408.8 337.068Z" fill="black"/>
<path d="M409.201 348.16C409.201 349.958 409.329 351.723 409.409 353.454L507.419 351.572C506.715 349.891 505.979 348.11 505.226 346.328L409.201 348.16Z" fill="black"/>
<path d="M409.665 359.252C409.745 361.067 409.825 362.831 409.921 364.529L511.709 362.596C511.085 360.916 510.412 359.235 509.708 357.336L409.665 359.252Z" fill="black"/>
<path d="M410.225 370.343C410.321 372.226 410.433 374.007 410.545 375.637L515.615 373.604C515.071 371.923 514.462 370.243 513.806 368.344L410.225 370.343Z" fill="black"/>
<path d="M410.961 381.435C411.043 383.213 411.279 384.979 411.665 386.712L518.768 384.645C518.431 382.864 517.987 381.107 517.439 379.385L410.961 381.435Z" fill="black"/>
</g>
<path d="M408.624 221.648C408.624 228.202 404.19 233.513 398.716 233.513C393.241 233.513 388.807 228.202 388.807 221.648C388.807 215.094 393.241 209.884 398.716 209.884C404.19 209.884 408.624 215.094 408.624 221.648Z" fill="#00E340"/>
<path d="M400.813 235.261C394.721 235.261 389.784 229.354 389.784 222.068C389.784 214.782 394.721 208.876 400.813 208.876C406.904 208.876 411.841 214.782 411.841 222.068C411.841 229.354 406.904 235.261 400.813 235.261Z" fill="#C7C7C7"/>
<path d="M420.005 275.022C426.024 276.148 435.676 266.015 439.214 258.066C439.454 257.528 436.204 236.521 436.012 232.286C436.012 231.412 411.073 240.252 411.073 240.252C412.809 245.46 413.927 250.873 414.403 256.368C414.419 256.973 414.179 273.947 420.005 275.022Z" fill="#AD6359"/>
<path d="M414.323 258.099C414.323 258.099 414.323 258.284 414.323 258.385H414.451C415.276 258.461 416.106 258.461 416.932 258.385C430.666 257.225 434.331 239.21 435.244 232.303C431.002 233.177 411.089 240.252 411.089 240.252C412.813 245.434 413.926 250.818 414.403 256.284C414.403 256.486 414.403 256.688 414.403 256.872C414.413 257.283 414.386 257.694 414.323 258.099Z" fill="black"/>
<path d="M432.331 198.927C436.973 207.498 438.013 235.16 433.051 242.621C425.848 253.343 411.233 257.645 401.853 247.881C392.745 238.42 391.993 202.339 397.804 195.314C406.351 184.894 425.48 186.272 432.331 198.927Z" fill="#AD6359"/>
<path d="M410.625 220.993C410.625 220.993 410.769 221.077 410.769 221.144C410.769 223.009 411.121 225.144 412.754 225.698V225.799C410.769 225.547 410.401 222.673 410.625 220.993Z" fill="black"/>
<path d="M412.13 218.926C414.979 218.556 415.459 224.555 412.818 224.892C410.177 225.228 409.745 219.312 412.13 218.926Z" fill="black"/>
<path d="M400.797 222.085C400.797 222.085 400.669 222.186 400.669 222.253C400.877 224.118 400.813 226.269 399.26 227.026C399.26 227.026 399.26 227.143 399.26 227.126C401.293 226.673 401.357 223.799 400.797 222.085Z" fill="black"/>
<path d="M399.196 220.287C396.331 220.287 396.587 226.32 399.196 226.303C401.805 226.286 401.533 220.253 399.196 220.287Z" fill="black"/>
<path d="M414.163 215.951C413.379 215.8 412.658 215.548 411.89 215.329C411.058 215.224 410.282 214.834 409.681 214.22C409.517 213.999 409.429 213.727 409.429 213.447C409.429 213.167 409.517 212.895 409.681 212.674C410.084 212.304 410.574 212.053 411.1 211.947C411.626 211.84 412.169 211.883 412.674 212.069C413.754 212.292 414.718 212.927 415.379 213.85C415.514 214.066 415.587 214.316 415.592 214.574C415.596 214.831 415.53 215.084 415.403 215.304C415.276 215.524 415.092 215.701 414.872 215.816C414.653 215.93 414.407 215.977 414.163 215.951Z" fill="black"/>
<path d="M396.683 217.447C397.438 217.221 398.181 216.951 398.908 216.64C399.725 216.455 400.465 216.002 401.021 215.346C401.156 215.102 401.211 214.818 401.176 214.539C401.141 214.259 401.019 213.999 400.829 213.8C400.397 213.469 399.889 213.266 399.358 213.21C398.826 213.153 398.29 213.247 397.804 213.481C396.743 213.782 395.833 214.497 395.259 215.48C395.135 215.709 395.079 215.971 395.096 216.233C395.113 216.496 395.202 216.747 395.354 216.956C395.506 217.165 395.712 217.323 395.949 217.411C396.185 217.498 396.44 217.51 396.683 217.447Z" fill="black"/>
<path d="M414.115 237.983C413.73 238.454 413.346 239.092 412.706 239.193C412.048 239.241 411.389 239.144 410.769 238.907C410.769 238.907 410.657 238.907 410.769 239.008C411.051 239.35 411.415 239.606 411.824 239.748C412.232 239.89 412.67 239.913 413.09 239.815C413.432 239.691 413.733 239.467 413.957 239.169C414.181 238.871 414.319 238.512 414.355 238.134C414.307 237.933 414.163 237.916 414.115 237.983Z" fill="black"/>
<path d="M411.809 232.572C411.421 233.348 410.883 234.031 410.23 234.578C409.577 235.125 408.823 235.523 408.016 235.748C407.313 235.957 406.585 236.059 405.855 236.05H405.439H405.038C404.943 236.038 404.855 235.993 404.786 235.924C404.717 235.854 404.671 235.763 404.654 235.664C404.639 235.603 404.639 235.54 404.654 235.479V235.311C404.51 233.899 404.462 231.698 404.462 231.698C403.982 232.017 401.549 233.378 401.517 232.689C401.157 226.224 401.431 219.736 402.333 213.329C402.333 213.285 402.35 213.242 402.38 213.211C402.41 213.179 402.451 213.161 402.493 213.161C402.536 213.161 402.577 213.179 402.607 213.211C402.637 213.242 402.653 213.285 402.653 213.329C403.022 219.295 402.381 225.295 402.653 231.294C403.52 230.777 404.452 230.392 405.423 230.152C405.631 230.152 405.423 234.37 405.551 235.008C406.678 235.028 407.798 234.808 408.843 234.364C409.888 233.919 410.837 233.258 411.633 232.42C411.745 232.303 411.905 232.42 411.809 232.572Z" fill="black"/>
<path d="M406.591 235.244C407.421 236.204 408.475 236.922 409.648 237.327C410.284 237.541 410.966 237.541 411.601 237.327C412.994 236.823 412.914 235.445 412.562 234.303C412.369 233.713 412.111 233.149 411.793 232.622C410.367 234.052 408.546 234.97 406.591 235.244Z" fill="black"/>
<path d="M409.648 237.328C410.284 237.541 410.966 237.541 411.601 237.328C412.994 236.823 412.914 235.445 412.562 234.303C411.824 234.394 411.137 234.741 410.609 235.289C410.082 235.837 409.743 236.555 409.648 237.328Z" fill="#FF99BA"/>
<path d="M434.091 219.312C427.977 219.312 426.664 207.716 426.664 207.716C426.664 207.716 416.148 206.036 414.547 197.734C414.547 197.734 404.655 204.456 396.779 201.633C388.904 198.809 389.912 188.491 390.777 186.508C392.777 181.937 399.34 187.701 399.34 187.701C399.34 187.701 409.152 181.332 420.373 182.374C429.497 183.231 434.171 192.188 434.171 192.188C434.171 192.188 439.069 193.23 440.686 196.81C442.303 200.389 437.981 219.312 434.091 219.312Z" fill="black"/>
<path d="M429.145 207.8C421.03 209.027 415.587 203.414 414.339 195.263C414.339 195.241 414.33 195.22 414.315 195.204C414.3 195.188 414.28 195.179 414.259 195.179C414.238 195.179 414.217 195.188 414.202 195.204C414.187 195.22 414.179 195.241 414.179 195.263C414.483 202.859 421.334 211.262 429.225 208.17C429.417 208.103 429.353 207.767 429.145 207.8Z" fill="black"/>
<path d="M433.947 192.07C433.851 192.07 433.803 192.205 433.947 192.238C436.236 193.331 438.845 194.121 440.462 196.289C442.415 198.893 442.063 202.338 441.342 205.33C440.286 209.968 438.141 216.001 434.155 218.774C433.931 218.942 434.155 219.278 434.395 219.144C439.085 216.169 441.758 208.338 442.399 202.893C442.975 196.759 439.325 193.331 433.947 192.07Z" fill="black"/>
<path d="M405.599 200.087C403.742 201.339 401.574 201.989 399.367 201.953C397.16 201.917 395.012 201.198 393.193 199.885C388.872 196.524 389.688 190.86 391.465 186.172C391.561 185.936 391.257 185.684 391.129 185.919C388.663 190.054 388.551 196.322 392.105 199.851C395.658 203.38 402.045 203.364 405.951 200.641C406.335 200.423 405.983 199.851 405.599 200.087Z" fill="black"/>
<path d="M415.427 229.16C416.816 228.848 418.094 228.133 419.117 227.096C420.139 226.06 420.864 224.744 421.209 223.297C421.555 221.85 421.508 220.33 421.072 218.91C420.637 217.49 419.832 216.226 418.748 215.262C417.663 214.298 416.343 213.673 414.937 213.456C413.531 213.24 412.096 213.441 410.794 214.038C409.491 214.635 408.374 215.602 407.569 216.832C406.764 218.061 406.303 219.502 406.239 220.993C406.187 222.054 406.338 223.116 406.682 224.116C407.025 225.116 407.556 226.034 408.241 226.816C408.927 227.598 409.754 228.23 410.674 228.672C411.595 229.115 412.59 229.361 413.602 229.395C414.217 229.397 414.83 229.318 415.427 229.16ZM412.482 214.59C413.008 214.473 413.545 214.422 414.082 214.438C415.765 214.495 417.364 215.224 418.552 216.476C419.741 217.728 420.43 219.409 420.478 221.175C420.527 222.942 419.931 224.662 418.814 225.984C417.696 227.306 416.14 228.13 414.463 228.288C412.786 228.447 411.115 227.927 409.79 226.837C408.465 225.746 407.587 224.165 407.334 222.417C407.082 220.67 407.473 218.887 408.43 217.432C409.386 215.978 410.836 214.961 412.482 214.59Z" fill="#0E0E0E"/>
<path d="M398.044 230.757C400.893 230.118 402.846 226.488 402.477 222.354C402.338 220.372 401.61 218.485 400.397 216.959C399.903 216.285 399.255 215.752 398.513 215.411C397.771 215.07 396.959 214.932 396.152 215.009C395.345 215.086 394.57 215.376 393.899 215.852C393.228 216.329 392.682 216.975 392.313 217.732C391.393 219.472 391.008 221.468 391.209 223.446C391.593 227.832 394.41 231.16 397.611 230.857L398.044 230.757ZM395.851 216.069H396.235C396.888 216.041 397.537 216.179 398.128 216.471C398.719 216.764 399.234 217.202 399.628 217.749C400.706 219.103 401.35 220.779 401.469 222.539C401.805 226.337 400.012 229.631 397.451 229.866C394.89 230.101 392.553 227.227 392.217 223.446C392.042 221.7 392.383 219.94 393.193 218.405C393.45 217.838 393.821 217.335 394.279 216.932C394.738 216.529 395.274 216.235 395.851 216.069Z" fill="#0E0E0E"/>
<path d="M406.575 221.934L407.199 220.992C405.951 220.085 403.182 218.976 401.517 221.245L402.317 221.883C403.774 219.934 406.463 221.85 406.575 221.934Z" fill="#0E0E0E"/>
<path d="M440.494 220.69L441.342 220.119C441.086 219.699 438.781 216.018 436.54 215.85C434.299 215.682 420.949 218.354 420.373 218.472L420.565 219.514C424.423 218.757 434.811 216.791 436.476 216.926C438.141 217.06 439.87 219.682 440.494 220.69Z" fill="#0E0E0E"/>
<path d="M431.546 221.867C431.546 221.867 435.628 212.002 439.774 213.363C443.92 214.724 442.015 228.152 437.965 230.79C437.471 231.161 436.911 231.424 436.319 231.563C435.726 231.703 435.113 231.715 434.516 231.601C433.919 231.486 433.35 231.247 432.842 230.897C432.335 230.547 431.899 230.094 431.562 229.564L431.546 221.867Z" fill="#AD6359"/>
<path d="M439.133 217.195C439.133 217.195 439.245 217.195 439.133 217.312C436.316 219.278 435.276 222.606 434.747 225.95C434.864 225.59 435.053 225.261 435.301 224.984C435.55 224.708 435.853 224.491 436.189 224.349C436.525 224.207 436.886 224.143 437.248 224.161C437.61 224.179 437.963 224.279 438.285 224.455C438.31 224.455 438.335 224.465 438.353 224.484C438.371 224.503 438.381 224.529 438.381 224.555C438.381 224.582 438.371 224.608 438.353 224.627C438.335 224.646 438.31 224.656 438.285 224.656C437.707 224.59 437.123 224.717 436.618 225.019C436.112 225.32 435.71 225.782 435.468 226.337C435.052 227.249 434.735 228.207 434.523 229.194C434.427 229.513 433.899 229.479 433.947 229.11C433.083 224.908 435.004 218.505 439.133 217.195Z" fill="black"/>
<path d="M437.501 214.707C437.501 214.707 438.269 200.406 434.203 192.558C429.673 183.819 411.794 178.172 399.34 187.735C399.34 187.735 419.173 181.164 428.825 193.247C432.891 198.288 432.955 215.094 432.955 215.094L437.501 214.707Z" fill="#C7C7C7"/>
<path d="M435.836 235.261C429.745 235.261 424.807 229.354 424.807 222.068C424.807 214.782 429.745 208.876 435.836 208.876C441.927 208.876 446.865 214.782 446.865 222.068C446.865 229.354 441.927 235.261 435.836 235.261Z" fill="#C7C7C7"/>
<path d="M428.008 221.648C428.008 228.202 432.442 233.513 437.917 233.513C443.391 233.513 447.825 228.202 447.825 221.648C447.825 215.094 443.391 209.884 437.917 209.884C432.442 209.884 428.008 215.094 428.008 221.648Z" fill="#00E340"/>
<path d="M265.778 311.205C264.914 312.297 264.177 313.473 264.722 313.91C265.218 314.314 266.194 313.389 267.043 312.23L265.778 311.205Z" fill="black"/>
<path d="M266.162 299.407C265.266 300.55 265.122 308.617 265.506 311.558C265.572 311.864 265.731 312.14 265.959 312.343C266.187 312.546 266.472 312.666 266.771 312.684C269.556 312.499 277.127 310.801 277.976 309.659C278.584 308.885 279.96 305.407 281.625 302.012C283.786 297.559 320.298 248.52 320.442 247.747C320.586 246.974 319.386 245.714 318.665 245.109C317.945 244.504 316.52 243.428 315.832 243.764C315.144 244.1 276.311 291.088 272.613 294.181C269.748 296.617 266.771 298.634 266.162 299.407Z" fill="#0E0E0E"/>
<path d="M266.146 299.407C266.057 299.539 265.992 299.687 265.954 299.844C267.654 302.202 269.603 304.35 271.765 306.247C273.51 307.798 275.456 309.082 277.543 310.062C277.733 309.988 277.903 309.867 278.039 309.709C278.168 309.532 278.286 309.347 278.392 309.154C276.439 308.348 271.653 305.793 266.691 298.937C266.496 299.076 266.314 299.234 266.146 299.407Z" fill="#EBEBEB"/>
<path d="M288.238 283.208L288.88 283.764C289.378 284.194 289.45 284.967 289.039 285.49L278.213 299.294C277.803 299.817 277.066 299.892 276.568 299.461L275.926 298.905C275.427 298.475 275.356 297.702 275.766 297.179L286.593 283.375C287.003 282.852 287.739 282.777 288.238 283.208Z" fill="black"/>
<path d="M284.444 288.442L284.802 288.752C285.095 289.005 285.137 289.461 284.896 289.769L277.956 298.616C277.715 298.925 277.281 298.969 276.987 298.715L276.629 298.405C276.336 298.151 276.294 297.696 276.535 297.388L283.475 288.54C283.716 288.232 284.15 288.188 284.444 288.442Z" fill="#EBEBEB"/>
<path d="M278.988 294.218L280.409 295.447L280.064 295.888L278.642 294.659L278.988 294.218Z" fill="black"/>
<path d="M453.411 281.644C443.519 310.751 423.462 340.379 406.799 343.253C390.136 346.127 347.237 326.683 334.112 320.128C329.053 317.608 346.021 271.997 351.415 274.754C360.555 279.425 400.204 303.323 403.406 302.382C405.407 301.81 422.902 287.895 437.612 273.342C456.821 254.402 456.501 272.586 453.411 281.644Z" fill="#AD6359"/>
<path d="M279.432 266.653C278.728 272.468 292.542 273.09 292.542 273.09C290.403 274.23 288.706 276.113 287.74 278.417C286.139 282.568 291.741 286.921 291.741 286.921C289.735 288.579 288.251 290.834 287.483 293.391C286.395 297.525 291.389 302.751 291.389 302.751C290.351 305.344 290.231 308.242 291.053 310.919C293.534 317.977 304.243 320.313 311.03 321.876C317.817 323.439 338.498 321.187 342.467 321.17L352.392 275.476C352.392 275.476 323.819 259.376 315.576 258.671C308.597 258.2 280.504 257.763 279.432 266.653Z" fill="#AD6359"/>
<path d="M292.67 272.939C300.177 271.661 307.972 272.266 315.48 272.939C315.514 272.939 315.546 272.953 315.57 272.978C315.594 273.003 315.608 273.037 315.608 273.073C315.608 273.109 315.594 273.143 315.57 273.168C315.546 273.193 315.514 273.207 315.48 273.207C308.02 272.451 300.193 273.762 292.718 273.325C292.676 273.319 292.637 273.299 292.607 273.268C292.577 273.236 292.558 273.195 292.552 273.151C292.547 273.107 292.555 273.062 292.577 273.024C292.598 272.985 292.631 272.955 292.67 272.939Z" fill="black"/>
<path d="M291.949 286.349C293.681 286.237 295.419 286.361 297.12 286.719C298.944 286.971 300.769 287.274 302.578 287.593C306.195 288.231 309.813 288.971 313.399 289.811C313.559 289.811 313.543 290.114 313.399 290.097C309.781 289.458 306.147 288.87 302.514 288.416C300.689 288.164 298.88 287.946 297.055 287.744C295.319 287.659 293.596 287.377 291.917 286.904C291.859 286.885 291.808 286.846 291.773 286.794C291.738 286.741 291.721 286.677 291.725 286.613C291.729 286.549 291.753 286.488 291.794 286.44C291.834 286.393 291.889 286.36 291.949 286.349Z" fill="black"/>
<path d="M291.501 302.768C293.069 302.689 294.638 302.888 296.143 303.357C297.787 303.693 299.435 304.012 301.089 304.314C304.387 304.936 307.684 305.558 310.998 305.995C311.174 305.995 311.142 306.298 310.998 306.264C307.62 305.777 304.243 305.34 300.865 304.819L295.903 304.012C294.379 303.913 292.883 303.532 291.485 302.886C291.476 302.867 291.472 302.846 291.475 302.824C291.478 302.803 291.487 302.784 291.501 302.768Z" fill="black"/>
<path d="M364.189 279.459L344.532 329.187C344.532 329.187 393.834 349.454 409.056 344.698C424.279 339.942 445.28 307.726 452.099 288.534C458.918 269.342 457.157 253.125 433.867 274.737C410.577 296.349 404.206 300.97 402.734 300.684C401.261 300.399 364.189 279.459 364.189 279.459Z" fill="#00E340"/>
<g opacity="0.1">
<path d="M433.275 275.308L455.444 274.888C455.671 273.131 455.671 271.351 455.444 269.594L439.581 269.897C437.853 271.219 435.959 272.838 433.899 274.753L433.275 275.308Z" fill="black"/>
<path d="M426.84 281.24C424.706 283.223 422.715 285.022 420.869 286.635L452.963 286.03C453.539 284.198 454.036 282.417 454.452 280.703L426.84 281.24Z" fill="black"/>
<path d="M360.891 287.795L378.403 287.458L369.279 282.333L363.004 282.45L360.891 287.795Z" fill="black"/>
<path d="M414.13 292.567C411.313 294.987 409.152 296.752 407.503 297.996L448.481 297.206C449.346 295.357 450.082 293.576 450.834 291.862L414.13 292.567Z" fill="black"/>
<path d="M356.473 298.97L397.771 298.18C395.242 296.819 391.977 295.004 388.455 293.055L358.586 293.626L356.473 298.97Z" fill="black"/>
<path d="M352.056 310.163L442.559 308.482C443.615 306.684 444.608 304.886 445.552 303.121L354.169 304.802L352.056 310.163Z" fill="black"/>
<path d="M347.638 321.338L435.42 319.658C436.652 317.977 437.837 316.112 438.99 314.297L349.751 315.977L347.638 321.338Z" fill="black"/>
<path d="M344.532 329.203C344.532 329.203 347.734 330.497 352.536 332.346L426.616 330.934C428.105 329.254 429.577 327.439 431.034 325.557L345.253 327.237L344.532 329.203Z" fill="black"/>
<path d="M368.303 337.841C373.889 339.656 379.892 341.438 385.654 342.883L414.163 342.328C416.609 340.75 418.909 338.933 421.03 336.9L368.303 337.841Z" fill="black"/>
</g>
<path d="M345.061 329.17C352.504 332.043 359.947 334.833 367.566 337.169C375.186 339.505 394.666 344.648 402.67 344.95C406.402 344.937 410.057 343.825 413.218 341.74C416.414 339.696 419.337 337.215 421.91 334.363C424.631 331.506 427.208 328.498 429.753 325.473C432.667 322.111 435.468 318.498 438.269 314.952C441.07 311.406 444.16 307.474 446.849 303.558C446.945 303.424 447.153 303.558 447.073 303.693C444.72 307.188 442.479 310.751 440.062 314.196C439.069 315.608 438.045 317.003 437.004 318.381C437.549 317.96 438.093 317.524 438.605 317.12C440.686 315.608 442.831 314.162 444.832 312.532C444.976 312.415 445.136 312.633 444.992 312.734C442.943 314.263 441.054 315.994 439.149 317.675C438.205 318.498 437.261 319.355 436.3 320.095L434.924 321.17L434.732 321.322L432.603 324.094C430.041 327.456 427.416 330.598 424.711 333.724C422.22 336.727 419.412 339.422 416.34 341.757C413.388 344.146 409.917 345.729 406.239 346.362C398.764 347.269 378.611 342.043 370.752 339.64C361.897 337.063 353.217 333.863 344.772 330.06C344.292 329.825 344.516 328.951 345.061 329.17Z" fill="black"/>
<path d="M395.803 296.97C396.907 297.508 400.797 300.012 402.205 300.13C403.488 300.12 404.719 299.597 405.647 298.668C406.703 297.794 407.76 296.886 408.848 296.029L412.866 292.819L413.058 292.534C413.25 292.231 413.458 291.929 413.666 291.643L414.963 289.962C415.827 288.853 416.724 287.778 417.604 286.685C417.716 286.568 417.892 286.685 417.78 286.887C416.9 288.013 416.083 289.206 415.267 290.399L414.483 291.576L415.123 291.072C416.179 290.231 419.525 287.711 421.526 286.03C421.67 285.912 421.83 286.03 421.67 286.232C419.797 287.761 415.651 291.576 414.499 292.601C412.258 294.618 410.001 296.601 407.696 298.533C405.951 299.979 404.078 301.894 401.661 301.273C399.503 300.246 397.471 298.948 395.611 297.407C395.37 297.122 395.627 296.886 395.803 296.97Z" fill="black"/>
<path d="M361.916 307.944C363.293 304.314 364.706 300.701 366.158 297.105C367.646 293.408 369.359 289.794 370.832 286.047C370.832 285.896 371.12 286.047 371.056 286.164C369.615 289.878 368.559 293.777 367.23 297.525C365.902 301.273 364.605 304.819 363.229 308.432C360.443 315.725 357.69 323.103 354.441 330.178C354.413 330.214 354.375 330.239 354.333 330.25C354.29 330.262 354.245 330.259 354.204 330.242C354.164 330.226 354.129 330.196 354.105 330.157C354.082 330.118 354.07 330.073 354.073 330.027C356.346 322.565 359.179 315.238 361.916 307.944Z" fill="black"/>
<path d="M72.222 367.537H646.135V388.964H72.222V367.537Z" fill="#0E0E0E"/>
<path d="M72.222 380.595H646.135V388.964H72.222V380.595Z" fill="#0E0E0E"/>
<path d="M625.551 689.615H633.794L609.784 388.964H588.735L625.551 689.615Z" fill="#0E0E0E"/>
<path d="M588.734 388.964L591.199 409.08H611.384L609.783 388.964H588.734Z" fill="black"/>
<path d="M92.8068 689.615H84.5632L108.574 388.964H129.623L92.8068 689.615Z" fill="#0E0E0E"/>
<path d="M129.623 388.964L127.158 409.08H106.973L108.574 388.964H129.623Z" fill="black"/>
<path d="M165.799 367.537H308.356L273.733 267.661H131.176L165.799 367.537Z" fill="#00E340"/>
<path d="M160.756 367.537H303.298L268.675 267.661H126.133L160.756 367.537Z" fill="black"/>
<path d="M126.117 267.661L160.756 367.537H218.413L139.467 267.661H126.117Z" fill="#00E340"/>
<path d="M135.354 367.537H152.705L168.28 339.219H150.928L135.354 367.537Z" fill="black"/>
<path d="M168.28 339.219V367.537H152.705L168.28 339.219Z" fill="black"/>
<path d="M232.676 367.537H250.027L265.586 339.219H248.234L232.676 367.537Z" fill="black"/>
<path d="M265.586 339.219V367.537H250.027L265.586 339.219Z" fill="#00E340"/>
<path d="M606.854 357.201L609.735 356.815L594.913 238.37L541.066 207.347L539.673 210.019L592.224 240.302L606.854 357.201Z" fill="black"/>
<path d="M597.682 239.327C597.682 240.178 597.442 241.01 596.992 241.718C596.542 242.425 595.902 242.976 595.153 243.302C594.404 243.628 593.58 243.713 592.785 243.547C591.99 243.381 591.26 242.971 590.687 242.369C590.114 241.768 589.724 241.001 589.566 240.167C589.407 239.332 589.489 238.467 589.799 237.681C590.109 236.895 590.634 236.223 591.308 235.75C591.982 235.277 592.774 235.025 593.585 235.025C594.671 235.025 595.714 235.478 596.482 236.285C597.251 237.092 597.682 238.186 597.682 239.327Z" fill="#1E1E1E"/>
<path d="M545.051 208.674C545.051 209.525 544.811 210.357 544.361 211.064C543.91 211.772 543.27 212.323 542.522 212.649C541.773 212.974 540.949 213.06 540.154 212.894C539.359 212.728 538.629 212.318 538.056 211.716C537.483 211.115 537.093 210.348 536.934 209.513C536.776 208.679 536.857 207.814 537.168 207.028C537.478 206.242 538.003 205.57 538.677 205.097C539.351 204.624 540.143 204.372 540.953 204.372C542.04 204.372 543.083 204.825 543.851 205.632C544.62 206.439 545.051 207.533 545.051 208.674Z" fill="#1E1E1E"/>
<path d="M513.405 212.623L532.662 235.193L541.546 223.665L546.956 216.64L532.518 199.734L525.283 204.607L513.405 212.623Z" fill="#1E1E1E"/>
<path opacity="0.1" d="M513.406 212.624L532.662 235.193L541.546 223.665L525.283 204.607L513.406 212.624Z" fill="black"/>
<path d="M485.49 223.766L519.072 263.107L541.37 233.227L516.207 203.75L485.49 223.766Z" fill="#1E1E1E"/>
<path d="M581.931 367.537H631.617L628.575 351.151H584.972L581.931 367.537Z" fill="#1E1E1E"/>
<path d="M293.95 320.801L297.488 367.537H321.978L325.516 320.801H293.95Z" fill="#00E340"/>
<path d="M291.837 316.582H327.837V323.389H291.837V316.582Z" fill="#0E0E0E"/>
<path d="M294.302 316.582H325.372L323.547 308.919H296.127L294.302 316.582Z" fill="#0E0E0E"/>
<path d="M301.233 344.581C301.233 350.647 305.043 355.571 309.733 355.571C314.423 355.571 318.233 350.647 318.233 344.581C318.233 338.514 314.359 333.59 309.733 333.59C305.107 333.59 301.233 338.514 301.233 344.581Z" fill="white"/>
</svg>
