<svg width="78" height="66" viewBox="0 0 78 66" fill="none" xmlns="http://www.w3.org/2000/svg">
<path d="M33.353 11.6769V23.3538L27.2647 20.3077C23.9162 18.6831 20.7706 17.2615 20.1618 17.2615C17.828 17.2615 19.4515 20.4092 23.8147 24.2677C26.9603 27.0092 28.0765 28.5323 27.1633 28.8369C26.3515 29.1415 20.3647 30.7662 13.6677 32.3908C1.18679 35.4369 -1.34997 36.7569 0.577968 38.6862C1.28826 39.3969 6.15885 39.0923 17.0162 37.4677C25.5397 36.2492 32.7441 35.5385 33.0485 35.8431C33.353 36.2492 31.628 39.8031 29.2941 43.8646C26.8588 47.9262 24.8294 51.5815 24.6265 51.8862C24.4235 52.2923 24.9309 53.1046 25.6412 53.7138C26.8588 54.7292 27.8735 54.2215 31.1206 51.3785C33.353 49.3477 35.5853 47.7231 36.0927 47.7231C36.6 47.7231 37.6147 50.7692 38.4265 54.5262C40.1515 63.2585 41.3691 66 43.6015 66C46.3412 66 46.8485 62.8523 46.0368 51.1754C45.6309 45.2862 45.6309 40.6154 46.1382 40.6154C46.6456 40.6154 50.7044 42.24 55.1691 44.1692C63.9971 48.0277 66.8382 48.5354 66.8382 46.3015C66.8382 44.2708 65.2147 42.8492 57.4015 37.4677C53.6471 35.0308 50.603 32.6954 50.603 32.3908C50.603 32.0862 55.778 30.36 62.0691 28.5323C73.3324 25.2831 78 23.1508 78 21.3231C78 19.8 71.6074 20.1046 61.4603 21.9323C56.5897 22.8462 52.2265 23.3538 51.9221 22.9477C51.6177 22.6431 52.3279 20.0031 53.5456 17.16C58.1118 6.0923 55.2706 5.07692 48.1677 15.3323C45.5294 19.2923 42.8912 22.1354 42.4853 21.6277C42.0794 21.2215 40.9632 17.16 39.9485 12.6923C37.9191 3.14769 36.6 0 34.6721 0C33.6574 0 33.353 2.64 33.353 11.6769Z" fill="#00E340"/>
</svg>
