<svg width="1300" height="1300" viewBox="0 0 1300 1300" fill="none" xmlns="http://www.w3.org/2000/svg">
<mask id="mask0_409_3719" style="mask-type:alpha" maskUnits="userSpaceOnUse" x="0" y="0" width="1296" height="1296">
<circle cx="647.869" cy="647.869" r="647.869" fill="#D9D9D9"/>
</mask>
<g mask="url(#mask0_409_3719)">
<path d="M1003.04 1182.75C1000.07 1184.87 996.668 1186.99 993.694 1189.12C990.295 1191.24 987.321 1193.37 983.923 1195.07C980.949 1196.76 978.4 1198.46 975.426 1200.16C975.001 1200.59 974.576 1200.59 974.151 1201.01C964.38 1206.96 954.184 1212.48 943.988 1217.58C941.014 1219.28 937.615 1220.98 934.641 1222.26C934.641 1222.26 934.217 1222.68 933.792 1222.68C930.393 1224.38 926.994 1226.08 923.596 1227.78C916.798 1231.18 909.576 1234.15 902.779 1237.12C899.38 1238.82 895.556 1240.1 892.158 1241.37C888.759 1242.65 884.936 1244.35 881.537 1245.62C878.138 1246.9 874.315 1248.59 870.916 1249.87C870.916 1249.87 870.916 1249.87 870.491 1249.87C867.092 1251.14 863.269 1252.42 859.87 1253.69C852.223 1256.24 844.151 1258.79 836.504 1261.34C833.955 1262.19 830.981 1263.04 828.432 1263.89C820.36 1266.44 812.289 1268.56 804.217 1270.26C801.243 1271.11 798.269 1271.54 794.87 1272.39C787.223 1274.09 779.151 1275.78 771.504 1277.48C769.805 1277.91 768.53 1277.91 766.831 1278.33C764.282 1278.76 761.308 1279.18 758.759 1279.61C754.936 1280.03 751.537 1280.88 747.713 1281.31C746.014 1281.73 744.315 1281.73 742.615 1282.16C740.491 1282.58 737.942 1283.01 735.393 1283.01C728.596 1283.86 721.374 1284.71 714.576 1285.56C712.452 1285.98 709.903 1285.98 707.779 1286.41H707.354C704.38 1286.83 701.406 1286.83 698.432 1287.25C695.458 1287.68 692.485 1287.68 689.511 1287.68C687.811 1287.68 685.687 1288.1 683.988 1288.1C680.589 1288.1 677.615 1288.53 674.642 1288.53C670.393 1288.53 666.57 1288.95 662.321 1288.95C658.073 1288.95 654.249 1288.95 650.001 1288.95C647.027 1288.95 644.053 1288.95 641.079 1288.95C461.798 1286.41 300.785 1210.36 185.655 1089.71C185.655 1089.71 185.655 1089.28 185.23 1089.28C172.485 1077.81 183.53 1016.63 234.936 977.974C299.511 929.118 454.151 898.53 454.151 898.53C454.151 898.53 514.053 888.758 736.243 935.066C866.243 962.255 965.23 1001.76 1020.46 1108.82C1031.93 1130.92 1043.4 1164.9 1003.04 1182.75Z" fill="white"/>
<path d="M737.517 930.392C819.086 946.961 906.177 964.804 973.301 1018.76C995.818 1037.03 1010.69 1063.79 1023.01 1089.71C1028.96 1102.45 1034.9 1115.62 1039.58 1129.64C1042.12 1138.99 1045.95 1149.61 1043.82 1160.65C1043.4 1163.63 1040.85 1167.45 1038.73 1169.58C1028.96 1179.35 1018.33 1185.29 1007.71 1192.94C945.262 1236.27 873.465 1266.86 799.118 1283.01C633.432 1319.12 454.151 1291.08 308.432 1203.99C260.001 1174.67 215.393 1138.99 177.158 1096.93C172.909 1091.83 172.909 1083.33 172.909 1077.81C173.334 1065.07 176.733 1052.75 180.981 1041.27C191.177 1014.93 204.347 988.595 226.863 970.327C243.007 959.281 260.426 949.935 278.269 942.288C334.347 918.497 393.399 901.928 454.151 895.131C459.249 894.706 460.099 901.928 455.001 902.778C396.798 914.673 339.02 932.516 285.066 956.732C265.524 966.503 244.707 975 228.988 990.294C214.118 1006.44 203.497 1026.41 195.001 1046.8C189.478 1059.12 185.654 1078.66 187.354 1088.43C214.118 1120.29 245.556 1148.33 279.543 1172.55C465.622 1302.55 748.138 1311.05 946.112 1202.71C963.955 1192.94 981.373 1181.9 997.942 1170.42C1006.01 1164.9 1014.51 1160.23 1020.88 1153.86C1021.31 1153.43 1020.88 1153.86 1020.88 1154.28C1020.88 1154.71 1020.46 1155.13 1020.46 1155.13C1020.88 1150.03 1019.18 1143.24 1017.06 1136.44C1009.41 1111.8 997.092 1085.88 983.922 1063.37C963.105 1029.8 927.844 1008.56 892.158 991.569C867.517 980.098 841.602 971.177 815.262 962.68C788.922 954.183 762.158 946.961 735.393 940.588C728.596 938.889 730.72 929.118 737.517 930.392Z" fill="black"/>
<path d="M1003.04 1182.75C1000.07 1184.87 996.669 1186.99 993.695 1189.12C990.297 1191.24 987.323 1193.37 983.924 1195.07C980.95 1196.76 978.401 1198.46 975.427 1200.16C975.003 1200.59 974.578 1200.59 974.153 1201.01C964.382 1206.96 954.186 1212.48 943.989 1217.58C941.016 1219.28 937.617 1220.98 934.643 1222.26C934.643 1222.26 934.218 1222.68 933.793 1222.68C930.395 1224.38 926.996 1226.08 923.597 1227.78C916.8 1231.18 909.578 1234.15 902.78 1237.12C899.382 1238.82 895.558 1240.1 892.159 1241.37C888.761 1242.65 884.937 1244.35 881.538 1245.62C878.14 1246.9 874.316 1248.6 870.918 1249.87C870.918 1249.87 870.918 1249.87 870.493 1249.87C867.094 1251.14 863.27 1252.42 859.872 1253.69C852.225 1256.24 844.153 1258.79 836.506 1261.34C833.957 1262.19 830.983 1263.04 828.434 1263.89C820.362 1266.44 812.29 1268.56 804.218 1270.26C801.244 1271.11 798.271 1271.54 794.872 1272.39C787.225 1274.09 779.153 1275.78 771.506 1277.48C769.806 1277.91 768.532 1277.91 766.833 1278.33C764.284 1278.76 761.31 1279.18 758.761 1279.61C754.937 1280.03 751.538 1280.88 747.715 1281.31C746.016 1281.73 744.316 1281.73 742.617 1282.16C740.493 1282.58 737.944 1283.01 735.395 1283.01C728.597 1283.86 721.375 1284.71 714.578 1285.56C712.453 1285.98 709.905 1285.98 707.78 1286.41H707.355C704.382 1286.83 701.408 1286.83 698.434 1287.26C695.46 1287.68 692.486 1287.68 689.512 1287.68C687.813 1287.68 685.689 1288.1 683.989 1288.1C680.591 1288.1 677.617 1288.53 674.643 1288.53C670.395 1288.53 666.571 1288.95 662.323 1288.95C658.074 1288.95 654.251 1288.95 650.003 1288.95C647.029 1288.95 644.055 1288.95 641.081 1288.95C461.8 1286.41 300.787 1210.36 185.656 1089.71C185.656 1089.71 185.656 1089.28 185.231 1089.28C172.486 1082.91 181.408 1010.26 232.813 971.602C297.388 922.745 454.153 898.53 454.153 898.53C454.153 898.53 514.055 888.759 736.244 935.066C855.199 959.706 965.656 998.791 1006.02 1066.77C1017.06 1085.46 1043.83 1121.99 1039.15 1149.61C1036.6 1164.48 1015.79 1171.27 1003.04 1182.75Z" fill="white"/>
<path d="M737.519 930.393C816.539 947.386 909.153 962.255 974.153 1013.66C1015.79 1046.8 1029.38 1099.48 1049.35 1147.06C1051.05 1150.03 1049.35 1153.01 1048.07 1155.56C1036.6 1173.4 1017.91 1185.29 1000.92 1197.19C951.212 1230.75 895.558 1256.24 838.205 1272.81C646.179 1328.46 429.088 1293.63 266.375 1176.8C233.663 1153.43 203.5 1126.67 176.735 1096.93L178.859 1098.63C172.062 1093.95 170.362 1085.46 170.362 1078.24C172.486 1048.5 185.656 1021.31 198.826 994.968C203.075 987.321 207.748 978.824 214.545 972.876C276.996 915.523 379.807 893.432 461.8 885.785C466.898 885.36 467.323 892.582 462.65 893.432C386.604 907.451 307.585 925.295 243.009 969.478C234.513 976.275 224.317 983.072 218.369 992.419C208.598 1007.71 174.186 1073.99 186.931 1087.58C275.722 1193.37 409.12 1254.12 544.643 1270.26C678.042 1288.11 818.663 1269.84 938.042 1206.54C955.036 1197.61 971.604 1187.84 987.323 1176.8C1001.77 1167.03 1016.21 1157.68 1027.26 1144.51L1026.83 1145.36L1026.41 1153.01C1025.13 1137.29 1017.06 1121.99 1011.96 1107.12C1006.02 1092.26 999.643 1076.54 991.996 1062.94C976.702 1035.33 950.362 1015.78 922.748 1000.92C894.284 985.621 863.271 974.576 831.408 965.229C799.545 955.883 767.683 947.811 734.97 940.589C728.598 938.889 730.722 929.118 737.519 930.393Z" fill="black"/>
<path d="M241.734 962.255C241.734 962.255 262.976 964.804 292.29 982.648C347.094 1016.21 432.911 1224.8 283.368 1349.71C283.368 1349.71 256.604 1506.05 283.368 1535.78C283.368 1535.78 772.78 1560.43 983.924 1535.78C983.924 1535.78 1011.96 1444.02 998.368 1345.88C981.375 1221.41 986.473 1090.56 904.479 978.824C867.094 927.844 679.741 883.661 571.408 884.51C461.8 885.785 416.342 897.255 387.453 904.478C358.14 912.125 243.859 939.739 241.734 962.255Z" fill="black" stroke="black" stroke-width="5.1257" stroke-miterlimit="10" stroke-linecap="round" stroke-linejoin="round"/>
<path d="M254.479 979.249C305.885 932.092 299.937 972.027 396.375 956.308C433.336 950.36 477.094 919.772 533.597 921.046C574.381 921.896 618.564 952.484 670.819 959.282C712.878 964.804 763.009 945.687 813.14 955.883C855.198 964.804 894.283 1001.77 942.715 1014.94" stroke="white" stroke-width="4" stroke-miterlimit="10" stroke-linecap="round" stroke-linejoin="round"/>
<path d="M258.305 1035.75C318.631 999.641 307.161 1037.45 402.749 1024.28C440.56 1019.18 485.592 987.746 541.671 988.171C583.305 988.595 628.337 1018.76 681.017 1023.86C723.926 1028.11 774.056 1007.29 824.612 1015.78C867.945 1023.43 908.305 1059.97 957.161 1071.44" stroke="white" stroke-width="4" stroke-miterlimit="10" stroke-linecap="round" stroke-linejoin="round"/>
<path d="M262.127 1092.68C328.401 1066.34 313.957 1102.03 408.696 1091.83C447.781 1087.58 493.663 1056.14 549.741 1056.14C592.225 1056.14 638.532 1085.88 691.212 1090.13C734.97 1093.53 785.526 1070.59 836.081 1077.81C880.264 1084.18 922.323 1119.87 972.029 1129.64" stroke="white" stroke-width="4" stroke-miterlimit="10" stroke-linecap="round" stroke-linejoin="round"/>
<path d="M265.95 1150.46C336.048 1133.04 319.904 1166.6 413.793 1158.95C453.728 1155.56 500.885 1124.54 556.963 1124.12C600.721 1123.69 648.303 1153.43 700.983 1156.41C746.016 1158.95 796.146 1133.89 847.551 1139.41C893.009 1144.09 937.192 1178.92 987.323 1186.99" stroke="white" stroke-width="4" stroke-miterlimit="10" stroke-linecap="round" stroke-linejoin="round"/>
<path d="M268.926 1208.24C341.573 1198.04 324.155 1229.9 418.043 1225.23C459.253 1223.1 507.684 1192.09 564.187 1191.67C608.795 1191.24 657.651 1221.41 710.756 1223.1C756.638 1224.8 807.194 1198.04 859.024 1201.44C905.756 1204.84 952.063 1238.4 1002.62 1243.92" stroke="white" stroke-width="4" stroke-miterlimit="10" stroke-linecap="round" stroke-linejoin="round"/>
<path d="M271.896 1266.01C346.243 1261.77 328.4 1292.78 422.289 1290.66C464.772 1289.81 514.478 1259.22 570.981 1259.22C616.864 1259.22 666.57 1289.38 720.099 1290.23C767.256 1291.08 818.236 1262.62 870.066 1264.32C918.073 1266.01 966.504 1298.3 1017.91 1301.28" stroke="white" stroke-width="4" stroke-miterlimit="10" stroke-linecap="round" stroke-linejoin="round"/>
<path d="M777.449 1043.4C768.527 1087.16 710.749 1113.5 613.462 1073.99C512.351 1033.2 468.593 935.915 457.547 907.026C517.449 794.87 475.815 717.124 475.815 717.124C613.887 705.229 734.54 866.667 734.54 866.667L753.233 946.536C754.933 953.334 758.331 959.281 763.429 963.53C772.351 979.249 782.972 1015.36 777.449 1043.4Z" fill="white"/>
<path d="M455.424 908.301C463.496 895.981 468.594 881.536 471.993 867.517C478.365 838.203 480.49 808.464 480.914 778.726V767.68C479.64 756.634 475.816 745.164 471.568 734.968C466.045 721.373 486.012 712.876 492.385 726.471C493.235 728.17 493.235 731.144 493.235 732.843C494.509 790.621 497.058 864.967 460.522 912.974C457.973 915.523 452.875 911.7 455.424 908.301Z" fill="black"/>
<path d="M739.213 865.818C745.586 869.641 747.71 874.739 748.56 879.837C751.109 890.033 750.259 901.079 752.808 911.7C754.932 921.896 761.305 931.667 763.004 942.288C765.129 953.334 771.501 976.7 774.05 988.171C774.9 990.72 773.2 993.693 770.227 994.118C768.527 994.543 767.253 994.118 765.978 993.269C760.455 988.595 757.906 983.922 754.508 977.974C748.985 967.778 745.161 958.432 741.763 946.961C738.789 936.765 740.063 925.72 737.514 915.099C735.39 904.903 729.442 895.131 727.318 884.51C726.044 879.412 725.619 873.89 729.442 867.517C731.991 864.968 736.24 864.118 739.213 865.818Z" fill="black"/>
<path d="M769.803 977.974C688.659 973.726 622.385 948.236 557.81 833.105C612.189 881.111 676.339 899.379 743.888 907.876L752.81 946.961C754.509 953.758 764.705 973.726 769.803 977.974Z" fill="black"/>
<path d="M766.406 962.255C780.851 989.445 789.348 1023.43 780.426 1053.6C773.629 1074.84 754.086 1090.56 732.844 1096.5C683.563 1109.67 626.635 1088.86 582.877 1065.49C528.923 1035.33 488.988 984.772 463.498 929.543C461.798 925.294 467.746 921.896 470.295 926.144C479.217 943.987 489.413 961.406 500.883 977.125C512.354 993.268 525.524 1008.14 540.393 1021.31C583.727 1060.39 642.354 1084.61 700.982 1084.61C761.308 1082.91 784.25 1051.05 770.23 992.419C768.106 983.072 764.707 973.301 760.034 965.229C757.485 961.83 763.857 958.007 766.406 962.255Z" fill="black"/>
<path d="M930.817 452.026C938.464 487.713 942.287 516.602 921.47 611.765C901.078 706.504 950.784 726.046 833.104 877.713C785.098 939.739 668.692 922.32 574.379 858.17C542.516 836.504 528.921 780.85 505.13 741.34C486.438 710.327 477.941 742.615 453.3 715.85C419.738 679.314 379.379 605.817 399.346 475.817C431.634 265.098 598.594 240.458 722.222 263.824C846.699 287.615 910.424 358.138 930.817 452.026Z" fill="white"/>
<path d="M474.542 753.66C464.771 737.092 452.025 722.647 440.13 707.353C428.659 691.634 419.313 674.216 411.666 656.373C361.11 532.321 380.653 357.713 504.705 284.641C556.11 254.902 618.137 247.68 675.914 252.353C799.542 261.275 912.973 318.203 939.738 449.053C954.182 506.83 934.64 566.307 923.594 622.811C918.496 650.85 922.744 679.739 922.32 708.628C921.895 737.941 913.823 767.255 902.777 794.445C895.98 813.137 884.084 829.706 871.764 845C851.372 869.641 830.98 894.706 805.065 913.824C799.117 918.072 788.496 920.196 781.274 921.046C761.306 924.02 741.764 924.869 721.797 923.595C643.627 920.196 559.934 882.386 528.496 806.765C527.222 803.791 531.47 801.667 533.169 804.216C573.954 868.791 648.725 900.654 723.071 904.902C746.012 906.177 769.378 905.752 791.895 901.079C802.94 895.556 812.712 885.785 822.058 876.863C844.999 853.922 868.365 829.281 884.934 801.242C904.901 763.432 915.947 722.222 912.548 679.314C911.699 660.196 911.274 640.229 915.097 621.111C918.496 601.994 922.744 583.726 925.293 564.183C927.842 545.49 929.117 526.373 929.117 507.68C926.993 452.876 909.15 396.373 874.313 353.889C797.418 258.301 615.588 233.236 513.202 298.66C448.627 338.595 418.463 413.366 408.692 486.013C393.823 573.105 398.071 658.922 467.32 722.222L487.712 743.464C495.784 752.811 481.339 763.856 474.542 753.66Z" fill="black"/>
<path d="M524.671 618.562C524.671 618.562 511.501 554.836 449.475 562.483C395.945 569.281 377.253 697.582 498.756 733.268" fill="white"/>
<path d="M493.234 677.615C483.463 672.092 476.666 662.745 476.241 651.275C476.666 642.778 477.94 633.007 475.816 624.51C474.541 616.438 466.045 614.314 459.672 614.739C452.875 616.013 448.626 624.51 447.352 631.307C447.352 631.732 446.927 633.007 446.927 633.432C446.502 635.556 443.103 635.556 442.254 633.432C436.731 616.863 449.051 598.595 466.894 600.719C491.96 602.419 495.358 628.758 490.685 648.726C488.136 657.222 491.535 664.87 496.208 672.092L497.058 673.366C499.182 675.915 495.783 679.314 493.234 677.615Z" fill="black"/>
<path d="M833.102 573.529C839.475 603.693 851.37 631.732 866.24 658.072C879.41 690.359 845.423 720.948 815.259 719.673C811.861 719.673 811.436 715 814.41 714.15C833.527 708.203 850.946 695.458 853.919 675.915C855.194 669.967 853.495 664.869 850.521 659.771C836.501 633.431 828.004 603.268 830.129 573.529C830.129 571.405 833.102 571.405 833.102 573.529Z" fill="black"/>
<path d="M522.549 618.987C512.777 593.922 491.536 570.131 463.072 570.556C460.523 570.131 456.274 570.981 453.725 570.981C446.503 571.405 440.555 573.955 435.032 579.053C407.843 606.242 412.516 654.249 434.608 684.412C442.255 695.033 452.026 704.379 463.072 712.026C474.117 719.674 486.438 725.621 499.608 730.719C502.581 731.569 501.307 736.242 498.333 735.817C469.869 729.87 442.679 715.85 423.987 692.484C395.098 657.647 389.15 599.445 423.562 565.458C431.209 558.66 441.83 553.562 452.451 553.562C455.849 553.562 460.947 552.713 464.346 553.562C482.189 554.412 499.183 563.334 510.228 577.353C520 589.249 525.523 603.693 527.222 618.138C527.222 620.687 523.398 621.536 522.549 618.987Z" fill="black"/>
<path d="M791.044 760.457C791.469 767.255 786.371 779.15 777.024 787.647C729.018 758.333 707.351 773.627 707.351 773.627C690.358 747.712 694.181 712.451 735.39 739.215C763.854 757.908 781.697 760.882 791.044 760.457Z" fill="black"/>
<path d="M776.599 788.072C766.403 796.993 751.109 802.516 730.292 794.019C720.521 790.196 712.873 782.549 706.926 774.052C707.351 774.052 728.592 758.758 776.599 788.072Z" fill="white"/>
<path d="M799.116 759.183C799.116 759.183 781.273 768.954 735.39 739.64C680.586 704.379 691.632 778.3 730.292 794.019C770.652 810.588 791.469 774.477 791.044 760.882" stroke="black" stroke-width="3" stroke-miterlimit="10" stroke-linecap="round" stroke-linejoin="round"/>
<path d="M707.354 774.052C707.354 774.052 729.02 758.758 777.027 788.072" stroke="black" stroke-width="3" stroke-miterlimit="10" stroke-linecap="round" stroke-linejoin="round"/>
<path d="M737.09 528.497C746.436 529.772 753.658 520 750.26 510.654C748.56 505.556 745.586 500.883 740.913 497.909C726.469 488.987 672.514 488.138 644.05 508.53C618.56 527.223 694.606 522.549 737.09 528.497Z" fill="black"/>
<path d="M854.769 533.17C847.122 533.17 842.449 523.399 846.273 515.327C848.397 511.079 851.371 507.255 855.619 505.131C868.789 498.759 904.05 502.582 919.769 524.249C933.789 543.366 890.031 532.746 854.769 533.17Z" fill="black"/>
<path d="M721.371 583.301C699.704 573.955 675.064 576.504 652.547 581.602C649.998 582.451 648.299 579.053 650.423 577.353C669.966 561.21 706.926 559.085 722.645 581.177C723.92 582.027 723.07 583.726 721.371 583.301Z" fill="black"/>
<path d="M888.332 592.223C878.136 585 863.266 586.275 851.371 587.549C847.123 587.974 842.874 588.824 838.201 590.098C836.927 590.523 835.652 588.399 836.502 587.549L837.351 586.7C847.972 575.654 864.541 573.105 878.985 578.628C884.083 580.752 889.181 583.726 891.73 589.674C893.005 591.798 890.031 593.922 888.332 592.223Z" fill="black"/>
<path d="M964.817 522.973C983.934 457.548 950.797 412.091 927.006 389.999C915.961 360.261 897.268 330.947 867.529 308.43C861.581 303.757 855.209 299.509 847.987 295.685C842.039 292.287 835.666 289.313 829.294 286.339C773.215 262.123 683.575 233.659 594.784 248.953C560.797 254.476 526.81 266.796 494.948 287.613C494.523 287.613 494.523 288.038 494.523 288.038C491.974 289.738 489.425 291.437 487.3 293.136C481.353 285.914 474.555 279.542 466.908 273.594C413.804 233.659 356.026 240.457 316.091 293.986C276.157 347.091 269.359 426.535 322.464 466.47C339.032 478.79 357.725 486.437 376.843 489.411C376.418 491.535 376.418 494.084 375.993 496.208C352.627 705.653 512.791 799.966 500.47 734.117C497.072 732.842 495.372 731.568 495.372 730.718C377.693 693.332 396.385 567.581 449.49 560.783C468.608 558.234 482.627 562.908 493.673 569.705C497.921 573.953 501.745 577.777 505.568 581.6C515.765 594.346 524.686 610.489 524.686 616.862C525.111 611.764 525.536 605.816 526.81 599.868C578.215 638.104 624.523 624.509 708.64 490.261C764.294 401.47 797.431 384.051 815.699 386.6C822.921 389.149 829.719 394.672 836.091 404.019C837.791 406.568 839.49 409.117 840.764 411.666C878.15 410.816 895.568 432.483 904.49 454.999C904.49 454.999 904.49 454.999 904.49 455.424C911.712 474.542 912.562 494.084 913.412 499.182C913.412 500.032 913.412 500.457 913.836 500.457C912.987 517.45 910.862 546.339 910.438 583.725C910.438 600.718 912.137 634.705 910.863 654.247C910.438 660.195 910.013 666.143 909.588 671.666C909.163 674.64 909.163 677.613 908.738 680.162C908.313 682.711 908.314 685.685 907.889 688.659C907.464 692.058 907.039 695.032 907.039 698.43C915.536 708.627 927.856 710.326 938.052 717.123C940.601 688.234 932.954 664.019 929.98 631.306C932.529 642.352 935.928 652.973 941.026 664.019C958.019 700.555 948.673 727.319 948.673 727.319L976.712 729.019C979.686 720.947 982.235 706.078 973.313 686.535C959.719 656.372 958.869 642.352 958.869 642.352C958.869 642.352 966.091 666.993 979.686 683.561C990.307 697.156 994.555 715.424 990.307 729.868L1000.5 730.718C1031.09 684.836 936.353 619.411 964.817 522.973ZM618.15 559.934C585.863 583.3 558.673 578.627 542.104 571.404C542.529 571.404 542.954 570.979 542.954 570.979C553.15 570.13 563.346 568.006 573.117 564.182C619.849 547.613 663.183 504.705 701.418 465.195C669.13 505.13 638.117 545.489 618.15 559.934Z" fill="black"/>
<path d="M1224.38 358.137C1482.25 854.771 1028.95 1415.13 488.562 1278.33C245.98 1218.01 50.9803 1007.71 10.6208 760.882C-35.2615 515.327 75.6208 251.503 282.941 112.582C567.157 -82.8431 960.98 -17.8432 1164.48 261.699C1165.75 262.974 1165.33 265.098 1163.63 266.373C1162.35 267.647 1160.23 267.222 1158.95 265.523C1130.91 229.412 1099.05 196.699 1064.22 167.386C1006.86 118.529 939.738 80.2941 868.791 54.3791C507.68 -76.4706 111.307 141.046 32.2875 518.725C-56.9282 941.863 302.908 1331.44 731.993 1273.24C1062.94 1231.6 1308.92 926.144 1281.73 593.922C1275.78 513.627 1254.54 434.183 1219.28 361.111C1218.43 359.837 1219.28 358.137 1220.56 357.288C1221.83 356.438 1223.53 356.863 1224.38 358.137Z" fill="black"/>
</g>
</svg>
