<svg width="1300" height="1300" viewBox="0 0 1300 1300" fill="none" xmlns="http://www.w3.org/2000/svg">
<mask id="mask0_409_3749" style="mask-type:alpha" maskUnits="userSpaceOnUse" x="0" y="0" width="1296" height="1296">
<circle cx="647.869" cy="647.869" r="647.869" fill="#D9D9D9"/>
</mask>
<g mask="url(#mask0_409_3749)">
<path d="M1003.04 1182.75C1000.07 1184.87 996.668 1186.99 993.694 1189.12C990.295 1191.24 987.321 1193.37 983.923 1195.07C980.949 1196.76 978.4 1198.46 975.426 1200.16C975.001 1200.59 974.576 1200.59 974.151 1201.01C964.38 1206.96 954.184 1212.48 943.988 1217.58C941.014 1219.28 937.615 1220.98 934.641 1222.26C934.641 1222.26 934.217 1222.68 933.792 1222.68C930.393 1224.38 926.994 1226.08 923.596 1227.78C916.798 1231.18 909.576 1234.15 902.779 1237.12C899.38 1238.82 895.556 1240.1 892.158 1241.37C888.759 1242.65 884.936 1244.35 881.537 1245.62C878.138 1246.9 874.315 1248.59 870.916 1249.87C870.916 1249.87 870.916 1249.87 870.491 1249.87C867.092 1251.14 863.269 1252.42 859.87 1253.69C852.223 1256.24 844.151 1258.79 836.504 1261.34C833.955 1262.19 830.981 1263.04 828.432 1263.89C820.36 1266.44 812.289 1268.56 804.217 1270.26C801.243 1271.11 798.269 1271.54 794.87 1272.39C787.223 1274.09 779.151 1275.78 771.504 1277.48C769.805 1277.91 768.53 1277.91 766.831 1278.33C764.282 1278.76 761.308 1279.18 758.759 1279.61C754.936 1280.03 751.537 1280.88 747.713 1281.31C746.014 1281.73 744.315 1281.73 742.615 1282.16C740.491 1282.58 737.942 1283.01 735.393 1283.01C728.596 1283.86 721.374 1284.71 714.576 1285.56C712.452 1285.98 709.903 1285.98 707.779 1286.41H707.354C704.38 1286.83 701.406 1286.83 698.432 1287.25C695.458 1287.68 692.485 1287.68 689.511 1287.68C687.811 1287.68 685.687 1288.1 683.988 1288.1C680.589 1288.1 677.615 1288.53 674.642 1288.53C670.393 1288.53 666.57 1288.95 662.321 1288.95C658.073 1288.95 654.249 1288.95 650.001 1288.95C647.027 1288.95 644.053 1288.95 641.079 1288.95C461.798 1286.41 300.785 1210.36 185.655 1089.71C185.655 1089.71 185.655 1089.28 185.23 1089.28C172.485 1077.81 183.53 1016.63 234.936 977.974C299.511 929.118 454.151 898.53 454.151 898.53C454.151 898.53 514.053 888.758 736.243 935.066C866.243 962.255 965.23 1001.76 1020.46 1108.82C1031.93 1130.92 1043.4 1164.9 1003.04 1182.75Z" fill="white"/>
<path d="M737.517 930.392C819.086 946.961 906.177 964.804 973.301 1018.76C995.818 1037.03 1010.69 1063.79 1023.01 1089.71C1028.96 1102.45 1034.9 1115.62 1039.58 1129.64C1042.12 1138.99 1045.95 1149.61 1043.82 1160.65C1043.4 1163.63 1040.85 1167.45 1038.73 1169.58C1028.96 1179.35 1018.33 1185.29 1007.71 1192.94C945.262 1236.27 873.465 1266.86 799.118 1283.01C633.432 1319.12 454.151 1291.08 308.432 1203.99C260.001 1174.67 215.393 1138.99 177.158 1096.93C172.909 1091.83 172.909 1083.33 172.909 1077.81C173.334 1065.07 176.733 1052.75 180.981 1041.27C191.177 1014.93 204.347 988.595 226.863 970.327C243.007 959.281 260.426 949.935 278.269 942.288C334.347 918.497 393.399 901.928 454.151 895.131C459.249 894.706 460.099 901.928 455.001 902.778C396.798 914.673 339.02 932.516 285.066 956.732C265.524 966.503 244.707 975 228.988 990.294C214.118 1006.44 203.497 1026.41 195.001 1046.8C189.478 1059.12 185.654 1078.66 187.354 1088.43C214.118 1120.29 245.556 1148.33 279.543 1172.55C465.622 1302.55 748.138 1311.05 946.112 1202.71C963.955 1192.94 981.373 1181.9 997.942 1170.42C1006.01 1164.9 1014.51 1160.23 1020.88 1153.86C1021.31 1153.43 1020.88 1153.86 1020.88 1154.28C1020.88 1154.71 1020.46 1155.13 1020.46 1155.13C1020.88 1150.03 1019.18 1143.24 1017.06 1136.44C1009.41 1111.8 997.092 1085.88 983.922 1063.37C963.105 1029.8 927.844 1008.56 892.158 991.569C867.517 980.098 841.602 971.177 815.262 962.68C788.922 954.183 762.158 946.961 735.393 940.588C728.596 938.889 730.72 929.118 737.517 930.392Z" fill="black"/>
<path d="M1144.09 1446.14H69.6748C69.6748 1446.14 87.0931 1271.11 153.368 1131.34C177.583 1080.36 185.655 1005.59 233.662 972.874C282.943 939.312 387.877 912.547 424.413 908.299C444.805 905.75 440.132 904.051 454.577 900.227C459.25 912.972 506.407 1037.87 619.413 1083.76C716.701 1123.27 774.479 1096.93 783.4 1053.17C788.923 1025.13 771.505 979.247 762.583 964.378C757.485 960.129 754.087 953.757 752.387 947.384L748.988 933.364C756.636 931.665 763.858 929.541 771.505 927.417C775.328 928.266 779.577 927.842 782.975 929.966C818.662 949.508 926.145 977.123 982.224 1036.17C1004.32 1059.12 1038.73 1140.68 1044.25 1193.79C1059.97 1339.51 1144.09 1446.14 1144.09 1446.14Z" fill="white"/>
<path d="M1150.04 1448.69C831.409 1449.54 384.056 1453.37 70.1015 1452.09C66.278 1452.09 63.3041 1448.69 63.729 1444.87C67.5525 1414.71 72.6505 1385.39 78.5982 1355.65C94.3172 1274.51 118.108 1194.64 153.794 1120.29C168.239 1085.46 175.461 1048.92 192.879 1014.93C203.075 994.542 218.369 975 238.762 963.529C271.474 943.987 307.585 931.666 343.696 920.621C365.363 914.248 387.454 908.3 409.546 904.052C420.592 901.503 431.637 901.928 441.834 897.68C447.356 895.555 457.977 889.183 461.376 897.255C492.389 977.549 552.291 1053.59 635.984 1082.06C679.317 1097.78 754.513 1110.95 776.605 1057.84C783.402 1037.88 777.03 1016.21 771.082 996.242C767.683 986.046 763.435 975.425 758.337 966.928L759.611 968.202C751.964 961.83 747.716 951.634 746.441 942.287L744.317 933.791C743.467 930.392 745.592 926.993 748.99 926.144C756.637 924.869 764.284 922.32 771.932 920.196C776.18 920.196 782.977 921.046 788.5 924.019C835.232 945.686 888.337 961.405 932.945 988.595C958.01 1003.46 983.5 1020.88 999.644 1045.95C1029.38 1095.65 1048.5 1152.16 1054.02 1209.51C1065.92 1291.5 1099.06 1370.1 1146.64 1437.65L1148.34 1439.77L1149.19 1440.62L1149.61 1441.05C1149.61 1441.05 1149.61 1440.62 1150.04 1441.9C1150.46 1444.44 1150.46 1447.42 1150.04 1448.69ZM1138.57 1443.17C1137.72 1444.44 1137.72 1447.42 1138.57 1448.69C1139.42 1449.54 1138.99 1449.12 1138.99 1449.12L1138.57 1448.69L1137.72 1447.42L1136.02 1445.29C1109.25 1404.51 1087.16 1360.75 1071.02 1315.29C1058.27 1281.73 1048.92 1246.9 1043.83 1211.21C1042.13 1198.46 1040 1181.47 1037.03 1169.15C1027.26 1128.37 1011.54 1087.58 989.023 1052.32C981.801 1040.85 971.18 1031.93 960.559 1023.43C926.997 997.941 887.487 982.222 848.402 966.928L808.467 952.059C795.298 946.961 779.579 941.438 771.507 933.366H774.905C767.258 935.915 759.611 938.039 751.964 939.738L756.637 932.091L758.762 940.588C760.461 948.235 762.16 955.032 768.108 960.13C768.533 960.555 768.958 960.98 769.383 961.405C780.853 982.222 787.65 1003.89 791.049 1027.25C798.271 1067.61 772.781 1099.48 733.696 1107.12C679.742 1117.74 615.167 1094.38 570.559 1064.22C514.481 1024.71 474.121 966.078 449.481 902.778L457.128 906.601C453.304 907.876 450.755 909.15 446.932 910.849C443.108 912.974 438.435 914.248 434.186 915.098C434.611 917.647 433.337 910 435.036 920.196C426.964 921.046 420.592 921.47 412.945 923.17C391.278 926.568 369.611 931.666 348.369 937.614C319.905 945.261 291.866 954.608 265.526 966.928C252.356 973.3 239.611 980.098 229.84 989.019C219.644 997.941 211.572 1009.84 204.775 1022.58C184.807 1061.24 175.036 1107.55 154.644 1146.63C112.16 1241.37 88.3695 1344.61 76.8989 1447.84L70.5263 1441.05C378.958 1439.77 825.036 1441.47 1138.57 1443.17Z" fill="black"/>
<path d="M799.121 1168.3C784.252 1172.55 732.422 1118.59 721.801 1109.25C712.03 1120.29 643.206 1198.04 609.219 1192.94C571.834 1187.42 476.246 1123.27 427.814 1022.58C401.049 967.353 400.2 933.791 403.174 915.523C404.448 907.026 406.997 901.503 408.272 898.529C412.52 888.758 443.108 850.948 450.755 851.372V851.797C454.579 892.582 467.749 932.091 489.84 966.503C517.03 1008.56 559.938 1059.12 619.84 1083.33C717.128 1122.84 767.683 1083.76 776.18 1040C781.703 1011.96 771.932 978.823 763.01 963.954C757.912 959.706 754.513 953.333 752.814 946.961L749.415 932.941C757.062 931.242 764.285 929.118 771.932 926.993C774.056 926.144 776.605 925.719 778.729 924.869C780.004 926.569 781.703 928.268 782.978 929.967C800.821 950.359 819.514 978.399 829.71 1025.98C846.703 1102.03 815.69 1163.2 799.121 1168.3Z" fill="black"/>
<path d="M720.526 1106.7C720.526 1106.7 751.539 1124.54 750.69 1139.41C749.84 1154.28 758.762 1201.44 758.762 1201.44" stroke="black" stroke-width="3" stroke-miterlimit="10" stroke-linecap="round" stroke-linejoin="round"/>
<path d="M720.101 1163.2C725.732 1163.2 730.297 1158.64 730.297 1153.01C730.297 1147.38 725.732 1142.81 720.101 1142.81C714.47 1142.81 709.905 1147.38 709.905 1153.01C709.905 1158.64 714.47 1163.2 720.101 1163.2Z" fill="black"/>
<path d="M723.499 1203.14C729.13 1203.14 733.695 1198.57 733.695 1192.94C733.695 1187.31 729.13 1182.74 723.499 1182.74C717.868 1182.74 713.303 1187.31 713.303 1192.94C713.303 1198.57 717.868 1203.14 723.499 1203.14Z" fill="black"/>
<path d="M279.969 1446.14L260.852 1288.53" stroke="#544D4D" stroke-width="3" stroke-miterlimit="10" stroke-linecap="round" stroke-linejoin="round"/>
<path d="M1022.16 1235C1022.16 1235 1009.41 1266.01 1013.24 1297.03C1017.06 1328.04 1028.11 1373.5 1012.39 1446.14" stroke="#544D4D" stroke-width="3" stroke-miterlimit="10" stroke-linecap="round" stroke-linejoin="round"/>
<path d="M450.754 851.372C450.754 851.372 587.976 808.889 779.153 924.444C779.153 924.444 831.832 1066.34 799.12 1088.01C766.408 1109.67 663.597 1111.8 591.8 1088.01C519.578 1064.64 426.963 947.81 450.754 851.372Z" fill="black"/>
<path d="M777.449 1043.4C768.527 1087.16 710.749 1113.5 613.462 1073.99C512.351 1033.2 468.593 935.915 457.547 907.026C517.449 794.87 475.815 717.124 475.815 717.124C613.887 705.229 734.54 866.667 734.54 866.667L753.233 946.536C754.933 953.334 758.331 959.281 763.429 963.53C772.351 979.249 782.972 1015.36 777.449 1043.4Z" fill="white"/>
<path d="M455.424 908.301C463.496 895.981 468.594 881.536 471.993 867.517C478.365 838.203 480.49 808.464 480.914 778.726V767.68C479.64 756.634 475.816 745.164 471.568 734.968C466.045 721.373 486.012 712.876 492.385 726.471C493.235 728.17 493.235 731.144 493.235 732.843C494.509 790.621 497.058 864.967 460.522 912.974C457.973 915.523 452.875 911.7 455.424 908.301Z" fill="black"/>
<path d="M739.213 865.818C745.586 869.641 747.71 874.739 748.56 879.837C751.109 890.033 750.259 901.079 752.808 911.7C754.932 921.896 761.305 931.667 763.004 942.288C765.129 953.334 771.501 976.7 774.05 988.171C774.9 990.72 773.2 993.693 770.227 994.118C768.527 994.543 767.253 994.118 765.978 993.269C760.455 988.595 757.906 983.922 754.508 977.974C748.985 967.778 745.161 958.432 741.763 946.961C738.789 936.765 740.063 925.72 737.514 915.099C735.39 904.903 729.442 895.131 727.318 884.51C726.044 879.412 725.619 873.89 729.442 867.517C731.991 864.968 736.24 864.118 739.213 865.818Z" fill="black"/>
<path d="M769.803 977.974C688.659 973.726 622.385 948.236 557.81 833.105C612.189 881.111 676.339 899.379 743.888 907.876L752.81 946.961C754.509 953.758 764.705 973.726 769.803 977.974Z" fill="black"/>
<path d="M766.406 962.255C780.851 989.445 789.348 1023.43 780.426 1053.6C773.629 1074.84 754.086 1090.56 732.844 1096.5C683.563 1109.67 626.635 1088.86 582.877 1065.49C528.923 1035.33 488.988 984.772 463.498 929.543C461.798 925.294 467.746 921.896 470.295 926.144C479.217 943.987 489.413 961.406 500.883 977.125C512.354 993.268 525.524 1008.14 540.393 1021.31C583.727 1060.39 642.354 1084.61 700.982 1084.61C761.308 1082.91 784.25 1051.05 770.23 992.419C768.106 983.072 764.707 973.301 760.034 965.229C757.485 961.83 763.857 958.007 766.406 962.255Z" fill="black"/>
<path d="M930.816 452.026C938.463 487.713 932.515 511.504 929.116 610.066C925.718 706.928 897.678 843.726 863.267 878.137C836.927 904.053 752.384 924.445 677.188 905.327C638.953 895.556 606.665 873.464 580.326 857.745C547.188 837.778 518.299 776.177 494.508 736.667C475.816 705.654 477.515 743.039 453.299 716.275C419.737 679.739 379.378 606.242 399.345 476.242C431.633 265.523 598.593 240.883 722.221 264.249C846.698 287.615 910.424 358.137 930.816 452.026Z" fill="white"/>
<path d="M474.543 753.66C464.772 737.517 452.027 723.072 440.556 707.778C423.563 684.412 410.818 657.647 402.321 630.033C365.36 511.928 387.877 357.288 499.609 287.615C601.145 223.04 798.269 246.406 880.687 334.772C911.7 366.634 931.667 408.268 940.164 451.602C940.589 454.151 941.863 458.824 942.288 461.373C942.713 463.497 943.988 466.046 943.563 468.595C942.713 477.942 941.014 487.288 940.164 496.634C933.792 553.138 935.491 610.915 928.269 667.419C921.896 726.896 913.399 786.373 895.556 843.726C890.033 861.144 879.413 876.863 865.393 888.334C833.955 914.674 792.746 923.595 753.236 925.294C674.216 929.118 593.922 901.079 548.04 834.379C546.341 831.83 549.739 828.856 551.863 831.405C590.099 872.615 641.929 898.955 697.158 904.902C758.334 912.124 850.524 906.602 877.288 841.177C908.301 748.562 924.445 650.425 926.145 553.138C926.145 529.347 924.87 505.556 924.87 481.34C924.87 478.366 925.295 471.569 925.295 468.595C925.295 468.595 925.295 468.17 925.295 468.595C925.295 469.02 925.295 469.02 925.295 468.595C921.896 460.098 920.622 450.752 918.073 442.255C908.726 406.994 891.733 373.432 867.517 346.667C787.223 256.602 608.367 234.085 508.105 301.634C428.661 354.314 407.419 455.425 401.896 544.641C397.223 611.34 416.765 676.765 467.321 722.647L487.288 743.464C495.785 752.811 481.341 763.856 474.543 753.66Z" fill="black"/>
<path d="M524.676 618.562C524.676 618.562 511.506 554.836 449.48 562.483C395.95 569.281 377.257 697.582 498.761 733.268" fill="white"/>
<path d="M493.234 677.615C483.463 672.092 476.666 662.746 476.241 651.275C476.666 642.779 477.94 633.007 475.816 624.511C474.541 616.439 466.045 614.315 459.672 614.739C452.875 616.014 448.626 624.511 447.352 631.308C447.352 631.733 446.927 633.007 446.927 633.432C446.502 635.556 443.103 635.556 442.254 633.432C436.731 616.864 449.051 598.596 466.894 600.72C491.96 602.419 495.358 628.759 490.685 648.726C488.136 657.223 491.535 664.87 496.208 672.092L497.058 673.367C499.182 675.916 495.783 679.315 493.234 677.615Z" fill="black"/>
<path d="M833.107 573.529C839.48 603.693 851.375 631.732 866.245 658.072C879.415 690.359 845.428 720.948 815.264 719.673C811.865 719.673 811.441 715 814.415 714.15C833.532 708.203 850.95 695.458 853.924 675.915C855.199 669.967 853.499 664.869 850.526 659.771C836.506 633.431 828.009 603.268 830.133 573.529C830.133 571.405 833.107 571.405 833.107 573.529Z" fill="black"/>
<path d="M522.55 618.987C512.778 593.922 491.537 570.131 463.073 570.556C460.524 570.131 456.275 570.981 453.726 570.981C446.504 571.406 440.556 573.955 435.033 579.053C407.844 606.242 412.517 654.249 434.609 684.412C442.256 695.033 452.027 704.379 463.073 712.027C474.118 719.674 486.439 725.621 499.609 730.719C502.582 731.569 501.308 736.242 498.334 735.817C469.87 729.87 442.68 715.85 423.988 692.484C395.099 657.647 389.151 599.445 423.563 565.458C431.21 558.66 441.831 553.562 452.452 553.562C455.85 553.562 460.948 552.713 464.347 553.562C482.19 554.412 499.184 563.334 510.229 577.353C520.001 589.249 525.524 603.693 527.223 618.138C527.223 620.687 523.399 621.536 522.55 618.987Z" fill="black"/>
<path d="M800.818 762.157C773.628 788.072 722.223 767.255 708.628 735.817C706.929 731.993 711.177 728.595 714.576 730.294C721.798 734.118 728.171 737.941 734.968 740.915C754.51 749.836 774.903 757.059 796.569 754.935C800.818 754.085 803.791 759.183 800.818 762.157Z" fill="#040404"/>
<path d="M737.09 528.497C746.436 529.772 753.658 520 750.26 510.654C748.56 505.556 745.586 500.883 740.913 497.909C726.469 488.987 672.514 488.138 644.05 508.53C618.56 527.223 694.606 522.549 737.09 528.497Z" fill="black"/>
<path d="M854.768 533.17C847.121 533.17 842.448 523.399 846.272 515.327C848.396 511.079 851.37 507.255 855.618 505.131C868.788 498.759 904.049 502.582 919.768 524.249C933.788 543.366 890.03 532.746 854.768 533.17Z" fill="black"/>
<path d="M721.371 583.301C699.704 573.955 675.064 576.504 652.547 581.602C649.998 582.451 648.299 579.053 650.423 577.353C669.966 561.21 706.926 559.085 722.645 581.177C723.92 582.027 723.07 583.726 721.371 583.301Z" fill="black"/>
<path d="M888.332 592.223C878.136 585 863.266 586.275 851.371 587.549C847.123 587.974 842.874 588.824 838.201 590.098C836.927 590.523 835.652 588.399 836.502 587.549L837.351 586.7C847.972 575.654 864.541 573.105 878.985 578.628C884.083 580.752 889.181 583.726 891.73 589.674C893.005 591.798 890.031 593.922 888.332 592.223Z" fill="black"/>
<path d="M919.789 691.208C920.639 716.273 921.913 732.417 921.913 732.417L969.92 719.247C969.92 719.247 955.476 635.979 962.698 564.182C976.717 428.234 962.698 389.999 962.698 389.999C955.476 354.737 932.11 323.3 880.28 313.953C864.561 304.182 847.142 296.535 828.025 290.162C759.626 265.947 609.234 215.391 493.678 291.437C378.123 367.483 373.874 508.953 358.155 603.267C342.436 697.581 239.626 766.404 239.626 766.404L263.417 800.391C276.162 809.737 310.574 767.679 316.097 766.404C321.619 765.13 285.083 809.313 285.083 809.313C294.43 847.123 334.365 869.215 334.365 869.215C334.365 869.215 396.391 829.28 383.646 847.548C370.9 865.816 347.11 880.26 347.11 880.26C347.11 880.26 409.136 935.064 434.626 930.391C460.116 925.718 496.652 867.515 493.678 880.26C491.129 893.005 470.312 939.737 470.312 939.737L503.874 958.855C609.659 924.868 525.541 791.469 585.868 709.476C645.77 627.483 569.299 583.724 617.306 556.535C629.626 549.313 641.521 541.666 652.142 533.169L720.966 545.064C720.966 545.064 765.574 544.215 752.829 454.999C748.155 422.286 759.201 387.45 763.45 375.979C763.874 375.979 763.874 375.979 764.299 375.979C762.6 387.45 759.626 421.437 769.397 465.195C782.992 526.796 740.508 550.587 740.508 550.587L783.417 564.182C827.175 542.515 791.914 473.267 783.417 418.038C780.868 400.195 784.266 389.149 790.214 382.777C819.953 391.698 839.07 401.894 840.77 392.973C910.868 410.391 911.717 502.581 913.842 505.13C912.992 522.123 910.868 551.012 910.443 588.398C910.443 605.816 912.142 639.378 910.868 658.92C909.593 682.711 907.469 704.803 904.07 726.894C897.698 760.881 887.927 796.568 873.907 818.659C845.868 862.417 823.776 899.378 783.417 918.071C743.482 936.339 698.025 940.162 698.025 940.162C698.025 940.162 710.77 948.234 740.933 949.934C771.097 951.633 792.763 939.737 814.855 936.339C836.946 932.515 887.502 946.535 887.502 946.535C893.025 936.764 889.201 900.653 894.724 907.875C900.247 915.097 899.397 946.535 899.397 946.535L944.855 954.607C954.626 931.666 955.9 890.881 955.9 890.881C955.9 884.084 955.476 877.286 955.051 869.639C947.829 797.417 919.364 785.097 919.789 691.208Z" fill="black"/>
<path d="M743.468 669.543C723.925 669.967 663.598 670.392 644.906 670.817C612.618 671.242 588.402 643.203 591.376 611.34C591.801 600.719 591.376 585.85 591.801 575.229C592.651 547.614 617.291 524.248 644.906 525.098L716.703 525.948C722.226 525.948 737.945 526.373 743.468 526.373C766.409 525.948 788.075 542.941 793.173 565.458C794.873 571.83 794.448 578.628 794.448 584.15V620.262C794.023 647.026 770.232 669.967 743.468 669.543ZM743.468 660.196C765.559 661.046 785.951 641.928 786.376 619.837C786.801 608.366 786.376 596.046 786.376 584.15C788.925 558.235 769.383 534.445 743.043 535.294C724.775 535.719 663.598 536.144 644.481 536.569C621.539 536.569 601.997 557.386 603.696 580.327C603.696 583.301 603.696 590.948 603.696 593.922C604.121 603.268 602.847 619.412 604.971 627.909C609.219 645.752 626.213 659.346 644.481 659.346H653.402C665.723 659.346 730.722 660.196 743.468 660.196Z" fill="black"/>
<path d="M914.675 537.419L881.113 537.843C871.767 538.268 860.721 536.569 852.649 542.092C845.002 547.19 841.604 556.536 842.028 565.458C842.028 576.504 842.028 587.974 841.604 599.02L841.179 597.321C847.126 618.138 855.198 638.105 867.519 655.523L863.27 652.974C866.669 653.824 872.617 653.824 876.015 653.824C888.76 654.249 903.63 655.098 916.375 655.098C928.27 655.098 939.741 646.177 942.29 634.281C943.14 630.883 943.14 624.935 943.14 621.536C943.14 603.268 943.564 585.425 942.715 567.157C943.564 551.013 931.244 536.569 914.675 537.419ZM914.675 524.673C937.192 524.673 952.911 546.34 949.087 567.582C948.238 585.85 948.662 603.693 948.662 621.961C950.787 643.203 938.042 662.321 915.95 664.02C906.604 664.445 897.682 664.445 888.76 664.87C884.087 664.87 872.617 665.719 868.368 665.719C866.244 666.144 862.845 665.719 860.721 665.719C859.022 665.719 857.323 664.445 856.473 663.17C843.303 643.628 833.957 621.961 828.434 599.445C828.434 585 827.159 570.556 828.434 556.111C830.983 539.118 846.277 524.673 863.695 524.249C875.591 523.824 902.78 524.673 914.675 524.673Z" fill="black"/>
<path d="M789.773 563.758C801.244 558.66 813.989 556.536 826.734 557.386C830.982 557.811 835.231 559.085 839.054 562.484L844.577 567.157C850.1 571.83 843.302 579.902 837.78 575.229C830.982 569.281 822.91 570.131 814.838 570.556C806.767 571.406 799.12 573.105 791.472 576.079C784.25 579.053 779.577 568.432 786.374 565.033C786.374 565.033 789.773 563.758 789.773 563.758Z" fill="black"/>
<path d="M598.596 579.053C595.623 585.85 592.224 586.7 586.701 586.275L574.381 586.7C549.74 586.7 524.675 586.275 500.034 582.451C491.538 582.026 491.113 570.131 499.609 569.706L598.172 566.307C601.145 566.307 603.27 569.281 601.995 571.83L598.596 579.053Z" fill="black"/>
<path d="M1224.38 358.137C1482.25 854.771 1028.95 1415.13 488.562 1278.33C245.98 1218.01 50.9803 1007.71 10.6208 760.882C-35.2615 515.327 75.6208 251.503 282.941 112.582C567.157 -82.8431 960.98 -17.8432 1164.48 261.699C1165.75 262.974 1165.33 265.098 1163.63 266.373C1162.35 267.647 1160.23 267.222 1158.95 265.523C1130.91 229.412 1099.05 196.699 1064.22 167.386C1006.86 118.529 939.738 80.2941 868.791 54.3791C507.68 -76.4706 111.307 141.046 32.2875 518.725C-56.9282 941.863 302.908 1331.44 731.993 1273.24C1062.94 1231.6 1308.92 926.144 1281.73 593.922C1275.78 513.627 1254.54 434.183 1219.28 361.111C1218.43 359.837 1219.28 358.137 1220.56 357.288C1221.83 356.438 1223.53 356.863 1224.38 358.137Z" fill="black"/>
</g>
</svg>
