<svg width="1300" height="1300" viewBox="0 0 1300 1300" fill="none" xmlns="http://www.w3.org/2000/svg">
<mask id="mask0_409_3759" style="mask-type:alpha" maskUnits="userSpaceOnUse" x="0" y="0" width="1296" height="1296">
<circle cx="647.869" cy="647.869" r="647.869" fill="#D9D9D9"/>
</mask>
<g mask="url(#mask0_409_3759)">
<path d="M1003.04 1182.75C1000.07 1184.87 996.668 1186.99 993.694 1189.12C990.295 1191.24 987.321 1193.37 983.923 1195.07C980.949 1196.76 978.4 1198.46 975.426 1200.16C975.001 1200.59 974.576 1200.59 974.151 1201.01C964.38 1206.96 954.184 1212.48 943.988 1217.58C941.014 1219.28 937.615 1220.98 934.641 1222.26C934.641 1222.26 934.217 1222.68 933.792 1222.68C930.393 1224.38 926.994 1226.08 923.596 1227.78C916.798 1231.18 909.576 1234.15 902.779 1237.12C899.38 1238.82 895.556 1240.1 892.158 1241.37C888.759 1242.65 884.936 1244.35 881.537 1245.62C878.138 1246.9 874.315 1248.59 870.916 1249.87C870.916 1249.87 870.916 1249.87 870.491 1249.87C867.092 1251.14 863.269 1252.42 859.87 1253.69C852.223 1256.24 844.151 1258.79 836.504 1261.34C833.955 1262.19 830.981 1263.04 828.432 1263.89C820.36 1266.44 812.289 1268.56 804.217 1270.26C801.243 1271.11 798.269 1271.54 794.87 1272.39C787.223 1274.09 779.151 1275.78 771.504 1277.48C769.805 1277.91 768.53 1277.91 766.831 1278.33C764.282 1278.76 761.308 1279.18 758.759 1279.61C754.936 1280.03 751.537 1280.88 747.713 1281.31C746.014 1281.73 744.315 1281.73 742.615 1282.16C740.491 1282.58 737.942 1283.01 735.393 1283.01C728.596 1283.86 721.374 1284.71 714.576 1285.56C712.452 1285.98 709.903 1285.98 707.779 1286.41H707.354C704.38 1286.83 701.406 1286.83 698.432 1287.25C695.458 1287.68 692.485 1287.68 689.511 1287.68C687.811 1287.68 685.687 1288.1 683.988 1288.1C680.589 1288.1 677.615 1288.53 674.642 1288.53C670.393 1288.53 666.57 1288.95 662.321 1288.95C658.073 1288.95 654.249 1288.95 650.001 1288.95C647.027 1288.95 644.053 1288.95 641.079 1288.95C461.798 1286.41 300.785 1210.36 185.655 1089.71C185.655 1089.71 185.655 1089.28 185.23 1089.28C172.485 1077.81 183.53 1016.63 234.936 977.974C299.511 929.118 454.151 898.53 454.151 898.53C454.151 898.53 514.053 888.758 736.243 935.066C866.243 962.255 965.23 1001.76 1020.46 1108.82C1031.93 1130.92 1043.4 1164.9 1003.04 1182.75Z" fill="white"/>
<path d="M737.517 930.392C819.086 946.961 906.177 964.804 973.301 1018.76C995.818 1037.03 1010.69 1063.79 1023.01 1089.71C1028.96 1102.45 1034.9 1115.62 1039.58 1129.64C1042.12 1138.99 1045.95 1149.61 1043.82 1160.65C1043.4 1163.63 1040.85 1167.45 1038.73 1169.58C1028.96 1179.35 1018.33 1185.29 1007.71 1192.94C945.262 1236.27 873.465 1266.86 799.118 1283.01C633.432 1319.12 454.151 1291.08 308.432 1203.99C260.001 1174.67 215.393 1138.99 177.158 1096.93C172.909 1091.83 172.909 1083.33 172.909 1077.81C173.334 1065.07 176.733 1052.75 180.981 1041.27C191.177 1014.93 204.347 988.595 226.863 970.327C243.007 959.281 260.426 949.935 278.269 942.288C334.347 918.497 393.399 901.928 454.151 895.131C459.249 894.706 460.099 901.928 455.001 902.778C396.798 914.673 339.02 932.516 285.066 956.732C265.524 966.503 244.707 975 228.988 990.294C214.118 1006.44 203.497 1026.41 195.001 1046.8C189.478 1059.12 185.654 1078.66 187.354 1088.43C214.118 1120.29 245.556 1148.33 279.543 1172.55C465.622 1302.55 748.138 1311.05 946.112 1202.71C963.955 1192.94 981.373 1181.9 997.942 1170.42C1006.01 1164.9 1014.51 1160.23 1020.88 1153.86C1021.31 1153.43 1020.88 1153.86 1020.88 1154.28C1020.88 1154.71 1020.46 1155.13 1020.46 1155.13C1020.88 1150.03 1019.18 1143.24 1017.06 1136.44C1009.41 1111.8 997.092 1085.88 983.922 1063.37C963.105 1029.8 927.844 1008.56 892.158 991.569C867.517 980.098 841.602 971.177 815.262 962.68C788.922 954.183 762.158 946.961 735.393 940.588C728.596 938.889 730.72 929.118 737.517 930.392Z" fill="black"/>
<path d="M1151.31 1447.84L75.1973 1424.05C141.472 1202.71 178.433 1007.71 228.138 977.974C322.452 921.471 407.42 912.549 457.975 907.876C470.72 939.314 519.151 1042.55 619.838 1083.33C717.125 1122.84 774.903 1096.5 783.825 1052.75C789.348 1024.71 771.929 978.823 763.008 963.954C757.91 959.706 754.511 953.333 752.812 946.961L749.413 932.941C756.635 931.242 763.857 929.542 771.08 926.993C848.4 940.588 965.655 1004.31 990.72 1040C1020.88 1082.91 1062.52 1190.39 1060.82 1249.44C1058.27 1345.46 1151.31 1447.84 1151.31 1447.84Z" fill="white"/>
<path d="M1161.5 1452.52C841.177 1447.84 390.851 1443.17 75.1971 1435.1C69.2494 1435.1 64.5762 1430 64.5762 1424.05C98.9879 1308.07 126.602 1191.24 163.563 1075.69C168.236 1061.24 173.334 1047.22 179.282 1032.78C189.478 1010.26 199.674 985.196 220.916 969.902C233.236 962.68 246.406 955.457 259.151 949.085C320.753 918.497 389.151 902.778 457.125 897.255C462.223 896.83 466.472 899.804 468.171 904.052C500.459 981.373 559.086 1053.17 641.079 1079.93C681.439 1093.95 753.236 1105.85 772.354 1055.72C778.727 1031.5 769.38 1006.01 760.883 983.072C758.759 978.399 756.635 973.725 754.511 969.902L756.635 972.451C748.563 965.654 743.465 954.183 741.766 943.987L739.642 935.49C738.367 929.542 742.191 923.595 748.138 922.32C755.361 920.621 762.158 918.922 768.955 916.797C828.432 921.046 950.36 981.372 992.419 1023.86C1017.06 1052.32 1031.08 1089.28 1045.1 1123.69C1055.3 1151.31 1064.22 1179.77 1069.31 1209.08C1071.44 1220.13 1072.71 1231.6 1072.71 1243.07C1072.29 1260.07 1073.56 1277.48 1078.24 1294.48C1092.26 1347.58 1123.27 1396.44 1158.53 1438.5L1159.38 1439.35L1159.8 1439.77C1159.8 1439.77 1159.38 1439.35 1161.08 1441.05C1162.35 1444.44 1162.78 1449.54 1161.5 1452.52ZM1141.54 1443.59C1141.11 1444.87 1140.26 1446.57 1140.69 1448.69C1140.69 1450.82 1141.54 1452.52 1142.39 1453.79C1143.66 1455.49 1143.24 1454.64 1143.24 1455.07L1142.81 1454.64C1139.84 1450.39 1133.89 1441.9 1130.92 1437.22C1096.08 1382.42 1061.67 1321.67 1060.39 1254.97C1061.24 1211.21 1047.65 1169.15 1033.2 1128.79C1023.01 1101.6 1011.11 1075.26 995.818 1050.62C991.994 1044.67 988.171 1038.73 983.073 1033.63C967.779 1018.76 949.086 1006.86 930.393 996.242C880.687 968.627 826.733 945.686 770.23 938.464L775.328 938.039C767.681 940.588 760.034 942.288 752.387 943.987L760.883 930.817C763.432 939.739 763.857 950.359 771.079 956.307C775.753 961.83 778.302 969.052 781.275 975C788.073 991.144 792.746 1007.71 795.72 1025.13C803.367 1066.76 778.726 1101.18 737.942 1110.52C703.53 1118.59 667.419 1111.37 634.707 1100.75C546.766 1072.71 483.04 995.817 448.628 912.549L459.674 919.346C392.55 918.497 325.851 931.667 265.099 960.556C251.929 966.928 238.334 974.15 226.014 981.797C208.596 995.817 200.099 1017.91 191.177 1037.88C163.563 1107.55 147.419 1180.62 129.151 1252.84C116.406 1303.82 99.4128 1376.05 86.6677 1427.45L76.4716 1413.43C384.053 1419.8 828.857 1433.4 1141.54 1443.59Z" fill="black"/>
<path d="M263.824 1446.14C263.824 1446.14 258.301 1308.5 252.778 1283.01" stroke="black" stroke-width="5.1512" stroke-miterlimit="10" stroke-linecap="round" stroke-linejoin="round"/>
<path d="M1016.63 1446.14C1016.63 1446.14 1003.89 1360.75 1003.89 1345.88C1003.89 1331.44 1014.93 1283.86 1016.63 1242.22" stroke="black" stroke-width="5.1512" stroke-miterlimit="10" stroke-linecap="round" stroke-linejoin="round"/>
<path d="M389.153 1339.09V1288.53L511.081 1338.24C510.657 1338.24 412.519 1340.78 389.153 1339.09Z" fill="white"/>
<path d="M679.739 1174.67L664.445 1491.6C664.445 1491.6 799.119 1583.37 799.119 1580.82C799.119 1578.27 862.844 1466.96 862.844 1466.96L763.432 1161.93C763.432 1161.93 750.687 1175.1 679.739 1174.67Z" fill="black"/>
<path d="M710.329 1072.71C710.329 1072.71 652.127 1127.52 644.48 1141.96C636.833 1156.41 677.192 1179.35 677.192 1179.35C677.192 1179.35 742.192 1192.94 771.506 1166.6C771.506 1166.6 788.074 1148.33 784.676 1130.92C781.702 1113.92 710.329 1072.71 710.329 1072.71Z" fill="black"/>
<path d="M440.555 867.091C440.98 866.667 441.405 866.242 441.829 865.817C446.503 860.294 453.3 856.895 460.947 856.046C496.633 851.797 500.457 855.621 508.104 867.516C545.065 925.294 593.071 1035.75 710.751 1073.14L597.32 1188.69C591.372 1196.34 580.751 1197.61 573.104 1192.09C536.568 1164.9 463.496 1081.63 423.137 980.098C414.64 958.856 412.94 935.49 417.189 913.399C416.339 912.549 433.333 877.287 440.555 867.091Z" fill="white"/>
<path d="M437.581 864.967C443.953 859.02 451.175 853.922 460.097 852.647C471.992 851.373 484.313 848.824 496.633 851.373C509.378 855.196 514.051 869.216 521.273 878.987C553.136 931.242 586.274 984.346 635.13 1021.31C652.548 1035.33 672.515 1045.95 692.908 1054.44C700.555 1057.42 708.626 1059.97 716.274 1063.37C722.646 1066.34 723.921 1075.69 718.398 1079.93C686.96 1105.42 657.221 1133.04 627.908 1161.5C621.11 1168.3 605.391 1184.02 599.443 1189.97C592.646 1198.89 579.051 1200.16 570.555 1193.37L566.306 1189.97C551.862 1178.07 538.692 1164.48 525.947 1150.88C480.489 1100.75 442.254 1043.82 416.764 980.948C407.842 958.431 405.718 932.941 411.241 909.575C417.613 893.856 426.11 878.137 437.581 864.967ZM446.077 870.915C436.731 884.085 428.659 900.229 421.862 915.098L422.287 913.824C419.738 927.843 419.738 942.288 422.711 955.882C425.26 970.327 431.633 983.072 437.156 996.242C448.626 1023.43 463.071 1049.35 478.365 1074.41C493.659 1099.48 511.077 1123.69 530.62 1146.21C543.79 1161.5 557.809 1176.37 573.953 1188.69C575.228 1189.97 576.502 1190.39 578.202 1191.24C584.149 1193.79 591.372 1191.67 595.195 1186.57L609.215 1172.12L623.234 1157.25C651.273 1127.94 678.038 1097.35 703.104 1065.49L707.352 1082.91C676.764 1073.56 647.875 1056.99 622.809 1036.18C573.104 995.817 540.816 939.739 510.228 885.359C506.404 879.412 502.581 871.765 498.757 866.242C497.058 863.693 495.783 862.843 493.234 861.993C483.463 859.444 471.992 861.144 461.796 862.418C454.999 863.268 449.476 866.242 446.077 870.915Z" fill="black"/>
<path d="M829.28 1146.64C826.731 1160.65 816.535 1173.82 799.542 1156.41L709.901 1072.71C709.901 1072.71 762.156 1023.01 749.411 932.942C766.829 929.119 783.398 923.596 798.692 916.374C799.117 917.223 805.065 928.694 811.862 947.812C826.307 987.322 844.575 1059.97 829.28 1146.64Z" fill="white"/>
<path d="M831.831 1147.06C829.282 1167.45 813.988 1175.95 798.269 1160.23L768.105 1132.19L737.942 1104.15L707.779 1076.11C706.079 1074.41 706.079 1071.86 707.354 1070.16C730.72 1042.97 742.615 1006.01 742.615 970.327C742.615 957.582 740.916 945.261 738.792 932.516C737.942 927.418 742.19 922.745 747.713 922.32C764.707 921.895 781.7 919.771 798.694 915.523C799.119 915.098 799.968 915.523 799.968 915.948C833.955 987.32 844.576 1069.31 831.831 1147.06ZM827.158 1146.21C837.354 1070.59 826.308 991.994 791.047 924.444L790.197 923.17C789.772 922.745 789.347 921.895 789.347 921.895L803.792 926.144C787.223 934.216 769.805 939.739 751.962 943.562L760.458 931.242C763.007 957.582 760.883 984.346 753.236 1009.41C745.164 1034.48 732.419 1057.42 713.301 1076.11V1069.74C728.596 1083.76 758.759 1112.22 773.628 1126.24L803.367 1154.71C813.988 1165.75 824.184 1161.5 827.158 1146.21Z" fill="black"/>
<path d="M777.448 1043.4C768.526 1087.16 710.748 1113.5 613.461 1073.99C512.35 1033.2 468.592 935.915 457.546 907.026C517.448 794.869 475.814 717.124 475.814 717.124C613.886 705.228 734.539 866.666 734.539 866.666L753.232 946.536C754.932 953.333 758.33 959.281 763.428 963.529C772.35 979.248 782.971 1015.36 777.448 1043.4Z" fill="white"/>
<path d="M455.423 908.3C463.495 895.98 468.593 881.536 471.992 867.516C478.364 838.202 480.489 808.464 480.913 778.725V767.679C479.639 756.634 475.815 745.163 471.567 734.967C466.044 721.372 486.011 712.876 492.384 726.47C493.234 728.17 493.234 731.144 493.234 732.843C494.508 790.621 497.057 864.967 460.521 912.974C457.972 915.523 452.874 911.699 455.423 908.3Z" fill="black"/>
<path d="M739.212 865.817C745.585 869.64 747.709 874.739 748.559 879.837C751.108 890.033 750.258 901.078 752.807 911.699C754.931 921.895 761.304 931.667 763.003 942.288C765.128 953.333 771.5 976.699 774.049 988.17C774.899 990.719 773.199 993.693 770.226 994.118C768.526 994.542 767.252 994.118 765.977 993.268C760.454 988.595 757.905 983.922 754.507 977.974C748.984 967.778 745.16 958.431 741.762 946.961C738.788 936.765 740.062 925.719 737.513 915.098C735.389 904.902 729.441 895.131 727.317 884.51C726.043 879.412 725.618 873.889 729.441 867.516C731.99 864.967 736.239 864.118 739.212 865.817Z" fill="black"/>
<path d="M769.802 977.974C688.658 973.725 622.384 948.235 557.809 833.104C612.188 881.111 676.338 899.379 743.887 907.875L752.809 946.96C754.508 953.758 764.704 973.725 769.802 977.974Z" fill="black"/>
<path d="M766.405 962.255C780.85 989.444 789.347 1023.43 780.425 1053.59C773.628 1074.84 754.085 1090.56 732.843 1096.5C683.562 1109.67 626.634 1088.86 582.876 1065.49C528.922 1035.33 488.987 984.771 463.497 929.542C461.798 925.294 467.745 921.895 470.294 926.143C479.216 943.987 489.412 961.405 500.882 977.124C512.353 993.268 525.523 1008.14 540.392 1021.31C583.726 1060.39 642.353 1084.61 700.981 1084.61C761.307 1082.91 784.249 1051.05 770.229 992.418C768.105 983.072 764.706 973.3 760.033 965.228C757.484 961.83 763.856 958.006 766.405 962.255Z" fill="black"/>
<path d="M930.816 452.026C938.463 487.712 912.973 525.947 912.973 621.111C912.973 718.398 895.129 824.183 821.633 897.679C758.332 960.98 685.685 958.431 600.293 891.732C588.397 882.385 546.763 850.947 536.142 840.326C523.822 828.006 517.025 819.085 511.077 809.738C505.979 801.241 507.254 751.96 500.031 740.49C481.339 709.477 477.515 743.039 453.299 715.849C419.737 679.313 379.378 605.817 399.345 475.817C431.633 265.098 598.593 240.457 722.221 263.823C846.698 287.614 910.424 358.137 930.816 452.026Z" fill="white"/>
<path d="M474.541 753.66C464.77 737.516 452.449 723.072 440.979 708.202C429.508 692.483 420.162 675.915 412.515 658.071C369.181 553.137 375.554 415.915 452.449 327.549C505.129 267.222 588.397 247.255 664.868 251.503C741.338 256.176 820.783 275.719 877.286 330.947C909.998 362.81 930.815 405.294 940.162 449.477C943.136 463.496 941.011 478.79 937.613 491.96C927.842 528.921 918.495 564.183 917.645 602.418C918.07 659.346 916.371 717.549 899.802 772.353C887.907 808.889 873.887 845.424 851.796 877.287C828.855 909.575 794.443 935.49 754.933 943.137C675.489 959.281 601.142 909.15 548.462 854.771C546.338 852.222 549.312 849.248 551.861 850.947C582.024 873.889 613.038 895.13 646.6 909.575C743.462 954.183 823.757 912.973 866.24 819.509C901.926 751.536 912.123 678.039 909.149 601.993C909.149 582.875 909.998 563.758 912.547 544.64C915.096 517.026 924.443 489.411 924.018 462.222C916.796 418.039 896.404 375.555 865.815 342.843C793.168 265.947 653.822 243.431 556.109 278.268C440.979 319.052 409.966 435.032 403.593 545.915C399.345 612.189 418.887 677.189 469.018 722.647L488.985 743.464C495.783 752.81 481.338 763.856 474.541 753.66Z" fill="black"/>
<path d="M524.672 618.562C524.672 618.562 511.502 554.836 449.476 562.483C395.946 569.281 377.254 697.581 498.757 733.268" fill="white"/>
<path d="M493.234 677.614C483.463 672.091 476.666 662.745 476.241 651.274C476.666 642.777 477.94 633.006 475.816 624.51C474.541 616.438 466.045 614.313 459.672 614.738C452.875 616.013 448.626 624.51 447.352 631.307C447.352 631.732 446.927 633.006 446.927 633.431C446.502 635.555 443.103 635.555 442.254 633.431C436.731 616.862 449.051 598.594 466.894 600.719C491.96 602.418 495.358 628.758 490.685 648.725C488.136 657.222 491.535 664.869 496.208 672.091L497.058 673.366C499.182 675.915 495.783 679.313 493.234 677.614Z" fill="black"/>
<path d="M833.103 573.529C839.476 603.692 851.371 631.732 866.241 658.071C879.411 690.359 845.424 720.947 815.26 719.673C811.862 719.673 811.437 715 814.411 714.15C833.528 708.202 850.947 695.457 853.92 675.915C855.195 669.967 853.496 664.869 850.522 659.771C836.502 633.431 828.005 603.268 830.13 573.529C830.13 571.405 833.103 571.405 833.103 573.529Z" fill="black"/>
<path d="M522.549 618.986C512.777 593.921 491.536 570.13 463.072 570.555C460.523 570.13 456.274 570.98 453.725 570.98C446.503 571.404 440.555 573.954 435.032 579.052C407.843 606.241 412.516 654.248 434.608 684.411C442.255 695.032 452.026 704.378 463.072 712.025C474.117 719.672 486.438 725.62 499.608 730.718C502.581 731.568 501.307 736.241 498.333 735.816C469.869 729.869 442.679 715.849 423.987 692.483C395.098 657.646 389.15 599.444 423.562 565.457C431.209 558.659 441.83 553.561 452.451 553.561C455.849 553.561 460.947 552.712 464.346 553.561C482.189 554.411 499.183 563.333 510.228 577.352C520 589.248 525.523 603.692 527.222 618.136C527.222 620.686 523.398 621.535 522.549 618.986Z" fill="black"/>
<path d="M804.639 760.033C797.417 765.131 786.796 760.883 779.149 764.281C773.626 765.981 764.705 773.628 751.959 772.778C741.763 771.928 736.665 766.83 728.169 763.007C719.247 760.033 709.901 754.51 703.953 747.288C702.678 746.013 702.678 744.314 703.953 743.039C705.652 741.34 707.352 742.615 709.051 743.464C712.875 745.588 715.848 747.288 718.822 748.137C721.796 748.987 724.77 748.137 729.443 748.137C734.116 747.713 740.914 749.837 745.162 753.236C748.136 755.36 751.535 756.634 754.084 757.059C760.881 758.334 769.378 752.811 776.6 751.961C781.698 751.111 787.221 751.536 791.469 752.811C795.718 754.085 798.692 754.935 802.09 754.085C805.914 753.236 808.038 758.334 804.639 760.033Z" fill="black"/>
<path d="M737.09 528.497C746.436 529.772 753.658 520 750.26 510.654C748.56 505.556 745.586 500.883 740.913 497.909C726.469 488.987 672.514 488.138 644.05 508.53C618.56 527.223 694.606 522.549 737.09 528.497Z" fill="black"/>
<path d="M854.769 533.17C847.122 533.17 842.449 523.399 846.273 515.327C848.397 511.079 851.371 507.255 855.619 505.131C868.789 498.759 904.05 502.582 919.769 524.249C933.789 543.366 890.031 532.746 854.769 533.17Z" fill="black"/>
<path d="M723.072 584.575C708.203 597.745 685.261 597.745 667.418 590.948C664.444 589.673 647.451 582.026 650.85 577.778C651.274 577.353 652.124 576.928 652.549 576.928C664.444 577.353 675.49 578.628 686.961 579.477C698.431 580.327 708.627 579.902 720.523 579.477C723.497 579.477 725.196 582.876 723.072 584.575Z" fill="black"/>
<path d="M890.88 591.798C877.285 607.517 849.671 605.393 836.926 590.098C835.651 588.824 836.926 586.275 838.625 586.7C843.298 587.125 847.547 587.974 851.795 588.399C864.54 590.523 875.161 590.098 888.756 589.674C890.88 588.824 891.73 590.948 890.88 591.798Z" fill="black"/>
<path d="M729.021 232.811C538.695 214.543 475.394 278.268 450.329 300.785C415.067 331.798 361.538 454.576 363.662 524.674C366.211 622.386 444.381 725.621 447.78 730.719C465.198 756.634 483.041 772.353 487.714 777.876C485.165 768.53 480.917 734.968 484.74 729.02C378.531 688.236 397.649 569.706 449.479 562.909C503.858 556.111 520.851 604.543 523.825 616.438C523.825 616.438 523.825 617.713 524.25 619.837C524.675 619.837 525.1 620.262 525.525 620.262C544.217 626.634 561.636 607.942 555.263 589.674C545.492 562.909 534.446 531.896 532.747 511.928C530.198 454.151 553.564 388.301 725.623 397.647C747.714 398.922 766.832 402.321 785.525 406.144C794.871 408.693 819.936 418.464 811.44 442.68C803.368 466.046 786.799 446.928 782.126 449.053C779.577 450.327 795.721 471.994 819.512 467.745C839.054 464.347 854.773 444.379 847.976 418.04C854.773 418.889 861.995 419.739 869.217 420.589C915.1 423.987 956.309 388.301 955.034 342.419C953.76 295.687 910.002 250.229 729.021 232.811Z" fill="black"/>
<path d="M488.99 779.575C488.99 779.15 488.566 778.725 487.716 777.451C488.566 780 488.99 780.85 488.99 779.575Z" fill="black"/>
<path d="M1224.38 358.137C1482.25 854.771 1028.95 1415.13 488.562 1278.33C245.98 1218.01 50.9803 1007.71 10.6208 760.882C-35.2615 515.327 75.6208 251.503 282.941 112.582C567.157 -82.8431 960.98 -17.8432 1164.48 261.699C1165.75 262.974 1165.33 265.098 1163.63 266.373C1162.35 267.647 1160.23 267.222 1158.95 265.523C1130.91 229.412 1099.05 196.699 1064.22 167.386C1006.86 118.529 939.738 80.2941 868.791 54.3791C507.68 -76.4706 111.307 141.046 32.2875 518.725C-56.9282 941.863 302.908 1331.44 731.993 1273.24C1062.94 1231.6 1308.92 926.144 1281.73 593.922C1275.78 513.627 1254.54 434.183 1219.28 361.111C1218.43 359.837 1219.28 358.137 1220.56 357.288C1221.83 356.438 1223.53 356.863 1224.38 358.137Z" fill="black"/>
</g>
</svg>
