<svg width="49" height="49" viewBox="0 0 49 49" fill="none" xmlns="http://www.w3.org/2000/svg">
<path d="M48.2073 24.0628C48.2073 36.2157 39.2016 46.2626 27.5024 47.893C26.4084 48.0448 25.2893 48.124 24.1532 48.124C22.8419 48.124 21.5541 48.0195 20.3001 47.8172C8.847 45.9727 0.0991516 36.0386 0.0991516 24.0628C0.0991516 10.7737 10.8696 0 24.1549 0C37.4402 0 48.2107 10.7737 48.2107 24.0628H48.2073Z" fill="#383D38"/>
<path d="M9.85497 10.6143L20.9491 25.4512L9.78586 37.5147H12.299L22.0733 26.9535L29.97 37.5147H38.5206L26.8029 21.8431L37.1941 10.6143H34.681L25.6803 20.3409L18.4073 10.6143H9.85664H9.85497ZM13.5496 12.4655H17.4769L34.8226 35.6634H30.8953L13.5496 12.4655Z" fill="white"/>
</svg>
