<svg width="226" height="202" viewBox="0 0 226 202" fill="none" xmlns="http://www.w3.org/2000/svg">
<path d="M159.995 0.96896C158.484 1.18471 154.385 1.93984 150.825 2.58709C147.265 3.12647 141.332 4.63673 137.664 5.82336C130.113 8.30449 113.5 17.9054 105.841 24.2701L100.771 28.4772L93.1119 26.1039C86.2079 24.0543 83.6189 23.8386 68.5163 24.2701C54.8161 24.7016 49.9617 25.3488 42.9498 27.3984C33.1332 30.419 22.4535 36.0285 15.6573 41.8538C8.10605 48.4342 -0.631863 68.3911 0.662643 76.1582C1.84927 83.2779 4.76191 94.6049 7.4588 102.588C8.96905 107.118 11.4502 114.885 12.8526 119.74C14.255 124.702 17.1676 133.116 19.3251 138.618C21.4826 144.012 24.611 153.397 26.2291 159.33C29.3575 170.549 34.4277 185.652 37.3403 192.34C38.4191 194.821 40.5766 196.979 43.8128 198.705L48.6672 201.294L56.0028 196.979C79.3039 183.278 97.2112 177.237 115.011 177.237C120.404 177.237 126.014 177.885 128.711 178.856C135.723 181.337 137.557 180.905 145 174.864C158.484 163.969 178.334 156.525 199.046 154.584C214.04 153.073 216.09 151.995 221.484 142.502C225.691 134.95 225.907 134.303 225.475 127.075C224.936 119.416 224.288 117.259 209.617 75.8345C205.95 65.4785 201.527 52.8571 199.801 47.7869C192.681 26.3197 184.806 5.28398 183.512 4.42098C179.628 1.93984 165.928 -0.109794 159.995 0.96896ZM173.695 15.2085C174.774 15.9636 187.287 49.1893 202.606 92.6631C206.381 103.343 210.48 114.562 211.667 117.582L213.825 122.976L203.9 123.731C181.354 125.241 152.228 136.137 139.39 147.787C135.291 151.455 135.075 151.563 131.623 150.161C129.142 149.082 122.993 148.65 109.293 148.758H90.415L78.1172 152.858C71.3211 155.123 63.554 158.359 60.7493 160.085C57.9445 161.811 55.1398 163.214 54.6004 163.214C54.061 163.214 52.7665 160.625 51.9035 157.496C41.9789 125.026 36.4773 107.55 28.2788 82.4149C19.3251 54.9067 18.7857 52.7492 20.5117 51.4547C25.3661 47.8948 39.2821 41.3144 45.6467 39.5884C55.787 36.7836 83.8346 36.7836 91.4938 39.5884C99.2608 42.3931 101.203 42.1774 105.949 37.4309C111.559 31.7135 138.743 18.0133 148.128 16.0715C155.788 14.4534 171.645 13.914 173.695 15.2085Z" fill="black"/>
<path d="M103.36 48.2188C95.2693 50.8078 88.2574 55.1228 82.7557 60.9481C75.7438 68.3915 72.9391 73.7853 71.3209 83.2783C67.2217 107.227 83.1872 129.125 107.459 133.009C127.416 136.137 148.668 124.487 155.787 106.364C159.347 97.5179 159.347 82.1995 155.895 73.4616C153.198 66.6655 145.539 57.6039 139.39 53.6125C129.358 47.3558 113.608 44.9825 103.36 48.2188ZM127.093 61.1638C139.498 66.9891 146.942 79.9342 145.539 93.5265C144.676 102.157 141.548 108.198 134.967 114.131C119.433 128.047 96.0244 122.976 85.7762 103.343C82.1085 96.1155 81.7849 84.2492 85.129 76.8058C88.3653 69.7939 93.8669 63.9686 100.124 61.1638C107.675 57.6039 119.541 57.6039 127.093 61.1638Z" fill="black"/>
<path d="M127.092 61.1641C139.498 66.9893 146.941 79.9344 145.539 93.5267C144.676 102.157 141.547 108.198 134.967 114.131C119.433 128.047 96.0239 122.977 85.7757 103.343C82.108 96.1157 81.7843 84.2494 85.1285 76.806C88.3647 69.7941 93.8664 63.9688 100.123 61.1641C107.674 57.6042 119.541 57.6042 127.092 61.1641Z" fill="#FFF3DC"/>
<path d="M127.725 81.5215C130.732 82.1058 131.994 85.7147 130.005 88.0447L116.123 104.31C114.116 106.663 110.312 105.944 109.3 103.021L102.268 82.692C101.261 79.7797 103.787 76.87 106.812 77.4578L127.725 81.5215Z" fill="#FFF3DC"/>
</svg>
