<svg width="1790" height="1826" viewBox="0 0 1790 1826" fill="none" xmlns="http://www.w3.org/2000/svg">
<path d="M1768.69 1736.86C1768.69 1786.05 1381.57 1825.9 903.964 1825.9C426.361 1825.9 39.2388 1786.05 39.2388 1736.86C39.2388 1687.68 426.361 1647.82 903.964 1647.82C1381.57 1647.82 1768.69 1687.89 1768.69 1736.86Z" fill="black"/>
<path d="M18.7007 1593.88L240.038 1592.84L461.332 1592.44L903.963 1591.75L1346.59 1592.44L1567.89 1592.84L1789.18 1593.88L1567.89 1594.97L1346.59 1595.37L903.963 1596.06L461.332 1595.37L240.038 1594.97L18.7007 1593.88Z" fill="#263238"/>
<path d="M1666.39 367.195H785.359V1736.91H1666.39V367.195Z" fill="#00E340"/>
<path d="M1602.55 367.195H721.521V1736.91H1602.55V367.195Z" fill="#00E340"/>
<path opacity="0.1" d="M1602.55 367.195H721.521V1736.91H1602.55V367.195Z" fill="#181818"/>
<path d="M958.775 716.644H789.371V886.048H958.775V716.644Z" fill="#097728"/>
<path d="M1150.72 716.644H981.318V886.048H1150.72V716.644Z" fill="#097728"/>
<path d="M1342.71 716.644H1173.31V886.048H1342.71V716.644Z" fill="#00E340"/>
<path d="M1534.66 716.644H1365.26V886.048H1534.66V716.644Z" fill="#00E340"/>
<path d="M958.775 910.946H789.371V1080.35H958.775V910.946Z" fill="#097728"/>
<path d="M1150.72 910.946H981.318V1080.35H1150.72V910.946Z" fill="#097728"/>
<path d="M1342.71 910.946H1173.31V1080.35H1342.71V910.946Z" fill="#097728"/>
<path d="M1534.66 912.167H1365.26V1081.57H1534.66V912.167Z" fill="#097728"/>
<path d="M958.775 1105.25H789.371V1274.65H958.775V1105.25Z" fill="#097728"/>
<path d="M1150.72 1105.25H981.318V1274.65H1150.72V1105.25Z" fill="#097728"/>
<path d="M1342.71 1105.25H1173.31V1274.65H1342.71V1105.25Z" fill="#097728"/>
<path d="M1534.66 1105.25H1365.26V1274.65H1534.66V1105.25Z" fill="#097728"/>
<path d="M958.775 1299.55H789.371V1468.96H958.775V1299.55Z" fill="#097728"/>
<path d="M1150.72 1299.55H981.318V1468.96H1150.72V1299.55Z" fill="#097728"/>
<path d="M1342.71 1299.55H1173.31V1468.96H1342.71V1299.55Z" fill="#097728"/>
<path d="M1534.66 1299.55H1365.26V1468.96H1534.66V1299.55Z" fill="#097728"/>
<path d="M958.775 1493.85H789.371V1663.26H958.775V1493.85Z" fill="#097728"/>
<path d="M1150.72 1493.85H981.318V1663.26H1150.72V1493.85Z" fill="#097728"/>
<path d="M1342.71 1493.85H1173.31V1663.26H1342.71V1493.85Z" fill="#097728"/>
<path d="M1534.66 1493.85H1365.26V1663.26H1534.66V1493.85Z" fill="#097728"/>
<path d="M848.891 784.885C848.796 783.279 849.028 781.67 849.573 780.156C850.118 778.642 850.964 777.254 852.061 776.076C853.157 774.898 854.481 773.955 855.952 773.303C857.423 772.651 859.011 772.304 860.62 772.283C862.21 772.304 863.78 772.647 865.233 773.293C866.686 773.939 867.993 774.873 869.073 776.04C870.154 777.206 870.987 778.58 871.52 780.078C872.053 781.576 872.276 783.167 872.176 784.754C872.27 786.363 872.038 787.974 871.493 789.49C870.949 791.007 870.104 792.397 869.008 793.579C867.912 794.76 866.589 795.707 865.117 796.364C863.646 797.021 862.057 797.373 860.446 797.399C858.854 797.373 857.284 797.024 855.83 796.374C854.377 795.723 853.071 794.785 851.991 793.615C850.91 792.445 850.079 791.068 849.546 789.568C849.013 788.067 848.79 786.474 848.891 784.885ZM865.897 784.885C865.897 780.961 863.629 777.69 860.446 777.69C857.263 777.69 855.17 780.961 855.17 784.754C855.17 788.809 857.437 791.949 860.62 791.949C863.803 791.949 865.897 788.679 865.897 784.885ZM857.176 817.807L889.574 773.591C889.82 773.182 890.174 772.847 890.596 772.624C891.019 772.401 891.495 772.298 891.972 772.327C892.337 772.321 892.698 772.388 893.037 772.523C893.375 772.659 893.683 772.86 893.943 773.116C894.203 773.371 894.409 773.676 894.55 774.012C894.69 774.349 894.763 774.709 894.763 775.074C894.748 775.732 894.535 776.37 894.152 776.905L861.754 821.12C861.482 821.515 861.117 821.837 860.691 822.058C860.265 822.279 859.792 822.391 859.312 822.385C858.95 822.391 858.59 822.324 858.254 822.188C857.918 822.052 857.613 821.85 857.357 821.594C857.1 821.337 856.898 821.032 856.762 820.696C856.626 820.36 856.559 820 856.565 819.638C856.522 818.997 856.674 818.359 857.001 817.807H857.176ZM878.978 810.132C878.883 808.526 879.116 806.917 879.661 805.403C880.205 803.889 881.052 802.501 882.148 801.323C883.244 800.145 884.568 799.202 886.039 798.55C887.51 797.898 889.099 797.551 890.708 797.53C892.296 797.557 893.862 797.905 895.312 798.552C896.763 799.2 898.067 800.135 899.146 801.3C900.226 802.465 901.059 803.837 901.594 805.332C902.13 806.827 902.357 808.416 902.263 810.001C902.357 811.606 902.126 813.214 901.585 814.727C901.043 816.241 900.201 817.63 899.11 818.81C898.019 819.991 896.701 820.939 895.235 821.599C893.768 822.258 892.184 822.614 890.577 822.647C888.961 822.655 887.36 822.333 885.874 821.698C884.388 821.064 883.047 820.132 881.936 818.959C880.824 817.786 879.965 816.397 879.411 814.879C878.857 813.361 878.621 811.745 878.716 810.132H878.978ZM895.984 810.132C895.984 806.208 893.716 802.937 890.577 802.937C887.437 802.937 885.257 806.208 885.257 810.001C885.257 814.056 887.524 817.196 890.708 817.196C893.891 817.196 895.722 813.926 895.722 810.132H895.984Z" fill="#EBEBEB"/>
<path d="M1215.08 796.658C1215.21 789.88 1217.99 783.421 1222.82 778.668C1227.66 773.915 1234.16 771.247 1240.94 771.237C1246.85 771.189 1252.59 773.141 1257.25 776.775C1258.01 777.458 1258.48 778.402 1258.57 779.418C1258.66 780.433 1258.37 781.446 1257.74 782.255C1257.12 783.063 1256.22 783.608 1255.21 783.78C1254.21 783.952 1253.18 783.74 1252.32 783.184C1249.1 780.603 1245.07 779.23 1240.94 779.304C1236.22 779.33 1231.69 781.136 1228.25 784.362C1224.98 787.618 1223.13 792.04 1223.11 796.658C1223.1 798.941 1223.55 801.202 1224.44 803.307C1225.32 805.411 1226.62 807.317 1228.25 808.911C1231.69 812.149 1236.22 813.971 1240.94 814.013C1245.07 814.079 1249.09 812.707 1252.32 810.132C1253.19 809.564 1254.24 809.327 1255.27 809.463C1256.3 809.599 1257.25 810.099 1257.95 810.873C1258.53 811.744 1258.78 812.797 1258.65 813.838C1258.53 814.879 1258.03 815.839 1257.25 816.542C1252.58 820.142 1246.84 822.076 1240.94 822.036C1234.16 822.06 1227.64 819.409 1222.8 814.658C1217.96 809.907 1215.19 803.44 1215.08 796.658Z" fill="#EBEBEB"/>
<path d="M1271.64 818.155V776.556C1271.63 776.043 1271.72 775.533 1271.91 775.057C1272.1 774.581 1272.39 774.148 1272.75 773.785C1273.11 773.423 1273.54 773.137 1274.02 772.946C1274.5 772.756 1275.01 772.663 1275.52 772.675H1298.54C1299.51 772.777 1300.4 773.233 1301.05 773.953C1301.7 774.674 1302.05 775.609 1302.05 776.578C1302.05 777.547 1301.7 778.482 1301.05 779.203C1300.4 779.923 1299.51 780.379 1298.54 780.481H1279.44V793.562H1295.88C1296.92 793.562 1297.92 793.975 1298.66 794.711C1299.39 795.447 1299.81 796.446 1299.81 797.486C1299.81 798.527 1299.39 799.525 1298.66 800.261C1297.92 800.997 1296.92 801.411 1295.88 801.411H1279.44V814.492H1298.54C1299.58 814.526 1300.56 814.957 1301.28 815.697C1302 816.436 1302.41 817.426 1302.42 818.46C1302.4 819.483 1301.99 820.457 1301.26 821.18C1300.54 821.903 1299.56 822.319 1298.54 822.341H1275.69C1275.14 822.375 1274.59 822.289 1274.07 822.089C1273.56 821.888 1273.09 821.579 1272.7 821.181C1272.32 820.783 1272.02 820.307 1271.84 819.785C1271.66 819.262 1271.59 818.706 1271.64 818.155Z" fill="#EBEBEB"/>
<path d="M1427.96 796.658C1428.09 789.88 1430.87 783.421 1435.7 778.668C1440.53 773.915 1447.04 771.247 1453.82 771.237C1459.72 771.189 1465.47 773.141 1470.13 776.775C1470.88 777.458 1471.35 778.402 1471.45 779.418C1471.54 780.433 1471.24 781.446 1470.62 782.255C1470 783.063 1469.1 783.608 1468.09 783.78C1467.09 783.952 1466.06 783.74 1465.2 783.184C1461.97 780.609 1457.95 779.237 1453.82 779.304C1449.1 779.33 1444.57 781.136 1441.13 784.362C1437.85 787.618 1436 792.04 1435.98 796.658C1435.98 798.941 1436.43 801.202 1437.31 803.307C1438.2 805.411 1439.5 807.317 1441.13 808.911C1444.57 812.149 1449.1 813.971 1453.82 814.013C1457.95 814.072 1461.97 812.701 1465.2 810.132C1466.07 809.564 1467.12 809.327 1468.15 809.463C1469.18 809.599 1470.13 810.099 1470.82 810.873C1471.41 811.744 1471.66 812.797 1471.53 813.838C1471.4 814.879 1470.91 815.839 1470.13 816.542C1465.45 820.133 1459.71 822.066 1453.82 822.036C1447.04 822.06 1440.52 819.409 1435.68 814.658C1430.84 809.907 1428.06 803.44 1427.96 796.658Z" fill="#EBEBEB"/>
<path d="M889.53 976.178L872.089 1017.86C871.809 1018.58 871.316 1019.19 870.675 1019.61C870.035 1020.03 869.279 1020.24 868.513 1020.22C868.003 1020.22 867.499 1020.12 867.03 1019.91C866.091 1019.51 865.344 1018.76 864.946 1017.81C864.548 1016.87 864.529 1015.81 864.894 1014.86L880.155 978.664H861.929C860.895 978.63 859.914 978.199 859.191 977.459C858.468 976.72 858.059 975.73 858.048 974.696C858.048 973.667 858.457 972.68 859.185 971.952C859.912 971.224 860.899 970.815 861.929 970.815H886.129C886.36 970.775 886.596 970.775 886.827 970.815C887.344 970.939 887.842 971.129 888.31 971.382V971.6C888.31 971.6 888.528 971.6 888.571 971.862C888.615 972.123 888.789 972.08 888.876 972.167C888.964 972.254 888.876 972.385 888.876 972.429V972.777L889.138 973.17C889.138 973.17 889.138 973.431 889.138 973.519C889.163 973.634 889.163 973.752 889.138 973.867C889.228 974.372 889.228 974.889 889.138 975.394C889.321 975.626 889.454 975.893 889.53 976.178Z" fill="#EBEBEB"/>
<path d="M1081.43 1003.3C1081.44 1006.22 1080.69 1009.1 1079.26 1011.64C1077.82 1014.19 1075.75 1016.31 1073.24 1017.82C1070.74 1019.32 1067.89 1020.15 1064.96 1020.22C1062.04 1020.29 1059.15 1019.6 1056.58 1018.22C1054.01 1016.84 1051.83 1014.81 1050.28 1012.34C1048.72 1009.86 1047.83 1007.03 1047.7 1004.11C1047.57 1001.19 1048.2 998.288 1049.53 995.685C1050.85 993.082 1052.83 990.868 1055.27 989.26C1054.17 987.783 1053.43 986.065 1053.13 984.248C1052.82 982.431 1052.94 980.567 1053.5 978.809C1054.05 977.051 1055.01 975.449 1056.3 974.135C1057.59 972.821 1059.18 971.832 1060.93 971.25C1062.68 970.669 1064.54 970.51 1066.36 970.789C1068.18 971.067 1069.91 971.774 1071.41 972.851C1072.9 973.928 1074.12 975.345 1074.96 976.984C1075.8 978.624 1076.24 980.44 1076.25 982.283C1076.25 984.805 1075.42 987.258 1073.89 989.26C1076.21 990.8 1078.1 992.887 1079.42 995.336C1080.74 997.785 1081.43 1000.52 1081.43 1003.3ZM1073.72 1003.3C1073.72 1000.88 1072.77 998.562 1071.07 996.841C1069.37 995.119 1067.06 994.134 1064.65 994.1C1062.21 994.111 1059.87 995.083 1058.14 996.805C1056.41 998.527 1055.43 1000.86 1055.4 1003.3C1055.44 1005.73 1056.43 1008.04 1058.16 1009.74C1059.89 1011.44 1062.22 1012.38 1064.65 1012.37C1067.05 1012.37 1069.36 1011.41 1071.06 1009.71C1072.76 1008.01 1073.72 1005.71 1073.72 1003.3ZM1060.64 982.283C1060.64 983.335 1061.05 984.345 1061.8 985.089C1062.54 985.833 1063.55 986.251 1064.6 986.251C1065.66 986.251 1066.66 985.833 1067.41 985.089C1068.15 984.345 1068.57 983.335 1068.57 982.283C1068.56 981.257 1068.15 980.277 1067.42 979.552C1066.7 978.826 1065.72 978.414 1064.69 978.402C1064.15 978.385 1063.62 978.476 1063.12 978.67C1062.62 978.864 1062.17 979.157 1061.78 979.532C1061.4 979.907 1061.1 980.356 1060.89 980.851C1060.69 981.346 1060.59 981.878 1060.59 982.414L1060.64 982.283Z" fill="#EBEBEB"/>
<path d="M1240.02 987.908C1240.11 983.575 1241.84 979.435 1244.85 976.322C1247.87 973.21 1251.95 971.357 1256.28 971.136C1260.61 970.914 1264.86 972.342 1268.18 975.131C1271.5 977.919 1273.64 981.862 1274.17 986.164C1274.17 987.472 1274.17 988.824 1274.17 990.176C1274.22 995.098 1273.38 999.989 1271.68 1004.61C1269.99 1009.49 1266.8 1013.72 1262.57 1016.69C1259.43 1018.76 1255.78 1019.91 1252.02 1020C1251.5 1020.02 1250.99 1019.95 1250.5 1019.77C1250.02 1019.59 1249.57 1019.32 1249.19 1018.98C1248.81 1018.63 1248.5 1018.21 1248.28 1017.74C1248.06 1017.27 1247.94 1016.77 1247.92 1016.25C1247.9 1015.22 1248.29 1014.22 1249 1013.46C1249.71 1012.71 1250.68 1012.25 1251.71 1012.2C1254.06 1012.14 1256.35 1011.44 1258.34 1010.19C1260.17 1008.93 1261.67 1007.24 1262.7 1005.26C1263.06 1004.68 1263.36 1004.07 1263.62 1003.43C1261.49 1004.37 1259.18 1004.84 1256.86 1004.83C1252.39 1004.77 1248.13 1002.97 1244.99 999.804C1241.84 996.641 1240.06 992.37 1240.02 987.908ZM1247.87 987.908C1247.79 989.179 1247.96 990.453 1248.39 991.653C1248.81 992.853 1249.48 993.952 1250.35 994.883C1251.22 995.814 1252.27 996.556 1253.44 997.063C1254.61 997.57 1255.87 997.832 1257.14 997.832C1258.41 997.832 1259.67 997.57 1260.84 997.063C1262.01 996.556 1263.06 995.814 1263.93 994.883C1264.8 993.952 1265.47 992.853 1265.89 991.653C1266.32 990.453 1266.49 989.179 1266.41 987.908C1266.24 985.561 1265.2 983.362 1263.48 981.756C1261.76 980.15 1259.49 979.257 1257.14 979.257C1254.79 979.257 1252.52 980.15 1250.8 981.756C1249.08 983.362 1248.03 985.561 1247.87 987.908Z" fill="#EBEBEB"/>
<path d="M1434.81 996.891C1434.81 995.734 1435.27 994.625 1436.08 993.807C1436.9 992.99 1438.01 992.53 1439.17 992.53H1460.97C1461.89 992.781 1462.71 993.329 1463.29 994.09C1463.87 994.85 1464.19 995.781 1464.19 996.738C1464.19 997.695 1463.87 998.626 1463.29 999.386C1462.71 1000.15 1461.89 1000.69 1460.97 1000.95H1439.17C1438.06 1000.95 1437 1000.53 1436.19 999.779C1435.38 999.026 1434.88 997.994 1434.81 996.891Z" fill="#EBEBEB"/>
<path d="M892.975 1200.18C892.975 1200.69 892.872 1201.2 892.671 1201.68C892.471 1202.16 892.177 1202.59 891.808 1202.95C891.438 1203.31 891 1203.6 890.519 1203.79C890.038 1203.98 889.524 1204.07 889.007 1204.06H888.309V1209.42C888.309 1210.45 887.9 1211.44 887.173 1212.16C886.445 1212.89 885.458 1213.3 884.428 1213.3C883.399 1213.3 882.412 1212.89 881.684 1212.16C880.957 1211.44 880.548 1210.45 880.548 1209.42V1203.88H858.353C857.47 1203.92 856.608 1203.61 855.955 1203.01C855.545 1202.71 855.202 1202.32 854.945 1201.88C854.689 1201.44 854.525 1200.95 854.464 1200.45C854.403 1199.94 854.446 1199.43 854.589 1198.94C854.733 1198.45 854.975 1198 855.301 1197.6L881.463 1165.16V1164.86C881.589 1164.88 881.718 1164.87 881.839 1164.83C881.961 1164.8 882.071 1164.73 882.161 1164.64C882.161 1164.64 882.161 1164.64 882.423 1164.42C882.684 1164.2 882.423 1164.42 882.859 1164.42C883.295 1164.42 882.859 1164.2 883.12 1164.2H883.556C883.655 1164.24 883.763 1164.24 883.862 1164.2H885.039C885.152 1164.24 885.275 1164.24 885.388 1164.2C885.388 1164.2 885.693 1164.2 885.824 1164.2H886.085L886.478 1164.46C886.478 1164.46 886.478 1164.46 886.827 1164.68H887.045L887.35 1164.99V1165.25C887.472 1165.35 887.575 1165.46 887.655 1165.6C887.622 1165.7 887.622 1165.8 887.655 1165.9C887.687 1166.03 887.687 1166.17 887.655 1166.3C887.655 1166.3 887.655 1166.51 887.655 1166.6C887.702 1166.73 887.702 1166.87 887.655 1166.99C887.655 1166.99 887.655 1167.21 887.655 1167.39V1196.08H888.353C888.938 1195.97 889.541 1196 890.114 1196.16C890.687 1196.32 891.216 1196.61 891.662 1197C892.107 1197.4 892.457 1197.89 892.684 1198.44C892.912 1198.99 893.011 1199.58 892.975 1200.18ZM880.548 1178.85L866.507 1196.3H880.548V1178.85Z" fill="#EBEBEB"/>
<path d="M1075.33 1183.39C1076.97 1185.02 1078.27 1186.95 1079.15 1189.09C1080.03 1191.22 1080.48 1193.51 1080.48 1195.82C1080.46 1200.47 1078.61 1204.94 1075.33 1208.24C1073.71 1209.87 1071.79 1211.16 1069.67 1212.04C1067.55 1212.93 1065.28 1213.38 1062.99 1213.39C1060.71 1213.39 1058.45 1212.94 1056.34 1212.06C1054.24 1211.17 1052.33 1209.88 1050.74 1208.24C1050.35 1207.88 1050.05 1207.44 1049.84 1206.95C1049.63 1206.46 1049.53 1205.94 1049.53 1205.41C1049.53 1204.88 1049.63 1204.35 1049.84 1203.87C1050.05 1203.38 1050.35 1202.94 1050.74 1202.57C1051.49 1201.84 1052.5 1201.42 1053.55 1201.42C1054.6 1201.42 1055.61 1201.84 1056.36 1202.57C1057.24 1203.47 1058.29 1204.19 1059.44 1204.67C1060.6 1205.16 1061.84 1205.41 1063.1 1205.41C1064.35 1205.41 1065.6 1205.16 1066.75 1204.67C1067.91 1204.19 1068.96 1203.47 1069.84 1202.57C1071.62 1200.81 1072.64 1198.41 1072.67 1195.9C1072.67 1193.38 1071.67 1190.96 1069.89 1189.17C1068.11 1187.38 1065.69 1186.36 1063.16 1186.35C1061.91 1186.34 1060.66 1186.58 1059.49 1187.05C1058.32 1187.52 1057.26 1188.22 1056.36 1189.1C1055.99 1189.47 1055.55 1189.76 1055.07 1189.97C1054.59 1190.17 1054.07 1190.27 1053.55 1190.27C1053.03 1190.27 1052.51 1190.17 1052.03 1189.97C1051.54 1189.76 1051.11 1189.47 1050.74 1189.1C1050.43 1188.84 1050.26 1188.49 1049.95 1188.18C1049.65 1187.88 1049.95 1187.97 1049.95 1187.97C1049.99 1187.85 1049.99 1187.73 1049.95 1187.62C1049.95 1187.4 1049.95 1187.27 1049.95 1187.14C1049.86 1186.74 1049.86 1186.32 1049.95 1185.92L1052.09 1167.65C1052.17 1167.09 1052.36 1166.55 1052.66 1166.07C1052.97 1165.59 1053.36 1165.17 1053.83 1164.86C1053.83 1164.86 1054.05 1164.86 1054.09 1164.86C1054.14 1164.86 1054.09 1164.86 1054.31 1164.86C1054.88 1164.58 1055.51 1164.43 1056.14 1164.42H1076.99C1077.55 1164.36 1078.11 1164.42 1078.65 1164.6C1079.18 1164.77 1079.67 1165.05 1080.09 1165.43C1080.51 1165.81 1080.84 1166.27 1081.07 1166.78C1081.3 1167.29 1081.42 1167.85 1081.42 1168.41C1081.42 1168.97 1081.3 1169.53 1081.07 1170.04C1080.84 1170.55 1080.51 1171.01 1080.09 1171.39C1079.67 1171.77 1079.18 1172.05 1078.65 1172.22C1078.11 1172.4 1077.55 1172.46 1076.99 1172.4H1059.54L1058.67 1179.38C1060.23 1178.98 1061.82 1178.78 1063.43 1178.77C1067.84 1178.75 1072.09 1180.4 1075.33 1183.39Z" fill="#EBEBEB"/>
<path d="M1274.25 1196.21C1274.18 1200.54 1272.46 1204.69 1269.45 1207.81C1266.43 1210.93 1262.35 1212.79 1258.02 1213.02C1253.69 1213.24 1249.43 1211.82 1246.11 1209.03C1242.78 1206.24 1240.64 1202.3 1240.11 1198C1240.11 1196.69 1240.11 1195.34 1240.11 1193.98C1240.06 1189.07 1240.89 1184.18 1242.55 1179.55C1244.26 1174.67 1247.45 1170.45 1251.67 1167.47C1254.82 1165.4 1258.49 1164.25 1262.26 1164.16C1262.78 1164.13 1263.29 1164.21 1263.77 1164.39C1264.25 1164.57 1264.7 1164.84 1265.07 1165.19C1265.45 1165.53 1265.76 1165.95 1265.97 1166.42C1266.18 1166.89 1266.3 1167.39 1266.32 1167.91C1266.32 1168.94 1265.93 1169.94 1265.23 1170.7C1264.52 1171.46 1263.56 1171.93 1262.53 1172.01C1260.18 1172.03 1257.88 1172.71 1255.9 1173.97C1254.09 1175.26 1252.6 1176.95 1251.54 1178.9C1251.19 1179.46 1250.93 1180.12 1250.62 1180.73C1252.75 1179.79 1255.05 1179.32 1257.38 1179.33C1261.83 1179.4 1266.09 1181.2 1269.24 1184.35C1272.39 1187.5 1274.19 1191.75 1274.25 1196.21ZM1266.41 1196.21C1266.49 1194.94 1266.32 1193.66 1265.89 1192.46C1265.47 1191.26 1264.8 1190.16 1263.93 1189.23C1263.06 1188.3 1262.01 1187.56 1260.84 1187.05C1259.67 1186.55 1258.41 1186.28 1257.14 1186.28C1255.87 1186.28 1254.61 1186.55 1253.44 1187.05C1252.27 1187.56 1251.22 1188.3 1250.35 1189.23C1249.48 1190.16 1248.81 1191.26 1248.39 1192.46C1247.96 1193.66 1247.79 1194.94 1247.87 1196.21C1248.04 1198.56 1249.08 1200.75 1250.8 1202.36C1252.52 1203.97 1254.79 1204.86 1257.14 1204.86C1259.49 1204.86 1261.76 1203.97 1263.48 1202.36C1265.2 1200.75 1266.24 1198.56 1266.41 1196.21Z" fill="#EBEBEB"/>
<path d="M1436.29 1192.11C1435.32 1192.11 1434.39 1191.72 1433.7 1191.04C1433.01 1190.35 1432.63 1189.42 1432.63 1188.45C1432.63 1187.47 1433.01 1186.54 1433.7 1185.86C1434.39 1185.17 1435.32 1184.78 1436.29 1184.78H1464.81C1465.78 1184.78 1466.71 1185.17 1467.4 1185.86C1468.08 1186.54 1468.47 1187.47 1468.47 1188.45C1468.47 1189.42 1468.08 1190.35 1467.4 1191.04C1466.71 1191.72 1465.78 1192.11 1464.81 1192.11H1436.29ZM1455.39 1173.58V1173.93C1455.27 1175.14 1454.71 1176.26 1453.81 1177.08C1452.91 1177.9 1451.74 1178.35 1450.53 1178.35C1449.31 1178.35 1448.14 1177.9 1447.24 1177.08C1446.34 1176.26 1445.78 1175.14 1445.66 1173.93V1173.58C1445.78 1172.37 1446.34 1171.24 1447.24 1170.43C1448.14 1169.61 1449.31 1169.15 1450.53 1169.15C1451.74 1169.15 1452.91 1169.61 1453.81 1170.43C1454.71 1171.24 1455.27 1172.37 1455.39 1173.58ZM1455.39 1202.97V1203.36C1455.27 1204.57 1454.71 1205.69 1453.81 1206.51C1452.91 1207.33 1451.74 1207.78 1450.53 1207.78C1449.31 1207.78 1448.14 1207.33 1447.24 1206.51C1446.34 1205.69 1445.78 1204.57 1445.66 1203.36V1202.97C1445.78 1201.76 1446.34 1200.63 1447.24 1199.82C1448.14 1199 1449.31 1198.54 1450.53 1198.54C1451.74 1198.54 1452.91 1199 1453.81 1199.82C1454.71 1200.63 1455.27 1201.76 1455.39 1202.97Z" fill="#EBEBEB"/>
<path d="M881.507 1362.08V1403.72C881.502 1404.24 881.394 1404.75 881.192 1405.22C880.989 1405.7 880.696 1406.12 880.327 1406.49C879.959 1406.85 879.523 1407.13 879.044 1407.32C878.566 1407.51 878.055 1407.61 877.539 1407.6C877.03 1407.61 876.525 1407.51 876.054 1407.32C875.582 1407.13 875.155 1406.84 874.797 1406.48C874.439 1406.12 874.157 1405.69 873.969 1405.21C873.781 1404.74 873.69 1404.23 873.702 1403.72V1368.84L870.868 1370.45C870.285 1370.83 869.602 1371.03 868.906 1371.02C868.06 1371.01 867.241 1370.72 866.57 1370.21C865.899 1369.7 865.412 1368.98 865.182 1368.16C864.951 1367.35 864.99 1366.48 865.292 1365.7C865.593 1364.91 866.142 1364.23 866.856 1363.78L875.577 1358.59H875.839C875.839 1358.59 876.057 1358.59 876.188 1358.37H876.624C876.624 1358.37 876.842 1358.37 876.885 1358.37C877.057 1358.33 877.237 1358.33 877.408 1358.37H878.15C878.248 1358.41 878.356 1358.41 878.455 1358.37C878.673 1358.37 878.717 1358.37 878.891 1358.37C878.975 1358.34 879.069 1358.34 879.153 1358.37C879.153 1358.37 879.458 1358.59 879.589 1358.59L879.85 1358.81L880.156 1359.03C880.272 1359.08 880.365 1359.17 880.417 1359.29V1359.55L880.722 1359.86C880.722 1359.86 880.722 1359.86 880.722 1360.07C880.722 1360.29 880.722 1360.29 880.722 1360.42C880.722 1360.55 880.722 1360.73 880.722 1360.77C880.712 1360.89 880.712 1361.01 880.722 1361.12C880.659 1361.29 880.659 1361.48 880.722 1361.64L881.507 1362.08Z" fill="#EBEBEB"/>
<path d="M1081.7 1403.72C1081.7 1404.23 1081.61 1404.74 1081.41 1405.21C1081.22 1405.69 1080.93 1406.12 1080.57 1406.48C1080.21 1406.84 1079.78 1407.13 1079.31 1407.32C1078.83 1407.51 1078.33 1407.61 1077.82 1407.6H1052.7C1052.16 1407.61 1051.62 1407.5 1051.12 1407.28C1050.63 1407.06 1050.18 1406.74 1049.82 1406.34C1049.12 1405.57 1048.74 1404.56 1048.79 1403.53C1048.83 1402.49 1049.28 1401.51 1050.04 1400.8L1070.93 1381.92C1072.29 1380.68 1073.25 1379.06 1073.68 1377.27C1074.11 1375.47 1073.98 1373.59 1073.31 1371.87C1072.64 1370.15 1071.47 1368.67 1069.95 1367.63C1068.43 1366.59 1066.62 1366.04 1064.78 1366.05C1062.52 1366.06 1060.34 1366.88 1058.63 1368.36L1056.45 1370.37C1055.67 1370.94 1054.69 1371.21 1053.73 1371.11C1052.76 1371.01 1051.86 1370.56 1051.2 1369.84C1050.55 1369.11 1050.19 1368.17 1050.19 1367.2C1050.2 1366.22 1050.56 1365.29 1051.22 1364.57L1053.4 1362.6C1056.51 1359.78 1060.57 1358.22 1064.78 1358.24C1067.14 1358.25 1069.48 1358.75 1071.65 1359.71C1073.81 1360.67 1075.75 1362.07 1077.34 1363.82C1080.17 1366.93 1081.73 1371 1081.7 1375.21C1081.69 1377.57 1081.19 1379.91 1080.23 1382.07C1079.27 1384.24 1077.87 1386.17 1076.12 1387.76L1062.82 1399.8H1077.82C1078.85 1399.81 1079.84 1400.23 1080.56 1400.96C1081.29 1401.7 1081.7 1402.69 1081.7 1403.72Z" fill="#EBEBEB"/>
<path d="M1267.8 1377.6C1269.44 1379.21 1270.74 1381.13 1271.63 1383.25C1272.51 1385.37 1272.96 1387.65 1272.95 1389.94C1272.98 1393.42 1271.98 1396.83 1270.07 1399.73C1268.15 1402.64 1265.42 1404.9 1262.21 1406.24C1259 1407.57 1255.46 1407.92 1252.05 1407.23C1248.64 1406.54 1245.52 1404.85 1243.08 1402.37C1242.33 1401.62 1241.91 1400.61 1241.91 1399.56C1241.91 1398.5 1242.33 1397.49 1243.08 1396.75C1243.82 1396 1244.84 1395.58 1245.89 1395.58C1246.94 1395.58 1247.96 1396 1248.7 1396.75C1249.58 1397.63 1250.63 1398.32 1251.78 1398.8C1252.94 1399.27 1254.17 1399.5 1255.42 1399.49C1257.94 1399.49 1260.37 1398.5 1262.18 1396.75C1263.08 1395.86 1263.8 1394.8 1264.28 1393.63C1264.77 1392.46 1265.02 1391.21 1265.01 1389.94C1265.02 1388.7 1264.77 1387.46 1264.29 1386.31C1263.8 1385.17 1263.08 1384.13 1262.18 1383.27C1261.3 1382.38 1260.26 1381.67 1259.1 1381.18C1257.95 1380.7 1256.71 1380.44 1255.46 1380.44C1254.92 1380.47 1254.37 1380.37 1253.87 1380.15C1253.37 1379.93 1252.93 1379.6 1252.58 1379.17C1252.21 1378.8 1251.92 1378.37 1251.72 1377.88C1251.52 1377.4 1251.41 1376.88 1251.41 1376.36C1251.41 1375.84 1251.52 1375.32 1251.72 1374.84C1251.92 1374.36 1252.21 1373.92 1252.58 1373.55L1259.78 1366.22H1248.35C1247.83 1366.22 1247.31 1366.11 1246.82 1365.9C1246.34 1365.69 1245.9 1365.39 1245.53 1365.02C1245.16 1364.64 1244.87 1364.19 1244.67 1363.71C1244.48 1363.22 1244.38 1362.69 1244.39 1362.17C1244.39 1361.65 1244.49 1361.13 1244.69 1360.66C1244.89 1360.18 1245.18 1359.74 1245.55 1359.38C1245.92 1359.01 1246.36 1358.72 1246.84 1358.53C1247.32 1358.33 1247.83 1358.24 1248.35 1358.24H1269.15C1269.84 1358.24 1270.52 1358.41 1271.12 1358.75C1271.72 1359.08 1272.23 1359.57 1272.58 1360.16C1272.94 1360.75 1273.14 1361.42 1273.15 1362.11C1273.17 1362.8 1273.01 1363.48 1272.69 1364.09C1272.48 1364.44 1272.24 1364.77 1271.99 1365.09L1263.27 1374.25C1264.97 1375.08 1266.51 1376.22 1267.8 1377.6Z" fill="#EBEBEB"/>
<path d="M1462.1 1378.52L1453.38 1390.12L1461.75 1401.76C1462.32 1402.53 1462.56 1403.49 1462.43 1404.43C1462.3 1405.38 1461.81 1406.23 1461.06 1406.82C1460.4 1407.3 1459.61 1407.58 1458.79 1407.6C1457.59 1407.5 1456.48 1406.94 1455.69 1406.03L1449.02 1396.4L1441.96 1406.03C1441.61 1406.49 1441.17 1406.87 1440.67 1407.14C1440.17 1407.41 1439.61 1407.57 1439.04 1407.6C1438.23 1407.58 1437.45 1407.31 1436.81 1406.82C1436.42 1406.55 1436.09 1406.2 1435.83 1405.79C1435.58 1405.38 1435.41 1404.93 1435.34 1404.46C1435.26 1403.98 1435.29 1403.5 1435.4 1403.04C1435.52 1402.57 1435.74 1402.14 1436.03 1401.76L1444.49 1390.12L1435.94 1378.52C1435.65 1378.15 1435.44 1377.72 1435.32 1377.26C1435.2 1376.81 1435.18 1376.33 1435.25 1375.86C1435.33 1375.4 1435.5 1374.95 1435.75 1374.55C1436 1374.15 1436.34 1373.81 1436.73 1373.55C1437.11 1373.26 1437.55 1373.05 1438.02 1372.93C1438.49 1372.81 1438.97 1372.78 1439.45 1372.85C1439.93 1372.92 1440.39 1373.08 1440.81 1373.33C1441.22 1373.57 1441.58 1373.9 1441.87 1374.29L1448.94 1383.75L1455.96 1374.29C1456.59 1373.51 1457.5 1373 1458.49 1372.86C1459.49 1372.72 1460.5 1372.97 1461.32 1373.55C1462.08 1374.11 1462.59 1374.94 1462.73 1375.87C1462.88 1376.8 1462.65 1377.75 1462.1 1378.52Z" fill="#EBEBEB"/>
<path d="M876.972 1591.96C878.368 1591.98 879.703 1592.54 880.69 1593.52C881.677 1594.51 882.237 1595.84 882.248 1597.24C882.237 1598.63 881.676 1599.96 880.687 1600.94C879.699 1601.92 878.364 1602.47 876.972 1602.47C876.283 1602.48 875.6 1602.35 874.963 1602.09C874.325 1601.83 873.746 1601.44 873.259 1600.95C872.772 1600.47 872.387 1599.89 872.126 1599.25C871.865 1598.61 871.734 1597.93 871.739 1597.24C871.739 1595.85 872.289 1594.51 873.269 1593.53C874.249 1592.54 875.58 1591.98 876.972 1591.96Z" fill="#EBEBEB"/>
<path d="M1045.59 1577.23C1045.5 1571.25 1047.17 1565.39 1050.39 1560.35C1051.66 1557.99 1053.55 1556.02 1055.85 1554.65C1058.16 1553.28 1060.79 1552.55 1063.47 1552.55C1066.15 1552.55 1068.78 1553.28 1071.08 1554.65C1073.39 1556.02 1075.28 1557.99 1076.55 1560.35C1079.63 1565.43 1081.26 1571.26 1081.26 1577.2C1081.26 1583.15 1079.63 1588.98 1076.55 1594.06C1075.29 1596.43 1073.4 1598.41 1071.1 1599.79C1068.79 1601.18 1066.16 1601.91 1063.47 1601.91C1060.78 1601.91 1058.15 1601.18 1055.84 1599.79C1053.54 1598.41 1051.65 1596.43 1050.39 1594.06C1047.18 1589.04 1045.51 1583.18 1045.59 1577.23ZM1073.45 1577.23C1073.53 1572.8 1072.35 1568.45 1070.05 1564.67C1069.42 1563.45 1068.49 1562.41 1067.34 1561.65C1066.2 1560.89 1064.88 1560.42 1063.51 1560.31C1062.13 1560.45 1060.79 1560.91 1059.63 1561.67C1058.46 1562.43 1057.49 1563.46 1056.8 1564.67C1054.57 1568.46 1053.4 1572.78 1053.4 1577.18C1053.4 1581.58 1054.57 1585.9 1056.8 1589.7C1057.49 1590.91 1058.46 1591.93 1059.63 1592.69C1060.79 1593.45 1062.13 1593.92 1063.51 1594.06C1064.88 1593.93 1066.19 1593.46 1067.33 1592.7C1068.47 1591.94 1069.41 1590.91 1070.05 1589.7C1072.34 1585.94 1073.52 1581.62 1073.45 1577.23Z" fill="#EBEBEB"/>
<path d="M1243.03 1571.99C1243.1 1570.88 1243.59 1569.84 1244.4 1569.08C1245.21 1568.32 1246.28 1567.89 1247.39 1567.89H1269.2C1269.73 1567.89 1270.26 1568 1270.76 1568.21C1271.25 1568.41 1271.7 1568.72 1272.08 1569.1C1272.46 1569.48 1272.75 1569.93 1272.96 1570.43C1273.16 1570.93 1273.26 1571.46 1273.25 1571.99C1273.26 1572.53 1273.17 1573.06 1272.97 1573.56C1272.77 1574.06 1272.47 1574.51 1272.09 1574.89C1271.71 1575.27 1271.26 1575.56 1270.76 1575.76C1270.26 1575.96 1269.73 1576.06 1269.2 1576.05H1247.39C1246.84 1576.08 1246.28 1576.01 1245.76 1575.82C1245.23 1575.63 1244.75 1575.34 1244.34 1574.96C1243.93 1574.58 1243.61 1574.12 1243.38 1573.61C1243.16 1573.1 1243.04 1572.55 1243.03 1571.99ZM1243.03 1585.07C1243.03 1583.92 1243.49 1582.81 1244.31 1581.99C1245.13 1581.17 1246.24 1580.71 1247.39 1580.71H1269.2C1270.12 1580.97 1270.94 1581.51 1271.52 1582.27C1272.1 1583.03 1272.41 1583.96 1272.41 1584.92C1272.41 1585.88 1272.1 1586.81 1271.52 1587.57C1270.94 1588.33 1270.12 1588.88 1269.2 1589.13H1247.39C1246.28 1589.13 1245.21 1588.71 1244.4 1587.95C1243.59 1587.18 1243.1 1586.14 1243.03 1585.03V1585.07Z" fill="#EBEBEB"/>
<path d="M1446.54 1580.93H1436.51C1435.48 1580.93 1434.49 1580.52 1433.76 1579.8C1433.04 1579.07 1432.63 1578.08 1432.63 1577.05C1432.65 1576.03 1433.07 1575.06 1433.79 1574.33C1434.51 1573.61 1435.49 1573.19 1436.51 1573.17H1446.54V1563.4C1446.53 1562.87 1446.62 1562.34 1446.82 1561.85C1447.01 1561.35 1447.31 1560.9 1447.68 1560.53C1448.06 1560.15 1448.5 1559.85 1449 1559.65C1449.49 1559.44 1450.02 1559.34 1450.55 1559.35C1451.62 1559.36 1452.64 1559.79 1453.39 1560.55C1454.14 1561.31 1454.56 1562.34 1454.56 1563.4V1573.17H1464.59C1465.61 1573.19 1466.59 1573.61 1467.31 1574.33C1468.03 1575.06 1468.45 1576.03 1468.47 1577.05C1468.47 1578.08 1468.06 1579.07 1467.33 1579.8C1466.61 1580.52 1465.62 1580.93 1464.59 1580.93H1454.56V1590.74C1454.56 1591.81 1454.14 1592.83 1453.39 1593.58C1452.63 1594.33 1451.61 1594.76 1450.55 1594.76C1450.02 1594.76 1449.5 1594.66 1449.01 1594.46C1448.52 1594.26 1448.07 1593.97 1447.7 1593.59C1447.33 1593.22 1447.03 1592.77 1446.83 1592.29C1446.63 1591.8 1446.53 1591.27 1446.54 1590.74V1580.93Z" fill="#EBEBEB"/>
<path d="M1090.29 777.428C1090.29 778.226 1089.97 778.992 1089.41 779.556C1088.84 780.12 1088.08 780.437 1087.28 780.437H1078.56C1074.85 790.684 1065.48 817.501 1063.43 825.088C1063.11 825.993 1062.58 826.813 1061.9 827.487C1061.33 827.976 1060.6 828.254 1059.85 828.271C1059.32 828.281 1058.79 828.177 1058.3 827.966C1057.81 827.756 1057.38 827.443 1057.02 827.051C1057.02 827.051 1047.6 817.85 1044.68 814.58C1040.32 809.957 1042.28 807.777 1042.89 807.385C1043.4 807.055 1043.98 806.859 1044.59 806.818C1045.55 806.913 1046.47 807.259 1047.25 807.821L1050.3 811.004C1051.17 811.963 1052 812.792 1052.83 813.577L1055.23 816.019L1057.93 818.722C1060.16 811.571 1070.1 783.489 1072.76 776.469C1072.99 776.097 1073.26 775.76 1073.59 775.466C1073.87 775.144 1074.22 774.884 1074.61 774.704C1075 774.524 1075.42 774.427 1075.85 774.42H1087.1C1087.51 774.396 1087.92 774.456 1088.31 774.597C1088.69 774.737 1089.05 774.955 1089.34 775.237C1089.64 775.519 1089.88 775.858 1090.04 776.235C1090.2 776.612 1090.29 777.018 1090.29 777.428Z" fill="#EBEBEB"/>
<path d="M1534.71 439.667H789.371V618.01H1534.71V439.667Z" fill="#181818"/>
<path d="M1198.21 493.126V562.588C1198.19 564.315 1197.48 565.963 1196.25 567.172C1195.01 568.381 1193.35 569.053 1191.62 569.041C1190.77 569.053 1189.93 568.894 1189.14 568.574C1188.35 568.254 1187.64 567.779 1187.03 567.177C1186.43 566.576 1185.96 565.86 1185.64 565.071C1185.32 564.283 1185.16 563.439 1185.17 562.588V504.681L1180.46 507.428C1179.47 508.047 1178.32 508.365 1177.15 508.344C1175.74 508.31 1174.38 507.825 1173.26 506.96C1172.15 506.096 1171.35 504.897 1170.97 503.54C1170.58 502.183 1170.65 500.74 1171.15 499.423C1171.65 498.105 1172.56 496.983 1173.75 496.222L1188.22 487.501C1188.22 487.501 1188.57 487.501 1188.7 487.283C1188.83 487.065 1189.05 487.021 1189.27 486.934H1189.97C1190.12 486.873 1190.29 486.873 1190.45 486.934C1190.72 486.87 1191 486.87 1191.27 486.934H1192.58C1192.58 486.934 1192.93 486.934 1193.02 486.934C1193.29 486.94 1193.55 487.032 1193.76 487.195C1193.76 487.195 1194.11 487.195 1194.2 487.195C1194.28 487.195 1194.68 487.544 1194.94 487.544C1195.04 487.703 1195.2 487.825 1195.37 487.893C1195.37 487.893 1195.77 488.155 1195.85 488.285C1195.94 488.416 1196.2 488.634 1196.33 488.722C1196.47 488.865 1196.59 489.027 1196.68 489.201L1197.16 489.681V489.899C1197.16 489.899 1197.16 490.16 1197.16 490.291C1197.16 490.422 1197.42 490.64 1197.42 490.858C1197.42 491.076 1197.42 491.338 1197.42 491.425C1197.41 491.628 1197.41 491.832 1197.42 492.035C1197.4 492.181 1197.41 492.33 1197.45 492.472C1197.48 492.614 1197.55 492.748 1197.64 492.864L1198.21 493.126Z" fill="#EBEBEB"/>
<path d="M1266.36 562.631C1266.37 563.482 1266.22 564.327 1265.9 565.115C1265.57 565.903 1265.1 566.619 1264.5 567.221C1263.9 567.822 1263.18 568.297 1262.39 568.617C1261.6 568.938 1260.76 569.097 1259.91 569.085H1217.92C1217 569.102 1216.1 568.92 1215.26 568.551C1214.43 568.182 1213.68 567.635 1213.08 566.948C1211.91 565.686 1211.3 564.014 1211.36 562.298C1211.43 560.582 1212.17 558.962 1213.43 557.791L1248.31 526.221C1249.91 524.816 1251.19 523.076 1252.05 521.125C1252.91 519.174 1253.33 517.059 1253.28 514.928C1253.29 511.152 1251.91 507.505 1249.4 504.681C1247.97 503.103 1246.22 501.848 1244.26 500.999C1242.31 500.149 1240.19 499.725 1238.06 499.753C1234.3 499.765 1230.68 501.144 1227.86 503.634L1224.2 506.948C1223.56 507.528 1222.82 507.977 1222.02 508.267C1221.21 508.558 1220.35 508.684 1219.5 508.64C1218.64 508.595 1217.8 508.38 1217.03 508.007C1216.25 507.634 1215.56 507.111 1215 506.468C1213.85 505.182 1213.25 503.493 1213.34 501.769C1213.43 500.046 1214.2 498.428 1215.48 497.268L1219.14 493.998C1224.29 489.245 1231.05 486.627 1238.06 486.672C1242.02 486.676 1245.93 487.508 1249.54 489.115C1253.15 490.723 1256.39 493.069 1259.04 496.003C1263.77 501.166 1266.37 507.927 1266.32 514.928C1266.32 518.878 1265.49 522.783 1263.89 526.395C1262.29 530.006 1259.95 533.244 1257.03 535.902L1234.79 556.003H1259.87C1260.73 556.003 1261.59 556.176 1262.38 556.51C1263.18 556.845 1263.9 557.335 1264.51 557.952C1265.11 558.57 1265.59 559.301 1265.91 560.105C1266.22 560.908 1266.38 561.767 1266.36 562.631Z" fill="#EBEBEB"/>
<path d="M1327.23 519.289C1330 521.957 1332.19 525.155 1333.69 528.691C1335.19 532.227 1335.96 536.029 1335.96 539.87C1335.97 545.655 1334.26 551.314 1331.06 556.129C1327.85 560.944 1323.29 564.698 1317.94 566.916C1312.6 569.135 1306.72 569.717 1301.05 568.589C1295.37 567.462 1290.16 564.675 1286.07 560.582C1285.45 559.966 1284.96 559.233 1284.62 558.424C1284.28 557.616 1284.11 556.749 1284.11 555.873C1284.11 554.997 1284.28 554.13 1284.62 553.322C1284.96 552.514 1285.45 551.78 1286.07 551.164C1287.33 549.928 1289.02 549.236 1290.78 549.236C1292.54 549.236 1294.23 549.928 1295.49 551.164C1296.95 552.633 1298.69 553.799 1300.61 554.592C1302.53 555.385 1304.58 555.791 1306.65 555.786C1310.88 555.779 1314.93 554.12 1317.95 551.164C1319.45 549.692 1320.64 547.935 1321.45 545.995C1322.26 544.055 1322.67 541.972 1322.66 539.87C1322.67 537.787 1322.27 535.721 1321.46 533.801C1320.65 531.882 1319.45 530.148 1317.95 528.707C1316.49 527.218 1314.76 526.034 1312.84 525.226C1310.92 524.417 1308.86 524 1306.78 523.998C1305.87 524.044 1304.95 523.875 1304.11 523.504C1303.27 523.133 1302.53 522.571 1301.94 521.861C1301.33 521.246 1300.84 520.515 1300.51 519.711C1300.17 518.907 1300 518.045 1300 517.174C1300 516.303 1300.17 515.441 1300.51 514.637C1300.84 513.833 1301.33 513.102 1301.94 512.486L1313.93 500.234H1294.88C1293.21 500.098 1291.65 499.339 1290.51 498.107C1289.38 496.875 1288.75 495.26 1288.75 493.584C1288.75 491.908 1289.38 490.293 1290.51 489.061C1291.65 487.829 1293.21 487.069 1294.88 486.934H1329.76C1331.32 487.098 1332.77 487.811 1333.85 488.946C1334.93 490.08 1335.57 491.562 1335.65 493.126C1335.63 494.238 1335.35 495.329 1334.82 496.309C1334.5 496.905 1334.1 497.462 1333.64 497.966L1318.82 513.271C1322 514.697 1324.86 516.743 1327.23 519.289Z" fill="#EBEBEB"/>
<path d="M1417.41 547.195C1417.41 548.054 1417.24 548.904 1416.91 549.696C1416.57 550.487 1416.09 551.205 1415.47 551.806C1414.86 552.407 1414.13 552.879 1413.33 553.196C1412.54 553.512 1411.68 553.666 1410.82 553.649H1409.78V562.631C1409.78 564.366 1409.09 566.03 1407.86 567.256C1406.64 568.483 1404.97 569.172 1403.24 569.172C1401.5 569.172 1399.84 568.483 1398.61 567.256C1397.39 566.03 1396.7 564.366 1396.7 562.631V553.649H1359.63C1358.17 553.699 1356.74 553.202 1355.62 552.253C1354.94 551.738 1354.37 551.09 1353.95 550.349C1353.53 549.608 1353.26 548.789 1353.16 547.942C1353.06 547.095 1353.14 546.236 1353.38 545.418C1353.63 544.601 1354.03 543.841 1354.57 543.184L1398.18 489.027C1398.18 489.027 1398.18 489.027 1398.4 488.809C1398.54 488.673 1398.66 488.51 1398.75 488.329C1398.98 488.28 1399.2 488.158 1399.36 487.98C1399.36 487.98 1399.71 487.98 1399.79 487.631C1400.01 487.488 1400.27 487.412 1400.53 487.413C1400.53 487.152 1400.75 487.064 1400.97 487.064C1401.19 487.064 1401.32 487.064 1401.71 486.803C1402.1 486.541 1402.06 486.803 1402.15 486.803H1404.15C1404.35 486.863 1404.56 486.863 1404.76 486.803C1404.76 486.803 1405.24 486.803 1405.46 487.064H1405.94C1406.16 487.326 1406.42 487.413 1406.51 487.544L1407.12 487.893C1407.12 487.893 1407.51 487.893 1407.51 488.111L1407.95 488.591C1408.08 488.74 1408.19 488.9 1408.3 489.07C1408.48 489.233 1408.65 489.424 1408.78 489.637C1408.8 489.824 1408.89 489.996 1409.04 490.117C1409.04 490.378 1409.04 490.466 1409.26 490.814C1409.47 491.163 1409.26 491.163 1409.26 491.294C1409.3 491.524 1409.3 491.762 1409.26 491.992C1409.26 492.253 1409.26 492.341 1409.26 492.602V540.567H1410.43C1411.33 540.507 1412.24 540.634 1413.09 540.941C1413.94 541.248 1414.72 541.729 1415.37 542.351C1416.03 542.974 1416.55 543.726 1416.9 544.56C1417.25 545.394 1417.42 546.291 1417.41 547.195ZM1396.7 511.657L1373.28 540.698H1396.7V511.657Z" fill="#EBEBEB"/>
<path d="M1476.06 519.288C1478.82 521.981 1481.02 525.202 1482.52 528.76C1484.02 532.318 1484.79 536.14 1484.78 540.001C1484.75 543.836 1483.96 547.628 1482.47 551.16C1480.97 554.691 1478.79 557.893 1476.06 560.582C1473.38 563.333 1470.18 565.521 1466.65 567.019C1463.11 568.517 1459.31 569.293 1455.48 569.303H1455.21C1451.39 569.295 1447.62 568.519 1444.1 567.021C1440.59 565.523 1437.41 563.333 1434.76 560.582C1434.11 559.982 1433.59 559.254 1433.24 558.443C1432.89 557.633 1432.7 556.758 1432.7 555.873C1432.7 554.988 1432.89 554.113 1433.24 553.302C1433.59 552.492 1434.11 551.764 1434.76 551.163C1436.01 549.931 1437.7 549.239 1439.45 549.239C1441.21 549.239 1442.89 549.931 1444.14 551.163C1445.61 552.656 1447.36 553.841 1449.29 554.65C1451.22 555.459 1453.29 555.876 1455.39 555.876C1457.48 555.876 1459.56 555.459 1461.49 554.65C1463.42 553.841 1465.17 552.656 1466.64 551.163C1469.61 548.201 1471.3 544.194 1471.35 540.001C1471.35 537.913 1470.95 535.844 1470.15 533.913C1469.36 531.983 1468.19 530.228 1466.71 528.749C1465.24 527.271 1463.49 526.098 1461.56 525.297C1459.63 524.497 1457.56 524.085 1455.48 524.085C1451.27 523.983 1447.19 525.55 1444.14 528.445C1443.53 529.066 1442.8 529.559 1441.99 529.896C1441.19 530.233 1440.32 530.406 1439.45 530.406C1438.58 530.406 1437.72 530.233 1436.91 529.896C1436.11 529.559 1435.38 529.066 1434.76 528.445C1434.28 528.009 1433.94 527.399 1433.46 526.919C1432.98 526.44 1433.46 526.57 1433.46 526.57C1433.53 526.389 1433.53 526.185 1433.46 526.004C1433.46 525.655 1433.46 525.393 1433.46 525.175C1433.46 524.957 1433.46 525.175 1433.46 524.913C1433.37 524.262 1433.37 523.602 1433.46 522.951L1436.99 492.428C1437.32 490.529 1438.38 488.837 1439.95 487.719C1440.17 487.719 1440.3 487.719 1440.43 487.719C1440.56 487.719 1440.65 487.719 1440.78 487.501C1441.72 487.001 1442.77 486.746 1443.83 486.759H1478.72C1480.49 486.759 1482.18 487.462 1483.43 488.713C1484.69 489.965 1485.39 491.661 1485.39 493.431C1485.39 495.2 1484.69 496.897 1483.43 498.148C1482.18 499.399 1480.49 500.102 1478.72 500.102H1449.02L1447.63 511.745C1450.2 511.038 1452.85 510.672 1455.52 510.655C1459.35 510.652 1463.13 511.414 1466.66 512.897C1470.19 514.379 1473.38 516.553 1476.06 519.288Z" fill="#EBEBEB"/>
<path d="M1297.76 385.989L1296.01 386.425C1296.06 386.224 1296.17 386.042 1296.32 385.901L1297.76 385.989Z" fill="#263238"/>
<path d="M1347.95 1645.73H1347.16V1645.16L1347.95 1645.73Z" fill="#DD6A57"/>
<path d="M416.811 407.442C424.399 463.518 466.172 596.643 497.349 605.146C526.39 612.995 654.021 574.971 670.46 549.637C679.181 536.076 714.065 411.541 698.498 418.823C678.789 428.198 534.239 501.279 528.44 499.797C515.881 496.657 491.419 447.21 470.227 419.564C424.006 359.477 413.279 381.279 416.811 407.442Z" fill="#774442"/>
<path d="M504.021 463.125L438.614 523.082C438.614 523.082 415.46 437.442 412.844 397.805C410.227 358.169 442.626 362.616 504.021 463.125Z" fill="#263238"/>
<path d="M255.082 1018.65C255.082 1018.65 191.811 1126.31 121.913 1077.43C52.0145 1028.55 131.811 932.312 131.811 932.312L255.082 1018.65Z" fill="#FF98B9"/>
<path d="M129.016 936.132L252.269 1022.69L756.836 304.231L633.584 217.672L129.016 936.132Z" fill="#00E340"/>
<path opacity="0.1" d="M129.016 936.132L252.269 1022.69L756.836 304.231L633.584 217.672L129.016 936.132Z" fill="black"/>
<path d="M115.942 932.737L259.855 1033.81L279.904 1005.26L135.991 904.19L115.942 932.737Z" fill="black"/>
<path d="M138.145 901.19L282.058 1002.26L302.107 973.712L158.193 872.643L138.145 901.19Z" fill="black"/>
<path d="M633.614 217.674L742.146 161.73L777.902 143.11L772.8 183.227L756.885 304.491L731.812 313.648C731.812 313.648 732.292 287.486 732.205 287.18L707.132 296.294C707.132 296.294 707.611 270.131 707.524 269.826L682.757 279.157C682.757 279.157 682.757 252.994 682.757 252.515L657.989 261.846C657.989 261.846 657.989 235.683 657.989 235.16L633.614 244.317C633.614 244.317 633.614 218.11 633.614 217.674Z" fill="black"/>
<path d="M742.146 161.555L777.902 142.936L772.757 183.052L742.146 161.555Z" fill="#181818"/>
<g opacity="0.1">
<path d="M300.082 892.109C331.244 845.975 362.741 800.045 394.573 754.318L490.154 617.268L586.608 480.829L635.184 412.849L684.195 345.175L637.146 414.245L589.704 483.009L494.079 620.059L397.582 756.454C365.314 801.832 332.814 847.05 300.082 892.109Z" fill="black"/>
<path d="M265.982 872.094C297.174 825.902 328.671 779.972 360.474 734.303L456.055 597.21L552.553 460.814L601.128 392.835L650.096 325.16L603.09 394.186L555.605 462.951L460.023 600.044L363.526 736.44C331.23 781.789 298.715 827.007 265.982 872.094Z" fill="black"/>
<path d="M231.884 852.08C263.047 805.917 294.544 759.972 326.375 714.245L421.957 577.195L518.454 440.8L567.03 372.82L616.172 305.102L569.166 374.172L521.681 442.937L426.143 579.986L329.646 716.425C297.116 761.774 264.718 807.079 231.884 852.08Z" fill="black"/>
</g>
<path d="M693.44 409.666C695.794 428.285 708.527 454.623 705.78 468.314C705.229 471.708 703.6 474.834 701.134 477.229C698.668 479.624 695.496 481.162 692.088 481.614C692.088 481.614 703.076 492.471 698.541 504.463C696.23 510.655 684.283 512.355 684.283 512.355C686.646 514.95 688.247 518.147 688.909 521.595C689.571 525.042 689.267 528.604 688.033 531.89C684.326 540.175 672.945 540.611 672.945 540.611C672.945 540.611 676.957 553.082 670.46 560.364C657.379 575.059 582.902 550.727 580.373 519.594C579.195 505.073 597.03 512.006 597.03 512.006C597.03 512.006 573.788 495.829 578.41 480.393C583.032 464.957 605.663 475.335 605.663 475.335C605.663 475.335 583.294 459.463 589.704 443.939C596.114 428.416 617.219 442.064 617.219 442.064C617.219 442.064 604.137 425.451 611.986 414.681C624.588 396.89 647.742 432.123 665.358 433.474L683.193 409.492L693.44 409.666Z" fill="#774442"/>
<path d="M700.678 437.965C699.937 420.131 726.056 406.962 727.844 390C730.242 366.802 698.89 380.058 683.193 409.753L675.039 434.957L700.678 437.965Z" fill="#774442"/>
<path d="M671.158 541.091C671.419 541.091 671.158 541.527 671.158 541.483C643.705 539.458 617.517 529.132 596.07 511.876C595.416 511.309 596.07 509.957 596.899 510.437C620.034 524.201 645.049 534.528 671.158 541.091Z" fill="#263238"/>
<path d="M684.632 512.617C684.893 512.617 684.632 513.184 684.632 513.184C654.32 510.658 625.917 497.354 604.573 475.683C603.876 474.899 604.007 473.46 604.879 474.288C620.009 488.372 659.995 506.861 684.632 512.617Z" fill="#263238"/>
<path d="M616.172 439.971C637.19 460.901 662.829 472.936 690.911 481.57C691.303 481.57 690.911 482.181 690.911 482.181C676.041 481.701 658.687 474.332 645.693 467.486C633.505 461.33 623.135 452.102 615.605 440.712C615.169 440.233 615.78 439.492 616.172 439.971Z" fill="#263238"/>
<path d="M720.518 1761.46C710.533 1764.68 425.489 1760.98 414.718 1753.96C410.358 1751.34 408.701 1709.78 407.872 1659.51V1657.94C407.872 1647.56 407.523 1636.88 407.523 1626.06C407.523 1624.58 407.523 1623.1 407.523 1621.7C407.131 1549.1 408.308 1473.8 408.308 1473.8L598.992 1475.71L593.236 1622.23L593.018 1628.03L591.884 1658.33V1661.47C591.884 1661.47 700.373 1711.66 711.361 1720.64C722.349 1729.62 730.503 1758.27 720.518 1761.46Z" fill="#774442"/>
<path d="M720.519 1761.46C710.533 1764.68 425.489 1760.98 414.719 1753.96C410.358 1751.34 408.701 1709.78 407.873 1659.51V1657.94C407.873 1647.56 407.524 1636.88 407.524 1626.06C407.524 1624.58 407.524 1623.1 407.524 1621.7L593.236 1622.23L593.018 1628.03L591.885 1658.33V1661.47C591.885 1661.47 700.373 1711.66 711.362 1720.64C722.35 1729.62 730.504 1758.27 720.519 1761.46Z" fill="black"/>
<path d="M720.518 1761.46C714.326 1763.46 603.919 1762.81 517.451 1760.37C463.468 1758.88 418.861 1756.66 414.718 1753.96C410.576 1751.25 408.745 1710.96 407.916 1661.6C407.916 1660.9 407.916 1660.21 407.916 1659.51C407.916 1658.81 407.916 1658.42 407.916 1657.89L591.841 1658.24V1661.38C591.841 1661.38 700.329 1711.57 711.318 1720.55C722.306 1729.54 730.504 1758.27 720.518 1761.46Z" fill="#00E340"/>
<path d="M717.423 1750.38C669.457 1748.55 475.504 1746.02 427.844 1747.68C427.495 1747.68 427.495 1747.98 427.844 1747.98C475.416 1750.82 669.37 1751.99 717.423 1751.16C718.425 1751.12 718.425 1750.42 717.423 1750.38Z" fill="#263238"/>
<path d="M612.248 1659.03C593.367 1655.28 570.213 1657.85 555.562 1671.15C554.995 1671.67 555.562 1672.46 556.347 1672.28C574.482 1666.69 593.164 1663.05 612.073 1661.43C612.359 1661.4 612.625 1661.27 612.825 1661.06C613.025 1660.86 613.145 1660.59 613.166 1660.3C613.187 1660.01 613.106 1659.73 612.938 1659.5C612.771 1659.26 612.526 1659.1 612.248 1659.03Z" fill="#263238"/>
<path d="M625.765 1667.44C606.928 1663.65 583.774 1666.27 569.079 1679.57C568.512 1680.05 569.079 1680.87 569.864 1680.7C588.01 1675.08 606.708 1671.44 625.635 1669.84C625.918 1669.81 626.18 1669.67 626.374 1669.46C626.569 1669.25 626.684 1668.98 626.699 1668.7C626.715 1668.41 626.63 1668.13 626.459 1667.9C626.289 1667.67 626.043 1667.51 625.765 1667.44Z" fill="#263238"/>
<path d="M639.326 1675.86C620.446 1672.07 597.291 1674.68 582.64 1687.94C582.073 1688.46 582.64 1689.25 583.425 1689.07C601.565 1683.49 620.245 1679.85 639.152 1678.21C639.464 1678.24 639.773 1678.14 640.01 1677.93C640.247 1677.73 640.393 1677.44 640.417 1677.12C640.44 1676.81 640.338 1676.5 640.133 1676.27C639.929 1676.03 639.639 1675.88 639.326 1675.86Z" fill="#263238"/>
<path d="M637.364 1618.13C630.082 1607.79 616.172 1612.2 608.192 1618.74C594.709 1630.21 584.471 1645.02 578.498 1661.69C578.47 1661.76 578.459 1661.84 578.468 1661.91C578.476 1661.99 578.503 1662.06 578.545 1662.13C578.588 1662.19 578.646 1662.25 578.713 1662.28C578.781 1662.32 578.857 1662.34 578.934 1662.34C578.934 1663.78 580.242 1665.35 581.899 1664.74C597.553 1659.2 615.038 1655.15 628.556 1644.94C636.448 1638.97 644.254 1627.89 637.364 1618.13ZM603.919 1651.44C596.288 1654.36 588.527 1656.89 580.983 1660.16C586.483 1651.67 592.406 1643.46 598.73 1635.57C601.866 1631.76 605.261 1628.18 608.89 1624.84C614.559 1619.83 636.972 1609.23 633.396 1629.9C631.565 1641.19 613.033 1647.95 603.919 1651.44Z" fill="#263238"/>
<path d="M530.533 1656.11C546.013 1662.95 563.934 1662.86 580.504 1664.83C582.204 1664.83 583.077 1663.21 582.771 1661.77C582.844 1661.75 582.911 1661.71 582.967 1661.66C583.023 1661.61 583.068 1661.55 583.097 1661.48C583.126 1661.4 583.139 1661.33 583.136 1661.25C583.132 1661.18 583.112 1661.1 583.077 1661.03C573.426 1646.22 560.06 1634.19 544.312 1626.15C535.024 1621.79 520.504 1620.52 515.751 1632.25C510.998 1643.98 521.463 1652.14 530.533 1656.11ZM522.161 1642.5C513.876 1623.18 538.12 1628.37 544.835 1631.95C549.123 1634.38 553.246 1637.09 557.175 1640.06C565.216 1646.29 572.93 1652.92 580.286 1659.94C572.219 1658.55 564.065 1657.89 555.954 1656.8C546.405 1655.5 526.696 1653.01 522.161 1642.5Z" fill="#263238"/>
<path d="M517.451 1760.37C463.468 1758.88 418.861 1756.66 414.718 1753.96C410.576 1751.25 408.745 1710.96 407.916 1661.6C430.067 1681.35 485.053 1730.41 517.451 1760.37Z" fill="#263238"/>
<path d="M350.925 652.631C350.925 652.631 393.788 1134.11 400.678 1171.05C402.291 1179.42 403.294 1224.94 403.948 1283.46C405.431 1411.14 403.948 1659.86 403.948 1659.86H604.879C604.879 1659.86 599.515 1242.43 590.62 1169C581.725 1095.57 524.864 652.631 524.864 652.631H350.925Z" fill="#181818"/>
<path d="M595.809 1624.84C564.457 1624.19 573.44 1623.97 542.088 1623.66C526.739 1623.66 425.881 1622.62 411.579 1624.97C411.512 1625 411.455 1625.04 411.414 1625.1C411.373 1625.16 411.352 1625.23 411.352 1625.3C411.352 1625.37 411.373 1625.44 411.414 1625.5C411.455 1625.56 411.512 1625.6 411.579 1625.63C425.925 1628.03 526.739 1627.11 542.088 1626.98C573.44 1626.67 564.457 1626.41 595.809 1625.76C596.376 1625.76 596.376 1624.89 595.809 1624.84Z" fill="#263238"/>
<path d="M442.756 1378.3C442.553 1349.23 442.335 1320.09 442.102 1290.87C441.884 1262.62 442.102 1234.19 440.576 1206.19C437.872 1149.07 426.274 1092.82 418.032 1036.48C409.791 980.146 402.945 923.112 396.71 866.425C389.733 802.763 383.628 739.013 377 675.306C377 674.914 376.303 674.914 376.346 675.306C385.808 789.027 396.361 902.748 412.102 1015.82C416.026 1043.95 420.387 1072.02 425.183 1100.02C429.849 1128.4 434.515 1156.7 436.739 1185.44C438.963 1214.17 439.311 1241.69 439.573 1269.81C439.893 1298.88 440.183 1327.95 440.445 1357.02C441.099 1421.69 441.099 1539.73 441.71 1604.44C441.71 1605.66 443.672 1605.61 443.672 1604.44C442.974 1547.05 443.192 1436.03 442.756 1378.3Z" fill="#263238"/>
<path d="M308.541 652.631C308.541 652.631 393.788 1134.11 400.678 1171.05C402.291 1179.42 403.294 1224.94 403.948 1283.46L499.878 652.457L308.541 652.631Z" fill="#263238"/>
<path d="M484.05 1778.46C473.847 1780.95 189.806 1757.09 179.558 1749.29C175.634 1746.41 176.681 1704.81 179.558 1654.58C179.558 1654.06 179.558 1653.53 179.558 1653.01C180.125 1642.68 180.736 1631.99 181.477 1621.22C181.477 1619.74 181.477 1618.26 181.739 1616.86C186.492 1544.43 192.989 1469.39 192.989 1469.39L383.018 1484.83L366.928 1630.51L366.317 1636.31L363.003 1666.48L362.698 1669.58C362.698 1669.58 467.35 1727.36 477.684 1737.08C488.018 1746.8 494.079 1775.98 484.05 1778.46Z" fill="#774442"/>
<path d="M484.05 1778.46C473.847 1780.95 189.806 1757.1 179.558 1749.29C175.634 1746.41 176.681 1704.81 179.558 1654.58C179.558 1654.06 179.558 1653.53 179.558 1653.01C180.125 1642.68 180.736 1631.99 181.477 1621.22C181.477 1619.74 181.477 1618.26 181.739 1616.86L366.928 1630.51L366.317 1636.31L363.003 1666.48L362.698 1669.58C362.698 1669.58 467.35 1727.36 477.684 1737.08C488.018 1746.8 494.079 1775.98 484.05 1778.46Z" fill="black"/>
<path d="M484.05 1778.46C473.847 1780.95 189.806 1757.1 179.558 1749.29C175.634 1746.41 176.681 1704.81 179.558 1654.58C179.558 1654.06 179.558 1653.53 179.558 1653.01L363.003 1666.4L362.698 1669.49C362.698 1669.49 467.35 1727.27 477.684 1736.99C488.018 1746.72 494.079 1775.98 484.05 1778.46Z" fill="#00E340"/>
<path d="M481.783 1767.17C433.817 1761.98 240.779 1745.37 193.12 1743.97C192.727 1743.97 192.727 1744.23 193.12 1744.27C240.343 1750.47 433.73 1765.38 481.695 1767.95C482.742 1768 482.786 1767.25 481.783 1767.17Z" fill="#263238"/>
<path d="M383.323 1668.62C364.791 1663.52 341.506 1664.48 325.939 1676.69C325.372 1677.17 325.939 1678 326.68 1677.87C345.175 1673.57 364.076 1671.26 383.061 1670.98C383.331 1670.94 383.581 1670.81 383.772 1670.62C383.962 1670.42 384.082 1670.17 384.112 1669.9C384.142 1669.63 384.08 1669.36 383.938 1669.13C383.795 1668.89 383.578 1668.72 383.323 1668.62Z" fill="#263238"/>
<path d="M396.23 1677.95C377.698 1672.85 354.413 1673.59 338.89 1686.02C338.279 1686.5 338.89 1687.33 339.588 1687.2C358.083 1682.91 376.984 1680.61 395.968 1680.35C396.259 1680.34 396.536 1680.22 396.748 1680.02C396.96 1679.82 397.094 1679.55 397.125 1679.26C397.157 1678.97 397.084 1678.68 396.92 1678.44C396.756 1678.2 396.511 1678.03 396.23 1677.95Z" fill="#263238"/>
<path d="M409.137 1687.28C390.605 1682.18 367.32 1683.14 351.797 1695.35C351.187 1695.83 351.797 1696.7 352.495 1696.53C370.991 1692.24 389.892 1689.95 408.876 1689.68C409.166 1689.67 409.443 1689.55 409.655 1689.35C409.867 1689.15 410.001 1688.88 410.032 1688.59C410.064 1688.31 409.991 1688.01 409.827 1687.77C409.663 1687.53 409.418 1687.36 409.137 1687.28Z" fill="#263238"/>
<path d="M411.23 1629.6C404.689 1618.74 390.518 1622.18 382.102 1628.11C367.831 1638.59 356.568 1652.63 349.442 1668.84C349.407 1668.91 349.39 1668.99 349.392 1669.07C349.394 1669.16 349.414 1669.24 349.452 1669.31C349.491 1669.38 349.545 1669.44 349.611 1669.49C349.678 1669.54 349.754 1669.57 349.835 1669.58C349.788 1669.95 349.828 1670.32 349.952 1670.67C350.075 1671.01 350.279 1671.33 350.546 1671.58C350.814 1671.84 351.137 1672.03 351.491 1672.13C351.844 1672.24 352.218 1672.26 352.582 1672.2C368.628 1667.84 386.332 1664.96 400.547 1655.71C408.875 1650.31 417.465 1639.93 411.23 1629.6ZM375.518 1660.47C367.712 1662.82 359.776 1664.83 352.058 1667.49C358.176 1659.36 364.711 1651.56 371.637 1644.12C375.037 1640.55 378.679 1637.23 382.538 1634.17C388.556 1629.55 411.666 1620.57 406.608 1640.93C403.861 1652.18 385.067 1657.59 375.561 1660.47H375.518Z" fill="#263238"/>
<path d="M302.219 1659.9C317.219 1667.84 335.097 1669.01 351.448 1671.98C353.149 1672.28 354.152 1670.58 353.977 1669.14C354.055 1669.13 354.128 1669.09 354.19 1669.04C354.252 1668.99 354.3 1668.93 354.33 1668.86C354.36 1668.78 354.372 1668.7 354.363 1668.62C354.355 1668.54 354.327 1668.47 354.283 1668.4C345.729 1652.9 333.247 1639.92 318.091 1630.77C309.37 1625.63 294.762 1623.49 289.224 1634.87C283.687 1646.25 293.498 1655.28 302.219 1659.9ZM294.849 1645.77C287.96 1625.89 311.812 1632.69 318.221 1637.05C322.326 1639.69 326.245 1642.6 329.951 1645.77C337.595 1652.55 344.873 1659.72 351.754 1667.27C343.817 1665.31 335.751 1664.04 327.727 1662.39C317.785 1660.38 298.425 1656.72 294.631 1645.77H294.849Z" fill="#263238"/>
<path d="M370.852 1663.87L170.271 1655.37C170.271 1655.37 221.811 1203.27 222.814 1176.19C225.474 1105.95 272.131 652.457 272.131 652.457H517.32C517.32 652.457 501.841 757.108 475.373 823.518C457.681 829.767 440.591 837.604 424.312 846.934C424.312 846.934 409.66 1163.85 408.788 1201.27C406.87 1275.18 370.852 1663.87 370.852 1663.87Z" fill="#181818"/>
<path d="M365.489 1627.07C334.224 1625.1 343.207 1625.23 311.899 1623.58C296.594 1622.79 195.867 1617.65 181.434 1619.43C181.128 1619.43 181.085 1620 181.434 1620.05C195.692 1623.05 296.463 1626.41 311.812 1626.93C343.163 1627.94 334.137 1627.33 365.489 1627.98C365.561 1628 365.637 1628.01 365.711 1628C365.785 1627.98 365.856 1627.95 365.916 1627.91C365.977 1627.87 366.026 1627.81 366.06 1627.74C366.094 1627.67 366.112 1627.6 366.112 1627.52C366.112 1627.45 366.094 1627.37 366.06 1627.31C366.026 1627.24 365.977 1627.18 365.916 1627.14C365.856 1627.09 365.785 1627.06 365.711 1627.05C365.637 1627.04 365.561 1627.04 365.489 1627.07Z" fill="#263238"/>
<path d="M290.096 679.361C281.026 793.562 271.651 907.763 261.23 1021.88C250.808 1135.99 208.904 1529.7 199.137 1593.1C199.137 1593.53 199.704 1593.71 199.791 1593.1C220.023 1480.34 231.797 1328.81 244.486 1214.96C257.175 1101.11 267.465 986.993 276.666 872.879C281.898 808.3 286.608 743.678 291.535 679.1C291.622 678.402 290.183 678.446 290.096 679.361Z" fill="#263238"/>
<path d="M484.137 818.983C463.424 826.552 443.407 835.904 424.311 846.934C424.15 847.009 424.024 847.145 423.963 847.313C423.902 847.481 423.909 847.666 423.984 847.828C424.06 847.99 424.196 848.115 424.364 848.176C424.531 848.238 424.716 848.23 424.878 848.155C445.111 839.434 465.736 831.193 485.445 821.381C485.763 821.208 485.999 820.915 486.102 820.568C486.204 820.22 486.164 819.846 485.99 819.528C485.817 819.21 485.524 818.974 485.177 818.872C484.829 818.77 484.455 818.81 484.137 818.983Z" fill="#263238"/>
<path d="M490.591 680.19C490.591 679.492 489.282 679.317 489.282 680.19C489.292 702.761 488.171 725.318 485.925 747.777C484.966 758.198 476.593 815.8 458.498 811.614C455.489 810.873 454.137 807.908 453.483 803.373C453.548 797.41 454.354 791.478 455.881 785.713C457.887 773.635 459.5 761.556 460.503 749.39C462.626 726.709 462.392 703.869 459.806 681.236C459.77 681.107 459.693 680.993 459.587 680.912C459.481 680.831 459.351 680.787 459.217 680.787C459.083 680.787 458.953 680.831 458.847 680.912C458.741 680.993 458.664 681.107 458.628 681.236C459.156 712.667 457.32 744.093 453.134 775.248C450.867 790.248 443.323 812.792 458.977 815.103C474.631 817.414 485.14 779.696 487.189 769.361C492.181 739.91 493.324 709.935 490.591 680.19Z" fill="#263238"/>
<path d="M459.195 813.009C457.603 816.906 456.249 820.896 455.14 824.957C453.965 828.091 453.403 831.422 453.483 834.768C453.483 835.379 454.355 835.466 454.704 835.03C456.623 832.081 458.093 828.862 459.065 825.48C460.416 821.774 461.855 818.111 463.12 814.405C463.305 813.884 463.276 813.312 463.038 812.813C462.801 812.314 462.376 811.93 461.855 811.745C461.335 811.56 460.762 811.589 460.263 811.826C459.765 812.063 459.38 812.489 459.195 813.009Z" fill="#263238"/>
<path d="M257.175 737.312C257.829 738.053 545.707 730.902 548.28 727.85C551.812 723.489 473.629 427.98 452.742 384.114C444.021 365.451 397.539 360.829 378.614 377.268C330.649 418.474 292.756 556.745 284.21 598.344C269.864 667.065 254.689 734.87 257.175 737.312Z" fill="#00E340"/>
<path d="M410.969 470.538C412.229 473.499 413.052 476.628 413.411 479.826C409.553 474.727 407.075 468.72 406.216 462.384C408.179 464.863 409.779 467.609 410.969 470.538ZM433.948 582.253C434.33 585.447 435.152 588.573 436.39 591.541C437.562 594.533 439.163 597.339 441.143 599.87C440.763 596.69 439.942 593.578 438.701 590.625C437.512 587.629 435.912 584.811 433.948 582.253ZM460.896 712.806C461.276 715.986 462.098 719.097 463.338 722.05C464.509 725.056 466.11 727.876 468.091 730.422C467.249 724.082 464.769 718.07 460.896 712.98V712.806ZM335.053 549.55C335.391 552.752 336.215 555.884 337.495 558.838C338.651 561.828 340.238 564.634 342.204 567.166C341.352 560.836 338.89 554.831 335.053 549.724V549.55ZM289.573 631.963C290.425 638.293 292.888 644.298 296.724 649.405C296.38 646.209 295.572 643.08 294.326 640.117C293.123 637.194 291.524 634.45 289.573 631.963ZM400.591 683.722C401.443 690.052 403.905 696.057 407.742 701.163C407.404 697.976 406.581 694.858 405.3 691.919C404.13 688.976 402.544 686.215 400.591 683.722ZM492.161 534.593C492.525 537.79 493.347 540.919 494.603 543.881C495.759 546.872 497.345 549.677 499.312 552.21C498.968 549.014 498.16 545.885 496.914 542.922C495.779 539.948 494.238 537.145 492.335 534.593H492.161ZM369.457 514.056C372.641 513.696 375.755 512.874 378.701 511.614C381.706 510.458 384.526 508.872 387.073 506.904C383.872 507.243 380.74 508.066 377.786 509.346C374.856 510.518 372.11 512.104 369.631 514.056H369.457ZM338.934 617.878C342.129 617.504 345.256 616.682 348.222 615.437C351.219 614.247 354.036 612.647 356.594 610.684C350.258 611.543 344.251 614.021 339.152 617.878H338.934ZM347.655 735.611H352.756L354.719 734.87C357.716 733.68 360.533 732.081 363.091 730.117C357.606 730.882 352.346 732.799 347.655 735.742V735.611ZM459.196 641.381C465.536 640.54 471.547 638.06 476.637 634.187C470.297 635.028 464.286 637.508 459.196 641.381ZM373.425 423.358C379.765 422.516 385.777 420.036 390.867 416.163C384.527 417.005 378.515 419.485 373.425 423.358ZM347.044 437.486C345.06 440.013 343.432 442.801 342.204 445.771C340.91 448.71 340.058 451.826 339.675 455.015C341.69 452.508 343.321 449.716 344.515 446.73C345.825 443.802 346.72 440.705 347.175 437.529L347.044 437.486ZM302.742 569.87C300.727 572.376 299.096 575.168 297.902 578.155C296.613 581.099 295.747 584.212 295.329 587.399C297.326 584.88 298.955 582.09 300.169 579.114C301.49 576.186 302.399 573.09 302.873 569.913L302.742 569.87ZM300.78 690.698C298.805 693.232 297.177 696.019 295.94 698.983C294.675 701.934 293.824 705.044 293.41 708.227C295.426 705.721 297.057 702.929 298.251 699.942C299.566 697.016 300.461 693.919 300.91 690.742L300.78 690.698ZM445.155 519.288C443.179 521.83 441.565 524.633 440.358 527.617C439.05 530.554 438.183 533.67 437.786 536.861C439.782 534.342 441.412 531.552 442.626 528.576C443.915 525.619 444.767 522.49 445.155 519.288ZM398.629 625.945C394.691 631.016 392.151 637.03 391.259 643.387C393.225 640.847 394.852 638.062 396.1 635.102C397.356 632.18 398.207 629.099 398.629 625.945ZM510.344 675.088C508.329 677.594 506.698 680.386 505.504 683.373C504.215 686.318 503.349 689.43 502.931 692.617C504.946 690.11 506.577 687.318 507.771 684.332C509.05 681.384 509.916 678.273 510.344 675.088ZM443.89 426.541C441.904 429.06 440.289 431.85 439.094 434.826C437.785 437.764 436.918 440.879 436.521 444.07C440.458 438.999 442.999 432.986 443.89 426.628V426.541ZM478.774 491.163C476.246 489.179 473.459 487.551 470.489 486.323C467.549 485.029 464.434 484.177 461.245 483.794C463.758 485.8 466.549 487.43 469.53 488.634C472.533 489.835 475.688 490.613 478.905 490.945L478.774 491.163ZM354.98 674.957C352.461 672.96 349.672 671.331 346.695 670.117C343.747 668.838 340.636 667.972 337.451 667.544C342.533 671.471 348.539 674.024 354.893 674.957H354.98ZM510.867 600.524C505.796 596.586 499.783 594.046 493.425 593.155C495.966 595.12 498.75 596.747 501.71 597.995C504.633 599.251 507.714 600.102 510.867 600.524ZM314.254 494.085C316.431 495.616 318.771 496.903 321.23 497.922C324.175 499.21 327.287 500.076 330.474 500.495C327.962 498.489 325.171 496.858 322.19 495.654C319.729 494.592 317.154 493.816 314.515 493.343C314.409 493.583 314.321 493.831 314.254 494.085ZM444.108 678.838C441.589 676.841 438.8 675.211 435.823 673.998C432.882 672.7 429.768 671.834 426.579 671.425C429.086 673.44 431.878 675.071 434.864 676.265C437.809 677.554 440.921 678.42 444.108 678.838ZM405.998 559.274C403.479 557.277 400.689 555.647 397.713 554.434C394.771 553.136 391.658 552.27 388.469 551.861C390.975 553.876 393.767 555.507 396.754 556.701C399.699 557.989 402.811 558.856 405.998 559.274Z" fill="#181818"/>
<path d="M438.091 426.148C421.608 428.765 392.306 399.593 382.844 378.75C382.19 377.311 385.416 362.965 388.469 345.393C390.3 334.709 392.088 322.762 392.829 311.73C392.829 309.462 400.373 314.215 400.373 314.215L414.326 318.576L460.591 333.576C455.623 347.049 452.314 361.076 450.736 375.349C450.613 376.8 450.613 378.259 450.736 379.709C450.736 379.927 450.736 380.189 450.736 380.494C451.739 389.52 454.006 423.619 438.091 426.148Z" fill="#774442"/>
<path d="M450.954 380.059C450.954 380.277 450.954 380.538 450.954 380.844C448.589 381.035 446.212 381.035 443.847 380.844C397.408 376.483 395.881 316.745 395.881 316.745L414.195 318.925L460.46 333.925C455.492 347.398 452.183 361.425 450.605 375.698C450.598 377.159 450.714 378.618 450.954 380.059Z" fill="#263238"/>
<path d="M386.855 237.515C378.788 261.933 390.126 333.14 407.219 349.361C432.03 372.864 473.411 376.003 493.6 346.003C513.135 316.963 496.739 224.39 477.553 209.564C449.341 187.893 398.759 201.541 386.855 237.515Z" fill="#774442"/>
<path d="M455.619 285.175C455.619 285.175 455.271 285.48 455.314 285.654C456.23 290.451 456.448 296.076 452.349 298.3C452.349 298.3 452.349 298.649 452.349 298.561C457.625 296.904 457.233 289.579 455.619 285.175Z" fill="#263238"/>
<path d="M450.474 280.814C442.669 281.425 444.457 296.991 451.695 296.468C458.934 295.945 457.102 280.334 450.474 280.814Z" fill="#263238"/>
<path d="M482.916 281.163C482.916 281.163 483.309 281.163 483.309 281.512C483.745 286.352 485.009 291.846 489.544 292.936V293.242C484.137 293.067 482.524 285.785 482.916 281.163Z" fill="#263238"/>
<path d="M486.623 275.625C494.341 274.143 496.739 289.622 489.588 291.018C482.437 292.413 480.213 276.846 486.623 275.625Z" fill="#263238"/>
<path d="M443.628 274.404C445.597 273.565 447.519 272.619 449.384 271.57C451.563 270.88 453.45 269.484 454.748 267.602C455.05 266.935 455.12 266.186 454.946 265.474C454.773 264.762 454.365 264.13 453.788 263.678C452.528 262.929 451.09 262.534 449.624 262.534C448.158 262.534 446.72 262.929 445.46 263.678C442.677 264.804 440.419 266.937 439.137 269.652C438.847 270.29 438.754 271.001 438.87 271.693C438.986 272.385 439.305 273.027 439.787 273.536C440.268 274.046 440.891 274.401 441.575 274.556C442.26 274.71 442.974 274.658 443.628 274.404Z" fill="#263238"/>
<path d="M491.768 267.079C489.619 266.979 487.478 266.746 485.358 266.381C483.07 266.401 480.842 265.648 479.035 264.245C478.541 263.697 478.246 262.999 478.198 262.262C478.151 261.526 478.354 260.796 478.774 260.189C479.757 259.109 481.012 258.312 482.408 257.883C483.804 257.453 485.289 257.406 486.71 257.747C489.704 257.967 492.506 259.306 494.559 261.497C494.931 262.02 495.154 262.634 495.204 263.273C495.254 263.913 495.129 264.554 494.842 265.127C494.555 265.701 494.117 266.186 493.576 266.53C493.034 266.874 492.409 267.063 491.768 267.079Z" fill="#263238"/>
<path d="M454.224 328.866C455.533 329.869 456.841 331.265 458.585 331.221C460.363 330.983 462.071 330.374 463.599 329.433C463.599 329.433 463.948 329.433 463.861 329.651C463.278 330.68 462.426 331.532 461.398 332.116C460.369 332.699 459.201 332.993 458.018 332.965C456.991 332.833 456.028 332.398 455.251 331.714C454.474 331.03 453.919 330.13 453.658 329.128C453.623 329.053 453.62 328.967 453.648 328.889C453.677 328.812 453.735 328.748 453.81 328.714C453.885 328.679 453.971 328.676 454.049 328.704C454.127 328.733 454.19 328.791 454.224 328.866Z" fill="#263238"/>
<path d="M457.669 313.823C459.106 315.592 460.894 317.044 462.92 318.088C464.947 319.131 467.168 319.743 469.443 319.884C471.428 320.038 473.425 319.906 475.373 319.492C475.76 319.451 476.141 319.363 476.506 319.23L477.553 318.925C477.802 318.848 478.018 318.69 478.168 318.477C478.318 318.264 478.393 318.008 478.381 317.747C478.402 317.588 478.402 317.427 478.381 317.268V316.832C478.076 313.125 477.073 307.5 477.073 307.5C478.512 308.023 485.794 310.378 485.445 308.416C483.114 291.721 479.067 275.312 473.367 259.448C473.338 259.361 473.283 259.285 473.208 259.231C473.134 259.177 473.045 259.148 472.953 259.148C472.861 259.148 472.771 259.177 472.697 259.231C472.623 259.285 472.567 259.361 472.538 259.448C474.588 274.884 479.384 289.971 481.739 305.32C479.143 304.474 476.444 303.99 473.716 303.881C473.193 304.099 475.852 314.695 475.852 316.352C472.871 316.989 469.792 317.024 466.797 316.455C463.802 315.886 460.951 314.724 458.411 313.038C457.669 313.125 457.32 313.474 457.669 313.823Z" fill="#263238"/>
<path d="M472.975 317.834C471.244 320.72 468.795 323.109 465.867 324.767C464.261 325.657 462.407 325.994 460.591 325.727C456.623 325.16 456.23 321.628 456.492 318.532C456.681 316.876 457.076 315.25 457.669 313.692C462.198 316.672 467.561 318.124 472.975 317.834Z" fill="#263238"/>
<path d="M465.867 324.768C464.261 325.657 462.407 325.994 460.591 325.727C456.623 325.16 456.23 321.628 456.492 318.532C458.527 318.371 460.558 318.898 462.258 320.029C463.958 321.16 465.229 322.828 465.867 324.768Z" fill="#FF98B9"/>
<path d="M491.463 240.872C468.658 257.922 435.562 234.942 435.562 234.942C433.772 240.15 430.347 244.641 425.797 247.745C421.248 250.848 415.817 252.399 410.315 252.166C410.315 252.166 407.349 292.064 396.884 292.457C380.925 293.024 373.73 239.041 378.352 228.183C382.974 217.326 396.361 214.055 396.361 214.055C397.578 207.537 401.225 201.723 406.565 197.791C417.073 189.07 455.184 198.663 455.184 198.663C457.117 193.552 460.224 188.967 464.254 185.276C465.223 184.361 466.368 183.651 467.618 183.189C468.869 182.727 470.2 182.523 471.532 182.588C472.863 182.653 474.168 182.987 475.367 183.569C476.567 184.15 477.637 184.969 478.512 185.974C476.644 188.989 475.482 192.388 475.111 195.916C473.716 207.646 483.178 207.253 482.655 196.701C482.63 192.739 481.157 188.924 478.512 185.974C482.873 178.91 490.46 176.337 495.3 179.826C503.977 186.192 510.431 226.701 491.463 240.872Z" fill="#263238"/>
<path d="M400.678 295.684C400.678 295.684 384.719 272.704 374.297 278.242C363.876 283.779 375.823 317.224 388.032 321.846C389.557 322.54 391.205 322.918 392.879 322.958C394.553 322.999 396.218 322.7 397.773 322.081C399.329 321.462 400.744 320.535 401.932 319.356C403.121 318.177 404.058 316.769 404.69 315.218L400.678 295.684Z" fill="#774442"/>
<path d="M377.96 287.834C377.742 287.834 377.742 288.096 377.96 288.183C386.681 291.672 391.041 299.608 394.181 307.849C393.675 306.997 392.992 306.263 392.178 305.697C391.364 305.131 390.438 304.746 389.462 304.568C388.487 304.391 387.485 304.424 386.524 304.667C385.563 304.909 384.664 305.355 383.89 305.974C383.672 305.974 383.89 306.454 384.152 306.41C385.655 305.935 387.269 305.94 388.77 306.424C390.27 306.909 391.582 307.849 392.524 309.114C394.108 311.226 395.454 313.507 396.536 315.916C396.928 316.701 398.323 316.308 398.062 315.393C398.149 304.273 389.69 288.968 377.96 287.834Z" fill="#263238"/>
<path d="M451.652 959.434L339.937 842.879L541.652 753.969L653.367 870.524L451.652 959.434Z" fill="black"/>
<path d="M459.326 967.414L347.567 850.858L549.283 761.948L661.042 878.504L459.326 967.414Z" fill="black"/>
<path d="M561.143 774.332C559.476 775.177 557.66 775.685 555.797 775.827C553.934 775.969 552.061 775.743 550.285 775.161C548.628 774.637 549.806 772.937 551.419 773.504C553.739 774.217 556.234 774.109 558.483 773.198L559.573 772.675C560.773 772.099 561.808 771.229 562.582 770.146C562.885 769.649 563.022 769.069 562.974 768.489C562.974 768.489 562.974 768.489 562.974 768.271V768.009C562.774 767.689 562.486 767.432 562.146 767.268C561.483 766.932 560.752 766.753 560.009 766.745C559.097 766.748 558.189 766.865 557.306 767.094C556.87 767.094 556.434 767.094 555.954 767.399H555.692H555.256H554.995L553.425 765.742C554.82 765.159 556.286 764.763 557.785 764.565C559.026 764.323 560.304 764.354 561.531 764.655C562.758 764.956 563.905 765.52 564.893 766.309C565.522 766.966 565.873 767.841 565.873 768.751C565.873 769.661 565.522 770.535 564.893 771.193C563.954 772.563 562.657 773.649 561.143 774.332Z" fill="#181818"/>
<path d="M569.908 783.446C566.532 785.164 562.613 785.478 559.007 784.318C557.35 783.751 558.527 782.05 560.14 782.617C562.475 783.33 564.983 783.223 567.248 782.312C567.617 782.182 567.969 782.006 568.294 781.789C569.523 781.238 570.578 780.364 571.347 779.26C571.65 778.763 571.787 778.183 571.739 777.603C571.739 777.603 571.739 777.603 571.739 777.385C571.526 777.048 571.224 776.777 570.867 776.6C570.207 776.261 569.472 776.096 568.73 776.12C567.833 776.084 566.936 776.187 566.07 776.425C565.634 776.425 565.198 776.643 564.719 776.731H564.457H564.021C564.021 776.731 564.021 776.731 563.759 776.731L562.146 775.074C563.541 774.491 565.008 774.095 566.507 773.896C567.754 773.648 569.04 773.676 570.275 773.977C571.511 774.278 572.665 774.846 573.658 775.64C574.277 776.303 574.621 777.176 574.621 778.082C574.621 778.989 574.277 779.862 573.658 780.524C572.679 781.804 571.388 782.81 569.908 783.446Z" fill="#181818"/>
<path d="M578.629 792.602C575.257 794.286 571.36 794.583 567.771 793.431C566.114 792.864 567.292 791.207 568.905 791.73C571.222 792.437 573.71 792.345 575.969 791.469L577.059 790.945C578.271 790.367 579.309 789.48 580.068 788.373C580.406 787.908 580.547 787.328 580.46 786.759L580.242 786.498C580.069 786.155 579.773 785.891 579.414 785.756C578.758 785.402 578.022 785.222 577.277 785.233C576.38 785.197 575.483 785.3 574.617 785.538L573.265 785.887H572.96H572.568H572.262L570.693 784.23C572.088 783.648 573.554 783.252 575.053 783.053C576.294 782.811 577.572 782.842 578.799 783.143C580.026 783.445 581.173 784.009 582.161 784.797C582.803 785.457 583.162 786.34 583.162 787.261C583.162 788.181 582.803 789.065 582.161 789.724C581.223 790.945 580.014 791.931 578.629 792.602Z" fill="#181818"/>
<path d="M587.393 801.716C584.011 803.42 580.093 803.718 576.492 802.544C574.835 802.021 576.012 800.32 577.626 800.887C579.96 801.601 582.468 801.493 584.733 800.582L585.823 800.059C587.035 799.481 588.073 798.593 588.832 797.486C589.129 797.003 589.266 796.438 589.225 795.873C589.214 795.8 589.214 795.727 589.225 795.655V795.393C589.026 795.071 588.738 794.814 588.396 794.652C587.718 794.315 586.973 794.136 586.216 794.129C585.318 794.132 584.424 794.249 583.556 794.477C583.098 794.543 582.646 794.645 582.204 794.783H581.942C581.8 794.739 581.649 794.739 581.506 794.783C581.506 794.783 581.288 794.783 581.245 794.783L579.675 793.126C581.065 792.519 582.533 792.108 584.036 791.905C585.286 791.663 586.574 791.697 587.809 792.006C589.045 792.315 590.198 792.89 591.187 793.693C591.806 794.355 592.15 795.228 592.15 796.134C592.15 797.041 591.806 797.914 591.187 798.576C590.21 799.928 588.904 801.009 587.393 801.716Z" fill="#181818"/>
<path d="M596.114 810.829C594.448 811.674 592.631 812.182 590.768 812.324C588.905 812.467 587.032 812.24 585.257 811.658C583.6 811.134 584.777 809.434 586.39 810.001C588.71 810.714 591.205 810.607 593.454 809.696L594.544 809.172C595.744 808.596 596.779 807.726 597.553 806.643C597.894 806.163 598.035 805.569 597.946 804.986C597.946 804.986 597.946 804.986 597.946 804.768C597.946 804.55 597.946 804.507 597.946 804.507C597.718 804.194 597.419 803.94 597.073 803.765C596.413 803.423 595.681 803.244 594.937 803.242C594.039 803.242 593.145 803.359 592.277 803.591C591.817 803.646 591.364 803.748 590.925 803.896H590.663C590.519 803.871 590.372 803.871 590.227 803.896C590.227 803.896 590.009 803.896 589.966 803.896L588.352 802.239C589.748 801.656 591.214 801.261 592.713 801.062C593.96 800.814 595.246 800.841 596.482 801.142C597.717 801.444 598.871 802.012 599.864 802.806C600.493 803.463 600.844 804.338 600.844 805.248C600.844 806.158 600.493 807.032 599.864 807.69C598.939 809.072 597.638 810.162 596.114 810.829Z" fill="#181818"/>
<path d="M604.879 820.161C603.215 821.013 601.4 821.528 599.537 821.678C597.674 821.828 595.799 821.608 594.021 821.033C592.321 820.466 593.498 818.765 595.111 819.332C597.446 820.046 599.954 819.938 602.219 819.027C602.599 818.889 602.964 818.713 603.309 818.504C604.518 817.941 605.556 817.069 606.318 815.975C606.621 815.478 606.758 814.898 606.71 814.318C606.71 814.318 606.71 814.318 606.71 814.1V813.882C606.525 813.539 606.234 813.264 605.882 813.097C605.209 812.75 604.458 812.585 603.701 812.617C602.805 812.587 601.908 812.69 601.042 812.922C600.606 812.922 600.17 813.14 599.69 813.228H599.428H598.992C598.992 813.228 598.774 813.228 598.731 813.228L597.161 811.571C598.553 810.979 600.02 810.583 601.521 810.393C602.768 810.145 604.055 810.173 605.29 810.474C606.525 810.775 607.68 811.343 608.672 812.138C609.292 812.8 609.636 813.673 609.636 814.579C609.636 815.486 609.292 816.359 608.672 817.021C607.71 818.387 606.401 819.471 604.879 820.161Z" fill="#181818"/>
<path d="M613.643 829.099C610.255 830.781 606.345 831.078 602.742 829.928C601.085 829.361 602.262 827.704 603.876 828.227C606.193 828.934 608.681 828.842 610.94 827.966L612.03 827.442C613.241 826.865 614.279 825.977 615.038 824.87C615.369 824.4 615.523 823.829 615.474 823.256V822.995C615.27 822.661 614.965 822.401 614.602 822.254C613.947 821.899 613.211 821.719 612.466 821.73C611.569 821.695 610.671 821.797 609.806 822.035L608.454 822.384H608.192H607.756H607.495L605.881 820.727C607.277 820.145 608.743 819.749 610.242 819.55C611.489 819.302 612.775 819.329 614.011 819.631C615.246 819.932 616.4 820.5 617.393 821.294C618.025 821.959 618.377 822.841 618.377 823.758C618.377 824.675 618.025 825.557 617.393 826.222C616.399 827.475 615.111 828.463 613.643 829.099Z" fill="#181818"/>
<path d="M622.364 838.213C620.697 839.058 618.881 839.566 617.018 839.708C615.155 839.85 613.282 839.624 611.506 839.041C609.849 838.518 610.983 836.818 612.64 837.384C614.96 838.098 617.455 837.99 619.704 837.079L620.794 836.556C622.006 835.978 623.044 835.091 623.803 833.983C624.1 833.5 624.237 832.936 624.195 832.37V832.152V831.89C624.007 831.559 623.717 831.299 623.367 831.149C622.704 830.813 621.973 830.634 621.23 830.626C620.318 830.629 619.41 830.746 618.527 830.975C618.069 831.04 617.617 831.142 617.175 831.28H616.913C616.771 831.236 616.619 831.236 616.477 831.28C616.477 831.28 616.477 831.28 616.216 831.28L614.646 829.623C616.032 829.006 617.501 828.595 619.006 828.402C620.25 828.166 621.53 828.204 622.757 828.513C623.985 828.822 625.13 829.394 626.114 830.19C626.743 830.847 627.094 831.722 627.094 832.632C627.094 833.541 626.743 834.416 626.114 835.073C625.149 836.42 623.859 837.5 622.364 838.213Z" fill="#181818"/>
<path d="M631.128 847.326C627.746 849.03 623.828 849.328 620.227 848.155C618.57 847.631 619.748 845.931 621.361 846.498C623.681 847.211 626.175 847.104 628.425 846.193C628.804 846.053 629.169 845.878 629.515 845.669C630.723 845.105 631.76 844.233 632.524 843.14C632.858 842.655 633.012 842.069 632.96 841.483C632.964 841.411 632.964 841.338 632.96 841.265C632.96 841.265 632.96 841.004 632.96 841.004C632.732 840.691 632.433 840.437 632.088 840.262C631.427 839.92 630.695 839.741 629.951 839.739C629.053 839.739 628.159 839.857 627.291 840.088C626.833 840.154 626.381 840.256 625.94 840.393H625.678C625.534 840.368 625.386 840.368 625.242 840.393C625.242 840.393 625.024 840.393 624.98 840.393L623.367 838.736C624.762 838.153 626.228 837.758 627.727 837.559C628.974 837.311 630.261 837.338 631.496 837.639C632.731 837.941 633.886 838.509 634.878 839.303C635.507 839.96 635.859 840.835 635.859 841.745C635.859 842.655 635.507 843.529 634.878 844.187C633.945 845.561 632.646 846.649 631.128 847.326Z" fill="#181818"/>
<path d="M639.849 856.44C638.186 857.292 636.371 857.807 634.507 857.957C632.644 858.107 630.77 857.887 628.992 857.312C627.335 856.745 628.512 855.044 630.126 855.611C632.445 856.325 634.94 856.217 637.19 855.306C637.569 855.168 637.934 854.992 638.28 854.783C639.488 854.22 640.527 853.348 641.288 852.254C641.591 851.757 641.729 851.177 641.681 850.597V850.379C641.495 850.035 641.205 849.761 640.852 849.594C640.193 849.255 639.457 849.09 638.716 849.114C637.819 849.078 636.921 849.181 636.056 849.419C635.6 849.496 635.149 849.598 634.704 849.725H634.399H633.963H633.701L632.131 848.068C633.527 847.485 634.993 847.089 636.492 846.89C637.732 846.649 639.01 846.68 640.237 846.981C641.465 847.282 642.612 847.846 643.599 848.635C644.239 849.287 644.597 850.163 644.597 851.076C644.597 851.989 644.239 852.866 643.599 853.518C642.631 854.808 641.337 855.817 639.849 856.44Z" fill="#181818"/>
<path d="M648.614 865.597C645.226 867.278 641.317 867.575 637.713 866.426C636.056 865.859 637.233 864.202 638.847 864.725C641.179 865.431 643.68 865.339 645.954 864.463L647.001 863.94C648.232 863.374 649.287 862.485 650.053 861.367C650.35 860.884 650.487 860.32 650.446 859.754V859.492C650.242 859.158 649.936 858.899 649.574 858.751C648.918 858.397 648.182 858.217 647.437 858.228C646.54 858.192 645.643 858.295 644.777 858.533L643.425 858.882H643.164H642.728H642.466L640.853 857.225C642.248 856.642 643.714 856.246 645.213 856.048C646.46 855.799 647.746 855.827 648.982 856.128C650.217 856.43 651.372 856.997 652.364 857.792C652.983 858.454 653.328 859.327 653.328 860.234C653.328 861.14 652.983 862.013 652.364 862.676C651.37 863.94 650.083 864.942 648.614 865.597Z" fill="#181818"/>
<path d="M657.335 874.71C655.669 875.555 653.852 876.063 651.989 876.205C650.126 876.347 648.253 876.121 646.478 875.539C644.821 875.015 645.998 873.315 647.611 873.882C649.931 874.595 652.426 874.487 654.675 873.576L655.766 873.053C656.977 872.475 658.015 871.588 658.774 870.48C659.113 870.015 659.254 869.436 659.167 868.867V868.605C658.951 868.282 658.649 868.025 658.295 867.864C657.632 867.528 656.901 867.349 656.158 867.341C655.26 867.341 654.366 867.458 653.498 867.69C653.038 867.745 652.585 867.847 652.146 867.995H651.885H651.449H651.143L649.574 866.382C650.96 865.765 652.429 865.354 653.934 865.161C655.178 864.925 656.457 864.963 657.685 865.272C658.912 865.58 660.058 866.153 661.042 866.948C661.681 867.601 662.039 868.477 662.039 869.39C662.039 870.303 661.681 871.18 661.042 871.832C660.067 873.088 658.793 874.077 657.335 874.71Z" fill="#181818"/>
<path d="M345.823 406.745C283.599 491.73 245.27 606.934 248.366 632.661C251.768 661.178 287.218 758.591 326.419 802.719C336.753 814.318 423.09 727.021 412.582 714.158C392.262 689.39 353.061 617.355 351.928 601.265C350.881 586.44 376.782 492.254 384.936 438.707C392.785 387.123 374.907 367.239 345.823 406.745Z" fill="#774442"/>
<path d="M410.096 711.149C410.096 711.149 453.701 732.951 481.695 748.344C497.262 757.065 522.64 774.245 531.187 785.844C543.963 803.286 586.216 883.911 566.899 894.55C549.457 904.231 521.855 830.277 521.855 830.277C521.855 830.277 556.216 902.443 532.974 910.204C509.733 917.966 489.718 830.321 489.718 830.321C489.718 830.321 523.381 905.277 498.178 909.463C479.123 912.646 456.535 834.245 456.535 834.245C456.535 834.245 485.009 898.867 465.561 902.966C444.064 907.327 418.686 836.469 418.686 836.469C367.451 838.606 342.204 818.678 325.896 802.37C322.015 798.358 410.096 711.149 410.096 711.149Z" fill="#774442"/>
<path d="M511.521 804.594C515.882 812.922 520.242 821.338 523.905 830.015C527.568 838.693 530.794 847.457 533.542 856.527C537.419 868.185 539.907 880.26 540.954 892.501C537.422 870.698 525.082 839.608 521.463 830.931C517.844 822.254 514.748 813.489 511.172 804.768C511.129 804.506 511.521 804.419 511.521 804.594Z" fill="#263238"/>
<path d="M479.951 816.978C485.053 827.879 490.504 838.475 495.082 849.594C499.661 860.713 503.062 871.396 506.855 882.865C507.161 883.737 506.594 883.606 506.288 882.865C501.928 871.702 497.219 861.716 492.815 850.553C488.411 839.391 484.443 828.141 479.733 817.239C479.602 816.934 479.864 816.847 479.951 816.978Z" fill="#263238"/>
<path d="M450.91 822.733C459.11 839.236 465.598 856.536 470.271 874.361C470.489 875.233 469.791 874.972 469.486 874.1C463.381 856.658 458.716 843.228 450.344 823.039C450.213 822.733 450.736 822.428 450.91 822.733Z" fill="#263238"/>
<path d="M285.779 494.085L377.785 516.323C377.785 516.323 391.913 451.701 388.992 411.933C386.07 372.166 362.829 378.794 339.413 409.666C315.997 440.538 285.779 494.085 285.779 494.085Z" fill="#263238"/>
</svg>
