<svg width="3259" height="3600" viewBox="0 0 3259 3600" fill="none" xmlns="http://www.w3.org/2000/svg">
<path d="M1669.23 3599.05C2447.82 3599.05 3079 3522.67 3079 3428.44C3079 3334.22 2447.82 3257.83 1669.23 3257.83C890.633 3257.83 259.457 3334.22 259.457 3428.44C259.457 3522.67 890.633 3599.05 1669.23 3599.05Z" fill="black"/>
<path d="M2378.62 2828.12H1849.38V2863.13H2378.62V2828.12Z" fill="black"/>
<path d="M1889.12 1609.97L1886.58 1775.85L1870.47 2828.12L1869.95 2863.13L1862.86 3324.71H1835.9L1828.81 2863.13L1828.28 2828.12L1812.18 1775.85L1809.64 1609.97H1889.12Z" fill="black"/>
<path d="M1809.64 1609.97H1889.12L1886.58 1775.85H1812.18L1809.64 1609.97Z" fill="#263238"/>
<path d="M2418.28 1609.97L2415.74 1775.85L2392.01 3324.71H2365.05L2357.96 2863.13L2357.44 2828.12L2341.33 1775.85L2338.79 1609.97H2418.28Z" fill="black"/>
<path d="M2418.28 1609.97L2415.74 1775.85H2341.33L2338.79 1609.97H2418.28Z" fill="#263238"/>
<path d="M2131.77 2828.12H1602.53V2863.13H2131.77V2828.12Z" fill="#181818"/>
<path d="M1642.27 1609.97L1639.73 1775.85L1623.62 2828.12L1623.1 2863.13L1616.01 3324.71H1589.05L1565.32 1775.85L1562.78 1609.97H1642.27Z" fill="#181818"/>
<path d="M1562.78 1609.97H1642.27L1639.73 1775.85H1565.32L1562.78 1609.97Z" fill="#263238"/>
<path d="M2171.51 1609.97L2168.97 1775.85L2152.87 2828.12L2152.34 2863.13L2145.25 3324.71H2118.29L2111.2 2863.13L2110.67 2828.12L2094.57 1775.85L2092.03 1609.97H2171.51Z" fill="#181818"/>
<path d="M2092.03 1609.97H2171.51L2168.97 1775.85H2094.57L2092.03 1609.97Z" fill="#263238"/>
<path d="M2459.59 1532.76H1531.18V1623.62H2459.59V1532.76Z" fill="#00E340"/>
<path opacity="0.1" d="M2278.57 1532.76H1531.18V1623.62H2278.57V1532.76Z" fill="#263238"/>
<path d="M2518.68 732.853L2459.42 1532.76H1905.66L1900.67 1455.99L1852.79 726.025L2444.45 732.065L2518.68 732.853Z" fill="#00E340"/>
<path opacity="0.1" d="M2444.45 732.065L2403.74 1532.76H1905.66L1900.67 1455.99L1852.79 726.025L2444.45 732.065Z" fill="#263238"/>
<path d="M2465.11 1455.99L2459.42 1532.76H1905.66L1900.67 1455.99H2465.11Z" fill="#263238"/>
<path d="M1794.41 298.236C1685.69 414.134 1675.62 699.327 1824.96 884.116C1951.36 1040.54 2228.93 1058.49 2343.08 956.421C2464.23 848.138 2444.36 674.204 2342.29 606.276C2243.73 540.711 2130.63 554.892 2069.71 483.288C2040.47 448.973 2026.73 374.13 1985.85 321.608C1940.24 263.134 1850.08 238.799 1794.41 298.236Z" fill="#263238"/>
<path d="M1925.01 736.53C1896.73 923.945 1871.87 1069.17 1823.9 1109.87C1785.21 1142.44 1728.58 1168.78 1669.58 1189.53C1606.41 1210.87 1541.9 1228.04 1476.47 1240.91C1456.34 1245.03 1439.53 1248.09 1427.63 1250.37C1398.13 1255.79 1326.17 1065.32 1344.38 1038.88C1348.58 1032.84 1367.67 1026.27 1394.71 1019.53C1485.84 996.95 1667.65 972.615 1677.28 960.973C1686.91 949.33 1736.72 864.158 1804.21 752.549C1850.78 675.429 1893.32 649.344 1914.07 666.763C1925.71 676.655 1930.44 700.377 1925.01 736.53Z" fill="#EB9481"/>
<path d="M1476.47 1240.91C1447.2 1258.42 1416.78 1273.95 1385.44 1287.4C1360.23 1297.02 1286.96 1322.41 1273.65 1296.15C1264.9 1277.94 1305.87 1257.81 1334.93 1242.93C1350.16 1235.05 1368.28 1216.67 1362.76 1207.21C1353.22 1189.7 1314.09 1211.24 1288.71 1228.92C1239.6 1263.06 1174.91 1322.67 1141.65 1298.95C1128.95 1290.2 1141.65 1270.85 1160.03 1251.59C1128.95 1274.88 1095.25 1294.57 1081.25 1285.21C1077.55 1282.79 1074.89 1279.07 1073.82 1274.79C1072.75 1270.5 1073.34 1265.97 1075.47 1262.1C1071.49 1264.36 1066.92 1265.39 1062.35 1265.05C1057.78 1264.71 1053.42 1263.01 1049.82 1260.17C1038.27 1249.84 1042.12 1232.95 1052.36 1215.09C1050.35 1215.05 1048.38 1214.52 1046.61 1213.56C1044.85 1212.61 1043.34 1211.24 1042.21 1209.58C1016.73 1176.92 1121.78 1068.82 1160.21 1056.39C1273.04 1019.62 1396.55 1019.62 1396.55 1019.62C1443.47 1052.01 1476.56 1240.83 1476.47 1240.91Z" fill="#EB9481"/>
<path d="M1298.51 1147.42C1271.39 1153.71 1246.01 1165.94 1224.19 1183.23C1198.81 1203.89 1179.55 1230.76 1156.44 1253.26C1156.38 1253.32 1156.34 1253.39 1156.31 1253.47C1156.28 1253.55 1156.27 1253.64 1156.27 1253.72C1156.28 1253.81 1156.3 1253.89 1156.33 1253.97C1156.37 1254.05 1156.42 1254.12 1156.48 1254.17C1156.55 1254.23 1156.62 1254.28 1156.7 1254.31C1156.78 1254.33 1156.87 1254.35 1156.95 1254.34C1157.04 1254.34 1157.12 1254.32 1157.2 1254.28C1157.28 1254.25 1157.35 1254.19 1157.4 1254.13C1168.17 1242.4 1180.25 1231.72 1191.54 1220.43C1202.83 1209.14 1213.25 1197.93 1224.98 1187.69C1246.18 1168.85 1271.38 1155.08 1298.69 1147.42C1298.69 1147.42 1298.77 1147.34 1298.51 1147.42Z" fill="#263238"/>
<path d="M1273.13 1100.33C1242.96 1110.11 1213.87 1122.92 1186.29 1138.58C1156.88 1156.7 1134.91 1184.19 1113.29 1210.71C1100.21 1226.59 1087.58 1242.75 1075.38 1259.21C1074.86 1259.91 1075.38 1260.87 1076.35 1260.17C1098.23 1232.86 1120.96 1206.22 1144.54 1180.25C1166.22 1156.02 1192.49 1136.32 1221.83 1122.3C1238.55 1114.25 1255.97 1107.6 1273.21 1100.86C1273.56 1100.77 1273.39 1100.24 1273.13 1100.33Z" fill="#263238"/>
<path d="M1237.32 1060.33C1208.44 1069.08 1183.23 1076 1158.54 1093.85C1130.93 1115.63 1106.14 1140.77 1084.75 1168.7C1073.02 1183.49 1061.73 1198.72 1050.7 1214.04C1050.26 1214.65 1051.31 1215.44 1051.83 1214.83C1077.18 1180.98 1104.69 1148.82 1134.21 1118.54C1148.01 1103.91 1164.02 1091.53 1181.65 1081.86C1199.59 1073.09 1218.25 1065.86 1237.41 1060.24C1237.41 1060.24 1237.41 1060.24 1237.32 1060.33Z" fill="#263238"/>
<path d="M1925.01 736.53C1896.73 923.945 1871.87 1069.17 1823.9 1109.87C1785.21 1142.44 1728.58 1168.78 1669.58 1189.53L1914.07 666.763C1925.71 676.655 1930.44 700.377 1925.01 736.53Z" fill="#263238"/>
<path d="M1936.91 704.141C1936.91 707.03 1936.91 710.094 1936.91 712.895C1936.91 715.696 1936.91 717.797 1936.39 720.423C1932.41 767.209 1924.71 813.604 1913.37 859.168H1905.66H1898.14L1836.86 861.181H1828.11L1767.36 863.195H1759.57L1737.24 863.895L1719.74 864.508C1719.74 864.508 1781.01 747.034 1851.04 676.13C1857.58 669.337 1865 663.449 1873.1 658.622C1904.79 641.728 1936.3 651.707 1936.91 704.141Z" fill="#00E340"/>
<path d="M1902.07 662.737C1904.59 662.737 1906.63 660.699 1906.63 658.185C1906.63 655.671 1904.59 653.633 1902.07 653.633C1899.56 653.633 1897.52 655.671 1897.52 658.185C1897.52 660.699 1899.56 662.737 1902.07 662.737Z" fill="#181818"/>
<path d="M1837.3 760.427C1837.3 761.331 1837.03 762.215 1836.52 762.965C1836.02 763.715 1835.3 764.299 1834.47 764.64C1833.63 764.982 1832.71 765.067 1831.82 764.884C1830.94 764.701 1830.13 764.259 1829.5 763.614C1828.86 762.968 1828.44 762.149 1828.27 761.26C1828.1 760.372 1828.21 759.454 1828.57 758.624C1828.92 757.794 1829.52 757.089 1830.28 756.6C1831.04 756.11 1831.93 755.858 1832.83 755.875C1833.43 755.875 1834.01 755.994 1834.56 756.223C1835.11 756.453 1835.61 756.79 1836.02 757.214C1836.44 757.638 1836.76 758.14 1836.98 758.692C1837.2 759.244 1837.31 759.834 1837.3 760.427Z" fill="#181818"/>
<path d="M1902.07 764.804C1904.59 764.804 1906.63 762.766 1906.63 760.252C1906.63 757.738 1904.59 755.7 1902.07 755.7C1899.56 755.7 1897.52 757.738 1897.52 760.252C1897.52 762.766 1899.56 764.804 1902.07 764.804Z" fill="#181818"/>
<path d="M1867.41 713.158C1869.92 713.158 1871.96 711.12 1871.96 708.606C1871.96 706.092 1869.92 704.054 1867.41 704.054C1864.9 704.054 1862.86 706.092 1862.86 708.606C1862.86 711.12 1864.9 713.158 1867.41 713.158Z" fill="#181818"/>
<path d="M1936.91 704.141C1936.91 707.03 1936.91 710.094 1936.91 712.895C1936.24 713.089 1935.52 713.122 1934.83 712.993C1934.14 712.864 1933.48 712.576 1932.92 712.152C1932.36 711.728 1931.9 711.179 1931.59 710.548C1931.28 709.918 1931.11 709.223 1931.11 708.518C1931.11 707.814 1931.28 707.119 1931.59 706.488C1931.9 705.858 1932.36 705.309 1932.92 704.884C1933.48 704.46 1934.14 704.172 1934.83 704.043C1935.52 703.914 1936.24 703.948 1936.91 704.141Z" fill="#181818"/>
<path d="M1768.06 862.232C1768.07 862.966 1767.89 863.69 1767.53 864.333H1759.74C1759.29 863.628 1759.04 862.808 1759.04 861.969C1759.31 861.018 1759.89 860.181 1760.68 859.586C1761.47 858.99 1762.43 858.667 1763.42 858.667C1764.41 858.667 1765.37 858.99 1766.16 859.586C1766.95 860.181 1767.52 861.018 1767.79 861.969L1768.06 862.232Z" fill="#181818"/>
<path d="M1837.3 861.969H1828.54C1828.82 861.018 1829.39 860.181 1830.18 859.586C1830.97 858.99 1831.93 858.667 1832.92 858.667C1833.91 858.667 1834.87 858.99 1835.66 859.586C1836.45 860.181 1837.03 861.018 1837.3 861.969Z" fill="#181818"/>
<path d="M1905.75 859.693H1898.22C1898.62 859.025 1899.18 858.471 1899.86 858.087C1900.53 857.704 1901.3 857.503 1902.07 857.505C1902.82 857.54 1903.54 857.758 1904.19 858.14C1904.83 858.522 1905.36 859.055 1905.75 859.693Z" fill="#181818"/>
<path d="M1798.17 815.225C1800.68 815.225 1802.72 813.187 1802.72 810.673C1802.72 808.159 1800.68 806.121 1798.17 806.121C1795.66 806.121 1793.62 808.159 1793.62 810.673C1793.62 813.187 1795.66 815.225 1798.17 815.225Z" fill="#181818"/>
<path d="M1867.41 815.225C1869.92 815.225 1871.96 813.187 1871.96 810.673C1871.96 808.159 1869.92 806.121 1867.41 806.121C1864.9 806.121 1862.86 808.159 1862.86 810.673C1862.86 813.187 1864.9 815.225 1867.41 815.225Z" fill="#181818"/>
<path d="M1936.91 704.141C1936.91 707.03 1936.91 710.094 1936.91 712.895C1936.91 715.696 1936.91 717.797 1936.39 720.423C1932.41 767.209 1924.71 813.604 1913.37 859.168H1905.66H1898.14L1836.86 861.181H1828.11L1767.36 863.195H1759.57L1737.24 863.895L1872.66 658.798C1904.79 641.728 1936.3 651.707 1936.91 704.141Z" fill="#263238"/>
<path d="M1504.05 2950.58C1525.67 2946.91 2050.89 2666.09 2064.28 2642.72C2069.36 2633.96 2032.94 2555.18 1986.2 2460.91C1976.04 2440.6 1965.54 2419.68 1954.68 2398.49C1884.66 2260.89 1806.92 2116.54 1806.92 2116.54L1455.03 2303.43L1612.59 2580.22L1647.08 2641.05C1647.08 2641.05 1493.98 2838.54 1482.16 2865.67C1470.35 2892.81 1482.43 2954.26 1504.05 2950.58Z" fill="#EB9481"/>
<path d="M1504.05 2950.58C1525.67 2946.91 2050.89 2666.09 2064.28 2642.72C2070.41 2631.86 2015.35 2517.72 1954.68 2398.49L1612.5 2580.22L1646.99 2641.05C1646.99 2641.05 1493.98 2838.54 1482.16 2865.67C1470.35 2892.81 1482.43 2954.26 1504.05 2950.58Z" fill="#181818"/>
<path d="M1504.05 2950.58C1525.67 2946.91 2050.89 2666.09 2064.28 2642.72C2069.36 2633.96 2032.94 2555.18 1986.2 2460.91L1646.99 2641.05C1646.99 2641.05 1493.98 2838.54 1482.16 2865.67C1470.35 2892.81 1482.43 2954.26 1504.05 2950.58Z" fill="#00E340"/>
<path d="M1500.37 2925.55C1587.29 2876.35 1942.34 2685.87 2031.98 2643.86C2032.68 2643.86 2032.94 2643.86 2031.98 2644.38C1946.98 2695.07 1590.36 2882.57 1500.9 2927.04C1499.23 2927.91 1498.53 2926.6 1500.37 2925.55Z" fill="#263238"/>
<path d="M1505.8 2828.73C1515.45 2823.24 1526.14 2819.81 1537.18 2818.66C1548.23 2817.52 1559.39 2818.68 1569.96 2822.08C1589.07 2827.98 1605.13 2841.07 1614.78 2858.58C1614.78 2859.11 1614.08 2859.63 1613.73 2859.11C1601.42 2843.27 1584.3 2831.86 1564.95 2826.58C1545.6 2821.31 1525.05 2822.46 1506.41 2829.87C1505.71 2830.13 1505.1 2829.17 1505.8 2828.73Z" fill="#263238"/>
<path d="M1617.49 2668.02C1652.51 2648.67 1699.95 2639.3 1737.24 2656.37C1738.73 2657.07 1737.77 2659.09 1736.37 2659.18C1696.93 2659.5 1657.64 2664.02 1619.16 2672.66C1618.54 2672.88 1617.86 2672.84 1617.27 2672.56C1616.68 2672.29 1616.23 2671.78 1616.01 2671.17C1615.79 2670.55 1615.82 2669.87 1616.1 2669.28C1616.38 2668.69 1616.88 2668.24 1617.49 2668.02Z" fill="#263238"/>
<path d="M1595.96 2693.23C1630.98 2673.88 1678.42 2664.43 1715.71 2681.58C1717.2 2682.2 1716.24 2684.3 1714.84 2684.3C1675.39 2684.61 1636.1 2689.16 1597.62 2697.87C1597.32 2697.98 1597 2698.02 1596.67 2698.01C1596.35 2697.99 1596.03 2697.91 1595.74 2697.77C1595.45 2697.64 1595.18 2697.44 1594.97 2697.2C1594.75 2696.96 1594.58 2696.68 1594.47 2696.38C1594.36 2696.07 1594.32 2695.75 1594.33 2695.43C1594.35 2695.1 1594.43 2694.79 1594.56 2694.49C1594.7 2694.2 1594.9 2693.94 1595.14 2693.72C1595.38 2693.5 1595.66 2693.34 1595.96 2693.23Z" fill="#263238"/>
<path d="M1574.43 2718.35C1609.44 2699 1656.89 2689.64 1694.18 2706.71C1695.66 2707.41 1694.7 2709.42 1693.3 2709.42C1653.86 2709.74 1614.56 2714.29 1576.09 2722.99C1575.47 2723.21 1574.8 2723.18 1574.21 2722.9C1573.61 2722.62 1573.16 2722.12 1572.94 2721.5C1572.72 2720.89 1572.75 2720.21 1573.03 2719.62C1573.31 2719.03 1573.81 2718.57 1574.43 2718.35Z" fill="#263238"/>
<path d="M1552.89 2743.47C1587.91 2724.13 1635.35 2714.76 1672.64 2731.83C1674.13 2732.53 1673.17 2734.54 1671.77 2734.63C1632.32 2734.95 1593.03 2739.5 1554.56 2748.2C1553.96 2748.31 1553.35 2748.2 1552.83 2747.89C1552.31 2747.59 1551.91 2747.11 1551.71 2746.54C1551.51 2745.97 1551.52 2745.35 1551.74 2744.79C1551.95 2744.23 1552.36 2743.76 1552.89 2743.47Z" fill="#263238"/>
<path d="M1964.84 2572.43C2004.4 2551.42 2037.14 2612.96 1997.49 2633.7C1957.84 2654.45 1925.18 2593.26 1964.84 2572.43Z" fill="#263238"/>
<path d="M1559.55 2644.56C1591.67 2658.91 1628.87 2658.82 1663.28 2662.76C1664.05 2662.8 1664.81 2662.65 1665.51 2662.32C1666.21 2662 1666.82 2661.51 1667.29 2660.9C1667.76 2660.29 1668.08 2659.58 1668.22 2658.82C1668.36 2658.07 1668.31 2657.29 1668.09 2656.55C1668.24 2656.5 1668.38 2656.41 1668.49 2656.29C1668.6 2656.18 1668.69 2656.04 1668.74 2655.89C1668.79 2655.74 1668.8 2655.58 1668.78 2655.42C1668.76 2655.26 1668.7 2655.11 1668.62 2654.97C1648.74 2624.04 1621.09 2598.87 1588.43 2581.97C1569.26 2572.51 1539.06 2570.06 1529.08 2594.4C1519.1 2618.73 1540.72 2636.15 1559.55 2644.56ZM1542.04 2616.19C1525.06 2576.02 1575.39 2586.96 1589.22 2594.49C1598.15 2599.52 1606.72 2605.17 1614.87 2611.38C1631.94 2623.99 1646.91 2638.78 1662.58 2652.96C1645.86 2649.98 1628.96 2648.5 1612.15 2646.13C1592.28 2643.33 1551.75 2638.34 1542.3 2616.19H1542.04Z" fill="#263238"/>
<path d="M1781.8 2565.51C1766.74 2543.98 1738.03 2553.08 1721.14 2566.56C1693.02 2590.26 1671.62 2620.93 1659.07 2655.5C1659.02 2655.65 1659 2655.81 1659.02 2655.97C1659.03 2656.12 1659.09 2656.28 1659.17 2656.41C1659.26 2656.55 1659.37 2656.66 1659.5 2656.74C1659.64 2656.83 1659.79 2656.88 1659.95 2656.9C1659.92 2657.67 1660.06 2658.44 1660.37 2659.14C1660.69 2659.85 1661.16 2660.47 1661.75 2660.96C1662.34 2661.45 1663.04 2661.8 1663.79 2661.98C1664.55 2662.15 1665.33 2662.15 1666.08 2661.98C1698.73 2650.51 1735.06 2642.28 1763.15 2621.18C1779.35 2608.84 1795.98 2585.91 1781.8 2565.51ZM1711.77 2634.49C1695.84 2640.53 1679.73 2645.69 1663.98 2652C1676.14 2634.49 1687.52 2616.98 1701.44 2600.88C1708 2593.03 1715.08 2585.63 1722.63 2578.73C1734.44 2568.31 1781.19 2546.52 1773.48 2589.5C1769.46 2613.48 1730.94 2627.31 1712.03 2634.49H1711.77Z" fill="#263238"/>
<path d="M1700.57 1802.11C1709.32 1904.61 1945.14 2353.59 1945.14 2353.59L1635.18 2508.96L1573.11 2540.13C1573.11 2540.13 1286.26 2034.43 1301.75 1806.83C1314.97 1613.73 1649.27 1370.38 1854.89 1132.81H2132.03C2044.5 1402.16 1723.76 1699.52 1701.35 1790.29C1700.51 1794.17 1700.25 1798.15 1700.57 1802.11Z" fill="black"/>
<path d="M1572.76 2465.55C1634.04 2432.89 1615.74 2441.47 1677.02 2409.52C1707.04 2393.85 1857.61 2314.98 1887.98 2305C1888.14 2304.96 1888.3 2304.98 1888.45 2305.04C1888.59 2305.11 1888.71 2305.22 1888.78 2305.37C1888.86 2305.51 1888.88 2305.68 1888.84 2305.83C1888.81 2305.99 1888.72 2306.13 1888.59 2306.23C1862.33 2324.96 1710.46 2400.68 1680.17 2415.74C1618.37 2446.55 1635.79 2437.1 1573.64 2467.21C1573.53 2467.3 1573.4 2467.37 1573.26 2467.41C1573.12 2467.44 1572.97 2467.45 1572.83 2467.42C1572.69 2467.39 1572.56 2467.33 1572.44 2467.25C1572.33 2467.16 1572.23 2467.05 1572.16 2466.92C1572.1 2466.79 1572.06 2466.65 1572.05 2466.51C1572.05 2466.37 1572.08 2466.22 1572.13 2466.09C1572.19 2465.96 1572.28 2465.84 1572.39 2465.75C1572.5 2465.65 1572.62 2465.58 1572.76 2465.55Z" fill="#263238"/>
<path d="M2099.47 1174.65C2011.54 1323.41 1912.02 1465.02 1801.85 1598.15C1774.88 1630.54 1747.05 1662.05 1719.12 1693.65C1695.49 1719.91 1671.59 1749.94 1667.04 1786.53C1662.05 1827.32 1679.82 1866.97 1694.09 1904.09C1709.84 1945.05 1725.78 1985.93 1742.41 2026.64C1760.44 2070.41 1779.26 2114.17 1800.18 2156.28C1810.92 2177.99 1822.15 2199.43 1833.88 2220.62C1839.72 2231.18 1845.76 2241.69 1852 2252.13C1855.07 2257.38 1876.78 2293.19 1879.93 2298.44C1880.98 2300.1 1883.6 2302.11 1880.98 2297.74C1875.03 2287.93 1850.78 2247.32 1845.18 2237.34C1823.12 2197.95 1803.42 2157.42 1784.78 2116.28C1766.13 2075.13 1748.27 2032.42 1731.47 1989.96C1714.66 1947.51 1697.33 1905.84 1683.06 1863.38C1674.62 1841.65 1670.43 1818.5 1670.72 1795.19C1672.56 1772.69 1680.56 1751.13 1693.83 1732.87C1717.64 1697.85 1749.5 1667.39 1776.9 1635.09C1833.85 1568.04 1887.95 1498.71 1939.19 1427.1C1997.45 1346.11 2051.44 1262.14 2100.96 1175.52C2100.96 1174.56 2099.91 1174.04 2099.47 1174.65Z" fill="#263238"/>
<path d="M1945.14 2353.59L1635.18 2508.96L1700.57 1802.11C1709.32 1904.61 1945.14 2353.59 1945.14 2353.59Z" fill="#263238"/>
<path d="M1828.63 3500.31C1850.6 3500.31 2415.74 3312.11 2432.63 3291.36C2439.11 3283.48 2416.52 3199.62 2386.32 3098.78C2379.85 3077.07 2372.93 3055.01 2365.84 3031.99C2319.97 2884.58 2267.8 2729.12 2267.8 2729.12L1889.38 2853.94L1997.93 3153.32L2021.65 3219.06C2021.65 3219.06 1837.82 3387.91 1821.28 3412.69C1804.73 3437.46 1806.75 3499.79 1828.63 3500.31Z" fill="#EB9481"/>
<path d="M1828.63 3500.31C1850.6 3500.31 2415.74 3312.11 2432.63 3291.36C2440.51 3281.73 2405.49 3160.06 2365.84 3032.17L1998.19 3153.49L2021.91 3219.23C2021.91 3219.23 1838.09 3388.09 1821.54 3412.86C1805 3437.63 1806.75 3499.78 1828.63 3500.31Z" fill="#181818"/>
<path d="M1828.63 3500.31C1850.6 3500.31 2415.74 3312.11 2432.63 3291.36C2439.11 3283.48 2416.52 3199.62 2386.32 3098.78L2021.65 3219.06C2021.65 3219.06 1837.82 3387.91 1821.28 3412.69C1804.73 3437.46 1806.75 3499.79 1828.63 3500.31Z" fill="#00E340"/>
<path d="M1829.24 3474.49C1923.17 3440.7 2305.35 3312.9 2400.77 3286.63C2401.56 3286.63 2401.73 3286.63 2400.77 3287.16C2308.42 3322.79 1925.27 3447.44 1829.59 3476.06C1827.76 3476.68 1827.23 3475.28 1829.24 3474.49Z" fill="#263238"/>
<path d="M1850.95 3380.04C1861.38 3376.24 1872.49 3374.66 1883.56 3375.38C1894.64 3376.11 1905.44 3379.12 1915.29 3384.24C1933.16 3393.36 1946.81 3409.04 1953.37 3428.01C1953.37 3428.53 1952.5 3428.88 1952.23 3428.01C1942.77 3410.31 1927.83 3396.17 1909.65 3387.69C1891.47 3379.22 1871.02 3376.87 1851.39 3381C1850.6 3381.35 1850.17 3380.3 1850.95 3380.04Z" fill="#263238"/>
<path d="M1988.12 3240.5C2025.85 3227.28 2074.26 3226.06 2108.13 3249.26C2109.45 3250.13 2108.13 3251.97 2106.82 3251.79C2067.89 3245.44 2028.39 3243.26 1989 3245.32C1988.38 3245.39 1987.75 3245.23 1987.25 3244.86C1986.75 3244.49 1986.4 3243.94 1986.29 3243.32C1986.18 3242.71 1986.31 3242.07 1986.65 3241.55C1986.99 3241.02 1987.52 3240.65 1988.12 3240.5Z" fill="#263238"/>
<path d="M1962.65 3261.6C2000.38 3248.47 2048.79 3247.24 2082.66 3270.35C2083.97 3271.32 2082.66 3273.15 2081.35 3272.89C2042.41 3266.56 2002.92 3264.42 1963.53 3266.5C1962.94 3266.49 1962.37 3266.27 1961.93 3265.89C1961.48 3265.51 1961.18 3264.99 1961.08 3264.41C1960.97 3263.83 1961.07 3263.23 1961.36 3262.72C1961.65 3262.21 1962.1 3261.81 1962.65 3261.6Z" fill="#263238"/>
<path d="M1936.91 3282.78C1974.64 3269.65 2023.05 3268.34 2056.93 3291.54C2058.24 3292.41 2056.93 3294.25 2055.7 3294.07C2016.74 3287.75 1977.21 3285.6 1937.79 3287.68C1937.2 3287.67 1936.64 3287.46 1936.19 3287.08C1935.74 3286.7 1935.44 3286.17 1935.34 3285.59C1935.24 3285.01 1935.34 3284.42 1935.62 3283.91C1935.91 3283.39 1936.37 3283 1936.91 3282.78Z" fill="#263238"/>
<path d="M1911.7 3303.97C1949.43 3290.75 1997.84 3289.52 2031.72 3312.72C2033.03 3313.6 2031.72 3315.43 2030.49 3315.26C1991.53 3308.9 1952 3306.73 1912.58 3308.78C1911.96 3308.86 1911.33 3308.69 1910.83 3308.32C1910.33 3307.95 1909.98 3307.4 1909.87 3306.79C1909.76 3306.17 1909.89 3305.54 1910.23 3305.01C1910.57 3304.49 1911.1 3304.11 1911.7 3303.97Z" fill="#263238"/>
<path d="M2346.67 3204.61C2389.3 3190.61 2411.18 3257.13 2368.47 3270.79C2325.75 3284.45 2304.04 3218.71 2346.67 3204.61Z" fill="#263238"/>
<path d="M1934.99 3207.5C1964.22 3227.11 2000.99 3233.33 2034.17 3243.04C2037.58 3244 2040.03 3240.68 2039.94 3237.7C2040.1 3237.67 2040.26 3237.61 2040.39 3237.52C2040.53 3237.42 2040.64 3237.3 2040.72 3237.16C2040.81 3237.02 2040.86 3236.86 2040.87 3236.7C2040.89 3236.53 2040.87 3236.37 2040.82 3236.21C2026.43 3202.35 2003.4 3172.86 1974.03 3150.69C1956.52 3138.17 1927.37 3130.65 1913.45 3152.97C1899.54 3175.29 1917.92 3196.03 1934.99 3207.5ZM1922.82 3176.43C1912.84 3133.88 1960.55 3153.23 1972.98 3163.03C1980.91 3169.5 1988.39 3176.49 1995.39 3183.95C2009.56 3199.63 2022.91 3216.02 2035.39 3233.06C2019.37 3227.29 2003 3222.91 1986.81 3217.74C1967.46 3211.88 1928.16 3200.15 1922.82 3176.43Z" fill="#263238"/>
<path d="M2167.4 3167.67C2156.19 3143.86 2126.17 3147.89 2107.43 3158.39C2075.73 3177.02 2049.47 3203.64 2031.28 3235.6C2031.19 3235.74 2031.14 3235.9 2031.12 3236.06C2031.1 3236.22 2031.13 3236.39 2031.19 3236.54C2031.25 3236.7 2031.34 3236.83 2031.46 3236.94C2031.59 3237.05 2031.73 3237.13 2031.89 3237.18C2031.45 3240.07 2033.47 3243.74 2037.06 3243.13C2071.19 3237.35 2108.31 3235.43 2139.65 3219.32C2157.94 3209.51 2177.99 3189.64 2167.4 3167.67ZM2086.95 3223.78C2070.23 3227.02 2053.51 3229.47 2036.88 3233.32C2051.85 3218.27 2066.03 3202.69 2082.4 3189.56C2090.19 3182.91 2098.43 3176.83 2107.08 3171.35C2120.48 3163.03 2170.2 3149.38 2155.4 3190.52C2147 3212.32 2106.91 3219.49 2086.95 3223.35V3223.78Z" fill="#263238"/>
<path d="M1956.26 3120.75L2365.84 2985.77C2365.84 2985.77 2169.06 2419.15 2122.23 2134.75C2097.54 1985.15 2213.88 1560.25 2255.2 1517.27C2360.76 1407.41 2365.49 1292.47 2289.07 1132.11H1943.39C1943.39 1132.11 1964.58 1301.75 1961.6 1308.49C1884.39 1483.48 1660.3 1875.99 1696.71 2169.76C1756.06 2649.37 1956.26 3120.75 1956.26 3120.75Z" fill="black"/>
<path d="M1944.09 3036.37C2028.3 3002.58 2297.04 2914.78 2326.89 2909.7C2327.59 2909.7 2327.94 2910.67 2327.33 2910.93C2301.06 2925.46 2159.96 2973.69 1944.71 3038.21C1944.58 3038.25 1944.46 3038.26 1944.33 3038.25C1944.2 3038.24 1944.08 3038.21 1943.97 3038.15C1943.85 3038.1 1943.75 3038.02 1943.67 3037.92C1943.58 3037.83 1943.52 3037.71 1943.48 3037.59C1943.44 3037.47 1943.42 3037.35 1943.43 3037.22C1943.44 3037.09 1943.48 3036.97 1943.53 3036.85C1943.59 3036.74 1943.67 3036.64 1943.76 3036.56C1943.86 3036.47 1943.97 3036.41 1944.09 3036.37Z" fill="#263238"/>
<path d="M1934.73 1139.02C1940.33 1183.4 1942.08 1259.47 1967.9 1259.47C1993.72 1259.47 1984.88 1166.68 1984.62 1145.67C1984.62 1126.24 1991.1 1128.6 1992.94 1151.45C1997.75 1213.25 1998.71 1267.96 1965.63 1267C1932.54 1266.04 1928.16 1169.57 1928.16 1147.6C1928.16 1136.22 1932.97 1125.02 1934.73 1139.02Z" fill="#263238"/>
<path d="M1966.33 1262.45C1968.65 1277.98 1969.03 1293.74 1967.46 1309.37C1967.46 1310.68 1962.12 1309.89 1961.6 1308.93C1958.19 1302.63 1959.24 1272.08 1958.01 1263.94C1957.81 1262.83 1958.06 1261.7 1958.7 1260.78C1959.34 1259.86 1960.32 1259.23 1961.42 1259.03C1962.53 1258.84 1963.66 1259.08 1964.58 1259.72C1965.5 1260.37 1966.13 1261.34 1966.33 1262.45Z" fill="#263238"/>
<path d="M1961.6 1308.93C1898.22 1419.14 1805.61 1627.04 1799.22 1665.38C1799.22 1667.3 1800.97 1668.27 1801.76 1666.34C1816.2 1631.33 1912.75 1422.03 1967.46 1309.37C1968.6 1307.18 1962.65 1307 1961.6 1308.93Z" fill="#263238"/>
<path d="M2136.15 1798.26C2163.63 1692.07 2195.85 1585.28 2251.87 1490.22C2267.36 1463.96 2286.1 1439.53 2300.71 1412.83C2314.57 1388.02 2322.14 1360.19 2322.77 1331.78C2323.91 1270.5 2297.83 1212.38 2272.53 1158.02C2271.83 1156.44 2269.46 1158.02 2270.25 1159.5C2294.59 1212.03 2319.97 1268.84 2319.53 1328.01C2319.3 1357.09 2311.65 1385.62 2297.3 1410.91C2284.35 1434.28 2268.24 1455.73 2254.41 1478.49C2198.03 1570.75 2164.33 1674.57 2136.76 1778.56C2107.43 1889.47 2072.51 2003.53 2086.43 2119.34C2094.73 2176.56 2107.04 2233.14 2123.28 2288.63C2138.95 2347.46 2155.32 2406.11 2171.95 2464.76C2209.24 2596.06 2246.62 2728.24 2290.04 2857.97C2290.04 2858.41 2291 2857.97 2290.82 2857.97C2256.42 2740.32 2219.83 2623.46 2186.57 2505.46C2170.11 2446.81 2154 2388.08 2138.25 2329.25C2122.58 2270.6 2105.6 2212.04 2095.35 2152.17C2084.81 2091.53 2084.98 2029.52 2095.88 1968.95C2106.21 1911.27 2121.53 1854.63 2136.15 1798.26Z" fill="#263238"/>
<path d="M2303.08 1141.82C2286.86 1151.36 2270.05 1159.84 2252.74 1167.21L2244.52 1170.53C2196.34 1189.43 2145.9 1201.93 2094.48 1207.74C1940.68 1226.47 1795.54 1194.43 1783.29 1174.47L1799.66 1019.1L1800.53 1010.34L1802.72 989.247C1802.72 989.247 1764.73 940.577 1762.72 884.203C1762.62 878.117 1763.21 872.04 1764.47 866.083C1764.9 863.457 1765.52 860.744 1766.22 857.855C1777.42 812.336 1813.66 744.933 1844.56 698.189C1854.53 682.463 1865.74 667.564 1878.09 653.633C1913.1 616.78 1952.23 608.377 1990.66 618.618C2008.25 623.725 2024.88 631.711 2039.86 642.253C2076.5 668.847 2107.68 702.253 2131.68 740.644C2159.34 782.924 2188.76 844.9 2215.19 907.488C2216.15 909.676 2217.03 911.865 2217.9 914.053C2265.44 1028.38 2303.08 1141.82 2303.08 1141.82Z" fill="#00E340"/>
<path d="M1906.63 658.185C1906.63 659.392 1906.15 660.55 1905.29 661.403C1904.44 662.257 1903.28 662.737 1902.07 662.737C1901.17 662.737 1900.29 662.47 1899.55 661.969C1898.8 661.469 1898.21 660.758 1897.87 659.927C1897.52 659.095 1897.43 658.18 1897.61 657.297C1897.79 656.414 1898.22 655.603 1898.86 654.966C1899.49 654.329 1900.3 653.896 1901.19 653.72C1902.07 653.545 1902.98 653.635 1903.82 653.979C1904.65 654.324 1905.36 654.907 1905.86 655.656C1906.36 656.404 1906.63 657.284 1906.63 658.185ZM1971.32 653.72C1970.41 653.721 1969.53 653.99 1968.78 654.494C1968.03 654.998 1967.44 655.714 1967.1 656.551C1966.76 657.388 1966.68 658.308 1966.86 659.193C1967.04 660.078 1967.48 660.889 1968.13 661.522C1968.77 662.155 1969.59 662.581 1970.48 662.747C1971.37 662.913 1972.29 662.81 1973.12 662.452C1973.95 662.094 1974.65 661.497 1975.14 660.737C1975.63 659.977 1975.89 659.089 1975.87 658.185C1975.87 657.591 1975.75 657.003 1975.52 656.456C1975.29 655.908 1974.95 655.412 1974.53 654.997C1974.11 654.581 1973.6 654.254 1973.05 654.035C1972.5 653.816 1971.91 653.709 1971.32 653.72ZM2040.64 653.72C2039.74 653.703 2038.85 653.957 2038.08 654.451C2037.32 654.944 2036.72 655.654 2036.37 656.49C2036.01 657.325 2035.92 658.247 2036.09 659.138C2036.26 660.029 2036.7 660.848 2037.34 661.49C2037.98 662.132 2038.8 662.567 2039.69 662.74C2040.58 662.913 2041.5 662.815 2042.34 662.46C2043.18 662.105 2043.88 661.508 2044.38 660.746C2044.87 659.984 2045.13 659.092 2045.11 658.185C2045.11 657.001 2044.64 655.865 2043.8 655.028C2042.96 654.191 2041.83 653.72 2040.64 653.72ZM1832.83 755.7C1832.24 755.7 1831.64 755.818 1831.09 756.047C1830.54 756.275 1830.04 756.611 1829.61 757.033C1829.19 757.456 1828.86 757.958 1828.63 758.51C1828.4 759.062 1828.28 759.654 1828.28 760.252C1828.09 760.929 1828.05 761.642 1828.18 762.335C1828.31 763.028 1828.6 763.681 1829.02 764.243C1829.45 764.806 1830 765.262 1830.63 765.576C1831.26 765.891 1831.95 766.054 1832.66 766.054C1833.36 766.054 1834.06 765.891 1834.69 765.576C1835.32 765.262 1835.87 764.806 1836.29 764.243C1836.72 763.681 1837 763.028 1837.13 762.335C1837.26 761.642 1837.23 760.929 1837.04 760.252C1837.06 759.097 1836.64 757.977 1835.85 757.129C1835.07 756.28 1833.99 755.768 1832.83 755.7ZM1902.07 755.7C1901.48 755.7 1900.89 755.818 1900.33 756.047C1899.78 756.275 1899.28 756.611 1898.86 757.033C1898.43 757.456 1898.1 757.958 1897.87 758.51C1897.64 759.062 1897.52 759.654 1897.52 760.252C1897.52 761.459 1898 762.617 1898.86 763.471C1899.71 764.324 1900.87 764.804 1902.07 764.804C1903.27 764.781 1904.42 764.295 1905.27 763.446C1906.12 762.597 1906.6 761.452 1906.63 760.252C1906.63 759.639 1906.5 759.033 1906.26 758.469C1906.02 757.905 1905.67 757.395 1905.23 756.97C1904.79 756.545 1904.27 756.213 1903.7 755.995C1903.12 755.777 1902.51 755.677 1901.9 755.7H1902.07ZM1971.32 755.7C1970.72 755.7 1970.13 755.818 1969.59 756.048C1969.04 756.278 1968.54 756.615 1968.13 757.038C1967.71 757.462 1967.38 757.965 1967.17 758.517C1966.95 759.068 1966.84 759.658 1966.85 760.252C1966.85 761.156 1967.12 762.039 1967.63 762.79C1968.13 763.54 1968.85 764.123 1969.68 764.465C1970.52 764.807 1971.44 764.892 1972.32 764.709C1973.21 764.526 1974.02 764.084 1974.65 763.438C1975.29 762.793 1975.71 761.974 1975.88 761.085C1976.04 760.196 1975.94 759.278 1975.58 758.448C1975.23 757.618 1974.63 756.914 1973.87 756.424C1973.11 755.935 1972.22 755.683 1971.32 755.7ZM2040.64 755.7C2040.05 755.7 2039.45 755.818 2038.9 756.047C2038.35 756.275 2037.85 756.611 2037.43 757.033C2037 757.456 2036.67 757.958 2036.44 758.51C2036.21 759.062 2036.09 759.654 2036.09 760.252C2035.9 760.929 2035.87 761.642 2035.99 762.335C2036.12 763.028 2036.41 763.681 2036.84 764.243C2037.26 764.806 2037.81 765.262 2038.44 765.576C2039.07 765.891 2039.76 766.054 2040.47 766.054C2041.17 766.054 2041.87 765.891 2042.5 765.576C2043.13 765.262 2043.68 764.806 2044.1 764.243C2044.53 763.681 2044.82 763.028 2044.94 762.335C2045.07 761.642 2045.04 760.929 2044.85 760.252C2044.87 759.097 2044.45 757.977 2043.66 757.129C2042.88 756.28 2041.8 755.768 2040.64 755.7ZM2109.89 755.7C2109.29 755.7 2108.7 755.818 2108.14 756.047C2107.59 756.275 2107.09 756.611 2106.67 757.033C2106.24 757.456 2105.91 757.958 2105.68 758.51C2105.45 759.062 2105.33 759.654 2105.33 760.252C2105.33 761.459 2105.81 762.617 2106.67 763.471C2107.52 764.324 2108.68 764.804 2109.89 764.804C2111.09 764.781 2112.23 764.295 2113.08 763.446C2113.93 762.597 2114.42 761.452 2114.44 760.252C2114.44 759.654 2114.32 759.062 2114.09 758.51C2113.86 757.958 2113.53 757.456 2113.1 757.033C2112.68 756.611 2112.18 756.275 2111.63 756.047C2111.08 755.818 2110.48 755.7 2109.89 755.7ZM1867.41 704.141C1866.51 704.141 1865.62 704.411 1864.87 704.915C1864.12 705.419 1863.54 706.135 1863.2 706.972C1862.86 707.809 1862.77 708.728 1862.95 709.614C1863.14 710.499 1863.58 711.31 1864.22 711.943C1864.87 712.576 1865.69 713.002 1866.58 713.168C1867.47 713.334 1868.38 713.231 1869.21 712.873C1870.04 712.515 1870.75 711.918 1871.24 711.158C1871.73 710.398 1871.98 709.509 1871.96 708.606C1871.96 708.012 1871.84 707.424 1871.61 706.877C1871.38 706.329 1871.05 705.833 1870.62 705.417C1870.2 705.002 1869.7 704.675 1869.15 704.456C1868.59 704.236 1868 704.13 1867.41 704.141ZM1936.74 704.141C1935.83 704.124 1934.94 704.378 1934.18 704.872C1933.42 705.365 1932.82 706.075 1932.46 706.91C1932.11 707.746 1932.01 708.668 1932.18 709.559C1932.36 710.45 1932.79 711.269 1933.43 711.911C1934.08 712.553 1934.89 712.988 1935.79 713.161C1936.68 713.334 1937.6 713.236 1938.43 712.881C1939.27 712.526 1939.98 711.929 1940.47 711.167C1940.97 710.405 1941.22 709.513 1941.2 708.606C1941.2 707.451 1940.76 706.341 1939.96 705.509C1939.16 704.677 1938.07 704.186 1936.91 704.141H1936.74ZM2005.98 704.141C2005.3 703.948 2004.59 703.914 2003.9 704.043C2003.2 704.172 2002.55 704.46 2001.99 704.884C2001.43 705.308 2000.97 705.857 2000.66 706.488C2000.34 707.119 2000.18 707.814 2000.18 708.518C2000.18 709.223 2000.34 709.917 2000.66 710.548C2000.97 711.179 2001.43 711.728 2001.99 712.152C2002.55 712.576 2003.2 712.864 2003.9 712.993C2004.59 713.122 2005.3 713.088 2005.98 712.895C2006.66 713.088 2007.37 713.122 2008.06 712.993C2008.76 712.864 2009.41 712.576 2009.97 712.152C2010.53 711.728 2010.99 711.179 2011.3 710.548C2011.62 709.917 2011.78 709.223 2011.78 708.518C2011.78 707.814 2011.62 707.119 2011.3 706.488C2010.99 705.857 2010.53 705.308 2009.97 704.884C2009.41 704.46 2008.76 704.172 2008.06 704.043C2007.37 703.914 2006.66 703.948 2005.98 704.141ZM2075.22 704.141C2074.32 704.141 2073.43 704.411 2072.68 704.915C2071.93 705.419 2071.35 706.135 2071.01 706.972C2070.67 707.809 2070.58 708.728 2070.76 709.614C2070.95 710.499 2071.39 711.31 2072.03 711.943C2072.68 712.576 2073.5 713.002 2074.39 713.168C2075.28 713.334 2076.19 713.231 2077.02 712.873C2077.85 712.515 2078.56 711.918 2079.05 711.158C2079.54 710.398 2079.79 709.509 2079.77 708.606C2079.77 708.012 2079.66 707.424 2079.43 706.877C2079.2 706.329 2078.86 705.833 2078.43 705.417C2078.01 705.002 2077.51 704.675 2076.96 704.456C2076.4 704.236 2075.81 704.13 2075.22 704.141ZM1765.96 858.468C1765.26 861.356 1764.64 864.07 1764.21 866.696C1765.28 866.547 1766.26 866.012 1766.97 865.19C1767.68 864.368 1768.07 863.317 1768.06 862.232C1768.06 861.476 1767.87 860.733 1767.5 860.073C1767.13 859.413 1766.6 858.86 1765.96 858.468ZM1832.83 857.767C1831.93 857.75 1831.03 858.004 1830.27 858.498C1829.51 858.991 1828.91 859.701 1828.56 860.536C1828.2 861.372 1828.11 862.294 1828.28 863.185C1828.45 864.076 1828.89 864.895 1829.53 865.537C1830.17 866.179 1830.99 866.614 1831.88 866.787C1832.77 866.96 1833.69 866.862 1834.53 866.507C1835.36 866.152 1836.07 865.555 1836.57 864.793C1837.06 864.031 1837.32 863.139 1837.3 862.232C1837.3 861.048 1836.83 859.912 1835.99 859.075C1835.15 858.238 1834.02 857.767 1832.83 857.767ZM1902.07 857.767C1901.4 857.574 1900.68 857.54 1899.99 857.669C1899.3 857.798 1898.65 858.086 1898.08 858.51C1897.52 858.934 1897.06 859.483 1896.75 860.114C1896.44 860.745 1896.27 861.439 1896.27 862.144C1896.27 862.849 1896.44 863.544 1896.75 864.174C1897.06 864.805 1897.52 865.354 1898.08 865.778C1898.65 866.202 1899.3 866.49 1899.99 866.619C1900.68 866.748 1901.4 866.714 1902.07 866.521C1902.75 866.714 1903.47 866.748 1904.16 866.619C1904.85 866.49 1905.5 866.202 1906.07 865.778C1906.63 865.354 1907.09 864.805 1907.4 864.174C1907.71 863.544 1907.88 862.849 1907.88 862.144C1907.88 861.439 1907.71 860.745 1907.4 860.114C1907.09 859.483 1906.63 858.934 1906.07 858.51C1905.5 858.086 1904.85 857.798 1904.16 857.669C1903.47 857.54 1902.75 857.574 1902.07 857.767ZM1971.32 857.767C1970.41 857.767 1969.53 858.037 1968.78 858.541C1968.03 859.045 1967.44 859.761 1967.1 860.598C1966.76 861.435 1966.68 862.355 1966.86 863.24C1967.04 864.125 1967.48 864.936 1968.13 865.569C1968.77 866.202 1969.59 866.628 1970.48 866.794C1971.37 866.96 1972.29 866.857 1973.12 866.499C1973.95 866.141 1974.65 865.544 1975.14 864.784C1975.63 864.024 1975.89 863.135 1975.87 862.232C1975.87 861.638 1975.75 861.05 1975.52 860.503C1975.29 859.955 1974.95 859.459 1974.53 859.043C1974.11 858.628 1973.6 858.301 1973.05 858.082C1972.5 857.862 1971.91 857.756 1971.32 857.767ZM2040.64 857.767C2039.74 857.75 2038.85 858.004 2038.08 858.498C2037.32 858.991 2036.72 859.701 2036.37 860.536C2036.01 861.372 2035.92 862.294 2036.09 863.185C2036.26 864.076 2036.7 864.895 2037.34 865.537C2037.98 866.179 2038.8 866.614 2039.69 866.787C2040.58 866.96 2041.5 866.862 2042.34 866.507C2043.18 866.152 2043.88 865.555 2044.38 864.793C2044.87 864.031 2045.13 863.139 2045.11 862.232C2045.11 861.048 2044.64 859.912 2043.8 859.075C2042.96 858.238 2041.83 857.767 2040.64 857.767ZM2109.89 857.767C2109.21 857.574 2108.5 857.54 2107.8 857.669C2107.11 857.798 2106.46 858.086 2105.89 858.51C2105.33 858.934 2104.88 859.483 2104.56 860.114C2104.25 860.745 2104.08 861.439 2104.08 862.144C2104.08 862.849 2104.25 863.544 2104.56 864.174C2104.88 864.805 2105.33 865.354 2105.89 865.778C2106.46 866.202 2107.11 866.49 2107.8 866.619C2108.5 866.748 2109.21 866.714 2109.89 866.521C2110.56 866.714 2111.28 866.748 2111.97 866.619C2112.66 866.49 2113.31 866.202 2113.88 865.778C2114.44 865.354 2114.9 864.805 2115.21 864.174C2115.52 863.544 2115.69 862.849 2115.69 862.144C2115.69 861.439 2115.52 860.745 2115.21 860.114C2114.9 859.483 2114.44 858.934 2113.88 858.51C2113.31 858.086 2112.66 857.798 2111.97 857.669C2111.28 857.54 2110.56 857.574 2109.89 857.767ZM2179.13 857.767C2178.22 857.767 2177.34 858.037 2176.59 858.541C2175.84 859.045 2175.26 859.761 2174.91 860.598C2174.57 861.435 2174.49 862.355 2174.67 863.24C2174.85 864.125 2175.3 864.936 2175.94 865.569C2176.59 866.202 2177.41 866.628 2178.29 866.794C2179.18 866.96 2180.1 866.857 2180.93 866.499C2181.76 866.141 2182.47 865.544 2182.95 864.784C2183.44 864.024 2183.7 863.135 2183.68 862.232C2183.68 861.638 2183.56 861.05 2183.33 860.503C2183.1 859.955 2182.76 859.459 2182.34 859.043C2181.92 858.628 2181.41 858.301 2180.86 858.082C2180.31 857.862 2179.72 857.756 2179.13 857.767ZM1798.17 806.121C1796.96 806.121 1795.8 806.6 1794.95 807.454C1794.1 808.308 1793.62 809.466 1793.62 810.673C1793.62 811.88 1794.1 813.038 1794.95 813.891C1795.8 814.745 1796.96 815.225 1798.17 815.225C1799.37 815.202 1800.51 814.715 1801.36 813.867C1802.21 813.018 1802.7 811.873 1802.72 810.673C1802.72 810.075 1802.6 809.483 1802.37 808.931C1802.15 808.379 1801.81 807.877 1801.39 807.454C1800.97 807.031 1800.46 806.696 1799.91 806.467C1799.36 806.239 1798.77 806.121 1798.17 806.121ZM1867.41 806.121C1866.82 806.121 1866.23 806.239 1865.68 806.469C1865.13 806.699 1864.64 807.035 1864.22 807.459C1863.81 807.883 1863.48 808.386 1863.26 808.937C1863.04 809.489 1862.93 810.079 1862.95 810.673C1862.95 811.577 1863.22 812.46 1863.72 813.211C1864.22 813.961 1864.94 814.544 1865.78 814.886C1866.61 815.228 1867.53 815.313 1868.42 815.13C1869.3 814.947 1870.11 814.505 1870.75 813.859C1871.38 813.214 1871.81 812.395 1871.97 811.506C1872.14 810.617 1872.04 809.699 1871.68 808.869C1871.32 808.039 1870.72 807.335 1869.96 806.845C1869.2 806.356 1868.31 806.104 1867.41 806.121ZM1936.74 806.121C1935.53 806.121 1934.37 806.6 1933.52 807.454C1932.67 808.308 1932.19 809.466 1932.19 810.673C1931.99 811.35 1931.96 812.063 1932.09 812.756C1932.22 813.449 1932.51 814.102 1932.93 814.664C1933.35 815.227 1933.9 815.683 1934.53 815.997C1935.16 816.311 1935.86 816.475 1936.56 816.475C1937.27 816.475 1937.96 816.311 1938.59 815.997C1939.22 815.683 1939.77 815.227 1940.2 814.664C1940.62 814.102 1940.91 813.449 1941.04 812.756C1941.17 812.063 1941.13 811.35 1940.94 810.673C1940.97 809.546 1940.57 808.45 1939.82 807.606C1939.07 806.762 1938.04 806.231 1936.91 806.121H1936.74ZM2005.98 806.121C2004.77 806.121 2003.62 806.6 2002.76 807.454C2001.91 808.308 2001.43 809.466 2001.43 810.673C2001.43 811.88 2001.91 813.038 2002.76 813.891C2003.62 814.745 2004.77 815.225 2005.98 815.225C2007.18 815.202 2008.33 814.715 2009.17 813.867C2010.02 813.018 2010.51 811.873 2010.53 810.673C2010.53 810.075 2010.41 809.483 2010.19 808.931C2009.96 808.379 2009.62 807.877 2009.2 807.454C2008.78 807.031 2008.27 806.696 2007.72 806.467C2007.17 806.239 2006.58 806.121 2005.98 806.121ZM2075.22 806.121C2074.63 806.121 2074.04 806.239 2073.49 806.469C2072.95 806.699 2072.45 807.035 2072.03 807.459C2071.62 807.883 2071.29 808.386 2071.07 808.937C2070.85 809.489 2070.75 810.079 2070.76 810.673C2070.76 811.577 2071.03 812.46 2071.53 813.211C2072.03 813.961 2072.75 814.544 2073.59 814.886C2074.42 815.228 2075.34 815.313 2076.23 815.13C2077.11 814.947 2077.93 814.505 2078.56 813.859C2079.19 813.214 2079.62 812.395 2079.78 811.506C2079.95 810.617 2079.85 809.699 2079.49 808.869C2079.13 808.039 2078.53 807.335 2077.77 806.845C2077.01 806.356 2076.13 806.104 2075.22 806.121ZM2144.55 806.121C2143.34 806.121 2142.18 806.6 2141.33 807.454C2140.48 808.308 2140 809.466 2140 810.673C2139.8 811.35 2139.77 812.063 2139.9 812.756C2140.03 813.449 2140.32 814.102 2140.74 814.664C2141.17 815.227 2141.71 815.683 2142.35 815.997C2142.98 816.311 2143.67 816.475 2144.38 816.475C2145.08 816.475 2145.77 816.311 2146.41 815.997C2147.04 815.683 2147.58 815.227 2148.01 814.664C2148.43 814.102 2148.72 813.449 2148.85 812.756C2148.98 812.063 2148.95 811.35 2148.75 810.673C2148.78 809.518 2148.35 808.398 2147.57 807.549C2146.79 806.701 2145.7 806.189 2144.55 806.121ZM1832.83 959.747C1831.63 959.747 1830.47 960.226 1829.61 961.08C1828.76 961.934 1828.28 963.092 1828.28 964.299C1828.09 964.976 1828.05 965.689 1828.18 966.382C1828.31 967.075 1828.6 967.728 1829.02 968.29C1829.45 968.853 1830 969.309 1830.63 969.623C1831.26 969.937 1831.95 970.101 1832.66 970.101C1833.36 970.101 1834.06 969.937 1834.69 969.623C1835.32 969.309 1835.87 968.853 1836.29 968.29C1836.72 967.728 1837 967.075 1837.13 966.382C1837.26 965.689 1837.23 964.976 1837.04 964.299C1837.06 963.144 1836.64 962.024 1835.85 961.175C1835.07 960.327 1833.99 959.815 1832.83 959.747ZM1902.07 959.747C1900.87 959.747 1899.71 960.226 1898.86 961.08C1898 961.934 1897.52 963.092 1897.52 964.299C1897.52 965.506 1898 966.664 1898.86 967.518C1899.71 968.371 1900.87 968.851 1902.07 968.851C1903.27 968.828 1904.42 968.341 1905.27 967.493C1906.12 966.644 1906.6 965.499 1906.63 964.299C1906.63 963.686 1906.5 963.079 1906.26 962.515C1906.02 961.951 1905.67 961.442 1905.23 961.017C1904.79 960.592 1904.27 960.26 1903.7 960.042C1903.12 959.824 1902.51 959.723 1901.9 959.747H1902.07ZM1971.32 959.747C1970.72 959.747 1970.13 959.865 1969.59 960.095C1969.04 960.325 1968.54 960.661 1968.13 961.085C1967.71 961.509 1967.38 962.012 1967.17 962.564C1966.95 963.115 1966.84 963.705 1966.85 964.299C1966.85 965.203 1967.12 966.086 1967.63 966.837C1968.13 967.587 1968.85 968.17 1969.68 968.512C1970.52 968.854 1971.44 968.939 1972.32 968.756C1973.21 968.573 1974.02 968.131 1974.65 967.485C1975.29 966.84 1975.71 966.021 1975.88 965.132C1976.04 964.243 1975.94 963.325 1975.58 962.495C1975.23 961.665 1974.63 960.961 1973.87 960.471C1973.11 959.982 1972.22 959.73 1971.32 959.747ZM2040.64 959.747C2039.44 959.747 2038.28 960.226 2037.43 961.08C2036.57 961.934 2036.09 963.092 2036.09 964.299C2035.9 964.976 2035.87 965.689 2035.99 966.382C2036.12 967.075 2036.41 967.728 2036.84 968.29C2037.26 968.853 2037.81 969.309 2038.44 969.623C2039.07 969.937 2039.76 970.101 2040.47 970.101C2041.17 970.101 2041.87 969.937 2042.5 969.623C2043.13 969.309 2043.68 968.853 2044.1 968.29C2044.53 967.728 2044.82 967.075 2044.94 966.382C2045.07 965.689 2045.04 964.976 2044.85 964.299C2044.87 963.144 2044.45 962.024 2043.66 961.175C2042.88 960.327 2041.8 959.815 2040.64 959.747ZM2109.89 959.747C2108.68 959.747 2107.52 960.226 2106.67 961.08C2105.81 961.934 2105.33 963.092 2105.33 964.299C2105.33 965.506 2105.81 966.664 2106.67 967.518C2107.52 968.371 2108.68 968.851 2109.89 968.851C2111.09 968.828 2112.23 968.341 2113.08 967.493C2113.93 966.644 2114.42 965.499 2114.44 964.299C2114.44 963.701 2114.32 963.109 2114.09 962.557C2113.86 962.005 2113.53 961.503 2113.1 961.08C2112.68 960.657 2112.18 960.322 2111.63 960.093C2111.08 959.865 2110.48 959.747 2109.89 959.747ZM2179.13 959.747C2178.53 959.747 2177.95 959.865 2177.4 960.095C2176.85 960.325 2176.35 960.661 2175.94 961.085C2175.52 961.509 2175.2 962.012 2174.98 962.564C2174.76 963.115 2174.65 963.705 2174.66 964.299C2174.66 965.203 2174.93 966.086 2175.44 966.837C2175.94 967.587 2176.66 968.17 2177.49 968.512C2178.33 968.854 2179.25 968.939 2180.14 968.756C2181.02 968.573 2181.83 968.131 2182.46 967.485C2183.1 966.84 2183.52 966.021 2183.69 965.132C2183.85 964.243 2183.75 963.325 2183.39 962.495C2183.04 961.665 2182.44 960.961 2181.68 960.471C2180.92 959.982 2180.03 959.73 2179.13 959.747ZM1798.17 908.188C1797.49 907.995 1796.78 907.961 1796.09 908.09C1795.39 908.219 1794.74 908.507 1794.18 908.931C1793.62 909.355 1793.16 909.904 1792.84 910.535C1792.53 911.165 1792.37 911.86 1792.37 912.565C1792.37 913.269 1792.53 913.964 1792.84 914.595C1793.16 915.226 1793.62 915.775 1794.18 916.199C1794.74 916.623 1795.39 916.911 1796.09 917.04C1796.78 917.169 1797.49 917.135 1798.17 916.942C1798.85 917.135 1799.56 917.169 1800.25 917.04C1800.94 916.911 1801.6 916.623 1802.16 916.199C1802.72 915.775 1803.18 915.226 1803.49 914.595C1803.81 913.964 1803.97 913.269 1803.97 912.565C1803.97 911.86 1803.81 911.165 1803.49 910.535C1803.18 909.904 1802.72 909.355 1802.16 908.931C1801.6 908.507 1800.94 908.219 1800.25 908.09C1799.56 907.961 1798.85 907.995 1798.17 908.188ZM1867.41 908.188C1866.51 908.188 1865.62 908.458 1864.87 908.962C1864.12 909.466 1863.54 910.182 1863.2 911.019C1862.86 911.856 1862.77 912.775 1862.95 913.661C1863.14 914.546 1863.58 915.357 1864.22 915.99C1864.87 916.623 1865.69 917.049 1866.58 917.215C1867.47 917.38 1868.38 917.278 1869.21 916.92C1870.04 916.562 1870.75 915.965 1871.24 915.205C1871.73 914.445 1871.98 913.556 1871.96 912.652C1871.96 912.059 1871.84 911.471 1871.61 910.924C1871.38 910.376 1871.05 909.88 1870.62 909.464C1870.2 909.049 1869.7 908.722 1869.15 908.502C1868.59 908.283 1868 908.176 1867.41 908.188ZM1936.74 908.188C1935.83 908.171 1934.94 908.425 1934.18 908.919C1933.42 909.412 1932.82 910.122 1932.46 910.957C1932.11 911.793 1932.01 912.715 1932.18 913.606C1932.36 914.497 1932.79 915.316 1933.43 915.958C1934.08 916.6 1934.89 917.035 1935.79 917.208C1936.68 917.381 1937.6 917.283 1938.43 916.928C1939.27 916.572 1939.98 915.976 1940.47 915.214C1940.97 914.452 1941.22 913.56 1941.2 912.652C1941.2 911.498 1940.76 910.388 1939.96 909.556C1939.16 908.724 1938.07 908.233 1936.91 908.188H1936.74ZM2005.98 908.188C2005.3 907.995 2004.59 907.961 2003.9 908.09C2003.2 908.219 2002.55 908.507 2001.99 908.931C2001.43 909.355 2000.97 909.904 2000.66 910.535C2000.34 911.165 2000.18 911.86 2000.18 912.565C2000.18 913.269 2000.34 913.964 2000.66 914.595C2000.97 915.226 2001.43 915.775 2001.99 916.199C2002.55 916.623 2003.2 916.911 2003.9 917.04C2004.59 917.169 2005.3 917.135 2005.98 916.942C2006.66 917.135 2007.37 917.169 2008.06 917.04C2008.76 916.911 2009.41 916.623 2009.97 916.199C2010.53 915.775 2010.99 915.226 2011.3 914.595C2011.62 913.964 2011.78 913.269 2011.78 912.565C2011.78 911.86 2011.62 911.165 2011.3 910.535C2010.99 909.904 2010.53 909.355 2009.97 908.931C2009.41 908.507 2008.76 908.219 2008.06 908.09C2007.37 907.961 2006.66 907.995 2005.98 908.188ZM2075.22 908.188C2074.32 908.188 2073.43 908.458 2072.68 908.962C2071.93 909.466 2071.35 910.182 2071.01 911.019C2070.67 911.856 2070.58 912.775 2070.76 913.661C2070.95 914.546 2071.39 915.357 2072.03 915.99C2072.68 916.623 2073.5 917.049 2074.39 917.215C2075.28 917.38 2076.19 917.278 2077.02 916.92C2077.85 916.562 2078.56 915.965 2079.05 915.205C2079.54 914.445 2079.79 913.556 2079.77 912.652C2079.77 912.059 2079.66 911.471 2079.43 910.924C2079.2 910.376 2078.86 909.88 2078.43 909.464C2078.01 909.049 2077.51 908.722 2076.96 908.502C2076.4 908.283 2075.81 908.176 2075.22 908.188ZM2144.55 908.188C2143.64 908.171 2142.75 908.425 2141.99 908.919C2141.23 909.412 2140.63 910.122 2140.27 910.957C2139.92 911.793 2139.82 912.715 2139.99 913.606C2140.17 914.497 2140.6 915.316 2141.24 915.958C2141.89 916.6 2142.71 917.035 2143.6 917.208C2144.49 917.381 2145.41 917.283 2146.25 916.928C2147.08 916.572 2147.79 915.976 2148.28 915.214C2148.78 914.452 2149.03 913.56 2149.01 912.652C2149.01 912.066 2148.9 911.486 2148.67 910.944C2148.45 910.402 2148.12 909.91 2147.71 909.496C2147.29 909.081 2146.8 908.752 2146.26 908.528C2145.72 908.304 2145.14 908.188 2144.55 908.188ZM2214.58 908.188H2213.35C2212.55 908.179 2211.75 908.384 2211.05 908.781C2210.35 909.179 2209.77 909.755 2209.37 910.452C2208.96 911.148 2208.75 911.939 2208.75 912.745C2208.75 913.55 2208.96 914.341 2209.37 915.036C2209.78 915.732 2210.36 916.307 2211.06 916.703C2211.76 917.099 2212.56 917.302 2213.36 917.291C2214.17 917.28 2214.96 917.056 2215.65 916.641C2216.34 916.225 2216.91 915.635 2217.29 914.928C2217.03 912.74 2215.98 910.552 2215.02 908.363L2214.58 908.188ZM1832.4 1061.64C1831.49 1061.62 1830.6 1061.88 1829.83 1062.37C1829.07 1062.86 1828.48 1063.57 1828.12 1064.41C1827.77 1065.24 1827.67 1066.17 1827.84 1067.06C1828.01 1067.95 1828.45 1068.77 1829.09 1069.41C1829.73 1070.05 1830.55 1070.49 1831.44 1070.66C1832.33 1070.83 1833.26 1070.73 1834.09 1070.38C1834.93 1070.02 1835.64 1069.43 1836.13 1068.66C1836.62 1067.9 1836.88 1067.01 1836.86 1066.1C1836.82 1065.02 1836.39 1063.99 1835.65 1063.2C1834.91 1062.41 1833.91 1061.92 1832.83 1061.81L1832.4 1061.64ZM1901.64 1061.64C1900.96 1061.45 1900.25 1061.41 1899.55 1061.54C1898.86 1061.67 1898.21 1061.96 1897.65 1062.38C1897.08 1062.81 1896.63 1063.36 1896.31 1063.99C1896 1064.62 1895.83 1065.31 1895.83 1066.02C1895.83 1066.72 1896 1067.42 1896.31 1068.05C1896.63 1068.68 1897.08 1069.23 1897.65 1069.65C1898.21 1070.07 1898.86 1070.36 1899.55 1070.49C1900.25 1070.62 1900.96 1070.59 1901.64 1070.39C1902.31 1070.59 1903.03 1070.62 1903.72 1070.49C1904.41 1070.36 1905.07 1070.07 1905.63 1069.65C1906.19 1069.23 1906.65 1068.68 1906.96 1068.05C1907.28 1067.42 1907.44 1066.72 1907.44 1066.02C1907.44 1065.31 1907.28 1064.62 1906.96 1063.99C1906.65 1063.36 1906.19 1062.81 1905.63 1062.38C1905.07 1061.96 1904.41 1061.67 1903.72 1061.54C1903.03 1061.41 1902.31 1061.45 1901.64 1061.64ZM1970.88 1061.64C1969.97 1061.64 1969.09 1061.91 1968.34 1062.41C1967.59 1062.92 1967.01 1063.63 1966.67 1064.47C1966.32 1065.31 1966.24 1066.23 1966.42 1067.11C1966.6 1068 1967.05 1068.81 1967.69 1069.44C1968.34 1070.07 1969.16 1070.5 1970.05 1070.67C1970.93 1070.83 1971.85 1070.73 1972.68 1070.37C1973.51 1070.01 1974.22 1069.42 1974.71 1068.66C1975.2 1067.9 1975.45 1067.01 1975.43 1066.1C1975.39 1065.01 1974.95 1063.97 1974.19 1063.17C1973.43 1062.38 1972.41 1061.9 1971.32 1061.81L1970.88 1061.64ZM2040.21 1061.64C2039.3 1061.62 2038.41 1061.88 2037.65 1062.37C2036.88 1062.86 2036.29 1063.57 2035.93 1064.41C2035.58 1065.24 2035.48 1066.17 2035.65 1067.06C2035.82 1067.95 2036.26 1068.77 2036.9 1069.41C2037.54 1070.05 2038.36 1070.49 2039.25 1070.66C2040.14 1070.83 2041.07 1070.73 2041.9 1070.38C2042.74 1070.02 2043.45 1069.43 2043.94 1068.66C2044.43 1067.9 2044.69 1067.01 2044.67 1066.1C2044.63 1065.02 2044.2 1063.99 2043.46 1063.2C2042.72 1062.41 2041.72 1061.92 2040.64 1061.81L2040.21 1061.64ZM2109.45 1061.64C2108.77 1061.45 2108.06 1061.41 2107.36 1061.54C2106.67 1061.67 2106.02 1061.96 2105.46 1062.38C2104.89 1062.81 2104.44 1063.36 2104.12 1063.99C2103.81 1064.62 2103.65 1065.31 2103.65 1066.02C2103.65 1066.72 2103.81 1067.42 2104.12 1068.05C2104.44 1068.68 2104.89 1069.23 2105.46 1069.65C2106.02 1070.07 2106.67 1070.36 2107.36 1070.49C2108.06 1070.62 2108.77 1070.59 2109.45 1070.39C2110.13 1070.59 2110.84 1070.62 2111.53 1070.49C2112.22 1070.36 2112.88 1070.07 2113.44 1069.65C2114 1069.23 2114.46 1068.68 2114.77 1068.05C2115.09 1067.42 2115.25 1066.72 2115.25 1066.02C2115.25 1065.31 2115.09 1064.62 2114.77 1063.99C2114.46 1063.36 2114 1062.81 2113.44 1062.38C2112.88 1061.96 2112.22 1061.67 2111.53 1061.54C2110.84 1061.41 2110.13 1061.45 2109.45 1061.64ZM2178.69 1061.64C2177.79 1061.64 2176.9 1061.91 2176.15 1062.41C2175.4 1062.92 2174.82 1063.63 2174.48 1064.47C2174.13 1065.31 2174.05 1066.23 2174.23 1067.11C2174.41 1068 2174.86 1068.81 2175.5 1069.44C2176.15 1070.07 2176.97 1070.5 2177.86 1070.67C2178.74 1070.83 2179.66 1070.73 2180.49 1070.37C2181.32 1070.01 2182.03 1069.42 2182.52 1068.66C2183.01 1067.9 2183.26 1067.01 2183.24 1066.1C2183.2 1065.01 2182.76 1063.97 2182 1063.17C2181.24 1062.38 2180.22 1061.9 2179.13 1061.81L2178.69 1061.64ZM2248.02 1061.64C2247.11 1061.62 2246.22 1061.88 2245.46 1062.37C2244.69 1062.86 2244.1 1063.57 2243.74 1064.41C2243.39 1065.24 2243.29 1066.17 2243.46 1067.06C2243.64 1067.95 2244.07 1068.77 2244.71 1069.41C2245.35 1070.05 2246.17 1070.49 2247.06 1070.66C2247.96 1070.83 2248.88 1070.73 2249.71 1070.38C2250.55 1070.02 2251.26 1069.43 2251.75 1068.66C2252.25 1067.9 2252.5 1067.01 2252.48 1066.1C2252.44 1065.02 2252.02 1063.99 2251.28 1063.2C2250.53 1062.41 2249.53 1061.92 2248.46 1061.81L2248.02 1061.64ZM1797.73 1009.99C1796.52 1009.99 1795.37 1010.47 1794.51 1011.33C1793.66 1012.18 1793.18 1013.34 1793.18 1014.54C1793.18 1015.75 1793.66 1016.91 1794.51 1017.76C1795.37 1018.62 1796.52 1019.1 1797.73 1019.1C1798.93 1019.07 1800.08 1018.59 1800.93 1017.74C1801.77 1016.89 1802.26 1015.74 1802.28 1014.54C1802.25 1013.44 1801.81 1012.39 1801.05 1011.58C1800.29 1010.78 1799.27 1010.27 1798.17 1010.17L1797.73 1009.99ZM1866.97 1009.99C1866.38 1009.99 1865.79 1010.11 1865.24 1010.34C1864.7 1010.57 1864.2 1010.91 1863.78 1011.33C1863.37 1011.75 1863.04 1012.26 1862.82 1012.81C1862.6 1013.36 1862.5 1013.95 1862.51 1014.54C1862.51 1015.45 1862.78 1016.33 1863.28 1017.08C1863.79 1017.83 1864.5 1018.42 1865.34 1018.76C1866.18 1019.1 1867.1 1019.18 1867.98 1019C1868.87 1018.82 1869.68 1018.38 1870.31 1017.73C1870.94 1017.09 1871.37 1016.27 1871.53 1015.38C1871.7 1014.49 1871.6 1013.57 1871.24 1012.74C1870.88 1011.91 1870.28 1011.21 1869.53 1010.72C1868.77 1010.23 1867.88 1009.98 1866.97 1009.99ZM1936.3 1009.99C1935.09 1009.99 1933.94 1010.47 1933.08 1011.33C1932.23 1012.18 1931.75 1013.34 1931.75 1014.54C1931.56 1015.22 1931.52 1015.94 1931.65 1016.63C1931.78 1017.32 1932.07 1017.97 1932.49 1018.54C1932.92 1019.1 1933.47 1019.55 1934.1 1019.87C1934.73 1020.18 1935.42 1020.35 1936.13 1020.35C1936.83 1020.35 1937.53 1020.18 1938.16 1019.87C1938.79 1019.55 1939.34 1019.1 1939.76 1018.54C1940.18 1017.97 1940.47 1017.32 1940.6 1016.63C1940.73 1015.94 1940.7 1015.22 1940.5 1014.54C1940.5 1013.51 1940.15 1012.51 1939.49 1011.71C1938.84 1010.92 1937.93 1010.37 1936.91 1010.17L1936.3 1009.99ZM2005.54 1009.99C2004.34 1009.99 2003.18 1010.47 2002.32 1011.33C2001.47 1012.18 2000.99 1013.34 2000.99 1014.54C2000.99 1015.75 2001.47 1016.91 2002.32 1017.76C2003.18 1018.62 2004.34 1019.1 2005.54 1019.1C2006.74 1019.07 2007.89 1018.59 2008.74 1017.74C2009.59 1016.89 2010.07 1015.74 2010.09 1014.54C2010.06 1013.44 2009.62 1012.39 2008.86 1011.58C2008.1 1010.78 2007.08 1010.27 2005.98 1010.17L2005.54 1009.99ZM2074.78 1009.99C2074.19 1009.99 2073.6 1010.11 2073.05 1010.34C2072.51 1010.57 2072.01 1010.91 2071.6 1011.33C2071.18 1011.75 2070.85 1012.26 2070.63 1012.81C2070.41 1013.36 2070.31 1013.95 2070.32 1014.54C2070.32 1015.45 2070.59 1016.33 2071.09 1017.08C2071.6 1017.83 2072.31 1018.42 2073.15 1018.76C2073.99 1019.1 2074.91 1019.18 2075.79 1019C2076.68 1018.82 2077.49 1018.38 2078.12 1017.73C2078.75 1017.09 2079.18 1016.27 2079.35 1015.38C2079.51 1014.49 2079.41 1013.57 2079.05 1012.74C2078.69 1011.91 2078.1 1011.21 2077.34 1010.72C2076.58 1010.23 2075.69 1009.98 2074.78 1009.99ZM2144.11 1009.99C2142.91 1009.99 2141.75 1010.47 2140.89 1011.33C2140.04 1012.18 2139.56 1013.34 2139.56 1014.54C2139.37 1015.22 2139.33 1015.94 2139.46 1016.63C2139.59 1017.32 2139.88 1017.97 2140.3 1018.54C2140.73 1019.1 2141.28 1019.55 2141.91 1019.87C2142.54 1020.18 2143.23 1020.35 2143.94 1020.35C2144.64 1020.35 2145.34 1020.18 2145.97 1019.87C2146.6 1019.55 2147.15 1019.1 2147.57 1018.54C2148 1017.97 2148.28 1017.32 2148.41 1016.63C2148.54 1015.94 2148.51 1015.22 2148.31 1014.54C2148.31 1013.49 2147.92 1012.47 2147.23 1011.67C2146.55 1010.86 2145.59 1010.33 2144.55 1010.17L2144.11 1009.99ZM2213.35 1009.99C2212.15 1009.99 2210.99 1010.47 2210.13 1011.33C2209.28 1012.18 2208.8 1013.34 2208.8 1014.54C2208.8 1015.75 2209.28 1016.91 2210.13 1017.76C2210.99 1018.62 2212.15 1019.1 2213.35 1019.1C2214.55 1019.07 2215.7 1018.59 2216.55 1017.74C2217.4 1016.89 2217.88 1015.74 2217.91 1014.54C2217.87 1013.44 2217.43 1012.39 2216.67 1011.58C2215.92 1010.78 2214.89 1010.27 2213.79 1010.17L2213.35 1009.99ZM1832.4 1163.62C1831.8 1163.62 1831.21 1163.74 1830.65 1163.97C1830.1 1164.19 1829.6 1164.53 1829.18 1164.95C1828.75 1165.37 1828.42 1165.88 1828.19 1166.43C1827.96 1166.98 1827.84 1167.57 1827.84 1168.17C1827.65 1168.85 1827.62 1169.56 1827.75 1170.25C1827.87 1170.95 1828.16 1171.6 1828.59 1172.16C1829.01 1172.72 1829.56 1173.18 1830.19 1173.49C1830.82 1173.81 1831.52 1173.97 1832.22 1173.97C1832.93 1173.97 1833.62 1173.81 1834.25 1173.49C1834.88 1173.18 1835.43 1172.72 1835.85 1172.16C1836.28 1171.6 1836.57 1170.95 1836.7 1170.25C1836.82 1169.56 1836.79 1168.85 1836.6 1168.17C1836.59 1167.11 1836.21 1166.09 1835.52 1165.29C1834.83 1164.49 1833.88 1163.96 1832.83 1163.79L1832.4 1163.62ZM1901.64 1163.62C1900.43 1163.62 1899.27 1164.1 1898.42 1164.95C1897.56 1165.81 1897.09 1166.96 1897.09 1168.17C1897.09 1169.38 1897.56 1170.54 1898.42 1171.39C1899.27 1172.24 1900.43 1172.72 1901.64 1172.72C1902.84 1172.7 1903.98 1172.21 1904.83 1171.36C1905.68 1170.52 1906.17 1169.37 1906.19 1168.17C1906.15 1167.04 1905.68 1165.96 1904.89 1165.15C1904.1 1164.34 1903.03 1163.86 1901.9 1163.79L1901.64 1163.62ZM1970.88 1163.62C1970.28 1163.62 1969.7 1163.74 1969.15 1163.97C1968.6 1164.2 1968.11 1164.53 1967.69 1164.96C1967.27 1165.38 1966.95 1165.88 1966.73 1166.44C1966.51 1166.99 1966.4 1167.58 1966.41 1168.17C1966.41 1169.07 1966.68 1169.96 1967.19 1170.71C1967.69 1171.46 1968.41 1172.04 1969.24 1172.38C1970.08 1172.73 1971 1172.81 1971.89 1172.63C1972.77 1172.44 1973.58 1172 1974.22 1171.36C1974.85 1170.71 1975.27 1169.89 1975.44 1169C1975.61 1168.12 1975.5 1167.2 1975.15 1166.37C1974.79 1165.54 1974.19 1164.83 1973.43 1164.34C1972.67 1163.85 1971.78 1163.6 1970.88 1163.62ZM2040.21 1163.62C2039.61 1163.62 2039.02 1163.74 2038.46 1163.97C2037.91 1164.19 2037.41 1164.53 2036.99 1164.95C2036.57 1165.37 2036.23 1165.88 2036 1166.43C2035.77 1166.98 2035.65 1167.57 2035.65 1168.17C2035.46 1168.85 2035.43 1169.56 2035.56 1170.25C2035.69 1170.95 2035.97 1171.6 2036.4 1172.16C2036.82 1172.72 2037.37 1173.18 2038 1173.49C2038.63 1173.81 2039.33 1173.97 2040.03 1173.97C2040.74 1173.97 2041.43 1173.81 2042.06 1173.49C2042.69 1173.18 2043.24 1172.72 2043.67 1172.16C2044.09 1171.6 2044.38 1170.95 2044.51 1170.25C2044.64 1169.56 2044.6 1168.85 2044.41 1168.17C2044.4 1167.11 2044.02 1166.09 2043.33 1165.29C2042.64 1164.49 2041.69 1163.96 2040.64 1163.79L2040.21 1163.62ZM2109.45 1163.62C2108.85 1163.62 2108.26 1163.74 2107.71 1163.97C2107.15 1164.19 2106.65 1164.53 2106.23 1164.95C2105.81 1165.37 2105.47 1165.88 2105.24 1166.43C2105.01 1166.98 2104.9 1167.57 2104.9 1168.17C2104.9 1169.38 2105.38 1170.54 2106.23 1171.39C2107.08 1172.24 2108.24 1172.72 2109.45 1172.72C2110.65 1172.7 2111.79 1172.21 2112.64 1171.36C2113.49 1170.52 2113.98 1169.37 2114 1168.17C2113.96 1167.07 2113.52 1166.01 2112.77 1165.21C2112.01 1164.4 2110.99 1163.9 2109.89 1163.79L2109.45 1163.62ZM2178.69 1163.62C2178.1 1163.62 2177.51 1163.74 2176.96 1163.97C2176.41 1164.2 2175.92 1164.53 2175.5 1164.96C2175.09 1165.38 2174.76 1165.88 2174.54 1166.44C2174.32 1166.99 2174.21 1167.58 2174.22 1168.17C2174.22 1169.07 2174.49 1169.96 2175 1170.71C2175.5 1171.46 2176.22 1172.04 2177.06 1172.38C2177.89 1172.73 2178.81 1172.81 2179.7 1172.63C2180.58 1172.44 2181.39 1172 2182.03 1171.36C2182.66 1170.71 2183.09 1169.89 2183.25 1169C2183.42 1168.12 2183.31 1167.2 2182.96 1166.37C2182.6 1165.54 2182 1164.83 2181.24 1164.34C2180.48 1163.85 2179.59 1163.6 2178.69 1163.62ZM2248.02 1163.62C2246.81 1163.62 2245.65 1164.1 2244.8 1164.95C2243.95 1165.81 2243.47 1166.96 2243.47 1168.17C2243.45 1168.94 2243.66 1169.71 2244.08 1170.36L2252.31 1167.03C2252.08 1166.16 2251.58 1165.38 2250.89 1164.8C2250.2 1164.22 2249.35 1163.87 2248.46 1163.79L2248.02 1163.62ZM1797.73 1112.06C1797.05 1111.87 1796.34 1111.83 1795.65 1111.96C1794.96 1112.09 1794.3 1112.38 1793.74 1112.8C1793.18 1113.23 1792.72 1113.78 1792.41 1114.41C1792.09 1115.04 1791.93 1115.73 1791.93 1116.44C1791.93 1117.14 1792.09 1117.84 1792.41 1118.47C1792.72 1119.1 1793.18 1119.65 1793.74 1120.07C1794.3 1120.49 1794.96 1120.78 1795.65 1120.91C1796.34 1121.04 1797.05 1121.01 1797.73 1120.81C1798.41 1121.01 1799.12 1121.04 1799.81 1120.91C1800.51 1120.78 1801.16 1120.49 1801.72 1120.07C1802.29 1119.65 1802.74 1119.1 1803.06 1118.47C1803.37 1117.84 1803.53 1117.14 1803.53 1116.44C1803.53 1115.73 1803.37 1115.04 1803.06 1114.41C1802.74 1113.78 1802.29 1113.23 1801.72 1112.8C1801.16 1112.38 1800.51 1112.09 1799.81 1111.96C1799.12 1111.83 1798.41 1111.87 1797.73 1112.06ZM1866.97 1112.06C1866.07 1112.06 1865.19 1112.33 1864.43 1112.83C1863.68 1113.34 1863.1 1114.05 1862.76 1114.89C1862.42 1115.73 1862.33 1116.65 1862.52 1117.53C1862.7 1118.42 1863.14 1119.23 1863.79 1119.86C1864.43 1120.49 1865.25 1120.92 1866.14 1121.09C1867.03 1121.25 1867.95 1121.15 1868.78 1120.79C1869.61 1120.43 1870.31 1119.84 1870.8 1119.08C1871.29 1118.32 1871.54 1117.43 1871.52 1116.52C1871.48 1115.43 1871.04 1114.39 1870.29 1113.6C1869.53 1112.8 1868.5 1112.32 1867.41 1112.24L1866.97 1112.06ZM1936.3 1112.06C1935.39 1112.04 1934.5 1112.3 1933.74 1112.79C1932.98 1113.28 1932.38 1113.99 1932.03 1114.83C1931.67 1115.66 1931.57 1116.59 1931.75 1117.48C1931.92 1118.37 1932.35 1119.19 1933 1119.83C1933.64 1120.47 1934.46 1120.91 1935.35 1121.08C1936.24 1121.25 1937.16 1121.15 1938 1120.8C1938.83 1120.44 1939.54 1119.85 1940.04 1119.09C1940.53 1118.32 1940.78 1117.43 1940.77 1116.52C1940.73 1115.47 1940.33 1114.46 1939.63 1113.67C1938.92 1112.89 1937.96 1112.38 1936.91 1112.24L1936.3 1112.06ZM2005.54 1112.06C2004.87 1111.87 2004.15 1111.83 2003.46 1111.96C2002.77 1112.09 2002.11 1112.38 2001.55 1112.8C2000.99 1113.23 2000.53 1113.78 2000.22 1114.41C1999.9 1115.04 1999.74 1115.73 1999.74 1116.44C1999.74 1117.14 1999.9 1117.84 2000.22 1118.47C2000.53 1119.1 2000.99 1119.65 2001.55 1120.07C2002.11 1120.49 2002.77 1120.78 2003.46 1120.91C2004.15 1121.04 2004.87 1121.01 2005.54 1120.81C2006.22 1121.01 2006.93 1121.04 2007.63 1120.91C2008.32 1120.78 2008.97 1120.49 2009.53 1120.07C2010.1 1119.65 2010.55 1119.1 2010.87 1118.47C2011.18 1117.84 2011.34 1117.14 2011.34 1116.44C2011.34 1115.73 2011.18 1115.04 2010.87 1114.41C2010.55 1113.78 2010.1 1113.23 2009.53 1112.8C2008.97 1112.38 2008.32 1112.09 2007.63 1111.96C2006.93 1111.83 2006.22 1111.87 2005.54 1112.06ZM2074.78 1112.06C2073.88 1112.06 2073 1112.33 2072.25 1112.83C2071.5 1113.34 2070.91 1114.05 2070.57 1114.89C2070.23 1115.73 2070.14 1116.65 2070.33 1117.53C2070.51 1118.42 2070.95 1119.23 2071.6 1119.86C2072.24 1120.49 2073.06 1120.92 2073.95 1121.09C2074.84 1121.25 2075.76 1121.15 2076.59 1120.79C2077.42 1120.43 2078.12 1119.84 2078.61 1119.08C2079.1 1118.32 2079.35 1117.43 2079.34 1116.52C2079.3 1115.43 2078.85 1114.39 2078.1 1113.6C2077.34 1112.8 2076.31 1112.32 2075.22 1112.24L2074.78 1112.06ZM2144.11 1112.06C2143.2 1112.04 2142.31 1112.3 2141.55 1112.79C2140.79 1113.28 2140.19 1113.99 2139.84 1114.83C2139.48 1115.66 2139.38 1116.59 2139.56 1117.48C2139.73 1118.37 2140.17 1119.19 2140.81 1119.83C2141.45 1120.47 2142.27 1120.91 2143.16 1121.08C2144.05 1121.25 2144.97 1121.15 2145.81 1120.8C2146.64 1120.44 2147.35 1119.85 2147.85 1119.09C2148.34 1118.32 2148.59 1117.43 2148.58 1116.52C2148.54 1115.44 2148.11 1114.41 2147.37 1113.62C2146.63 1112.83 2145.63 1112.34 2144.55 1112.24L2144.11 1112.06ZM2213.35 1112.06C2212.68 1111.87 2211.96 1111.83 2211.27 1111.96C2210.58 1112.09 2209.92 1112.38 2209.36 1112.8C2208.8 1113.23 2208.34 1113.78 2208.03 1114.41C2207.71 1115.04 2207.55 1115.73 2207.55 1116.44C2207.55 1117.14 2207.71 1117.84 2208.03 1118.47C2208.34 1119.1 2208.8 1119.65 2209.36 1120.07C2209.92 1120.49 2210.58 1120.78 2211.27 1120.91C2211.96 1121.04 2212.68 1121.01 2213.35 1120.81C2214.03 1121.01 2214.74 1121.04 2215.44 1120.91C2216.13 1120.78 2216.78 1120.49 2217.34 1120.07C2217.91 1119.65 2218.36 1119.1 2218.68 1118.47C2218.99 1117.84 2219.16 1117.14 2219.16 1116.44C2219.16 1115.73 2218.99 1115.04 2218.68 1114.41C2218.36 1113.78 2217.91 1113.23 2217.34 1112.8C2216.78 1112.38 2216.13 1112.09 2215.44 1111.96C2214.74 1111.83 2214.03 1111.87 2213.35 1112.06ZM2282.59 1112.06C2281.69 1112.06 2280.81 1112.33 2280.06 1112.83C2279.31 1113.34 2278.72 1114.05 2278.38 1114.89C2278.04 1115.73 2277.95 1116.65 2278.14 1117.53C2278.32 1118.42 2278.76 1119.23 2279.41 1119.86C2280.05 1120.49 2280.87 1120.92 2281.76 1121.09C2282.65 1121.25 2283.57 1121.15 2284.4 1120.79C2285.23 1120.43 2285.93 1119.84 2286.42 1119.08C2286.91 1118.32 2287.16 1117.43 2287.15 1116.52C2287.11 1115.43 2286.67 1114.39 2285.91 1113.6C2285.15 1112.8 2284.13 1112.32 2283.03 1112.24L2282.59 1112.06Z" fill="#181818"/>
<path d="M2303.08 1141.82C2240.05 1179.2 2166.17 1199.07 2094.22 1207.74C2060.78 1036.87 2003.88 699.239 1990.49 619.494C2008.08 624.6 2024.7 632.587 2039.68 643.129C2076.33 669.722 2107.5 703.128 2131.51 741.519C2210.29 862.057 2303.08 1141.82 2303.08 1141.82Z" fill="#263238"/>
<path d="M2100.34 687.247C2215.28 818.551 2374.16 1044.13 2313.76 1100.59C2214.4 1193.29 1911.09 1262.53 1841.5 1275.67C1811.39 1281.27 1737.94 1086.85 1756.59 1059.98C1775.23 1033.1 2097.98 994.149 2098.86 974.103C2099.47 962.811 2054.47 867.834 2015.17 749.573C1969.74 613.016 2067.43 649.519 2100.34 687.247Z" fill="#EB9481"/>
<path d="M1808.59 1040.02C1808.59 1040.02 1715.62 1045.27 1654.96 1051.57C1621.08 1055.07 1563.66 1066.28 1539.94 1080.2C1504.92 1101.03 1369.77 1210.89 1395.68 1244.15C1419.14 1274.26 1522.96 1165.37 1522.96 1165.37C1522.96 1165.37 1408.46 1266.21 1443.47 1297.2C1478.49 1328.19 1579.24 1189.35 1579.24 1189.35C1579.24 1189.35 1463.96 1295.54 1505.01 1321.88C1536.09 1341.76 1634.56 1221.13 1634.56 1221.13C1634.56 1221.13 1536.09 1313.13 1567.16 1334.93C1601.48 1359 1699.34 1253.43 1699.34 1253.43C1787.58 1295.62 1846.93 1279.69 1887.72 1263.15C1897.61 1259.38 1808.59 1040.02 1808.59 1040.02Z" fill="#EB9481"/>
<path d="M1560.51 1128.08C1546.68 1139.37 1532.5 1150.84 1519.72 1163.09C1506.94 1175.35 1494.51 1188.65 1482.86 1202.31C1467.39 1219.93 1453.97 1239.25 1442.86 1259.91C1465.27 1224.89 1510.44 1179.03 1523.31 1166.51C1536.17 1153.99 1548.25 1140.77 1561.03 1128.25C1561.21 1128.08 1560.51 1127.55 1560.51 1128.08Z" fill="#263238"/>
<path d="M1606.55 1173.25C1589.05 1188.57 1571.54 1203.01 1555.52 1219.12C1539.5 1235.22 1525.06 1251.59 1509.82 1268.66C1508.69 1269.98 1509.82 1270.15 1510.96 1268.66C1526.81 1252.29 1542.74 1238.29 1558.85 1222.09C1574.95 1205.9 1590.36 1189 1606.9 1173.42C1607.17 1173.42 1606.81 1172.99 1606.55 1173.25Z" fill="#263238"/>
<path d="M1653.12 1205.2C1626.35 1227.96 1602 1253.42 1580.47 1281.18C1579.33 1282.58 1580.47 1282.67 1582.04 1281.18C1605.68 1255.44 1624.06 1235.05 1653.91 1205.9C1654.43 1205.64 1653.73 1204.67 1653.12 1205.2Z" fill="#263238"/>
<path d="M1745.65 1043.34C1703.19 1045.8 1659.69 1048.33 1617.58 1054.29C1581.04 1058.36 1546.11 1071.51 1515.95 1092.54C1487.53 1114.57 1461.17 1139.12 1437.17 1165.89C1423.37 1179.42 1411.1 1194.42 1400.58 1210.63C1394.71 1220.52 1386.14 1236.1 1395.5 1245.64C1406.88 1257.63 1445.22 1242.75 1484 1202.75C1485.4 1201.35 1484.44 1200.56 1482.95 1201.87C1428.15 1252.56 1404.69 1248.62 1398.13 1240.91C1393.93 1236.01 1397.08 1226.73 1400.14 1219.64C1405.17 1209.37 1411.5 1199.78 1418.96 1191.11C1443.62 1160.89 1471.31 1133.29 1501.6 1108.73C1534.07 1081.41 1573.61 1063.84 1615.66 1058.05C1658.72 1051.75 1703.19 1052.27 1745.91 1045.36C1746.79 1044.83 1746.52 1043.34 1745.65 1043.34Z" fill="#263238"/>
<path d="M2237.16 845.862L2039.77 857.505C2023.95 812.295 2011.74 765.901 2003.27 718.76C2002.74 715.959 2002.3 713.157 2001.87 710.531C2001.87 709.656 2001.87 708.868 2001.87 708.08C1990.75 635.425 2013.42 615.292 2083.71 671.665C2117.01 698.733 2147.64 728.925 2175.19 761.828L2177.73 764.804C2191.03 780.56 2202.24 795.179 2211.25 807.521C2213.09 810.06 2214.93 812.511 2216.5 814.874C2229.81 833.607 2237.16 845.862 2237.16 845.862Z" fill="#00E340"/>
<path d="M2045.11 658.185C2045.13 659.092 2044.87 659.984 2044.38 660.746C2043.88 661.508 2043.17 662.105 2042.34 662.46C2041.5 662.816 2040.58 662.913 2039.69 662.74C2038.8 662.567 2037.98 662.132 2037.34 661.49C2036.7 660.848 2036.26 660.029 2036.09 659.138C2035.92 658.247 2036.01 657.325 2036.37 656.49C2036.72 655.654 2037.32 654.945 2038.08 654.451C2038.84 653.958 2039.74 653.703 2040.64 653.721C2041.83 653.721 2042.96 654.191 2043.8 655.028C2044.64 655.865 2045.11 657.001 2045.11 658.185Z" fill="#181818"/>
<path d="M2045.11 760.427C2045.11 761.331 2044.84 762.215 2044.33 762.965C2043.83 763.715 2043.11 764.299 2042.28 764.64C2041.44 764.982 2040.52 765.067 2039.64 764.884C2038.75 764.701 2037.94 764.259 2037.31 763.614C2036.67 762.968 2036.25 762.149 2036.08 761.26C2035.92 760.372 2036.02 759.454 2036.38 758.624C2036.74 757.794 2037.33 757.089 2038.09 756.6C2038.85 756.11 2039.74 755.858 2040.64 755.875C2041.24 755.875 2041.83 755.994 2042.37 756.223C2042.92 756.453 2043.42 756.79 2043.83 757.214C2044.25 757.638 2044.58 758.14 2044.79 758.692C2045.01 759.244 2045.12 759.834 2045.11 760.427Z" fill="#181818"/>
<path d="M2109.89 764.804C2112.4 764.804 2114.44 762.766 2114.44 760.252C2114.44 757.738 2112.4 755.7 2109.89 755.7C2107.37 755.7 2105.33 757.738 2105.33 760.252C2105.33 762.766 2107.37 764.804 2109.89 764.804Z" fill="#181818"/>
<path d="M2005.98 713.158C2008.49 713.158 2010.53 711.12 2010.53 708.606C2010.53 706.092 2008.49 704.054 2005.98 704.054C2003.47 704.054 2001.43 706.092 2001.43 708.606C2001.43 711.12 2003.47 713.158 2005.98 713.158Z" fill="#181818"/>
<path d="M2075.22 713.158C2077.73 713.158 2079.77 711.12 2079.77 708.606C2079.77 706.092 2077.73 704.054 2075.22 704.054C2072.71 704.054 2070.67 706.092 2070.67 708.606C2070.67 711.12 2072.71 713.158 2075.22 713.158Z" fill="#181818"/>
<path d="M2075.22 815.225C2077.73 815.225 2079.77 813.187 2079.77 810.673C2079.77 808.159 2077.73 806.121 2075.22 806.121C2072.71 806.121 2070.67 808.159 2070.67 810.673C2070.67 813.187 2072.71 815.225 2075.22 815.225Z" fill="#181818"/>
<path d="M2144.55 815.225C2147.06 815.225 2149.1 813.187 2149.1 810.673C2149.1 808.159 2147.06 806.121 2144.55 806.121C2142.04 806.121 2140 808.159 2140 810.673C2140 813.187 2142.04 815.225 2144.55 815.225Z" fill="#181818"/>
<path d="M2216.15 814.524C2215.45 814.979 2214.63 815.223 2213.79 815.225C2212.58 815.225 2211.43 814.745 2210.57 813.892C2209.72 813.038 2209.24 811.88 2209.24 810.673C2209.23 810.001 2209.37 809.335 2209.66 808.728C2209.95 808.121 2210.37 807.588 2210.9 807.171C2212.74 809.71 2214.58 812.161 2216.15 814.524Z" fill="#181818"/>
<path d="M1924.31 305.239C1913.37 301.125 1902.86 239.762 1943.3 210.525C1983.75 181.288 2035.3 214.639 2013.33 264.972C1999.94 296.485 1947.59 313.992 1924.31 305.239Z" fill="#263238"/>
<path d="M2039.68 643.129L2039.07 643.829C2006.85 678.318 1941.99 740.907 1898.57 735.479C1885.72 733.381 1873.45 728.593 1862.58 721.428C1851.7 714.262 1842.46 704.882 1835.46 693.9C1848.29 677.685 1862.28 662.415 1877.3 648.206C1928.16 595.421 1986.55 606.976 2039.68 643.129Z" fill="#EB9481"/>
<path d="M1977.36 633.587C1976.66 642.954 1942.34 708.518 1900.94 713.07C1887.37 714.471 1876.08 640.765 1876.08 640.765L1873.98 635.513L1845 561.895L1925.62 490.378L1937.35 480.749C1937.35 480.749 1944 501.408 1951.97 527.231C1951.97 528.456 1952.67 529.594 1953.11 530.907C1953.55 532.22 1954.07 533.708 1954.42 535.109C1955.65 538.873 1956.87 542.812 1958.1 546.751C1959.32 550.69 1959.85 552.704 1960.72 555.505C1961.6 558.306 1962.39 561.72 1963.35 564.959C1969.55 587.496 1974.23 610.423 1977.36 633.587Z" fill="#EB9481"/>
<path d="M1951.97 527.231C1947.61 549.86 1938.38 571.269 1924.91 589.968C1911.44 608.668 1894.06 624.209 1873.98 635.513L1845 561.895L1925.62 490.378L1937.35 480.749C1937.35 480.749 1944 501.408 1951.97 527.231Z" fill="#263238"/>
<path d="M1722.1 456.239C1730.85 594.809 1815.06 605.05 1844.65 603.125C1871.79 601.374 1963.87 591.832 1969.3 453.175C1974.73 314.518 1907.5 274.776 1845.26 275.564C1783.02 276.352 1713.17 317.757 1722.1 456.239Z" fill="#EB9481"/>
<path d="M1746.35 433.567C1749.5 432.692 1752.3 431.466 1755.1 430.328C1758.5 429.644 1761.57 427.86 1763.85 425.251C1764.4 424.312 1764.62 423.217 1764.48 422.14C1764.34 421.062 1763.84 420.063 1763.07 419.298C1761.28 418.032 1759.19 417.253 1757.01 417.038C1754.83 416.823 1752.64 417.18 1750.64 418.073C1746.35 419.347 1742.67 422.15 1740.31 425.951C1739.84 426.863 1739.65 427.891 1739.75 428.911C1739.85 429.93 1740.24 430.9 1740.88 431.703C1741.51 432.506 1742.37 433.108 1743.34 433.439C1744.31 433.769 1745.35 433.814 1746.35 433.567Z" fill="#263238"/>
<path d="M1841.94 423.588C1838.72 423.529 1835.5 423.295 1832.31 422.887C1828.93 423.124 1825.58 422.231 1822.77 420.349C1821.97 419.581 1821.46 418.571 1821.3 417.478C1821.14 416.385 1821.35 415.271 1821.89 414.309C1823.27 412.614 1825.08 411.316 1827.12 410.547C1829.17 409.778 1831.38 409.566 1833.53 409.932C1837.99 409.925 1842.28 411.616 1845.53 414.659C1846.24 415.388 1846.73 416.309 1846.93 417.31C1847.13 418.312 1847.03 419.349 1846.65 420.297C1846.27 421.244 1845.62 422.06 1844.78 422.644C1843.95 423.229 1842.96 423.557 1841.94 423.588Z" fill="#263238"/>
<path d="M1828.28 460.791C1828.28 460.791 1829.07 460.791 1829.07 461.491C1829.86 470.945 1832.31 481.624 1841.15 483.813V484.338C1830.56 483.988 1827.49 469.807 1828.28 460.791Z" fill="#263238"/>
<path d="M1835.55 450.024C1850.52 447.223 1855.16 477.335 1841.24 479.961C1827.32 482.587 1823.12 452.387 1835.55 450.024Z" fill="#263238"/>
<path d="M1841.76 450.724C1844.65 452.037 1847.63 454.663 1850.52 454.488C1853.4 454.313 1856.56 450.724 1858.48 447.31C1858.48 447.31 1859.01 447.31 1859.09 447.31C1860.06 453.087 1859.09 459.39 1852.62 461.141C1846.14 462.891 1842.29 458.34 1839.92 452.387C1839.84 451.949 1840.62 450.199 1841.76 450.724Z" fill="#263238"/>
<path d="M1769.11 465.343C1769.11 465.343 1768.41 465.955 1768.49 466.305C1770.25 475.584 1770.77 486.526 1762.8 490.991C1762.8 490.991 1762.8 491.603 1762.8 491.516C1773.05 488.365 1772.26 473.921 1769.11 465.343Z" fill="#263238"/>
<path d="M1759.22 456.939C1743.98 458.165 1747.66 488.54 1761.67 487.314C1775.67 486.089 1771.91 455.889 1759.22 456.939Z" fill="#263238"/>
<path d="M1753.09 459.74C1750.9 461.579 1748.89 464.817 1746.08 465.343C1743.28 465.868 1739.96 462.979 1737.33 460.09C1737.86 465.868 1740.48 471.733 1746.08 472.17C1751.69 472.608 1754.4 467.181 1754.84 461.228C1755.01 460.441 1753.96 458.952 1753.09 459.74Z" fill="#263238"/>
<path d="M1795.81 497.206C1790.75 498.42 1785.86 500.273 1781.27 502.72C1780.4 473.046 1784.25 443.459 1782.94 413.871C1782.94 413.639 1782.85 413.416 1782.68 413.252C1782.52 413.088 1782.29 412.996 1782.06 412.996C1781.83 412.996 1781.61 413.088 1781.44 413.252C1781.28 413.416 1781.19 413.639 1781.19 413.871C1776.01 445.455 1774.05 477.481 1775.32 509.461C1775.32 512.7 1796.07 498.781 1796.07 498.781C1796.07 498.781 1795.98 497.206 1795.81 497.206Z" fill="#263238"/>
<path d="M1960.72 464.993C1926.32 468.581 1901.64 364.764 1898.75 351.983C1900.15 360.124 1907.5 403.279 1904.35 405.468C1900.67 405.905 1896.94 405.728 1893.32 404.943C1892.57 399.757 1891.43 394.636 1889.91 389.624C1889.29 387.26 1889.91 394.964 1889.91 404.505L1883.34 403.63C1882.17 392.503 1879.52 381.582 1875.46 371.154C1873.89 367.215 1875.46 385.772 1873.71 402.404C1843.32 397.948 1812.52 396.862 1781.89 399.165C1773.13 400.041 1765.96 401.179 1759.48 402.404C1757.64 389.624 1757.2 376.143 1756.68 378.857C1755.2 386.941 1754.53 395.151 1754.66 403.367L1745.03 405.468C1741.62 387.961 1746.17 357.498 1743.9 362.312C1737.23 377.104 1733.43 393.025 1732.69 409.232C1720.7 413.346 1717.64 416.235 1716.85 413.084C1715.59 376.99 1727.19 341.623 1749.59 313.292C1786.7 266.986 1870.65 244.926 1927.46 300.249C1927.46 300.249 1970.7 320.558 1982.78 361.525C1994.86 402.492 1980.68 462.804 1960.72 464.993Z" fill="#263238"/>
<path d="M1948.21 465.167C1948.21 465.167 1971.67 417.81 1992.67 425.514C2013.68 433.217 2000.73 498.781 1979.19 510.774C1976.53 512.487 1973.55 513.646 1970.43 514.182C1967.31 514.718 1964.12 514.619 1961.04 513.892C1957.96 513.165 1955.05 511.824 1952.5 509.949C1949.95 508.075 1947.81 505.706 1946.19 502.983L1948.21 465.167Z" fill="#EB9481"/>
<path d="M1988.47 444.246V444.772C1973.42 453.525 1967.29 469.807 1963.7 486.089C1964.39 484.346 1965.45 482.774 1966.8 481.48C1968.16 480.186 1969.78 479.201 1971.55 478.593C1973.32 477.986 1975.2 477.77 1977.07 477.961C1978.93 478.152 1980.73 478.745 1982.34 479.699C1982.44 479.739 1982.52 479.807 1982.57 479.892C1982.63 479.978 1982.66 480.078 1982.66 480.18C1982.66 480.282 1982.63 480.382 1982.57 480.468C1982.52 480.553 1982.44 480.621 1982.34 480.661C1979.39 480.162 1976.36 480.604 1973.67 481.923C1970.99 483.243 1968.78 485.374 1967.38 488.014C1964.99 492.396 1963.11 497.037 1961.77 501.845C1961.25 503.421 1958.54 502.983 1958.8 501.32V500.882C1955.38 480.311 1966.94 449.586 1988.47 444.246Z" fill="#263238"/>
<path d="M1795.37 521.016C1799.58 526.176 1805.03 530.182 1811.21 532.658C1814.66 533.752 1818.36 533.752 1821.8 532.658C1829.42 530.47 1829.42 523.904 1827.84 517.514C1826.98 514.469 1825.78 511.532 1824.26 508.76C1816.17 515.804 1806.05 520.095 1795.37 521.016Z" fill="#263238"/>
<path d="M1811.21 532.833C1814.66 533.927 1818.36 533.927 1821.8 532.833C1829.42 530.645 1829.42 524.079 1827.84 517.689C1823.77 517.955 1819.9 519.599 1816.88 522.35C1813.86 525.101 1811.86 528.798 1811.21 532.833Z" fill="#FF9CBD"/>
<path d="M1678.33 649.781C1690.05 667.14 1696.39 687.573 1696.54 708.518C1696.54 782.924 1614.87 843.236 1514.11 843.236C1413.36 843.236 1331.86 782.924 1331.86 708.518C1331.86 634.112 1413.45 573.8 1514.11 573.8C1558.87 573.072 1602.77 586.088 1639.9 611.09L1702.75 595.158L1678.33 649.781Z" fill="#181818"/>
<path d="M1678.33 649.781C1689.98 666.131 1696.64 685.505 1697.51 705.56C1698.38 725.615 1693.42 745.493 1683.23 762.79C1673.05 780.03 1659.36 794.94 1643.05 806.559C1626.88 818.392 1608.95 827.608 1589.92 833.87C1570.94 840.266 1551.24 844.294 1531.27 845.862C1511.3 847.311 1491.22 846.341 1471.48 842.973C1431.36 836.964 1394.03 818.82 1364.51 790.977C1349.85 776.668 1338.83 759.046 1332.39 739.593C1326.18 719.846 1325.99 698.695 1331.86 678.843C1337.93 659.298 1348.69 641.535 1363.2 627.109C1377.47 612.697 1394.11 600.852 1412.4 592.095C1448.87 575.044 1489.12 567.688 1529.26 570.736C1569.36 572.937 1608.07 586.175 1641.13 608.989H1639.47L1702.49 593.933L1704.68 593.408L1703.72 595.421L1678.33 649.781ZM1678.33 649.781L1701.79 594.721L1703.02 596.122L1640.43 613.016H1639.55L1638.77 612.491C1606.04 590.977 1568.04 578.865 1528.91 577.476C1509.47 576.473 1489.98 577.854 1470.87 581.59C1451.74 584.949 1433.17 590.99 1415.72 599.535C1398.33 607.9 1382.51 619.213 1368.98 632.974C1355.51 646.537 1345.57 663.185 1340 681.469C1334.7 699.749 1334.98 719.195 1340.79 737.317C1346.63 755.508 1356.82 772.003 1370.47 785.375C1398.68 812.241 1434.46 829.809 1472.97 835.708C1511.41 842.525 1550.91 840.003 1588.17 828.355C1625.88 817.507 1658.5 793.581 1680.17 760.865C1690.38 744.162 1695.71 724.94 1695.58 705.367C1695.01 685.611 1689.05 666.387 1678.33 649.781Z" fill="#263238"/>
<path d="M1448.55 708.518C1448.55 704.778 1447.44 701.123 1445.36 698.013C1443.28 694.904 1440.33 692.48 1436.88 691.049C1433.42 689.618 1429.62 689.244 1425.95 689.973C1422.28 690.703 1418.92 692.504 1416.27 695.148C1413.63 697.792 1411.83 701.161 1411.1 704.829C1410.37 708.497 1410.74 712.299 1412.17 715.754C1413.6 719.209 1416.03 722.162 1419.14 724.239C1422.25 726.317 1425.9 727.426 1429.64 727.426C1434.66 727.426 1439.47 725.434 1443.01 721.888C1446.56 718.342 1448.55 713.533 1448.55 708.518Z" fill="#263238"/>
<path d="M1533.11 708.518C1533.11 704.778 1532 701.123 1529.92 698.013C1527.84 694.904 1524.89 692.48 1521.44 691.049C1517.98 689.618 1514.18 689.244 1510.51 689.973C1506.84 690.703 1503.48 692.504 1500.83 695.148C1498.19 697.792 1496.39 701.161 1495.66 704.829C1494.93 708.497 1495.3 712.299 1496.73 715.754C1498.16 719.209 1500.59 722.162 1503.7 724.239C1506.81 726.317 1510.46 727.426 1514.2 727.426C1519.22 727.426 1524.02 725.434 1527.57 721.888C1531.12 718.342 1533.11 713.533 1533.11 708.518Z" fill="#263238"/>
<path d="M1617.58 708.518C1617.58 704.778 1616.47 701.123 1614.39 698.013C1612.32 694.904 1609.36 692.48 1605.91 691.049C1602.45 689.618 1598.65 689.244 1594.98 689.973C1591.32 690.703 1587.95 692.504 1585.3 695.148C1582.66 697.792 1580.86 701.161 1580.13 704.829C1579.4 708.497 1579.77 712.299 1581.2 715.754C1582.64 719.209 1585.06 722.162 1588.17 724.239C1591.28 726.317 1594.93 727.426 1598.67 727.426C1603.69 727.426 1608.5 725.434 1612.04 721.888C1615.59 718.342 1617.58 713.533 1617.58 708.518Z" fill="#263238"/>
<path d="M1702.75 1307.7H1015.77V1338.52H1702.75V1307.7Z" fill="black"/>
<path d="M1361.54 1307.7H1015.77V1338.52H1361.54V1307.7Z" fill="#263238"/>
<path d="M1324.34 1338.52H654.858L567.322 883.766H1236.8L1324.34 1338.52Z" fill="black"/>
<path d="M986.534 1111.1C987.12 1116.28 986.592 1121.54 984.986 1126.51C983.379 1131.47 980.73 1136.04 977.217 1139.9C973.703 1143.76 969.406 1146.83 964.612 1148.9C959.818 1150.96 954.638 1151.98 949.418 1151.89C938.308 1151.71 927.65 1147.46 919.468 1139.94C911.287 1132.42 906.152 1122.15 905.037 1111.1C904.478 1105.91 905.028 1100.67 906.651 1095.71C908.275 1090.75 910.934 1086.2 914.452 1082.35C917.971 1078.5 922.269 1075.44 927.06 1073.38C931.851 1071.32 937.026 1070.3 942.24 1070.39C953.328 1070.57 963.964 1074.82 972.129 1082.32C980.294 1089.82 985.42 1100.06 986.534 1111.1Z" fill="#181818"/>
<path d="M2174.31 1266.74C2168.69 1280.33 2158.55 1291.57 2145.6 1298.56C2132.65 1305.54 2117.68 1307.85 2103.23 1305.08C2097.21 1303.92 2091.34 1302.1 2085.72 1299.65L2096.14 1275.49C2099.18 1276.87 2102.35 1277.95 2105.6 1278.73C2114.6 1280.97 2124.11 1279.88 2132.38 1275.66C2140.64 1271.45 2147.11 1264.4 2150.59 1255.79C2162.06 1230.93 2158.2 1179.81 2138.77 1163.53C2137.46 1162.31 2132.47 1160.9 2114.87 1168.26C2111.64 1169.66 2107.96 1171.23 2103.84 1173.25C2100.69 1175.03 2097.34 1176.44 2093.87 1177.45L2090.98 1164.67L2087.3 1152.06C2088.44 1151.63 2090.19 1150.75 2092.46 1149.61C2100.47 1145.54 2108.78 1142.12 2117.33 1139.37C2130.54 1135.43 2144.99 1134.38 2155.67 1143.4C2187.09 1170.01 2188.67 1235.57 2174.31 1266.74Z" fill="#00E340"/>
<path d="M2095.97 1275.49C2099.01 1276.87 2102.17 1277.95 2105.42 1278.73L2103.23 1304.99C2097.21 1303.83 2091.34 1302.01 2085.72 1299.56L2095.97 1275.49Z" fill="#263238"/>
<path d="M2117.15 1139.37L2114.7 1168.26C2111.46 1169.66 2107.78 1171.23 2103.67 1173.25C2100.52 1175.03 2097.17 1176.44 2093.69 1177.45L2090.8 1164.67L2087.12 1152.06C2088.26 1151.63 2090.01 1150.75 2092.29 1149.61C2100.29 1145.54 2108.6 1142.12 2117.15 1139.37Z" fill="#263238"/>
<path d="M2103.06 1083.79L2102.18 1107.16L2101.66 1121.43L2101.39 1130L2093.78 1335.45H1916.52L1908.9 1130L1908.64 1121.43L1908.11 1107.16L1907.24 1083.79H2103.06Z" fill="#00E340"/>
<path d="M2103.06 1083.79L2102.18 1107.16H1908.11L1907.24 1083.79H2103.06Z" fill="black"/>
<path d="M2101.66 1121.43L2101.39 1130H1908.9L1908.64 1121.43H2101.66Z" fill="black"/>
<path d="M881.402 1393.66L879.214 1566.2L855.142 3458.56H828.093L804.02 1566.2L801.832 1393.66H881.402Z" fill="black"/>
<path d="M801.832 1393.66H881.402L879.214 1566.2H804.02L801.832 1393.66Z" fill="#263238"/>
<path d="M2800.11 1393.66L2797.92 1566.2L2773.85 3458.56H2746.8L2722.73 1566.2L2720.54 1393.66H2800.11Z" fill="black"/>
<path d="M2800.11 1393.66L2797.92 1566.2H2722.73L2720.54 1393.66H2800.11Z" fill="#263238"/>
<path d="M605.4 1393.66L603.212 1566.2L579.14 3458.56H552.091L528.018 1566.2L525.83 1393.66H605.4Z" fill="#181818"/>
<path d="M525.83 1393.66H605.4L603.212 1566.2H528.018L525.83 1393.66Z" fill="#263238"/>
<path d="M2524.02 1393.66L2521.83 1566.2L2497.76 3458.56H2470.71L2446.64 1566.2L2444.45 1393.66H2524.02Z" fill="#181818"/>
<path d="M2444.45 1393.66H2524.02L2521.83 1566.2H2446.64L2444.45 1393.66Z" fill="#263238"/>
<path d="M2464.41 2859.81H565.659V2894.82H2464.41V2859.81Z" fill="#181818"/>
<path d="M2847.38 1335.45H2601.4V1435.33H2847.38V1335.45Z" fill="black"/>
<path d="M2601.4 1335.45H438.994V1435.33H2601.4V1335.45Z" fill="#181818"/>
<path d="M881.753 2374.24C740.907 2577.15 594.634 2811.93 564.609 3062.28C564.609 3066.04 570.387 3067.09 571.087 3063.33C586.009 2994.91 605.754 2927.63 630.174 2862C725.851 2832.67 819.865 2808.16 867.747 2711C916.505 2611.12 906.263 2483.4 893.308 2376.17C892.432 2370.39 884.642 2370.39 881.753 2374.24Z" fill="#00E340"/>
<path d="M627.022 2857.36C691.886 2708.98 775.396 2559.73 882.103 2437.18C882.803 2436.4 883.941 2437.18 883.328 2438.41C813.299 2525.51 760.777 2620.22 709.131 2716.6C757.364 2666.88 810.235 2622.32 855.929 2569.71C856.805 2568.75 858.205 2569.71 857.417 2571.2C812.074 2626.35 762.616 2686.31 703.354 2727.28C687.597 2756.87 671.695 2786.48 655.646 2816.13C659.586 2813.94 663.7 2811.93 667.814 2809.82C668.514 2809.82 669.127 2810.52 668.427 2810.87C663.875 2813.24 659.673 2815.69 654.771 2817.7C647.155 2831.71 639.54 2845.8 631.749 2859.81C629.998 2863.13 625.621 2860.51 627.022 2857.36Z" fill="#263238"/>
<path d="M675.693 2805.36C714.986 2783.03 752.452 2757.62 787.739 2729.38C788.702 2728.59 790.103 2729.99 789.14 2730.78C754.956 2760.76 717.45 2786.72 677.356 2808.16C675.518 2808.77 673.855 2806.41 675.693 2805.36Z" fill="#263238"/>
<path d="M546.752 3085.65C546.752 3088.71 552.267 3088.45 552.092 3085.65C550.516 3003.54 547.452 2921.17 546.227 2838.71C566.01 2795.73 610.478 2770.96 640.853 2736.03C662.705 2710.57 681.534 2682.67 696.964 2652.87C732.66 2581.75 753.508 2504.1 758.239 2424.67C764.367 2336.69 722.7 2048.26 685.934 2059.2C666.939 2064.98 608.99 2210.2 593.934 2258.08C569.527 2337.04 552.329 2418.06 542.55 2500.12C518.215 2693.66 526.443 2891.85 546.752 3085.65Z" fill="#00E340"/>
<path d="M536.335 2731.83C537.823 2627.92 558.219 2522.44 577.127 2421.16C597.61 2312.01 622.208 2209.06 675.255 2110.76C676.217 2108.92 678.931 2110.76 678.056 2112.34C643.144 2188.63 616.724 2268.54 599.273 2350.61C602.862 2344.66 607.239 2339.05 611.003 2333.1C612.404 2330.91 616.08 2333.1 614.68 2335.12C609.949 2344.02 604.348 2352.44 597.96 2360.24C597.702 2360.31 597.431 2360.31 597.172 2360.24C580.278 2438.32 568.723 2517.8 559.269 2597.46C560.057 2596.41 560.932 2595.27 561.808 2594.31C562.683 2593.35 563.383 2594.31 563.033 2595.19C561.633 2597.9 560.057 2600.53 558.569 2603.15C553.754 2643.51 549.815 2683.68 545.001 2723.6C615.03 2660.4 673.679 2586.69 705.542 2496.97C705.542 2496.53 706.33 2496.97 706.242 2496.97C675.167 2590.02 624.309 2673.36 544.125 2731.57C542.9 2742.33 541.762 2753.1 540.536 2763.78C540.536 2765.97 536.685 2765.53 536.685 2763.78C536.685 2754.33 536.685 2744.87 536.685 2735.33C536.391 2735.16 536.142 2734.91 535.958 2734.63C535.775 2734.34 535.661 2734.01 535.627 2733.67C535.593 2733.33 535.639 2732.98 535.762 2732.66C535.885 2732.35 536.081 2732.06 536.335 2731.83Z" fill="#263238"/>
<path d="M565.222 2580.48C617.744 2497.41 666.239 2416.7 703.617 2325.49C703.617 2324.44 705.718 2325.49 705.368 2326.19C674.292 2416.7 629.736 2508.7 568.023 2582.49C566.798 2583.98 564.172 2582.14 565.222 2580.48Z" fill="#263238"/>
<path d="M629.999 2307.45C651.445 2266.75 674.204 2227.1 694.25 2185.6C694.863 2184.47 696.439 2185.6 696.001 2186.57C679.785 2229.61 658.822 2270.72 633.5 2309.12C633.211 2309.45 632.823 2309.68 632.393 2309.76C631.963 2309.85 631.516 2309.8 631.119 2309.61C630.723 2309.42 630.399 2309.11 630.196 2308.72C629.994 2308.33 629.925 2307.89 629.999 2307.45Z" fill="#263238"/>
<path d="M621.595 2325.14C622.12 2325.14 622.12 2325.75 621.595 2325.84C621.07 2325.92 621.158 2325.14 621.595 2325.14Z" fill="#263238"/>
<path d="M503.509 2838.36C503.977 2892.77 499.11 2947.1 488.978 3000.57C490.028 3006.34 490.991 3012.12 492.042 3018.07C507.448 2958.72 515.939 2841.51 515.851 2831.53C515.813 2749.71 507.365 2668.11 490.641 2588.01C460.879 2437.97 401.179 2294.85 292.809 2185.34C291.918 2184.62 290.874 2184.12 289.758 2183.87C288.642 2183.61 287.484 2183.62 286.37 2183.88C285.256 2184.14 284.216 2184.65 283.33 2185.38C282.443 2186.1 281.734 2187.02 281.254 2188.06C241.951 2297.13 260.508 2425.45 299.725 2531.98C321.042 2589.5 350.618 2643.61 387.523 2692.61C425.339 2742.25 472.609 2783.83 503.509 2838.36Z" fill="#00E340"/>
<path d="M306.727 2234.97C410.983 2393.77 485.914 2583.54 499.92 2774.28C499.92 2777.7 494.493 2778.75 493.88 2775.25C490.991 2758.18 487.927 2741.28 484.689 2724.39C442.321 2686.14 398.816 2645.61 367.828 2597.2C367.302 2596.41 368.528 2595.36 369.228 2596.06C406.256 2636.07 440.92 2677.03 482.5 2712.4C474.213 2670.38 464.468 2629.06 453.263 2588.45L445.122 2579.69C443.371 2577.68 446.173 2574.61 448.011 2576.63L450.462 2579.17C434.744 2523.32 415.715 2468.45 393.476 2414.86C367.215 2385.36 338.065 2360.06 318.545 2324.09C318.492 2323.92 318.498 2323.74 318.561 2323.57C318.624 2323.41 318.74 2323.27 318.892 2323.18C319.043 2323.08 319.221 2323.05 319.396 2323.07C319.571 2323.09 319.734 2323.17 319.858 2323.3C335.264 2343.69 350.32 2364.27 367.653 2383.09C374.656 2390.61 382.184 2397.62 389.362 2404.97C364.737 2346.99 335.829 2290.93 302.876 2237.25C302.695 2236.75 302.694 2236.2 302.873 2235.71C303.052 2235.21 303.4 2234.78 303.857 2234.51C304.314 2234.24 304.851 2234.14 305.375 2234.23C305.9 2234.31 306.378 2234.58 306.727 2234.97Z" fill="#263238"/>
<path d="M332.638 2433.86C366.077 2476.31 403.98 2516.58 435.23 2560.52C436.105 2561.75 434.267 2563.15 433.129 2562.18C393.65 2527.17 359.686 2478.85 330.449 2435.17C329.574 2433.86 331.587 2432.37 332.638 2433.86Z" fill="#263238"/>
<path d="M440.045 2570.41L441.533 2571.73C442.496 2572.69 441.008 2574.18 440.045 2573.3L438.644 2571.9C437.594 2571.03 438.995 2569.45 440.045 2570.41Z" fill="#263238"/>
<path d="M140.233 2502.4C150.65 2585.29 197.307 2683.42 252.542 2746.01C276.961 2773.21 306.771 2795.03 340.079 2810.09C377.544 2827.59 416.848 2847.2 455.451 2861.03C474.94 2906.77 489.836 2954.33 499.92 3003.02C500.97 2998.82 502.108 2994.26 503.246 2990.24C472.608 2780.15 331.062 2604.2 153.101 2493.73C151.695 2492.97 150.108 2492.61 148.511 2492.69C146.915 2492.76 145.37 2493.28 144.044 2494.17C142.718 2495.06 141.661 2496.3 140.99 2497.75C140.318 2499.2 140.057 2500.81 140.233 2502.4Z" fill="#00E340"/>
<path d="M202.297 2562.62C201.071 2561.57 202.297 2559.3 204.048 2560.26C298.412 2626 384.547 2723.43 434.093 2827.59C435.493 2830.4 431.554 2833.11 429.804 2830.22C421.05 2816.3 412.296 2802.73 403.543 2789.34C363.539 2782.95 324.76 2756.08 294.735 2730.34C293.947 2729.64 294.735 2728.42 295.873 2729.12C311.502 2742.53 328.768 2753.91 347.257 2762.99C364 2770.05 381.091 2776.24 398.466 2781.55C382.972 2758.62 366.953 2736.64 350.321 2715.29C307.078 2701.98 265.498 2676.86 228.733 2651.56C227.595 2650.77 228.733 2648.85 229.871 2649.55C266.47 2670.25 304.133 2689 342.705 2705.74C317.479 2674.4 290.381 2644.61 261.559 2616.54C247.816 2609.8 233.898 2602.98 220.592 2595.71C220.407 2595.56 220.276 2595.35 220.216 2595.12C220.155 2594.89 220.17 2594.64 220.257 2594.42C220.345 2594.2 220.5 2594.01 220.702 2593.88C220.903 2593.75 221.141 2593.68 221.38 2593.7C232.389 2597.18 242.941 2601.97 252.805 2607.97C236.786 2592.65 220.154 2577.42 202.297 2562.62Z" fill="#263238"/>
<path d="M208.162 2635.19C210.557 2636.55 212.84 2638.1 214.99 2639.83C215.603 2640.35 214.99 2641.23 214.202 2640.88C211.689 2639.87 209.284 2638.61 207.024 2637.12C206.824 2636.94 206.692 2636.7 206.65 2636.44C206.608 2636.18 206.659 2635.91 206.794 2635.68C206.929 2635.45 207.14 2635.28 207.389 2635.19C207.639 2635.1 207.913 2635.1 208.162 2635.19Z" fill="#263238"/>
<path d="M715.346 2876.79L708.343 3036.89L689.085 3476.06H378.77L359.512 3036.89L352.509 2876.79H715.346Z" fill="#181818"/>
<path d="M715.346 2876.79L708.343 3036.89H359.512L352.509 2876.79H715.346Z" fill="#263238"/>
<path d="M742.045 2843.96H325.811V2944.89H742.045V2843.96Z" fill="#181818"/>
</svg>
