<svg width="765" height="765" viewBox="0 0 765 765" fill="none" xmlns="http://www.w3.org/2000/svg">
<path d="M17.1919 656.141L105.042 655.717L192.912 655.557L368.613 655.257L544.314 655.557L632.184 655.717L720.034 656.141L632.184 656.566L544.314 656.725L368.613 657.026L192.912 656.725L105.042 656.566L17.1919 656.141Z" fill="#263238"/>
<path d="M154.068 49.8724C153.445 49.4479 122.839 43.9827 102.775 67.5592C84.317 89.2256 84.6004 121.734 87.831 121.769C91.7796 121.769 98.033 104.772 115.395 92.1616C121.554 87.6868 133.343 87.9345 133.343 87.9345L154.068 49.8724Z" fill="#00E340"/>
<path d="M212.579 89.1194C213.203 89.5262 228.563 114.907 211.181 140.27C195.198 163.599 162.212 173.875 161.154 170.939C159.869 167.401 175.059 156.436 182.238 136.98C184.788 130.082 180.745 119.718 180.745 119.718L212.579 89.1194Z" fill="#00E340"/>
<path d="M159.907 135.972L123.841 111.776C123.841 111.776 125.447 76.0135 149.648 48.3159C161.794 34.9014 176.305 23.5351 192.553 14.7109C213.146 3.26755 231.869 -2.07387 236.006 0.738332C240.144 3.55054 240.805 21.9625 235.874 43.8058C232.177 61.0239 225.373 77.5262 215.753 92.6037C195.557 123.043 159.907 135.972 159.907 135.972Z" fill="#EBEBEB"/>
<path d="M157.16 134.103L126.614 113.614L119.968 122.299L150.514 142.787L157.16 134.103Z" fill="#00E340"/>
<path d="M204.7 76.9864C202.176 80.286 198.663 82.8107 194.606 84.241C190.549 85.6713 186.13 85.9431 181.908 85.0219C177.686 84.1008 173.851 82.028 170.887 79.0659C167.924 76.1039 165.965 72.3855 165.259 68.3812C164.553 64.3768 165.132 60.2665 166.922 56.5701C168.712 52.8737 171.632 49.7572 175.314 47.615C178.996 45.4728 183.274 44.401 187.607 44.5352C191.94 44.6694 196.133 46.0037 199.655 48.3691C201.995 49.9372 203.981 51.9216 205.501 54.2088C207.021 56.4961 208.044 59.0413 208.513 61.699C208.981 64.3568 208.886 67.0749 208.231 69.698C207.577 72.3211 206.377 74.7978 204.7 76.9864Z" fill="#00E340"/>
<path d="M186.905 79.2678C195.294 79.2678 202.094 72.9012 202.094 65.0476C202.094 57.194 195.294 50.8274 186.905 50.8274C178.515 50.8274 171.715 57.194 171.715 65.0476C171.715 72.9012 178.515 79.2678 186.905 79.2678Z" fill="#A6A6A6"/>
<path d="M235.93 43.894L192.477 14.7992C213.069 3.35582 231.792 -1.9856 235.93 0.826605C240.067 3.63881 240.86 21.9624 235.93 43.894Z" fill="#00E340"/>
<path d="M201.64 15.4538C201.516 15.6144 201.359 15.7506 201.179 15.8545C200.999 15.9584 200.799 16.028 200.59 16.0592C200.381 16.0904 200.168 16.0827 199.962 16.0365C199.756 15.9903 199.562 15.9064 199.391 15.7898C199.046 15.5553 198.814 15.2018 198.746 14.807C198.679 14.4123 198.782 14.0087 199.032 13.6851C199.283 13.3614 199.661 13.1442 200.082 13.0811C200.504 13.0181 200.935 13.1145 201.281 13.349C201.454 13.4633 201.602 13.609 201.714 13.7776C201.827 13.9461 201.902 14.1341 201.935 14.3304C201.969 14.5266 201.96 14.7272 201.909 14.9201C201.858 15.1131 201.767 15.2945 201.64 15.4538Z" fill="#EBEBEB"/>
<path d="M209.913 21.0428C209.79 21.2035 209.633 21.3396 209.453 21.4435C209.273 21.5475 209.073 21.617 208.864 21.6482C208.655 21.6795 208.442 21.6718 208.236 21.6255C208.03 21.5793 207.836 21.4954 207.665 21.3788C207.494 21.2627 207.349 21.1161 207.238 20.9475C207.128 20.7789 207.053 20.5915 207.02 20.3961C206.987 20.2006 206.995 20.0009 207.044 19.8084C207.093 19.6159 207.182 19.4344 207.306 19.2741C207.43 19.1138 207.587 18.978 207.767 18.8744C207.947 18.7708 208.147 18.7014 208.356 18.6702C208.565 18.639 208.778 18.6466 208.984 18.6925C209.189 18.7385 209.383 18.8219 209.554 18.938C209.728 19.0523 209.876 19.198 209.988 19.3666C210.101 19.5352 210.176 19.7231 210.209 19.9194C210.243 20.1156 210.234 20.3162 210.183 20.5091C210.132 20.7021 210.041 20.8836 209.913 21.0428Z" fill="#EBEBEB"/>
<path d="M218.304 26.6495C218.18 26.8102 218.024 26.9464 217.844 27.0503C217.664 27.1542 217.463 27.2238 217.255 27.255C217.046 27.2862 216.832 27.2785 216.627 27.2323C216.421 27.186 216.227 27.1022 216.056 26.9856C215.885 26.8694 215.74 26.7229 215.629 26.5543C215.518 26.3856 215.444 26.1983 215.411 26.0028C215.377 25.8074 215.386 25.6077 215.435 25.4152C215.484 25.2227 215.573 25.0411 215.697 24.8808C215.821 24.7206 215.978 24.5848 216.158 24.4811C216.338 24.3775 216.538 24.3081 216.747 24.2769C216.955 24.2457 217.169 24.2533 217.374 24.2993C217.58 24.3452 217.774 24.4287 217.945 24.5448C218.117 24.6606 218.262 24.807 218.373 24.9756C218.484 25.1443 218.559 25.3317 218.592 25.5273C218.625 25.7229 218.617 25.9227 218.568 26.1153C218.518 26.3079 218.429 26.4894 218.304 26.6495Z" fill="#EBEBEB"/>
<path d="M226.635 32.2208C226.511 32.3815 226.355 32.5177 226.175 32.6216C225.995 32.7255 225.795 32.795 225.586 32.8263C225.377 32.8575 225.163 32.8498 224.958 32.8035C224.752 32.7573 224.558 32.6735 224.387 32.5568C224.216 32.4407 224.071 32.2941 223.96 32.1255C223.849 31.9569 223.775 31.7695 223.742 31.5741C223.708 31.3786 223.717 31.179 223.766 30.9864C223.815 30.7939 223.904 30.6124 224.028 30.4521C224.152 30.2918 224.309 30.156 224.489 30.0524C224.669 29.9488 224.869 29.8794 225.078 29.8482C225.286 29.817 225.5 29.8246 225.705 29.8705C225.911 29.9165 226.105 29.9999 226.276 30.1161C226.448 30.2319 226.593 30.3783 226.704 30.5469C226.815 30.7155 226.89 30.903 226.923 31.0986C226.956 31.2942 226.948 31.494 226.899 31.6866C226.849 31.8792 226.76 32.0607 226.635 32.2208Z" fill="#EBEBEB"/>
<path d="M234.967 37.8099C234.717 38.1333 234.341 38.3517 233.92 38.4179C233.5 38.4841 233.068 38.3928 232.719 38.1637C232.372 37.9263 232.138 37.5712 232.068 37.1746C231.997 36.7779 232.095 36.3711 232.341 36.0412C232.594 35.7156 232.975 35.4973 233.4 35.4343C233.825 35.3713 234.26 35.4687 234.608 35.7052C234.78 35.821 234.925 35.9674 235.036 36.136C235.147 36.3046 235.221 36.4921 235.255 36.6877C235.288 36.8833 235.28 37.0831 235.231 37.2757C235.181 37.4683 235.092 37.6498 234.967 37.8099Z" fill="#EBEBEB"/>
<path d="M214.016 348.886C214.016 347.683 213.883 346.481 213.883 345.349H215.3C215.3 346.481 215.3 347.648 215.432 348.886H214.016Z" fill="#263238"/>
<path d="M350.23 444.271H347.981V442.945C350.494 442.945 353.007 442.945 355.538 442.945V444.271C353.819 444.236 352.024 444.271 350.23 444.271ZM338.441 443.829C335.909 443.634 333.34 443.369 330.884 443.051L331.072 441.742C333.566 442.06 336.098 442.308 338.629 442.502L338.441 443.829ZM365.174 443.546L365.022 442.237C367.516 441.989 370.048 441.689 372.579 441.335L372.787 442.644C370.237 442.998 367.686 443.316 365.174 443.546ZM321.381 441.565C318.925 441.105 316.412 440.557 313.937 439.973L314.277 438.682C316.733 439.266 319.227 439.814 321.664 440.274L321.381 441.565ZM382.12 440.999L381.818 439.69C384.255 439.195 386.73 438.629 389.186 437.921L389.545 439.213C387.089 439.902 384.595 440.521 382.139 440.999H382.12ZM304.661 437.462C302.242 436.736 299.824 435.923 297.444 435.074L297.954 433.836C300.296 434.685 302.696 435.481 305.095 436.206L304.661 437.462ZM398.595 436.666L398.141 435.41C400.522 434.667 402.921 433.853 405.264 432.987L405.793 434.225C403.526 435.092 401.107 435.905 398.708 436.666H398.595ZM288.753 431.678C286.448 430.705 284.143 429.644 281.876 428.547L282.537 427.362C284.767 428.459 287.072 429.503 289.339 430.475L288.753 431.678ZM414.691 430.794L414.105 429.591C416.372 428.601 418.64 427.539 420.831 426.407L421.511 427.575C419.282 428.636 416.996 429.715 414.691 430.723V430.794ZM273.526 424.179C271.353 422.941 269.18 421.65 267.083 420.341L267.858 419.226C269.936 420.535 272.09 421.826 274.262 423.047L273.526 424.179ZM429.711 422.994L428.936 421.88C430.995 420.606 433.092 419.244 435.133 417.829L435.983 418.89C433.905 420.252 431.808 421.632 429.711 422.923V422.994ZM259.299 415.123C257.297 413.673 255.294 412.152 253.348 410.613L254.274 409.605C256.163 411.144 258.166 412.629 260.169 414.062L259.299 415.123ZM443.408 413.355L442.482 412.346C444.371 410.843 446.261 409.233 448.15 407.589L449.132 408.544C447.205 410.082 445.297 411.71 443.408 413.231V413.355ZM246.264 404.653C244.374 402.99 242.636 401.257 240.936 399.523L241.975 398.621C243.656 400.39 245.451 402.053 247.265 403.697L246.264 404.653ZM455.745 402.159L454.706 401.257C456.368 399.488 458.05 397.719 459.712 395.951L460.789 396.817C459.108 398.533 457.407 400.337 455.745 402.035V402.159ZM234.701 392.732C233.114 390.839 231.565 388.911 230.129 386.983L231.282 386.223C232.699 388.133 234.229 390.043 235.816 391.9L234.701 392.732ZM466.854 389.707L465.739 388.894C467.231 387.125 468.743 385.144 470.235 383.181L471.388 383.941C469.801 385.922 468.27 387.868 466.854 389.707ZM225.028 379.307C223.725 377.203 222.516 375.062 221.439 372.975L222.705 372.392C223.763 374.461 224.953 376.566 226.256 378.653L225.028 379.307ZM476.753 376.584L475.563 375.841C476.942 373.877 478.321 371.879 479.663 369.863L480.872 370.552C479.436 372.586 478.057 374.603 476.678 376.584H476.753ZM217.755 364.68C216.902 362.418 216.177 360.116 215.582 357.782L216.961 357.464C217.543 359.754 218.249 362.015 219.077 364.238L217.755 364.68ZM485.784 362.912L484.575 362.24C485.841 360.206 487.106 358.154 488.353 356.067L489.581 356.721C488.259 358.808 486.993 360.931 485.746 362.912H485.784ZM494.191 348.904L492.944 348.267C494.134 346.198 495.325 344.093 496.515 341.988L497.762 342.607L494.191 348.904ZM502.145 334.754L500.879 334.153L504.336 327.803L505.602 328.387C504.406 330.486 503.228 332.585 502.069 334.683L502.145 334.754ZM509.872 320.428L508.606 319.827L512.007 313.459L513.273 314.043L509.872 320.428ZM517.542 306.084L516.277 305.482L519.696 299.115L520.962 299.717L517.542 306.084ZM525.288 291.775L524.041 291.174C525.194 289.069 526.365 286.964 527.555 284.842L528.821 285.461C527.555 287.495 526.384 289.6 525.213 291.704L525.288 291.775ZM533.299 277.626L532.052 276.989C533.261 274.92 534.47 272.833 535.717 270.763L536.945 271.418C535.641 273.399 534.413 275.468 533.223 277.537L533.299 277.626ZM541.63 263.689L540.402 263.034C541.687 260.982 542.972 258.931 544.275 256.897L545.484 257.587C544.124 259.556 542.814 261.578 541.555 263.653L541.63 263.689ZM550.472 250.034L549.263 249.327C550.623 247.328 552.002 245.33 553.4 243.349L554.572 244.092C553.117 245.966 551.738 247.965 550.397 249.946L550.472 250.034ZM559.918 236.734L558.766 235.973C560.221 234.028 561.694 232.082 563.206 230.172L564.339 230.95C562.803 232.801 561.304 234.7 559.843 236.645L559.918 236.734ZM570.083 223.875L568.874 222.973C570.442 221.099 572.047 219.259 573.672 217.42L574.768 218.269C573.162 220.09 571.575 221.93 570.007 223.787L570.083 223.875ZM581.04 211.619L579.982 210.734C581.67 208.965 583.389 207.197 585.14 205.428L586.16 206.33C584.347 208.028 582.646 209.761 580.965 211.53L581.04 211.619ZM592.81 200.051L591.828 199.114C593.717 197.451 595.493 195.806 597.364 194.197L598.327 195.17C596.381 196.691 594.53 198.318 592.735 199.981L592.81 200.051ZM605.431 189.315L604.524 188.307C606.413 186.768 608.453 185.265 610.437 183.797L611.306 184.841C609.266 186.203 607.282 187.706 605.355 189.227L605.431 189.315ZM618.882 179.499L618.051 178.42C620.11 177.041 622.226 175.661 624.323 174.352L625.117 175.449C622.944 176.669 620.847 178.031 618.807 179.411L618.882 179.499ZM633.108 170.656L632.353 169.524C634.525 168.303 636.755 167.083 638.946 165.986L639.645 167.154C637.378 168.144 635.187 169.365 633.108 170.585V170.656Z" fill="#263238"/>
<path d="M648.222 162.644L647.58 161.459C648.695 160.928 649.828 160.398 650.981 159.885L651.604 161.07L648.222 162.644Z" fill="#263238"/>
<path d="M643.066 138.82L629.709 173.185L657.765 152.668L764.999 116.251L643.066 138.82Z" fill="#00E340"/>
<path opacity="0.2" d="M643.066 138.82L629.709 173.185L657.765 152.668L764.999 116.251L643.066 138.82Z" fill="#222221"/>
<path d="M661.355 160.68L629.709 173.185L657.765 152.668L661.355 160.68Z" fill="#263238"/>
<path d="M657.764 152.668L764.998 116.251L677.034 196.62L657.764 152.668Z" fill="#00E340"/>
<path d="M643.066 138.82L598.498 111.882L764.999 116.251L643.066 138.82Z" fill="#00E340"/>
<path d="M400.601 316.943C400.601 316.943 389.058 413.372 381.142 475.966C379.706 487.267 378.402 497.473 377.363 505.786C375.871 517.034 374.756 524.87 374.246 527.417C373.793 529.592 373.944 538.259 374.038 550.409C374.038 557.254 374.038 565.213 374.038 573.756C373.622 606.742 373.717 650.464 373.811 677.878C373.811 693.496 373.245 703.825 373.245 703.825H293.442C293.442 703.825 293.216 693.779 293.027 677.878C292.517 634.758 292.214 548.641 297.032 503.097C303.72 439.867 325.163 316.943 325.163 316.943H400.601Z" fill="#EB9481"/>
<path d="M237.179 763.677C241.505 765.021 364.987 764.685 369.692 761.909C371.468 760.865 372.469 744.01 373.055 723.634C373.181 719.224 373.281 714.702 373.357 710.068C373.451 704.603 373.527 699.067 373.565 693.691C373.716 669.548 373.357 648.288 373.357 648.288H293.044V693.691V710.068L293.46 723.634C293.46 723.634 246.229 743.567 241.449 747.158C236.669 750.748 232.872 762.421 237.179 763.677Z" fill="#EB9481"/>
<path d="M237.179 763.677C241.505 765.021 364.987 764.685 369.692 761.908C371.468 760.865 372.469 744.009 373.055 723.634C373.181 719.224 373.281 714.702 373.357 710.068C373.451 704.603 373.527 699.067 373.565 693.69H293.044V710.068L293.46 723.634C293.46 723.634 246.229 743.567 241.449 747.157C236.669 750.748 232.872 762.421 237.179 763.677Z" fill="white"/>
<path d="M236.801 763.854C239.616 764.721 362.663 766.631 370.05 762.085C372.204 760.741 373.262 736.05 373.829 709.962H293.044L293.46 723.599C293.46 723.599 245.982 743.638 241.146 747.246C236.309 750.854 232.474 762.421 236.801 763.854Z" fill="black"/>
<path d="M238.577 759.203C259.359 758.654 343.375 758.336 364.005 759.291C364.175 759.291 364.175 759.415 364.005 759.415C343.375 760.37 259.378 760.051 238.577 759.521C238.124 759.503 238.124 759.203 238.577 759.203Z" fill="#263238"/>
<path d="M290.439 719.248C298.619 717.78 308.633 718.947 314.999 724.377C315.226 724.589 314.905 724.908 314.64 724.837C306.808 722.5 298.734 720.946 290.552 720.203C290.417 720.217 290.281 720.18 290.175 720.101C290.069 720.021 290.001 719.905 289.986 719.778C289.971 719.652 290.01 719.525 290.095 719.425C290.18 719.326 290.304 719.262 290.439 719.248Z" fill="#263238"/>
<path d="M284.525 722.59C292.724 721.14 302.737 722.29 309.085 727.737C309.331 727.95 309.085 728.268 308.745 728.197C300.887 725.827 292.78 724.256 284.563 723.51C284.463 723.477 284.376 723.417 284.313 723.337C284.25 723.257 284.214 723.161 284.21 723.062C284.206 722.963 284.234 722.865 284.29 722.781C284.346 722.697 284.428 722.631 284.525 722.59Z" fill="#263238"/>
<path d="M278.63 725.951C286.811 724.483 296.843 725.65 303.191 731.08C303.436 731.292 303.096 731.611 302.832 731.54C295 729.201 286.926 727.648 278.744 726.906C278.608 726.92 278.473 726.883 278.366 726.804C278.26 726.724 278.192 726.608 278.177 726.481C278.162 726.355 278.201 726.228 278.286 726.128C278.371 726.029 278.495 725.965 278.63 725.951Z" fill="#263238"/>
<path d="M272.717 729.294C280.916 727.843 290.929 728.993 297.277 734.441C297.523 734.653 297.277 734.971 296.937 734.9C289.101 732.553 281.02 731 272.83 730.266C272.704 730.261 272.584 730.214 272.492 730.133C272.401 730.052 272.342 729.943 272.329 729.826C272.315 729.708 272.347 729.59 272.418 729.493C272.489 729.395 272.595 729.324 272.717 729.294Z" fill="#263238"/>
<path d="M278.952 712.456C284.752 716.665 292.309 718.363 299.073 720.698C299.228 720.733 299.39 720.735 299.546 720.702C299.702 720.669 299.848 720.603 299.972 720.509C300.097 720.415 300.196 720.295 300.263 720.159C300.33 720.023 300.362 719.875 300.358 719.725C300.391 719.724 300.424 719.716 300.453 719.701C300.482 719.686 300.507 719.665 300.526 719.639C300.544 719.613 300.556 719.583 300.56 719.552C300.563 719.521 300.559 719.489 300.547 719.46C298.037 712.677 293.673 706.627 287.889 701.915C284.45 699.244 278.442 697.387 275.249 701.543C272.057 705.7 275.571 710.015 278.952 712.456ZM276.855 706.301C275.382 697.882 285.036 702.286 287.492 704.355C289.046 705.716 290.498 707.176 291.837 708.724C294.538 711.962 297.06 715.327 299.394 718.806C296.145 717.479 292.801 716.418 289.513 715.268C285.64 713.747 277.668 710.935 276.855 706.301Z" fill="#263238"/>
<path d="M327.863 707.699C325.861 702.923 319.551 703.312 315.527 705.099C308.643 708.297 302.779 713.134 298.523 719.124C298.504 719.15 298.491 719.179 298.486 719.21C298.482 719.241 298.485 719.273 298.496 719.302C298.507 719.332 298.526 719.358 298.55 719.38C298.575 719.401 298.604 719.417 298.637 719.425C298.504 720.009 298.882 720.734 299.619 720.663C306.798 719.991 314.563 720.115 321.308 717.391C325.294 715.817 329.753 712.209 327.863 707.699ZM310.331 717.568C306.817 717.975 303.303 718.222 299.789 718.753C303.003 715.933 306.37 713.271 309.878 710.776C311.592 709.585 313.391 708.503 315.262 707.539C318.171 706.107 328.714 704.126 325.048 711.926C323.027 716.224 314.544 717.073 310.331 717.568Z" fill="#263238"/>
<path d="M400.601 316.943C400.601 316.943 389.057 413.372 381.141 475.966C379.706 487.267 378.402 497.473 377.363 505.786C375.87 517.034 374.756 524.87 374.246 527.417C373.792 529.592 373.943 538.259 374.038 550.409C374.038 557.254 374.038 565.213 374.038 573.756C373.622 606.742 373.717 650.464 373.811 677.878H293.045C292.535 634.758 292.233 548.641 297.05 503.097C303.72 439.867 325.163 316.943 325.163 316.943H400.601Z" fill="#1E1E1E"/>
<path d="M373.962 550.445C373.868 538.259 373.716 529.592 374.17 527.452C377.193 512.542 400.619 316.979 400.619 316.979H336.12L373.962 550.445Z" fill="#263238"/>
<path d="M652.931 526.798C652.931 526.798 650.229 527.823 645.374 529.557C641.142 531.096 635.247 533.094 628.087 535.588L625.291 536.508L624.781 536.685L623.024 537.268C573.903 553.576 477.324 581.733 433.153 567.442C388.982 553.151 326.391 316.165 325.163 316.943H432.227C432.227 316.943 452.14 365.034 435.156 395.296C433.588 398.091 473.187 496.818 497.142 494.112C515.846 491.99 568.008 473.666 600.919 464.186L606.285 462.648L612.274 460.879H612.368L622.57 457.943L629.447 455.962L652.931 526.798Z" fill="#EB9481"/>
<path d="M734.906 558.421C735.001 554.159 698.255 443.793 694.004 440.415C692.417 439.124 674.922 443.209 653.97 448.692C649.436 449.859 644.694 450.921 640.028 452.406C634.171 454.281 578.173 471.367 578.173 471.367L601.203 544.201L645.525 530.052L663.7 524.268L677.416 519.917C677.416 519.917 711.687 556.263 716.75 559.5C721.814 562.737 734.812 562.666 734.906 558.421Z" fill="#EB9481"/>
<path d="M734.905 558.421C735 554.159 698.254 443.793 694.003 440.415C692.416 439.124 674.921 443.209 653.969 448.692C649.435 449.859 644.693 450.921 640.027 452.406C634.17 454.281 628.181 455.855 622.57 457.712C629.56 479.273 639.479 510.667 645.524 529.981L663.699 524.197L677.415 519.846C677.415 519.846 711.686 556.193 716.749 559.429C721.813 562.666 734.811 562.666 734.905 558.421Z" fill="white"/>
<path d="M735.13 558.705C735.225 554.425 698.271 443.44 694.001 440.044C692.112 438.47 666.493 444.855 639.723 452.106L663.527 524.357L677.319 519.971C677.319 519.971 711.779 556.547 716.88 559.801C721.981 563.056 735.13 562.985 735.13 558.705Z" fill="black"/>
<path d="M729.916 558.51C723.228 540.045 698.139 464.982 693.038 446.269C693.038 446.11 693.038 446.075 693.17 446.269C700.217 464.434 724.645 539.674 730.238 558.439C730.351 558.811 730.049 558.899 729.916 558.51Z" fill="#263238"/>
<path d="M673.844 523.88C669.952 516.999 668.176 507.679 671.955 500.462C672.087 500.179 672.522 500.374 672.522 500.639C672.419 508.362 673.217 516.072 674.902 523.632C674.937 523.763 674.915 523.902 674.841 524.018C674.766 524.135 674.646 524.218 674.505 524.251C674.365 524.284 674.216 524.263 674.092 524.194C673.968 524.124 673.879 524.011 673.844 523.88Z" fill="#263238"/>
<path d="M679.003 528.177C675.111 521.279 673.335 511.976 677.113 504.76C677.265 504.477 677.68 504.671 677.68 504.937C677.589 512.659 678.387 520.368 680.061 527.93C680.096 528.061 680.074 528.2 679.999 528.316C679.925 528.432 679.804 528.516 679.664 528.549C679.524 528.581 679.375 528.561 679.251 528.491C679.127 528.421 679.038 528.309 679.003 528.177Z" fill="#263238"/>
<path d="M684.122 532.493C680.23 525.595 678.455 516.292 682.233 509.076C682.384 508.793 682.8 508.987 682.8 509.252C682.718 516.974 683.516 524.682 685.18 532.245C685.215 532.377 685.193 532.516 685.119 532.632C685.045 532.748 684.924 532.831 684.784 532.864C684.643 532.897 684.495 532.876 684.371 532.807C684.247 532.737 684.157 532.624 684.122 532.493Z" fill="#263238"/>
<path d="M689.319 536.755C685.427 529.858 683.651 520.554 687.429 513.338C687.581 513.055 687.996 513.25 687.996 513.515C687.913 521.237 688.711 528.945 690.377 536.508C690.412 536.639 690.39 536.778 690.315 536.894C690.241 537.01 690.12 537.094 689.98 537.127C689.84 537.16 689.691 537.139 689.567 537.069C689.443 537 689.354 536.887 689.319 536.755Z" fill="#263238"/>
<path d="M672.538 515.124C672.391 514.997 672.212 514.906 672.017 514.859C671.822 514.813 671.619 514.813 671.424 514.859C671.403 514.836 671.376 514.818 671.347 514.806C671.318 514.793 671.286 514.787 671.254 514.787C671.222 514.787 671.19 514.793 671.16 514.806C671.131 514.818 671.105 514.836 671.084 514.859L670.498 515.266H670.385L670.158 515.425C669.868 515.625 669.585 515.837 669.308 516.062C666.932 517.879 664.767 519.924 662.847 522.163C661.959 523.189 661.108 524.268 660.334 525.365C658.998 527.235 657.853 529.219 656.914 531.29C655.195 535.146 655.025 541.053 660.258 542.698C665.492 544.343 668.798 539.921 670.309 536.171C671.927 531.441 672.693 526.492 672.576 521.527C672.576 519.617 672.671 517.724 672.784 515.867C672.828 515.734 672.828 515.593 672.784 515.46C672.74 515.328 672.654 515.21 672.538 515.124ZM670.234 522.199C670.234 523.402 670.064 524.587 669.969 525.736C669.648 529.68 669.138 537.657 664.641 539.744C656.48 543.547 658.123 533.607 659.521 530.812C660.453 529.014 661.514 527.277 662.695 525.612C663.017 525.135 663.357 524.675 663.697 524.215C665.756 521.474 668.061 518.909 670.309 516.327L670.63 515.938C670.63 515.938 670.63 516.062 670.63 516.115C670.621 516.232 670.621 516.351 670.63 516.468C670.422 518.396 670.29 520.306 670.177 522.217L670.234 522.199Z" fill="#263238"/>
<path d="M672.58 515.195C671.673 513.144 670.804 511.004 669.897 508.881C668.284 504.533 665.916 500.463 662.888 496.836C660.583 494.289 656.748 491.849 653.215 492.839C652.435 493.047 651.708 493.402 651.08 493.883C646.792 497.066 649.04 502.602 652.063 505.68C654.23 507.859 656.673 509.783 659.336 511.41C662.446 513.372 665.811 514.953 669.349 516.115C669.708 516.239 670.048 516.345 670.407 516.433L670.728 516.522H670.861L671.352 516.663C671.386 516.674 671.422 516.678 671.457 516.674C671.493 516.669 671.526 516.657 671.556 516.638C671.585 516.619 671.61 516.594 671.627 516.564C671.644 516.535 671.653 516.502 671.654 516.469C671.814 516.463 671.971 516.423 672.111 516.35C672.251 516.278 672.372 516.176 672.462 516.052C672.552 515.928 672.609 515.785 672.63 515.637C672.651 515.488 672.633 515.337 672.58 515.195ZM670.162 515.408C666.481 513.442 662.912 511.299 659.468 508.987L658.222 508.085C656.952 507.161 655.741 506.169 654.594 505.114C652.497 503.151 648.095 495.74 653.933 495.068C654.679 494.98 655.435 494.98 656.181 495.068C661.15 495.598 664.532 502.938 666.27 506.546C667.668 509.447 668.896 512.383 670.388 515.231C670.45 515.37 670.519 515.505 670.596 515.637L670.162 515.408Z" fill="#263238"/>
<path d="M628.087 535.588L625.291 536.508L624.781 536.685L623.024 537.268C573.903 553.576 477.324 581.733 433.153 567.442C388.982 553.151 326.391 316.165 325.163 316.943H432.227C432.227 316.943 452.14 365.034 435.156 395.296C433.588 398.091 473.187 496.818 497.142 494.112C515.846 491.99 568.008 473.666 600.919 464.186L606.285 462.648L628.087 535.588Z" fill="#1E1E1E"/>
<path d="M323.084 225.007C323.092 225.251 323.194 225.484 323.371 225.663C323.548 225.842 323.788 225.955 324.047 225.98L328.223 225.697C330.679 215.492 333.664 207.232 333.003 210.38C332.04 215.339 331.817 220.398 332.341 225.414L340.578 224.724C341.561 207.179 344.036 193.949 344.357 197.893C345.396 213.812 346.983 218.799 348.797 224.07C368.691 222.301 394.744 219.896 413.542 217.685C414.467 207.922 415.034 197.434 415.431 198.106C418.699 203.129 420.4 210.787 421.25 216.748C427.22 216.005 431.981 215.297 434.871 214.714C434.871 214.714 435.23 206.578 435.079 203.942C434.746 197.18 433.154 190.524 430.375 184.275C427.313 178.155 423.598 172.342 419.285 166.924L419.172 166.8C416.493 163.161 414.274 159.244 412.559 155.127C411.37 152.106 410.441 149.001 409.782 145.841C407.383 134.274 399.504 125.024 388.15 123.379C364.95 106.559 345.32 117.507 341.032 133.301C340.616 134.84 340.257 136.591 339.936 138.501C338.708 145.576 338.047 154.561 337.102 161.494C336.8 164.236 336.321 166.959 335.666 169.648C331.907 182.63 320.873 191.137 323.084 225.007Z" fill="#263238"/>
<path d="M393.176 125.819C396.968 127.053 400.354 129.186 403.003 132.01C405.652 134.834 407.473 138.252 408.29 141.932C409.26 146.814 410.865 151.566 413.07 156.082C415.757 160.41 419.105 164.348 423.007 167.773C428.902 173.415 433.266 179.234 435.155 187.493C437.044 195.753 437.97 205.976 436.156 214.289C437.165 204.97 436.261 195.557 433.492 186.556C430.715 177.518 424.726 172.407 418.473 166.039C413.436 161.024 409.881 154.867 408.157 148.176C407.062 144.037 406.552 139.633 404.379 135.795C401.753 131.32 397.332 128.844 393.043 126.686C392.25 126.456 392.647 125.696 393.176 125.819Z" fill="#263238"/>
<path d="M325.162 184.416C329.356 177.129 333.891 170.779 335.78 162.166C337.518 154.313 338.009 146.248 339.785 138.359C339.785 138.235 340.012 138.253 339.974 138.359C337.48 152.19 338.425 165.721 331.34 178.013C327.562 184.699 323.575 190.924 321.478 198.618C319.373 206.68 318.81 215.028 319.816 223.274C319.816 223.574 319.476 223.592 319.4 223.274C316.4 210.089 318.44 196.337 325.162 184.416Z" fill="#263238"/>
<path d="M357.79 221.346C341.07 236.539 279.216 264.785 257.15 257.533C242.753 252.811 201.473 215.085 193.349 203.907C183.903 190.854 213.47 165.562 221.801 170.603C232.211 176.917 264.48 209.867 274.285 215.103C279.953 218.127 319.476 206.012 357.526 198.619C372.281 195.736 367.785 212.361 357.79 221.346Z" fill="#EB9481"/>
<path d="M222.349 184.221C222.349 184.221 197.486 167.79 195.899 167.383C194.313 166.977 193.689 168.975 193.084 170.514C192.943 171.498 192.905 172.494 192.971 173.485C192.971 178.172 192.971 186.45 186.642 185.442C178.443 184.115 178.707 165.509 179.236 162.608C179.655 161.356 180.357 160.204 181.296 159.23C184.451 155.569 190.742 150.988 196.693 151.854C204.93 153.039 212.563 157.744 219.496 161.387L222.349 184.221Z" fill="#EB9481"/>
<path d="M222.348 184.221C222.348 184.221 197.485 167.79 195.898 167.383C194.311 166.977 193.688 168.975 193.083 170.514C192.941 171.498 192.903 172.494 192.97 173.485C188.795 168.427 184.204 162.873 181.294 159.23C184.449 155.569 190.741 150.988 196.692 151.854C204.929 153.039 212.562 157.744 219.495 161.387L222.348 184.221Z" fill="#263238"/>
<path d="M210.636 222.018C209.597 220.656 198.847 210.38 190.742 202.563C191.876 194.268 192.064 177.483 192.121 173.043C193.104 168.109 192.121 157.125 191.668 157.125C190.685 157.125 187.209 157.125 182.977 156.736C177.309 156.259 170.546 155.233 166.427 153.004C165.41 152.589 164.535 151.922 163.895 151.073C163.256 150.225 162.877 149.229 162.8 148.193C162.8 144.656 171.339 144.285 181.39 143.135C195.068 141.561 211.977 140.323 217.418 145.045C225.448 152.12 229.018 167.136 230.643 171.575C232.268 176.015 242.243 187.953 242.243 187.953C234.856 211.954 212.015 223.822 210.636 222.018Z" fill="#EB9481"/>
<path d="M140.28 143.029C140.28 143.029 158.304 148.795 177.234 153.995C196.165 159.195 234.366 178.084 234.573 179.605C234.781 181.126 192.518 169.471 174.627 162.29C156.736 155.109 139.128 146.778 139.128 146.778L140.28 143.029Z" fill="#1E1E1E"/>
<path d="M139.96 142.71L152.561 146.159L149.916 152.332L138.316 146.955L139.96 142.71Z" fill="#EBEBEB"/>
<path d="M140.013 142.71C139.017 141.484 137.722 140.497 136.237 139.833C134.752 139.169 133.119 138.845 131.474 138.89C130.096 138.982 128.712 138.805 127.411 138.37C126.11 137.934 124.92 137.25 123.917 136.361C123.917 136.361 127.488 147.68 138.275 146.973L140.013 142.71Z" fill="#1E1E1E"/>
<path d="M123.578 136.025C124.334 136.025 126.412 138.377 129.246 138.607C132.08 138.837 130.908 146.265 128.263 143.807C125.24 141.03 122.218 135.954 123.578 136.025Z" fill="black"/>
<path d="M190.742 202.651C187.964 200.016 185.471 197.716 183.732 196.178C178.323 191.728 174.942 185.505 174.286 178.791C173.417 172.866 159.474 160.45 169.96 159.53C180.445 158.611 188.72 176.669 191.157 175.342C191.611 175.095 191.951 174.281 192.177 173.132C192.064 177.571 191.875 194.356 190.742 202.651Z" fill="#EB9481"/>
<path d="M192.48 169.913C192.48 169.683 192.31 169.718 192.272 169.913C192.272 170.726 191.687 174.387 190.799 174.387C189.212 174.387 183.714 167.065 180.824 164.377C180.654 164.235 180.427 164.377 180.597 164.553C181.409 165.226 183.846 168.427 184.47 169.187C185.66 170.673 188.947 175.413 190.931 175.413C192.254 175.519 192.575 170.85 192.48 169.913Z" fill="#263238"/>
<path d="M301.32 208.187L309.69 232.683C312.788 241.916 315.66 250.37 315.849 251.343C330.95 243.549 345.316 234.567 358.792 224.494C376.966 210.681 375.058 199.096 364.459 197.31C362.848 197.064 361.209 197.016 359.585 197.168C345.151 198.424 301.32 208.187 301.32 208.187Z" fill="black"/>
<path d="M331.341 210.858H329.868C329.502 210.867 329.137 210.808 328.796 210.683C328.455 210.559 328.144 210.371 327.882 210.132C327.619 209.893 327.411 209.607 327.268 209.291C327.126 208.975 327.053 208.636 327.053 208.293C327.029 207.84 326.819 207.412 326.467 207.099C326.115 206.787 325.649 206.612 325.164 206.613H323.614V205.729H325.164C325.525 205.726 325.883 205.791 326.218 205.919C326.552 206.047 326.856 206.235 327.113 206.474C327.369 206.712 327.573 206.995 327.712 207.308C327.85 207.62 327.922 207.955 327.922 208.293C327.905 208.53 327.943 208.767 328.032 208.988C328.121 209.21 328.259 209.411 328.438 209.579C328.617 209.746 328.832 209.876 329.069 209.959C329.306 210.043 329.559 210.078 329.811 210.062H331.285L331.341 210.858ZM315.188 226.316C315.537 226.018 315.991 225.852 316.463 225.852C316.936 225.852 317.39 226.018 317.739 226.316C318.259 226.784 318.953 227.046 319.675 227.046C320.397 227.046 321.091 226.784 321.612 226.316L322.707 225.273L322.046 224.654L320.932 225.679C320.584 225.973 320.133 226.135 319.666 226.135C319.198 226.135 318.747 225.973 318.4 225.679C317.888 225.229 317.213 224.979 316.511 224.979C315.809 224.979 315.133 225.229 314.621 225.679L313.563 226.67L314.244 227.289L315.188 226.316Z" fill="white"/>
<path d="M309.688 232.683C312.787 241.916 315.659 250.37 315.847 251.343C330.949 243.549 345.315 234.567 358.79 224.494C376.965 210.681 375.057 199.096 364.458 197.31L309.688 232.683Z" fill="#263238"/>
<path d="M464.117 458.615H296.823L297.786 452.99L318.738 330.279L319.022 328.67L328.865 270.975C328.865 270.975 320.212 258.718 322.838 247.646C324.16 242.04 337.952 219.648 345.282 210.504C347.617 207.446 350.214 204.572 353.047 201.908C361.095 194.833 371.94 193.931 379.667 194.993C381.03 195.19 382.37 195.504 383.672 195.93C394.781 199.467 408.44 211.671 415.789 230.101C418.34 236.504 420.872 243.967 423.346 252.227C423.46 252.634 423.573 253.041 423.705 253.448C431.017 278.015 438.007 309.285 444.034 339.972C447.453 357.322 450.571 374.496 453.272 390.149L453.612 392.218C460.093 430.139 464.117 458.615 464.117 458.615Z" fill="black"/>
<path d="M380.913 323.682H379.421C378.694 323.682 377.998 323.412 377.484 322.931C376.97 322.45 376.681 321.798 376.681 321.117C376.681 320.648 376.482 320.198 376.128 319.867C375.774 319.535 375.293 319.349 374.792 319.349H373.224V318.482H374.792C375.52 318.487 376.217 318.761 376.73 319.245C377.244 319.728 377.532 320.383 377.532 321.064C377.555 321.503 377.751 321.918 378.083 322.229C378.414 322.539 378.858 322.723 379.326 322.745H380.819L380.913 323.682ZM404.378 401.416H402.904C402.436 401.394 401.992 401.21 401.661 400.9C401.329 400.589 401.133 400.174 401.11 399.735C401.11 399.055 400.821 398.403 400.307 397.922C399.793 397.441 399.097 397.171 398.37 397.171H396.802V398.055H398.37C398.839 398.077 399.282 398.26 399.614 398.571C399.946 398.882 400.142 399.297 400.165 399.735C400.165 400.416 400.454 401.068 400.967 401.549C401.481 402.03 402.178 402.3 402.904 402.3H404.378V401.416ZM433.605 327.131H432.131C431.647 327.108 431.19 326.912 430.856 326.583C430.522 326.253 430.336 325.816 430.336 325.362C430.331 324.68 430.039 324.028 429.522 323.548C429.005 323.067 428.306 322.798 427.578 322.798H426.01V323.682H427.578C428.063 323.681 428.53 323.856 428.882 324.168C429.233 324.481 429.443 324.909 429.467 325.362C429.467 326.042 429.756 326.695 430.27 327.176C430.783 327.657 431.48 327.927 432.207 327.927H433.68L433.605 327.131ZM358.904 287.141H357.411C356.942 287.12 356.499 286.936 356.167 286.625C355.836 286.315 355.639 285.899 355.616 285.461C355.616 284.781 355.328 284.128 354.814 283.647C354.3 283.166 353.603 282.896 352.877 282.896H351.309V283.781H352.877C353.362 283.78 353.829 283.954 354.18 284.267C354.532 284.58 354.742 285.007 354.766 285.461C354.766 286.141 355.055 286.793 355.568 287.274C356.082 287.755 356.779 288.025 357.505 288.025H358.998L358.904 287.141ZM331.339 254.067H329.866C329.381 254.067 328.914 253.893 328.562 253.58C328.21 253.267 328.001 252.84 327.976 252.386C327.976 252.048 327.905 251.713 327.766 251.401C327.627 251.089 327.424 250.805 327.167 250.567C326.911 250.328 326.607 250.14 326.272 250.012C325.938 249.884 325.579 249.819 325.218 249.822H323.669V250.706H325.218C325.719 250.706 326.2 250.893 326.554 251.224C326.908 251.556 327.107 252.006 327.107 252.475C327.107 253.155 327.396 253.807 327.91 254.288C328.423 254.769 329.12 255.039 329.847 255.039H331.32L331.339 254.067ZM404.888 286.239H403.396C402.91 286.24 402.444 286.065 402.092 285.753C401.74 285.44 401.531 285.012 401.506 284.559C401.506 283.879 401.218 283.226 400.704 282.745C400.19 282.264 399.493 281.994 398.767 281.994H397.199V282.878H398.842C399.327 282.901 399.784 283.098 400.118 283.427C400.452 283.756 400.638 284.193 400.637 284.647C400.637 285.327 400.926 285.98 401.44 286.461C401.953 286.942 402.65 287.212 403.377 287.212H404.869L404.888 286.239ZM377.683 241.244H376.171C375.703 241.222 375.259 241.038 374.928 240.728C374.596 240.417 374.399 240.002 374.377 239.563C374.377 238.883 374.088 238.231 373.574 237.75C373.06 237.269 372.364 236.999 371.637 236.999H370.069V237.883H371.637C372.122 237.906 372.578 238.102 372.912 238.431C373.247 238.761 373.433 239.198 373.432 239.652C373.432 240.332 373.721 240.984 374.234 241.465C374.748 241.946 375.445 242.216 376.171 242.216H377.664L377.683 241.244ZM347.606 355.624H346.132C345.648 355.602 345.191 355.405 344.857 355.076C344.523 354.747 344.337 354.31 344.337 353.856C344.332 353.174 344.04 352.522 343.523 352.041C343.006 351.561 342.307 351.291 341.579 351.291H340.011V352.175H341.579C342.08 352.175 342.561 352.362 342.915 352.694C343.269 353.025 343.468 353.475 343.468 353.944C343.468 354.626 343.756 355.28 344.27 355.764C344.783 356.248 345.479 356.522 346.208 356.526H347.681L347.606 355.624ZM385.769 429.343H384.276C383.775 429.343 383.295 429.157 382.94 428.825C382.586 428.493 382.387 428.044 382.387 427.574C382.387 426.894 382.098 426.242 381.585 425.761C381.071 425.28 380.374 425.01 379.648 425.01H378.08V425.894H379.648C380.116 425.916 380.56 426.1 380.891 426.41C381.223 426.721 381.42 427.136 381.442 427.574C381.442 428.255 381.731 428.907 382.245 429.388C382.758 429.869 383.455 430.139 384.182 430.139H385.674L385.769 429.343ZM435.324 454.441H433.832C433.347 454.418 432.89 454.222 432.556 453.892C432.222 453.563 432.036 453.126 432.037 452.672C432.037 451.992 431.748 451.34 431.234 450.859C430.721 450.378 430.024 450.107 429.297 450.107H427.729V450.992H429.297C429.766 451.013 430.209 451.197 430.541 451.508C430.873 451.818 431.069 452.233 431.092 452.672C431.092 453.354 431.38 454.008 431.893 454.492C432.407 454.976 433.103 455.25 433.832 455.254H435.324V454.441ZM331.188 436.984H329.696C329.21 436.984 328.744 436.81 328.392 436.497C328.04 436.185 327.831 435.757 327.806 435.304C327.806 434.623 327.518 433.971 327.004 433.49C326.49 433.009 325.793 432.739 325.067 432.739H323.499V433.623H325.161C325.63 433.645 326.073 433.829 326.405 434.139C326.737 434.45 326.933 434.865 326.956 435.304C326.956 435.984 327.245 436.636 327.759 437.117C328.272 437.598 328.969 437.868 329.696 437.868H331.188V436.984ZM373.073 388.982H371.58C371.112 388.96 370.669 388.776 370.337 388.466C370.005 388.155 369.809 387.74 369.786 387.302C369.786 386.621 369.497 385.969 368.983 385.488C368.47 385.007 367.773 384.737 367.046 384.737H365.478V385.621H367.046C367.531 385.621 367.998 385.795 368.35 386.108C368.702 386.42 368.911 386.848 368.935 387.302C368.935 387.982 369.224 388.634 369.738 389.115C370.252 389.596 370.948 389.866 371.675 389.866H373.167L373.073 388.982ZM327.391 396.056H325.898C325.43 396.035 324.986 395.851 324.654 395.541C324.323 395.23 324.126 394.815 324.103 394.376C324.103 393.694 323.815 393.04 323.302 392.557C322.789 392.073 322.092 391.799 321.364 391.794H319.796V392.678H321.383C321.867 392.701 322.324 392.897 322.658 393.227C322.992 393.556 323.178 393.993 323.178 394.447C323.178 395.127 323.466 395.779 323.98 396.26C324.494 396.741 325.191 397.012 325.917 397.012H327.41L327.391 396.056ZM394.1 356.633H392.608C392.139 356.611 391.696 356.427 391.364 356.117C391.032 355.806 390.836 355.391 390.813 354.952C390.813 354.272 390.525 353.62 390.011 353.139C389.497 352.658 388.8 352.388 388.074 352.388H386.506V353.272H388.074C388.558 353.295 389.015 353.491 389.349 353.82C389.683 354.15 389.869 354.587 389.868 355.041C389.868 355.721 390.157 356.373 390.671 356.854C391.185 357.335 391.881 357.605 392.608 357.605H394.1V356.633ZM452.516 409.693H451.024C450.539 409.67 450.083 409.474 449.749 409.145C449.414 408.816 449.228 408.379 449.229 407.924C449.224 407.246 448.934 406.596 448.421 406.116C447.909 405.636 447.215 405.364 446.49 405.36H444.922V406.244H446.49C446.958 406.266 447.402 406.449 447.733 406.76C448.065 407.071 448.262 407.486 448.284 407.924C448.284 408.606 448.572 409.26 449.086 409.744C449.599 410.228 450.296 410.502 451.024 410.507H452.516V409.693ZM348.059 306.986C348.406 306.692 348.857 306.53 349.325 306.53C349.793 306.53 350.244 306.692 350.591 306.986C351.102 307.436 351.778 307.686 352.48 307.686C353.182 307.686 353.858 307.436 354.369 306.986L355.484 305.942L354.823 305.323L353.708 306.367C353.36 306.665 352.905 306.83 352.433 306.83C351.961 306.83 351.506 306.665 351.158 306.367C350.637 305.899 349.943 305.637 349.221 305.637C348.499 305.637 347.805 305.899 347.285 306.367L346.246 307.339L346.907 307.958L348.059 306.986ZM331.056 280.455C331.403 280.162 331.854 280 332.322 280C332.789 280 333.24 280.162 333.587 280.455C333.841 280.696 334.142 280.886 334.474 281.016C334.807 281.146 335.164 281.213 335.524 281.213C335.884 281.213 336.241 281.146 336.573 281.016C336.906 280.886 337.207 280.696 337.46 280.455L338.575 279.43L337.914 278.793L336.799 279.836C336.452 280.13 336.001 280.292 335.533 280.292C335.066 280.292 334.615 280.13 334.268 279.836C333.744 279.367 333.047 279.105 332.322 279.105C331.597 279.105 330.9 279.367 330.376 279.836L329.337 280.827L329.998 281.446L331.056 280.455ZM416.658 353.254C417.005 352.961 417.456 352.799 417.924 352.799C418.392 352.799 418.843 352.961 419.19 353.254C419.705 353.697 420.38 353.942 421.079 353.942C421.779 353.942 422.453 353.697 422.968 353.254L424.083 352.211L423.422 351.592L422.307 352.635C421.96 352.929 421.509 353.091 421.041 353.091C420.574 353.091 420.123 352.929 419.775 352.635C419.521 352.395 419.218 352.204 418.884 352.073C418.55 351.943 418.191 351.876 417.83 351.876C417.468 351.876 417.109 351.943 416.775 352.073C416.441 352.204 416.138 352.395 415.884 352.635L414.845 353.608L415.506 354.245L416.658 353.254ZM373.829 267.173C374.176 266.879 374.627 266.717 375.094 266.717C375.562 266.717 376.013 266.879 376.36 267.173C376.881 267.641 377.575 267.902 378.297 267.902C379.019 267.902 379.713 267.641 380.233 267.173L381.348 266.129L380.687 265.51L379.572 266.536C379.224 266.834 378.769 267 378.297 267C377.825 267 377.37 266.834 377.022 266.536C376.496 266.076 375.804 265.82 375.085 265.82C374.366 265.82 373.674 266.076 373.149 266.536L372.109 267.526L372.771 268.145L373.829 267.173ZM363.967 211.866C364.315 211.568 364.77 211.402 365.242 211.402C365.714 211.402 366.169 211.568 366.517 211.866C367.033 212.342 367.729 212.609 368.454 212.609C369.178 212.609 369.874 212.342 370.39 211.866L371.505 210.822L370.825 210.203L369.729 211.229C369.381 211.527 368.926 211.693 368.454 211.693C367.982 211.693 367.527 211.527 367.179 211.229C366.667 210.779 365.991 210.528 365.289 210.528C364.587 210.528 363.912 210.779 363.4 211.229L362.342 212.22L363.022 212.839L363.967 211.866ZM344.677 242.022C345.025 241.729 345.476 241.566 345.943 241.566C346.411 241.566 346.862 241.729 347.209 242.022C347.462 242.262 347.764 242.453 348.096 242.583C348.428 242.713 348.785 242.78 349.146 242.78C349.506 242.78 349.863 242.713 350.195 242.583C350.527 242.453 350.829 242.262 351.082 242.022L352.197 240.996L351.535 240.359L350.421 241.403C350.072 241.701 349.618 241.867 349.146 241.867C348.673 241.867 348.219 241.701 347.87 241.403C347.359 240.953 346.683 240.702 345.981 240.702C345.279 240.702 344.603 240.953 344.092 241.403L343.053 242.393L343.714 243.012L344.677 242.022ZM375.283 296.515C375.306 296.076 375.503 295.661 375.835 295.351C376.166 295.04 376.61 294.856 377.078 294.835C377.805 294.835 378.502 294.565 379.015 294.084C379.529 293.603 379.818 292.95 379.818 292.27V290.802H378.873V292.27C378.874 292.724 378.688 293.161 378.353 293.491C378.019 293.82 377.563 294.016 377.078 294.039C376.352 294.039 375.655 294.309 375.141 294.79C374.627 295.271 374.339 295.923 374.339 296.603V298.001H375.283V296.515ZM365.214 366.237C365.238 365.783 365.448 365.355 365.799 365.043C366.151 364.73 366.618 364.556 367.103 364.556C367.829 364.556 368.526 364.286 369.04 363.805C369.554 363.324 369.842 362.672 369.842 361.992V360.524H368.898V361.992C368.898 362.446 368.712 362.883 368.378 363.212C368.044 363.541 367.587 363.738 367.103 363.76C366.743 363.749 366.384 363.803 366.047 363.921C365.71 364.039 365.401 364.219 365.138 364.449C364.875 364.678 364.662 364.955 364.513 365.262C364.364 365.568 364.281 365.9 364.269 366.237V367.634H365.214V366.237ZM417.735 418.271C417.759 417.818 417.969 417.39 418.321 417.077C418.672 416.764 419.139 416.59 419.624 416.591C420.351 416.591 421.048 416.321 421.561 415.84C422.075 415.359 422.364 414.706 422.364 414.026V412.558H421.419V413.991C421.42 414.445 421.234 414.882 420.9 415.211C420.565 415.541 420.109 415.737 419.624 415.76C418.896 415.76 418.197 416.029 417.681 416.51C417.164 416.99 416.871 417.642 416.866 418.324V419.721H417.811L417.735 418.271ZM454.066 452.159C454.088 451.72 454.285 451.305 454.617 450.995C454.948 450.684 455.392 450.5 455.86 450.479C456.587 450.479 457.284 450.209 457.797 449.728C458.311 449.247 458.6 448.594 458.6 447.914V446.446H457.655V447.914C457.631 448.368 457.421 448.795 457.069 449.108C456.718 449.421 456.251 449.595 455.766 449.595C455.039 449.595 454.343 449.865 453.829 450.346C453.315 450.827 453.026 451.479 453.026 452.159V453.556H453.971L454.066 452.159ZM440.841 354.05C440.825 353.822 440.86 353.593 440.943 353.377C441.027 353.162 441.157 352.965 441.325 352.799C441.494 352.633 441.697 352.501 441.923 352.412C442.148 352.323 442.391 352.279 442.636 352.282C443.364 352.277 444.061 352.003 444.574 351.519C445.087 351.035 445.375 350.381 445.375 349.699V348.231H444.43V349.699C444.431 350.153 444.245 350.59 443.911 350.92C443.577 351.249 443.12 351.445 442.636 351.468C441.909 351.468 441.212 351.738 440.698 352.219C440.185 352.7 439.896 353.352 439.896 354.033V355.412H440.841V354.05ZM324.047 368.783C324.071 368.33 324.281 367.902 324.632 367.59C324.984 367.277 325.451 367.103 325.936 367.103C326.663 367.103 327.359 366.833 327.873 366.352C328.387 365.871 328.675 365.219 328.675 364.539V363.071H327.731V364.468C327.746 364.696 327.711 364.926 327.628 365.141C327.545 365.356 327.415 365.553 327.246 365.719C327.077 365.885 326.874 366.017 326.649 366.106C326.423 366.195 326.181 366.239 325.936 366.237C325.209 366.237 324.513 366.507 323.999 366.988C323.485 367.469 323.197 368.121 323.197 368.801V370.198H324.141L324.047 368.783ZM326.314 306.101C326.337 305.663 326.533 305.248 326.865 304.937C327.197 304.626 327.64 304.442 328.109 304.421C328.832 304.416 329.524 304.144 330.033 303.664C330.543 303.183 330.829 302.534 330.829 301.856V300.388H329.885V301.856C329.885 302.326 329.685 302.775 329.331 303.107C328.977 303.439 328.496 303.625 327.995 303.625C327.269 303.625 326.572 303.895 326.058 304.376C325.544 304.857 325.256 305.51 325.256 306.19V307.587H326.2L326.314 306.101ZM350.742 265.422C350.741 264.967 350.927 264.53 351.261 264.201C351.596 263.872 352.052 263.676 352.537 263.653C353.263 263.653 353.96 263.383 354.474 262.902C354.988 262.421 355.276 261.768 355.276 261.088V259.62H354.332V261.088C354.309 261.527 354.112 261.942 353.78 262.253C353.449 262.563 353.005 262.747 352.537 262.769C351.81 262.769 351.113 263.039 350.6 263.52C350.086 264.001 349.797 264.653 349.797 265.333V266.73H350.742V265.422ZM341.503 224.441C341.528 223.988 341.737 223.56 342.089 223.247C342.441 222.935 342.908 222.76 343.393 222.761C344.121 222.756 344.818 222.482 345.331 221.998C345.844 221.515 346.132 220.86 346.132 220.179V218.711H345.188V220.179C345.188 220.633 345.002 221.07 344.668 221.399C344.334 221.728 343.877 221.925 343.393 221.947C342.666 221.947 341.969 222.218 341.456 222.699C340.942 223.179 340.653 223.832 340.653 224.512V225.892H341.598L341.503 224.441ZM344.186 328.422C344.186 327.968 344.372 327.531 344.706 327.202C345.04 326.872 345.496 326.676 345.981 326.653C346.708 326.653 347.404 326.383 347.918 325.902C348.432 325.421 348.72 324.769 348.72 324.089V322.621H347.832V324.089C347.81 324.528 347.613 324.943 347.281 325.253C346.95 325.564 346.506 325.748 346.038 325.769C345.311 325.769 344.614 326.039 344.101 326.52C343.587 327.001 343.298 327.653 343.298 328.334V329.731H344.243L344.186 328.422ZM403.074 336.894C403.074 336.44 403.26 336.003 403.594 335.674C403.928 335.344 404.385 335.148 404.869 335.125C405.596 335.125 406.293 334.855 406.806 334.374C407.32 333.893 407.609 333.241 407.609 332.561V331.093H406.664V332.632C406.641 333.07 406.445 333.485 406.113 333.796C405.781 334.106 405.338 334.29 404.869 334.312C404.143 334.312 403.446 334.582 402.932 335.063C402.418 335.544 402.13 336.196 402.13 336.876V338.274H403.074V336.894ZM348.645 407.641C348.668 407.203 348.864 406.788 349.196 406.477C349.528 406.166 349.971 405.983 350.44 405.961C351.166 405.961 351.863 405.691 352.377 405.21C352.89 404.729 353.179 404.077 353.179 403.397V401.929H352.234V403.379C352.21 403.832 352 404.26 351.649 404.573C351.297 404.885 350.83 405.06 350.345 405.059C349.619 405.059 348.922 405.329 348.408 405.81C347.894 406.291 347.606 406.944 347.606 407.624V409.021H348.55L348.645 407.641ZM306.949 426.372C306.948 425.918 307.134 425.481 307.468 425.151C307.803 424.822 308.259 424.626 308.744 424.603C309.47 424.603 310.167 424.333 310.681 423.852C311.195 423.371 311.483 422.719 311.483 422.038V420.57H310.538V422.038C310.516 422.477 310.319 422.892 309.987 423.203C309.656 423.513 309.212 423.697 308.744 423.719C308.017 423.719 307.32 423.989 306.807 424.47C306.293 424.951 306.004 425.603 306.004 426.283V427.681H306.949V426.372ZM361.416 447.596C361.439 447.157 361.636 446.742 361.967 446.432C362.299 446.121 362.742 445.937 363.211 445.916C363.938 445.916 364.634 445.645 365.148 445.165C365.662 444.684 365.95 444.031 365.95 443.351V441.883H365.006V443.351C364.982 443.805 364.772 444.232 364.42 444.545C364.068 444.858 363.602 445.032 363.117 445.031C362.39 445.031 361.693 445.302 361.18 445.782C360.666 446.263 360.377 446.916 360.377 447.596V448.993H361.322L361.416 447.596ZM422.798 377.061C422.798 376.607 422.984 376.17 423.318 375.84C423.652 375.511 424.109 375.315 424.593 375.292C424.954 375.292 425.312 375.225 425.646 375.095C425.979 374.965 426.282 374.775 426.537 374.535C426.791 374.295 426.993 374.01 427.129 373.697C427.266 373.384 427.335 373.048 427.332 372.71V371.242H426.388V372.71C426.388 373.164 426.202 373.601 425.868 373.93C425.534 374.26 425.078 374.456 424.593 374.479C423.867 374.479 423.17 374.749 422.656 375.23C422.142 375.711 421.854 376.363 421.854 377.043V378.423H422.798V377.061ZM397.747 307.87C398.095 307.572 398.55 307.406 399.022 307.406C399.494 307.406 399.949 307.572 400.297 307.87C400.55 308.11 400.852 308.301 401.184 308.431C401.517 308.561 401.873 308.628 402.234 308.628C402.594 308.628 402.951 308.561 403.283 308.431C403.616 308.301 403.917 308.11 404.17 307.87L405.228 306.88L404.548 306.26L403.509 307.251C403.161 307.549 402.706 307.715 402.234 307.715C401.762 307.715 401.307 307.549 400.958 307.251C400.705 307.011 400.404 306.82 400.071 306.69C399.739 306.56 399.382 306.493 399.022 306.493C398.662 306.493 398.305 306.56 397.972 306.69C397.64 306.82 397.339 307.011 397.085 307.251L395.971 308.277L396.632 308.913L397.747 307.87ZM364.156 339.494C364.504 339.196 364.959 339.03 365.431 339.03C365.903 339.03 366.358 339.196 366.706 339.494C367.222 339.937 367.896 340.182 368.595 340.182C369.295 340.182 369.969 339.937 370.485 339.494L371.524 338.504L370.863 337.885L369.805 338.875C369.457 339.168 369.006 339.331 368.539 339.331C368.071 339.331 367.62 339.168 367.273 338.875C367.02 338.635 366.718 338.444 366.386 338.314C366.054 338.184 365.697 338.117 365.336 338.117C364.976 338.117 364.619 338.184 364.287 338.314C363.955 338.444 363.653 338.635 363.4 338.875L362.285 339.901L362.947 340.538L364.156 339.494ZM340.88 382.402C341.228 382.104 341.683 381.939 342.155 381.939C342.627 381.939 343.082 382.104 343.43 382.402C343.684 382.642 343.985 382.833 344.318 382.963C344.65 383.093 345.007 383.16 345.367 383.16C345.727 383.16 346.084 383.093 346.416 382.963C346.749 382.833 347.05 382.642 347.303 382.402L348.361 381.412L347.681 380.793L346.642 381.783C346.294 382.082 345.839 382.247 345.367 382.247C344.895 382.247 344.44 382.082 344.092 381.783C343.839 381.543 343.537 381.352 343.205 381.222C342.872 381.092 342.516 381.025 342.155 381.025C341.795 381.025 341.438 381.092 341.106 381.222C340.773 381.352 340.472 381.543 340.219 381.783L339.104 382.809L339.784 383.446L340.88 382.402ZM350.95 426.991C351.297 426.697 351.748 426.535 352.216 426.535C352.683 426.535 353.134 426.697 353.481 426.991C353.997 427.433 354.671 427.679 355.371 427.679C356.07 427.679 356.744 427.433 357.26 426.991L358.318 426L357.657 425.381L356.599 426.354C356.435 426.513 356.238 426.64 356.021 426.727C355.803 426.814 355.569 426.858 355.333 426.858C355.096 426.858 354.863 426.814 354.645 426.727C354.428 426.64 354.231 426.513 354.067 426.354C353.548 425.877 352.849 425.609 352.121 425.609C351.393 425.609 350.694 425.877 350.175 426.354L349.079 427.398L349.741 428.034L350.95 426.991ZM383.728 453.114C384.077 452.816 384.532 452.65 385.004 452.65C385.476 452.65 385.931 452.816 386.279 453.114C386.802 453.578 387.495 453.837 388.215 453.837C388.936 453.837 389.629 453.578 390.152 453.114L391.21 452.124L390.53 451.505L389.491 452.478C389.142 452.776 388.687 452.941 388.215 452.941C387.743 452.941 387.288 452.776 386.94 452.478C386.424 452.001 385.728 451.734 385.004 451.734C384.279 451.734 383.583 452.001 383.067 452.478L381.952 453.521L382.633 454.14L383.728 453.114ZM396.046 378.016C396.395 377.718 396.85 377.552 397.322 377.552C397.794 377.552 398.249 377.718 398.597 378.016C399.12 378.48 399.813 378.739 400.533 378.739C401.254 378.739 401.947 378.48 402.47 378.016L403.509 377.025L402.848 376.406L401.809 377.379C401.46 377.678 401.005 377.843 400.533 377.843C400.061 377.843 399.606 377.678 399.258 377.379C398.742 376.903 398.046 376.636 397.322 376.636C396.597 376.636 395.901 376.903 395.385 377.379L394.27 378.423L394.951 379.042L396.046 378.016ZM404.378 436.63C404.726 436.332 405.181 436.166 405.653 436.166C406.125 436.166 406.58 436.332 406.929 436.63C407.442 437.111 408.139 437.381 408.865 437.381C409.591 437.381 410.288 437.111 410.801 436.63L411.86 435.64L411.179 435.021L410.14 436.011C409.792 436.309 409.337 436.475 408.865 436.475C408.393 436.475 407.938 436.309 407.59 436.011C407.074 435.569 406.4 435.323 405.701 435.323C405.001 435.323 404.327 435.569 403.811 436.011L402.621 436.984L403.301 437.621L404.378 436.63ZM439.348 432.969C439.695 432.676 440.146 432.513 440.614 432.513C441.082 432.513 441.533 432.676 441.88 432.969C442.401 433.437 443.094 433.698 443.816 433.698C444.538 433.698 445.232 433.437 445.753 432.969L446.811 431.978L446.15 431.359L445.092 432.35C444.744 432.643 444.293 432.806 443.826 432.806C443.358 432.806 442.907 432.643 442.56 432.35C442.305 432.109 442.002 431.918 441.668 431.788C441.334 431.657 440.976 431.59 440.614 431.59C440.252 431.59 439.894 431.657 439.56 431.788C439.226 431.918 438.923 432.109 438.668 432.35L437.572 433.376L438.234 434.012L439.348 432.969ZM442.144 378.016C442.31 377.856 442.508 377.729 442.727 377.642C442.946 377.555 443.182 377.51 443.42 377.51C443.657 377.51 443.893 377.555 444.112 377.642C444.331 377.729 444.529 377.856 444.695 378.016C445.206 378.466 445.882 378.717 446.584 378.717C447.286 378.717 447.962 378.466 448.473 378.016L449.512 377.025L448.851 376.406L447.812 377.379C447.464 377.678 447.009 377.843 446.537 377.843C446.065 377.843 445.61 377.678 445.262 377.379C444.741 376.911 444.047 376.65 443.325 376.65C442.603 376.65 441.909 376.911 441.389 377.379L440.274 378.423L440.935 379.042L442.144 378.016ZM427.03 395.703C427.377 395.409 427.828 395.247 428.296 395.247C428.764 395.247 429.215 395.409 429.562 395.703C430.073 396.153 430.749 396.404 431.451 396.404C432.153 396.404 432.829 396.153 433.34 395.703L434.398 394.712L433.737 394.093L432.679 395.066C432.332 395.359 431.881 395.522 431.413 395.522C430.946 395.522 430.495 395.359 430.148 395.066C429.628 394.589 428.929 394.321 428.202 394.321C427.474 394.321 426.775 394.589 426.256 395.066L425.16 396.11L425.821 396.729L427.03 395.703ZM374.887 409.18C375.235 408.882 375.69 408.716 376.162 408.716C376.634 408.716 377.089 408.882 377.437 409.18C377.953 409.656 378.649 409.923 379.374 409.923C380.098 409.923 380.794 409.656 381.31 409.18L382.368 408.19L381.688 407.571L380.649 408.543C380.301 408.842 379.846 409.007 379.374 409.007C378.902 409.007 378.447 408.842 378.098 408.543C377.573 408.083 376.881 407.827 376.162 407.827C375.443 407.827 374.75 408.083 374.225 408.543L373.111 409.587L373.791 410.206L374.887 409.18ZM326.918 415.317C327.266 415.024 327.717 414.862 328.184 414.862C328.652 414.862 329.103 415.024 329.45 415.317C329.966 415.76 330.64 416.005 331.339 416.005C332.039 416.005 332.713 415.76 333.229 415.317L334.286 414.327L333.625 413.708L332.567 414.698C332.22 414.992 331.769 415.154 331.301 415.154C330.834 415.154 330.383 414.992 330.036 414.698C329.512 414.229 328.815 413.967 328.09 413.967C327.365 413.967 326.668 414.229 326.144 414.698L325.161 415.76L325.823 416.396L326.918 415.317ZM335.08 455.484C335.427 455.191 335.878 455.029 336.346 455.029C336.813 455.029 337.264 455.191 337.612 455.484C338.128 455.961 338.823 456.228 339.548 456.228C340.273 456.228 340.968 455.961 341.485 455.484L342.543 454.494L341.862 453.875L340.823 454.848C340.658 455.007 340.46 455.135 340.24 455.221C340.021 455.308 339.786 455.353 339.548 455.353C339.31 455.353 339.075 455.308 338.856 455.221C338.637 455.135 338.438 455.007 338.273 454.848C337.761 454.397 337.086 454.147 336.384 454.147C335.681 454.147 335.006 454.397 334.494 454.848L333.38 455.891L334.06 456.51L335.08 455.484ZM304.852 450.178C305.199 449.885 305.65 449.723 306.118 449.723C306.585 449.723 307.036 449.885 307.383 450.178C307.895 450.628 308.571 450.879 309.273 450.879C309.975 450.879 310.65 450.628 311.162 450.178L312.22 449.188L311.559 448.569L310.501 449.559C310.152 449.857 309.697 450.023 309.225 450.023C308.753 450.023 308.298 449.857 307.95 449.559C307.697 449.319 307.396 449.128 307.063 448.998C306.731 448.868 306.374 448.801 306.014 448.801C305.653 448.801 305.297 448.868 304.964 448.998C304.632 449.128 304.33 449.319 304.077 449.559L302.981 450.585L303.643 451.222L304.852 450.178ZM323.102 340.414C323.449 340.12 323.9 339.958 324.368 339.958C324.836 339.958 325.287 340.12 325.634 340.414C326.149 340.856 326.823 341.102 327.523 341.102C328.222 341.102 328.897 340.856 329.412 340.414L330.47 339.423L329.809 338.804L328.751 339.795C328.403 340.093 327.948 340.258 327.476 340.258C327.004 340.258 326.549 340.093 326.2 339.795C325.947 339.555 325.646 339.364 325.313 339.234C324.981 339.104 324.624 339.037 324.264 339.037C323.904 339.037 323.547 339.104 323.214 339.234C322.882 339.364 322.581 339.555 322.327 339.795L321.232 340.821L321.893 341.457L323.102 340.414Z" fill="white"/>
<path d="M464.116 458.615H436.514L383.729 196.001C394.837 199.538 408.497 211.742 415.846 230.172C418.396 236.575 420.928 244.038 423.403 252.298C423.516 252.705 423.63 253.112 423.762 253.518C431.073 278.085 438.064 309.356 444.09 340.042C447.51 357.393 450.627 374.567 453.329 390.22L453.669 392.289C460.092 430.139 464.116 458.615 464.116 458.615Z" fill="#263238"/>
<path d="M479.136 406.085C482.556 413.301 480.685 425.434 486.92 424.745C492.456 424.126 492.89 415.601 492.89 415.601C492.89 415.601 495.724 425.364 501.486 423.1C507.248 420.836 505.68 411.409 505.68 411.409C505.68 411.409 507.664 419.633 513.237 416.98C518.811 414.327 519.056 406.103 519.056 406.103C519.056 406.103 521.342 408.084 524.384 404.564C528.748 399.523 525.423 385.869 521.871 379.113C518.319 372.356 500.013 350.106 497.084 346.781L450.608 367.705C450.608 367.705 451.005 382.438 452.177 389.884C453.348 397.33 464.476 420.854 470.899 418.66C477.323 416.467 469.161 399.983 468.103 395.526C467.045 391.069 467.971 390.096 470.106 391.759C471.56 392.767 477.625 402.884 479.136 406.085Z" fill="#EB9481"/>
<path d="M492.702 415.194C492.38 403.255 490.057 398.09 483.104 388.31C482.972 388.115 483.236 387.885 483.406 388.08C491.134 397.065 495.063 403.167 493.306 415.211C493.306 415.76 492.702 415.76 492.702 415.194Z" fill="#263238"/>
<path d="M505.567 411.904C504.093 399.523 501.618 393.916 495.138 383.181C495.044 383.021 495.308 382.862 495.422 383.004C502.714 393.05 506.493 399.205 506.228 411.745C506.209 412.311 505.642 412.47 505.567 411.904Z" fill="#263238"/>
<path d="M518.926 405.979C516.584 394.111 514.147 387.832 506.438 378.158C506.41 378.112 506.398 378.058 506.407 378.006C506.416 377.953 506.444 377.905 506.486 377.869C506.528 377.834 506.583 377.813 506.639 377.811C506.696 377.809 506.752 377.825 506.797 377.857C515.677 387.019 518.794 394.836 519.304 405.873C519.342 406.633 519.077 406.722 518.926 405.979Z" fill="#263238"/>
<path d="M400.733 208.293C436.629 243.189 491.946 336.027 498.426 348.709C502.828 357.322 454.766 380.085 452.706 373.824C450.08 365.794 409.083 274.937 397.918 237.636C391.74 216.995 393.327 201.077 400.733 208.293Z" fill="#EB9481"/>
<path d="M384.448 212.556C386.847 225.29 403.038 267.756 403.038 267.756L432.85 261.053L433.379 260.947L452.366 256.702C452.366 256.702 415.96 216.924 398.9 204.667C381.84 192.41 381.84 198.212 384.448 212.556Z" fill="black"/>
<path d="M432.662 254.809H431.169C430.443 254.809 429.746 254.539 429.232 254.058C428.718 253.577 428.43 252.925 428.43 252.245C428.43 251.776 428.231 251.326 427.876 250.994C427.522 250.662 427.042 250.476 426.54 250.476H424.972V249.592H426.54C427.267 249.592 427.964 249.862 428.478 250.343C428.991 250.824 429.28 251.476 429.28 252.156C429.303 252.595 429.499 253.01 429.831 253.321C430.163 253.631 430.606 253.815 431.075 253.837H432.567L432.662 254.809ZM407.629 232.347C407.977 232.049 408.432 231.883 408.904 231.883C409.376 231.883 409.831 232.049 410.179 232.347C410.7 232.815 411.394 233.076 412.116 233.076C412.838 233.076 413.532 232.815 414.052 232.347L415.167 231.304L414.487 230.684L413.391 231.728C413.043 232.026 412.588 232.192 412.116 232.192C411.644 232.192 411.189 232.026 410.841 231.728C410.588 231.488 410.286 231.297 409.954 231.167C409.621 231.037 409.265 230.97 408.904 230.97C408.544 230.97 408.187 231.037 407.855 231.167C407.522 231.297 407.221 231.488 406.968 231.728L405.91 232.701L406.59 233.338L407.629 232.347ZM399.297 252.28C399.32 251.841 399.517 251.426 399.848 251.116C400.18 250.805 400.624 250.621 401.092 250.6C401.819 250.6 402.515 250.33 403.029 249.849C403.543 249.368 403.832 248.715 403.832 248.035V246.567H402.887V248.035C402.888 248.489 402.701 248.926 402.367 249.256C402.033 249.585 401.577 249.781 401.092 249.804C400.366 249.804 399.669 250.074 399.155 250.555C398.641 251.036 398.353 251.688 398.353 252.369V253.766H399.297V252.28ZM388.491 220.762C388.488 220.533 388.535 220.306 388.63 220.095C388.725 219.884 388.866 219.694 389.043 219.536C389.221 219.378 389.431 219.256 389.661 219.178C389.891 219.1 390.136 219.067 390.38 219.082C391.107 219.082 391.803 218.812 392.317 218.331C392.831 217.85 393.119 217.198 393.119 216.517V215.049H392.175V216.517C392.175 216.972 391.989 217.408 391.655 217.738C391.321 218.067 390.865 218.263 390.38 218.286C389.653 218.286 388.957 218.556 388.443 219.037C387.929 219.518 387.641 220.17 387.641 220.851V222.23H388.585L388.491 220.762Z" fill="white"/>
<path d="M400.563 205.905C400.941 205.092 376.853 225.361 356.997 221.824C347.078 220.055 345.208 199.344 346.379 199.131C363.08 195.965 378.931 187.44 400.563 205.905Z" fill="#EB9481"/>
<path d="M381.651 198.459C380.914 200.228 369.748 210.84 360.869 209.283C357.978 208.753 360.34 193.843 360.34 193.843L360.245 192.693L358.923 176.775L380.083 167.737L383.105 166.57C383.105 166.57 383.105 170.956 383.105 176.404V177.182C383.105 177.5 383.105 177.783 383.105 178.084C383.105 178.897 383.105 179.729 383.105 180.56C383.105 181.391 383.105 181.798 383.105 182.47V184.433C382.968 189.135 382.482 193.821 381.651 198.459Z" fill="#EB9481"/>
<path d="M383.162 176.404C380.833 180.516 377.575 184.103 373.614 186.917C369.653 189.73 365.084 191.701 360.227 192.693L358.904 176.775L380.064 167.737L383.087 166.57C383.087 166.57 383.144 170.956 383.162 176.404Z" fill="#263238"/>
<path d="M340.276 149.077C333.342 176.368 350.005 183.337 356.297 184.716C361.965 185.99 381.613 189.616 391.513 163.156C401.412 136.697 390.077 125.041 377.173 121.504C364.269 117.966 347.172 121.787 340.276 149.077Z" fill="#EB9481"/>
<path d="M346.662 146.124C347.354 146.16 348.048 146.16 348.74 146.124C349.468 146.19 350.199 146.028 350.819 145.664C350.992 145.515 351.108 145.316 351.149 145.099C351.19 144.881 351.153 144.658 351.045 144.461C350.764 144.106 350.386 143.828 349.951 143.657C349.515 143.485 349.038 143.427 348.57 143.489C347.607 143.478 346.672 143.799 345.944 144.391C345.814 144.536 345.728 144.712 345.695 144.899C345.662 145.087 345.683 145.279 345.756 145.456C345.83 145.633 345.952 145.788 346.112 145.906C346.271 146.023 346.461 146.099 346.662 146.124Z" fill="#263238"/>
<path d="M367.027 149.873C366.383 149.673 365.752 149.437 365.138 149.166C364.401 149.016 363.737 148.643 363.249 148.105C363.138 147.909 363.1 147.685 363.141 147.467C363.182 147.249 363.3 147.05 363.476 146.902C363.862 146.652 364.313 146.504 364.782 146.473C365.25 146.442 365.719 146.529 366.139 146.725C367.062 146.993 367.839 147.582 368.312 148.37C368.408 148.551 368.447 148.754 368.424 148.956C368.401 149.157 368.317 149.348 368.182 149.506C368.047 149.664 367.867 149.782 367.662 149.847C367.458 149.913 367.237 149.922 367.027 149.873Z" fill="#263238"/>
<path d="M361.852 156.241C361.852 156.241 361.984 156.365 361.965 156.435C361.53 158.31 361.36 160.503 363.042 161.458C363.042 161.458 363.042 161.582 363.042 161.547C360.85 160.875 361.058 157.939 361.852 156.241Z" fill="#263238"/>
<path d="M364.043 154.596C367.312 154.95 366.329 161.034 363.307 160.733C360.284 160.432 361.304 154.313 364.043 154.596Z" fill="#263238"/>
<path d="M365.272 155.109C365.782 155.533 366.236 156.223 366.916 156.382C367.596 156.541 368.408 156.011 369.013 155.462C368.862 156.63 368.182 157.762 366.821 157.744C365.461 157.726 364.932 156.577 364.743 155.356C364.838 155.233 365.064 154.932 365.272 155.109Z" fill="#263238"/>
<path d="M349.346 153.623C349.346 153.623 349.175 153.623 349.175 153.765C348.949 155.675 348.344 157.815 346.436 158.186V158.293C348.703 158.31 349.459 155.445 349.346 153.623Z" fill="#263238"/>
<path d="M347.833 151.412C344.602 150.74 343.431 156.718 346.416 157.426C349.401 158.133 350.535 151.961 347.833 151.412Z" fill="#263238"/>
<path d="M346.417 151.572C345.85 151.819 345.227 152.314 344.528 152.244C343.829 152.173 343.413 151.43 343.073 150.723C343.073 150.723 342.978 150.723 342.959 150.723C342.714 151.89 342.959 153.163 344.036 153.588C345.113 154.012 346.077 153.11 346.587 152.014C346.757 151.837 346.644 151.483 346.417 151.572Z" fill="#263238"/>
<path d="M351.309 162.52C351.309 162.52 350.402 165.261 350.175 166.588C350.175 166.711 350.478 166.835 350.969 166.924C352.151 167.316 353.426 167.395 354.653 167.152C355.88 166.908 357.011 166.352 357.921 165.544C358.035 165.438 357.921 165.279 357.732 165.332C355.726 166.221 353.465 166.476 351.29 166.057C351.29 165.668 353.009 161.388 352.782 161.335C351.664 161.264 350.54 161.329 349.439 161.529C351.139 155.746 353.822 150.263 355.409 144.479C355.429 144.435 355.429 144.384 355.409 144.34C355.39 144.295 355.352 144.259 355.305 144.24C355.257 144.222 355.203 144.221 355.156 144.24C355.108 144.258 355.07 144.293 355.05 144.338C352.007 150.141 349.59 156.214 347.833 162.467C347.606 163.209 350.704 162.661 351.309 162.52Z" fill="#263238"/>
<path d="M351.253 165.933C351.79 167.176 352.654 168.271 353.766 169.117C354.398 169.551 355.155 169.798 355.938 169.824C357.639 169.824 358.092 168.498 358.149 167.242C358.177 166.578 358.119 165.913 357.979 165.261C355.871 166.153 353.514 166.389 351.253 165.933Z" fill="#263238"/>
<path d="M353.766 169.117C354.398 169.551 355.155 169.798 355.938 169.824C357.639 169.824 358.092 168.498 358.149 167.242C357.299 167.048 356.405 167.128 355.61 167.468C354.815 167.808 354.165 168.389 353.766 169.117Z" fill="#FF9BBC"/>
<path d="M391.285 163.245C387.941 162.537 380.668 152.473 383.086 137.139C383.086 137.139 381.934 151.041 382.67 153.234C383.407 155.427 378.608 147.556 380.384 135.176C375.745 137.318 370.802 138.825 365.705 139.65C359.206 140.322 355.408 139.65 355.03 139.191C354.653 138.731 364.288 137.422 367.235 135.123C367.235 135.123 349.419 139.774 341.692 139.137C340.804 139.137 342.75 121.91 355.805 116.516C368.86 111.122 386.184 121.822 390.397 127.128C390.397 127.128 396.16 128.897 401.147 137.988C406.135 147.079 394.837 164.023 391.285 163.245Z" fill="#263238"/>
<path d="M386.319 164.217C386.319 164.217 394.159 156.453 398.013 159.194C401.867 161.936 395.028 173.804 389.814 174.847C389.158 175.022 388.47 175.071 387.793 174.991C387.116 174.911 386.463 174.704 385.874 174.382C385.284 174.06 384.77 173.629 384.363 173.117C383.956 172.604 383.664 172.019 383.504 171.398L386.319 164.217Z" fill="#EB9481"/>
<path d="M395.952 162.555C395.952 162.555 395.952 162.661 395.952 162.679C392.287 163.51 389.982 166.216 388.225 169.188C388.476 168.891 388.794 168.649 389.154 168.479C389.515 168.308 389.912 168.213 390.316 168.199C390.72 168.186 391.122 168.254 391.495 168.401C391.868 168.547 392.203 168.767 392.476 169.046C392.494 169.063 392.506 169.085 392.509 169.108C392.512 169.132 392.507 169.156 392.494 169.176C392.48 169.197 392.46 169.212 392.437 169.221C392.413 169.229 392.387 169.23 392.363 169.223C391.786 168.949 391.133 168.853 390.495 168.948C389.857 169.044 389.267 169.325 388.811 169.754C388.039 170.458 387.355 171.241 386.77 172.088C386.563 172.353 386.034 172.088 386.204 171.805C386.827 167.613 391.153 162.307 395.952 162.555Z" fill="#263238"/>
<path opacity="0.5" d="M130.736 141.702C120.666 164.695 92.951 257.445 111.069 320.18C126.939 374.885 163.798 403.503 180.518 412.771C205.079 426.389 231.283 435.038 230.225 440.221C229.167 445.403 203.359 434.189 202.188 436.188C201.017 438.187 258.318 489.814 360.206 500.356C517.675 516.645 610.155 463.638 623.757 461.356C637.36 459.075 572.388 532.564 524.684 549.79C513.708 553.735 553.666 543.618 580.795 528.407C590.979 522.694 562.923 599.703 469.197 618.751C451.173 622.413 490.111 622.2 503.997 620.662C517.883 619.123 463.888 655.54 323.497 645.069C214.26 636.845 112.486 557.042 70.6766 469.05C65.9723 459.145 56.2804 465.619 53.1821 458.615C46.5696 443.67 49.6302 414.769 46.3996 409.092C43.169 403.414 32.5702 409.092 29.3963 393.952C26.2223 378.812 27.9226 333.392 54.0889 260.558C57.1873 251.927 52.9176 254.845 47.3254 262.556C41.7331 270.268 35.1207 277.13 28.8862 276.847C22.6516 276.564 25.9578 255.146 52.3319 215.722C97.5419 147.981 139.88 120.92 130.736 141.702Z" fill="#00E340"/>
<path opacity="0.5" d="M238.442 449.259C238.706 442.042 268.481 445.597 265.779 455.272C263.078 464.947 238.083 459.057 238.442 449.259Z" fill="#00E340"/>
<path opacity="0.5" d="M516.409 618.256C518.298 625.013 544.257 620.308 542.198 611.181C540.138 602.055 514.218 610.12 516.409 618.256Z" fill="#00E340"/>
<path opacity="0.5" d="M22.764 284.983C17.7952 284.4 14.3946 294.41 20.3646 296.268C26.3347 298.125 29.263 285.779 22.764 284.983Z" fill="#00E340"/>
<path opacity="0.5" d="M631.333 456.811C635.112 461.356 661.108 446.429 650.32 439.354C642.801 434.402 627.592 452.265 631.333 456.811Z" fill="#00E340"/>
<path d="M404.204 590.824L393.889 592.611L391.584 602.798L389.279 592.611L378.945 590.824L389.222 588.472L391.584 578.85L393.927 588.472L404.204 590.824Z" fill="#FEFEFE"/>
<path d="M156.733 443.369L146.417 445.155L144.112 455.343L141.807 445.155L131.473 443.369L141.751 441.017L144.112 431.395L146.455 441.017L156.733 443.369Z" fill="#FEFEFE"/>
<path d="M104.361 175.007L94.0458 176.793L91.7409 186.981L89.436 176.793L79.1206 175.007L89.3793 172.654L91.7409 163.033L94.0836 172.654L104.361 175.007Z" fill="#FEFEFE"/>
<path d="M598.836 486.773L593.055 487.781L591.771 493.476L590.486 487.781L584.724 486.773L590.467 485.464L591.771 480.087L593.093 485.464L598.836 486.773Z" fill="#FEFEFE"/>
<path d="M281.158 516.627L275.396 517.636L274.111 523.313L272.827 517.636L267.064 516.627L272.789 515.319L274.111 509.942L275.434 515.319L281.158 516.627Z" fill="#FEFEFE"/>
<path d="M526.516 585.536L520.753 586.544L519.469 592.239L518.165 586.544L512.403 585.536L518.146 584.227L519.469 578.85L520.772 584.227L526.516 585.536Z" fill="#FEFEFE"/>
<path d="M341.597 626.711L335.835 627.701L334.531 633.396L333.247 627.701L327.484 626.711L333.228 625.384L334.531 620.007L335.854 625.384L341.597 626.711Z" fill="#FEFEFE"/>
<path d="M118.87 486.773L113.089 487.781L111.804 493.476L110.52 487.781L104.757 486.773L110.501 485.464L111.804 480.087L113.127 485.464L118.87 486.773Z" fill="#FEFEFE"/>
<path d="M111.804 327.219L106.042 328.21L104.757 333.905L103.473 328.21L97.6914 327.219L103.435 325.893L104.757 320.516L106.061 325.893L111.804 327.219Z" fill="#FEFEFE"/>
<path d="M422.569 530.53C422.156 530.571 421.774 530.753 421.497 531.042C421.219 531.331 421.065 531.706 421.065 532.095C421.065 532.484 421.219 532.859 421.497 533.148C421.774 533.436 422.156 533.619 422.569 533.66C422.982 533.619 423.364 533.436 423.641 533.148C423.919 532.859 424.072 532.484 424.072 532.095C424.072 531.706 423.919 531.331 423.641 531.042C423.364 530.753 422.982 530.571 422.569 530.53Z" fill="#FEFEFE"/>
<path d="M68.2212 235.849C67.8084 235.891 67.4265 236.073 67.1489 236.362C66.8713 236.651 66.7178 237.026 66.7178 237.415C66.7178 237.803 66.8713 238.178 67.1489 238.467C67.4265 238.756 67.8084 238.939 68.2212 238.98C68.634 238.939 69.016 238.756 69.2936 238.467C69.5711 238.178 69.7247 237.803 69.7247 237.415C69.7247 237.026 69.5711 236.651 69.2936 236.362C69.016 236.073 68.634 235.891 68.2212 235.849Z" fill="#FEFEFE"/>
<path d="M527.688 534.739C527.275 534.78 526.893 534.963 526.616 535.252C526.338 535.541 526.185 535.916 526.185 536.304C526.185 536.693 526.338 537.068 526.616 537.357C526.893 537.646 527.275 537.829 527.688 537.87C528.101 537.829 528.483 537.646 528.76 537.357C529.038 537.068 529.191 536.693 529.191 536.304C529.191 535.916 529.038 535.541 528.76 535.252C528.483 534.963 528.101 534.78 527.688 534.739Z" fill="#FEFEFE"/>
<path d="M79.1206 455.272C78.7078 455.313 78.3259 455.496 78.0483 455.785C77.7708 456.074 77.6172 456.449 77.6172 456.838C77.6172 457.226 77.7708 457.601 78.0483 457.89C78.3259 458.179 78.7078 458.362 79.1206 458.403C79.5334 458.362 79.9154 458.179 80.193 457.89C80.4705 457.601 80.6241 457.226 80.6241 456.838C80.6241 456.449 80.4705 456.074 80.193 455.785C79.9154 455.496 79.5334 455.313 79.1206 455.272Z" fill="#FEFEFE"/>
<path d="M39.0875 359.463C38.8 359.497 38.5357 359.628 38.3441 359.831C38.1526 360.035 38.0469 360.297 38.0469 360.568C38.0469 360.839 38.1526 361.101 38.3441 361.305C38.5357 361.508 38.8 361.639 39.0875 361.674C39.3749 361.639 39.6392 361.508 39.8308 361.305C40.0223 361.101 40.128 360.839 40.128 360.568C40.128 360.297 40.0223 360.035 39.8308 359.831C39.6392 359.628 39.3749 359.497 39.0875 359.463Z" fill="#FEFEFE"/>
<path d="M303.091 559.023C302.804 559.057 302.54 559.188 302.348 559.392C302.156 559.595 302.051 559.857 302.051 560.128C302.051 560.4 302.156 560.662 302.348 560.865C302.54 561.069 302.804 561.2 303.091 561.234C303.379 561.2 303.643 561.069 303.835 560.865C304.026 560.662 304.132 560.4 304.132 560.128C304.132 559.857 304.026 559.595 303.835 559.392C303.643 559.188 303.379 559.057 303.091 559.023Z" fill="#FEFEFE"/>
<path d="M186.431 555.043C186.144 555.078 185.879 555.209 185.688 555.412C185.496 555.616 185.391 555.878 185.391 556.149C185.391 556.42 185.496 556.682 185.688 556.886C185.879 557.089 186.144 557.22 186.431 557.254C186.719 557.22 186.983 557.089 187.175 556.886C187.366 556.682 187.472 556.42 187.472 556.149C187.472 555.878 187.366 555.616 187.175 555.412C186.983 555.209 186.719 555.078 186.431 555.043Z" fill="#FEFEFE"/>
<path d="M386.995 545.935C386.188 545.993 385.434 546.334 384.885 546.89C384.335 547.446 384.029 548.176 384.029 548.933C384.029 549.691 384.335 550.42 384.885 550.976C385.434 551.532 386.188 551.873 386.995 551.931C387.802 551.873 388.555 551.532 389.105 550.976C389.655 550.42 389.961 549.691 389.961 548.933C389.961 548.176 389.655 547.446 389.105 546.89C388.555 546.334 387.802 545.993 386.995 545.935Z" fill="#FEFEFE"/>
<path d="M201.584 544.874C200.777 544.932 200.024 545.273 199.474 545.828C198.924 546.384 198.619 547.114 198.619 547.871C198.619 548.629 198.924 549.359 199.474 549.914C200.024 550.47 200.777 550.811 201.584 550.869C202.391 550.811 203.145 550.47 203.695 549.914C204.244 549.359 204.55 548.629 204.55 547.871C204.55 547.114 204.244 546.384 203.695 545.828C203.145 545.273 202.391 544.932 201.584 544.874Z" fill="#FEFEFE"/>
<path d="M207.649 323.346C207.27 325.208 206.309 326.923 204.888 328.274C203.468 329.625 201.651 330.552 199.668 330.936C197.685 331.321 195.625 331.146 193.748 330.435C191.871 329.723 190.261 328.507 189.123 326.939C187.984 325.371 187.368 323.522 187.351 321.626C187.335 319.731 187.92 317.873 189.031 316.288C190.143 314.703 191.731 313.463 193.596 312.723C195.46 311.983 197.517 311.778 199.507 312.132C200.828 312.368 202.086 312.845 203.211 313.536C204.335 314.227 205.303 315.119 206.059 316.16C206.815 317.201 207.345 318.372 207.618 319.605C207.891 320.838 207.901 322.109 207.649 323.346Z" fill="#1E1E1E"/>
<path d="M217.254 275.922L209.57 274.554L199.953 321.884L207.637 323.253L217.254 275.922Z" fill="#1E1E1E"/>
<path d="M242.979 315.44C242.603 317.303 241.645 319.021 240.226 320.375C238.807 321.728 236.99 322.658 235.007 323.045C233.024 323.432 230.962 323.259 229.083 322.549C227.205 321.839 225.593 320.623 224.453 319.056C223.313 317.488 222.695 315.638 222.678 313.742C222.66 311.845 223.245 309.986 224.356 308.401C225.468 306.815 227.057 305.573 228.922 304.834C230.788 304.094 232.846 303.888 234.836 304.244C237.501 304.72 239.854 306.166 241.381 308.265C242.908 310.364 243.482 312.944 242.979 315.44Z" fill="#1E1E1E"/>
<path d="M252.589 268.022L244.905 266.653L235.288 313.984L242.972 315.352L252.589 268.022Z" fill="#1E1E1E"/>
<path d="M252.594 268.11L208.31 280.862L209.595 274.548L253.879 261.778L252.594 268.11Z" fill="#1E1E1E"/>
<path d="M250.174 280.031L205.89 292.783L207.175 286.469L251.459 273.699L250.174 280.031Z" fill="#1E1E1E"/>
<path d="M648.944 69.7343C648.557 71.5935 647.591 73.304 646.167 74.6497C644.744 75.9954 642.926 76.9161 640.944 77.2956C638.962 77.6751 636.904 77.4964 635.03 76.782C633.156 76.0676 631.55 74.8495 630.415 73.2816C629.28 71.7136 628.667 69.866 628.653 67.972C628.638 66.0779 629.223 64.2223 630.335 62.6394C631.446 61.0565 633.033 59.8171 634.895 59.0779C636.758 58.3386 638.813 58.1324 640.801 58.4855C642.127 58.7186 643.391 59.1954 644.519 59.8881C645.648 60.5809 646.618 61.476 647.375 62.5218C648.132 63.5676 648.661 64.7433 648.93 65.9812C649.199 67.2192 649.204 68.4947 648.944 69.7343Z" fill="#C7C7C7"/>
<path d="M658.583 22.3213L650.899 20.953L641.282 68.2833L648.966 69.6516L658.583 22.3213Z" fill="#C7C7C7"/>
<path d="M687.142 14.7969L679.458 13.4286L676.68 27.103L684.364 28.4713L687.142 14.7969Z" fill="#C7C7C7"/>
<path d="M686.786 16.5857L649.624 27.2508L650.909 20.9366L688.07 10.2538L686.786 16.5857Z" fill="#C7C7C7"/>
<path d="M684.366 28.5064L647.205 39.1892L648.489 32.8573L685.651 22.1745L684.366 28.5064Z" fill="#C7C7C7"/>
<path d="M662.697 355.961C647.904 386.541 624.119 385.869 617.582 393.244C613.924 398.024 610.562 402.997 607.512 408.137L572.07 397.525C572.765 391.682 573.1 385.806 573.071 379.926C572.334 370.375 552.497 358.012 559.393 325.097C563.889 303.448 591.888 275.574 629.295 286.717C666.703 297.859 672.408 335.868 662.697 355.961Z" fill="#00E340"/>
<path d="M586.904 346.346L579.379 402.272L581.253 402.493L588.779 346.567L586.904 346.346Z" fill="white"/>
<path d="M625.514 357.596L596.95 407.218L598.613 408.057L627.177 358.436L625.514 357.596Z" fill="white"/>
<path d="M602.884 370.022C602.244 370.04 601.605 369.956 600.995 369.774C598.218 368.943 596.121 366.042 595.082 361.603C595.082 361.408 595.082 361.196 594.949 361.002C594.434 361.333 593.85 361.561 593.235 361.671C592.621 361.781 591.989 361.77 591.379 361.638C586.07 360.046 587.43 349.169 587.487 348.709L588.431 348.815C588.431 348.921 587.09 359.427 591.662 360.789C592.209 360.885 592.773 360.867 593.312 360.736C593.851 360.604 594.352 360.363 594.779 360.029C594.005 355.041 594.666 349.028 597.122 346.923C597.505 346.581 597.98 346.345 598.496 346.239C599.013 346.133 599.55 346.161 600.05 346.321C602.374 347.011 603.13 349.169 602.091 352.211C600.869 355.461 598.696 358.323 595.818 360.471C595.818 360.789 595.932 361.09 596.007 361.408C596.574 363.796 597.991 367.952 601.278 368.925C603.489 369.597 606.247 368.625 609.081 366.219C609.308 366.025 609.553 365.812 609.78 365.582C608.472 362.431 608.392 358.95 609.553 355.749C610.819 352.052 613.067 350.213 615.467 350.92C615.928 351.064 616.338 351.323 616.655 351.669C616.971 352.015 617.18 352.434 617.262 352.883C617.961 355.908 615.013 361.727 610.895 365.777C611.56 366.929 612.667 367.801 613.993 368.218C617.243 369.191 622.589 362.788 624.384 360.241L625.159 360.719C624.894 361.125 618.301 370.446 613.71 369.067C612.246 368.605 611.012 367.662 610.234 366.414L609.704 366.874C607.896 368.639 605.482 369.753 602.884 370.022ZM614.598 351.663C612.708 351.663 611.31 353.909 610.592 356.014C609.598 358.888 609.598 361.983 610.592 364.857C614.371 361.037 617.092 355.66 616.468 352.989C616.425 352.692 616.291 352.412 616.084 352.184C615.876 351.955 615.603 351.787 615.297 351.698C615.049 351.647 614.793 351.635 614.541 351.663H614.598ZM599.238 347.064C598.989 347.063 598.743 347.108 598.513 347.196C598.283 347.284 598.073 347.413 597.897 347.577C596.007 349.24 595.082 354.475 595.781 359.445C598.294 357.441 600.203 354.855 601.316 351.946C601.826 350.46 602.299 347.878 599.88 347.153C599.628 347.088 599.367 347.058 599.106 347.064H599.238Z" fill="white"/>
<path d="M612.101 408L568.368 394.926L565.638 402.929L609.372 416.003L612.101 408Z" fill="#A6A6A6"/>
<path d="M608.912 417.286L565.179 404.212L562.449 412.215L606.183 425.29L608.912 417.286Z" fill="#A6A6A6"/>
<path d="M605.738 426.589L562.005 413.515L559.275 421.518L603.008 434.592L605.738 426.589Z" fill="#A6A6A6"/>
<path d="M637.074 259.533L632.555 272.812L634.355 273.349L638.874 260.07L637.074 259.533Z" fill="#DBDBDB"/>
<path d="M595.518 257.721L593.672 258.097L596.841 271.715L598.687 271.339L595.518 257.721Z" fill="#DBDBDB"/>
<path d="M556.649 275.839L555.251 277.029L565.271 287.337L566.668 286.147L556.649 275.839Z" fill="#DBDBDB"/>
<path d="M532.734 309.893L532.159 311.577L546.341 315.817L546.916 314.132L532.734 309.893Z" fill="#DBDBDB"/>
<path d="M544.65 347.532L530.104 350.499L530.506 352.227L545.052 349.26L544.65 347.532Z" fill="#DBDBDB"/>
<path d="M659.504 382.051L658.106 383.241L668.123 393.551L669.521 392.361L659.504 382.051Z" fill="#DBDBDB"/>
<path d="M678.497 353.676L677.922 355.36L692.104 359.6L692.678 357.915L678.497 353.676Z" fill="#DBDBDB"/>
<path d="M694.272 317.143L679.726 320.11L680.128 321.838L694.674 318.871L694.272 317.143Z" fill="#DBDBDB"/>
<path d="M673.914 281.2L662.912 290.589L664.184 291.896L675.187 282.507L673.914 281.2Z" fill="#DBDBDB"/>
</svg>
