<svg width="219" height="219" viewBox="0 0 219 219" fill="none" xmlns="http://www.w3.org/2000/svg">
<path d="M83.5637 35.3267C88.9924 37.3123 92.4211 39.7233 100.278 47.3819C102.85 49.9348 105.707 52.0622 106.564 52.0622C107.279 52.0622 107.993 52.7713 107.993 53.6223C107.993 54.7569 111.564 54.8987 120.565 54.1896C147.422 52.0622 154.708 53.3386 162.994 61.2809C166.566 64.5429 169.423 68.6558 169.423 70.2159C169.423 71.9178 170.137 73.6197 170.851 74.0452C171.708 74.4707 172.28 78.7255 172.28 83.4058C172.28 88.086 171.708 91.7735 170.851 91.7735C170.137 91.7735 169.423 94.0427 169.423 96.7374C169.423 99.4321 168.851 101.701 167.994 101.701C167.28 101.701 166.566 102.978 166.566 104.538C166.566 106.098 165.994 107.374 165.137 107.374C164.423 107.374 163.708 108.651 163.708 110.211C163.708 111.771 163.137 113.047 162.28 113.047C161.565 113.047 160.851 113.898 160.851 114.749C160.851 119.571 129.422 151.34 124.707 151.34C123.707 151.34 121.993 152.617 120.85 154.177C119.707 155.737 117.707 157.014 116.279 157.014C114.85 157.014 113.707 157.581 113.707 158.432C113.707 159.141 112.421 159.85 110.85 159.85C109.279 159.85 107.993 160.417 107.993 161.268C107.993 161.977 106.421 162.687 104.564 162.687C102.564 162.687 100.564 163.254 100.136 164.105C99.7069 164.814 97.7069 165.523 95.8497 165.523C93.9925 165.523 91.9925 166.09 91.5639 166.941C91.1353 167.65 88.5638 168.36 86.1352 168.501C83.5637 168.501 80.2779 169.069 78.7065 169.636C77.135 170.345 74.5635 170.203 72.9921 169.352C68.2777 166.941 59.9918 157.014 56.4203 149.78C54.706 145.951 52.7059 142.831 51.9916 142.831C51.4202 142.831 50.8487 141.838 50.8487 140.704C50.8487 139.569 50.2773 137.442 49.563 136.023C45.5629 128.365 42.2771 117.302 42.2771 111.913C42.2771 109.36 41.7057 107.374 40.8485 107.374C39.9914 107.374 39.4199 99.9994 39.4199 88.2278C39.4199 76.4563 39.9914 69.0813 40.8485 69.0813C41.7057 69.0813 42.2771 67.6631 42.2771 65.9611C42.2771 62.841 45.1343 53.7641 46.8487 51.353C58.2775 35.6103 69.7063 30.5046 83.5637 35.3267Z" fill="#FF8E63"/>
<path d="M65.1719 20.6873C61.8884 20.9604 59.289 21.7794 59.289 22.5985C59.289 23.281 58.0577 23.8271 56.5528 23.8271C55.0479 23.8271 53.8166 24.3731 53.8166 25.1922C53.8166 25.8747 53.1326 26.5573 52.4485 26.5573C50.5332 26.5573 38.7675 38.2971 38.7675 40.2083C38.7675 40.8908 38.3571 41.5734 37.673 41.5734C37.1258 41.5734 35.8945 43.621 34.9368 45.9417C33.8423 48.3989 32.611 51.6751 31.927 53.1768C25.2233 69.0119 23.7184 89.898 27.8227 111.194C28.6435 115.289 29.6012 120.749 30.1485 123.07C30.5589 125.527 31.3797 127.575 32.0638 127.575C32.7479 127.575 33.2951 129.349 33.2951 131.534C33.2951 133.854 33.9791 136.038 34.6632 136.448C35.4841 136.857 36.0313 138.496 36.0313 139.997C36.0313 141.362 36.7153 142.591 37.3994 142.591C38.2203 142.591 38.7675 143.819 38.7675 145.321C38.7675 146.823 39.4516 148.051 40.1356 148.051C40.9565 148.051 41.5037 149.28 41.5037 150.782C41.5037 152.283 42.1878 153.512 42.8718 153.512C43.6927 153.512 44.2399 154.74 44.2399 156.242C44.2399 157.744 44.924 158.972 45.608 158.972C46.4289 158.972 46.9761 159.928 46.9761 161.02C46.9761 162.112 47.5234 163.067 48.0706 163.067C48.6178 163.067 50.1228 164.842 51.4909 167.026C52.7221 169.21 55.4584 172.76 57.5105 175.08C59.6995 177.264 62.2989 180.541 63.3933 182.179C66.6768 186.957 69.8234 190.369 70.9179 190.369C71.4651 190.369 72.9701 191.462 74.2014 192.827C78.032 197.195 81.9995 198.56 91.3026 198.56C100.606 198.56 112.645 196.103 112.645 194.192C112.645 193.646 114.56 193.1 116.749 193.1C119.075 193.1 120.854 192.417 120.854 191.735C120.854 190.915 122.085 190.369 123.59 190.369C125.095 190.369 126.326 189.687 126.326 189.004C126.326 188.185 127.831 187.639 129.746 187.639C131.662 187.639 133.167 186.957 133.167 186.274C133.167 185.455 134.398 184.909 135.903 184.909C137.408 184.909 138.639 184.226 138.639 183.544C138.639 182.725 139.186 182.179 140.007 182.179C141.238 182.179 144.248 179.995 148.763 176.036C149.584 175.217 152.32 173.033 154.919 171.258C166.275 163.34 186.659 142.727 190.49 135.356C191.585 133.308 192.953 131.67 193.637 131.67C194.184 131.67 194.731 130.441 194.731 128.94C194.731 127.438 195.415 126.21 196.099 126.21C196.92 126.21 197.467 124.981 197.467 123.616C197.467 122.114 198.151 120.476 198.835 120.067C199.656 119.657 200.204 118.019 200.204 116.517C200.204 115.152 200.888 113.924 201.572 113.924C202.393 113.924 202.94 108.054 202.94 98.9077C202.94 89.7615 202.393 83.8915 201.572 83.8915C200.888 83.8915 200.204 81.7074 200.204 79.1137C200.204 76.52 199.656 74.3358 198.835 74.3358C198.151 74.3358 197.467 73.3803 197.467 72.2882C197.467 68.6024 180.092 50.4465 173.389 47.0338C171.2 45.9417 169.148 44.7131 168.737 44.3036C167.232 42.802 157.792 40.3448 146.984 38.8432C137.818 37.4781 133.714 37.4781 126.326 38.8432L117.16 40.6178L112.645 36.2495C110.182 33.9288 107.583 32.0177 106.899 32.0177C106.215 32.0177 104.436 30.7891 102.795 29.2875C101.153 27.7859 98.964 26.5573 98.0063 26.5573C97.0487 26.5573 96.2278 25.8747 96.2278 25.1922C96.2278 24.3731 94.7229 23.8271 92.9444 23.8271C91.1658 23.8271 89.3873 23.281 89.1137 22.5985C88.5664 21.2334 73.1069 19.8683 65.1719 20.6873ZM83.7781 36.386C88.9769 38.2971 92.2603 40.6178 99.7849 47.9894C102.247 50.4465 104.984 52.4942 105.805 52.4942C106.489 52.4942 107.173 53.1768 107.173 53.9958C107.173 55.0879 110.593 55.2244 119.212 54.5419C144.932 52.4942 151.91 53.7228 159.845 61.3674C163.265 64.5071 166.001 68.4659 166.001 69.9675C166.001 71.6056 166.685 73.2437 167.369 73.6533C168.19 74.0628 168.737 78.1581 168.737 82.6629C168.737 87.1678 168.19 90.717 167.369 90.717C166.685 90.717 166.001 92.9012 166.001 95.4949C166.001 98.0886 165.454 100.273 164.633 100.273C163.949 100.273 163.265 101.501 163.265 103.003C163.265 104.505 162.718 105.733 161.897 105.733C161.213 105.733 160.529 106.962 160.529 108.463C160.529 109.965 159.981 111.194 159.161 111.194C158.476 111.194 157.792 112.013 157.792 112.832C157.792 117.473 127.694 148.051 123.179 148.051C122.222 148.051 120.58 149.28 119.486 150.782C118.391 152.283 116.476 153.512 115.108 153.512C113.74 153.512 112.645 154.058 112.645 154.877C112.645 155.559 111.414 156.242 109.909 156.242C108.404 156.242 107.173 156.788 107.173 157.607C107.173 158.29 105.668 158.972 103.889 158.972C101.974 158.972 100.058 159.518 99.6481 160.337C99.2376 161.02 97.3223 161.702 95.5438 161.702C93.7652 161.702 91.8499 162.248 91.4394 163.067C91.029 163.75 88.5664 164.433 86.2407 164.569C83.7781 164.569 80.6314 165.115 79.1265 165.661C77.6216 166.344 75.159 166.207 73.6541 165.388C69.1394 163.067 61.2044 153.512 57.7841 146.55C56.1424 142.864 54.2271 139.861 53.543 139.861C52.9958 139.861 52.4485 138.905 52.4485 137.813C52.4485 136.721 51.9013 134.673 51.2172 133.308C47.3865 125.937 44.2399 115.289 44.2399 110.101C44.2399 107.644 43.6927 105.733 42.8718 105.733C42.0509 105.733 41.5037 98.6346 41.5037 87.3043C41.5037 75.9739 42.0509 68.8754 42.8718 68.8754C43.6927 68.8754 44.2399 67.5103 44.2399 65.8722C44.2399 62.869 46.9761 54.1323 48.6178 51.8116C59.5627 36.659 70.5075 31.7447 83.7781 36.386Z" fill="black"/>
</svg>
