<svg width="1071" height="1010" viewBox="0 0 1071 1010" fill="none" xmlns="http://www.w3.org/2000/svg">
<path d="M66.1168 544.245C62.1853 537.89 60.6821 530.328 61.884 522.952L76.3843 433.967C77.7963 425.301 82.8164 417.641 90.1981 412.888L701.068 19.5526C712.197 12.3868 727.026 15.584 734.214 26.6989L1019.17 467.343C1023.82 474.546 1025.05 483.441 1022.52 491.638L1001.62 559.41C999.688 565.678 995.687 571.106 990.271 574.807L366.035 1001.37C359.468 1005.86 350.484 1003.95 346.3 997.19L66.1168 544.245Z" fill="#0C0C0A"/>
<rect x="114.033" y="450.097" width="721.187" height="511.107" rx="13.9501" transform="rotate(-33.3684 114.033 450.097)" fill="#F8F4F0"/>
<path d="M416.874 608.647C415.461 606.502 416.055 603.619 418.2 602.206L524.275 532.346C526.42 530.934 529.304 531.527 530.716 533.672L584.726 615.68L470.884 690.656L416.874 608.647Z" fill="#8AB2F5" stroke="black" stroke-width="6.97503"/>
<path d="M478.145 483.772C476.732 481.627 477.326 478.744 479.47 477.331L585.546 407.471C587.691 406.059 590.574 406.652 591.987 408.797L685.185 550.309L571.343 625.284L478.145 483.772Z" fill="#F59772" stroke="black" stroke-width="6.97503"/>
<path d="M516.186 336.837C514.773 334.692 515.367 331.808 517.512 330.396L623.587 260.536C625.732 259.123 628.616 259.717 630.028 261.862L779.224 488.4L665.381 563.375L516.186 336.837Z" fill="#F7C30E" stroke="black" stroke-width="6.97503"/>
<line x1="419.245" y1="748.724" x2="845.049" y2="465.955" stroke="black" stroke-width="6.97503"/>
</svg>
