<svg width="256" height="237" viewBox="0 0 256 237" fill="none" xmlns="http://www.w3.org/2000/svg">
<path d="M133.698 39.1425C165.227 45.7462 192.784 63.8451 209.752 89.1591C233.82 125.235 228.766 169.993 197.598 195.674C172.086 216.585 140.437 222.455 98.7993 214.017C88.8111 211.938 79.3043 210.593 77.7399 210.96C76.0552 211.449 70.3992 213.528 65.1043 215.729C48.4974 222.7 50.0619 223.433 50.0619 208.759C49.9415 191.271 49.0991 188.092 41.3974 179.898C24.3092 161.432 15.7651 142.844 14.3211 120.832C12.877 99.0646 20.0974 80.2319 36.1025 64.0897C47.7754 52.4721 59.4483 45.3793 74.7314 40.8546C93.384 35.3516 112.638 34.8624 133.698 39.1425Z" fill="#88B5FE"/>
<path d="M102.89 1.23566C85.2003 3.80375 64.8629 12.6086 50.6629 23.6147C41.1561 31.0744 23.4662 51.4968 17.2085 62.3806C3.61018 85.738 0 97.2332 0 117.411C0 143.214 9.38647 166.327 28.2798 186.872L35.5001 194.698L35.1391 211.085C34.5374 234.443 36.4628 238.478 46.5713 236.521C48.8578 236.155 58.1239 232.975 67.1494 229.673L83.5155 223.559L95.6698 226.738C110.712 230.774 135.743 232.119 151.507 229.796C170.762 226.861 189.775 218.912 204.457 207.416C212.88 200.813 226.238 184.548 237.43 167.061C247.779 151.163 251.028 143.826 253.435 131.108C259.572 98.3339 247.899 65.6824 220.702 38.901C194.468 13.2201 159.811 -0.476398 122.385 0.0127619C115.646 0.135052 106.861 0.624211 102.89 1.23566ZM132.975 39.1455C164.504 45.7492 192.062 63.8481 209.029 89.1621C233.097 125.238 228.043 169.996 196.875 195.677C171.363 216.588 139.714 222.458 98.0766 214.02C88.0884 211.941 78.5816 210.596 77.0172 210.963C75.3324 211.452 69.6765 213.531 64.3816 215.732C47.7747 222.703 49.3391 223.436 49.3391 208.762C49.2188 191.274 48.3764 188.095 40.6747 179.901C23.5865 161.435 15.0424 142.847 13.5983 120.835C12.1543 99.0676 19.3746 80.2349 35.3798 64.0927C47.0527 52.4751 58.7256 45.3823 74.0087 40.8576C92.6613 35.3545 111.916 34.8654 132.975 39.1455Z" fill="black"/>
<path d="M55.4777 94.2973C46.4523 98.822 42.9624 111.54 48.498 119.734C54.876 129.394 68.4744 131.107 76.4168 123.402C83.8778 116.065 84.5998 107.382 78.5829 99.0666C72.9269 91.6069 64.3828 89.7725 55.4777 94.2973Z" fill="black"/>
<path d="M103.852 113.619C95.7898 118.51 92.7813 130.984 97.5948 138.933C100.363 143.457 108.425 147.86 113.841 147.86C121.302 147.86 129.846 140.767 131.771 133.063C133.095 127.56 130.327 120.345 125.153 115.575C120.941 111.662 119.617 111.173 113.961 111.173C109.869 111.173 106.38 112.029 103.852 113.619Z" fill="black"/>
<path d="M152.832 133.43C146.213 138.077 143.927 142.113 143.927 149.573C143.806 155.32 144.288 156.788 147.296 159.967C154.878 168.038 165.949 169.261 173.289 162.902C180.871 156.421 182.435 148.35 177.742 139.912C172.808 130.984 160.894 127.927 152.832 133.43Z" fill="black"/>
</svg>
