<svg width="3852" height="3482" viewBox="0 0 3852 3482" fill="none" xmlns="http://www.w3.org/2000/svg">
<path d="M1886.38 3481.24C2889.6 3481.24 3702.87 3416.43 3702.87 3336.49C3702.87 3256.55 2889.6 3191.74 1886.38 3191.74C883.167 3191.74 69.898 3256.55 69.898 3336.49C69.898 3416.43 883.167 3481.24 1886.38 3481.24Z" fill="black"/>
<path d="M3599.22 3161.28H2507.56L2725.23 1895.13H3541.54L3599.22 3161.28Z" fill="black"/>
<path d="M3599.22 3161.28H3503.5L3449.79 1895.13H3541.54L3599.22 3161.28Z" fill="#181818"/>
<path d="M0.317848 3161.28L471.88 3159.11L943.351 3158.3L1886.39 3156.77L2829.42 3158.3L3300.89 3159.11L3772.45 3161.28L3300.89 3163.53L2829.42 3164.25L1886.39 3165.78L943.351 3164.25L471.88 3163.53L0.317848 3161.28Z" fill="#263238"/>
<path d="M1025.1 6.08398H129.385V577.51H1025.1V6.08398Z" fill="white"/>
<path d="M1030.69 583.098H123.706V0.405762H1030.69V583.098ZM134.973 571.832H1019.42V11.7622H134.973V571.832Z" fill="black"/>
<path d="M1025.1 6.08398H129.385V114.15H1025.1V6.08398Z" fill="#00E340"/>
<path d="M1030.69 119.828H123.706V0.405762H1030.69V119.828ZM134.973 108.472H1019.42V11.7622H134.973V108.472Z" fill="black"/>
<path d="M230.781 60.8829C230.781 66.2307 229.196 71.4584 226.225 75.9049C223.253 80.3515 219.031 83.8171 214.09 85.8637C209.149 87.9102 203.712 88.4457 198.467 87.4024C193.222 86.3591 188.404 83.7839 184.623 80.0024C180.841 76.2209 178.266 71.403 177.223 66.1579C176.18 60.9128 176.715 55.4762 178.761 50.5354C180.808 45.5947 184.274 41.3717 188.72 38.4006C193.167 35.4295 198.395 33.8438 203.742 33.8438C210.914 33.8438 217.791 36.6925 222.862 41.7633C227.933 46.8341 230.781 53.7116 230.781 60.8829Z" fill="white"/>
<path d="M341.821 60.8829C341.821 66.2307 340.236 71.4584 337.265 75.9049C334.293 80.3515 330.071 83.8171 325.13 85.8637C320.189 87.9102 314.752 88.4457 309.507 87.4024C304.262 86.3591 299.444 83.7839 295.663 80.0024C291.881 76.2209 289.306 71.403 288.263 66.1579C287.219 60.9128 287.755 55.4762 289.801 50.5354C291.848 45.5947 295.314 41.3717 299.76 38.4006C304.207 35.4295 309.434 33.8438 314.782 33.8438C321.954 33.8438 328.831 36.6925 333.902 41.7633C338.973 46.8341 341.821 53.7116 341.821 60.8829Z" fill="black"/>
<path d="M453.314 60.8829C453.314 66.2307 451.728 71.4584 448.757 75.9049C445.786 80.3515 441.563 83.8171 436.622 85.8637C431.681 87.9102 426.244 88.4457 420.999 87.4024C415.754 86.3591 410.936 83.7839 407.155 80.0024C403.373 76.2209 400.798 71.403 399.755 66.1579C398.712 60.9128 399.247 55.4762 401.294 50.5354C403.34 45.5947 406.806 41.3717 411.252 38.4006C415.699 35.4295 420.927 33.8438 426.274 33.8438C433.446 33.8438 440.323 36.6925 445.394 41.7633C450.465 46.8341 453.314 53.7116 453.314 60.8829Z" fill="white"/>
<path d="M283.958 327.759C284.571 298.876 296.471 271.382 317.108 251.166C337.745 230.95 365.479 219.62 394.368 219.603C419.538 219.451 444.034 227.733 463.949 243.127C466.869 246.123 468.605 250.075 468.836 254.253C469.066 258.43 467.775 262.55 465.202 265.849C462.629 269.148 458.948 271.403 454.84 272.197C450.732 272.991 446.475 272.269 442.858 270.166C429.155 259.094 411.981 253.221 394.368 253.582C374.267 253.753 354.964 261.474 340.29 275.213C333.322 282.084 327.777 290.262 323.973 299.279C320.168 308.295 318.179 317.973 318.118 327.759C318.099 337.514 320.035 347.174 323.813 356.168C327.59 365.162 333.131 373.308 340.11 380.125C354.751 393.927 374.067 401.686 394.188 401.846C411.786 402.116 428.93 396.252 442.678 385.262C446.383 382.718 450.905 381.65 455.357 382.267C459.808 382.883 463.869 385.141 466.743 388.597C469.329 392.26 470.457 396.755 469.907 401.204C469.357 405.654 467.168 409.739 463.769 412.662C443.854 428.056 419.358 436.337 394.188 436.186C365.249 436.236 337.454 424.886 316.823 404.592C296.192 384.299 284.385 356.695 283.958 327.759Z" fill="black"/>
<path d="M518.657 383.82C521.296 380.63 525.088 378.612 529.208 378.207C533.327 377.802 537.44 379.042 540.649 381.657C556.804 395.399 576.983 403.527 598.152 404.82C611.523 405.08 624.648 401.209 635.737 393.734C639.508 391.447 642.662 388.272 644.924 384.486C647.186 380.7 648.488 376.418 648.716 372.013C648.774 368.603 647.834 365.251 646.012 362.369C643.694 358.749 640.619 355.674 636.999 353.356C624.238 346.186 610.282 341.391 595.809 339.206H595.178C581.819 336.943 568.797 333.006 556.422 327.489C545.011 322.549 535.275 314.41 528.392 304.055C523.813 296.634 521.409 288.078 521.451 279.359C521.767 270.661 524.106 262.157 528.284 254.522C532.461 246.887 538.362 240.331 545.516 235.375C560.774 224.785 578.95 219.21 597.521 219.422C621.342 220.608 644.233 229.035 663.136 243.577C666.509 245.866 668.844 249.391 669.637 253.389C670.429 257.386 669.616 261.536 667.372 264.938C666.285 266.658 664.863 268.143 663.192 269.304C661.521 270.465 659.634 271.28 657.643 271.7C655.652 272.12 653.597 272.137 651.599 271.75C649.601 271.362 647.701 270.579 646.012 269.445C630.599 259.17 615.908 250.157 597.521 250.157C585.502 249.979 573.723 253.538 563.813 260.342C560.54 262.376 557.802 265.163 555.826 268.472C553.851 271.78 552.695 275.513 552.456 279.359C552.284 282.31 553.04 285.242 554.619 287.741C556.742 290.896 559.506 293.568 562.731 295.582C574.274 302.411 587.042 306.913 600.315 308.832H600.946C615.258 311.331 629.212 315.568 642.496 321.45C654.674 326.788 665.083 335.477 672.51 346.506C677.294 354.153 679.824 362.993 679.81 372.013C679.516 381.3 677.007 390.383 672.492 398.504C667.977 406.625 661.586 413.549 653.853 418.701C637.596 430.152 618.125 436.148 598.243 435.825C569.947 434.525 542.866 423.946 521.181 405.722C518.003 403.111 515.963 399.367 515.493 395.281C515.022 391.195 516.157 387.086 518.657 383.82Z" fill="black"/>
<path d="M716.404 383.82C719.042 380.63 722.834 378.613 726.954 378.207C731.074 377.802 735.186 379.042 738.396 381.657C754.506 395.415 774.662 403.547 795.809 404.821C809.207 405.081 822.361 401.211 833.483 393.735C837.237 391.436 840.373 388.257 842.62 384.471C844.866 380.686 846.154 376.409 846.372 372.013C846.43 368.604 845.49 365.251 843.668 362.369C841.361 358.74 838.284 355.662 834.655 353.356C821.888 346.201 807.934 341.407 793.465 339.206H792.834C779.449 336.93 766.399 332.994 753.988 327.489C742.602 322.548 732.895 314.407 726.048 304.055C721.469 296.634 719.065 288.078 719.108 279.359C719.402 270.657 721.732 262.145 725.912 254.507C730.091 246.868 736.003 240.316 743.173 235.375C758.455 224.768 776.666 219.191 795.268 219.422C819.081 220.642 841.962 229.066 860.883 243.577C864.24 245.88 866.557 249.411 867.333 253.408C868.109 257.405 867.281 261.547 865.029 264.938C863.941 266.658 862.52 268.143 860.849 269.304C859.178 270.466 857.291 271.28 855.3 271.7C853.308 272.121 851.253 272.137 849.255 271.75C847.258 271.363 845.358 270.579 843.668 269.445C828.346 259.17 813.564 250.157 795.268 250.157C783.246 249.961 771.462 253.522 761.559 260.342C758.27 262.366 755.514 265.149 753.522 268.458C751.53 271.767 750.361 275.505 750.113 279.359C749.959 282.297 750.681 285.214 752.186 287.741C754.358 290.855 757.112 293.517 760.297 295.583C771.873 302.41 784.671 306.911 797.972 308.832H798.513C812.831 311.304 826.787 315.543 840.063 321.45C852.265 326.786 862.704 335.474 870.166 346.506C874.883 354.178 877.379 363.007 877.377 372.013C877.1 381.294 874.608 390.374 870.108 398.496C865.608 406.617 859.231 413.545 851.509 418.701C835.214 430.142 815.717 436.136 795.809 435.825C767.521 434.486 740.452 423.911 718.747 405.722C715.616 403.072 713.625 399.319 713.189 395.24C712.753 391.162 713.904 387.072 716.404 383.82Z" fill="black"/>
<path d="M2504.5 1640.87H1608.78V2212.29H2504.5V1640.87Z" fill="white"/>
<path d="M2510.18 2217.97H1603.11V1635.19H2510.18V2217.97ZM1614.46 2206.62H2499.27V1646.55H1614.46V2206.62Z" fill="black"/>
<path d="M2504.5 1640.87H1608.78V1748.93H2504.5V1640.87Z" fill="#00E340"/>
<path d="M2510.18 1754.61H1603.11V1635.19H2510.18V1754.61ZM1614.46 1743.26H2499.27V1646.55H1614.46V1743.26Z" fill="black"/>
<path d="M1710.27 1695.67C1710.27 1701.02 1708.68 1706.24 1705.71 1710.69C1702.74 1715.14 1698.52 1718.6 1693.58 1720.65C1688.64 1722.69 1683.2 1723.23 1677.96 1722.19C1672.71 1721.14 1667.89 1718.57 1664.11 1714.79C1660.33 1711.01 1657.76 1706.19 1656.71 1700.94C1655.67 1695.7 1656.2 1690.26 1658.25 1685.32C1660.3 1680.38 1663.76 1676.16 1668.21 1673.19C1672.66 1670.21 1677.88 1668.63 1683.23 1668.63C1690.4 1668.63 1697.28 1671.48 1702.35 1676.55C1707.42 1681.62 1710.27 1688.5 1710.27 1695.67Z" fill="white"/>
<path d="M1821.31 1695.67C1821.31 1701.02 1819.73 1706.24 1816.75 1710.69C1813.78 1715.14 1809.56 1718.6 1804.62 1720.65C1799.68 1722.69 1794.24 1723.23 1789 1722.19C1783.75 1721.14 1778.93 1718.57 1775.15 1714.79C1771.37 1711.01 1768.8 1706.19 1767.75 1700.94C1766.71 1695.7 1767.24 1690.26 1769.29 1685.32C1771.34 1680.38 1774.8 1676.16 1779.25 1673.19C1783.7 1670.21 1788.92 1668.63 1794.27 1668.63C1801.44 1668.63 1808.32 1671.48 1813.39 1676.55C1818.46 1681.62 1821.31 1688.5 1821.31 1695.67Z" fill="black"/>
<path d="M1932.35 1695.67C1932.35 1701.02 1930.77 1706.24 1927.79 1710.69C1924.82 1715.14 1920.6 1718.6 1915.66 1720.65C1910.72 1722.69 1905.28 1723.23 1900.04 1722.19C1894.79 1721.14 1889.97 1718.57 1886.19 1714.79C1882.41 1711.01 1879.84 1706.19 1878.79 1700.94C1877.75 1695.7 1878.29 1690.26 1880.33 1685.32C1882.38 1680.38 1885.84 1676.16 1890.29 1673.19C1894.74 1670.21 1899.96 1668.63 1905.31 1668.63C1912.48 1668.63 1919.36 1671.48 1924.43 1676.55C1929.5 1681.62 1932.35 1688.5 1932.35 1695.67Z" fill="white"/>
<path d="M1776.07 1962.63C1776.66 1933.74 1788.55 1906.24 1809.19 1886.01C1829.83 1865.79 1857.58 1854.47 1886.48 1854.48C1911.64 1854.29 1936.13 1862.54 1956.06 1877.91C1959.46 1880.83 1961.64 1884.92 1962.19 1889.37C1962.74 1893.82 1961.62 1898.31 1959.03 1901.98C1956.16 1905.43 1952.1 1907.69 1947.64 1908.31C1943.19 1908.92 1938.67 1907.85 1934.97 1905.31C1921.27 1894.13 1904.07 1888.13 1886.39 1888.37C1866.26 1888.53 1846.95 1896.29 1832.31 1910.09C1818.33 1923.94 1810.42 1942.77 1810.31 1962.45C1810.31 1972.21 1812.25 1981.86 1816.03 1990.85C1819.81 1999.85 1825.34 2007.99 1832.31 2014.82C1846.96 2028.6 1866.28 2036.32 1886.39 2036.45C1903.99 2036.75 1921.14 2030.88 1934.88 2019.87C1938.58 2017.32 1943.1 2016.25 1947.55 2016.87C1952.01 2017.49 1956.07 2019.74 1958.94 2023.2C1961.53 2026.86 1962.65 2031.36 1962.1 2035.81C1961.55 2040.26 1959.37 2044.34 1955.97 2047.27C1936.05 2062.66 1911.56 2070.94 1886.39 2070.79C1857.48 2070.86 1829.7 2059.56 1809.06 2039.32C1788.41 2019.09 1776.56 1991.54 1776.07 1962.63Z" fill="black"/>
<path d="M2064.66 1981.56H2021.58C2019.31 1981.73 2017.02 1981.43 2014.87 1980.67C2012.72 1979.92 2010.74 1978.72 2009.07 1977.17C2007.4 1975.62 2006.07 1973.74 2005.16 1971.65C2004.25 1969.56 2003.78 1967.3 2003.78 1965.02C2003.78 1962.74 2004.25 1960.48 2005.16 1958.39C2006.07 1956.3 2007.4 1954.42 2009.07 1952.87C2010.74 1951.32 2012.72 1950.13 2014.87 1949.37C2017.02 1948.62 2019.31 1948.31 2021.58 1948.48H2064.3V1906.39C2064.3 1901.85 2066.11 1897.49 2069.32 1894.28C2072.53 1891.07 2076.89 1889.27 2081.43 1889.27C2085.97 1889.27 2090.32 1891.07 2093.54 1894.28C2096.75 1897.49 2098.55 1901.85 2098.55 1906.39V1948.21H2141.36C2145.54 1948.52 2149.44 1950.4 2152.29 1953.46C2155.14 1956.53 2156.73 1960.56 2156.73 1964.75C2156.73 1968.94 2155.14 1972.97 2152.29 1976.04C2149.44 1979.11 2145.54 1980.98 2141.36 1981.29H2098.55V2023.56C2098.55 2028.1 2096.75 2032.46 2093.54 2035.67C2090.32 2038.88 2085.97 2040.69 2081.43 2040.69C2076.89 2040.69 2072.53 2038.88 2069.32 2035.67C2066.11 2032.46 2064.3 2028.1 2064.3 2023.56L2064.66 1981.56Z" fill="black"/>
<path d="M2251.23 1981.56H2208.51C2206.24 1981.73 2203.95 1981.43 2201.8 1980.67C2199.65 1979.92 2197.67 1978.73 2196 1977.17C2194.33 1975.62 2193 1973.74 2192.09 1971.65C2191.18 1969.56 2190.71 1967.3 2190.71 1965.02C2190.71 1962.74 2191.18 1960.48 2192.09 1958.39C2193 1956.3 2194.33 1954.42 2196 1952.87C2197.67 1951.32 2199.65 1950.13 2201.8 1949.37C2203.95 1948.62 2206.24 1948.32 2208.51 1948.48H2251.23V1906.39C2251.2 1904.13 2251.61 1901.88 2252.46 1899.78C2253.31 1897.68 2254.57 1895.78 2256.16 1894.17C2257.76 1892.57 2259.66 1891.3 2261.75 1890.44C2263.85 1889.58 2266.09 1889.15 2268.36 1889.18C2272.92 1889.18 2277.3 1890.99 2280.53 1894.22C2283.76 1897.45 2285.57 1901.83 2285.57 1906.39V1948.21H2328.02C2332.2 1948.52 2336.1 1950.4 2338.95 1953.47C2341.8 1956.53 2343.39 1960.56 2343.39 1964.75C2343.39 1968.94 2341.8 1972.97 2338.95 1976.04C2336.1 1979.11 2332.2 1980.98 2328.02 1981.29H2285.3V2023.56C2285.3 2025.82 2284.86 2028.06 2283.99 2030.15C2283.13 2032.24 2281.86 2034.14 2280.26 2035.73C2278.66 2037.33 2276.76 2038.6 2274.67 2039.47C2272.59 2040.33 2270.35 2040.78 2268.09 2040.78C2265.82 2040.8 2263.58 2040.37 2261.48 2039.51C2259.39 2038.66 2257.49 2037.39 2255.89 2035.78C2254.3 2034.18 2253.04 2032.27 2252.19 2030.17C2251.34 2028.07 2250.93 2025.82 2250.96 2023.56L2251.23 1981.56Z" fill="black"/>
<path d="M2086.74 542.991H592.924V1769.75H2086.74V542.991Z" fill="white"/>
<path d="M2092.42 1775.52H587.246V537.402H2092.42V1775.52ZM598.603 1764.17H2081.07V548.669H598.603V1764.17Z" fill="black"/>
<path d="M2086.74 542.991H592.924V651.057H2086.74V542.991Z" fill="#00E340"/>
<path d="M2092.42 656.735H587.246V537.402H2092.42V656.735ZM598.603 645.378H2081.07V548.669H598.603V645.378Z" fill="black"/>
<path d="M694.321 597.879C694.321 603.227 692.736 608.455 689.764 612.902C686.793 617.348 682.57 620.814 677.63 622.86C672.689 624.907 667.252 625.442 662.007 624.399C656.762 623.356 651.944 620.78 648.163 616.999C644.381 613.218 641.806 608.4 640.763 603.155C639.719 597.909 640.255 592.473 642.301 587.532C644.348 582.591 647.814 578.368 652.26 575.397C656.707 572.426 661.934 570.84 667.282 570.84C674.453 570.84 681.331 573.689 686.402 578.76C691.473 583.831 694.321 590.708 694.321 597.879Z" fill="white"/>
<path d="M805.362 597.879C805.362 603.227 803.777 608.455 800.805 612.902C797.834 617.348 793.611 620.814 788.671 622.86C783.73 624.907 778.293 625.442 773.048 624.399C767.803 623.356 762.985 620.78 759.204 616.999C755.422 613.218 752.847 608.4 751.804 603.155C750.76 597.909 751.296 592.473 753.342 587.532C755.389 582.591 758.855 578.368 763.301 575.397C767.748 572.426 772.975 570.84 778.323 570.84C785.494 570.84 792.372 573.689 797.443 578.76C802.514 583.831 805.362 590.708 805.362 597.879Z" fill="black"/>
<path d="M916.493 597.879C916.493 603.227 914.907 608.455 911.936 612.902C908.965 617.348 904.742 620.814 899.801 622.86C894.861 624.907 889.424 625.442 884.179 624.399C878.934 623.356 874.116 620.78 870.334 616.999C866.553 613.218 863.978 608.4 862.934 603.155C861.891 597.909 862.427 592.473 864.473 587.532C866.52 582.591 869.985 578.368 874.432 575.397C878.878 572.426 884.106 570.84 889.454 570.84C896.625 570.84 903.503 573.689 908.574 578.76C913.644 583.831 916.493 590.708 916.493 597.879Z" fill="white"/>
<path d="M766.606 866.018H708.832V887.108H766.606V866.018Z" fill="black"/>
<path d="M1471.42 866.018H808.696V887.108H1471.42V866.018Z" fill="black"/>
<path d="M1616.63 866.018H1506.94V887.108H1616.63V866.018Z" fill="#00E340"/>
<path d="M1867.64 1148.4H1757.86V1169.49H1867.64V1148.4Z" fill="black"/>
<path d="M1830.23 866.018H1640.51V887.108H1830.23V866.018Z" fill="white"/>
<path d="M824.379 922.529H766.606V943.619H824.379V922.529Z" fill="black"/>
<path d="M1299.91 922.529H865.029V943.619H1299.91V922.529Z" fill="white"/>
<path d="M1731.81 1148.4H1477.19V1169.49H1731.81V1148.4Z" fill="white"/>
<path d="M1224.11 1091.97H808.696V1113.07H1224.11V1091.97Z" fill="white"/>
<path d="M1156.42 978.951H865.029V1000.04H1156.42V978.951Z" fill="#00E340"/>
<path d="M1691.43 1035.46H1580.3V1056.55H1691.43V1035.46Z" fill="white"/>
<path d="M1654.12 978.951H1188.78V1000.04H1654.12V978.951Z" fill="white"/>
<path d="M1364.17 1148.4H808.696V1169.49H1364.17V1148.4Z" fill="#00E340"/>
<path d="M1929.29 922.529H1628.25V943.619H1929.29V922.529Z" fill="#00E340"/>
<path d="M1604.37 922.529H1327.22V943.619H1604.37V922.529Z" fill="black"/>
<path d="M1863.04 978.951H1676.02V1000.04H1863.04V978.951Z" fill="black"/>
<path d="M824.379 978.951H766.606V1000.04H824.379V978.951Z" fill="black"/>
<path d="M766.606 1035.46H708.832V1056.55H766.606V1035.46Z" fill="white"/>
<path d="M1150.11 1035.46H808.696V1056.55H1150.11V1035.46Z" fill="black"/>
<path d="M1206.44 1204.91H865.029V1226H1206.44V1204.91Z" fill="black"/>
<path d="M1761.28 1261.42H1501.71V1282.51H1761.28V1261.42Z" fill="#00E340"/>
<path d="M1576.61 1204.91H1234.2V1226H1576.61V1204.91Z" fill="#00E340"/>
<path d="M1471.88 1261.42H1173.82V1282.51H1471.88V1261.42Z" fill="black"/>
<path d="M963.902 1261.42H865.029V1282.51H963.902V1261.42Z" fill="white"/>
<path d="M1616.63 1091.97H1247.63V1113.07H1616.63V1091.97Z" fill="black"/>
<path d="M1875.3 1091.97H1640.51V1113.07H1875.3V1091.97Z" fill="#00E340"/>
<path d="M1553.35 1035.46H1184.81V1056.55H1553.35V1035.46Z" fill="#00E340"/>
<path d="M766.606 1091.97H708.832V1113.07H766.606V1091.97Z" fill="black"/>
<path d="M766.606 1148.4H708.832V1169.49H766.606V1148.4Z" fill="black"/>
<path d="M824.379 1204.91H766.606V1226H824.379V1204.91Z" fill="white"/>
<path d="M824.379 1261.42H766.606V1282.51H824.379V1261.42Z" fill="black"/>
<path d="M766.606 1308.65H708.832V1329.74H766.606V1308.65Z" fill="black"/>
<path d="M1471.42 1308.65H808.696V1329.74H1471.42V1308.65Z" fill="black"/>
<path d="M824.379 1365.16H766.606V1386.25H824.379V1365.16Z" fill="black"/>
<path d="M1299.91 1365.16H865.029V1386.25H1299.91V1365.16Z" fill="white"/>
<path d="M1224.11 1534.6H808.696V1555.69H1224.11V1534.6Z" fill="white"/>
<path d="M1156.42 1421.67H865.029V1442.76H1156.42V1421.67Z" fill="#00E340"/>
<path d="M1654.12 1421.67H1188.78V1442.76H1654.12V1421.67Z" fill="white"/>
<path d="M1364.17 1591.03H808.696V1612.12H1364.17V1591.03Z" fill="#00E340"/>
<path d="M1929.29 1365.16H1628.25V1386.25H1929.29V1365.16Z" fill="#00E340"/>
<path d="M1604.37 1365.16H1327.22V1386.25H1604.37V1365.16Z" fill="black"/>
<path d="M1863.04 1421.67H1676.02V1442.76H1863.04V1421.67Z" fill="black"/>
<path d="M824.379 1421.67H766.606V1442.76H824.379V1421.67Z" fill="black"/>
<path d="M766.606 1478.09H708.832V1499.18H766.606V1478.09Z" fill="white"/>
<path d="M1150.11 1478.09H808.696V1499.18H1150.11V1478.09Z" fill="black"/>
<path d="M1616.63 1534.6H1247.63V1555.69H1616.63V1534.6Z" fill="black"/>
<path d="M1553.35 1478.09H1184.81V1499.18H1553.35V1478.09Z" fill="#00E340"/>
<path d="M766.606 1534.6H708.832V1555.69H766.606V1534.6Z" fill="black"/>
<path d="M744.524 810.497C745.466 811.443 745.994 812.723 745.994 814.058C745.994 815.392 745.466 816.672 744.524 817.618C743.567 818.538 742.292 819.051 740.964 819.051C739.637 819.051 738.361 818.538 737.404 817.618L715.142 794.995C715.094 794.849 715.094 794.691 715.142 794.544C715.107 794.336 715.107 794.122 715.142 793.914C715.106 793.735 715.106 793.551 715.142 793.373V792.832C715.142 792.832 715.142 792.832 715.142 792.291V791.75C715.105 791.542 715.105 791.328 715.142 791.119C715.142 791.119 715.142 790.488 715.142 790.398C715.25 790.158 715.443 789.966 715.683 789.858L737.945 767.235C738.902 766.315 740.178 765.801 741.505 765.801C742.832 765.801 744.108 766.315 745.065 767.235C746.006 768.181 746.535 769.461 746.535 770.795C746.535 772.129 746.006 773.409 745.065 774.355L726.318 793.283L744.524 810.497Z" fill="#00E340"/>
<path d="M764.713 813.021L784.181 766.784C784.4 766.257 784.721 765.779 785.125 765.376C785.528 764.973 786.008 764.654 786.535 764.436C787.062 764.219 787.627 764.107 788.198 764.108C788.768 764.109 789.333 764.222 789.859 764.441C790.386 764.66 790.865 764.98 791.267 765.384C791.67 765.788 791.989 766.267 792.207 766.795C792.425 767.322 792.536 767.887 792.535 768.457C792.535 769.028 792.422 769.592 792.203 770.119L772.735 816.446C772.385 817.228 771.815 817.892 771.095 818.356C770.375 818.82 769.535 819.064 768.679 819.06C768.176 819.186 767.649 819.186 767.146 819.06C766.555 818.869 766.013 818.551 765.558 818.128C765.103 817.705 764.747 817.187 764.515 816.61C764.283 816.034 764.18 815.414 764.214 814.794C764.249 814.173 764.419 813.568 764.713 813.021Z" fill="#00E340"/>
<path d="M830.508 794.364C830.377 794.587 830.19 794.773 829.967 794.904L807.705 817.527C806.719 818.43 805.437 818.943 804.1 818.969C802.787 818.955 801.529 818.439 800.585 817.527C799.644 816.581 799.115 815.301 799.115 813.967C799.115 812.633 799.644 811.353 800.585 810.407L819.332 791.389L800.585 772.462C799.644 771.516 799.115 770.236 799.115 768.902C799.115 767.568 799.644 766.287 800.585 765.342C801.542 764.422 802.818 763.908 804.145 763.908C805.473 763.908 806.748 764.422 807.705 765.342L829.967 787.964C830.208 788.073 830.4 788.265 830.508 788.505C830.69 788.724 830.842 788.967 830.959 789.226C830.922 789.465 830.922 789.708 830.959 789.947V790.488V791.57C830.935 791.809 830.935 792.051 830.959 792.291L830.508 794.364Z" fill="#00E340"/>
<path d="M2257.09 371.021H1646.91V596.978H2257.09V371.021Z" fill="black"/>
<path d="M1734.97 530.823V430.598C1734.97 428.207 1735.92 425.915 1737.61 424.224C1739.3 422.534 1741.59 421.585 1743.98 421.585C1745.21 421.511 1746.44 421.689 1747.59 422.109C1748.75 422.529 1749.81 423.181 1750.7 424.025C1751.6 424.87 1752.31 425.888 1752.8 427.019C1753.29 428.149 1753.53 429.367 1753.53 430.598V471.337H1797.52V430.598C1797.52 428.207 1798.47 425.915 1800.16 424.224C1801.85 422.534 1804.14 421.585 1806.53 421.585C1807.76 421.511 1808.99 421.689 1810.14 422.109C1811.3 422.529 1812.36 423.181 1813.26 424.025C1814.15 424.87 1814.86 425.888 1815.35 427.019C1815.84 428.149 1816.09 429.367 1816.08 430.598V530.823C1816.09 532.053 1815.84 533.271 1815.35 534.401C1814.86 535.532 1814.15 536.55 1813.26 537.395C1812.36 538.239 1811.3 538.891 1810.14 539.311C1808.99 539.731 1807.76 539.909 1806.53 539.836C1804.14 539.836 1801.85 538.886 1800.16 537.196C1798.47 535.505 1797.52 533.213 1797.52 530.823V490.084H1753.53V530.823C1753.53 532.053 1753.29 533.271 1752.8 534.401C1752.31 535.532 1751.6 536.55 1750.7 537.395C1749.81 538.239 1748.75 538.891 1747.59 539.311C1746.44 539.731 1745.21 539.909 1743.98 539.836C1741.59 539.836 1739.3 538.886 1737.61 537.196C1735.92 535.505 1734.97 533.213 1734.97 530.823Z" fill="white"/>
<path d="M1928.03 440.152H1900.99V530.823C1900.99 533.309 1900 535.693 1898.24 537.451C1896.48 539.209 1894.1 540.196 1891.61 540.196C1889.13 540.196 1886.74 539.209 1884.99 537.451C1883.23 535.693 1882.24 533.309 1882.24 530.823V440.152H1855.2C1853.97 440.154 1852.75 439.904 1851.62 439.418C1850.49 438.931 1849.47 438.219 1848.63 437.324C1847.78 436.429 1847.13 435.37 1846.71 434.213C1846.29 433.057 1846.11 431.826 1846.19 430.598C1846.19 428.208 1847.14 425.915 1848.83 424.225C1850.52 422.535 1852.81 421.585 1855.2 421.585H1927.3C1929.7 421.585 1931.99 422.535 1933.68 424.225C1935.37 425.915 1936.32 428.208 1936.32 430.598C1936.34 432.928 1935.51 435.184 1933.98 436.944C1932.45 438.703 1930.34 439.844 1928.03 440.152Z" fill="white"/>
<path d="M2067.64 430.598V530.823C2067.48 533.254 2066.4 535.535 2064.63 537.207C2062.86 538.879 2060.52 539.819 2058.08 539.836C2055.69 539.836 2053.4 538.886 2051.71 537.196C2050.02 535.506 2049.07 533.213 2049.07 530.823V459.35L2024.56 493.329C2023.71 494.548 2022.58 495.54 2021.26 496.216C2019.93 496.892 2018.47 497.232 2016.98 497.204C2015.47 497.215 2013.97 496.87 2012.6 496.197C2011.24 495.524 2010.06 494.542 2009.14 493.329L1984.9 459.35V530.823C1984.9 533.321 1983.91 535.717 1982.14 537.483C1980.37 539.249 1977.98 540.242 1975.48 540.242C1972.98 540.242 1970.59 539.249 1968.82 537.483C1967.05 535.717 1966.06 533.321 1966.06 530.823V430.598C1966.06 428.208 1967.01 425.915 1968.7 424.225C1970.39 422.535 1972.68 421.585 1975.07 421.585H1975.61C1977.08 421.573 1978.53 421.92 1979.84 422.595C1981.14 423.27 1982.26 424.254 1983.1 425.461L2016.89 472.328L2050.69 425.461C2051.55 424.229 2052.69 423.229 2054.03 422.552C2055.37 421.875 2056.86 421.543 2058.35 421.585C2060.74 421.669 2063.02 422.638 2064.73 424.304C2066.45 425.969 2067.48 428.212 2067.64 430.598Z" fill="white"/>
<path d="M2108.74 530.822V430.598C2108.74 428.207 2109.69 425.915 2111.38 424.224C2113.07 422.534 2115.36 421.585 2117.75 421.585C2118.97 421.523 2120.19 421.711 2121.34 422.137C2122.48 422.562 2123.53 423.217 2124.42 424.06C2125.3 424.903 2126.01 425.917 2126.49 427.041C2126.97 428.165 2127.22 429.375 2127.21 430.598V521.269H2173.27C2175.78 521.269 2178.19 522.266 2179.96 524.041C2181.74 525.815 2182.73 528.222 2182.73 530.732C2182.73 533.242 2181.74 535.649 2179.96 537.424C2178.19 539.199 2175.78 540.196 2173.27 540.196H2117.75C2116.54 540.197 2115.33 539.952 2114.22 539.477C2113.1 539.002 2112.09 538.305 2111.25 537.43C2110.4 536.554 2109.75 535.518 2109.32 534.382C2108.89 533.247 2108.69 532.036 2108.74 530.822Z" fill="white"/>
<path d="M626.544 1234.11H123.706V1460.07H626.544V1234.11Z" fill="black"/>
<path d="M273.053 1357.14H252.413V1394C252.413 1396.5 251.421 1398.89 249.654 1400.66C247.888 1402.43 245.492 1403.42 242.994 1403.42C240.496 1403.42 238.101 1402.43 236.334 1400.66C234.568 1398.89 233.576 1396.5 233.576 1394V1293.51C233.576 1291.12 234.525 1288.82 236.216 1287.13C237.906 1285.44 240.198 1284.49 242.589 1284.49H273.053C282.686 1284.49 291.925 1288.32 298.737 1295.13C305.548 1301.94 309.375 1311.18 309.375 1320.82C309.375 1330.45 305.548 1339.69 298.737 1346.5C291.925 1353.31 282.686 1357.14 273.053 1357.14ZM252.413 1338.57H273.053C277.69 1338.57 282.138 1336.73 285.417 1333.45C288.696 1330.17 290.538 1325.72 290.538 1321.09C290.538 1316.45 288.696 1312 285.417 1308.72C282.138 1305.44 277.69 1303.6 273.053 1303.6H252.413V1338.57Z" fill="white"/>
<path d="M332.539 1394V1293.51C332.539 1291.12 333.488 1288.82 335.179 1287.13C336.869 1285.44 339.161 1284.49 341.552 1284.49C343.942 1284.49 346.235 1285.44 347.925 1287.13C349.615 1288.82 350.565 1291.12 350.565 1293.51V1334.24H394.548V1293.51C394.548 1291.12 395.498 1288.82 397.188 1287.13C398.879 1285.44 401.171 1284.49 403.561 1284.49C404.79 1284.42 406.02 1284.6 407.177 1285.02C408.334 1285.44 409.392 1286.09 410.287 1286.93C411.182 1287.78 411.895 1288.8 412.381 1289.93C412.868 1291.06 413.117 1292.28 413.115 1293.51V1393.73C413.117 1394.96 412.868 1396.18 412.381 1397.31C411.895 1398.44 411.182 1399.46 410.287 1400.3C409.392 1401.15 408.334 1401.8 407.177 1402.22C406.02 1402.64 404.79 1402.82 403.561 1402.74C401.171 1402.74 398.879 1401.79 397.188 1400.1C395.498 1398.41 394.548 1396.12 394.548 1393.73V1352.99H351.376V1393.73C351.376 1396.12 350.426 1398.41 348.736 1400.1C347.046 1401.79 344.753 1402.74 342.363 1402.74C341.135 1402.86 339.898 1402.71 338.727 1402.33C337.557 1401.94 336.478 1401.32 335.557 1400.5C334.636 1399.68 333.893 1398.68 333.374 1397.56C332.855 1396.45 332.571 1395.23 332.539 1394Z" fill="white"/>
<path d="M492.7 1357.14H471.79V1394C471.79 1396.5 470.798 1398.89 469.031 1400.66C467.265 1402.43 464.869 1403.42 462.371 1403.42C459.873 1403.42 457.478 1402.43 455.711 1400.66C453.945 1398.89 452.953 1396.5 452.953 1394V1293.51C452.953 1291.12 453.902 1288.82 455.593 1287.13C457.283 1285.44 459.575 1284.49 461.966 1284.49H492.34C501.973 1284.49 511.212 1288.32 518.024 1295.13C524.835 1301.94 528.662 1311.18 528.662 1320.82C528.662 1330.45 524.835 1339.69 518.024 1346.5C511.212 1353.31 501.973 1357.14 492.34 1357.14H492.7ZM471.79 1338.57H492.7C497.338 1338.57 501.785 1336.73 505.064 1333.45C508.343 1330.17 510.186 1325.72 510.186 1321.09C510.186 1316.45 508.343 1312 505.064 1308.72C501.785 1305.44 497.338 1303.6 492.7 1303.6H471.79V1338.57Z" fill="white"/>
<path d="M2108.74 1219.42L2146.86 1311.53L2108.74 1327.3L2070.43 1234.56L2007.43 1283.41V1023.93L2189.13 1207.43L2108.74 1219.42Z" fill="#263238"/>
<path d="M2007.43 996.076C2005.83 991.906 2005.04 987.472 2005.09 983.007C2004.99 978.538 2005.78 974.094 2007.43 969.938C2009.05 974.1 2009.82 978.544 2009.68 983.007C2009.76 987.466 2009 991.901 2007.43 996.076Z" fill="#263238"/>
<path d="M1984.9 1005.09C1980.86 1003.25 1977.19 1000.69 1974.08 997.518C1970.83 994.444 1968.26 990.731 1966.51 986.612C1970.58 988.445 1974.25 991.047 1977.33 994.273C1980.57 997.315 1983.15 1001 1984.9 1005.09Z" fill="#263238"/>
<path d="M1975.61 1027.35C1967.21 1030.47 1957.97 1030.47 1949.57 1027.35C1957.99 1024.35 1967.19 1024.35 1975.61 1027.35Z" fill="#263238"/>
<path d="M1984.9 1050.15C1983.15 1054.24 1980.57 1057.93 1977.33 1060.97C1974.25 1064.2 1970.58 1066.8 1966.51 1068.63C1968.26 1064.51 1970.83 1060.8 1974.08 1057.72C1977.19 1054.56 1980.86 1051.99 1984.9 1050.15Z" fill="#263238"/>
<path d="M2039.61 1027.35C2048.06 1024.35 2057.29 1024.35 2065.74 1027.35C2057.31 1030.48 2048.04 1030.48 2039.61 1027.35Z" fill="#263238"/>
<path d="M2029.87 1005.09C2031.68 1001.03 2034.25 997.362 2037.44 994.273C2040.54 991.025 2044.24 988.421 2048.35 986.612C2044.52 994.623 2037.98 1001.01 2029.87 1004.64V1005.09Z" fill="#263238"/>
<path d="M2691.88 2108.46C2622.39 2411.12 2481.7 2794.27 2373.09 2871.6C2285.48 2933.97 1825.55 3043.75 1799.95 3046.54C1736.41 3052.94 1610.68 2604.45 1676.83 2586.25C1759.84 2563.26 2153.89 2551 2176.34 2528.02C2198.78 2505.04 2342.99 2309.73 2505.4 2084.67C2617.34 1929.2 2734.96 1920.72 2691.88 2108.46Z" fill="#DD6A57"/>
<path d="M1850.78 3021.94C1843.21 3025.72 1735.87 3079.71 1669.44 3099C1619.96 3113.33 1476.2 3150.82 1455.02 3097.92C1440.51 3061.86 1522.35 3029.78 1579.76 3005.8C1610.05 2993.27 1647.36 2961.55 1638.44 2942.17C1622.84 2908.1 1544.97 2942.17 1493.78 2972C1394.63 3029.6 1262.77 3133.16 1202.3 3082.86C1179.49 3063.94 1205.99 3029.33 1244.84 2995.44C1181.75 3034.91 1114.6 3067.54 1088.37 3047.26C1073.41 3035.82 1072.69 3020.22 1081.07 3002.2C1061.6 3008.51 1044.39 3007.24 1032.4 2994.63C1011.94 2973.17 1021.86 2941.54 1044.3 2909.09C1040.45 2908.66 1036.77 2907.33 1033.54 2905.2C1030.31 2903.07 1027.63 2900.2 1025.73 2896.83C982.288 2830.68 1199.41 2640.77 1274.58 2623.02C1495.49 2570.47 1730.46 2589.67 1730.46 2589.67C1817.26 2658.98 1850.96 3021.75 1850.78 3021.94Z" fill="#DD6A57"/>
<path d="M1525.86 2818.51C1473.27 2826.7 1423.03 2846.03 1378.5 2875.2C1322.44 2912.25 1285.31 2955.51 1238.35 2999.04C1238.18 2999.29 1238.09 2999.58 1238.11 2999.88C1238.12 3000.18 1238.24 3000.47 1238.43 3000.7C1238.63 3000.93 1238.9 3001.08 1239.19 3001.14C1239.49 3001.2 1239.79 3001.16 1240.06 3001.02C1262.41 2980.29 1355.25 2902.42 1379.22 2884.76C1422.5 2852.11 1472.65 2829.77 1525.86 2819.41C1526.68 2819.32 1526.5 2818.42 1525.86 2818.51Z" fill="#263238"/>
<path d="M1484.77 2724.77C1426.72 2740.64 1367.6 2756.68 1313.52 2784.17C1254.48 2814.18 1208.34 2863.22 1163 2910.35C1135.72 2938.65 1109.1 2967.59 1083.14 2997.15C1082.06 2998.32 1083.69 3000.3 1084.86 2999.04C1130.88 2950.37 1178.38 2903.08 1227.35 2857.18C1272.49 2814.35 1325.63 2780.84 1383.73 2758.57C1416.99 2745.96 1451.06 2735.86 1485.13 2725.77C1485.58 2725.59 1485.4 2724.59 1484.77 2724.77Z" fill="#263238"/>
<path d="M1422.76 2642.76C1366.33 2654.38 1317.12 2664.3 1267.1 2694.49C1201.03 2734.51 1137.13 2801.93 1114.78 2825.9C1089.99 2852.31 1066.2 2879.98 1042.68 2907.02C1041.68 2908.1 1043.67 2909.81 1044.66 2908.64C1098.3 2848.2 1155.77 2791.27 1216.72 2738.2C1245.4 2712.53 1277.87 2691.43 1312.98 2675.65C1348.56 2661.66 1385.29 2650.77 1422.76 2643.12C1422.76 2643.12 1422.94 2642.76 1422.76 2642.76Z" fill="#263238"/>
<path d="M2179.67 2483.86L2603.28 2465.83C2603.28 2465.83 2680.25 2255.74 2708.55 2069.26C2736.86 1882.78 2577.96 1949.65 2420.68 2150.37C2263.4 2351.1 2179.67 2483.86 2179.67 2483.86Z" fill="#00E340"/>
<path d="M2318.38 2357.04C2321.27 2356.23 2324.15 2355.96 2327.39 2355.33C2329.9 2354.78 2332.51 2354.8 2335.01 2355.38C2337.51 2355.97 2339.85 2357.11 2341.86 2358.71C2343.86 2360.32 2345.48 2362.36 2346.6 2364.67C2347.71 2366.99 2348.3 2369.52 2348.3 2372.1C2348.25 2374.4 2348.8 2376.69 2349.89 2378.72C2350.98 2380.76 2352.57 2382.48 2354.52 2383.72C2356.66 2385.11 2359.11 2385.94 2361.64 2386.16C2364.53 2386.7 2367.41 2387.06 2370.66 2387.87C2367.77 2388.68 2364.89 2389.04 2361.64 2389.67C2358.4 2390.32 2355.04 2389.97 2352 2388.68C2348.8 2387.28 2346.08 2384.99 2344.16 2382.08C2342.24 2379.17 2341.21 2375.76 2341.18 2372.28C2341.16 2369.99 2340.54 2367.75 2339.39 2365.77C2338.23 2363.79 2336.59 2362.15 2334.6 2361.01C2332.41 2359.72 2329.94 2358.97 2327.39 2358.85C2324.15 2358.31 2321.27 2357.94 2318.38 2357.04ZM2616.44 2099.63C2619.01 2099.82 2621.51 2100.59 2623.74 2101.88C2625.71 2103.04 2627.35 2104.69 2628.5 2106.66C2629.66 2108.63 2630.28 2110.87 2630.32 2113.15C2630.34 2116.64 2631.38 2120.04 2633.3 2122.96C2635.22 2125.87 2637.94 2128.16 2641.14 2129.55C2644.19 2130.82 2647.55 2131.14 2650.78 2130.46C2653.67 2129.91 2656.55 2129.55 2659.79 2128.74C2656.91 2127.93 2654.03 2127.57 2650.78 2127.03C2648.24 2126.83 2645.79 2125.99 2643.66 2124.6C2641.73 2123.34 2640.15 2121.61 2639.06 2119.58C2637.97 2117.55 2637.42 2115.28 2637.44 2112.97C2637.32 2109.47 2636.18 2106.08 2634.17 2103.21C2632.15 2100.35 2629.34 2098.13 2626.09 2096.84C2622.99 2095.75 2619.65 2095.53 2616.44 2096.21C2613.56 2096.75 2610.67 2097.11 2607.88 2097.92C2610.76 2098.73 2613.65 2099.09 2616.44 2099.63ZM2627.26 2264.84C2625.31 2266.53 2623 2267.73 2620.5 2268.36C2618.31 2268.95 2616 2268.96 2613.8 2268.39C2611.61 2267.82 2609.6 2266.69 2607.97 2265.11C2605.5 2262.63 2602.35 2260.93 2598.93 2260.21C2595.5 2259.49 2591.94 2259.79 2588.68 2261.05C2585.64 2262.36 2583.04 2264.52 2581.2 2267.27C2579.58 2269.71 2577.78 2271.96 2576.33 2274.57C2578.95 2273.13 2581.2 2271.33 2583.63 2269.71C2585.61 2268.1 2587.92 2266.96 2590.39 2266.37C2592.65 2265.89 2595 2266 2597.2 2266.68C2599.41 2267.36 2601.41 2268.58 2603.01 2270.25C2604.85 2272.12 2607.08 2273.55 2609.55 2274.43C2612.02 2275.3 2614.65 2275.61 2617.25 2275.33C2619.86 2275.04 2622.36 2274.17 2624.58 2272.77C2626.8 2271.38 2628.67 2269.5 2630.05 2267.27C2631.67 2264.84 2633.48 2262.5 2634.92 2259.88C2632.03 2261.42 2629.78 2263.22 2627.35 2264.84H2627.26ZM2512.07 2072.14C2510.1 2073.81 2507.8 2075.04 2505.31 2075.75C2503.1 2076.3 2500.78 2076.29 2498.57 2075.7C2496.37 2075.12 2494.34 2073.99 2492.69 2072.41L2490.44 2070.43C2488.73 2072.14 2487.1 2073.85 2485.48 2075.66C2486.34 2076.18 2487.13 2076.82 2487.83 2077.55C2490.38 2079.95 2493.59 2081.56 2497.05 2082.17C2500.51 2082.78 2504.07 2082.36 2507.29 2080.97C2510.26 2079.57 2512.76 2077.35 2514.5 2074.57C2516.13 2072.14 2517.93 2069.89 2519.37 2067.27C2517.3 2068.63 2514.59 2070.52 2512.16 2072.14H2512.07ZM2464.21 2230.86C2464.04 2233.42 2463.3 2235.92 2462.05 2238.16C2460.88 2240.12 2459.23 2241.75 2457.26 2242.9C2455.29 2244.05 2453.06 2244.68 2450.78 2244.74C2447.28 2244.75 2443.85 2245.77 2440.92 2247.69C2438 2249.61 2435.69 2252.35 2434.29 2255.56C2433.07 2258.59 2432.76 2261.91 2433.39 2265.11C2434.02 2267.99 2434.29 2270.88 2435.1 2274.12C2435.91 2271.24 2436.27 2268.36 2436.9 2265.11C2437.14 2262.59 2437.95 2260.16 2439.25 2257.99C2440.51 2256.07 2442.24 2254.5 2444.27 2253.43C2446.3 2252.36 2448.57 2251.82 2450.87 2251.86C2454.39 2251.76 2457.8 2250.63 2460.68 2248.61C2463.57 2246.59 2465.8 2243.77 2467.1 2240.5C2468.14 2237.4 2468.36 2234.08 2467.73 2230.86C2467.1 2227.98 2466.74 2225.09 2465.92 2221.85C2465.11 2225.09 2464.84 2227.98 2464.21 2230.86ZM2585.53 2392.28C2585.4 2394.86 2584.65 2397.36 2583.36 2399.58C2582.21 2401.55 2580.56 2403.19 2578.59 2404.35C2576.62 2405.5 2574.38 2406.12 2572.1 2406.16C2568.62 2406.18 2565.22 2407.2 2562.31 2409.1C2559.4 2411.01 2557.1 2413.71 2555.69 2416.89C2554.41 2419.93 2554.06 2423.29 2554.7 2426.53C2555.33 2429.42 2555.69 2432.3 2556.51 2435.55C2557.32 2432.66 2557.68 2429.78 2558.22 2426.53C2558.45 2424 2559.28 2421.56 2560.65 2419.41C2561.9 2417.48 2563.63 2415.9 2565.66 2414.83C2567.7 2413.76 2569.98 2413.22 2572.28 2413.28C2575.78 2413.16 2579.17 2412.03 2582.04 2410.01C2584.9 2407.99 2587.12 2405.18 2588.41 2401.93C2589.5 2398.83 2589.71 2395.5 2589.04 2392.28C2588.5 2389.4 2588.14 2386.52 2587.33 2383.27C2586.52 2386.52 2586.16 2389.4 2585.53 2392.28Z" fill="#181818"/>
<path d="M2617.97 2373.9C2526.31 2371.56 2434.38 2375.61 2342.72 2381.47C2316.76 2383.21 2290.86 2385.5 2265.02 2388.32C2264.3 2388.32 2264.21 2389.49 2265.02 2389.49C2310.81 2389.49 2356.6 2387.96 2402.38 2386.61C2448.17 2385.26 2494.32 2383.36 2540.19 2380.75C2566.15 2379.22 2592.02 2377.68 2617.88 2375.61C2619.06 2375.52 2619.15 2373.9 2617.97 2373.9Z" fill="#263238"/>
<path d="M2298.55 3161.28H3380.12C3392.01 3139.47 3214.64 2191.74 2849.79 1924.87C2768.67 1865.74 2625.27 1903.78 2585.35 1961.37C2384.9 2250.69 2298.55 3161.28 2298.55 3161.28Z" fill="#00E340"/>
<path d="M2757.41 2357.04C2760.29 2356.23 2763.17 2355.96 2766.42 2355.33C2768.93 2354.78 2771.53 2354.8 2774.03 2355.38C2776.54 2355.97 2778.88 2357.11 2780.88 2358.71C2782.89 2360.32 2784.51 2362.36 2785.62 2364.67C2786.74 2366.99 2787.32 2369.53 2787.33 2372.1C2787.28 2374.4 2787.82 2376.69 2788.91 2378.72C2790 2380.76 2791.6 2382.48 2793.55 2383.72C2795.69 2385.09 2798.13 2385.92 2800.67 2386.16C2803.55 2386.7 2806.44 2387.06 2809.68 2387.87C2806.8 2388.68 2803.91 2389.04 2800.67 2389.67C2797.43 2390.31 2794.07 2389.97 2791.02 2388.68C2787.83 2387.28 2785.1 2384.99 2783.18 2382.08C2781.27 2379.17 2780.23 2375.76 2780.21 2372.28C2780.19 2369.99 2779.57 2367.75 2778.41 2365.77C2777.26 2363.79 2775.61 2362.15 2773.63 2361.01C2771.44 2359.71 2768.96 2358.96 2766.42 2358.85C2763.17 2358.31 2760.65 2357.95 2757.41 2357.04ZM2925.5 2929.1C2928.04 2929.29 2930.51 2930.06 2932.71 2931.35C2934.68 2932.48 2936.33 2934.11 2937.48 2936.07C2938.64 2938.03 2939.26 2940.26 2939.29 2942.53C2939.29 2946.03 2940.32 2949.46 2942.24 2952.39C2944.16 2955.32 2946.89 2957.62 2950.1 2959.02C2953.16 2960.25 2956.51 2960.56 2959.75 2959.93C2962.63 2959.38 2965.52 2959.02 2968.76 2958.21C2965.88 2957.4 2962.99 2957.04 2959.75 2956.41C2957.21 2956.25 2954.76 2955.44 2952.63 2954.07C2950.7 2952.81 2949.11 2951.08 2948.03 2949.05C2946.94 2947.02 2946.38 2944.75 2946.41 2942.44C2946.36 2938.92 2945.25 2935.5 2943.22 2932.62C2941.2 2929.74 2938.35 2927.54 2935.05 2926.31C2932 2925.17 2928.68 2924.95 2925.5 2925.68C2922.61 2926.22 2919.73 2926.58 2916.49 2927.39C2919.73 2928.29 2922.88 2928.65 2925.5 2929.19V2929.1ZM3123.79 2389.67C3126.33 2389.8 3128.8 2390.54 3131 2391.83C3132.98 2392.98 3134.63 2394.62 3135.78 2396.59C3136.93 2398.57 3137.55 2400.81 3137.58 2403.1C3137.6 2406.59 3138.63 2409.99 3140.55 2412.91C3142.47 2415.82 3145.19 2418.11 3148.39 2419.5C3151.43 2420.8 3154.79 2421.14 3158.03 2420.5C3160.92 2419.86 3163.8 2419.5 3167.05 2418.69C3164.16 2417.88 3161.28 2417.52 3158.03 2416.98C3155.5 2416.77 3153.05 2415.93 3150.91 2414.55C3148.97 2413.31 3147.37 2411.59 3146.28 2409.55C3145.19 2407.51 3144.64 2405.23 3144.7 2402.92C3144.69 2400.35 3144.11 2397.81 3142.99 2395.5C3141.87 2393.18 3140.25 2391.15 3138.25 2389.54C3136.24 2387.93 3133.9 2386.79 3131.4 2386.21C3128.9 2385.62 3126.3 2385.6 3123.79 2386.16C3120.9 2386.79 3118.02 2387.06 3114.77 2387.87C3118.2 2388.77 3121.17 2389.13 3123.97 2389.76L3123.79 2389.67ZM2616.44 2099.63C2619.01 2099.82 2621.51 2100.59 2623.74 2101.88C2625.71 2103.04 2627.35 2104.69 2628.5 2106.66C2629.66 2108.63 2630.28 2110.87 2630.32 2113.15C2630.34 2116.64 2631.38 2120.04 2633.3 2122.96C2635.22 2125.87 2637.94 2128.16 2641.14 2129.55C2644.19 2130.82 2647.55 2131.14 2650.78 2130.46C2653.67 2129.92 2656.55 2129.55 2659.79 2128.74C2656.91 2127.93 2654.03 2127.57 2650.78 2127.03C2648.24 2126.83 2645.79 2125.99 2643.66 2124.6C2641.73 2123.34 2640.15 2121.61 2639.06 2119.58C2637.97 2117.55 2637.42 2115.28 2637.44 2112.97C2637.32 2109.47 2636.18 2106.08 2634.17 2103.21C2632.15 2100.35 2629.34 2098.13 2626.09 2096.84C2622.99 2095.75 2619.65 2095.54 2616.44 2096.21C2613.56 2096.75 2610.67 2097.11 2607.88 2097.92C2610.76 2098.73 2613.65 2099.09 2616.44 2099.63ZM2928.74 2093.14C2931.31 2093.32 2933.8 2094.05 2936.04 2095.31C2938 2096.48 2939.63 2098.12 2940.78 2100.09C2941.93 2102.06 2942.57 2104.29 2942.62 2106.57C2942.63 2110.07 2943.65 2113.5 2945.58 2116.43C2947.5 2119.36 2950.23 2121.66 2953.44 2123.07C2956.5 2124.29 2959.85 2124.6 2963.08 2123.97C2965.88 2123.34 2968.76 2122.98 2971.65 2122.25C2968.76 2121.44 2965.88 2121.08 2963.08 2120.45C2960.53 2120.22 2958.07 2119.42 2955.87 2118.11C2953.95 2116.85 2952.38 2115.12 2951.31 2113.08C2950.24 2111.05 2949.7 2108.78 2949.74 2106.48C2949.64 2102.96 2948.51 2099.55 2946.49 2096.67C2944.47 2093.79 2941.66 2091.56 2938.39 2090.26C2935.29 2089.17 2931.96 2088.96 2928.74 2089.63C2925.86 2090.26 2922.97 2090.62 2919.73 2091.43C2922.88 2092.15 2925.95 2092.51 2928.83 2093.14H2928.74ZM2539.83 2597.87C2542.39 2598.05 2544.89 2598.78 2547.13 2600.04C2549.08 2601.21 2550.7 2602.86 2551.83 2604.83C2552.97 2606.8 2553.58 2609.03 2553.62 2611.3C2553.63 2614.8 2554.65 2618.23 2556.57 2621.16C2558.49 2624.09 2561.23 2626.39 2564.44 2627.8C2567.5 2629.02 2570.85 2629.33 2574.08 2628.7C2576.96 2628.16 2579.85 2627.8 2583.09 2626.98C2580.21 2626.17 2577.32 2625.81 2574.08 2625.18C2571.55 2624.98 2569.11 2624.18 2566.96 2622.84C2565.03 2621.58 2563.45 2619.85 2562.36 2617.82C2561.27 2615.79 2560.72 2613.52 2560.74 2611.21C2560.7 2607.69 2559.6 2604.26 2557.57 2601.38C2555.54 2598.5 2552.69 2596.3 2549.38 2595.08C2546.33 2593.94 2543.01 2593.72 2539.83 2594.45C2536.95 2594.99 2534.06 2595.35 2530.82 2596.16C2534.15 2596.61 2537.04 2596.97 2539.92 2597.51L2539.83 2597.87ZM2880.34 3120.63C2882.91 3120.79 2885.4 3121.53 2887.64 3122.79C2889.6 3123.96 2891.23 3125.61 2892.38 3127.58C2893.53 3129.55 2894.17 3131.78 2894.22 3134.06C2894.28 3137.48 2895.31 3140.81 2897.2 3143.67C2899.08 3146.53 2901.74 3148.79 2904.86 3150.19C2907.92 3151.41 2911.27 3151.73 2914.5 3151.09C2917.39 3150.46 2920.27 3150.1 2923.52 3149.29C2920.63 3148.48 2917.75 3148.21 2914.5 3147.58C2911.96 3147.38 2909.51 3146.54 2907.38 3145.14C2905.45 3143.91 2903.86 3142.2 2902.77 3140.19C2901.68 3138.17 2901.13 3135.9 2901.16 3133.61C2901.16 3131.02 2900.57 3128.48 2899.45 3126.15C2898.33 3123.82 2896.7 3121.78 2894.69 3120.16C2892.68 3118.55 2890.33 3117.4 2887.81 3116.81C2885.3 3116.22 2882.69 3116.2 2880.16 3116.75C2877.28 3117.38 2874.48 3117.74 2871.15 3118.55C2874.76 3119.1 2877.82 3119.46 2880.43 3120.09L2880.34 3120.63ZM2712.7 2839.87C2715.27 2840 2717.77 2840.75 2720 2842.04C2721.97 2843.18 2723.61 2844.83 2724.75 2846.8C2725.88 2848.78 2726.49 2851.02 2726.49 2853.3C2726.51 2856.79 2727.55 2860.19 2729.47 2863.11C2731.39 2866.02 2734.11 2868.31 2737.31 2869.71C2740.35 2870.99 2743.71 2871.34 2746.95 2870.7C2749.83 2870.07 2752.72 2869.71 2755.96 2868.89C2753.08 2868.08 2750.19 2867.72 2746.95 2867.18C2744.42 2866.95 2741.98 2866.12 2739.83 2864.75C2737.81 2863.5 2736.16 2861.72 2735.07 2859.61C2733.97 2857.5 2733.47 2855.13 2733.61 2852.76C2733.59 2850.19 2732.99 2847.65 2731.87 2845.33C2730.74 2843.02 2729.11 2840.98 2727.1 2839.38C2725.09 2837.77 2722.75 2836.63 2720.24 2836.05C2717.73 2835.46 2715.13 2835.45 2712.61 2836C2709.73 2836.54 2706.84 2836.9 2703.6 2837.71C2707.02 2838.34 2709.91 2838.7 2712.79 2839.33L2712.7 2839.87ZM2328.75 3127.66C2326.21 3127.43 2323.77 3126.59 2321.63 3125.22C2319.67 3123.99 2318.08 3122.27 2317.01 3120.23C2315.93 3118.19 2315.41 3115.9 2315.5 3113.6C2315.37 3110.31 2314.35 3107.12 2312.54 3104.37C2310.72 3101.62 2308.19 3099.42 2305.22 3098.01C2305.22 3100.35 2304.68 3102.51 2304.5 3104.68C2305.71 3105.84 2306.67 3107.24 2307.32 3108.79C2307.97 3110.34 2308.3 3112.01 2308.29 3113.69C2308.31 3117.18 2309.34 3120.58 2311.26 3123.49C2313.18 3126.4 2315.91 3128.7 2319.1 3130.09C2322.14 3131.38 2325.5 3131.73 2328.75 3131.08C2331.63 3130.45 2334.51 3130.09 2337.76 3129.28C2334.6 3128.02 2331.72 3127.66 2328.84 3127.12L2328.75 3127.66ZM2402.47 2890.89C2405.04 2891.02 2407.55 2891.76 2409.77 2893.05C2411.74 2894.21 2413.38 2895.85 2414.53 2897.82C2415.69 2899.8 2416.31 2902.03 2416.35 2904.32C2416.37 2907.8 2417.41 2911.21 2419.33 2914.12C2421.25 2917.03 2423.97 2919.32 2427.17 2920.72C2430.21 2922.01 2433.57 2922.36 2436.81 2921.71C2439.7 2921.08 2442.49 2920.72 2445.37 2919.91C2442.49 2919.1 2439.7 2918.74 2436.81 2918.2C2434.27 2918 2431.82 2917.16 2429.69 2915.76C2427.73 2914.54 2426.12 2912.82 2425.03 2910.78C2423.94 2908.74 2423.4 2906.45 2423.47 2904.14C2423.35 2900.63 2422.21 2897.24 2420.2 2894.38C2418.18 2891.51 2415.37 2889.3 2412.12 2888C2409.02 2886.92 2405.68 2886.7 2402.47 2887.37C2399.59 2888 2396.7 2888.27 2393.46 2889.08C2396.79 2889.35 2400.13 2889.71 2402.56 2890.35L2402.47 2890.89ZM2855.47 2604.9C2858.04 2605.1 2860.53 2605.87 2862.77 2607.16C2864.74 2608.31 2866.38 2609.96 2867.53 2611.93C2868.68 2613.9 2869.31 2616.14 2869.35 2618.42C2869.37 2621.91 2870.4 2625.32 2872.32 2628.23C2874.24 2631.14 2876.97 2633.43 2880.16 2634.83C2883.18 2636.09 2886.51 2636.4 2889.72 2635.73C2892.6 2635.19 2895.49 2634.83 2898.73 2634.01C2895.85 2633.2 2892.96 2632.84 2889.72 2632.3C2887.18 2632.07 2884.74 2631.24 2882.6 2629.87C2880.68 2628.61 2879.11 2626.88 2878.04 2624.84C2876.96 2622.81 2876.42 2620.54 2876.47 2618.24C2876.35 2614.74 2875.21 2611.35 2873.19 2608.48C2871.18 2605.62 2868.37 2603.4 2865.11 2602.11C2862.01 2601.02 2858.68 2600.81 2855.47 2601.48C2852.58 2602.02 2849.7 2602.38 2846.45 2603.19C2849.79 2603.46 2852.67 2603.82 2855.56 2604.36L2855.47 2604.9ZM3252.04 2989.4C3254.58 2989.57 3257.04 2990.31 3259.25 2991.56C3261.22 2992.72 3262.86 2994.36 3264.01 2996.34C3265.16 2998.31 3265.79 3000.54 3265.83 3002.83C3265.84 3006.33 3266.86 3009.76 3268.78 3012.69C3270.7 3015.61 3273.44 3017.92 3276.65 3019.32C3279.71 3020.54 3283.06 3020.86 3286.29 3020.22C3289.17 3019.59 3292.06 3019.23 3295.3 3018.42C3292.42 3017.61 3289.53 3017.34 3286.29 3016.71C3283.75 3016.49 3281.31 3015.66 3279.17 3014.27C3277.23 3013.04 3275.65 3011.34 3274.56 3009.32C3273.47 3007.3 3272.92 3005.03 3272.95 3002.74C3272.96 3000.16 3272.38 2997.61 3271.27 2995.29C3270.16 2992.96 3268.55 2990.91 3266.54 2989.29C3264.53 2987.68 3262.19 2986.53 3259.68 2985.94C3257.17 2985.35 3254.56 2985.33 3252.04 2985.88C3249.16 2986.51 3246.27 2986.87 3243.03 2987.69C3246.54 2987.96 3249.43 2987.96 3252.31 2988.86L3252.04 2989.4ZM3094.49 2755.06C3097.06 2755.22 3099.55 2755.96 3101.79 2757.22C3103.75 2758.39 3105.38 2760.04 3106.53 2762.01C3107.68 2763.98 3108.32 2766.21 3108.37 2768.49C3108.38 2771.99 3109.4 2775.42 3111.32 2778.35C3113.25 2781.28 3115.98 2783.58 3119.19 2784.98C3122.25 2786.2 3125.6 2786.52 3128.83 2785.88C3131.72 2785.25 3134.6 2784.98 3137.85 2784.17C3134.96 2783.36 3132.08 2783 3128.83 2782.37C3126.3 2782.2 3123.85 2781.39 3121.71 2780.03C3119.78 2778.77 3118.2 2777.04 3117.11 2775.01C3116.02 2772.98 3115.47 2770.7 3115.49 2768.4C3115.37 2764.9 3114.23 2761.51 3112.22 2758.64C3110.2 2755.78 3107.39 2753.56 3104.14 2752.27C3101.05 2751.15 3097.71 2750.9 3094.49 2751.54C3091.61 2752.18 3088.81 2752.54 3085.93 2753.35C3089.08 2753.62 3091.88 2753.62 3094.76 2754.16L3094.49 2755.06ZM2627.08 2265.74C2625.13 2267.43 2622.82 2268.64 2620.32 2269.26C2618.13 2269.85 2615.82 2269.86 2613.62 2269.29C2611.43 2268.73 2609.42 2267.59 2607.79 2266.01C2605.31 2263.54 2602.17 2261.83 2598.75 2261.11C2595.32 2260.39 2591.76 2260.69 2588.5 2261.96C2585.46 2263.26 2582.86 2265.42 2581.02 2268.18C2579.4 2270.61 2577.6 2272.86 2576.15 2275.48C2578.77 2274.03 2581.02 2272.23 2583.45 2270.61C2585.43 2269 2587.74 2267.86 2590.21 2267.27C2592.47 2266.8 2594.82 2266.9 2597.02 2267.58C2599.23 2268.26 2601.23 2269.49 2602.83 2271.15C2604.67 2273.02 2606.9 2274.45 2609.37 2275.33C2611.84 2276.21 2614.47 2276.51 2617.07 2276.23C2619.68 2275.94 2622.18 2275.07 2624.4 2273.67C2626.62 2272.28 2628.49 2270.4 2629.87 2268.18C2631.49 2265.74 2633.3 2263.4 2634.74 2260.78C2632.03 2261.42 2629.78 2263.22 2627.35 2264.84L2627.08 2265.74ZM3093.41 2600.4C3091.49 2602.09 3089.21 2603.32 3086.74 2604C3084.53 2604.56 3082.21 2604.54 3080 2603.96C3077.8 2603.37 3075.77 2602.24 3074.12 2600.67C3071.65 2598.22 3068.52 2596.55 3065.11 2595.85C3061.7 2595.14 3058.17 2595.44 3054.93 2596.7C3051.89 2597.97 3049.29 2600.1 3047.44 2602.83C3045.82 2605.26 3044.02 2607.52 3042.58 2610.13C3045.19 2608.69 3047.44 2606.89 3049.88 2605.26C3051.84 2603.64 3054.16 2602.5 3056.64 2601.93C3058.88 2601.45 3061.21 2601.55 3063.41 2602.23C3065.6 2602.91 3067.58 2604.14 3069.17 2605.8C3071.01 2607.66 3073.25 2609.07 3075.71 2609.94C3078.18 2610.81 3080.8 2611.11 3083.4 2610.83C3086 2610.54 3088.5 2609.67 3090.72 2608.29C3092.93 2606.91 3094.81 2605.04 3096.21 2602.83C3097.83 2600.4 3099.63 2598.14 3101.07 2595.53C3098.19 2596.79 3095.93 2598.59 3093.41 2600.4ZM2802.56 1975.88C2800.64 1977.58 2798.36 1978.81 2795.89 1979.49C2793.68 1980.09 2791.35 1980.09 2789.14 1979.51C2786.92 1978.92 2784.9 1977.77 2783.27 1976.15C2780.79 1973.69 2777.64 1972.01 2774.22 1971.3C2770.79 1970.6 2767.24 1970.91 2763.98 1972.19C2760.95 1973.46 2758.35 1975.59 2756.5 1978.32C2754.88 1980.84 2753.08 1983.09 2751.64 1985.71C2754.25 1984.26 2756.59 1982.46 2759.03 1980.84C2760.96 1979.22 2763.24 1978.08 2765.7 1977.51C2767.95 1977.02 2770.29 1977.12 2772.49 1977.78C2774.7 1978.44 2776.7 1979.65 2778.32 1981.29C2780.14 1983.18 2782.36 1984.63 2784.83 1985.53C2787.29 1986.42 2789.93 1986.74 2792.54 1986.47C2795.15 1986.19 2797.66 1985.32 2799.88 1983.92C2802.1 1982.52 2803.97 1980.64 2805.35 1978.41C2806.98 1975.88 2808.78 1973.63 2810.22 1971.02C2807.34 1972.37 2804.99 1974.08 2802.56 1975.7V1975.88ZM2796.7 2160.74C2796.5 2163.28 2795.73 2165.75 2794.45 2167.95C2793.31 2169.93 2791.66 2171.58 2789.69 2172.73C2787.71 2173.89 2785.47 2174.51 2783.18 2174.53C2779.7 2174.55 2776.29 2175.59 2773.38 2177.51C2770.47 2179.43 2768.17 2182.15 2766.78 2185.35C2765.53 2188.4 2765.18 2191.75 2765.79 2194.99C2766.42 2197.87 2766.78 2200.76 2767.59 2204C2768.4 2201.12 2768.76 2198.23 2769.3 2194.99C2769.52 2192.45 2770.35 2190.01 2771.74 2187.87C2772.99 2185.94 2774.72 2184.36 2776.75 2183.27C2778.78 2182.18 2781.06 2181.63 2783.36 2181.65C2785.93 2181.64 2788.47 2181.06 2790.78 2179.94C2793.1 2178.83 2795.14 2177.21 2796.74 2175.2C2798.35 2173.2 2799.49 2170.86 2800.08 2168.36C2800.66 2165.85 2800.68 2163.25 2800.13 2160.74C2799.59 2157.86 2799.23 2154.97 2798.41 2151.73C2797.78 2154.97 2797.42 2157.86 2796.7 2160.74ZM2728.02 2667.45C2727.83 2670.03 2727.06 2672.52 2725.77 2674.75C2724.61 2676.72 2722.97 2678.36 2721 2679.51C2719.02 2680.67 2716.79 2681.29 2714.5 2681.33C2711.02 2681.36 2707.61 2682.39 2704.7 2684.31C2701.79 2686.23 2699.49 2688.95 2698.1 2692.15C2696.88 2695.21 2696.56 2698.56 2697.2 2701.79C2697.74 2704.68 2698.1 2707.56 2698.91 2710.81C2699.72 2707.92 2700.08 2705.04 2700.71 2701.79C2700.84 2699.25 2701.65 2696.79 2703.06 2694.67C2704.31 2692.74 2706.04 2691.16 2708.07 2690.07C2710.11 2688.98 2712.38 2688.43 2714.68 2688.45C2718.19 2688.33 2721.58 2687.19 2724.44 2685.18C2727.31 2683.16 2729.52 2680.35 2730.82 2677.1C2731.95 2674.01 2732.17 2670.66 2731.45 2667.45C2730.91 2664.66 2730.55 2661.77 2729.74 2658.89C2729.1 2661.77 2728.74 2664.66 2728.2 2667.45H2728.02ZM3087.64 2225.81H3086.2C3082.7 2225.82 3079.27 2226.85 3076.34 2228.77C3073.41 2230.69 3071.11 2233.42 3069.71 2236.63C3068.48 2239.69 3068.17 2243.04 3068.81 2246.27C3069.35 2249.16 3069.71 2252.04 3070.52 2255.29C3071.33 2252.4 3071.69 2249.52 3072.32 2246.27C3072.51 2243.74 3073.31 2241.3 3074.66 2239.15C3075.92 2237.22 3077.65 2235.64 3079.68 2234.55C3081.71 2233.47 3083.99 2232.91 3086.29 2232.93C3087.89 2232.94 3089.47 2232.66 3090.98 2232.12L3087.64 2225.81ZM3085.12 3044.56C3084.99 3047.13 3084.25 3049.63 3082.96 3051.86C3081.8 3053.83 3080.16 3055.47 3078.18 3056.62C3076.21 3057.77 3073.97 3058.4 3071.69 3058.44C3068.2 3058.46 3064.8 3059.49 3061.88 3061.41C3058.97 3063.33 3056.68 3066.06 3055.29 3069.25C3054.03 3072.31 3053.69 3075.65 3054.29 3078.9C3054.93 3081.78 3055.29 3084.67 3056.1 3087.91C3056.91 3085.12 3057.27 3082.23 3057.81 3078.9C3058.01 3076.36 3058.85 3073.91 3060.24 3071.78C3061.47 3069.82 3063.19 3068.21 3065.23 3067.12C3067.27 3066.03 3069.56 3065.49 3071.87 3065.56C3075.37 3065.44 3078.76 3064.3 3081.63 3062.28C3084.49 3060.27 3086.71 3057.46 3088 3054.2C3089.09 3051.1 3089.31 3047.77 3088.63 3044.56C3088.09 3041.67 3087.73 3038.79 3086.92 3035.54C3086.29 3038.79 3085.93 3042.03 3085.12 3044.56ZM3239.87 2584.89C3239.91 2585.13 3239.91 2585.37 3239.87 2585.61C3238.73 2587.6 3237.09 2589.24 3235.11 2590.4C3233.14 2591.55 3230.89 2592.17 3228.61 2592.19C3225.12 2592.22 3221.71 2593.25 3218.8 2595.17C3215.89 2597.09 3213.6 2599.81 3212.2 2603.01C3210.91 2606.05 3210.57 2609.41 3211.21 2612.65C3211.84 2615.54 3212.2 2618.42 3213.01 2621.67C3213.83 2618.78 3214.19 2615.9 3214.73 2612.65C3214.96 2610.12 3215.79 2607.68 3217.16 2605.53C3218.4 2603.58 3220.12 2601.99 3222.16 2600.9C3224.19 2599.81 3226.48 2599.26 3228.79 2599.31C3231.49 2599.24 3234.13 2598.57 3236.54 2597.33C3238.94 2596.1 3241.03 2594.34 3242.67 2592.19L3239.87 2584.89ZM2448.8 2685.66C2448.64 2688.2 2447.9 2690.66 2446.64 2692.87C2445.48 2694.84 2443.83 2696.48 2441.86 2697.63C2439.89 2698.78 2437.65 2699.41 2435.37 2699.45C2431.87 2699.45 2428.44 2700.48 2425.51 2702.4C2422.58 2704.32 2420.28 2707.05 2418.88 2710.26C2417.65 2713.33 2417.34 2716.67 2417.97 2719.91C2418.61 2722.79 2418.88 2725.68 2419.69 2728.92C2420.5 2726.04 2420.86 2723.15 2421.49 2719.91C2421.72 2717.39 2422.52 2714.95 2423.83 2712.79C2425.09 2710.86 2426.82 2709.27 2428.85 2708.19C2430.88 2707.1 2433.16 2706.54 2435.46 2706.57C2438.98 2706.47 2442.39 2705.34 2445.27 2703.32C2448.15 2701.3 2450.38 2698.48 2451.68 2695.21C2452.73 2692.14 2452.95 2688.84 2452.31 2685.66C2451.68 2682.77 2451.32 2679.89 2450.51 2676.65C2449.7 2679.89 2449.43 2682.77 2448.8 2685.66ZM2467.82 2231.49L2463.22 2246.54C2464.94 2244.84 2466.26 2242.78 2467.1 2240.51C2468.1 2237.61 2468.35 2234.51 2467.82 2231.49ZM2630.05 1935.23C2629.86 1937.81 2629.09 1940.3 2627.8 1942.53C2626.64 1944.5 2625 1946.14 2623.02 1947.3C2621.05 1948.45 2618.82 1949.07 2616.53 1949.11C2613.04 1949.14 2609.64 1950.17 2606.73 1952.09C2603.81 1954.01 2601.52 1956.73 2600.13 1959.93C2598.88 1962.98 2598.53 1966.33 2599.14 1969.57C2599.77 1972.46 2600.13 1975.34 2600.94 1978.59C2601.75 1975.7 2602.11 1972.82 2602.65 1969.57C2602.85 1967.03 2603.69 1964.58 2605.08 1962.45C2606.34 1960.52 2608.07 1958.94 2610.1 1957.85C2612.13 1956.77 2614.41 1956.21 2616.71 1956.23C2620.21 1956.11 2623.6 1954.98 2626.47 1952.96C2629.34 1950.94 2631.55 1948.13 2632.85 1944.88C2633.93 1941.78 2634.15 1938.45 2633.48 1935.23C2632.94 1932.44 2632.57 1929.56 2631.76 1926.67C2631.04 1929.56 2630.68 1932.44 2630.14 1935.23H2630.05ZM2585.44 2392.28C2585.3 2394.86 2584.56 2397.36 2583.27 2399.59C2582.12 2401.55 2580.47 2403.19 2578.5 2404.35C2576.53 2405.5 2574.29 2406.12 2572.01 2406.16C2568.53 2406.18 2565.13 2407.2 2562.22 2409.1C2559.31 2411.01 2557.01 2413.71 2555.6 2416.89C2554.31 2419.93 2553.97 2423.29 2554.61 2426.53C2555.24 2429.42 2555.6 2432.3 2556.41 2435.55C2557.23 2432.66 2557.59 2429.78 2558.13 2426.53C2558.36 2424 2559.19 2421.56 2560.56 2419.41C2561.81 2417.48 2563.54 2415.9 2565.57 2414.83C2567.61 2413.76 2569.89 2413.22 2572.19 2413.28C2575.69 2413.16 2579.08 2412.03 2581.95 2410.01C2584.81 2407.99 2587.03 2405.18 2588.32 2401.93C2589.41 2398.83 2589.62 2395.5 2588.95 2392.28C2588.41 2389.4 2588.05 2386.52 2587.24 2383.27C2586.52 2386.52 2586.16 2389.4 2585.53 2392.28H2585.44ZM2985.34 2453.75C2985.19 2456.29 2984.45 2458.76 2983.18 2460.96C2982.02 2462.93 2980.38 2464.57 2978.41 2465.73C2976.44 2466.88 2974.2 2467.5 2971.92 2467.54C2968.41 2467.55 2964.99 2468.57 2962.06 2470.5C2959.13 2472.42 2956.82 2475.15 2955.42 2478.36C2954.2 2481.42 2953.89 2484.77 2954.52 2488C2955.15 2490.89 2955.42 2493.77 2956.23 2497.02C2957.04 2494.13 2957.4 2491.25 2958.04 2488C2958.28 2485.49 2959.08 2483.05 2960.38 2480.88C2961.64 2478.95 2963.36 2477.37 2965.39 2476.28C2967.43 2475.2 2969.7 2474.64 2972.01 2474.66C2975.52 2474.56 2978.93 2473.43 2981.82 2471.41C2984.7 2469.4 2986.93 2466.58 2988.23 2463.31C2989.28 2460.23 2989.49 2456.94 2988.86 2453.75C2988.23 2450.87 2987.87 2447.99 2987.06 2444.74C2985.98 2447.99 2985.98 2450.87 2985.44 2453.75H2985.34ZM2615.81 2966.96C2615.62 2969.5 2614.85 2971.97 2613.56 2974.17C2612.41 2976.15 2610.77 2977.8 2608.8 2978.95C2606.82 2980.1 2604.58 2980.72 2602.29 2980.75C2598.8 2980.77 2595.4 2981.8 2592.49 2983.72C2589.57 2985.64 2587.28 2988.36 2585.89 2991.56C2584.62 2994.61 2584.31 2997.97 2584.99 3001.21C2585.53 3004.09 2585.89 3006.97 2586.7 3010.22C2587.51 3007.33 2587.87 3004.45 2588.41 3001.21C2588.64 2998.67 2589.48 2996.23 2590.84 2994.08C2592.1 2992.15 2593.83 2990.57 2595.86 2989.48C2597.89 2988.4 2600.17 2987.84 2602.47 2987.87C2605.04 2987.86 2607.58 2987.28 2609.89 2986.16C2612.21 2985.04 2614.25 2983.42 2615.85 2981.42C2617.46 2979.41 2618.6 2977.07 2619.18 2974.57C2619.77 2972.07 2619.79 2969.47 2619.24 2966.96C2618.69 2964.07 2618.33 2961.19 2617.52 2957.94C2616.44 2960.92 2616.44 2964.07 2615.9 2966.96H2615.81ZM2925.95 2295.12C2927.87 2293.43 2930.15 2292.2 2932.62 2291.52C2934.83 2290.96 2937.15 2290.98 2939.36 2291.56C2941.56 2292.15 2943.59 2293.28 2945.24 2294.85C2947.7 2297.31 2950.83 2299 2954.24 2299.72C2957.64 2300.44 2961.18 2300.16 2964.43 2298.91C2967.48 2297.6 2970.08 2295.44 2971.92 2292.69C2973.54 2290.26 2975.34 2288 2976.78 2285.39C2974.17 2286.83 2971.92 2288.63 2969.48 2290.26C2967.52 2291.88 2965.21 2293.02 2962.72 2293.59C2960.48 2294.07 2958.15 2293.97 2955.95 2293.29C2953.76 2292.61 2951.78 2291.38 2950.19 2289.72C2948.35 2287.86 2946.11 2286.45 2943.65 2285.58C2941.19 2284.71 2938.56 2284.41 2935.96 2284.69C2933.36 2284.98 2930.86 2285.85 2928.64 2287.23C2926.43 2288.61 2924.55 2290.48 2923.15 2292.69C2921.53 2295.12 2919.73 2297.38 2918.29 2299.99C2921.26 2298.55 2923.52 2296.75 2926.04 2295.12H2925.95ZM2692.6 2506.39C2694.55 2504.7 2696.86 2503.5 2699.36 2502.87C2701.57 2502.28 2703.89 2502.27 2706.1 2502.84C2708.31 2503.41 2710.33 2504.54 2711.98 2506.12C2714.45 2508.58 2717.57 2510.27 2720.98 2510.99C2724.39 2511.71 2727.93 2511.43 2731.18 2510.18C2734.22 2508.87 2736.82 2506.71 2738.66 2503.96C2740.28 2501.52 2742.08 2499.27 2743.53 2496.66C2740.91 2498.1 2738.66 2499.9 2736.22 2501.52C2734.26 2503.15 2731.95 2504.29 2729.46 2504.86C2727.21 2505.33 2724.86 2505.22 2722.66 2504.54C2720.45 2503.86 2718.45 2502.64 2716.85 2500.98C2715.01 2499.11 2712.78 2497.68 2710.31 2496.8C2707.84 2495.92 2705.21 2495.62 2702.6 2495.9C2700 2496.19 2697.5 2497.06 2695.28 2498.46C2693.06 2499.85 2691.19 2501.73 2689.81 2503.96C2688.19 2506.39 2686.38 2508.73 2684.94 2511.35C2688.01 2510.27 2690.26 2508.01 2692.69 2506.39H2692.6ZM2534.6 2817.7C2536.55 2816.04 2538.82 2814.81 2541.27 2814.09C2543.49 2813.54 2545.8 2813.56 2548.01 2814.14C2550.22 2814.72 2552.24 2815.85 2553.89 2817.43C2556.38 2819.89 2559.52 2821.57 2562.95 2822.28C2566.37 2822.98 2569.93 2822.68 2573.18 2821.4C2576.22 2820.12 2578.81 2817.99 2580.66 2815.27C2582.28 2812.83 2584.08 2810.49 2585.53 2807.88C2582.91 2809.41 2580.66 2811.12 2578.14 2812.74C2576.25 2814.43 2573.95 2815.58 2571.47 2816.08C2569.22 2816.59 2566.87 2816.51 2564.66 2815.85C2562.45 2815.19 2560.44 2813.96 2558.85 2812.29C2556.29 2809.89 2553.08 2808.28 2549.63 2807.67C2546.17 2807.06 2542.61 2807.48 2539.38 2808.87C2536.42 2810.27 2533.92 2812.49 2532.17 2815.27C2530.55 2817.7 2528.74 2819.95 2527.3 2822.57C2530.01 2821.12 2532.26 2819.32 2534.69 2817.7H2534.6ZM2603.01 3141.18C2604.94 3139.51 2607.22 3138.31 2609.68 3137.66C2611.89 3137.07 2614.21 3137.06 2616.42 3137.63C2618.63 3138.2 2620.65 3139.33 2622.3 3140.91C2624.77 3143.38 2627.92 3145.08 2631.34 3145.8C2634.77 3146.52 2638.33 3146.23 2641.59 3144.96C2644.63 3143.66 2647.23 3141.5 2649.07 3138.74C2650.69 3136.31 2652.49 3134.06 2653.94 3131.44C2651.32 3132.89 2649.07 3134.69 2646.54 3136.31C2644.61 3137.93 2642.33 3139.07 2639.88 3139.65C2637.62 3140.13 2635.27 3140.03 2633.06 3139.35C2630.85 3138.67 2628.85 3137.44 2627.26 3135.77C2625.42 3133.9 2623.19 3132.47 2620.72 3131.59C2618.25 3130.71 2615.62 3130.4 2613.02 3130.69C2610.41 3130.98 2607.91 3131.85 2605.69 3133.25C2603.47 3134.64 2601.6 3136.52 2600.22 3138.74C2598.6 3141.18 2596.79 3143.52 2595.35 3146.04C2598.42 3144.51 2600.58 3142.71 2603.01 3141.18ZM2908.82 2785.79C2910.74 2784.1 2913.02 2782.87 2915.49 2782.19C2917.71 2781.63 2920.03 2781.65 2922.23 2782.23C2924.44 2782.82 2926.46 2783.95 2928.11 2785.52C2930.6 2787.98 2933.74 2789.67 2937.17 2790.37C2940.59 2791.08 2944.15 2790.77 2947.4 2789.49C2950.41 2788.22 2952.98 2786.08 2954.79 2783.36C2956.41 2780.93 2958.22 2778.58 2959.75 2775.97C2957.13 2777.5 2954.79 2779.21 2952.36 2780.84C2950.44 2782.53 2948.11 2783.68 2945.6 2784.17C2943.36 2784.69 2941.03 2784.61 2938.83 2783.95C2936.63 2783.28 2934.65 2782.06 2933.07 2780.39C2930.51 2777.98 2927.31 2776.38 2923.85 2775.77C2920.39 2775.16 2916.83 2775.57 2913.6 2776.96C2910.6 2778.34 2908.06 2780.56 2906.3 2783.36C2904.68 2785.79 2902.97 2788.05 2901.43 2790.66C2904.05 2789.13 2906.39 2787.33 2908.82 2785.7V2785.79ZM3119.28 2914.59C3121.22 2912.93 3123.49 2911.7 3125.95 2910.98C3128.16 2910.43 3130.48 2910.45 3132.69 2911.03C3134.89 2911.61 3136.92 2912.74 3138.57 2914.32C3141.05 2916.78 3144.2 2918.46 3147.62 2919.17C3151.05 2919.87 3154.6 2919.57 3157.85 2918.29C3160.89 2917.01 3163.49 2914.88 3165.34 2912.16C3166.96 2909.72 3168.76 2907.47 3170.2 2904.86C3167.59 2906.3 3165.34 2908.1 3162.81 2909.72C3160.88 2911.34 3158.6 2912.49 3156.14 2913.06C3153.88 2913.54 3151.54 2913.44 3149.33 2912.76C3147.12 2912.09 3145.12 2910.85 3143.52 2909.18C3141.69 2907.31 3139.45 2905.88 3136.99 2905.01C3134.52 2904.13 3131.89 2903.82 3129.28 2904.1C3126.68 2904.39 3124.17 2905.26 3121.96 2906.66C3119.74 2908.05 3117.87 2909.93 3116.48 2912.16C3114.86 2914.59 3113.06 2916.84 3111.62 2919.46C3114.5 2917.92 3116.85 2915.85 3119.28 2914.5V2914.59ZM2765.25 3012.29C2767.18 3010.61 2769.46 3009.38 2771.92 3008.69C2774.13 3008.13 2776.45 3008.15 2778.65 3008.73C2780.86 3009.31 2782.88 3010.45 2784.53 3012.02C2787.02 3014.48 2790.16 3016.17 2793.59 3016.87C2797.01 3017.57 2800.57 3017.27 2803.82 3015.99C2806.86 3014.71 2809.46 3012.58 2811.3 3009.86C2812.93 3007.42 2814.64 3005.08 2816.17 3002.47C2813.56 3004 2811.21 3005.8 2808.78 3007.42C2806.83 3009.06 2804.51 3010.21 2802.02 3010.76C2799.77 3011.24 2797.44 3011.13 2795.25 3010.45C2793.06 3009.78 2791.07 3008.55 2789.49 3006.88C2786.93 3004.48 2783.73 3002.87 2780.27 3002.26C2776.81 3001.66 2773.25 3002.07 2770.02 3003.46C2767.08 3004.9 2764.59 3007.11 2762.81 3009.86C2761.19 3012.29 2759.39 3014.54 2757.86 3017.16C2760.65 3015.72 2762.81 3013.91 2765.25 3012.29ZM3221.85 3141.18C3223.77 3139.51 3226.05 3138.31 3228.52 3137.66C3230.72 3137.07 3233.04 3137.06 3235.25 3137.63C3237.46 3138.2 3239.49 3139.33 3241.13 3140.91C3243.61 3143.38 3246.75 3145.08 3250.18 3145.8C3253.6 3146.52 3257.16 3146.23 3260.42 3144.96C3263.47 3143.66 3266.06 3141.5 3267.9 3138.74C3269.53 3136.31 3271.33 3134.06 3272.77 3131.44C3270.16 3132.89 3267.9 3134.69 3265.38 3136.31C3263.45 3137.93 3261.16 3139.07 3258.71 3139.65C3256.45 3140.12 3254.11 3140.02 3251.9 3139.34C3249.69 3138.66 3247.69 3137.43 3246.09 3135.77C3244.26 3133.9 3242.02 3132.47 3239.56 3131.59C3237.09 3130.71 3234.45 3130.4 3231.85 3130.69C3229.25 3130.98 3226.74 3131.85 3224.53 3133.25C3222.31 3134.64 3220.44 3136.52 3219.05 3138.74C3217.43 3141.18 3215.63 3143.52 3214.19 3146.04C3217.16 3144.51 3219.41 3142.71 3221.85 3141.18ZM3302.96 2791.11C3300.81 2790.47 3298.86 2789.29 3297.29 2787.69C3295.45 2785.82 3293.22 2784.39 3290.75 2783.51C3288.28 2782.63 3285.65 2782.32 3283.04 2782.61C3280.44 2782.89 3277.94 2783.77 3275.72 2785.16C3273.5 2786.56 3271.63 2788.44 3270.25 2790.66C3268.62 2793.09 3266.82 2795.35 3265.38 2797.96C3267.99 2796.52 3270.25 2794.72 3272.68 2793.09C3274.62 2791.43 3276.9 2790.2 3279.35 2789.49C3281.56 2788.93 3283.88 2788.95 3286.09 2789.53C3288.29 2790.12 3290.32 2791.25 3291.97 2792.82C3295.29 2796.17 3299.79 2798.07 3304.5 2798.14L3302.96 2791.11ZM2439.07 3056.91C2441.01 3055.24 2443.28 3054.02 2445.73 3053.3C2447.95 3052.75 2450.27 3052.76 2452.47 3053.34C2454.68 3053.93 2456.7 3055.06 2458.35 3056.64C2460.83 3059.11 2463.97 3060.81 2467.39 3061.53C2470.82 3062.25 2474.38 3061.96 2477.64 3060.69C2480.68 3059.39 2483.28 3057.22 2485.12 3054.47C2486.74 3052.04 2488.55 3049.79 2489.99 3047.17C2487.37 3048.61 2485.12 3050.42 2482.6 3052.04C2480.67 3053.66 2478.38 3054.8 2475.93 3055.37C2473.67 3055.85 2471.33 3055.75 2469.12 3055.07C2466.91 3054.39 2464.91 3053.16 2463.31 3051.5C2461.48 3049.63 2459.24 3048.2 2456.77 3047.32C2454.31 3046.44 2451.67 3046.13 2449.07 3046.42C2446.46 3046.71 2443.96 3047.58 2441.74 3048.97C2439.53 3050.37 2437.66 3052.25 2436.27 3054.47C2434.65 3056.91 2432.85 3059.25 2431.4 3061.77C2434.74 3060.06 2436.99 3058.44 2439.43 3056.82L2439.07 3056.91ZM2413.02 2513.87C2414.91 2512.14 2417.2 2510.91 2419.69 2510.27C2421.9 2509.67 2424.23 2509.66 2426.44 2510.24C2428.66 2510.83 2430.68 2511.99 2432.31 2513.6C2434.79 2516.06 2437.94 2517.75 2441.36 2518.45C2444.78 2519.15 2448.34 2518.85 2451.59 2517.57C2454.6 2516.29 2457.17 2514.16 2458.98 2511.44C2460.61 2508.91 2462.41 2506.66 2463.94 2504.05C2461.33 2505.49 2458.98 2507.29 2456.55 2508.91C2454.64 2510.62 2452.31 2511.77 2449.79 2512.25C2447.55 2512.75 2445.22 2512.66 2443.03 2512C2440.84 2511.33 2438.85 2510.12 2437.26 2508.46C2434.7 2506.06 2431.5 2504.45 2428.04 2503.84C2424.58 2503.24 2421.02 2503.65 2417.79 2505.04C2414.82 2506.41 2412.29 2508.6 2410.49 2511.35C2408.87 2513.87 2407.16 2516.12 2405.63 2518.74C2408.6 2517.21 2410.94 2515.4 2413.38 2513.78L2413.02 2513.87Z" fill="#181818"/>
<path d="M2470.43 2213.47C2460.52 2249.52 2450.9 2285.57 2441.59 2321.62C2442.76 2305.85 2444.47 2290.17 2446.55 2274.48C2446.55 2273.58 2445.28 2273.13 2445.01 2274.48C2441.17 2293.94 2439.03 2313.69 2438.61 2333.52C2427.44 2377.08 2416.98 2420.8 2407.25 2464.66C2388.77 2548.75 2372.28 2633.56 2358.58 2718.56C2350.92 2766.6 2344.97 2814.82 2336.77 2862.77C2336.77 2863.67 2338.03 2864.03 2338.21 2862.77C2345.69 2820.31 2355.69 2778.13 2365.25 2735.95C2374.8 2693.77 2383.27 2652.13 2392.29 2610.22C2409.77 2525.77 2428.34 2441.59 2445.64 2357.22C2455.47 2309.64 2464.57 2261.96 2474.4 2214.46C2474.46 2214.2 2474.47 2213.93 2474.43 2213.66C2474.39 2213.4 2474.3 2213.14 2474.17 2212.91C2473.89 2212.45 2473.43 2212.11 2472.91 2211.98C2472.38 2211.85 2471.83 2211.93 2471.36 2212.21C2470.9 2212.49 2470.56 2212.94 2470.43 2213.47Z" fill="#263238"/>
<path d="M2428.16 1652.04C2440.15 1717.66 2403.19 1779.4 2345.6 1789.94C2288.01 1800.49 2231.67 1755.78 2219.42 1690.17C2207.16 1624.55 2244.29 1562.72 2301.89 1552.27C2359.48 1541.81 2416.17 1586.43 2428.16 1652.04Z" fill="black"/>
<path d="M2462.68 1649.97C2476.02 1722.98 2434.92 1791.66 2370.93 1803.19C2306.93 1814.73 2244.11 1765.25 2230.77 1692.24C2217.43 1619.24 2258.53 1550.56 2322.53 1539.02C2386.52 1527.48 2449.34 1576.97 2462.68 1649.97Z" fill="black"/>
<path d="M2645.37 2165.16C2710.63 2165.16 2793.64 2044.74 2816.62 1957.86C2818.15 1951.91 2745.6 1747.58 2735.5 1705.49C2733.43 1696.48 2487.74 1833.3 2487.74 1833.3C2487.74 1833.3 2534.96 1915.04 2552.27 1988.32C2553.89 1994.9 2582.28 2165.43 2645.37 2165.16Z" fill="#DD6A57"/>
<path d="M2582.64 2004.27C2574.12 2006.64 2565.4 2008.24 2556.59 2009.05C2555.51 2003.91 2554.61 1999.59 2553.98 1996.25C2554.02 1996.1 2554.02 1995.95 2553.98 1995.8C2554.02 1995.41 2554.02 1995.02 2553.98 1994.63C2553.98 1993.37 2553.53 1992.02 2553.17 1990.66C2553.21 1990.4 2553.21 1990.12 2553.17 1989.85V1988.77C2549.18 1972.4 2544.24 1956.27 2538.39 1940.46C2526.91 1909.86 2513.48 1880.03 2498.19 1851.14C2496.93 1848.74 2495.76 1846.58 2494.68 1844.65L2488.91 1834.02L2495.4 1830.32L2504.41 1825.54L2510.18 1822.39L2517.3 1818.42L2523.88 1814.82L2525.14 1814.1L2534.15 1809.41L2536.14 1808.33L2544.7 1803.64L2549.2 1801.21L2563.08 1793.64L2573.72 1787.87L2582.73 1783L2613.56 1766.42L2623.47 1761.01L2659.07 1742.26L2666.73 1738.3L2670.52 1735.14L2676.56 1731.99L2689.54 1725.41L2697.47 1721.44C2701.34 1719.46 2704.95 1717.75 2708.37 1716.13C2710.09 1715.23 2711.8 1714.5 2713.33 1713.78C2718.02 1711.53 2722.34 1709.73 2725.41 1708.38L2727.57 1707.47C2730.64 1778.86 2724.6 1966.24 2582.64 2004.27Z" fill="#263238"/>
<path d="M2662.05 1389.67C2720.18 1471.6 2759.84 1750.83 2714.59 1831.31C2648.98 1947.76 2497.83 2007.16 2387.87 1918.29C2281.34 1832.21 2236.18 1467.64 2290.8 1389.76C2371.2 1275.48 2576.06 1268.81 2662.05 1389.67Z" fill="#DD6A57"/>
<path d="M2454.21 1636C2454.21 1635.19 2455.74 1636.63 2455.83 1637.44C2457.99 1656.28 2463.67 1677.55 2481.61 1681.34C2482.15 1681.34 2482.24 1682.42 2481.61 1682.42C2459.98 1682.78 2452.76 1654.48 2454.21 1636Z" fill="#263238"/>
<path d="M2467.64 1614.1C2497.56 1607.43 2508.83 1668.18 2481.07 1673.95C2453.31 1679.71 2442.58 1619.78 2467.64 1614.1Z" fill="#263238"/>
<path d="M2351.1 1658.35C2351.1 1657.63 2349.84 1659.43 2349.93 1660.25C2354.07 1678.81 2355.6 1700.71 2339.83 1710.09C2339.38 1710.09 2339.83 1711.35 2339.83 1711.17C2360.29 1704.41 2357.95 1675.3 2351.1 1658.35Z" fill="#263238"/>
<path d="M2330.82 1641.95C2300.35 1645.28 2309.19 1705.94 2337.49 1702.88C2365.79 1699.81 2356.32 1639.16 2330.82 1641.95Z" fill="#263238"/>
<path d="M2486.29 1581.92C2477.94 1581.09 2469.63 1579.8 2461.42 1578.05C2452.41 1577.88 2443.72 1574.71 2436.72 1569.03C2434.88 1566.84 2433.8 1564.1 2433.65 1561.24C2433.51 1558.38 2434.3 1555.54 2435.91 1553.17C2439.86 1549.04 2444.84 1546.03 2450.33 1544.45C2455.83 1542.86 2461.64 1542.76 2467.19 1544.16C2478.86 1545.26 2489.72 1550.66 2497.65 1559.3C2499.38 1561.36 2500.46 1563.89 2500.78 1566.56C2501.09 1569.23 2500.61 1571.94 2499.4 1574.34C2498.2 1576.75 2496.31 1578.75 2493.98 1580.09C2491.65 1581.44 2488.98 1582.08 2486.29 1581.92Z" fill="#263238"/>
<path d="M2301.8 1615.9C2309.58 1612.76 2317.19 1609.21 2324.6 1605.27C2333.15 1602.58 2340.59 1597.16 2345.78 1589.85C2346.95 1587.24 2347.23 1584.31 2346.56 1581.52C2345.89 1578.73 2344.32 1576.24 2342.09 1574.44C2337.15 1571.54 2331.54 1570.01 2325.82 1570.01C2320.1 1570.01 2314.48 1571.54 2309.55 1574.44C2298.58 1578.69 2289.63 1586.93 2284.49 1597.52C2283.45 1599.98 2283.14 1602.69 2283.61 1605.33C2284.08 1607.97 2285.31 1610.41 2287.14 1612.36C2288.98 1614.31 2291.34 1615.68 2293.94 1616.31C2296.54 1616.94 2299.27 1616.8 2301.8 1615.9Z" fill="#263238"/>
<path d="M2508.29 1805.18C2504.68 1810.4 2501.35 1817.25 2494.68 1819.06C2487.69 1820.24 2480.53 1819.94 2473.68 1818.15C2473.53 1818.09 2473.38 1818.09 2473.23 1818.14C2473.08 1818.18 2472.96 1818.28 2472.88 1818.42C2472.8 1818.55 2472.78 1818.71 2472.81 1818.86C2472.84 1819.01 2472.92 1819.14 2473.04 1819.24C2476.4 1822.41 2480.55 1824.62 2485.06 1825.62C2489.57 1826.62 2494.26 1826.37 2498.64 1824.91C2502.26 1823.22 2505.3 1820.5 2507.37 1817.08C2509.44 1813.66 2510.45 1809.71 2510.27 1805.72C2510.36 1804.54 2508.83 1804.45 2508.29 1805.18Z" fill="#263238"/>
<path d="M2478.27 1753.17C2474.89 1761.42 2469.83 1768.88 2463.43 1775.08C2457.02 1781.29 2449.4 1786.1 2441.05 1789.22C2433.8 1792.08 2426.18 1793.87 2418.43 1794.54C2416.93 1794.67 2415.42 1794.67 2413.92 1794.54C2412.54 1794.63 2411.15 1794.63 2409.77 1794.54C2408.74 1794.54 2407.73 1794.21 2406.9 1793.59C2406.07 1792.98 2405.47 1792.11 2405.18 1791.12C2405.13 1790.49 2405.13 1789.85 2405.18 1789.22V1787.6C2402.11 1773.27 2399.41 1751.55 2399.41 1751.55C2394.63 1755.15 2370.12 1772.19 2369.12 1764.62C2361.19 1701.53 2352.36 1631.76 2357.77 1567.5C2357.86 1567.1 2358.08 1566.75 2358.4 1566.49C2358.72 1566.24 2359.12 1566.1 2359.52 1566.1C2359.93 1566.1 2360.33 1566.24 2360.65 1566.49C2360.97 1566.75 2361.19 1567.1 2361.28 1567.5C2371.29 1627.71 2370.3 1689.18 2379.76 1749.75C2388.44 1743.52 2397.97 1738.58 2408.06 1735.05C2410.22 1735.05 2412.48 1777.87 2414.37 1784.18V1784.9C2439.06 1783.45 2455.92 1772.73 2476.38 1752.09C2477.37 1750.29 2479.08 1751.28 2478.27 1753.17Z" fill="#263238"/>
<path d="M2425.55 1785.62C2435.32 1794.48 2447.2 1800.69 2460.06 1803.64C2467.14 1804.97 2474.45 1804.05 2480.98 1801.03C2495.13 1794.36 2492.96 1780.57 2488.01 1769.39C2485.35 1763.45 2481.99 1757.86 2478 1752.72C2464.48 1769 2446.09 1780.53 2425.55 1785.62Z" fill="#263238"/>
<path d="M2460.07 1803.37C2467.14 1804.7 2474.45 1803.78 2480.98 1800.76C2495.13 1794.09 2492.96 1780.3 2488.01 1769.12C2472.23 1773.81 2458.53 1787.6 2460.07 1803.37Z" fill="#FF99BA"/>
<path opacity="0.2" d="M2651.59 1506.93C2670.16 1530.46 2710.72 1586.88 2724.51 1587.6C2710.27 1496.66 2687.1 1417.25 2650.87 1374.98C2635.89 1357.53 2617.83 1342.96 2597.6 1331.99C2602.83 1355.97 2631.85 1482.78 2651.59 1506.93Z" fill="#263238"/>
<path d="M2380.66 1451.68C2391.9 1462.23 2405.66 1469.71 2420.62 1473.42C2435.58 1477.12 2451.24 1476.93 2466.1 1472.86C2481.33 1468.73 2495.24 1460.75 2506.51 1449.71C2517.77 1438.66 2526.02 1424.91 2530.46 1409.77C2530.46 1409.58 2530.53 1409.4 2530.67 1409.26C2530.8 1409.13 2530.99 1409.05 2531.18 1409.05C2531.37 1409.05 2531.55 1409.13 2531.69 1409.26C2531.82 1409.4 2531.9 1409.58 2531.9 1409.77C2528.57 1426.02 2520.88 1441.06 2509.65 1453.27C2498.43 1465.48 2484.09 1474.4 2468.18 1479.08C2452.27 1482.78 2435.66 1482.23 2420.03 1477.49C2404.4 1472.74 2390.3 1463.97 2379.13 1452.04C2379.2 1451.92 2379.3 1451.81 2379.42 1451.72C2379.54 1451.63 2379.67 1451.57 2379.82 1451.53C2379.96 1451.5 2380.11 1451.5 2380.25 1451.52C2380.4 1451.55 2380.54 1451.6 2380.66 1451.68Z" fill="#263238"/>
<path d="M2448.62 1219.42C2500.8 1214.73 2551.82 1238.17 2574.8 1271.51C2587.64 1290.47 2593.67 1313.22 2591.93 1336.05C2591.93 1336.95 2590.03 1336.95 2590.03 1336.05C2588.9 1316.15 2582.45 1296.92 2571.35 1280.37C2560.26 1263.82 2544.92 1250.55 2526.94 1241.95C2507.16 1231.91 2485.32 1226.61 2463.15 1226.45C2440.97 1226.3 2419.06 1231.29 2399.14 1241.05C2379.63 1250.1 2363.99 1265.83 2355.06 1285.39C2354.25 1287.38 2350.2 1286.57 2350.83 1284.58C2361.01 1250.42 2401.39 1223.74 2448.62 1219.42Z" fill="#263238"/>
<path d="M2159.03 1366.33C2164.65 1339.66 2179.53 1315.84 2201.03 1299.09C2230.68 1275.75 2267.19 1274.58 2303.33 1274.22C2304.32 1274.22 2304.41 1275.75 2303.33 1275.75C2272.5 1276.2 2241.23 1278.45 2214.82 1295.94C2192.9 1310.25 2176.62 1331.72 2168.76 1356.69C2161.43 1382.27 2163.55 1409.64 2174.74 1433.78C2185.93 1457.93 2205.43 1477.24 2229.69 1488.19C2243.83 1494.12 2259.03 1497.09 2274.36 1496.91C2289.69 1496.74 2304.83 1493.44 2318.83 1487.2C2319.91 1486.75 2320.99 1488.28 2319.82 1488.82C2300.98 1498.07 2279.93 1501.9 2259.04 1499.87C2238.14 1497.83 2218.23 1490.02 2201.52 1477.3C2184.82 1464.58 2171.99 1447.47 2164.47 1427.87C2156.94 1408.27 2155.03 1386.96 2158.94 1366.33H2159.03Z" fill="#263238"/>
<path d="M2691.16 1449.34C2691.16 1449.34 2729.65 1350.2 2682.15 1301.53C2655.11 1273.77 2578.05 1286.84 2578.05 1286.84C2565.93 1272.71 2551.14 1261.12 2534.53 1252.73C2517.92 1244.35 2499.81 1239.34 2481.25 1237.99C2414.55 1230.68 2341.72 1277.73 2341.72 1277.73C2341.72 1277.73 2275.84 1249.61 2221.85 1289.45C2146.68 1344.97 2171.2 1466.56 2256.91 1496.75C2317.21 1517.75 2388.59 1458.26 2388.59 1458.26C2396.16 1458.26 2477.73 1495.31 2527.39 1420.59C2527.39 1420.59 2579.04 1456.64 2617.52 1422.66C2625.58 1434.12 2636.97 1442.83 2650.14 1447.6C2663.31 1452.37 2677.63 1452.98 2691.16 1449.34Z" fill="#263238"/>
<path d="M2493.32 1718.11C2482.66 1718.79 2471.96 1717.36 2461.86 1713.9C2451.75 1710.44 2442.42 1705.01 2434.41 1697.94C2426.41 1690.86 2419.88 1682.27 2415.2 1672.66C2410.52 1663.05 2407.79 1652.62 2407.16 1641.95C2406.22 1626.81 2409.54 1611.71 2416.76 1598.36C2423.97 1585.01 2434.78 1573.96 2447.96 1566.45C2461.14 1558.93 2476.17 1555.27 2491.33 1555.87C2506.49 1556.47 2521.17 1561.31 2533.72 1569.84C2546.27 1578.37 2556.17 1590.24 2562.31 1604.12C2568.44 1617.99 2570.56 1633.31 2568.43 1648.33C2566.3 1663.35 2560 1677.47 2550.24 1689.09C2540.49 1700.71 2527.67 1709.36 2513.24 1714.05C2506.8 1716.24 2500.11 1717.61 2493.32 1718.11ZM2418.15 1641.23C2419.02 1655.12 2423.98 1668.44 2432.41 1679.52C2440.85 1690.59 2452.38 1698.91 2465.54 1703.43C2478.7 1707.96 2492.91 1708.48 2506.37 1704.92C2519.83 1701.37 2531.93 1693.91 2541.15 1683.49C2550.37 1673.06 2556.29 1660.13 2558.16 1646.34C2560.04 1632.55 2557.78 1618.51 2551.68 1606C2545.57 1593.49 2535.9 1583.07 2523.88 1576.06C2511.85 1569.05 2498.02 1565.75 2484.13 1566.6C2478.28 1566.98 2472.5 1568.07 2466.92 1569.85C2452.03 1574.67 2439.17 1584.29 2430.35 1597.21C2421.52 1610.13 2417.23 1625.61 2418.15 1641.23Z" fill="#00E340"/>
<path d="M2324.69 1750.65C2291.97 1757.05 2258.26 1726.49 2249.7 1682.51C2245.43 1662.67 2247.47 1641.99 2255.56 1623.38C2258.56 1615.19 2263.63 1607.91 2270.27 1602.25C2276.9 1596.59 2284.89 1592.73 2293.45 1591.06C2302.01 1589.38 2310.86 1589.94 2319.14 1592.68C2327.43 1595.42 2334.86 1600.26 2340.73 1606.71C2355.23 1620.87 2364.94 1639.21 2368.49 1659.16C2376.6 1700.8 2359.48 1740.28 2329.83 1749.29C2328.14 1749.85 2326.43 1750.3 2324.69 1750.65ZM2265.47 1627.98C2258.3 1644.49 2256.5 1662.84 2260.34 1680.43C2267.82 1718.47 2295.76 1745.24 2322.62 1740.01C2349.47 1734.78 2365.25 1699.45 2357.86 1661.33C2354.71 1643.6 2346.15 1627.29 2333.34 1614.64C2328.53 1609.62 2322.57 1605.82 2315.99 1603.58C2309.4 1601.34 2302.37 1600.71 2295.49 1601.75C2294.14 1601.95 2292.81 1602.29 2291.52 1602.74C2285.67 1604.92 2280.33 1608.28 2275.85 1612.62C2271.36 1616.97 2267.83 1622.2 2265.47 1627.98Z" fill="#00E340"/>
<path d="M2411.66 1650.6L2416.98 1641.14C2402.83 1633.3 2371.92 1625.09 2356.78 1650.15L2365.79 1655.92C2379.76 1633.48 2410.4 1649.97 2411.66 1650.6Z" fill="#00E340"/>
<path d="M2771.29 1601.48L2779.85 1594.72C2776.69 1590.76 2748.3 1555.96 2723.7 1556.78C2700.8 1557.59 2560.38 1598.96 2554.43 1600.76L2557.5 1611.21C2597.78 1599.23 2706.3 1568.22 2724.06 1567.59C2740.28 1567.14 2763.62 1591.93 2771.29 1601.48Z" fill="#00E340"/>
<path d="M2677.28 1623.02C2677.28 1623.02 2710.54 1518.83 2756.05 1527.84C2801.57 1536.86 2795.17 1675.39 2754.79 1706.57C2749.89 1710.93 2744.17 1714.25 2737.95 1716.34C2731.74 1718.42 2725.16 1719.23 2718.63 1718.71C2712.09 1718.18 2705.73 1716.35 2699.93 1713.3C2694.12 1710.25 2688.99 1706.07 2684.85 1700.99L2677.28 1623.02Z" fill="#DD6A57"/>
<path d="M2753.26 1567.5C2753.98 1567.5 2754.43 1568.22 2753.89 1568.67C2725.86 1591.57 2718.29 1626.54 2716.04 1660.97C2721.89 1646.19 2732.8 1635.64 2752.09 1642.04C2753.17 1642.04 2752.72 1643.93 2752.09 1644.02C2745.9 1643.98 2739.85 1645.86 2734.76 1649.39C2729.68 1652.93 2725.82 1657.94 2723.7 1663.76C2720.23 1673.51 2717.85 1683.6 2716.58 1693.86C2715.95 1697.2 2710.36 1697.29 2710.45 1693.86V1693.05C2696.75 1652.22 2710.72 1585.26 2753.26 1567.5Z" fill="#263238"/>
<path d="M2727.57 1544.07C2727.57 1544.07 2721.08 1398.15 2669.8 1323.07C2612.66 1239.43 2454.93 1183.46 2342.08 1278C2342.08 1278 2505.94 1235.37 2613.29 1336.14C2662.59 1382.46 2679.71 1553.53 2679.71 1553.53L2727.57 1544.07Z" fill="black"/>
<path d="M2730.94 1754.21C2795.72 1747.64 2842.16 1682.46 2834.67 1608.62C2827.19 1534.78 2768.6 1480.25 2703.83 1486.81C2639.05 1493.38 2592.61 1558.57 2600.1 1632.41C2607.58 1706.25 2666.17 1760.78 2730.94 1754.21Z" fill="black"/>
<path d="M2633.93 1624.64C2640.69 1691.07 2693.32 1740.1 2751.55 1734.15C2809.77 1728.2 2851.5 1669.62 2844.83 1603.28C2838.16 1536.95 2785.44 1487.92 2727.12 1493.78C2668.81 1499.63 2627.17 1558.31 2633.93 1624.64Z" fill="black"/>
<path d="M2988.59 2018.51C3163.26 2205.62 3578.85 2907.74 3444.11 3036.99C3309.36 3166.23 2561.73 2991.92 2351.73 2892.15C2289.18 2862.4 2526.58 2472.86 2600.04 2463.76C2661.15 2456.19 2973.72 2598.95 2982.73 2580.93C2993.01 2560.65 2921.98 2430.23 2846.81 2158.67C2760.11 1846 2911.44 1935.86 2988.59 2018.51Z" fill="#DD6A57"/>
<path d="M2289.63 2338.21C2137.85 2317.12 2095.58 2334.96 1976.97 2249.07C1899.09 2192.74 1829.69 2218.24 1874.04 2307.83C1946.77 2454.29 2136.95 2522.7 2209.68 2527.48L2289.63 2338.21Z" fill="#DD6A57"/>
<path d="M2692.96 2484.4C2692.96 2484.4 2522.34 2389.67 2362.81 2351.1C2252.4 2324.51 2005.9 2293.23 1770.03 2536.49C1714.06 2594.27 1675.21 2716.12 1800.85 2655.11C1890.08 2611.66 1933.52 2557.22 1990.13 2541.45C1990.13 2541.45 1959.21 2702.42 2019.15 2756.14C2071.62 2803.18 2127.37 2846.43 2185.98 2885.57C2195.58 2876.46 2204.61 2866.77 2213.02 2856.55C2213.02 2856.55 2273.86 2901.61 2388.23 2890.62L2692.96 2484.4Z" fill="#DD6A57"/>
<path d="M2253.4 2342.53C2200.67 2370.02 2089.81 2430.23 2016.26 2510.99C1934.61 2600.67 1801.39 2795.53 1868.18 2855.19C1917.21 2898.91 1974.62 2828.97 1974.62 2828.97C1974.62 2828.97 1936.59 2921.08 1989.5 2950.91C2037.72 2977.95 2078.81 2921.35 2078.81 2921.35C2078.81 2921.35 2065.39 2981.2 2116.85 2998.41C2178.77 3019.14 2196.89 2890.25 2277.73 2857C2295.85 2849.61 2253.4 2342.53 2253.4 2342.53Z" fill="#DD6A57"/>
<path d="M2125.41 2581.47C2080.35 2615.54 1996.8 2719.19 1973.81 2826.53C1973.27 2828.97 1974.8 2830.68 1975.8 2828.61C2015.77 2740.72 2066.32 2658.03 2126.31 2582.37C2126.67 2581.74 2125.95 2581.11 2125.41 2581.47Z" fill="#263238"/>
<path d="M2213.65 2666.55C2177.6 2699.99 2096.48 2810.76 2076.83 2920.27C2076.38 2922.7 2078.09 2924.32 2078.99 2922.16C2114.31 2832.38 2159.67 2746.87 2214.19 2667.27C2214.91 2666.73 2214.1 2666.19 2213.65 2666.55Z" fill="#263238"/>
<path d="M1990.04 2540.46C1940.55 2555.06 1908.38 2579.31 1866.56 2608.33C1846.08 2622.96 1824.81 2636.44 1802.84 2648.71C1782.65 2659.61 1752.99 2675.74 1731.45 2658.98C1719.55 2649.52 1719.73 2631.94 1722.44 2618.6C1725.3 2603.2 1731.45 2588.6 1740.46 2575.79C1740.92 2575.16 1739.83 2574.35 1739.38 2574.98C1730.86 2586.14 1723.97 2598.46 1718.92 2611.57C1713.54 2623.71 1711.97 2637.19 1714.42 2650.24C1721.72 2677.28 1753.89 2681.06 1776.61 2673.58C1790.21 2668.62 1803.29 2662.31 1815.63 2654.74C1827.62 2647.8 1839.25 2640.41 1850.69 2632.66C1874.22 2616.71 1896.84 2599.49 1920.18 2583.36C1942.85 2568.11 1966.48 2554.35 1990.94 2542.17C1991.16 2542.05 1991.33 2541.85 1991.41 2541.6C1991.49 2541.36 1991.46 2541.09 1991.34 2540.86C1991.22 2540.64 1991.02 2540.47 1990.77 2540.39C1990.53 2540.32 1990.26 2540.34 1990.04 2540.46Z" fill="#263238"/>
<path d="M1886.39 2714.59C1899.18 2686.38 1968.49 2568.85 1991.03 2541.63C1991.11 2541.49 1991.15 2541.33 1991.13 2541.17C1991.11 2541.01 1991.04 2540.86 1990.92 2540.74C1990.81 2540.63 1990.66 2540.56 1990.5 2540.54C1990.34 2540.52 1990.17 2540.55 1990.04 2540.64C1951.46 2577.23 1889.45 2674.3 1875.03 2705.49C1860.61 2736.67 1844.3 2775.52 1844.3 2809.77C1844.3 2861.5 1878.54 2871.24 1891.25 2873.76C1906.3 2876.5 1921.83 2873.99 1935.24 2866.64C1950.94 2856.97 1964.53 2844.21 1975.16 2829.15C1975.71 2828.43 1974.71 2827.43 1974.08 2828.15C1956.06 2848.52 1926.4 2868.62 1898.37 2864.93C1892.16 2864.33 1886.13 2862.5 1880.64 2859.55C1875.14 2856.59 1870.3 2852.57 1866.38 2847.71C1858.72 2835.27 1855.78 2820.5 1858.08 2806.07C1862.23 2774.19 1871.8 2743.25 1886.39 2714.59Z" fill="#263238"/>
<path d="M2076.83 2920.27C2069.62 2926.4 2054.84 2947.85 2031.31 2952.44C2022.96 2954.72 2014.18 2954.92 2005.73 2953.04C1997.28 2951.15 1989.42 2947.24 1982.83 2941.63C1970.71 2928.98 1964.01 2912.1 1964.17 2894.58C1966.12 2872.65 1969.74 2850.89 1974.98 2829.51C1974.98 2828.52 1973.99 2828.06 1973.72 2829.06C1965.08 2851.47 1959.82 2875.04 1958.13 2899C1957.8 2908.48 1959.39 2917.94 1962.8 2926.79C1966.2 2935.65 1971.36 2943.73 1977.96 2950.55C1985.06 2957.23 1993.87 2961.82 2003.41 2963.8C2012.95 2965.79 2022.86 2965.1 2032.04 2961.82C2041.05 2958.39 2070.34 2939.74 2078.72 2921.35C2078.99 2920.9 2077.19 2920 2076.83 2920.27Z" fill="#263238"/>
<path d="M2272.87 2847.71C2264.91 2853.05 2257.56 2859.24 2250.96 2866.19C2243.66 2873.22 2236.63 2880.52 2229.87 2887.91C2216.19 2902.93 2204.1 2919.33 2193.82 2936.85C2183.37 2954.43 2173.72 2973.99 2156.69 2986.15C2148.6 2992.32 2138.78 2995.78 2128.62 2996.04C2118.46 2996.29 2108.47 2993.34 2100.09 2987.6C2091.25 2981.18 2084.89 2971.92 2082.06 2961.37C2078.69 2949.91 2077.59 2937.91 2078.81 2926.04C2078.81 2925.84 2078.74 2925.66 2078.6 2925.53C2078.47 2925.39 2078.28 2925.31 2078.09 2925.31C2077.9 2925.31 2077.72 2925.39 2077.58 2925.53C2077.45 2925.66 2077.37 2925.84 2077.37 2926.04C2075.5 2936.6 2074.65 2947.31 2074.85 2958.03C2075.78 2967.78 2079.26 2977.1 2084.94 2985.07C2091.08 2992.9 2099.26 2998.89 2108.58 3002.37C2117.89 3005.85 2127.99 3006.7 2137.76 3004.81C2159.39 3000.84 2175.16 2984.62 2186.97 2967.05C2199.95 2947.49 2210.77 2926.67 2224.74 2907.65C2232.04 2897.65 2239.25 2887.55 2247.27 2878.09C2255.29 2868.62 2265.29 2859.43 2273.41 2849.16C2274.67 2848.34 2273.95 2847.17 2272.87 2847.71Z" fill="#263238"/>
<path d="M2333.34 2891.88C2305.1 2888.77 2277.21 2882.97 2250.06 2874.57C2249.16 2874.57 2247.99 2876.74 2248.8 2877.19C2261.93 2883.2 2275.68 2887.74 2289.81 2890.71C2304.04 2893.77 2318.66 2894.68 2333.16 2893.41C2333.88 2893.32 2334.24 2891.97 2333.34 2891.88Z" fill="#263238"/>
<path d="M3265.38 2717.57C3178.25 2658.59 3082.76 2613.01 2982.1 2582.37C2953.62 2573.36 2924.87 2565.79 2896.12 2557.94C2895.98 2558 2895.86 2558.09 2895.77 2558.21C2895.69 2558.33 2895.65 2558.47 2895.65 2558.62C2895.65 2558.77 2895.69 2558.91 2895.77 2559.03C2895.86 2559.15 2895.98 2559.25 2896.12 2559.3C2946.22 2574.94 2995.39 2593.41 3043.39 2614.64C3091.46 2635.31 3138.93 2656.82 3185.79 2679.17C3212.83 2691.88 3238.43 2705.76 3264.66 2719.28C3264.78 2719.39 3264.92 2719.47 3265.07 2719.51C3265.22 2719.55 3265.39 2719.56 3265.54 2719.53C3265.7 2719.49 3265.85 2719.42 3265.97 2719.32C3266.09 2719.22 3266.19 2719.09 3266.25 2718.94C3266.31 2718.79 3266.34 2718.63 3266.33 2718.47C3266.31 2718.31 3266.26 2718.16 3266.18 2718.02C3266.09 2717.89 3265.97 2717.78 3265.83 2717.7C3265.7 2717.62 3265.54 2717.57 3265.38 2717.57Z" fill="#263238"/>
<path d="M3346.5 2459.79L2922.43 2445.73C2922.43 2445.73 2843.48 2236.45 2813.47 2050.24C2783.45 1864.03 2935.95 1920.9 3095.12 2120.27C3254.29 2319.64 3346.5 2459.79 3346.5 2459.79Z" fill="#00E340"/>
<path d="M2969.57 2290.26C2967.61 2291.88 2965.3 2293.02 2962.81 2293.59C2960.57 2294.07 2958.24 2293.97 2956.04 2293.29C2953.85 2292.61 2951.87 2291.38 2950.28 2289.72C2948.44 2287.86 2946.2 2286.45 2943.74 2285.58C2941.28 2284.71 2938.65 2284.41 2936.05 2284.69C2933.45 2284.98 2930.95 2285.85 2928.73 2287.23C2926.52 2288.61 2924.64 2290.48 2923.25 2292.69C2921.62 2295.12 2919.82 2297.38 2918.38 2299.99C2920.99 2298.55 2923.25 2296.75 2925.77 2295.12C2927.69 2293.43 2929.97 2292.2 2932.44 2291.52C2934.65 2290.96 2936.97 2290.98 2939.18 2291.56C2941.38 2292.15 2943.41 2293.28 2945.06 2294.85C2947.52 2297.31 2950.65 2299 2954.06 2299.72C2957.46 2300.44 2961 2300.16 2964.25 2298.91C2967.3 2297.6 2969.9 2295.44 2971.74 2292.69C2973.36 2290.26 2975.16 2288 2976.6 2285.39C2974.26 2286.83 2972.01 2288.63 2969.57 2290.26ZM3103.15 2212.29C3102.51 2209.41 3102.15 2206.53 3101.34 2203.28C3100.53 2206.17 3100.17 2209.05 3099.63 2212.29C3099.46 2214.83 3098.72 2217.29 3097.47 2219.5C3096.31 2221.47 3094.67 2223.11 3092.69 2224.27C3090.72 2225.42 3088.48 2226.04 3086.2 2226.08C3082.7 2226.09 3079.27 2227.12 3076.34 2229.04C3073.41 2230.96 3071.11 2233.69 3069.71 2236.9C3068.48 2239.96 3068.17 2243.31 3068.81 2246.54C3069.35 2249.43 3069.71 2252.31 3070.52 2255.56C3071.33 2252.67 3071.69 2249.79 3072.32 2246.54C3072.51 2244.01 3073.31 2241.57 3074.66 2239.42C3075.92 2237.49 3077.65 2235.91 3079.68 2234.82C3081.71 2233.74 3083.99 2233.18 3086.29 2233.2C3088.86 2233.18 3091.39 2232.58 3093.7 2231.46C3096.01 2230.34 3098.04 2228.73 3099.65 2226.73C3101.26 2224.73 3102.41 2222.4 3103.02 2219.9C3103.62 2217.41 3103.66 2214.81 3103.15 2212.29ZM2954.16 1979.13C2954.07 1980.15 2954.07 1981.17 2954.16 1982.19C2954.79 1984.99 2955.06 1987.87 2955.87 1990.75C2956.68 1987.87 2957.04 1984.99 2957.67 1982.19C2956.86 1980.93 2955.6 1980.03 2954.34 1979.13H2954.16ZM3256.37 2331.81C3253.19 2331.73 3250.18 2330.4 3247.98 2328.11C3245.5 2325.65 3242.35 2323.97 3238.93 2323.26C3235.51 2322.56 3231.95 2322.87 3228.7 2324.15C3225.66 2325.42 3223.06 2327.55 3221.22 2330.27C3219.59 2332.8 3217.79 2335.05 3216.35 2337.67C3218.96 2336.22 3221.22 2334.42 3223.74 2332.8C3225.62 2331.11 3227.93 2329.96 3230.41 2329.46C3232.66 2328.97 3235 2329.05 3237.21 2329.72C3239.42 2330.38 3241.42 2331.59 3243.03 2333.25C3245.31 2335.41 3248.11 2336.94 3251.16 2337.68C3254.21 2338.42 3257.41 2338.36 3260.42 2337.49L3256.37 2331.81ZM2962.9 2120.45C2960.35 2120.22 2957.89 2119.42 2955.69 2118.11C2953.77 2116.84 2952.2 2115.12 2951.13 2113.08C2950.06 2111.05 2949.52 2108.78 2949.56 2106.48C2949.46 2102.96 2948.33 2099.55 2946.31 2096.67C2944.29 2093.79 2941.48 2091.56 2938.21 2090.26C2935.11 2089.17 2931.78 2088.96 2928.56 2089.63C2925.68 2090.26 2922.79 2090.62 2919.55 2091.43C2922.43 2092.15 2925.32 2092.51 2928.56 2093.14C2931.13 2093.31 2933.62 2094.05 2935.86 2095.3C2937.82 2096.48 2939.45 2098.12 2940.6 2100.09C2941.75 2102.06 2942.39 2104.29 2942.44 2106.57C2942.45 2110.07 2943.47 2113.5 2945.39 2116.43C2947.32 2119.36 2950.05 2121.66 2953.26 2123.07C2956.32 2124.29 2959.67 2124.6 2962.9 2123.97C2965.7 2123.34 2968.58 2123.07 2971.47 2122.25C2968.85 2121.44 2965.97 2121.08 2963.17 2120.45H2962.9ZM3157.94 2417.07C3155.41 2416.86 3152.96 2416.02 3150.82 2414.64C3148.88 2413.4 3147.28 2411.68 3146.19 2409.64C3145.1 2407.6 3144.55 2405.32 3144.61 2403.01C3144.6 2400.44 3144.02 2397.9 3142.9 2395.59C3141.78 2393.27 3140.16 2391.24 3138.16 2389.63C3136.15 2388.02 3133.81 2386.88 3131.31 2386.3C3128.81 2385.71 3126.21 2385.69 3123.7 2386.25C3120.81 2386.88 3117.93 2387.15 3114.68 2387.96C3117.57 2388.77 3120.45 2389.13 3123.7 2389.76C3126.24 2389.89 3128.71 2390.63 3130.91 2391.92C3132.89 2393.07 3134.54 2394.71 3135.69 2396.68C3136.84 2398.66 3137.46 2400.9 3137.49 2403.19C3137.51 2406.68 3138.54 2410.08 3140.46 2413C3142.38 2415.91 3145.1 2418.2 3148.3 2419.59C3151.34 2420.89 3154.7 2421.23 3157.94 2420.59C3160.83 2419.95 3163.71 2419.59 3166.96 2418.78C3163.98 2417.97 3161.1 2417.61 3158.21 2417.07H3157.94Z" fill="#181818"/>
<path d="M2939.83 2444.29C2937.49 2444.29 2922.61 2441.68 2922.52 2441.68C2921.44 2436.18 2897.29 2348.66 2890.89 2329.64C2878 2290.8 2862.77 2252.67 2848.08 2214.55C2847.95 2214.35 2847.76 2214.2 2847.53 2214.12C2847.31 2214.05 2847.07 2214.04 2846.85 2214.11C2846.62 2214.19 2846.43 2214.33 2846.29 2214.52C2846.16 2214.71 2846.09 2214.94 2846.09 2215.18C2855.65 2247.99 2864.66 2280.97 2874.48 2313.78C2871.51 2309.09 2868.63 2304.77 2865.47 2299.72C2859.79 2289.99 2854.75 2279.89 2849.43 2269.98C2849.31 2269.8 2849.13 2269.67 2848.93 2269.61C2848.73 2269.56 2848.51 2269.57 2848.31 2269.66C2848.12 2269.74 2847.96 2269.9 2847.87 2270.09C2847.78 2270.28 2847.76 2270.49 2847.81 2270.7C2852.34 2284.45 2858.61 2297.56 2866.46 2309.73C2869.84 2314.94 2873.55 2319.94 2877.55 2324.69L2879.98 2332.89C2886.02 2352 2917.03 2446.72 2918.65 2446.81H2939.11C2940.91 2447.17 2940.91 2444.29 2939.83 2444.29Z" fill="#263238"/>
<path d="M3277.73 2377.68C3186.34 2370.83 3094.22 2370.38 3002.47 2371.82C2976.45 2372.19 2950.47 2373.18 2924.51 2374.8C2924.39 2374.85 2924.29 2374.93 2924.22 2375.03C2924.15 2375.14 2924.11 2375.26 2924.11 2375.38C2924.11 2375.51 2924.15 2375.63 2924.22 2375.74C2924.29 2375.84 2924.39 2375.92 2924.51 2375.97C2970.29 2378.4 3016.08 2378.94 3061.96 2379.85C3107.83 2380.75 3153.89 2381.11 3199.86 2380.66C3225.81 2380.66 3251.77 2380.21 3277.73 2379.4C3277.91 2379.34 3278.07 2379.22 3278.18 2379.07C3278.29 2378.91 3278.35 2378.73 3278.35 2378.54C3278.35 2378.35 3278.29 2378.16 3278.18 2378.01C3278.07 2377.86 3277.91 2377.74 3277.73 2377.68Z" fill="#263238"/>
<path d="M1809.59 3192.19H1874.31V3149.92H1809.59V3192.19Z" fill="black"/>
<path d="M1725.68 3189.4H1790.4V3147.13H1725.68V3189.4Z" fill="black"/>
<path d="M1641.68 3186.6H1706.39V3144.33H1641.68V3186.6Z" fill="black"/>
<path d="M1557.77 3183.81H1622.48V3141.54H1557.77V3183.81Z" fill="black"/>
<path d="M1473.77 3181.02H1538.48V3138.74H1473.77V3181.02Z" fill="black"/>
<path d="M1389.86 3178.22H1454.57V3135.95H1389.86V3178.22Z" fill="black"/>
<path d="M1305.85 3175.43H1370.57V3133.16H1305.85V3175.43Z" fill="black"/>
<path d="M1221.94 3172.63H1286.66V3130.36H1221.94V3172.63Z" fill="black"/>
<path d="M1137.94 3169.84H1202.66V3127.57H1137.94V3169.84Z" fill="black"/>
<path d="M1122.08 3216.53H1890.17V3165.15L1122.08 3143.7V3216.53Z" fill="#181818"/>
<path d="M372.465 3013.73H1640.42L1438.8 2069.71H170.753L372.465 3013.73Z" fill="black"/>
<path d="M325.507 3013.73H1593.55L1391.84 2069.71H123.886L325.507 3013.73Z" fill="#181818"/>
<path d="M749.12 2487.01C752.991 2508.51 764.126 2528.03 780.663 2542.3C797.201 2556.58 818.137 2564.74 839.971 2565.42C849.829 2565.74 859.63 2563.81 868.637 2559.79C877.643 2555.77 885.621 2549.76 891.971 2542.21C898.321 2534.67 902.878 2525.78 905.299 2516.22C907.719 2506.66 907.941 2496.67 905.947 2487.01C902.029 2465.53 890.88 2446.04 874.353 2431.78C857.826 2417.51 836.915 2409.33 815.095 2408.6C805.237 2408.29 795.437 2410.21 786.43 2414.23C777.423 2418.25 769.445 2424.26 763.095 2431.81C756.745 2439.36 752.189 2448.24 749.768 2457.81C747.348 2467.37 747.126 2477.35 749.12 2487.01Z" fill="#263238"/>
<path d="M684.136 3260.24H1307.75V3211.84L684.136 3191.65V3260.24Z" fill="black"/>
<path d="M514.601 3260.15H849.435L1051.06 2731.26H716.222L514.601 3260.15Z" fill="black"/>
<path d="M459.441 3260.15H794.275L995.987 2731.26H661.153L459.441 3260.15Z" fill="#263238"/>
<path d="M1913.87 3273.13H2556.86C2611.75 3273.13 2532.35 3116.93 2332.08 3056.81C2131.81 2996.7 1850.33 3214.54 1913.87 3273.13Z" fill="#181818"/>
<path d="M2166.24 3273.13C2162.17 3256.09 2156.97 3239.35 2150.65 3223.02C2144.4 3206.89 2136.77 3191.33 2127.84 3176.51C2119.08 3161.65 2108.61 3147.85 2096.66 3135.41L2087.65 3126.4L2077.64 3118.01C2071.33 3111.89 2063.49 3107.92 2056.55 3102.33C2073.1 3109.04 2088.35 3118.58 2101.62 3130.54C2115.03 3142.53 2126.52 3156.52 2135.69 3172C2144.84 3187.4 2152.13 3203.83 2157.41 3220.94C2162.61 3237.88 2165.58 3255.42 2166.24 3273.13Z" fill="#263238"/>
<path d="M2089.99 3124.5C2080.98 3129.19 2072.41 3133.52 2063.76 3138.65C2055.11 3143.79 2046.37 3148.3 2037.89 3153.34C2020.95 3163.53 2004.1 3173.8 1988.14 3185.34C1971.94 3196.45 1956.85 3209.09 1943.08 3223.11C1936.25 3230.09 1930.2 3237.79 1925.05 3246.09C1919.66 3254.36 1915.76 3263.51 1913.51 3273.13C1914.09 3263.01 1916.69 3253.11 1921.18 3244.02C1925.75 3234.93 1931.31 3226.38 1937.76 3218.51C1950.95 3203.09 1966.1 3189.45 1982.82 3177.95C2015.76 3155.08 2051.82 3137.08 2089.9 3124.5H2089.99Z" fill="#263238"/>
<path d="M3121.08 2899L3082.87 3378.85H2818.96L2780.75 2899H3121.08Z" fill="#00E340"/>
<path opacity="0.1" d="M3121.08 2899L3082.87 3378.85H2818.96L2780.75 2899H3121.08Z" fill="black"/>
<path d="M3143.79 2855.73H2755.78V2925.68H3143.79V2855.73Z" fill="black"/>
<path d="M3117.2 2855.73H2782.37L2801.93 2777.14H3097.65L3117.2 2855.73Z" fill="#181818"/>
<path d="M3042.58 3143.16C3042.58 3205.44 3001.57 3255.91 2950.91 3255.91C2900.26 3255.91 2859.25 3205.44 2859.25 3143.16C2859.25 3080.88 2900.35 3030.32 2950.91 3030.32C3001.48 3030.32 3042.58 3080.88 3042.58 3143.16Z" fill="#181818"/>
</svg>
