<svg width="249" height="225" viewBox="0 0 249 225" fill="none" xmlns="http://www.w3.org/2000/svg">
<path d="M103.021 224.043C133.111 219.696 133.971 192.113 133.202 175.258C133.093 172.88 130.365 171.605 128.444 173.01L101.006 193.075C100.233 193.64 99.7764 194.54 99.7764 195.497V221.149C99.7764 222.905 101.283 224.294 103.021 224.043Z" fill="#181818"/>
<path d="M1.58181 131.06C5.18918 102.99 34.3216 101.085 52.2765 101.152C54.7515 101.161 56.1298 104.02 54.626 105.977L34.581 132.07C34.0394 132.775 33.211 133.201 32.3203 133.233L4.58175 134.229C2.81369 134.292 1.35649 132.813 1.58181 131.06Z" fill="#181818"/>
<path d="M204.355 111.318L90.6641 197.316C89.4408 198.241 87.7166 198.095 86.6669 196.976L32.0595 138.799C31.0075 137.678 30.9728 135.943 31.9793 134.782L118.403 35.0116C118.786 34.5694 119.29 34.2489 119.853 34.0894L234.246 1.67977C236.538 1.03026 238.636 3.18379 237.927 5.45863L205.409 109.818C205.223 110.416 204.854 110.941 204.355 111.318Z" fill="#FFC700"/>
<path fill-rule="evenodd" clip-rule="evenodd" d="M248.549 2.82472L229.592 139.042C228.992 142.959 226.612 146.439 223.066 148.584L95.2365 205.126C89.1727 208.794 81.1591 207.749 76.3918 202.67L29.3428 145.877L45.2592 132.746L97.5318 188.436L207.578 120.676L227.562 0L248.549 2.82472Z" fill="black"/>
<path d="M48.2628 156.372L23.1365 202.439C21.7681 204.948 24.3499 207.767 26.9693 206.625L74.8065 185.765C75.5231 185.453 76.0894 184.873 76.3849 184.149L93.6947 141.746C94.7092 139.26 92.1991 136.796 89.7328 137.855L49.7121 155.052C49.0948 155.318 48.5845 155.782 48.2628 156.372Z" fill="#181818"/>
<ellipse cx="156.561" cy="78.4367" rx="21.2018" ry="19.8773" fill="#181818"/>
</svg>
