<svg width="224" height="223" viewBox="0 0 224 223" fill="none" xmlns="http://www.w3.org/2000/svg">
<path d="M28.0526 189.18C-10.8145 147.107 -8.21594 81.4921 33.8568 42.6249L49.1951 28.4552C91.2678 -10.4119 156.883 -7.81336 195.75 34.2594C234.617 76.3321 232.018 141.947 189.946 180.814L174.607 194.984C132.535 233.851 66.9198 231.252 28.0526 189.18Z" fill="black"/>
<ellipse cx="121.184" cy="102.996" rx="89.8774" ry="91.7498" fill="#FFC309"/>
<ellipse cx="137.35" cy="62.3535" rx="14.0433" ry="20.5969" transform="rotate(-37.3198 137.35 62.3535)" fill="black"/>
<ellipse cx="83.0484" cy="96.0576" rx="14.0433" ry="20.5969" transform="rotate(-37.3198 83.0484 96.0576)" fill="black"/>
<path d="M95.4486 139.332L168.653 93.6871C170.403 92.5957 172.668 93.0103 173.75 94.7663C179.606 104.269 194.296 134.4 162.378 157.298C126.356 183.14 101.469 154.617 94.2912 144.594C93.0339 142.839 93.6162 140.475 95.4486 139.332Z" fill="black"/>
</svg>
