<svg width="582" height="496" viewBox="0 0 582 496" fill="none" xmlns="http://www.w3.org/2000/svg">
<path d="M0 440.264L72.7467 439.957L145.493 439.842L291 439.624L436.507 439.842L509.253 439.944L582 440.264L509.253 440.571L436.507 440.686L291 440.904L145.493 440.686L72.7467 440.571L0 440.264Z" fill="#263238"/>
<path d="M182.362 129.485C210.705 129.485 233.682 107.226 233.682 79.7696C233.682 52.3127 210.705 30.0546 182.362 30.0546C154.018 30.0546 131.042 52.3127 131.042 79.7696C131.042 107.226 154.018 129.485 182.362 129.485Z" fill="#00E340"/>
<path d="M182.362 117.712C203.993 117.712 221.529 100.725 221.529 79.7697C221.529 58.8149 203.993 41.8276 182.362 41.8276C160.73 41.8276 143.194 58.8149 143.194 79.7697C143.194 100.725 160.73 117.712 182.362 117.712Z" fill="white"/>
<path d="M209.612 86.0756C213.198 71.5081 203.914 56.8833 188.876 53.4101C173.838 49.937 158.741 58.9307 155.155 73.4982C151.57 88.0657 160.854 102.691 175.892 106.164C190.93 109.637 206.027 100.643 209.612 86.0756Z" fill="#00E340"/>
<path d="M197.458 83.1285C199.37 75.0552 194.164 67.0092 185.83 65.1572C177.496 63.3052 169.19 68.3485 167.278 76.4218C165.366 84.4951 170.572 92.5411 178.906 94.3931C187.24 96.2451 195.546 91.2018 197.458 83.1285Z" fill="white"/>
<path d="M189.363 79.7697C189.363 81.1111 188.953 82.4223 188.183 83.5377C187.414 84.653 186.321 85.5223 185.041 86.0356C183.762 86.549 182.354 86.6833 180.996 86.4216C179.638 86.1599 178.391 85.5139 177.411 84.5654C176.432 83.6169 175.766 82.4084 175.495 81.0928C175.225 79.7772 175.364 78.4135 175.894 77.1742C176.424 75.9349 177.321 74.8757 178.472 74.1305C179.624 73.3852 180.977 72.9874 182.362 72.9874C183.282 72.9858 184.193 73.16 185.043 73.5003C185.894 73.8405 186.666 74.34 187.317 74.9701C187.967 75.6003 188.483 76.3486 188.834 77.1722C189.185 77.9958 189.365 78.8785 189.363 79.7697Z" fill="#00E340"/>
<path d="M252.455 10.3333L186.135 74.5784L187.723 76.1166L254.043 11.8716L252.455 10.3333Z" fill="#455A64"/>
<path d="M191.028 77.5175L182.362 79.7697L184.687 71.3623L191.028 77.5175Z" fill="#263238"/>
<path d="M264.342 6.91832L251.911 18.96L242.149 21.8392L245.135 12.3953L257.565 0.353638L254.593 9.79757L264.342 6.91832Z" fill="#263238"/>
<path d="M100.936 305.119C100.936 304.249 100.843 303.378 100.843 302.559H101.834C101.834 303.391 101.834 304.236 101.926 305.119H100.936Z" fill="#263238"/>
<path d="M203.287 379.506H203.116V378.546H203.301C204.965 378.546 206.682 378.546 208.387 378.418V379.378C206.709 379.429 204.978 379.506 203.287 379.506ZM196.471 379.288C194.714 379.186 192.931 379.032 191.187 378.853L191.293 377.893C193.023 378.085 194.794 378.226 196.577 378.341L196.471 379.288ZM215.057 378.891L214.952 377.932C216.682 377.753 218.439 377.522 220.17 377.266L220.315 378.213C218.571 378.444 216.801 378.661 215.057 378.853V378.891ZM184.675 377.944C182.944 377.65 181.201 377.317 179.391 376.934L179.615 375.999C181.333 376.371 183.063 376.703 184.78 376.998L184.675 377.944ZM226.946 377.036L226.735 376.102C228.439 375.743 230.17 375.334 231.86 374.912L232.111 375.833C230.315 376.23 228.571 376.639 226.854 376.946L226.946 377.036ZM173.05 375.347C171.359 374.873 169.655 374.361 167.978 373.811L168.295 372.903C169.959 373.453 171.65 373.965 173.328 374.425L173.05 375.347ZM238.479 374.067L238.175 373.159C239.813 372.634 241.49 372.071 243.155 371.469L243.498 372.365C241.728 372.89 240.037 373.453 238.386 373.978L238.479 374.067ZM161.756 371.61C160.118 370.97 158.48 370.33 156.881 369.575L157.291 368.692C158.876 369.409 160.514 370.087 162.126 370.727L161.756 371.61ZM249.654 369.959L249.258 369.076C250.869 368.411 252.468 367.682 254.013 366.914L254.462 367.771C252.798 368.449 251.186 369.192 249.562 369.87L249.654 369.959ZM150.924 366.709C149.352 365.89 147.793 365.045 146.3 364.15L146.802 363.331C148.295 364.188 149.84 365.033 151.399 365.89L150.924 366.709ZM260.262 364.662L259.746 363.843C261.239 362.972 262.732 362.038 264.185 361.079L264.74 361.872C263.181 362.755 261.675 363.689 260.169 364.572L260.262 364.662ZM140.686 360.733C139.206 359.773 137.753 358.775 136.34 357.764L136.934 356.996C138.255 357.995 139.774 358.993 141.241 359.94L140.686 360.733ZM270.143 358.058L269.535 357.316C270.856 356.267 272.256 355.166 273.564 354.04L274.224 354.77C272.745 355.806 271.371 356.92 269.984 357.969L270.143 358.058ZM131.201 353.772C129.88 352.658 128.559 351.519 127.238 350.368L127.912 349.664C129.233 350.803 130.554 351.942 131.875 353.029L131.201 353.772ZM279.072 350.38L278.372 349.702C279.588 348.525 280.816 347.297 282.018 346.03L282.745 346.669C281.371 347.86 280.142 349.114 278.914 350.291L279.072 350.38ZM122.311 345.748C121.096 344.468 119.894 343.189 118.744 341.909L119.497 341.282C120.633 342.562 121.822 343.841 123.024 345.121L122.311 345.748ZM286.959 341.743L286.206 341.129C287.315 339.849 288.425 338.505 289.495 337.149L290.274 337.737C289.191 339.094 288.082 340.45 286.959 341.743ZM114.583 336.906C113.526 335.524 112.496 334.103 111.532 332.683L112.364 332.158C113.315 333.553 114.332 334.961 115.389 336.33L114.583 336.906ZM294.237 332.58L293.418 332.017C294.436 330.635 295.439 329.24 296.417 327.82L297.249 328.345C296.285 329.778 295.255 331.186 294.237 332.58ZM108.124 327.155C107.252 325.619 106.459 324.058 105.746 322.535L106.644 322.138C107.358 323.648 108.137 325.184 108.982 326.694L108.124 327.155ZM300.855 322.957L300.01 322.445C300.948 321.012 301.859 319.553 302.771 318.082L303.616 318.581C302.705 320.052 301.793 321.511 300.855 322.957ZM103.328 316.559C102.76 314.883 102.285 313.206 101.915 311.581L102.879 311.376C103.249 312.976 103.712 314.614 104.2 316.265L103.328 316.559ZM306.972 313.091L306.1 312.618C306.972 311.133 307.83 309.649 308.742 308.152L309.614 308.612C308.702 310.071 307.83 311.555 306.972 313.04V313.091ZM312.705 302.969L311.833 302.508C312.661 301.007 313.48 299.497 314.29 297.978L315.175 298.426C314.356 299.898 313.537 301.446 312.705 302.918V302.969ZM318.2 292.732L317.328 292.297C318.121 290.774 318.913 289.251 319.719 287.728L320.604 288.15L318.2 292.732ZM323.563 282.417L322.678 281.995L325.043 277.401L325.928 277.836L323.563 282.417ZM328.847 272.103L327.962 271.668L330.353 267.087L331.238 267.522L328.847 272.103ZM334.237 261.866L333.365 261.431L335.796 256.875L336.681 257.323L334.237 261.866ZM339.772 251.629L338.9 251.168C339.732 249.671 340.578 248.174 341.423 246.676L342.295 247.137C341.476 248.558 340.644 250.055 339.877 251.539L339.772 251.629ZM345.518 241.571L344.646 241.097C345.518 239.613 346.403 238.141 347.288 236.669L348.147 237.156C347.301 238.551 346.482 240.022 345.558 241.494L345.518 241.571ZM351.555 231.692L350.71 231.18C351.634 229.734 352.559 228.288 353.51 226.854L354.355 227.366C353.444 228.723 352.506 230.169 351.595 231.615L351.555 231.692ZM357.962 222.03L357.129 221.493C358.12 220.072 359.124 218.665 360.141 217.257L360.947 217.82C359.97 219.138 358.979 220.546 358.001 221.953L357.962 222.03ZM364.818 212.625L364.012 212.061C365.069 210.692 366.139 209.323 367.235 207.979L368.014 208.568C366.971 209.835 365.901 211.191 364.857 212.548L364.818 212.625ZM372.149 203.59L371.383 202.976C372.519 201.696 373.668 200.353 374.831 199.073L375.57 199.7C374.448 200.903 373.312 202.208 372.189 203.513L372.149 203.59ZM380.075 194.978L379.348 194.313C380.564 193.033 381.779 191.843 383.034 190.627L383.734 191.305C382.466 192.431 381.251 193.66 380.049 194.901L380.075 194.978ZM388.476 186.852L387.79 186.148C389.111 184.984 390.432 183.832 391.753 182.706L392.4 183.423C391.026 184.472 389.718 185.624 388.45 186.775L388.476 186.852ZM397.406 179.302L396.785 178.56C398.106 177.472 399.56 176.41 400.947 175.386L401.554 176.141C400.154 177.088 398.754 178.15 397.38 179.225L397.406 179.302ZM406.865 172.379L406.297 171.598C407.736 170.626 409.216 169.653 410.695 168.719L411.237 169.525C409.744 170.37 408.278 171.343 406.838 172.302L406.865 172.379ZM416.825 166.134L416.31 165.315C417.829 164.432 419.374 163.562 420.907 162.756L421.382 163.588C419.837 164.33 418.304 165.187 416.798 166.058L416.825 166.134Z" fill="#263238"/>
<path d="M427.445 160.376L426.996 159.518L429.374 158.38L429.81 159.237L427.445 160.376Z" fill="#263238"/>
<path d="M415.093 151.521L407.854 170.767L423.059 159.275L481.156 138.865L415.093 151.521Z" fill="#00E340"/>
<path opacity="0.1" d="M415.093 151.521L407.854 170.767L423.059 159.275L481.156 138.865L415.093 151.521Z" fill="#17153E"/>
<path d="M425 163.767L407.854 170.767L423.059 159.275L425 163.767Z" fill="#263238"/>
<path d="M423.059 159.275L481.156 138.865L433.495 183.909L423.059 159.275Z" fill="#00E340"/>
<path d="M415.093 151.521L390.958 136.408L481.155 138.865L415.093 151.521Z" fill="#00E340"/>
<path d="M527.905 15.9783H363.588V116.253H527.905V15.9783Z" fill="#181818"/>
<path d="M377.129 38.9355C399.929 38.7947 422.729 38.8331 445.516 38.7819C468.303 38.7307 491.117 38.7819 513.904 38.9355C491.117 39.0762 468.317 39.0378 445.516 39.089C422.716 39.1402 399.929 39.1146 377.129 38.9355Z" fill="#A6A6A6"/>
<path d="M377.129 52.0264C399.929 51.9113 422.729 51.9113 445.556 51.9113C468.383 51.9113 491.156 51.9113 513.943 52.0648C491.156 52.2056 468.356 52.1672 445.556 52.2312C422.756 52.2952 399.929 52.1672 377.129 52.0264Z" fill="#A6A6A6"/>
<path d="M377.129 65.1173C399.929 64.9766 422.729 65.015 445.516 64.9638C468.303 64.9126 491.117 64.9638 513.904 65.1173C491.117 65.2581 468.317 65.2197 445.516 65.2837C422.716 65.3477 399.929 65.2581 377.129 65.1173Z" fill="#A6A6A6"/>
<path d="M377.129 78.2084C399.929 78.0676 422.729 78.106 445.516 78.0548C468.303 78.0037 491.117 78.0548 513.904 78.2084C491.117 78.3492 468.317 78.3108 445.516 78.3748C422.716 78.4387 399.929 78.3492 377.129 78.2084Z" fill="#A6A6A6"/>
<path d="M377.129 91.2993C399.929 91.1586 422.729 91.197 445.516 91.1458C468.303 91.0946 491.117 91.1458 513.904 91.2993C491.117 91.4401 468.317 91.4017 445.516 91.4657C422.716 91.5297 399.929 91.4401 377.129 91.2993Z" fill="#A6A6A6"/>
<path d="M404.672 30.4258C404.87 42.6594 404.817 54.893 404.896 67.1266C404.976 79.3602 404.896 91.581 404.672 103.815C404.474 91.581 404.513 79.3474 404.434 67.1266C404.355 54.9058 404.474 42.6594 404.672 30.4258Z" fill="#A6A6A6"/>
<path d="M428.382 30.4258C428.593 42.6594 428.541 54.893 428.62 67.1266C428.699 79.3602 428.62 91.581 428.382 103.815C428.184 91.581 428.237 79.3474 428.157 67.1266C428.078 54.9058 428.118 42.6594 428.382 30.4258Z" fill="#A6A6A6"/>
<path d="M451.975 30.4258C452.173 42.6594 452.12 54.893 452.212 67.1266C452.305 79.3602 452.212 91.581 451.975 103.815C451.776 91.581 451.816 79.3474 451.737 67.1266C451.657 54.9058 451.776 42.6594 451.975 30.4258Z" fill="#A6A6A6"/>
<path d="M475.62 30.4258C475.832 42.6594 475.779 54.893 475.858 67.1266C475.937 79.3602 475.858 91.581 475.62 103.815C475.422 91.581 475.475 79.3474 475.396 67.1266C475.316 54.9058 475.422 42.6594 475.62 30.4258Z" fill="#A6A6A6"/>
<path d="M499.279 30.4258C499.477 42.6594 499.424 54.893 499.516 67.1266C499.609 79.3602 499.516 91.581 499.279 103.815C499.081 91.581 499.133 79.3474 499.041 67.1266C498.948 54.9058 499.081 42.6594 499.279 30.4258Z" fill="#A6A6A6"/>
<path opacity="0.5" d="M380.576 81.8043C384.75 81.8043 387.181 68.5086 393.152 68.5086C399.123 68.5086 399.691 78.2084 404.671 78.2084C409.651 78.2084 409.493 61.1633 416.19 61.1633C422.887 61.1633 421.315 68.0863 428.317 68.0863C435.318 68.0863 432.676 52.0265 439.994 52.0265C447.312 52.0265 444.353 74.1519 451.975 74.1519C456.797 74.1519 458.66 67.1265 464.419 67.1265C468.237 67.1265 470.482 70.6328 475.463 70.6328C480.443 70.6328 481.539 57.1196 487.761 57.1196C493.983 57.1196 494.696 65.1175 499.28 65.1175C503.864 65.1175 505.502 52.0265 513.903 52.0265V103.815H380.576V81.8043Z" fill="#00E340"/>
<path d="M380.576 82.4441V81.1644C381.897 81.1644 383.575 78.0548 384.856 75.7898C387.036 71.9508 389.295 67.8687 393.152 67.8687C397.009 67.8687 398.7 70.8119 400.312 73.4224C401.633 75.4571 402.954 77.5686 404.671 77.5686C406.23 77.5686 407.577 73.4736 408.555 70.492C410.179 65.5909 411.844 60.5234 416.19 60.5234C420.06 60.5234 421.58 62.5197 422.914 64.2728C424.248 66.026 425.344 67.4464 428.317 67.4464C430.959 67.4464 432.068 63.697 433.085 60.0627C434.287 55.8015 435.529 51.3866 439.994 51.3866C444.459 51.3866 445.555 56.9403 446.758 62.8268C447.735 67.5872 448.937 73.512 451.975 73.512C453.785 73.512 455.278 72.0404 456.85 70.5048C458.752 68.6109 460.932 66.4867 464.419 66.4867C466.305 66.5997 468.127 67.191 469.703 68.2014C471.41 69.2841 473.385 69.9029 475.423 69.9929C477.153 69.9929 478.725 66.781 479.994 64.196C481.856 60.3571 483.785 56.5181 487.721 56.5181C491.658 56.5181 493.573 59.0774 495.277 61.3296C496.519 62.9676 497.695 64.516 499.24 64.516C500.561 64.516 502.054 62.0334 503.362 59.8324C505.607 56.083 508.408 51.425 513.864 51.425V52.7047C509.663 52.7047 507.259 56.7484 505.092 60.3827C503.256 63.4411 501.816 65.8596 499.24 65.8596C496.664 65.8596 495.132 63.9785 493.613 62.0206C492.094 60.0627 490.509 57.9129 487.721 57.9129C485.079 57.9129 483.349 61.5471 481.764 64.7591C480.02 68.3422 478.501 71.4262 475.423 71.4262C472.983 71.3511 470.61 70.6393 468.554 69.3659C467.315 68.543 465.876 68.0448 464.38 67.9199C461.87 67.9199 460.073 69.673 458.343 71.3878C456.612 73.1025 454.723 74.9452 451.936 74.9452C447.273 74.9452 446.097 69.2123 444.869 63.1595C443.931 58.5527 442.755 52.8198 439.954 52.8198C437.154 52.8198 435.886 56.8764 434.882 60.4978C433.667 64.8231 432.517 68.918 428.277 68.918C424.037 68.918 422.61 66.8578 421.223 65.079C419.836 63.3003 418.885 62.0206 416.15 62.0206C413.416 62.0206 411.659 66.9985 410.351 70.9783C408.858 75.4955 407.709 79.053 404.631 79.053C401.553 79.053 400.14 76.66 398.555 74.1263C397.089 71.7845 395.583 69.3531 393.112 69.3531C390.642 69.3531 388.33 73.2945 386.507 76.4552C384.658 79.7056 383.126 82.4441 380.576 82.4441Z" fill="#00E340"/>
<path d="M380.576 31.2191C380.721 43.3247 380.853 55.4176 380.867 67.5232L381.012 103.815L380.576 103.52L447.246 103.597H480.575L513.903 103.763L480.575 103.93L447.246 103.994L380.576 104.07H380.14V103.763L380.285 67.472C380.299 55.4176 380.418 43.3247 380.576 31.2191Z" fill="#A6A6A6"/>
<path d="M180.843 494.842C183.736 495.75 266.483 494.701 269.6 492.73C270.802 492.001 271.344 480.305 271.595 466.164V465.729C271.595 462.812 271.687 459.805 271.687 456.772C271.687 456.349 271.687 455.927 271.687 455.492L267.724 413.903L212.375 414.44L217.831 455.633V457.271L218.161 465.793V466.664C218.161 466.664 186.669 480.74 183.472 483.299C180.275 485.859 177.937 493.946 180.843 494.842Z" fill="#DD6A57"/>
<path d="M180.843 494.842C183.736 495.75 266.483 494.701 269.6 492.73C270.802 492.001 271.344 480.305 271.595 466.165V465.729C271.595 462.812 271.687 459.805 271.687 456.772C271.687 456.35 271.687 455.927 271.687 455.492L217.778 455.633V457.271L218.108 465.793V466.664C218.108 466.664 186.616 480.74 183.419 483.299C180.222 485.859 177.937 493.946 180.843 494.842Z" fill="#EBEBEB"/>
<path d="M180.83 494.829C182.323 495.302 204.806 495.251 226.774 494.829C231.2 494.752 235.585 494.65 239.773 494.535C255.44 494.125 268.399 493.498 269.601 492.743C270.803 491.988 271.331 480.65 271.569 466.766C271.569 466.574 271.569 466.382 271.569 466.177C271.569 465.973 271.569 465.87 271.569 465.729H271.503L218.188 465.819V466.702C218.188 466.702 186.709 480.778 183.512 483.338C180.315 485.897 177.937 493.933 180.83 494.829Z" fill="#00E340"/>
<path d="M181.741 491.719C195.677 491.208 251.965 490.44 265.782 490.964C265.901 490.964 265.901 491.041 265.782 491.054C251.978 491.847 195.691 492.18 181.741 491.937C181.437 491.937 181.437 491.732 181.741 491.719Z" fill="black"/>
<path d="M212.27 466.037C217.739 464.974 224.463 465.717 228.716 469.44C228.875 469.594 228.716 469.812 228.479 469.76C223.214 468.183 217.788 467.162 212.297 466.715C212.215 466.703 212.139 466.663 212.084 466.603C212.029 466.543 211.997 466.467 211.994 466.386C211.991 466.306 212.017 466.227 212.067 466.163C212.117 466.099 212.189 466.055 212.27 466.037Z" fill="black"/>
<path d="M208.333 468.404C213.815 467.342 220.539 468.071 224.78 471.808C224.938 471.949 224.78 472.179 224.555 472.128C219.288 470.559 213.863 469.538 208.373 469.082C208.28 469.087 208.189 469.056 208.12 468.996C208.05 468.936 208.008 468.852 208.003 468.762C207.998 468.672 208.03 468.584 208.092 468.517C208.153 468.45 208.24 468.409 208.333 468.404Z" fill="black"/>
<path d="M204.41 470.771C209.879 469.709 216.603 470.439 220.843 474.175C221.015 474.316 220.843 474.533 220.619 474.482C215.351 472.917 209.926 471.896 204.437 471.437C204.345 471.44 204.257 471.408 204.19 471.348C204.123 471.288 204.083 471.205 204.08 471.117C204.076 471.029 204.109 470.943 204.171 470.878C204.233 470.813 204.319 470.775 204.41 470.771Z" fill="black"/>
<path d="M226.774 494.816C231.2 494.739 235.585 494.637 239.773 494.522C255.44 494.112 268.399 493.485 269.601 492.73C270.803 491.975 271.331 480.638 271.569 466.753C271.569 466.561 271.569 466.369 271.569 466.165C271.569 465.96 271.569 465.857 271.569 465.717H271.503C264.224 470.682 238.478 487.279 226.774 494.816Z" fill="black"/>
<path d="M214.581 465.998H274.158C274.158 465.998 262.163 331.173 262.639 328.818C263.233 325.811 266.747 312.182 271.423 294.331C272.903 288.752 274.475 282.814 276.126 276.569C280.565 259.793 285.465 241.468 289.732 225.511C296.139 201.619 301.132 183.051 301.132 183.051H250.631C250.631 183.051 244.766 201.12 237.329 224.666C225.242 262.89 209.099 315.522 207.501 328.319C204.925 348.896 214.581 465.998 214.581 465.998Z" fill="#0E0E0E"/>
<path d="M217.211 456.145C226.312 455.966 223.697 455.889 232.798 455.812C237.263 455.812 266.523 455.518 270.684 456.183C270.709 456.183 270.732 456.192 270.75 456.209C270.767 456.226 270.777 456.249 270.777 456.273C270.777 456.296 270.767 456.319 270.75 456.336C270.732 456.353 270.709 456.362 270.684 456.362C266.523 457.028 237.263 456.784 232.798 456.746C223.697 456.657 226.312 456.593 217.211 456.401C217.176 456.401 217.142 456.387 217.117 456.363C217.093 456.339 217.079 456.307 217.079 456.273C217.079 456.239 217.093 456.206 217.117 456.182C217.142 456.158 217.176 456.145 217.211 456.145Z" fill="black"/>
<path d="M251.371 320.641C253.326 312.298 256.245 304.121 258.781 295.931C263.942 279.295 269.138 262.659 274.369 246.024C277.011 237.706 279.653 229.397 282.295 221.096C283.625 216.899 284.946 212.706 286.258 208.517C287.579 204.422 289.098 200.365 290.287 196.232C290.776 194.543 291.04 195.464 290.419 197.601C289.098 201.914 287.922 206.213 286.628 210.513C284.065 219.044 281.485 227.545 278.887 236.017C273.753 252.891 268.543 269.774 263.259 286.666C260.617 295.129 257.976 303.596 255.334 312.067C254.002 316.095 252.926 320.197 252.11 324.352C251.413 328.699 251.236 333.108 251.582 337.494C252.163 346.324 253.22 355.141 254.052 363.958L256.588 390.447C258.271 408.012 259.935 425.586 261.582 443.169C261.793 445.396 261.991 447.622 262.163 449.849C262.229 450.591 261.053 450.54 260.974 449.849C259.019 432.471 257.513 415.042 255.822 397.639C254.131 380.235 252.48 363.011 250.803 345.684C250.38 341.346 249.904 336.982 249.904 332.619C249.932 328.586 250.424 324.568 251.371 320.641Z" fill="black"/>
<path d="M256.365 183.051C259.879 209.323 266.563 258.552 271.424 294.382C282.825 251.078 301.133 183.051 301.133 183.051H256.365Z" fill="black"/>
<path d="M243.961 495.61C246.867 496.531 329.601 495.776 332.731 493.818C333.933 493.089 334.528 481.405 334.818 467.265C334.818 467.112 334.818 466.971 334.818 466.817C334.885 463.9 334.937 460.905 334.951 457.86C334.951 457.45 334.951 457.028 334.951 456.58C335.149 436.182 333.63 415.004 333.63 415.004L279.548 415.349L281.054 456.542V458.167L281.358 466.702V467.572C281.358 467.572 249.826 481.649 246.616 484.093C243.406 486.537 241.068 494.676 243.961 495.61Z" fill="#DD6A57"/>
<path d="M243.961 495.61C246.867 496.531 329.601 495.776 332.731 493.818C333.933 493.089 334.528 481.405 334.818 467.265C334.818 467.112 334.818 466.971 334.818 466.817C334.885 463.9 334.937 460.905 334.951 457.86C334.951 457.45 334.951 457.028 334.951 456.58H281.054V458.205L281.358 466.74V467.611C281.358 467.611 249.826 481.687 246.616 484.131C243.406 486.575 241.068 494.676 243.961 495.61Z" fill="#EBEBEB"/>
<path d="M243.96 495.61C246.867 496.531 329.6 495.776 332.731 493.818C333.933 493.089 334.527 481.405 334.818 467.265C334.818 467.111 334.818 466.971 334.818 466.817L281.424 466.727V467.598C281.424 467.598 249.892 481.674 246.682 484.118C243.472 486.562 241.068 494.675 243.96 495.61Z" fill="#00E340"/>
<path d="M244.872 492.5C258.822 492.039 315.109 491.464 328.927 492.039C329.032 492.039 329.032 492.116 328.927 492.129C315.109 492.871 258.822 492.999 244.872 492.718C244.582 492.705 244.582 492.5 244.872 492.5Z" fill="black"/>
<path d="M275.505 466.919C280.974 465.883 287.698 466.638 291.925 470.387C292.097 470.528 291.925 470.758 291.7 470.707C286.442 469.11 281.021 468.068 275.531 467.598C275.449 467.586 275.374 467.546 275.319 467.486C275.264 467.426 275.232 467.349 275.229 467.269C275.226 467.189 275.252 467.11 275.302 467.046C275.352 466.982 275.424 466.938 275.505 466.919Z" fill="black"/>
<path d="M271.555 469.274C277.037 468.225 283.761 468.98 287.988 472.742C288.159 472.883 287.988 473.1 287.763 473.049C282.503 471.458 277.083 470.416 271.594 469.94C271.503 469.945 271.414 469.914 271.346 469.856C271.278 469.797 271.236 469.714 271.231 469.626C271.226 469.538 271.257 469.451 271.318 469.385C271.378 469.319 271.464 469.279 271.555 469.274Z" fill="black"/>
<path d="M267.618 471.642C273.1 470.605 279.824 471.36 284.051 475.109C284.209 475.25 284.051 475.48 283.813 475.429C278.555 473.831 273.134 472.788 267.644 472.32C267.562 472.308 267.487 472.268 267.432 472.208C267.377 472.148 267.345 472.071 267.342 471.991C267.338 471.911 267.364 471.832 267.415 471.768C267.465 471.704 267.537 471.66 267.618 471.642Z" fill="black"/>
<path d="M252.27 183.051C252.27 183.051 253.432 206.456 258.967 224.999C259.403 226.534 259.892 228.044 260.407 229.49C265.468 231.472 270.331 233.896 274.938 236.733C274.938 236.733 275.519 255.57 276.1 276.569C276.747 300.051 277.421 326.233 277.276 331.787C276.774 352.569 279.918 466.843 279.918 466.843L339.494 467.073C339.494 467.073 328.728 339.465 328.794 331.851C328.913 319.617 325.914 265.526 323.603 226.086C322.176 201.773 320.961 183.051 320.961 183.051H252.27Z" fill="#0E0E0E"/>
<path d="M282.03 456.58C291.132 456.426 288.516 456.349 297.618 456.298C302.069 456.298 331.342 456.145 335.504 456.836C335.583 456.836 335.583 457.002 335.504 457.015C331.329 457.667 302.069 457.296 297.618 457.232C288.516 457.117 291.118 457.053 282.03 456.836C281.995 456.836 281.961 456.822 281.937 456.798C281.912 456.774 281.898 456.742 281.898 456.708C281.898 456.674 281.912 456.641 281.937 456.617C281.961 456.593 281.995 456.58 282.03 456.58Z" fill="black"/>
<path d="M316.1 191.395C317.196 223.591 318.359 255.787 319.852 287.971C321.344 320.155 323.352 352.556 326.139 384.765C327.698 402.77 329.165 428.082 331.172 446.035C331.165 446.055 331.151 446.072 331.134 446.084C331.116 446.096 331.095 446.102 331.073 446.102C331.052 446.102 331.031 446.096 331.013 446.084C330.995 446.072 330.982 446.055 330.974 446.035C326.641 414.044 324.224 374.604 322.084 342.472C319.944 310.34 318.504 278.143 317.381 245.96C316.734 227.75 316.245 209.54 315.69 191.331C315.651 191.139 316.1 191.164 316.1 191.395Z" fill="black"/>
<path d="M257.976 228.096C263.904 230.49 269.606 233.38 275.017 236.733C275.053 236.761 275.078 236.801 275.087 236.845C275.097 236.889 275.09 236.935 275.068 236.975C275.046 237.014 275.01 237.045 274.967 237.062C274.924 237.079 274.876 237.08 274.832 237.066C269.085 234.366 263.22 231.768 257.659 228.761C257.583 228.712 257.528 228.638 257.504 228.553C257.479 228.468 257.486 228.378 257.525 228.297C257.563 228.217 257.629 228.153 257.712 228.116C257.795 228.079 257.888 228.072 257.976 228.096Z" fill="black"/>
<path d="M257.592 208.235C257.989 210.283 258.504 212.317 258.913 214.352C259.323 216.387 259.666 218.191 260.234 220.111C260.668 221.941 261.63 223.614 263.008 224.935C263.788 225.626 264.633 226.215 265.465 226.893C265.901 227.238 266.39 227.558 266.852 227.916C266.786 227.635 266.747 227.366 266.694 227.085C266.549 226.304 266.417 225.536 266.284 224.756C265.981 223.028 265.69 221.288 265.426 219.56C264.884 216.156 264.395 212.714 263.656 209.323C263.664 209.3 263.679 209.281 263.699 209.267C263.719 209.253 263.743 209.246 263.768 209.246C263.793 209.246 263.817 209.253 263.837 209.267C263.857 209.281 263.872 209.3 263.88 209.323C264.752 212.663 265.716 215.964 266.522 219.33C266.892 220.981 268.226 229.132 268.292 229.721C268.358 230.309 268.398 230.911 268.424 231.512C268.497 232.12 268.497 232.734 268.424 233.342C268.424 233.483 268.2 233.457 268.134 233.342C267.88 232.778 267.702 232.185 267.605 231.576C267.447 230.988 267.315 230.399 267.209 229.81C267.209 229.593 267.13 229.375 267.103 229.158C266.271 228.671 265.505 228.019 264.726 227.481C263.946 226.944 263.048 226.317 262.255 225.677C260.792 224.482 259.737 222.884 259.23 221.096C258.722 219.179 258.39 217.222 258.24 215.248C257.975 212.919 257.777 210.59 257.447 208.286C257.355 208.146 257.566 208.094 257.592 208.235Z" fill="black"/>
<path d="M275.704 118.812C273.458 127.77 249.086 175.962 249.284 178.956C249.284 179.673 264.026 189.194 264.383 190.358C265.849 194.952 241.662 214.365 236.365 215.516C220.804 218.92 207.211 218.217 207.488 205.842C207.924 186.43 243.155 138.353 261.199 121.384C273.062 110.187 277.923 110.034 275.704 118.812Z" fill="#DD6A57"/>
<path d="M230.434 217.833L259.059 183.051C259.059 183.051 250.513 180.057 250.328 178.125C250.143 176.192 270.843 134.936 275.321 122.805C279.799 110.674 276.325 108.165 262.903 118.569C249.482 128.973 199.681 196.386 207.065 211.396C212.151 221.748 230.434 217.833 230.434 217.833Z" fill="#00E340"/>
<path d="M250.314 178.355C249.044 178.661 247.81 179.09 246.628 179.635C245.43 180.147 244.242 180.671 243.062 181.209C240.723 182.258 238.398 183.346 236.14 184.549C233.881 185.751 231.688 187.031 229.535 188.388L228.002 189.309L227.395 189.514C226.536 189.808 225.677 190.128 224.858 190.499C223.259 191.223 221.71 192.048 220.222 192.969C220.116 193.033 220.222 193.186 220.327 193.135C221.877 192.288 223.488 191.553 225.149 190.934L225.809 190.704C224.938 191.267 224.092 191.855 223.273 192.482C221.077 194.124 218.99 195.898 217.025 197.793C216.932 197.883 217.025 198.011 217.17 197.921C220.71 194.594 225.189 192.188 229.455 189.846C233.722 187.505 238.2 184.804 242.665 182.412C243.986 181.72 245.215 181.068 246.522 180.441C247.855 179.881 249.156 179.253 250.419 178.56C250.444 178.544 250.462 178.521 250.469 178.493C250.477 178.466 250.474 178.437 250.461 178.412C250.448 178.386 250.426 178.366 250.399 178.356C250.371 178.346 250.341 178.345 250.314 178.355Z" fill="black"/>
<path d="M327.288 217.833C327.077 218.037 239.786 212.253 239.046 211.319C238.029 210.04 264.488 119.798 274.29 109.1C276.377 106.809 288.662 104.378 295.228 110.379C309.151 123.176 318.913 164.253 320.96 176.589C324.355 196.949 328.067 217.078 327.288 217.833Z" fill="#00E340"/>
<path d="M264.581 128.294C264.581 128.154 264.383 128.051 264.33 128.192C262.89 131.673 261.556 135.192 260.248 138.711C260.314 138.212 260.367 137.7 260.407 137.201C260.512 135.857 260.499 134.514 260.618 133.183C260.618 133.055 260.42 133.055 260.42 133.183C260.341 134.565 260.077 135.921 259.865 137.29C259.654 138.66 259.509 139.747 259.297 140.976L259.178 141.629C257.065 147.502 255.083 153.427 253.141 159.352C249.707 169.909 246.536 180.569 243.564 191.254C241.873 197.281 240.394 203.347 239.007 209.438C239.014 209.458 239.028 209.474 239.046 209.486C239.063 209.498 239.084 209.505 239.106 209.505C239.127 209.505 239.149 209.498 239.166 209.486C239.184 209.474 239.197 209.458 239.205 209.438C242.441 198.868 245.572 188.26 248.795 177.69C251.754 167.951 254.872 158.264 258.042 148.577C258.058 148.586 258.075 148.591 258.092 148.592C258.11 148.593 258.127 148.591 258.144 148.585C258.16 148.578 258.175 148.569 258.187 148.557C258.199 148.544 258.208 148.529 258.214 148.513L258.888 145.954C260.816 140.131 262.771 134.232 264.581 128.294Z" fill="black"/>
<path d="M272.043 112.849C271.528 116.688 270.59 125.543 276.839 125.415C279.37 125.154 281.769 124.189 283.747 122.638C285.808 121.239 287.699 119.621 289.388 117.814C291.358 115.855 293.157 113.741 294.764 111.492C294.764 111.403 294.989 111.492 294.91 111.608C293.272 113.86 291.871 116.214 290.009 118.3C288.237 120.344 286.188 122.148 283.919 123.662C281.805 125.249 279.244 126.177 276.574 126.324C275.417 126.3 274.303 125.89 273.422 125.163C272.541 124.435 271.947 123.435 271.74 122.331C271.115 119.188 271.219 115.949 272.043 112.849Z" fill="black"/>
<path d="M300.961 129.113C322.202 144.469 346.878 152.749 357.076 148.884C365.002 145.864 390.669 123.099 394.87 104.697C395.795 100.641 363.602 97.0194 362.334 99.7451C358.622 107.577 344.104 121.18 342.625 120.975C340.696 120.719 318.728 116.163 301.384 112.209C280.433 107.436 289.35 120.744 300.961 129.113Z" fill="#DD6A57"/>
<path d="M400.642 98.1199C398.964 104.71 390.074 116.905 386.758 119.042C383.443 121.179 361.567 107.231 361.25 103.29C360.933 99.3484 368.383 77.5557 374.064 73.3456C379.744 69.1355 402.438 91.2865 400.642 98.1199Z" fill="#DD6A57"/>
<path d="M361.897 99.3612C361.109 93.9269 359.507 88.6331 357.142 83.6469C354.103 77.7988 348.912 69.4426 352.095 67.7406C358.634 64.2471 371.58 85.0801 371.58 85.0801C371.58 85.0801 375.767 95.1638 369.598 99.1564C368.459 99.8753 367.137 100.275 365.778 100.311C364.418 100.347 363.075 100.018 361.897 99.3612Z" fill="#DD6A57"/>
<path d="M366.719 81.5355C369.361 84.0053 371.369 81.7402 371.369 81.7402C371.369 81.7402 367.406 87.5755 369.968 90.6979C372.531 93.8203 376.573 89.6486 376.89 89.4182C376.679 89.7254 373.192 95.1767 376.085 98.056C378.978 100.935 382.544 96.2901 382.769 95.9829C382.663 96.3412 381.448 101.025 384.09 102.714C388.753 105.644 392.267 93.7563 396.282 91.7984C396.282 91.7984 400.483 98.0176 400.642 98.1967C400.8 98.3759 404.222 86.9485 401.197 81.8426C400.767 81.0935 400.086 80.5089 399.267 80.1855C398.448 79.862 397.54 79.8191 396.692 80.0639C396.692 80.0639 398.264 76.5576 396.058 74.2158C394.909 73.0257 391.923 73.7296 391.923 73.7296C392.235 72.9171 392.31 72.0372 392.14 71.1863C391.97 70.3353 391.561 69.5462 390.959 68.9052C389.294 67.344 386.56 68.291 386.56 68.291C386.56 68.291 397.551 54.2147 394.261 51.6553C388.581 47.1637 369.334 77.2486 366.111 77.5046C364.579 77.5685 365.543 80.4478 366.719 81.5355Z" fill="#DD6A57"/>
<path d="M392.03 73.5504C392.03 73.5504 392.03 73.4096 391.951 73.448C385.037 76.8034 379.591 82.446 376.601 89.3543C376.508 89.5974 376.667 89.9173 376.799 89.6486C379.058 85.0418 386.759 77.1463 392.03 73.5504Z" fill="black"/>
<path d="M382.743 96.4948C385.741 89.7637 390.669 84.6451 396.481 80.0895C396.56 80.0895 396.481 79.9359 396.389 79.9615C392.901 81.4459 389.506 84.7219 387.142 87.4859C384.832 90.031 383.256 93.1206 382.571 96.4436C382.479 96.5204 382.677 96.6995 382.743 96.4948Z" fill="black"/>
<path d="M371.251 81.7529C371.119 81.9833 371.938 81.8425 371.819 82.0728C370.564 84.6322 368.556 89.2646 370.498 90.7234C372.03 91.8751 374.699 90.7234 375.544 89.8532L377.658 87.729L376.429 90.4419C375.866 91.6574 375.514 92.9544 375.386 94.2809C375.292 94.882 375.329 95.4955 375.496 96.0818C375.662 96.6681 375.953 97.2141 376.35 97.6848C376.727 98.1191 377.246 98.4148 377.821 98.522C378.396 98.6291 378.991 98.5414 379.507 98.2734C380.648 97.6661 381.608 96.7848 382.294 95.7141L384.302 92.8092L383.391 96.1748C383.131 97.1135 383.002 98.082 383.008 99.054C382.981 99.9548 383.224 100.844 383.708 101.613C383.945 101.955 384.276 102.226 384.663 102.395C385.051 102.565 385.479 102.626 385.901 102.573C386.831 102.322 387.666 101.815 388.305 101.114C389.718 99.624 391.008 98.028 392.162 96.3411C392.783 95.5093 393.404 94.6776 394.051 93.8714C394.665 93.0242 395.457 92.3132 396.376 91.7855C395.538 92.3993 394.829 93.164 394.289 94.0377C393.708 94.8823 393.166 95.7525 392.611 96.597C391.552 98.4091 390.323 100.123 388.939 101.716C388.201 102.582 387.219 103.223 386.112 103.558C385.493 103.681 384.85 103.625 384.263 103.397C383.676 103.17 383.171 102.781 382.81 102.279C382.16 101.322 381.824 100.198 381.845 99.054C381.834 97.9763 381.963 96.9015 382.228 95.8548L383.325 96.3155C382.529 97.5982 381.405 98.6604 380.062 99.3995C379.299 99.7871 378.421 99.9048 377.579 99.7322C376.755 99.5264 376.017 99.0796 375.465 98.4526C374.953 97.8607 374.578 97.1699 374.364 96.4262C374.149 95.6825 374.102 94.9031 374.223 94.1401C374.393 92.7032 374.803 91.3027 375.439 89.994L376.324 90.5826C375.214 91.6192 372.361 93.2571 369.785 91.7343C366.667 89.2646 370.472 82.879 371.251 81.7529Z" fill="black"/>
<path d="M357.736 103.584L389.506 122.638C389.506 122.638 366.296 151.533 351.092 151.866C335.887 152.199 300.894 136.203 289.772 124.327C280.155 114.09 290.934 108.664 300.894 111.531C310.855 114.397 342.043 120.335 342.915 119.9C343.787 119.465 357.736 103.584 357.736 103.584Z" fill="#00E340"/>
<path d="M383.667 128.333C382.585 127.495 381.451 126.721 380.272 126.017L376.6 123.572C374.249 122.024 371.805 120.604 369.374 119.17C364.434 116.253 359.506 113.246 354.341 110.712C354.249 110.712 354.13 110.801 354.222 110.865C358.806 114.167 363.694 117.072 368.529 120.002C370.933 121.474 373.337 122.958 375.794 124.327L379.519 126.337C380.818 127.125 382.168 127.83 383.562 128.448C383.641 128.499 383.746 128.397 383.667 128.333Z" fill="black"/>
<path d="M311.264 138.801C307.617 136.764 303.565 135.504 299.376 135.102C299.355 135.11 299.338 135.123 299.326 135.14C299.313 135.157 299.307 135.177 299.307 135.198C299.307 135.219 299.313 135.24 299.326 135.257C299.338 135.274 299.355 135.287 299.376 135.294C300.934 135.729 302.427 136.344 303.986 136.83L304.924 137.111H304.105L301.463 136.983C301.37 136.983 301.357 137.111 301.463 137.124C302.323 137.371 303.209 137.522 304.105 137.572C304.775 137.597 305.446 137.572 306.113 137.495H306.284C306.971 137.674 310.564 138.928 311.264 138.98C311.291 139.005 311.317 138.928 311.264 138.801Z" fill="black"/>
<path d="M276.865 121.32C281.304 122.037 289.282 114.487 291.898 109.061C292.07 108.69 291.251 104.928 290.471 100.321C289.996 97.5313 289.56 94.3961 289.362 91.5169C289.362 90.9282 287.314 92.1439 287.314 92.1439L283.536 93.2956L271 97.1346C272.31 100.672 273.171 104.35 273.563 108.089C273.596 108.485 273.596 108.883 273.563 109.279C273.563 109.279 273.563 109.394 273.563 109.471C273.272 111.697 272.572 120.616 276.865 121.32Z" fill="#DD6A57"/>
<path d="M273.51 109.24C273.51 109.24 273.51 109.355 273.51 109.432C274.152 109.483 274.797 109.483 275.439 109.432C287.975 108.357 288.49 92.7965 288.49 92.7965L283.55 93.3212L271.014 97.1602C272.324 100.697 273.185 104.376 273.576 108.114C273.584 108.491 273.562 108.867 273.51 109.24Z" fill="black"/>
<path d="M268.887 64.0168C268.887 64.0168 262.81 66.2946 261.556 72.1811C260.301 78.0676 261.556 84.3123 262.071 84.6195C262.586 84.9266 268.887 64.0168 268.887 64.0168Z" fill="black"/>
<path d="M293.22 72.8337C294.977 79.3216 290.737 97.7232 285.862 101.677C278.795 107.41 267.593 107.564 262.652 99.4124C257.871 91.5041 263.841 67.6255 269.257 64.068C277.223 58.8342 290.618 63.2362 293.22 72.8337Z" fill="#DD6A57"/>
<path d="M275.994 84.1588C275.994 84.1588 276.087 84.2356 276.073 84.2868C275.77 85.5665 275.638 86.9869 276.708 87.6395C275.307 87.23 275.505 85.2849 275.994 84.1588Z" fill="black"/>
<path d="M277.42 83.084C279.521 83.3399 278.834 87.3964 276.892 87.1533C274.95 86.9102 275.663 82.8792 277.42 83.084Z" fill="black"/>
<path d="M268.543 82.7767C268.543 82.7767 268.438 82.7767 268.425 82.8663C268.253 84.146 267.843 85.5408 266.602 85.7711V85.8479C268.002 85.8863 268.543 83.9924 268.543 82.7767Z" fill="black"/>
<path d="M267.565 81.3436C265.505 80.8702 264.659 84.8883 266.561 85.3362C268.464 85.7841 269.283 81.6891 267.565 81.3436Z" fill="black"/>
<path d="M279.376 81.4971C278.856 81.2536 278.349 80.9845 277.857 80.6909C277.276 80.371 276.774 80.179 276.47 79.5776C276.396 79.3993 276.388 79.2019 276.445 79.0182C276.503 78.8344 276.624 78.6751 276.787 78.5666C277.14 78.3948 277.534 78.3161 277.928 78.3386C278.322 78.3611 278.703 78.4839 279.033 78.6946C279.765 79.0328 280.344 79.6204 280.658 80.3454C280.72 80.5151 280.73 80.6989 280.686 80.8739C280.641 81.049 280.545 81.2076 280.409 81.3302C280.272 81.4528 280.102 81.5339 279.918 81.5636C279.735 81.5932 279.546 81.5701 279.376 81.4971Z" fill="black"/>
<path d="M266.285 78.9891C266.865 78.9702 267.443 78.919 268.016 78.8355C268.635 78.8644 269.246 78.6982 269.76 78.362C269.897 78.2219 269.982 78.0422 270.004 77.8504C270.025 77.6586 269.981 77.4652 269.879 77.2999C269.627 77.004 269.298 76.779 268.927 76.6484C268.555 76.5179 268.154 76.4865 267.765 76.5577C266.954 76.5799 266.182 76.8948 265.599 77.4407C265.473 77.5715 265.39 77.7348 265.358 77.9107C265.327 78.0866 265.349 78.2675 265.422 78.4316C265.494 78.5956 265.615 78.7356 265.768 78.8346C265.921 78.9335 266.101 78.9872 266.285 78.9891Z" fill="black"/>
<path d="M275.149 95.5606C274.779 95.8037 274.409 96.162 273.933 96.1236C273.459 96.0346 273.01 95.8516 272.612 95.5861C272.612 95.5861 272.52 95.5861 272.546 95.5861C272.687 95.8624 272.903 96.0965 273.171 96.2633C273.438 96.43 273.747 96.5233 274.065 96.5331C274.343 96.518 274.609 96.4183 274.825 96.2483C275.041 96.0782 275.196 95.8465 275.267 95.5861C275.347 95.5605 275.254 95.5222 275.149 95.5606Z" fill="black"/>
<path d="M274.474 91.5809C274.061 92.0239 273.558 92.3798 272.997 92.6263C272.436 92.8729 271.828 93.0049 271.212 93.0142C270.672 93.0262 270.133 92.9615 269.613 92.8222C269.513 92.8119 269.415 92.786 269.323 92.7454L269.045 92.6558C268.977 92.6353 268.918 92.5919 268.879 92.5333C268.84 92.4748 268.824 92.4048 268.834 92.3359C268.829 92.2934 268.829 92.2505 268.834 92.208V92.0928C268.966 91.1202 269.309 89.6742 269.309 89.6742C268.926 89.7894 266.932 90.3013 267.037 89.8022C267.896 85.472 269.201 81.2364 270.934 77.1591C270.951 77.1376 270.974 77.1217 271 77.1137C271.027 77.1057 271.055 77.106 271.082 77.1145C271.108 77.123 271.131 77.1393 271.147 77.1611C271.163 77.1828 271.172 77.209 271.172 77.2359C270.406 81.2412 268.913 85.093 268.081 89.0984C268.796 88.9109 269.533 88.8162 270.274 88.8168C270.406 88.8168 269.547 91.6193 269.521 92.0544C270.324 92.2631 271.163 92.3128 271.987 92.2007C272.811 92.0886 273.603 91.8169 274.316 91.4018C274.474 91.4018 274.567 91.5041 274.474 91.5809Z" fill="black"/>
<path d="M270.288 92.4383C270.716 93.2152 271.344 93.8719 272.111 94.345C272.535 94.5942 273.03 94.7062 273.524 94.6649C274.607 94.5625 274.779 93.6412 274.726 92.835C274.695 92.3992 274.606 91.9692 274.462 91.5553C273.204 92.2762 271.741 92.5858 270.288 92.4383Z" fill="black"/>
<path d="M272.11 94.3448C272.535 94.594 273.03 94.7061 273.524 94.6647C274.607 94.5624 274.779 93.641 274.726 92.8348C274.178 92.7673 273.623 92.8794 273.149 93.153C272.675 93.4267 272.31 93.8463 272.11 94.3448Z" fill="#FF98B9"/>
<path d="M290.168 87.7419C286.205 87.7419 286.707 71.0167 286.707 71.0167C284.407 72.0526 281.957 72.743 279.442 73.0642C276.885 73.2161 274.319 73.0873 271.793 72.6803C271.251 72.5267 278.041 69.9674 278.041 69.9674C278.041 69.9674 261.014 73.0514 260.116 69.9674C259.812 68.9053 267.579 57.593 279.336 58.4504C288.028 59.039 292.863 67.7152 292.863 67.7152C292.863 67.7152 297.037 72.2452 296.826 74.8941C296.588 78.3364 294.316 87.7419 290.168 87.7419Z" fill="black"/>
<path d="M288.516 87.7418C288.516 87.7418 293.206 82.0089 295.927 83.6596C298.648 85.3104 294.857 93.8074 291.489 94.8055C291.065 94.9628 290.614 95.0354 290.16 95.0189C289.707 95.0023 289.262 94.897 288.853 94.7092C288.443 94.5214 288.076 94.2551 287.776 93.9264C287.475 93.5976 287.246 93.2132 287.103 92.7965L288.516 87.7418Z" fill="#DD6A57"/>
<path d="M294.779 86.1039C294.779 86.1039 294.779 86.1039 294.779 86.1935C293.688 86.6423 292.707 87.3083 291.899 88.1483C291.091 88.9882 290.475 89.9833 290.089 91.069C290.235 90.8519 290.429 90.6683 290.656 90.5311C290.882 90.394 291.138 90.3065 291.403 90.2748C291.669 90.2431 291.938 90.268 292.192 90.3477C292.447 90.4274 292.68 90.56 292.877 90.7363C292.877 90.7363 292.877 90.8642 292.811 90.8514C292.412 90.7055 291.977 90.6812 291.564 90.7818C291.15 90.8825 290.779 91.1033 290.499 91.4145C290.044 91.9458 289.646 92.5203 289.31 93.1292C289.191 93.334 288.821 93.1932 288.914 92.9757C289.072 90.0708 291.595 86.2063 294.779 86.1039Z" fill="black"/>
<path d="M273.431 109.125L277.975 119.746L291.516 106.092L295.479 110.379C295.479 110.379 282.269 131.98 282.269 131.02L277.619 121.871L271.146 128.346L271.489 112.26L273.431 109.125Z" fill="#EBEBEB"/>
<path d="M270.775 120.386C270.934 117.737 271 115.063 271.277 112.414C271.277 112.324 271.436 112.273 271.462 112.414C272.044 114.973 271.462 125.108 271.462 127.54C271.727 127.258 277.473 121.832 277.526 121.922C278.53 123.368 281.938 130.035 282.176 130.636C284.25 127.207 292.228 114.73 294.699 111.441C294.704 111.43 294.711 111.419 294.721 111.411C294.731 111.402 294.742 111.395 294.755 111.391C294.767 111.388 294.78 111.386 294.793 111.387C294.806 111.389 294.819 111.393 294.83 111.399C294.841 111.406 294.851 111.414 294.859 111.425C294.866 111.435 294.872 111.447 294.874 111.459C294.877 111.472 294.877 111.484 294.874 111.497C294.871 111.509 294.865 111.521 294.857 111.531C293.034 115.152 282.493 132.006 282.321 131.903C280.529 128.762 278.907 125.533 277.46 122.229C276.495 123.406 270.709 129.523 270.683 129.126C270.555 126.213 270.586 123.296 270.775 120.386Z" fill="black"/>
<path d="M314.038 199.828H252.929V203.283H314.038V199.828Z" fill="#455A64"/>
<path d="M290.075 199.828H252.929V203.283H290.075V199.828Z" fill="black"/>
<path d="M283.655 203.334L206.312 203.347L195.242 152.199H272.599L283.655 203.334Z" fill="#455A64"/>
<path d="M244.158 177.766C244.24 178.344 244.192 178.933 244.017 179.491C243.842 180.049 243.543 180.564 243.143 180.999C242.742 181.435 242.248 181.781 241.696 182.014C241.144 182.247 240.546 182.36 239.944 182.348C238.653 182.317 237.417 181.837 236.461 180.996C235.506 180.154 234.894 179.008 234.739 177.766C234.659 177.189 234.709 176.601 234.885 176.044C235.061 175.487 235.36 174.973 235.76 174.538C236.16 174.103 236.653 173.757 237.204 173.523C237.755 173.29 238.352 173.174 238.953 173.185C240.245 173.213 241.483 173.692 242.439 174.534C243.395 175.376 244.005 176.523 244.158 177.766Z" fill="black"/>
<path d="M221.834 206.38C226.603 208.939 232.402 214.864 236.365 215.529C237.338 215.733 238.353 215.626 239.257 215.224C240.162 214.823 240.908 214.149 241.385 213.303C241.385 213.303 243.168 217.27 246.88 217.295C248.796 217.295 250.5 214.377 250.5 214.377C250.952 215.254 251.645 215.992 252.503 216.512C253.361 217.031 254.35 217.311 255.361 217.321C258.003 217.193 259.324 214.262 259.324 214.262C259.324 214.262 262.27 216.578 264.912 215.542C270.196 213.571 271.437 191.689 263.3 187.888C259.509 186.11 259.522 191.471 259.522 191.471C259.522 191.471 257.594 183.793 252.917 183.422C248.241 183.051 248.73 190.115 248.73 190.115C248.73 190.115 246.788 182.667 241.927 182.77C236.867 182.885 238.545 189.769 238.545 189.769C238.545 189.769 235.414 184.728 231.702 185.636C225.599 187.133 232.534 198.561 231.095 203.308H223.01L221.834 206.38Z" fill="#DD6A57"/>
<path d="M228.703 210.654C223.974 208.67 221.702 211.933 216.814 211.319C211.319 210.628 213.102 204.383 222.759 203.27H231.121L228.703 210.654Z" fill="#DD6A57"/>
<path d="M250.525 214.429C250.525 214.518 250.657 214.531 250.683 214.429C253.152 206.273 252.529 197.532 248.927 189.782C248.794 189.514 248.398 189.398 248.517 189.782C250.71 195.157 251.529 207.467 250.525 214.429Z" fill="black"/>
<path d="M238.056 189.27C241.503 196.872 242.085 204.793 241.477 212.995C241.477 213.019 241.487 213.042 241.504 213.059C241.521 213.076 241.545 213.085 241.569 213.085C241.594 213.085 241.618 213.076 241.635 213.059C241.652 213.042 241.662 213.019 241.662 212.995C243.089 209.054 242.917 203.782 242.415 199.687C242.025 195.88 240.618 192.237 238.333 189.117C238.241 189.027 237.976 189.104 238.056 189.27Z" fill="black"/>
</svg>
