<svg width="257" height="270" viewBox="0 0 257 270" fill="none" xmlns="http://www.w3.org/2000/svg">
<path d="M84.4563 7.08002C78.2858 11.9091 76.1395 19.1528 69.1641 56.9809L62.9936 89.9799L47.9697 99.6381C11.483 122.979 -4.3458 139.344 1.01989 148.198C5.04416 154.905 33.4823 169.392 49.5794 173.148C68.8958 177.441 69.1641 177.709 66.4813 191.66C62.7253 210.171 63.2619 239.146 67.5544 249.073C75.8712 269.194 91.7 274.828 106.187 262.755C110.48 259.267 120.406 244.243 128.455 229.219C141.869 204.537 143.479 202.391 149.649 203.732C168.429 207.757 208.672 210.976 217.794 209.366L228.257 207.488L226.647 192.733C225.574 182.001 221.281 170.465 209.745 149.539C197.941 127.003 195.258 120.028 197.404 116.808C209.477 99.3698 225.037 70.1268 223.964 67.1757C222.086 62.6149 194.185 57.5175 171.38 57.5175C152.601 57.5175 150.723 56.1761 127.114 26.9331C110.748 6.54345 94.9194 -0.700228 84.4563 7.08002ZM101.627 17.5431C104.578 18.8845 114.236 29.6159 123.358 40.8839C132.211 52.1518 141.333 62.6149 143.479 63.688C145.625 65.0294 160.381 66.3709 176.478 66.6392C192.575 66.6392 206.526 67.7123 207.331 68.7854C209.477 70.9317 195.794 96.4187 185.331 110.638L178.624 119.491L185.063 132.101C188.819 139.076 196.063 153.027 201.428 162.953C207.331 173.953 211.355 184.953 211.355 190.587V199.708H193.38C183.185 199.708 168.161 198.098 159.576 195.952C135.699 190.318 131.674 192.733 113.699 225.464C105.114 240.487 96.7974 253.633 94.6511 254.438C89.0172 256.584 83.1149 247.731 79.6272 232.439C76.9444 220.903 77.2127 214.732 80.9686 195.684C83.3832 183.075 84.7246 171.538 84.1881 170.465C83.3832 169.124 76.6761 167.514 69.1641 166.709C56.0182 165.1 36.1651 157.856 24.0923 149.807C18.4584 146.051 18.4584 145.246 21.9461 138.539C27.3118 128.345 38.3114 118.686 58.4327 106.345L75.8712 95.8821L83.1149 61.2735C94.3829 8.15316 92.5049 12.4457 101.627 17.5431Z" fill="black"/>
<path d="M84.4563 7.08004C78.2858 11.9092 76.1395 19.1528 69.1641 56.9809L62.9936 89.9799L47.9697 99.6381C11.483 122.979 -4.34579 139.344 1.01989 148.198C5.04416 154.905 33.4823 169.392 49.5794 173.148C68.8958 177.441 69.1641 177.709 66.4813 191.66C62.7253 210.171 63.2619 239.146 67.5544 249.073C75.8712 269.194 91.7 274.828 106.187 262.755C110.48 259.267 120.406 244.243 128.455 229.219C141.869 204.537 143.479 202.391 149.649 203.732C168.429 207.757 208.672 210.976 217.794 209.366L228.257 207.488L226.647 192.733C225.574 182.001 221.281 170.465 209.745 149.539C197.941 127.003 195.258 120.028 197.404 116.808C209.477 99.3699 225.037 70.1269 223.964 67.1757C222.086 62.6149 194.185 57.5175 171.38 57.5175C152.601 57.5175 150.723 56.1761 127.114 26.9331C110.748 6.54346 94.9194 -0.700205 84.4563 7.08004Z" fill="black"/>
<path d="M112.626 3.05514C106.456 7.88426 104.309 15.1279 97.334 52.956L91.1635 85.955L76.1396 95.6132C39.6529 118.954 23.8241 135.319 29.1898 144.173C33.2141 150.88 61.6522 165.367 77.7493 169.123C97.0658 173.416 97.334 173.684 94.6512 187.635C90.8952 206.146 91.4318 235.121 95.7243 245.048C104.041 265.169 119.87 270.803 134.357 258.73C138.65 255.242 148.576 240.219 156.625 225.195C170.039 200.512 171.649 198.366 177.819 199.708C196.599 203.732 236.842 206.951 245.964 205.342L256.427 203.464L254.817 188.708C253.744 177.977 249.451 166.44 237.915 145.514C226.111 122.978 223.428 116.003 225.574 112.783C237.647 95.345 253.207 66.102 252.134 63.1508C250.256 58.59 222.355 53.4926 199.55 53.4926C180.77 53.4926 178.892 52.1512 155.283 22.9082C138.918 2.51856 123.089 -4.72511 112.626 3.05514Z" fill="#F7C30E"/>
<path d="M126.945 67.9083C123.845 70.2913 122.766 73.8658 119.262 92.5329L116.161 108.817L108.612 113.583C90.2786 125.101 82.3252 133.177 85.0213 137.546C87.0433 140.856 101.333 148.005 109.421 149.858C119.127 151.976 119.262 152.109 117.913 158.993C116.026 168.128 116.296 182.426 118.453 187.325C122.632 197.254 130.585 200.034 137.864 194.077C140.021 192.356 145.009 184.942 149.053 177.528C155.793 165.348 156.602 164.289 159.703 164.951C169.139 166.937 189.36 168.525 193.943 167.731L199.2 166.804L198.392 159.523C197.852 154.227 195.695 148.534 189.899 138.208C183.967 127.087 182.619 123.645 183.698 122.056C189.764 113.451 197.583 99.0201 197.043 97.5638C196.1 95.3131 182.08 92.7977 170.622 92.7977C161.186 92.7977 160.242 92.1358 148.379 77.7052C140.156 67.6435 132.203 64.0689 126.945 67.9083Z" fill="white"/>
</svg>
