<svg width="211" height="238" viewBox="0 0 211 238" fill="none" xmlns="http://www.w3.org/2000/svg">
<path d="M168.273 39.2155L173.263 106.587C173.921 115.467 178.676 123.534 186.126 128.409L186.618 128.731C199.993 137.485 203.599 155.501 194.623 168.729L157.901 222.846C153.047 229.999 145.22 234.574 136.606 235.291L123.507 236.383C116.048 237.005 108.643 234.678 102.88 229.903L18.8316 160.263C7.98841 151.279 5.29645 135.74 12.4857 123.631L45.7886 67.5422C53.9847 53.7382 71.9332 49.3803 85.5469 57.8888L89.1444 60.1372C101.928 68.1272 118.719 64.8246 127.525 52.5882L142.4 31.9176C150.201 21.0765 167.286 25.8955 168.273 39.2155Z" fill="#020202"/>
<path d="M185.734 143.828L178.285 138.862C175.104 136.742 170.819 137.497 168.555 140.577L125.397 199.305C122.867 202.749 123.901 207.629 127.612 209.749L137.316 215.294C140.542 217.138 144.642 216.204 146.751 213.145L187.654 153.838C189.921 150.551 189.057 146.043 185.734 143.828Z" fill="white"/>
<path d="M36.7103 143.393L100.369 187.782C106.758 192.236 115.537 190.761 120.118 184.462L158.682 131.436C161.399 127.7 162.145 122.882 160.684 118.5L160.629 118.337C160.091 116.721 159.845 115.022 159.904 113.321L162.216 46.2834C162.458 39.2581 153.481 36.1356 149.311 41.7947L131.09 66.5227C123.501 76.8224 109.996 80.8305 98.0165 76.3383L78.4541 69.0024C71.9133 66.5496 64.5575 69.1804 61.0558 75.2249L32.515 124.49C28.788 130.924 30.6115 139.14 36.7103 143.393Z" fill="#A1DE6E"/>
</svg>
