<svg width="273" height="298" viewBox="0 0 273 298" fill="none" xmlns="http://www.w3.org/2000/svg">
<path d="M235.512 33.0747L14.8949 76.9582C13.1033 77.3146 11.8583 79.0698 12.1141 80.8785L36.293 251.838C36.5488 253.647 38.2086 254.824 40.0002 254.468L109.805 240.582C111.597 240.226 113.257 241.403 113.513 243.212L118.226 276.539C118.585 279.075 121.539 280.105 123.519 278.385L183.321 226.428C183.778 226.03 184.326 225.759 184.907 225.644L260.618 210.584C262.409 210.228 263.654 208.472 263.399 206.664L239.22 35.7044C238.964 33.8957 237.304 32.7183 235.512 33.0747Z" fill="#FF9363" stroke="black" stroke-width="17.6403"/>
<path d="M232.342 9.28441L11.724 53.168C9.93237 53.5243 8.68735 55.2795 8.94316 57.0882L33.1221 228.048C33.3779 229.856 35.0377 231.034 36.8293 230.677L106.635 216.792C108.426 216.436 110.086 217.613 110.342 219.422L115.055 252.749C115.414 255.285 118.368 256.315 120.348 254.595L180.15 202.637C180.608 202.24 181.155 201.969 181.736 201.854L257.447 186.794C259.238 186.437 260.483 184.682 260.228 182.873L236.049 11.9141C235.793 10.1054 234.133 8.92803 232.342 9.28441Z" fill="#FFC309" stroke="black" stroke-width="17.6403"/>
<path d="M116.553 133.115C115.709 148.318 102.943 160.62 88.0397 160.592C73.1368 160.565 61.7402 148.218 62.5849 133.015C63.4295 117.812 76.1955 105.51 91.0984 105.538C106.001 105.565 117.398 117.912 116.553 133.115Z" fill="black" stroke="#FFC309" stroke-width="7.71765"/>
<path d="M166.33 123.214C165.485 138.417 152.719 150.72 137.816 150.692C122.913 150.665 111.517 138.318 112.361 123.115C113.206 107.912 125.972 95.6096 140.875 95.6371C155.778 95.6646 167.174 108.011 166.33 123.214Z" fill="black" stroke="#FFC309" stroke-width="7.71765"/>
<path d="M217.014 113.792C216.155 129.258 203.168 141.773 188.007 141.745C172.846 141.717 161.252 129.157 162.111 113.69C162.97 98.2239 175.957 85.7086 191.119 85.7366C206.28 85.7646 217.874 98.3253 217.014 113.792Z" fill="black" stroke="#FFC309" stroke-width="7.71765"/>
</svg>
